<svg id="Layer_1" data-name="Layer 1" xmlns="http://www.w3.org/2000/svg" viewBox="0 0 332.848 78.655"><title>Untitled-1</title><g id="_2NAD" data-name="2NAD"><path d="M49.383,23.8a20.515,20.515,0,0,1-1.527,8.371,33.261,33.261,0,0,1-4.475,7.107l-23.375,29.8H48.856v9.371H0L24.218,46.435q3.262-4.21,5.9-7.687,1.05-1.474,2.158-2.9t1.948-2.633q0.841-1.208,1.421-1.947a8.168,8.168,0,0,0,.685-0.948,12.933,12.933,0,0,0,.732-11.687,13.077,13.077,0,0,0-2.907-4.212,14.262,14.262,0,0,0-4.281-2.843,13.269,13.269,0,0,0-10.359,0,13.365,13.365,0,0,0-7.083,7.055A12.77,12.77,0,0,0,11.371,23.8H0.526A20.471,20.471,0,0,1,2.475,15,23.526,23.526,0,0,1,7.739,7.74,25.053,25.053,0,0,1,24.954,1.053,25.058,25.058,0,0,1,42.17,7.74,23.574,23.574,0,0,1,47.435,15,20.5,20.5,0,0,1,49.383,23.8Z" fill="#222248"/><path d="M76.653,78.655H66.019V0l49.909,59.7V1.369h10.635V78.655H116.243L76.653,29.9V78.655Z" fill="#222248"/><path d="M143.2,78.338L174.68,1.158l31.483,77.18H194.686l-2.316-6.106H157.1l-2.422,6.106H143.2Zm17.689-16h27.587L174.68,26.956Z" fill="#222248"/><path d="M249.755,1.264a35.149,35.149,0,0,1,14.583,3.054,37.678,37.678,0,0,1,11.846,8.317,39.9,39.9,0,0,1,8,12.267,38.29,38.29,0,0,1,2.948,15,39.49,39.49,0,0,1-2.843,15,38.2,38.2,0,0,1-7.845,12.215A37.279,37.279,0,0,1,264.6,75.39a36.007,36.007,0,0,1-14.847,3.054H222.8V1.264h26.955Zm-1.264,67.283a25.73,25.73,0,0,0,10.846-2.267,26.333,26.333,0,0,0,8.528-6.172,28.39,28.39,0,0,0,5.581-9.124,31.963,31.963,0,0,0,0-22.258,27.913,27.913,0,0,0-5.634-9.125,26.906,26.906,0,0,0-8.581-6.171,25.483,25.483,0,0,0-10.74-2.269H234.066V68.546h14.425Z" fill="#222248"/><path d="M319.628,5.424V19.171h13.221v3.51H319.628V36.545h-3.744V22.681H302.663v-3.51h13.221V5.424h3.744Z" fill="#222248"/></g></svg>