<svg id="Layer_1" data-name="Layer 1" xmlns="http://www.w3.org/2000/svg" viewBox="0 0 272.958 77.496"><title>Untitled-1</title><g id="ADP"><path d="M58.16,77.285L89.643,0.105l31.483,77.18H109.648l-2.316-6.107H72.059l-2.422,6.107H58.16Zm17.689-16h27.587L89.643,25.9Z" fill="#222248"/><path d="M164.717,0.211A35.156,35.156,0,0,1,179.3,3.264a37.68,37.68,0,0,1,11.846,8.318,39.9,39.9,0,0,1,8,12.267,38.288,38.288,0,0,1,2.948,15,39.493,39.493,0,0,1-2.843,15,38.194,38.194,0,0,1-7.845,12.214,37.28,37.28,0,0,1-11.845,8.265,36.007,36.007,0,0,1-14.847,3.054H137.762V0.211h26.955Zm-1.264,67.283A25.731,25.731,0,0,0,174.3,65.226a26.325,26.325,0,0,0,8.528-6.171,28.392,28.392,0,0,0,5.581-9.125,30.875,30.875,0,0,0,2-11.13,30.869,30.869,0,0,0-2-11.128,27.906,27.906,0,0,0-5.634-9.125,26.906,26.906,0,0,0-8.581-6.171,25.476,25.476,0,0,0-10.74-2.269H149.028V67.493h14.425Z" fill="#222248"/><path d="M272.748,24.639c0.069,0.421.121,0.842,0.158,1.263s0.052,0.879.052,1.369v0.21q0,0.738-.052,1.369c-0.037.421-.089,0.842-0.158,1.264v0.105l-0.316,2.527a0.611,0.611,0,0,0-.1.421q-0.107.528-.211,0.947a7.519,7.519,0,0,1-.316.948A26.777,26.777,0,0,1,260.429,50.12a31.533,31.533,0,0,1-7.687,3.317,32.236,32.236,0,0,1-8.95,1.21H230V77.5H218.732V0.105h25.06a30.471,30.471,0,0,1,16.637,4.528A27.015,27.015,0,0,1,271.8,19.585a9.587,9.587,0,0,1,.527,2,0.609,0.609,0,0,0,.1.421q0.1,0.631.158,1.263a9.8,9.8,0,0,0,.158,1.158v0.211ZM245.161,44.75a13.825,13.825,0,0,0,6.37-1.474,17.09,17.09,0,0,0,5.054-3.9,18.15,18.15,0,0,0,3.37-5.528,17.92,17.92,0,0,0,0-12.951,18.2,18.2,0,0,0-3.37-5.528,17.145,17.145,0,0,0-5.054-3.9A13.843,13.843,0,0,0,245.161,10H230.1V44.75h15.058Z" fill="#222248"/><path d="M49.383,22.743a20.515,20.515,0,0,1-1.527,8.371,33.261,33.261,0,0,1-4.475,7.107L20.006,68.02H48.856v9.371H0L24.218,45.382q3.262-4.21,5.9-7.687,1.05-1.474,2.158-2.9t1.948-2.633q0.841-1.208,1.421-1.947a8.168,8.168,0,0,0,.685-0.948,12.933,12.933,0,0,0,.732-11.687,13.077,13.077,0,0,0-2.907-4.212,14.262,14.262,0,0,0-4.281-2.843,13.269,13.269,0,0,0-10.359,0,13.365,13.365,0,0,0-7.083,7.055,12.77,12.77,0,0,0-1.057,5.159H0.526a20.471,20.471,0,0,1,1.948-8.792A23.526,23.526,0,0,1,7.739,6.687,25.053,25.053,0,0,1,24.954,0,25.058,25.058,0,0,1,42.17,6.687a23.574,23.574,0,0,1,5.265,7.265A20.5,20.5,0,0,1,49.383,22.743Z" fill="#222248"/></g></svg>