<svg id="fundo-03" xmlns="http://www.w3.org/2000/svg" viewBox="0 0 978.2 560"><defs><style>.cls-1{fill:#1d7091;}.cls-2{fill:#53b1e0;}.cls-3{fill:#22a6b3;}</style></defs><title>anima12</title><path class="cls-1" d="M334.011,475.8c-1.7-3.3-5.2-4.3-6.6-2.7h0c-1.4,1.6-1.1,4.2-.2,6.1a5.359,5.359,0,0,1,.5,1.1l-3.2.2a33.536,33.536,0,0,0-1.3-6.9,45.525,45.525,0,0,0-5.6-11.5,7.017,7.017,0,0,0-.6-0.9l4.3-2.7a7.772,7.772,0,0,1,.2,1.6c0.2,2.2,1.2,4.5,3.1,5.2h0c1.9,0.6,4.5-1.9,4.4-5.7a21.568,21.568,0,0,0-9.6-16.7c-3.1-2-6.7-1.1-7,.9h0c-0.5,2,1.1,4.2,3,5.4,0.4,0.2.6,0.5,1,.7l-3.4,2.2a36.978,36.978,0,0,0-3.1-6.9,21.667,21.667,0,0,0-11.3-8.5l1.4-2.6a6.014,6.014,0,0,1,.9,1.3c1.2,1.9,3.3,3.3,5.4,3h0c2-.4,3-3.9.9-7a21.031,21.031,0,0,0-16.7-9.6c-3.7-.2-6.3,2.4-5.7,4.4h0c0.6,1.9,3.1,3.1,5.2,3.1,0.4,0,.8.1,1.2,0.1l-2.7,5.3a47.243,47.243,0,0,0-4.9-.2,33.665,33.665,0,0,0-4.4.3,24.878,24.878,0,0,1-3.7.2,4.174,4.174,0,0,0-.8-0.6,18.434,18.434,0,0,0-4-2.6,9.384,9.384,0,0,0-1.5-.6l-0.3-7.1c0.5,0.2.9,0.4,1.4,0.6,1.9,0.9,4.5,1.2,6.1-.2h0c1.6-1.4.6-4.9-2.7-6.6a21.189,21.189,0,0,0-19.3,0c-3.3,1.7-4.3,5.2-2.7,6.6h0c1.6,1.4,4.2,1.1,6.1.2a5.359,5.359,0,0,1,1.1-.5l0.3,5.5a41.671,41.671,0,0,0-12.5,2.7,57.862,57.862,0,0,0-6.7,3.1l-3.1-4.8a7.772,7.772,0,0,1,1.6-.2c2.2-.2,4.5-1.2,5.2-3.1h0c0.6-1.9-1.9-4.5-5.7-4.4a21.568,21.568,0,0,0-16.7,9.6c-2,3.1-1.1,6.7.9,7h0c2,0.5,4.2-1.1,5.4-3,0.2-.4.5-0.6,0.7-1l3,4.5c-1.3.7-2.6,1.4-4,2l-0.5.2a23.162,23.162,0,0,0-5.7,3.6,22.3,22.3,0,0,0-4.2,6.1l-0.9,1.9-3.6-1.9a6.014,6.014,0,0,1,1.3-.9c1.9-1.2,3.3-3.3,3-5.4h0c-0.4-2-3.9-3-7-.9a21.031,21.031,0,0,0-9.6,16.7c-0.2,3.7,2.4,6.3,4.4,5.7h0c1.9-.6,3.1-3.1,3.1-5.2,0-.4.1-0.8,0.1-1.2l4,2-2.7,5.4a37.961,37.961,0,0,0-3.3,8.1,31.257,31.257,0,0,0-.8,6.6l-2.6.1c0.2-.5.4-0.9,0.6-1.4,0.9-1.9,1.2-4.5-.2-6.1h0c-1.4-1.6-4.9-.6-6.6,2.7a21.189,21.189,0,0,0,0,19.3c1.7,3.3,5.2,4.3,6.6,2.7h0c1.4-1.6,1.1-4.2.2-6.1a5.36,5.36,0,0,1-.5-1.1l2.7-.2,0.3,8.5c0.1,4.4.3,9.4,1.9,14.3l-2.1,1.4a7.772,7.772,0,0,1-.2-1.6c-0.2-2.2-1.2-4.5-3.1-5.2h0c-1.9-.6-4.5,1.9-4.4,5.7a21.568,21.568,0,0,0,9.6,16.7c3.1,2,6.7,1.1,7-.9h0c0.5-2-1.1-4.2-3-5.4-0.4-.2-0.6-0.5-1-0.7l1.9-1.3a48.743,48.743,0,0,0,12.1,10.3,91.044,91.044,0,0,0,8.1,4.4l-2,4a9.381,9.381,0,0,1-.9-1.2c-1.2-1.9-3.3-3.3-5.4-3h0c-2,.4-3,3.9-0.9,7a21.031,21.031,0,0,0,16.7,9.6c3.7,0.2,6.3-2.4,5.7-4.4h0c-0.6-1.9-3.1-3.1-5.2-3.1-0.4,0-.8-0.1-1.2-0.1l2.6-5.1a87.391,87.391,0,0,0,19.5,4.4l0.1,2.5c-0.5-.2-0.9-0.4-1.4-0.6-1.9-.9-4.5-1.2-6.1.2h0c-1.6,1.4-.6,4.9,2.7,6.6a21.189,21.189,0,0,0,19.3,0c3.3-1.7,4.3-5.2,2.7-6.6h0c-1.6-1.4-4.2-1.1-6.1-.2a5.357,5.357,0,0,1-1.1.5l-0.1-1.9c8.8-.1,16.1-1.9,22.2-5.4l1.9,2.9a7.774,7.774,0,0,1-1.6.2c-2.2.2-4.5,1.2-5.2,3.1h0c-0.6,1.9,1.9,4.5,5.7,4.4a21.568,21.568,0,0,0,16.7-9.6c2-3.1,1.1-6.7-.9-7h0c-2-.5-4.2,1.1-5.4,3-0.2.4-.5,0.6-0.7,1l-2.5-3.8c5.2-5.1,8.9-11.3,11.8-17.1l4.4,2.3a6.015,6.015,0,0,1-1.3.9c-1.9,1.2-3.3,3.3-3,5.4h0c0.4,2,3.9,3,7,.9a21.031,21.031,0,0,0,9.6-16.7c0.2-3.7-2.4-6.3-4.4-5.7h0c-1.9.6-3.1,3.1-3.1,5.2,0,0.4-.1.8-0.1,1.2l-5.1-2.6c2.9-6.3,5.5-12.9,6.6-19.5l3.9-.2c-0.2.5-.4,0.9-0.6,1.4-0.9,1.9-1.2,4.5.2,6.1h0c1.4,1.6,4.9.6,6.6-2.7A21.617,21.617,0,0,0,334.011,475.8Z"/><path class="cls-2" d="M283.611,441.6c7.5,0.1,16,1.4,20.2,7.6,1.7,2.5,2.4,5.6,3.5,8.4,2.5,6.3,7,11.6,9.1,18,3.4,11.1-1.6,23-6.6,33.4-4.6,9.9-9.8,20.4-19.3,25.9-6.7,4-14.7,4.9-22.5,4.6a80.676,80.676,0,0,1-39.4-11.9c-5.7-3.5-11.3-8.2-13.7-14.5-1.6-4-1.7-8.4-1.9-12.7-0.1-4.7-.3-9.4-0.4-14.1a29.487,29.487,0,0,1,.6-8.9,34.4,34.4,0,0,1,2.8-6.6c2.7-5.3,5.4-10.6,8-15.9a14.368,14.368,0,0,1,2.7-4.2,13.85,13.85,0,0,1,4.4-2.6c6.3-3.1,12-7.1,18.6-9.6,5.6-2.1,12.6-3.3,18.2-.7,2.2,1,3.5,3,5.7,3.6C276.211,442.6,280.711,441.6,283.611,441.6Z"/><circle class="cls-3" cx="265.911" cy="456.699" r="4"/><circle class="cls-3" cx="275.611" cy="462.399" r="1.8"/><circle class="cls-3" cx="259.711" cy="464.799" r="2.4"/><circle class="cls-3" cx="226.411" cy="501.899" r="1.9"/><circle class="cls-3" cx="236.511" cy="497.099" r="1.2"/><circle class="cls-3" cx="235.311" cy="502.499" r="0.6"/><circle class="cls-3" cx="232.011" cy="499.799" r="1.5"/><circle class="cls-3" cx="240.811" cy="502.499" r="1.3"/><circle class="cls-3" cx="303.011" cy="491.799" r="1.9"/><circle class="cls-3" cx="299.311" cy="496.499" r="1.8"/><circle class="cls-3" cx="294.211" cy="489.799" r="1.9"/><circle class="cls-3" cx="297.611" cy="484.699" r="1.8"/></svg>