<?xml version="1.0" encoding="utf-8"?>
<!-- Generator: Adobe Illustrator 19.2.1, SVG Export Plug-In . SVG Version: 6.00 Build 0)  -->
<svg version="1.1" id="fundo-03" xmlns="http://www.w3.org/2000/svg" xmlns:xlink="http://www.w3.org/1999/xlink" x="0px" y="0px"
	 viewBox="0 0 978.2 560" enable-background="new 0 0 978.2 560" xml:space="preserve">
<g id="Layer_5">
</g>
<g id="Layer_2" display="none">
</g>
<g>
	<path fill="#5A2DE2" d="M907.6,487.4c0.6-3.5,1.1-1.6,1.6-2.8c0.5-2.7,1-3.6,1.4-3.7c0.5-1.2,0.8-2.3,1.3-3.2
		c0.4-1.1,0.7,2,1.1-3.6c0-2.6,0.6-2.1,1.5-1.9c0.9-0.5,2.1-3.1,3.6-0.2c1.5-0.6,3.1-1.3,4.7-1.9c1.7-0.6,3.2-1.4,4.7-1.9
		c2.9-1.2,5.1-2.1,5.1-2.1s-1.9-1.5-4.4-3.3s-5.6-4.4-8.1-6.2c-2.5-3.2-4.4-1.5-4.4-3.3c0-2.7-0.2-5.9-0.6-7c-0.3-2-0.7-4.6-1.2-6.9
		c0,0.1,1.4-0.9,3.3-4.3c1.9-2.4,4.3-5.5,6.1-7.9c1.9-2.4,3.3-4.3,3.3-4.3s-2.2-0.3-5.3-0.7c-3.1-0.5-6.8-0.9-9.8-1.3
		c-3.1,1.9-5.3-2.6-5.3-0.7c-0.9-2.3-1.9-2.9-2.9-5.2c-1-3.8-2.2-1.9-3.4-4.5c-1.3-3.7-2.7-1.8-4.2-4.2c0-0.7,0.3-2.2,0.7-5.2
		c0.8-5.9,2-14.9,2-14.9s-8.2,3.4-13.5,5.7c-2.7,1.1-4.7,2.7-4.7,2c-2.2-0.3-4.4-0.9-6.9-3.4c-2.3,0.9-4.7-1.9-7.2-2.7l-7.5-18.5
		c0,0-1.3,1.8-3.1,4c-1.8,2.3-4,5.2-5.7,7.5c-1.8,2.6-3.1,4.9-3.1,4c-1.9,2.6-3.8-0.1-5.7,0.2c-1.9-1.5-3.7,0.9-5.6,0.6
		c-1.9,0.6-3.6-3.1-5.4,1c0-0.6-1.7-1.8-3.9-3.1c-2.2-1.8-5-3.9-7.2-5.6c-2.2-1.8-3.9-3.1-3.9-3.1s-0.3,2-0.6,4.7
		c-0.4,2.7-0.8,6.1-1.2,8.8c-0.4,1.9-0.6,4.1-0.6,4.7c-1.9,1.2-3.7,0-5.6,3.3c-1.8,1.9-3.5-1.1-5.3,4c-1.7,4.3-3.3,4.2-4.9,4.9
		c0-0.3-2,1-4.6-0.6c-2.7-0.4-6-0.8-8.7-1.2c-2.7-0.4-4.6-0.6-4.6-0.6s0.7,1.9,1.8,4.3c1,2.4,2.3,5.5,3.3,8c1,3.5,1.8,2.2,1.8,4.3
		c-0.5-1.2-1,1.6-1.5,3.6c-0.5,1.7-0.9,3.1-1.4,1.8c-0.5,5.6-0.8,3.5-1.2,3.3c-0.4-0.9-0.7-0.5-1.1,2.2c-0.4,4.8-0.6,5.7-1,3.4
		c-0.3,0.3-0.6,0.2-0.8,2.4c0,3.3-0.5,0.6-1.2-0.1c-0.7-2.2-1.9-2.2-3.1,1.9c-1.2,0.5-2.7,1.1-4.1,1.7c-1.4,0.6-2.8,1.1-4.1,1.7
		c-2.5,1-4.4,1.8-4.4,1.8s1.6,1.2,3.7,2.9c1.1,0.8,2.2,1.8,3.4,2.7s2.4,1.9,3.4,2.7c2.1,0,3.7,6.7,3.7,2.9c0,3.2,0-3.5,0.1,2.9
		c0,1.9,0.1,4.5,0.2,3.4c0.1,1.3,0.2,7.5,0.3,3.8c0.1,0.2,0.3,0.5,0.5,2.5c0.2,1.2,0.4-0.2,0.6,4.5c0.2,0.7,0.5-2.8,0.7,1.5
		c0-3.4-1.2,4-2.9,3.8c-1.7,2.1-3.7,4.9-5.3,7s-2.9,3.8-2.9,3.8s1.9,0.3,4.6,0.6c2.7,0.4,5.9,0.8,8.6,1.1c2.7,0.4,4.6,3.7,4.6,0.6
		c1.1-0.7,2.4,1.7,3.7,5c1.3-1,2.7-1.8,4.1,5.1c1.4,3.3,2.9,2.1,4.4,4.8c0,0.7-0.3,2-0.6,4.7c-0.7,5.4-1.8,13.4-1.8,13.4
		s7.8-3.1,12.9-5.3c2.6-1,4.5-3.7,4.5-1.9c1.7,0.4,3.3,1.4,5,2.5c1.8,0,3.5,3.1,5.3,2.1c1.8-0.1,3.6,0.4,5.5,1.7
		c0,0.3,0.8,3.6,1.9,4.6c1.1,2.7,2.5,5.9,3.5,8.6s1.9,4.6,1.9,4.6s1.3-1.8,3.1-4.1s4-5.2,5.8-7.5c1.8,0.4,3.1-6,3.1-4.1
		c2.7,0.1,5.3-5.8,7.9-0.6c2.5,1.1,5.1-3.7,7.6-1.6c0-0.3,1.7,1.4,4,3.1c4.5,3.6,11.4,9,11.4,9s0.3-2.2,0.6-5.2
		c0.2-1.5,0.5-3.1,0.6-4.8c0.2-1.7,0.5-3.3,0.6-4.8c0.4,0.2,0.6-8.3,0.6-5.2c0.9-4.8,1.9-4.5,2.7-1.3c0.8-4.2,1.7-1.4,2.5-1.8
		c0.8,1.7,1.6-4,2.4-1.8c0.7,0.1,1.5,2.5,2.2-1.6c1.5,2,2.8-1.4,4.1-3.1c0,1,0.6,1.2,1.5,0.6c0.9,1.3,2.2,0.6,3.7,0
		c1.5,0.2,3.1,0.5,4.8,0.6c1.7,0.2,3.3,0.5,4.8,0.6c3,0.4,5.2,0.7,5.2,0.7s-0.8-2.2-2-5.1c-0.6-1.5-1.2-6-1.9-4.7
		c-0.4-1-0.6,0.6-1-0.1c-0.3-0.1-0.6-2-0.9-4.6c-0.6,0.7-1.1-2.9-1.5-3.7c-0.2-4.4-0.4-4.6-0.5-1.7
		C907.6,489.8,907.6,490.5,907.6,487.4z"/>
	<g>
		<path fill="#D91EF4" d="M824.7,403.8c-2.9,3.6-2.9,9.2,0,12.8c0.6,0.6,1.2,1.2,2,1.3c2.3,0.5,3.5-1.9,3.4-3.7
			c-0.1-2.1-1.1-4.2-0.6-6.4c0.2-0.6,0.5-1.3,0.9-1.8c1.6-1.5,3.7-0.4,5.7-0.3c0,0,0,0,0.1,0c2.8,0.2,3.6-3.8,1-4.8
			C832.9,399.3,828.1,399.6,824.7,403.8z"/>
		<path fill="#D91EF4" d="M890.2,456.4c-0.9-0.1-1.9,0.3-2.3,1c-0.6,0.8-0.4,1.9,0.2,2.7c0.6,0.7,1.4,1.4,2.1,1.9c1.5,1,3.1,2,4,3.5
			s1.1,3.7-0.1,5c-1.5,1.5-4.2,1.1-5.8,2.4c-0.7,0.6-1.3,1.4-1.8,2.2c-0.7,1.2-1.5,2.5-1.5,3.9c0,0.9,0.3,1.9,0.6,2.8
			c0.6,1.5,1.3,3,2.5,4.1s2.9,1.8,4.4,1.3c0.6-1.4,0.5-3-0.2-4.4c-0.5-0.9-1.3-1.8-1.9-2.7s-0.7-2.2,0-3.1c0.5-0.5,1.1-0.7,1.8-0.9
			c3.7-1.3,7.1-4.4,7.1-8.4c0-1.7-0.6-3.2-1.3-4.7C896.7,459.7,894,456.7,890.2,456.4z"/>
		<path fill="#D91EF4" d="M845.5,486.3c-0.4-1.9-1.2-3.7-2.6-5.1c-1.4-1.4-3.4-2.1-5.3-1.6c-0.4,0.1-0.6,0.2-0.9,0.5
			c-0.7,0.8,0.2,2.1,0.9,3.1c1.5,1.9,2,4.4,1.5,6.7c-0.6,2.3-2.1,4.4-4.3,5.4c-1.8,0.8-3.7,1.1-5.6,1.7c-1.9,0.6-3.7,1.7-4.3,3.5
			c-0.5,1.5,0,3,0.7,4.4c0,0.6,0.1,1.4,0.5,1.9c0.7,1.2,2.3,1.8,3.6,1.4c-1.2-2.5-0.3-5.7,2-7.2c0.9-0.6,2-0.9,3.1-1.3
			c4-1.5,7.4-4.4,9.5-8.1c0.5-0.7,0.8-1.5,0.9-2.2C845.9,488.3,845.7,487.3,845.5,486.3z"/>
		
			<ellipse transform="matrix(0.1332 -0.9911 0.9911 0.1332 234.2624 1230.4133)" fill="#D91EF4" cx="820.55" cy="481.28" rx="1.6" ry="1.6"/>
		
			<ellipse transform="matrix(0.1332 -0.9911 0.9911 0.1332 302.8828 1274.6598)" fill="#D91EF4" cx="880.156" cy="464.174" rx="2.3" ry="2.3"/>
		
			<ellipse transform="matrix(0.1332 -0.9911 0.9911 0.1332 291.2908 1272.3278)" fill="#D91EF4" cx="873.027" cy="469.635" rx="1.9" ry="1.9"/>
		<ellipse fill="#D91EF4" cx="841.6" cy="414.3" rx="2.7" ry="2.7"/>
		
			<ellipse transform="matrix(0.4453 -0.8954 0.8954 0.4453 83.479 979.9958)" fill="#D91EF4" cx="832.673" cy="422.624" rx="1.6" ry="1.6"/>
		<ellipse fill="#D91EF4" cx="843.4" cy="428.1" rx="1.7" ry="1.7"/>
		<ellipse fill="#D91EF4" cx="856.3" cy="435.4" rx="0.9" ry="0.9"/>
		
			<ellipse transform="matrix(0.1332 -0.9911 0.9911 0.1332 254.0489 1221.9061)" fill="#D91EF4" cx="825.58" cy="465.715" rx="1.4" ry="1.4"/>
		
			<ellipse transform="matrix(0.1332 -0.9911 0.9911 0.1332 241.8505 1215.8854)" fill="#D91EF4" cx="816.039" cy="469.678" rx="1.1" ry="1.1"/>
		<path fill="#6FD1A0" d="M882.7,406.5c0.7,0.1,1.5,0.2,2.1,0.6c1.6,0.9,1.9,3.1,1.7,4.9c-0.2,1.1-0.6,2.1-1.1,3.1
			c-0.5,0.9-0.9,1.8-1.1,2.8c-0.3,1.9,0.7,3.7,2.1,4.8c1.4,1.1,3.2,1.8,5,2.3c1,0.3,2.2,0.6,3.1-0.2c0.5-0.5,0.6-1.2,1-1.8
			c0.3-0.6,0.7-0.9,0.8-1.6c0.2-1.2-1.4-1.9-2.6-1.9s-2.7,0.2-3.5-0.7c-0.8-1-0.4-2.5,0.1-3.7c0.6-1.4,1.2-2.7,1.8-4.1
			c0.6-1.6,1.4-3.3,1-5c-0.3-1.3-1.1-2.3-2-3.1c-3.1-2.7-17.5-5.9-16.1,2.4C877.4,406,880.1,406.1,882.7,406.5z"/>
		<path fill="#6FD1A0" d="M802.1,438.4c-0.6,0.4-1.1,0.9-1.2,1.7c-0.3,1.9,1.9,2.7,2.4,4.3c0.6,1.6-0.6,3.2-1.7,4.5s-2,3.1-1.2,4.5
			c0.8,1.3,2.8,1.5,3.7,2.8c0.8,1.3,0.2,2.9-0.1,4.4c-0.3,1.4,0.1,3.1,1.3,3.5c0.6,0.3,1.4,0.1,1.9-0.4s0.6-1.3,0.2-1.9
			c-0.2-0.3-0.5-0.5-0.6-0.7c-0.5-0.8,0.1-1.9,0.3-2.9c0.6-2.9-3.1-5.4-2.5-8.3c0.4-1.9,2.5-3.3,2.4-5.3c-0.1-1.6-1.6-2.8-1.9-4.4
			c0.6-0.1,1.3-0.5,1.7-1c0.5-0.6-0.1-1.3-0.7-1.2C805,438.2,803.7,437.5,802.1,438.4z"/>
		<ellipse fill="#6FD1A0" cx="815.2" cy="445.1" rx="1.5" ry="1.5"/>
		<ellipse fill="#6FD1A0" cx="813" cy="453.4" rx="1.4" ry="1.4"/>
		
			<ellipse transform="matrix(0.1332 -0.9911 0.9911 0.1332 353.4117 1229.4092)" fill="#6FD1A0" cx="879.551" cy="412.661" rx="1.1" ry="1.1"/>
		
			<ellipse transform="matrix(0.1332 -0.9911 0.9911 0.1332 343.6755 1241.1154)" fill="#6FD1A0" cx="881.375" cy="424.081" rx="1.1" ry="1.1"/>
		
			<ellipse transform="matrix(0.1332 -0.9911 0.9911 0.1332 347.4531 1220.1584)" fill="#6FD1A0" cx="871.283" cy="411.443" rx="0.9" ry="0.9"/>
		
			<ellipse transform="matrix(0.1332 -0.9911 0.9911 0.1332 338.4855 1228.778)" fill="#6FD1A0" cx="871.727" cy="420.879" rx="0.8" ry="0.8"/>
		<ellipse fill="#6FD1A0" cx="822.2" cy="444.7" rx="1.6" ry="1.6"/>
	</g>
</g>
<g id="Layer_1_1_" display="none">
	<g display="inline">
		<g>
			<g>
				<path fill="#0B7771" d="M349.4,316.1c0.6-0.6,1.3-0.8,2.3-0.9s3.5-0.1,7.4-0.1c4.1,0.1,6.8,0.3,8,0.5s2.7,0.7,4.4,1.7
					c1.6,0.7,2.7,1.5,3.3,2.2c0.6,0.7,1.4,1.8,2.1,3.1c1.4,2.7,2,5.5,1.7,8.5c-0.3,3.1-1.4,5.8-3.3,8.3c-1.1,1.4-1.7,2.1-1.7,2.4
					s0.9,1.3,2.8,3.1c2.8,3.1,4.2,6.8,4.2,11.1c0,3.1-1.1,6.1-3.2,9.1s-4.6,4.8-7.5,5.7c-1.7,0.6-5.5,0.7-11.4,0.7
					c-5.8,0-9.1-0.3-9.6-0.7c-0.6-0.6-0.7-9.5-0.7-27.1C348.2,326.2,348.6,317,349.4,316.1z M368,324.5c-1-1.1-1.9-1.8-2.5-2
					c-0.6-0.3-1.7-0.4-3.1-0.4c-2,0.1-3.7,0.4-4.8,1c-0.9,0.5-1.5,1-1.6,1.6c-0.2,0.6-0.3,2.5-0.3,5.6c0,3.8,0.4,6.2,1,7.2
					s2.3,1.4,4.8,1.4c1.8-0.1,3.3-0.5,4.6-1.3c1.4-0.7,2.4-1.9,3.1-3.2c0.7-1.4,1.1-3,1.1-4.6c0-1.2-0.2-2-0.5-2.7
					C369.7,326.4,369,325.5,368,324.5z M367.3,347.5c-1.6-0.8-3.6-1.3-6.2-1.3s-4.2,0.5-4.5,1.3c-0.5,0.9-0.6,3.6-0.6,8.2
					c0,3,0.1,5,0.3,6c0.2,1,0.5,1.9,1,2.5c0.6,0.7,1.1,1.1,1.6,1.2s1.8-0.1,3.7-0.4c2.7-0.5,4.6-1.2,6-2.1c2.6-1.9,3.8-4.5,3.5-8
					C371.7,351.5,370.1,349,367.3,347.5z"/>
				<g>
					<path fill="#0B7771" d="M389.5,320.3c-1,0-1.9,0.4-2.5,1s-1,1.5-1,2.4c0,1,0.4,1.9,1,2.5s1.5,1,2.5,1c0.9,0,1.8-0.4,2.4-0.9
						c0.7-0.6,1.1-1.5,1.1-2.5c0-0.9-0.4-1.8-1-2.4C391.3,320.6,390.4,320.3,389.5,320.3z"/>
					<path fill="#0B7771" d="M387.1,334.3h-2.4c-1,0-1.9,0.6-2.5,1.3c-0.6,0.6-1,1.6-1,2.5c0,1,0.4,1.9,1,2.5s1.5,1,2.5,1
						c0.4,0,0.6,0.2,0.9,0.5v0.1c0.3,0.3,0.3,0.6,0.3,0.9v19.4c0,0.4,0,0.7-0.4,1c-0.3,0.3-0.5,0.4-0.8,0.4c-1,0-1.9,0.4-2.5,1
						s-1,1.5-1,2.4c0,1,0.4,1.7,1,2.3c0.6,0.6,1.5,0.8,2.5,0.8h2.4c1.6,0,3.1-0.5,4.3-1.6s1.9-2.4,1.9-4.1v-24.2
						c0-1.6-0.7-3.2-1.9-4.4C390.3,335.2,388.7,334.3,387.1,334.3z"/>
				</g>
				<path fill="#0B7771" d="M420.1,334.3h-19.4c-1.7,0-3,0.9-4.1,2.1c-1.1,1.1-1.5,2.9-1.5,4.4V365c0,1.7,0.5,2.8,1.6,4
					c1.1,1.1,2.4,1.4,4.1,1.4h19.4c1.6,0,2.9-0.3,4-1.4s1.6-2.3,1.6-4v-24.2c0-1.6-0.5-3.3-1.6-4.5
					C423,335.3,421.7,334.3,420.1,334.3z M419.3,343.3v19.4c0,0.4-0.2,0.6-0.6,0.9c-0.3,0.3-0.6,0.4-1,0.4h-14.5
					c-0.5,0-0.8-0.1-1.1-0.4c-0.3-0.3-0.5-0.6-0.5-0.9v-19.4c0-0.4,0.2-0.7,0.5-1.1c0.3-0.3,0.6-0.6,1-0.6h14.5
					c0.4,0,0.6,0.3,0.9,0.6l0.2,0.1C419.1,342.7,419.3,343,419.3,343.3z"/>
			</g>
			<g>
				<path fill="#0B7771" d="M441.5,316.1c0.6-0.6,1.3-0.8,2.3-0.9s3.5-0.1,7.4-0.1c4.1,0.1,6.8,0.3,8,0.5s2.7,0.7,4.4,1.7
					c1.6,0.7,2.7,1.5,3.3,2.2s1.4,1.8,2.1,3.1c1.4,2.7,2,5.5,1.7,8.5c-0.3,3.1-1.4,5.8-3.3,8.3c-1.1,1.4-1.7,2.1-1.7,2.4
					s0.9,1.3,2.8,3.1c2.8,3.1,4.2,6.8,4.2,11.1c0,3.1-1.1,6.1-3.2,9.1s-4.6,4.8-7.5,5.7c-1.7,0.6-5.5,0.7-11.4,0.7
					c-5.8,0-9.1-0.3-9.6-0.7c-0.6-0.6-0.7-9.5-0.7-27.1C440.3,326.2,440.7,317,441.5,316.1z M460,324.5c-1-1.1-1.9-1.8-2.5-2
					c-0.6-0.3-1.7-0.4-3.1-0.4c-2,0.1-3.7,0.4-4.8,1c-0.9,0.5-1.5,1-1.6,1.6c-0.2,0.6-0.3,2.5-0.3,5.6c0,3.8,0.4,6.2,1,7.2
					s2.3,1.4,4.8,1.4c1.8-0.1,3.3-0.5,4.6-1.3c1.4-0.7,2.4-1.9,3.1-3.2c0.7-1.4,1.1-3,1.1-4.6c0-1.2-0.2-2-0.5-2.7
					C461.8,326.4,461.1,325.5,460,324.5z M459.4,347.5c-1.6-0.8-3.6-1.3-6.2-1.3s-4.2,0.5-4.5,1.3c-0.5,0.9-0.6,3.6-0.6,8.2
					c0,3,0.1,5,0.3,6c0.2,1,0.5,1.9,1,2.5c0.6,0.7,1.1,1.1,1.6,1.2s1.8-0.1,3.7-0.4c2.7-0.5,4.6-1.2,6-2.1c2.6-1.9,3.8-4.5,3.5-8
					C463.8,351.5,462.2,349,459.4,347.5z"/>
				<path fill="#0B7771" d="M501.6,342.1c0.3-0.3,0.3-0.4,0.7-0.4c0.9,0,1.7-0.4,2.2-0.9c0.7-0.6,1-1.5,1-2.5c0-0.9-0.4-1.9-1.1-2.6
					c-0.6-0.7-1.5-1.3-2.4-1.3h-2.4c-1.7,0-3.3,0.8-4.4,1.9s-1.9,2.8-1.9,4.4v21.8c0,0.4,0.1,0.8-0.2,1.1c-0.3,0.3-0.3,0.5-0.6,0.5
					h-9.6c-0.5,0-1.3-0.2-1.5-0.5c-0.3-0.3-0.9-0.6-0.9-1.1v-19.4c0-0.4,0.6-0.6,0.9-0.9s0.8-0.4,1.2-0.4c0.9,0,1.9-0.4,2.5-0.9
					c0.7-0.6,1.2-1.5,1.2-2.5c0-0.9-0.4-1.9-1-2.6s-1.5-1.3-2.4-1.3h-2.5c-1.7,0-2.9,0.8-4.1,1.9c-1.1,1.1-1.5,2.8-1.5,4.4V365
					c0,1.7,0.4,3,1.6,4.1c1.1,1.1,2.4,1.5,4.1,1.5H495c0.9,0,1.8-0.2,2.4-0.8v-0.1c0.6,0.6,1.5,0.9,2.4,0.9h2.4
					c0.9,0,1.8-0.2,2.4-0.8c0.7-0.6,1.1-1.5,1.1-2.4s-0.4-1.8-1-2.4c-0.6-0.7-1.5-1-2.4-1c-0.5,0-0.3-0.1-0.6-0.4s0.1-0.6,0.1-1
					v-19.4C501.7,342.7,501.3,342.4,501.6,342.1z"/>
				<path fill="#0B7771" d="M532.1,335.3h-14.5c-1,0-1.9,0.4-2.4,1c-0.6-0.6-1.5-1-2.4-1h-2.4c-1,0-1.9,0.4-2.5,1s-1,1.5-1,2.4
					c0,1,0.4,1.9,1,2.5s1.5,1,2.5,1c0.4,0,0.6,0.1,0.9,0.4l0.6,0.1c0.3,0.3,0.9,0.6,0.9,0.9V363c0,0.4-0.6,0.7-1,1
					c-0.3,0.3-0.8,0.4-1.2,0.4c-1,0-2,0.4-2.6,1s-1,1.5-1,2.4c0,1,0.3,1.5,0.9,2.1s1.5,0.6,2.4,0.6h2.4c1.6,0,3.2-0.2,4.4-1.3
					c1.1-1.1,2-2.2,2-3.9v-21.8c0-0.4-0.2-0.9,0.1-1.2s0.3-0.6,0.6-0.6h9.6c0.4,0,0.6,0.4,0.9,0.6l0.2,0.2c0.3,0.3,0.6,0.6,0.6,1
					V363c0,0.4-0.3,0.7-0.6,1s-0.6,0.4-1,0.4c-1,0-1.9,0.4-2.5,1s-1,1.5-1,2.4c0,1,0.3,1.5,1,2.1c0.6,0.6,1.5,0.6,2.5,0.6h2.4
					c1.6,0,2.9-0.2,4.1-1.3c1.1-1.1,1.7-2.2,1.7-3.9v-24.2c0-1.6-0.5-3-1.7-4.2C535.1,335.8,533.8,335.3,532.1,335.3z"/>
				<path fill="#0B7771" d="M571.2,340.2v-13.5c0-1.6-1-3.1-2.1-4.3c-1.1-1.1-3-1.9-4.5-1.9h-2.4c-1,0-1.9,0.6-2.5,1.2s-1,1.6-1,2.5
					c0,1,0.4,1.9,1,2.5s1.5,1,2.5,1c0.4,0,0.6,0.1,0.9,0.5l0.3,0.1c0.3,0.3,0.6,0.6,0.6,0.9v9.6c0,0.4-0.3,0.6-0.6,0.9
					s-0.7,0.3-1.1,0.3h-9.6c-0.5,0-0.8,0-1.1-0.3s-0.5-0.5-0.5-0.9v-12c0-1.6-0.5-3.1-1.6-4.3c-1.1-1.1-2.4-1.9-4-1.9h-2.4
					c-1,0-1.9,0.6-2.5,1.2s-1,1.6-1,2.5c0,1,0.4,1.9,1,2.5s1.5,1,2.5,1c0.4,0,0.6,0.1,0.9,0.5l0.2,0.1c0.3,0.3,0.5,0.6,0.5,0.9v12
					c0,1,0.3,1.8,0.9,2.4c-0.6,0.6-0.9,1.5-0.9,2.4v17c0,0.4-0.2,0.7-0.6,1c-0.3,0.3-0.6,0.4-0.9,0.4c-1,0-1.9,0.4-2.5,1
					s-1,1.5-1,2.4c0,1,0.4,1.5,1,2.1s1.5,0.6,2.5,0.6h2.4c1.6,0,2.9-0.2,4-1.3c1.1-1.1,1.6-2.2,1.6-3.9v-17c0-0.4,0.3-0.6,0.6-0.8
					c0.3-0.3,0.6-0.3,1.1-0.3h14.5c0.4,0,0.6,0,0.9,0.3h0.6c0.3,0.3,0.9,0.5,0.9,0.8V363c0,0.4-0.6,0.7-0.9,1
					c-0.3,0.3-0.8,0.4-1.2,0.4c-1,0-2,0.4-2.6,1s-1,1.5-1,2.4c0,1,0.3,1.5,0.9,2.1c0.6,0.6,1.5,0.6,2.4,0.6h2.4
					c1.6,0,3.2-0.2,4.4-1.3c1.1-1.1,2-2.2,2-3.9V346c0-1.6-0.5-3-1.7-4.2C573.3,340.9,572.1,340.4,571.2,340.2z"/>
				<path fill="#0B7771" d="M599.1,334.3h-14.5c-1.7,0-3.1,0.9-4.3,2c-1.1,1.1-1.8,2.9-1.8,4.4v9.6c0,1,0.3,1.8,0.9,2.4
					c-0.6,0.6-0.9,1.5-0.9,2.4v9.6c0,1.7,0.6,2.9,1.8,4.1c1.1,1.1,2.6,1.5,4.3,1.5h14.5c1.6,0,2.8-0.4,3.9-1.5
					c1.1-1.1,1.5-2.4,1.5-4v-2.4c0-0.9-0.1-1.8-0.8-2.4c-0.6-0.7-1.4-1-2.3-1c-1,0-1.9,0.4-2.4,1c-0.6,0.6-0.9,1.5-0.9,2.4
					c0,0.4-0.1,0.7-0.5,1c-0.3,0.3-0.6,0.4-0.9,0.4h-9.6c-0.5,0-1-0.2-1.3-0.4c-0.3-0.3-0.6-0.6-0.6-1v-4.8c0-0.4,0.4-1,0.7-1.3
					s0.8-0.7,1.3-0.7h12c1.6,0,2.8-0.2,3.9-1.3c1.1-1.1,1.5-2.2,1.5-3.9v-9.7c0-1.6-0.4-3.2-1.5-4.4
					C601.8,335.3,600.7,334.3,599.1,334.3z M598.1,343.2v4.8c0,0.4-0.1,0.1-0.5,0.4c-0.3,0.3-0.6-0.3-0.9-0.3H587
					c-0.5,0-1,0.5-1.3,0.3c-0.3-0.3-0.6,0-0.6-0.4v-4.8c0-0.4,0.4-0.7,0.7-1s0.8-0.5,1.3-0.5h9.6c0.4,0,0.6,0.2,0.9,0.5l0.1,0.1
					C598,342.6,598.1,342.9,598.1,343.2z"/>
				<path fill="#0B7771" d="M628.4,336.3c-0.6-0.7-1.2-2-2.1-2l-9.5-0.6c-1,0-1.9,0.6-2.4,1.3c-0.6-0.6-1.5-0.7-2.4-0.7h-2.4
					c-1,0-1.9,0.6-2.5,1.3c-0.6,0.6-1,1.6-1,2.5c0,1,0.4,1.9,1,2.5s1.5,1,2.5,1c0.4,0,0.6,0.2,0.9,0.5l0.2,0.1
					c0.3,0.3,0.5,0.6,0.5,0.9v19.4c0,0.4,0.1,0.6-0.3,0.9c-0.3,0.3,0,0.1-0.3,0.4c-0.6,0.7-0.9,0.4-1.5,1s-1,1.5-1,2.4
					c0,1,0.4,1.7,1,2.3c0.6,0.6,1.5,0.8,2.5,0.8h0.5c1.6,0,3.2-0.5,4.4-1.6c1.1-1.1,2-2.4,2-4.1v-21.8c0-0.4-0.2-0.6,0.1-0.9
					s0.3-0.4,0.6-0.4h6.9c0.9,0,1.8,0.6,2.3,0c0.7-0.6,1.1-0.8,1.1-1.8C629.5,339.1,629.1,336.9,628.4,336.3z"/>
			</g>
		</g>
		<g>
			<g>
				<g>
					
						<rect x="478.385" y="264.612" transform="matrix(0.8643 -0.5029 0.5029 0.8643 -66.5762 285.5241)" fill="#A1E2E0" width="35.099" height="3.1"/>
				</g>
				<g>
					
						<rect x="476.257" y="252.396" transform="matrix(0.8643 -0.5029 0.5029 0.8643 -61.4914 280.442)" fill="#22A6B3" width="25.599" height="3.6"/>
				</g>
				<g>
					
						<rect x="426.708" y="173.211" transform="matrix(0.8643 -0.5029 0.5029 0.8643 -27.3115 248.778)" fill="#6FD1A0" width="41.498" height="3.6"/>
				</g>
				<g>
					
						<rect x="433.553" y="180.803" transform="matrix(0.8643 -0.5029 0.5029 0.8643 -30.3126 252.3363)" fill="#22A6B3" width="37.999" height="3.1"/>
				</g>
				<g>
					
						<rect x="453.259" y="196.828" transform="matrix(0.8643 -0.5029 0.5029 0.8643 -36.9634 260.2308)" fill="#8FD8D5" width="21.199" height="3.6"/>
				</g>
				<g>
					
						<rect x="471.085" y="227.994" transform="matrix(0.8643 -0.5029 0.5029 0.8643 -50.0835 273.9267)" fill="#7ED6DF" width="23.199" height="3.6"/>
				</g>
				<g>
					
						<rect x="454.258" y="207.219" transform="matrix(0.8643 -0.5029 0.5029 0.8643 -41.3583 264.2212)" fill="#6FD1A0" width="29.599" height="3.1"/>
				</g>
				<g>
					
						<rect x="461.638" y="219.68" transform="matrix(0.8643 -0.5029 0.5029 0.8643 -46.5427 269.9247)" fill="#22A6B3" width="30.799" height="3.1"/>
				</g>
				<path fill="#2D98DA" d="M452.5,205.8c1.7-0.5,3.2-0.9,4.9-1.4c-0.3,3.1-0.1,6.4,0.6,9.5c1.8,7.6,6.5,14.5,12.9,18.8
					c4.8,3.2,10.7,5.2,16.4,7.1c8.6,2.9,17.5,5.9,23.4,13.2c3.7,4.6,5.6,8.4,7.1,13.1l-4.7,2.8c-1.4-4.3-3-8.8-6.1-12.8
					c-5-6.3-12.9-8.9-21.2-11.8c-6-2-12.2-4.2-17.6-7.7c-7.5-5-12.9-13-14.9-21.8C452.7,212.1,452.4,209,452.5,205.8z"/>
				<g>
					<path fill="#0F5659" d="M477.3,247.3c1.8-3.2,4.2-6.1,6.4-8.9c3.6-4.3,6.9-8.3,7.6-13.2c0.6-4.5-1-9.6-5.2-15.6
						c-7.5-10.7-17.7-17-27.3-16.9c-2.6,0.1-5.3,0.6-8,1.1c-2.9,0.6-5.8,1.1-8.9,1.2c-6.9,0.1-14.4-10.6-17.1-15.7l4.3-2.2
						c2,3.9,8.7,12.9,13.5,12.8c2.7,0,4.5-0.2,7.4-0.6c2.9-0.6,5.7-1.1,8.8-1.2c11.2-0.2,23,6.9,31.3,18.9c4.8,6.9,6.9,13.2,6,18.9
						c-0.8,6.3-4.8,11-8.7,15.7c-2.2,2.7-4.4,5.3-5.9,8.1c-5.6,10.3-0.3,26.2,9.7,32.4l-4.7,2.7
						C474.6,277.3,470.6,259.6,477.3,247.3z"/>
				</g>
				<path fill="#2D98DA" d="M457.4,189.1c0.9-1.6,1.9-3.1,3-4.5c2.5-3.6,4.8-7,5.2-10.8c0.4-3.5-3.6-11-6.2-15.6l4.2-2.4
					c2.4,4.2,7.3,13.1,6.9,18.3c-0.5,5.1-3.2,9.2-6,13.2c-1,1.5-1.9,2.9-2.8,4.3c-2.3,4-3.7,8.7-4.2,13.2c-1.7,0.5-3.2,0.7-4.9,1.2
					C452.7,200.1,454.4,194.2,457.4,189.1z"/>
			</g>
			<g>
				<path fill="#8FD8D5" d="M491.9,278.9l-24.5-41.6v-28.1h1.9c0.7,0,1.8,1.2,1.8,0.4v-0.5c0-0.7-1-1.8-1.8-1.8H448
					c-0.7,0-0.9,1-0.9,1.8v0.5c0,0.7,0.2-0.4,0.9-0.4h1.9v28.1l-24.5,41.6c-6.7,11.6,1.4,25.8,14.7,25.8h37.1
					C490.6,304.7,498.6,290.5,491.9,278.9z"/>
				<path fill="#D91EF4" d="M476,259.1c-0.3-0.5-0.7-0.7-1.3-0.8c-1.3-0.1-2.7-0.5-4-0.5c-4.4-0.1-3.1,0.9-7.4,0.4
					s-6.9-1.4-12.6-1.2c-2.3,0.1-4.7,0.5-7,0.5c-0.6,0-1.2,0.3-1.5,0.8l-8.4,14.6l-4.1,6.9c-5.5,9.4,1.4,21.1,12.2,21.1h33.9
					c10.8,0,17.6-11.8,12.2-21.1L476,259.1z"/>
				<circle fill="#8FD8D5" cx="451.6" cy="286" r="1.7"/>
				<circle fill="#8FD8D5" cx="463" cy="279" r="0.8"/>
				<circle fill="#8FD8D5" cx="452.9" cy="275.4" r="1.3"/>
				<circle fill="#8FD8D5" cx="468.8" cy="288" r="0.6"/>
			</g>
			<g>
				<g>
					<path fill="#0F5659" d="M476.9,234.4c-1.9,3.6-2.5,7.6-3.2,11.6c-0.6,3.7-1.3,7.5-1.9,11.2c-1.5,8.2-2.9,16.5-1.9,24.7
						c1,7.9,6.8,18.2,12.4,23.7c5.7,5.6,15.5,5.2,23.4,4.6s15-4.6,21.6-9.1c2.9-1.9,6-4.3,6.9-7.6c0.8-3-0.3-6.3,0.6-9.3
						c1.3-5,7.1-7.6,9.3-12.3c2.5-5.7-1.2-12-3.3-17.8c-2.6-6.9-3.1-14.3-4.5-21.5s-4.2-10.1-9.6-14.9c-8.2-7.1-16.1-8.2-23.7-2.8
						C495.1,220.3,481.2,225.8,476.9,234.4z"/>
					<path fill="#6FD1A0" d="M480.5,237.5c-1.6,3.1-2.2,6.8-2.9,10.2c-0.6,3.3-1.2,6.6-1.8,9.9c-1.3,7.2-2.6,14.5-1.7,21.9
						c0.9,6.9,5.9,16,10.9,20.9s13.7,4.6,20.7,4.1c6.9-0.5,13.2-4.1,19.1-8c2.6-1.8,5.3-3.7,6.1-6.8c0.7-2.7-0.2-5.6,0.5-8.2
						c1.2-4.4,6.3-6.7,8.2-10.8c2.2-5-1-10.6-3-15.7c-2.3-6-2.8-12.6-4.1-18.9c-1.3-6.3-3.7-8.4-8.5-12.7c-7.2-6.3-14.2-7.8-20.9-3
						C496.6,225.2,484.3,230,480.5,237.5z"/>
				</g>
				<path fill="#D91EF4" d="M520.3,239.4c-1.1-2.9-3.6-6.9-7.1-6.9c-3,0.1-6,0.2-8.8,1.2s-5.5,3-6.4,5.8c-0.6,1.9-0.5,4-0.2,6
					c0.6,3.6,2,7.3,4.7,9.8c2.7,2.5,6.9,3.7,10.2,2.1c1.9-0.9,3.3-2.6,4.7-4.3c1.9-2.4,3.7-5.1,4-8.1
					C521.6,243.2,521.1,241.2,520.3,239.4z"/>
				<path fill="#A1E2E0" d="M500.5,234.1c-0.6,0.4-1.2,0.7-1.7,1.2c-1.9,1.9-2,5-4,6.8c-0.1,0.1-0.2,0.2-0.4,0.2
					c-0.3,0-0.4-0.5-0.3-0.7c0.4-1.8,0.9-3.4,1.9-5c0.2-0.4,0.4-0.7,0.2-1c-0.2-0.3-0.6-0.4-0.9-0.3s-0.6,0.4-0.7,0.6
					c-1.9,2.5-3.6,5.6-3.3,8.7c0,0.1,0,0.2,0,0.2s-0.1,0-0.1,0.1c-0.6,0.1-1.2-0.4-1.5-0.8c-0.3-0.5-0.3-1.1-0.3-1.8
					c0-0.9,0.1-1.9,0.4-2.7c0.4-1.2,1.2-2.2,1.9-3.2c1-1.4,2-2.7,3.1-4.1c1.1-1.6,2.3-3.1,4-4.1c0.6-0.4,1.4-0.6,1.9,0
					c0.4,0.5,0.2,1.2-0.2,1.7c-0.5,0.8-1.1,1.5-1.9,1.9c-0.5,0.3-1.1,0.6-1.5,1c-0.4,0.5-0.5,1.2,0,1.7c0,0,0.1,0,0.1,0.1
					c0.2,0.1,0.4-0.2,0.5-0.4c0.3-0.6,0.7-0.8,1.3-1.1c0.6-0.3,1.1-0.4,1.7-0.6c0.7-0.4,1.3-0.9,1.9-1.4c1.6-1.2,3.7-1.9,5.6-1.1
					c0.1,0,0.2,0.1,0.2,0.1c0.1,0.1,0.1,0.2,0,0.4c-0.2,0.6-0.6,1-1.2,1.1c-0.3,0.1-0.6-0.1-0.8,0c-0.4,0.1-0.7,0.3-1.1,0.5
					C503.5,232.5,502,233.3,500.5,234.1z"/>
				<path fill="#A1E2E0" d="M506.3,224.3c-0.5,0.1-0.9,0.2-1.3,0.4c-0.4,0.3-0.6,0.7-0.5,1.2c0.1,0.4,0.5,0.6,0.8,0.6
					c1.8,0.6,3.7-0.2,5.6-0.1c1.4,0,2.8,0.5,4.2,1c0.3,0.1,0.6,0.3,0.7,0.5c0.2,0.2,0.3,0.6,0.1,0.8c-0.2,0.3-0.6,0.3-0.9,0.3
					c-0.8-0.1-1.6-0.3-2.3-0.4c-0.7-0.1-1.7-0.1-2.3,0.4c-0.1,0-0.2,0.1-0.2,0.2c0,0.1,0,0.1,0,0.2c0.2,0.8,0.9,1.5,1.8,1.5
					c0.5,0,0.8-0.1,1.2-0.2c1-0.1,2,0.3,3.1,0.6c0.6,0.2,1.1,0.3,1.6,0.6c1.4,1.3,2.2,2.3,2.8,3.8s1.4,2.4,1.6,3.9
					c0,0.3,0.1,0.6,0.3,0.7c0.3,0.3,0.8,0.2,1.1-0.1c0.6-0.6,0.5-1.9,0.1-2.7c-1.2-2.9-2.6-4.9-5.8-7c-0.1-0.1-0.2-0.3-0.3-0.4
					c0-0.2,0-0.3,0-0.5c0.1-0.5,0.2-0.8,0.3-1.3c1.3,1.5,2.7,2.9,4,4.4c0.5,0.5,0.9,0.9,1.2,1.5c0.5,0.8,0.7,1.8,0.9,2.8
					c0,0.2,0.1,0.3,0.2,0.4c0.2,0.1,0.3,0,0.5-0.1l0,0c0.7-0.5,1-1.4,0.8-2.2c-0.1-0.3-0.2-0.6-0.4-0.8c-1.6-1.8-3.2-3.5-4.8-5.3
					c-0.7-0.7-1.8-1.6-2.6-2.2c-1.8-1.5-4-1.9-6.1-2.7C509.8,223.3,508.1,223.9,506.3,224.3z"/>
				<path fill="#A1E2E0" d="M499.2,257.4c-0.4-0.7,0.4-1.5,1.1-1.2c0.6,0.3,1.3,0.6,1.9,1c0.7,0.5,1.4,1,2.1,1.5
					c2,1.3,4.4,1.9,6.8,1.9c2.4-0.1,4.7-1.1,6.4-2.8c1.9-1.9,2.9-4.6,3.6-7.3c0.2-0.6,0.9-0.6,1.1,0s0.1,1.2,0,1.8
					c-0.6,3.1-2.4,5.9-4.9,7.8c0.2,0.4,0.6,0.7,1,0.9c3.9-3.5,5.9-8.8,6.3-14c0-0.6,0.1-1.1-0.1-1.7c-0.1-0.4,0.4-0.7,0.7-0.6
					c0.8,0.5,1.7,1.3,1.8,1.9c0.2,1.9-1.1,3.6-1.3,5.6c-0.4,3.1-1.9,5.8-3.9,8.1s-4.6,4-7.3,5.3c-0.9,0.5-1.9,0.8-2.9,1.3
					c-0.7,0.3-1.8,0.5-2-0.2c0.3-1.1,1.4-1.8,2.4-2.3c1.5-0.8,3.1-1.7,4.5-2.5c-0.1-0.6-0.9-1-1.6-0.9s-1.2,0.5-1.9,0.7
					c-2.3,1.2-5.2,1.2-7.5,0l-0.8,2.1c0.7,0.7,1.7,1.1,2.6,1.6c0.8,0.5,0.9,1.4,0.1,1.7c-0.1,0-0.2,0.1-0.3,0.1
					c-0.7,0.1-1.1-0.6-1.9-0.8c-2.3-0.7-4.4-2-6.1-3.8c-0.8-0.9-1.5-1.6-2.2-2.6c-1-1.4-2.1-3.1-3.2-4.4c-0.5-0.6-1-1.7-0.4-2.2
					c0.8-0.2,1.7,0.4,2.1,1c0.5,0.6,0.8,1.5,1.2,2.2c1.4,2.6,3.5,4.9,6,6.5c0.2,0.1,0.5,0.3,0.6,0.1c0.1-0.1,0.2-0.2,0.3-0.3
					c0.2-0.4,0.5-0.8,0.6-1.2C502.8,260.4,500,259.2,499.2,257.4z"/>
				<g>
					
						<rect x="500.79" y="278.21" transform="matrix(0.9606 -0.2778 0.2778 0.9606 -57.3923 151.9769)" fill="#897BEF" width="13.599" height="0.6"/>
					
						<rect x="500.776" y="277.686" transform="matrix(0.9606 -0.2778 0.2778 0.9606 -57.2471 151.9524)" fill="#785EEA" width="13.599" height="0.6"/>
					
						<rect x="500.998" y="278.605" transform="matrix(0.9606 -0.2778 0.2778 0.9606 -57.4938 152.0502)" fill="#785EEA" width="13.599" height="0.6"/>
					
						<rect x="500.794" y="277.284" transform="matrix(0.9606 -0.2778 0.2778 0.9606 -57.1348 151.9417)" fill="#744DEF" width="13.599" height="0.6"/>
					
						<rect x="501.178" y="278.904" transform="matrix(0.9606 -0.2778 0.2778 0.9606 -57.5698 152.112)" fill="#744DEF" width="13.599" height="0.6"/>
					
						<rect x="500.795" y="278.583" transform="matrix(0.9606 -0.2778 0.2778 0.9606 -57.4956 151.993)" fill="#703BF2" width="13.599" height="0.6"/>
					
						<rect x="500.579" y="277.79" transform="matrix(0.9606 -0.2778 0.2778 0.9606 -57.2838 151.9019)" fill="#703BF2" width="13.599" height="0.6"/>
					
						<rect x="500.29" y="278.294" transform="matrix(0.9606 -0.2778 0.2778 0.9606 -57.4352 151.8414)" fill="#6B25F2" width="13.599" height="0.6"/>
				</g>
				<g>
					
						<rect x="488.668" y="274.163" transform="matrix(0.5922 -0.8058 0.8058 0.5922 -18.842 511.6961)" fill="#897BEF" width="14.9" height="0.6"/>
					
						<rect x="489.076" y="274.547" transform="matrix(0.5922 -0.8058 0.8058 0.5922 -18.9849 512.1816)" fill="#785EEA" width="14.9" height="0.6"/>
					
						<rect x="488.426" y="274.004" transform="matrix(0.5922 -0.8058 0.8058 0.5922 -18.8122 511.4362)" fill="#785EEA" width="14.9" height="0.6"/>
					
						<rect x="489.56" y="274.804" transform="matrix(0.5922 -0.8058 0.8058 0.5922 -18.9945 512.6763)" fill="#744DEF" width="14.9" height="0.6"/>
					
						<rect x="487.97" y="273.627" transform="matrix(0.5922 -0.8058 0.8058 0.5922 -18.6947 510.9154)" fill="#744DEF" width="14.9" height="0.6"/>
					
						<rect x="488.597" y="273.753" transform="matrix(0.5922 -0.8058 0.8058 0.5922 -18.5399 511.4721)" fill="#703BF2" width="14.9" height="0.6"/>
					
						<rect x="489.301" y="274.229" transform="matrix(0.5922 -0.8058 0.8058 0.5922 -18.6369 512.2338)" fill="#703BF2" width="14.9" height="0.6"/>
					
						<rect x="489.195" y="273.578" transform="matrix(0.5922 -0.8058 0.8058 0.5922 -18.1548 511.8824)" fill="#6B25F2" width="14.9" height="0.6"/>
				</g>
				<g>
					
						<rect x="487.915" y="285.416" transform="matrix(0.989 -0.1482 0.1482 0.989 -37.8175 75.5698)" fill="#D91EF4" width="0.6" height="12.301"/>
				</g>
				<g>
					
						<rect x="486.094" y="285.614" transform="matrix(0.9717 -0.2362 0.2362 0.9717 -55.1521 123.1425)" fill="#D91EF4" width="0.6" height="12.3"/>
				</g>
				<g>
					<path fill="#D279F7" d="M494.5,242.6c0-0.2,0.1-0.5-0.4-0.7c-0.6-0.5-1.2-0.2-1.5,0.2s-0.3,0.8,0.1,1.3l-0.3,0.4l0.3,0.2
						l0.4-0.2C493.5,243.6,494.4,243.2,494.5,242.6z"/>
					<path fill="#D279F7" d="M489,241.9c0.5-0.3,0.9-0.6,0.9-1c0-0.2-0.1-0.4-0.3-0.5c-0.6-0.5-1.3-0.3-1.6,0.2
						c-0.3,0.4-0.4,0.8,0,1.3l0.3-0.4L489,241.9L489,241.9z"/>
					<path fill="#D279F7" d="M490.7,236c-0.6-0.5-1.3-0.3-1.6,0.2c-0.3,0.4-0.3,0.8,0.1,1.3l-0.2,0.3l0.5,0.4l0.4-0.3
						c0.5-0.3,1.1-0.8,1.1-1.3C491,236.1,490.9,236,490.7,236z"/>
					<path fill="#D279F7" d="M491.6,236.6l0.4-0.3c0.5-0.3,1-0.8,1-1.3c0-0.2,0-0.4-0.2-0.6c-0.6-0.5-1.1-0.2-1.4,0.3
						c-0.3,0.4-0.6,0.6,0.2,1.3l-0.2,0.3L491.6,236.6z"/>
					<path fill="#D279F7" d="M493.9,231.7l0.4,0.3l0.2-0.1c0.4-0.1,1.1-0.4,1.2-1c0-0.2,0-0.5-0.4-0.8c-0.2-0.2-0.6-0.2-0.8,0
						c-0.2,0.1-0.4,0.3-0.5,0.5C493.7,231,493.7,231.4,493.9,231.7z"/>
					<path fill="#D279F7" d="M497.2,228.4l0.6,0.4l0.2-0.1c0.4-0.1,1.1-0.4,1.2-0.9c0-0.2,0-0.6-0.4-0.8c-0.6-0.5-1.2-0.3-1.5,0.2
						C497,227.4,497.3,228.2,497.2,228.4L497.2,228.4z"/>
					<path fill="#D279F7" d="M499.7,228.4c-0.1,0.3,0,0.5,0.1,0.6l0.4,0.3l0.2-0.1c0.4-0.1,1.1-0.4,1.2-1c0-0.1,0-0.2,0-0.3v-0.1
						c0-0.2-0.1-0.4-0.2-0.5c-0.6-0.5-1.1-0.2-1.5,0.3C499.8,227.8,499.6,228,499.7,228.4z"/>
					<path fill="#D279F7" d="M494.5,232.2c-0.3,0.4-0.1,1-0.2,1.1l-0.1,0.2l0.9,0.6l0.3-0.3c0.5-0.3,1-0.8,1-1.3
						c0-0.2-0.2-0.5-0.4-0.6C495.5,231.6,494.8,231.7,494.5,232.2z"/>
					<path fill="#D279F7" d="M491.3,238.9l0.1-0.2l0,0l0,0l0,0l0,0c0.3,0.2,0.6,0.4,0.9,0.2c0.4-0.2,0.6-0.4,0.6-0.8
						c0-0.4-0.1-0.7-0.5-1c-0.3-0.2-0.6-0.3-1-0.2c-0.4,0.2-0.6,0.6-0.6,0.9C491,238.3,491,238.6,491.3,238.9z"/>
					<path fill="#D279F7" d="M491.1,241.5c-0.6-0.5-1-0.1-1.4,0.3c-0.3,0.4-0.6,0.6,0.3,1.4l0.3-0.4l0.1,0.1h0.2
						c0.5-0.3,0.9-0.6,0.9-1C491.4,241.7,491.3,241.6,491.1,241.5z"/>
					<path fill="#D279F7" d="M494.5,240.9l0.3-0.1c0.4-0.1,1.1-0.5,1.2-1c0-0.2,0-0.6-0.4-0.8c-0.6-0.5-1.2-0.2-1.5,0.2
						s0.2,1.1,0.1,1.3l-0.1,0.2L494.5,240.9z"/>
					<path fill="#D279F7" d="M495.9,236.1l0.6,0.5l0.2-0.1c0.4-0.1,1.1-0.5,1.2-1c0-0.2,0-0.5-0.4-0.8c-0.6-0.5-1.3-0.3-1.6,0.2
						C495.8,235.1,496.1,235.9,495.9,236.1L495.9,236.1z"/>
					<path fill="#D279F7" d="M501.1,233.4c0-0.2,0.1-0.5-0.4-0.7c-0.6-0.5-1.2-0.2-1.5,0.2s-0.3,0.8,0.1,1.3l-0.1,0.2l0.3,0.2
						l0.3-0.1C500.2,234.3,501.1,233.9,501.1,233.4z"/>
					<path fill="#D279F7" d="M503.1,232.3L503.1,232.3c0.6,0.1,1.1-0.3,1.2-0.8c0.1-0.6-0.2-1.1-0.8-1.3l-0.1,0.5v-0.5
						c-0.4-0.1-0.7,0.1-0.9,0.3c-0.3,0.3-0.3,0.7-0.2,1.1c0.1,0.2,0.2,0.4,0.4,0.5C502.8,232.3,502.9,232.3,503.1,232.3z"/>
					<path fill="#D279F7" d="M507.5,229.5c0-0.2-0.1-0.4-0.3-0.6c-0.6-0.5-1.2-0.2-1.5,0.2s0.1,1.1,0,1.2l-0.3,0.4l0.6,0.4l0.4-0.4
						C506.9,230.6,507.5,229.9,507.5,229.5z"/>
					<path fill="#D279F7" d="M504.2,229.8l0.3-0.2c0.5-0.3,1-0.7,1-1.2c0-0.2-0.1-0.4-0.2-0.5c-0.6-0.5-1.1-0.1-1.4,0.3
						c-0.3,0.4-0.6,0.6,0.2,1.4l-0.1,0.2H504.2z"/>
					<path fill="#D279F7" d="M511.9,228.8c-0.6-0.5-1.1-0.2-1.5,0.3c-0.3,0.4-0.7,0.5,0.1,1.3l-0.2,0.3l0.4,0.3l0.4-0.3
						c0.5-0.3,1-0.8,1.1-1.3C512.2,229.1,512.1,228.9,511.9,228.8z"/>
					<path fill="#D279F7" d="M521.3,233c0-0.2,0-0.6-0.5-0.8c-0.6-0.5-1.2-0.2-1.5,0.2s0,1-0.1,1.2l-0.4,0.5l0.6,0.5l0.4-0.3
						C520.3,234.1,521.2,233.5,521.3,233z"/>
					<path fill="#D279F7" d="M522.2,235c-0.3-0.2-0.6-0.3-1-0.1s-0.6,0.5-0.6,0.8c0,0.4,0.2,0.6,0.5,0.9l0.2-0.3l0,0l0,0l0,0l0,0
						c0.3,0.2,0.6,0.5,0.8,0.3c0.4-0.2,0.5-0.4,0.6-0.7C522.6,235.6,522.5,235.3,522.2,235z"/>
					<path fill="#D279F7" d="M525.4,238.4L525,239l0.4,0.3l0.4-0.3c0.4-0.1,1.3-0.6,1.4-1.2c0-0.2,0-0.6-0.4-0.8
						c-0.6-0.5-1.2-0.2-1.5,0.2C525,237.4,524.5,237.5,525.4,238.4z"/>
					<path fill="#D279F7" d="M523.1,241.3l-0.3,0.4l0.4,0.3l0.4-0.3c0.5-0.3,1-0.8,1-1.3c0-0.2-0.1-0.5-0.3-0.6
						c-0.6-0.5-1.1-0.2-1.5,0.2C522.7,240.4,522.3,240.6,523.1,241.3z"/>
					<path fill="#D279F7" d="M522.2,232.6L522.2,232.6l0.2,0.3l0.3-0.1c0.4-0.1,1.1-0.5,1.2-1c0-0.2,0-0.5-0.4-0.7
						c-0.6-0.5-1.1-0.2-1.5,0.3C521.8,231.6,521.3,231.8,522.2,232.6z"/>
					<path fill="#D279F7" d="M520.3,230.2l0.1-0.2l0.5,0.4h0.2c0.4-0.1,1.1-0.4,1.2-0.9c0-0.2,0-0.5-0.4-0.7
						c-0.6-0.5-1.2-0.2-1.6,0.2C520,229.3,520,229.7,520.3,230.2z"/>
					<path fill="#D279F7" d="M517.5,228l0.7,0.6l0.2-0.1c0.4-0.1,1.1-0.5,1.2-1c0-0.2,0-0.5-0.5-0.8c-0.6-0.5-1.3-0.3-1.6,0.2
						C517.5,227.2,517.6,227.9,517.5,228L517.5,228z"/>
					<path fill="#D279F7" d="M504,226.8l0.3-0.4l0,0l0.1,0.2c0.4-0.1,1-0.2,1.1-0.7c0-0.2,0-0.5-0.4-0.7c-0.6-0.5-1.1-0.1-1.4,0.3
						C503.6,225.7,503.2,226,504,226.8z"/>
					<path fill="#D279F7" d="M508,227.3l0.3-0.4l0.5,0.4l0.1,0.1c0.4-0.1,1-0.3,1.1-0.8c0-0.2,0-0.5-0.4-0.7
						c-0.6-0.5-1.2-0.2-1.5,0.2C507.7,226.4,508.1,227.2,508,227.3z"/>
					<path fill="#D279F7" d="M511.3,225.3L511.3,225.3l0.6,0.6l0.3-0.1c0.4-0.1,1.1-0.4,1.2-0.9c0-0.2,0-0.6-0.4-0.8
						c-0.6-0.5-1.3-0.3-1.7,0.1C511.2,224.6,511,224.8,511.3,225.3z"/>
					<path fill="#D279F7" d="M506.5,224.4l-0.4,0.5l0.6,0.5l0.4-0.3c0.4-0.1,1.2-0.6,1.3-1.1c0-0.2,0-0.6-0.4-0.8
						c-0.6-0.5-1.3-0.3-1.6,0.1C506.3,223.5,506.6,224.2,506.5,224.4z"/>
					<path fill="#D279F7" d="M514.7,227.5l0.9,0.6l0.2-0.1c0.4-0.1,1.1-0.5,1.2-1c0-0.2,0-0.6-0.5-0.8c-0.6-0.5-1.4-0.3-1.7,0.1
						C514.7,226.7,514.8,227.3,514.7,227.5L514.7,227.5z"/>
					<path fill="#D279F7" d="M512.9,229.7c-0.3,0.4-0.4,0.7,0,1.2l-0.2,0.3l0.6,0.4l0.3-0.2c0.4-0.1,1.2-0.6,1.3-1.1
						c0-0.2,0-0.5-0.4-0.8C513.8,229,513.2,229.3,512.9,229.7z"/>
					<path fill="#D279F7" d="M523,246.7l0.4,0.3l0.2-0.1c0.4-0.1,1.1-0.4,1.2-1c0-0.2,0-0.5-0.4-0.8c-0.2-0.2-0.6-0.2-0.8,0
						c-0.2,0.1-0.4,0.3-0.5,0.5C522.8,246,522.8,246.4,523,246.7z"/>
					<path fill="#D279F7" d="M522.6,248.6c-0.3,0.4-0.4,0.7,0,1.2l0.1-0.1l0.6,0.4h0.2c0.4-0.1,1.1-0.4,1.2-0.9c0-0.2,0-0.5-0.5-0.8
						C523.7,248,523,248.3,522.6,248.6z"/>
					<path fill="#D279F7" d="M522.4,252.2l0.4,0.3l0.2-0.1c0.4-0.1,1.1-0.4,1.2-1c0-0.2,0-0.5-0.4-0.8c-0.2-0.2-0.6-0.2-0.8,0
						c-0.2,0.1-0.4,0.3-0.5,0.5C522.2,251.4,522.2,251.9,522.4,252.2z"/>
					<path fill="#D279F7" d="M521.5,254.1c-0.2,0.1-0.4,0.3-0.5,0.5c-0.3,0.5-0.4,0.8-0.1,1.2l0.4,0.3l0.3-0.2
						c0.5-0.3,0.9-0.7,1-1.2C522.6,254.2,522.1,253.8,521.5,254.1z"/>
					<path fill="#D279F7" d="M519.8,258.3c0.4-0.1,1.1-0.4,1.2-1c0-0.2,0-0.5-0.4-0.8c-0.2-0.2-0.6-0.2-0.8,0
						c-0.2,0.1-0.4,0.3-0.5,0.5c-0.3,0.5-0.4,0.8-0.1,1.2l0.4,0.3L519.8,258.3z"/>
					<path fill="#D279F7" d="M516.8,260.7l0.4,0.3l0.3-0.2c0.5-0.3,0.9-0.7,1-1.2c0-0.5-0.6-0.8-1-0.6c-0.2,0.1-0.4,0.3-0.5,0.5
						C516.6,260,516.5,260.4,516.8,260.7z"/>
					<path fill="#D279F7" d="M514.1,263.7l0.4,0.3l0.3-0.2c0.5-0.3,1-0.7,1-1.2c0-0.2-0.1-0.4-0.3-0.5c-0.6-0.5-1.2-0.2-1.5,0.3
						C513.7,262.8,513.3,262.9,514.1,263.7L514.1,263.7z"/>
					<path fill="#D279F7" d="M503.5,262.5c-0.6-0.5-1.3-0.3-1.6,0.2c-0.3,0.4,0,1-0.1,1.1l-0.2,0.2l0.7,0.5l0.3-0.2
						c0.4-0.1,1.1-0.5,1.2-1C503.8,263.2,503.8,262.8,503.5,262.5z"/>
					<path fill="#D279F7" d="M494,254.9c-0.6-0.5-1.1-0.2-1.5,0.3c-0.3,0.4-0.7,0.5,0.1,1.3l0.2-0.3l0.4,0.3h0.2
						c0.5-0.3,0.8-0.6,0.8-1C494.3,255.3,494.2,255.1,494,254.9z"/>
					<path fill="#D279F7" d="M492.7,246.3c-0.6-0.5-1.1-0.2-1.5,0.3c-0.3,0.4-0.6,0.6,0.2,1.4l0,0l0.2,0.1h0.2
						c0.4-0.1,1.1-0.4,1.2-0.9C493.1,246.9,493.1,246.6,492.7,246.3z"/>
					<path fill="#D279F7" d="M497.3,255c-0.2-0.2-0.6-0.2-0.8,0c-0.2,0.1-0.4,0.3-0.5,0.5c-0.3,0.5-0.4,0.8-0.1,1.2l0.4,0.3l0.2-0.1
						c0.4-0.1,1.1-0.4,1.2-1C497.7,255.7,497.7,255.3,497.3,255z"/>
					<path fill="#D279F7" d="M497.6,257.4c-0.3,0.4-0.8,0.5,0,1.2l0.2-0.2l0.6,0.4h0.2c0.5-0.3,0.9-0.6,0.9-1.1
						c0-0.2-0.1-0.4-0.3-0.5C498.6,256.7,497.9,257,497.6,257.4z"/>
					<path fill="#D279F7" d="M496,252.4c-0.6-0.5-1.1-0.2-1.5,0.3c-0.3,0.4-0.7,0.5,0.1,1.3l0,0l0.4,0.3l0.3-0.2
						c0.5-0.3,1-0.7,1-1.2C496.2,252.6,496.1,252.4,496,252.4z"/>
					<path fill="#D279F7" d="M498.2,254.8c-0.3,0.4-0.5,0.7-0.1,1.2l0.1-0.2l0.6,0.5h0.2c0.4-0.1,1-0.3,1.1-0.8c0-0.2,0-0.6-0.5-0.8
						C499.1,254.2,498.5,254.4,498.2,254.8z"/>
					<path fill="#D279F7" d="M502.2,256.6c-0.6-0.5-1.3-0.3-1.7,0.1c-0.3,0.4-0.1,1-0.2,1.1l-0.1,0.2l0.8,0.6l0.3-0.2
						c0.4-0.1,1.2-0.6,1.3-1.1C502.6,257.2,502.5,256.9,502.2,256.6z"/>
					<path fill="#D279F7" d="M506.1,258.8c-0.6-0.5-1.3-0.3-1.6,0.2c-0.3,0.4,0,1-0.1,1.1l-0.1,0.1l0.7,0.5l0.2-0.1
						c0.4-0.1,1.1-0.5,1.2-1C506.5,259.5,506.5,259.1,506.1,258.8z"/>
					<path fill="#D279F7" d="M506,262.1l0.6,0.5l0.2,0.1c0.4-0.1,1.1-0.4,1.2-0.9c0-0.2,0-0.5-0.4-0.7c-0.6-0.5-1.3-0.3-1.7,0.1
						c-0.3,0.4-0.5,0.7-0.1,1.2L506,262.1z"/>
					<path fill="#D279F7" d="M513.7,259c0-0.2,0-0.5-0.4-0.8c-0.2-0.2-0.6-0.2-0.8,0c-0.2,0.1-0.4,0.3-0.5,0.5
						c-0.3,0.5-0.4,0.8-0.1,1.2l0.4,0.3l0.2-0.1C512.8,259.9,513.6,259.6,513.7,259z"/>
					<path fill="#D279F7" d="M516,258.4c-0.2-0.2-0.6-0.2-0.8,0c-0.2,0.1-0.4,0.3-0.5,0.5c-0.3,0.5-0.4,0.8-0.1,1.2l0.4,0.3l0.2-0.1
						c0.4-0.1,1.1-0.4,1.2-1C516.3,259,516.3,258.7,516,258.4z"/>
					<path fill="#D279F7" d="M509.9,261.7l0.4,0.3l0.3-0.2c0.5-0.3,0.9-0.7,1-1.2c0-0.5-0.6-0.8-1-0.6c-0.2,0.1-0.4,0.3-0.5,0.5
						C509.8,261,509.8,261.4,509.9,261.7z"/>
					<path fill="#D279F7" d="M518,256.8c0-0.2,0-0.5-0.4-0.7c-0.6-0.5-1.1-0.2-1.5,0.3c-0.3,0.4-0.7,0.5,0.1,1.3l0.1-0.2l0.3,0.2
						h0.2C517.3,257.6,517.9,257.4,518,256.8z"/>
					<path fill="#D279F7" d="M520,254.9c0-0.2,0-0.6-0.4-0.8c-0.6-0.5-1.2-0.2-1.6,0.2c-0.3,0.4,0,1-0.1,1.2l-0.1,0.2l0.6,0.5
						l0.3-0.1C519,255.8,519.9,255.5,520,254.9z"/>
					<path fill="#D279F7" d="M522,252.1c0-0.2,0-0.6-0.4-0.8c-0.6-0.5-1.2-0.2-1.6,0.2c-0.3,0.4,0,1-0.1,1.2l0.3-0.4l0.6,0.5v0.2
						C521.2,252.7,521.9,252.6,522,252.1z"/>
					<path fill="#D279F7" d="M518.9,260.8l0.4,0.3l0.2-0.1c0.4-0.1,1.1-0.4,1.2-1c0-0.2,0-0.5-0.4-0.8c-0.2-0.2-0.6-0.2-0.8,0
						c-0.2,0.1-0.4,0.3-0.5,0.5C518.7,260,518.7,260.5,518.9,260.8z"/>
					<path fill="#D279F7" d="M523.5,257.8c-0.6-0.5-1.3-0.3-1.6,0.1s0,1-0.1,1.1v0.1l0.7,0.6l0.2-0.1c0.4-0.1,1.1-0.5,1.2-1
						C523.9,258.4,523.9,258.1,523.5,257.8z"/>
					<path fill="#D279F7" d="M523.6,255.2c-0.3,0.4-0.3,0.8,0.1,1.3l0.2-0.2l0.4,0.3l0.1,0.1c0.4-0.1,1-0.3,1.1-0.8
						c0-0.2,0-0.5-0.4-0.7C524.5,254.6,523.9,254.9,523.6,255.2z"/>
					<path fill="#D279F7" d="M525,252.2c-0.3,0.4-0.6,0.6,0.2,1.4l-0.1,0.1l0.1,0.1l0.3-0.1c0.4-0.1,1.2-0.5,1.3-1
						c0-0.2,0.1-0.5-0.4-0.7C525.8,251.4,525.2,251.7,525,252.2z"/>
					<path fill="#D279F7" d="M525.6,249.8c-0.3,0.4,0,1-0.1,1.1v0.1l0.7,0.6l0.2-0.1c0.4-0.1,1.1-0.4,1.2-0.9c0-0.2,0-0.6-0.4-0.8
						C526.6,249.2,525.9,249.4,525.6,249.8z"/>
					<path fill="#D279F7" d="M525.1,247.3l-0.1,0.2l0.6,0.5l0.3-0.2c0.5-0.3,1-0.7,1-1.2c0-0.2-0.1-0.4-0.3-0.5
						c-0.6-0.5-1.3-0.3-1.6,0.2C525,246.3,524.8,246.8,525.1,247.3z"/>
					<path fill="#D279F7" d="M525.4,242.8l0.6,0.5h0.1c0.4-0.1,1-0.3,1.1-0.9c0-0.2,0-0.6-0.4-0.8c-0.6-0.5-1.2-0.2-1.6,0.2
						c-0.3,0.4,0,1-0.1,1.2L525.4,242.8z"/>
					<path fill="#D279F7" d="M512.1,267.2l0.4,0.3l0.3-0.2c0.5-0.3,0.9-0.7,1-1.2c0-0.5-0.6-0.8-1-0.6c-0.2,0.1-0.4,0.3-0.5,0.5
						C511.9,266.4,511.9,266.9,512.1,267.2z"/>
					<path fill="#D279F7" d="M517.4,263.3c-0.6-0.5-1.3-0.3-1.6,0.2c-0.3,0.4,0,1-0.1,1.1l-0.1,0.2l0.7,0.6l0.3-0.1
						c0.4-0.1,1.2-0.5,1.3-1C517.8,263.8,517.7,263.6,517.4,263.3z"/>
					<path fill="#D279F7" d="M520.1,261.8c-0.6-0.5-1.2-0.2-1.5,0.2c-0.3,0.4-0.3,0.8,0.1,1.3l-0.1,0.1l0.4,0.3l0.3-0.1
						c0.4-0.1,1.2-0.5,1.3-1C520.6,262.4,520.6,262.2,520.1,261.8z"/>
					<path fill="#D279F7" d="M504.7,265.4c-0.6-0.5-1.4-0.4-1.7,0.1c-0.3,0.4-0.2,0.9-0.3,1l-0.2,0.3l1,0.7l0.3-0.2
						c0.4-0.1,1.2-0.5,1.3-1C505,266.2,505,265.8,504.7,265.4z"/>
					<path fill="#D279F7" d="M501,262.8c-0.6-0.5-1.2-0.2-1.6,0.2c-0.3,0.4,0,1-0.1,1.2l-0.2,0.3l0.6,0.5l0.3-0.2
						c0.4-0.1,1.1-0.5,1.2-1C501.3,263.6,501.3,263.1,501,262.8z"/>
					<path fill="#D279F7" d="M498.6,261c-0.2-0.2-0.6-0.2-0.8,0c-0.2,0.1-0.4,0.3-0.5,0.5c-0.3,0.5-0.4,0.8-0.1,1.2l0.4,0.3l0.2-0.1
						c0.4-0.1,1.1-0.4,1.2-1C499,261.5,499,261.2,498.6,261z"/>
					<path fill="#D279F7" d="M495.6,261.8l0.3-0.3c0.5-0.3,1-0.8,1-1.3c0-0.2-0.1-0.5-0.3-0.6c-0.6-0.5-1.4-0.4-1.7,0.1
						c-0.3,0.4-0.2,0.9-0.3,1l-0.2,0.3L495.6,261.8z"/>
					<path fill="#D279F7" d="M494.8,251.2l0.3-0.3c0.5-0.3,1-0.7,1-1.2c0-0.2-0.1-0.4-0.3-0.6c-0.6-0.5-1.1-0.2-1.4,0.3
						c-0.3,0.4-0.7,0.5,0.1,1.3l-0.1,0.2L494.8,251.2z"/>
					<path fill="#D279F7" d="M491.2,249.2c-0.2-0.2-0.6-0.2-0.8,0c-0.2,0.1-0.4,0.3-0.5,0.5c-0.3,0.5-0.4,0.8-0.1,1.2l0.4,0.3
						l0.2-0.1c0.4-0.1,1.1-0.4,1.2-1C491.6,249.9,491.6,249.5,491.2,249.2z"/>
					<path fill="#D279F7" d="M489.1,265.4c-0.6-0.5-1.3-0.3-1.6,0.2c-0.3,0.4,0,1-0.1,1.1l-0.1,0.1l0.7,0.6l0.2-0.1
						c0.4-0.1,1.1-0.5,1.2-1C489.6,266,489.6,265.7,489.1,265.4z"/>
					<path fill="#D279F7" d="M507.6,283.9c-0.6-0.5-1.1-0.2-1.4,0.3c-0.3,0.4-0.6,0.6,0.2,1.3l0.3-0.4l0.3,0.2l0.1,0.1
						c0.5-0.3,0.8-0.6,0.8-1S507.8,283.9,507.6,283.9z"/>
					<path fill="#D279F7" d="M492.7,295.2c-0.6-0.5-1.3-0.3-1.6,0.2c-0.3,0.4-0.4,0.7,0,1.2l0.2-0.3l0.6,0.5h0.2
						c0.5-0.3,0.9-0.6,0.9-1C493,295.4,492.9,295.3,492.7,295.2z"/>
					<path fill="#D279F7" d="M522.5,289.7c0-0.2,0-0.5-0.4-0.8c-0.2-0.2-0.6-0.2-0.8,0c-0.2,0.1-0.4,0.3-0.5,0.5
						c-0.3,0.5-0.4,0.8-0.1,1.2l0.4,0.3l0.2-0.1C521.7,290.6,522.5,290.2,522.5,289.7z"/>
					<path fill="#D279F7" d="M523.4,264.2c-0.6-0.5-1.3-0.3-1.7,0.1c-0.3,0.4-0.1,1-0.2,1.1v0.1l0.8,0.6l0.2-0.1
						c0.4-0.1,1.1-0.5,1.2-1C523.8,264.8,523.8,264.5,523.4,264.2z"/>
					<path fill="#D279F7" d="M481.2,254.1c-0.6-0.5-1.3-0.3-1.6,0.2c-0.3,0.4,0.1,1.1,0,1.2l0.1-0.1l0.6,0.5l0.2-0.1
						c0.5-0.3,0.9-0.7,0.9-1.2C481.6,254.4,481.4,254.3,481.2,254.1z"/>
				</g>
				<path fill="#2D98DA" d="M482.3,277c-0.9,0.7-1.6,1.1-2.9,0.9c-1.2-0.1-1.7-0.7-2.4-1.6c-0.5-0.6-0.8-1.3-1-2
					c-0.1-0.5-0.1-1-0.1-1.5l0.8-7.4c0.3-2.5,2-4.4,4.5-4.1c1.2,0.2,1.9,0.4,2.6,1.3s1,2.6,0.8,3.9l-0.8,7.4
					C483.9,275.1,483.4,276.3,482.3,277z"/>
				<path fill="#2D98DA" d="M501.9,296.5c-1.1-0.6-1.7-1-2-2.1c-0.4-1.1,0-1.8,0.5-2.9c0.4-0.7,0.8-1.3,1.5-1.8
					c0.4-0.3,0.8-0.6,1.3-0.6l7.1-2.3c2.4-0.7,4.8,0,5.6,2.5c0.4,1.2,0.5,1.9-0.1,3s-1.9,1.9-3.1,2.4l-7.1,2.3
					C504.3,297.1,503,297,501.9,296.5z"/>
				<path fill="#2D98DA" d="M528.8,277.2c-1.2,0.4-1.9,0.6-3,0c-1-0.5-1.3-1.2-1.8-2.3c-0.3-0.7-0.4-1.5-0.3-2.3
					c0.1-0.5,0.2-0.9,0.5-1.4l3.2-6.8c1.1-2.3,3.3-3.4,5.7-2.3c1.1,0.6,1.7,0.9,2,2.1s0.1,2.8-0.5,3.9l-3.2,6.8
					C531,276,530.1,276.8,528.8,277.2z"/>
			</g>
		</g>
	</g>
	<g id="New_Symbol_3" display="inline">
	</g>
</g>
<g id="Layer_2_1_" display="none">
	
		<rect y="45.6" display="inline" fill="none" stroke="#EF3F22" stroke-width="0.1" stroke-miterlimit="10" width="978.2" height="514.4"/>
</g>
</svg>
