<?xml version="1.0" encoding="utf-8"?>
<!-- Generator: Adobe Illustrator 22.1.0, SVG Export Plug-In . SVG Version: 6.00 Build 0)  -->
<svg version="1.1" id="fundo-03" xmlns="http://www.w3.org/2000/svg" xmlns:xlink="http://www.w3.org/1999/xlink" x="0px" y="0px"
	 viewBox="0 0 978.2 560" enable-background="new 0 0 978.2 560" xml:space="preserve">
<g id="Layer_5">
</g>
<g id="Layer_2" display="none">
</g>
<g>
	<path fill="#0C9692" d="M694.312,476.908h0.5c4.3,0.1,8.2,0.4,11.1,2.4c0.9,0.6,1.9,1.5,2.7,2.6c4,5,5.3,12,3.2,18.1
		c-1.5,4.5-4.7,8.2-8.7,10.2c-4.2,2-9.3,2.1-13.2,0.1c-3.2-1.7-5.7-4.5-8.2-7.6l0.1-0.1c2.5-3.1,3.1-7.2,3.2-11.2
		c0.1-2.8,0.2-5.7-1.3-8.2c-0.2-0.4-0.5-0.7-0.7-1.1c0.1-0.2,0.2-0.4,0.3-0.6c0.6-1.3,1.2-2.5,2.1-3.2
		C687.712,476.708,691.512,476.808,694.312,476.908z"/>
	<path fill="#0C9692" d="M683.012,483.808c1.3,2.2,1.3,4.9,1.1,7.5c-0.2,3.6-0.6,7.6-3,10.6l-0.2-0.3c-1.5-1.9-3.1-4-3.9-6.4
		c-0.9-2.5-0.6-5.1,0.6-6.9c0.6-0.8,1.4-1.5,2.2-2.2c0.4-0.4,0.8-0.6,1.2-1c0.6-0.6,1.1-1.3,1.6-2
		C682.712,483.408,682.812,483.608,683.012,483.808z"/>
	<path fill="#139E86" d="M673.912,458.708c-0.2-0.2-0.4-0.5-0.4-0.6c0.1-0.2,0.3-0.4,0.6-0.5c0.1,0,0.2,0,0.3,0c0.2,0,0.5,0,0.7,0.1
		h0.2l0.1-0.4l0.1,0.3c0,0,0.1,0,0.2,0c0.2,0.1,0.3,0.4,0.3,0.6s0,0.5,0,0.6s0,0.3,0,0.4l-0.7-0.2
		C674.612,459.108,674.212,459.008,673.912,458.708z"/>
	<path fill="#108977" d="M673.612,458.108c-0.1,0.2,0.1,0.6,0.4,0.6c0.3,0.3,0.7,0.4,1.1,0.5l0.7,0.2c0-0.1,0-0.3,0-0.4
		c0-0.2,0.1-0.5,0-0.6c0-0.2-0.1-0.5-0.3-0.6c-0.1-0.1-0.1,0-0.2,0l-0.1-0.3l-0.1,0.4h-0.2c-0.2,0-0.5-0.1-0.7-0.1
		c-0.1,0-0.2,0-0.3,0C673.912,457.708,673.612,457.908,673.612,458.108z M673.612,459.208c-0.4-0.3-0.6-0.7-0.6-1.2
		c0.1-0.5,0.6-0.7,1-0.8c0.4-0.1,0.8,0,1.2,0.1l0,0c0.6-0.2,1,0.5,1.1,1.1s-0.2,1.2-0.1,1.8c-0.5-0.1-0.9-0.3-1.5-0.4
		C674.412,459.708,674.012,459.508,673.612,459.208z"/>
	<path fill="#108977" d="M672.612,457.808c0.2-0.6,0.7-1,1.4-1.2c0.5-0.1,0.9,0,1.3,0.1c0.4-0.1,0.6,0,0.9,0.2
		c0.4,0.3,0.6,0.8,0.7,1.4c0,0.3,0,0.6-0.1,0.8c0,0.3-0.1,0.6,0,0.8l0.2,0.8l-2.2-0.6c-0.5-0.1-1-0.3-1.5-0.6
		C672.712,459.208,672.412,458.408,672.612,457.808z M673.012,458.008c-0.1,0.5,0.1,0.9,0.6,1.2c0.4,0.3,0.8,0.5,1.3,0.6
		s0.9,0.3,1.5,0.4c-0.1-0.6,0.1-1.2,0.1-1.8c0-0.6-0.6-1.3-1.1-1.1l0,0c-0.4-0.1-0.8-0.2-1.2-0.1
		C673.612,457.208,673.212,457.508,673.012,458.008z"/>
	<path fill="#108977" d="M670.512,467.608v0.4C670.512,467.908,670.412,467.708,670.512,467.608L670.512,467.608z"/>
	<path fill="#108977" d="M670.912,468.308c0,0.2-0.1,0.3-0.3,0.4h-0.3l0.1-0.6l0,0L670.912,468.308z"/>
	<path fill="#108977" d="M670.212,468.908v-0.3h0.2h0.4C670.512,468.808,670.412,468.908,670.212,468.908z"/>
	<path fill="#108977" d="M670.212,468.008l0.1-0.5h0.1c0.1,0.1,0.1,0.2,0.1,0.4v0.2L670.212,468.008z"/>
	<polygon fill="#108977" points="670.212,468.608 670.212,468.308 670.212,468.308 670.212,468.008 670.412,468.108 
		670.412,468.608 	"/>
	<polygon fill="#108977" points="670.112,468.608 670.212,468.308 670.212,468.608 	"/>
	<polygon fill="#108977" points="670.212,468.008 670.212,468.308 670.112,468.008 	"/>
	<path fill="#139E86" d="M671.312,468.708c-0.8,0.6-1.8,1.1-2.7,1.1c-0.1-0.6,0.3-1.4,0.8-1.8c0.2-0.1,0.5-0.2,0.6-0.1v0.1l-0.2,0.6
		h0.4h0.1v0.3c0.2,0,0.4-0.1,0.5-0.3L671.312,468.708z"/>
	<path fill="#108977" d="M668.512,469.808c0.9,0,1.9-0.5,2.7-1.1l-0.6-0.1c0.1-0.1,0.2-0.3,0.3-0.4l-0.5-0.2c0.6,0.1,1,0.1,1.5,0.2
		c0.1,0,0.2,0,0.2,0.1c0.2,0.2,0,0.4-0.2,0.6c-1.1,0.8-2.5,1.7-3.9,1.5c-0.4-1,0.1-2.1,1-2.7c0.4-0.2,0.8-0.4,1.1-0.1l0.1,0.1h-0.1
		l-0.1,0.5h-0.1v0.3l0,0v0.3h-0.4l0.2-0.6v-0.1c-0.1-0.1-0.4,0-0.6,0.1C668.812,468.408,668.512,469.108,668.512,469.808z"/>
	<path fill="#108977" d="M668.112,470.308c1.4,0.3,2.7-0.6,3.9-1.5c0.2-0.1,0.4-0.4,0.2-0.6c-0.1,0-0.1-0.1-0.2-0.1
		c-0.5-0.1-1-0.1-1.5-0.2l0,0v-0.2v-0.4h-0.2l-0.1-0.1c-0.4-0.2-0.7-0.1-1.1,0.1C668.212,468.108,667.812,469.308,668.112,470.308z
		 M670.512,467.108c0.2,0.1,0.4,0.4,0.5,0.6l1.1,0.1c0.1,0,0.4,0,0.5,0.2c0.2,0.2,0.3,0.4,0.3,0.6c0,0.4-0.4,0.6-0.5,0.7
		c-1.1,0.7-2.3,1.6-3.7,1.6c-0.2,0-0.4,0-0.6-0.1l-0.3-0.1l-0.1-0.3c-0.5-1.2,0.1-2.7,1.2-3.3
		C669.312,466.908,670.012,466.708,670.512,467.108z"/>
	<path fill="#108977" d="M667.912,523.608c-1.6-0.1-4-3.5-1.2-3.4c1.1,0.1,2.1,0.4,3.1,0.8c0.1,0.1,0.3,0.2,0.3,0.3
		c0.1,0.1,0,0.3-0.1,0.4c-0.2,0.5-0.5,0.9-0.8,1.3C668.912,523.408,668.412,523.708,667.912,523.608z"/>
	<path fill="#108977" d="M664.912,520.908c0-0.3,0.2-1.3,1.9-1.2c1.1,0.1,2.3,0.4,3.3,0.9c0.2,0.1,0.5,0.3,0.6,0.6s0,0.6-0.1,0.7
		c-0.2,0.5-0.5,1-0.9,1.5s-1,0.7-1.6,0.7c-0.1,0-0.1,0-0.2,0C666.612,524.008,664.812,522.208,664.912,520.908z M666.712,520.208
		c-2.8-0.2-0.4,3.2,1.2,3.4c0.6,0.1,1-0.2,1.4-0.6c0.4-0.4,0.6-0.8,0.8-1.3c0.1-0.1,0.1-0.3,0.1-0.4c0-0.1-0.2-0.2-0.3-0.3
		C668.912,520.608,667.812,520.308,666.712,520.208z"/>
	<path fill="#139E86" d="M662.612,462.408c0.2-0.1,0.4-0.2,0.5-0.4l0,0c0,0,0,0,0.1-0.1l0,0h0.1c0,0,0,0,0-0.1l0,0l0,0
		c0-0.1,0.1-0.2,0.1-0.2c0.2-0.1,0.4-0.2,0.6-0.1c0.9,0.1,1.7,1,1.6,1.9c0,0.2-0.1,0.2-0.1,0.2s-0.1,0.1-0.6,0
		c-0.9-0.2-1.9-0.6-2.7-1.1l0,0C662.512,462.508,662.512,462.408,662.612,462.408z"/>
	<path fill="#1D1D1B" d="M663.212,461.908C663.212,461.908,663.212,462.008,663.212,461.908L663.212,461.908L663.212,461.908z"/>
	<path fill="#1D1D1B" d="M663.012,462.108L663.012,462.108L663.012,462.108C663.112,462.108,663.112,462.108,663.012,462.108
		L663.012,462.108z"/>
	<polygon fill="#108977" points="663.012,462.008 663.012,462.108 663.012,462.108 	"/>
	<path fill="#1D1D1B" d="M663.012,462.108L663.012,462.108L663.012,462.108z"/>
	<path fill="#108977" d="M662.912,462.008L662.912,462.008L662.912,462.008z"/>
	<path fill="#108977" d="M662.912,461.908L662.912,461.908L662.912,461.908z"/>
	<path fill="#108977" d="M662.812,461.908L662.812,461.908L662.812,461.908z"/>
	<path fill="#108977" d="M662.812,461.808L662.812,461.808L662.812,461.808z"/>
	<path fill="#108977" d="M662.812,461.808L662.812,461.808L662.812,461.808z"/>
	<path fill="#108977" d="M662.812,461.808L662.812,461.808L662.812,461.808z"/>
	<polygon fill="#108977" points="662.812,461.908 662.812,461.808 662.812,461.808 662.812,461.808 662.812,461.808 
		662.712,461.708 663.212,461.808 663.212,461.908 663.112,462.008 663.012,462.108 663.012,462.008 663.012,462.008 
		662.912,462.008 662.912,461.908 	"/>
	<polygon fill="#108977" points="662.712,461.708 662.712,461.708 662.812,461.808 	"/>
	<path fill="#108977" d="M663.012,462.108l-0.7,0.4c-0.1-0.1-0.1-0.2-0.1-0.4c0.2-0.1,0.4-0.2,0.6-0.4l0.1,0.1l0,0l0,0l0,0l0.1,0.1
		l0,0L663.012,462.108L663.012,462.108L663.012,462.108L663.012,462.108z"/>
	<path fill="#108977" d="M662.212,462.108c0-0.2,0-0.4,0-0.6l0.5,0.1C662.612,461.908,662.412,462.008,662.212,462.108z"/>
	<path fill="#108977" d="M664.112,460.908c1.2,0.2,2.1,1.4,2,2.5c0,0.2-0.1,0.4-0.2,0.6c-0.2,0.3-0.6,0.3-1,0.2
		c-1-0.2-2-0.6-2.9-1.2c-0.1-0.1-0.2-0.1-0.2-0.2c-0.1-0.2,0.1-0.5,0.3-0.6l0,0c0,0.1,0,0.2,0.1,0.4l0.7-0.4l0,0
		c-0.2,0.2-0.4,0.3-0.5,0.4c-0.1,0-0.1,0.1-0.2,0.1l0,0c0.8,0.6,1.7,0.9,2.7,1.1c0.4,0.1,0.5,0,0.6,0c0,0,0-0.1,0.1-0.2
		c0.1-0.9-0.6-1.9-1.6-1.9c-0.3,0-0.6,0-0.6,0.1s-0.1,0.1-0.1,0.2l0,0l-0.5-0.1l0,0l0,0c0-0.2,0.2-0.4,0.4-0.5
		C663.312,460.908,663.712,460.908,664.112,460.908z"/>
	<path fill="#108977" d="M666.112,463.408c0.1-1.2-0.8-2.4-2-2.5c-0.4,0-0.7,0-1,0.3c-0.2,0.1-0.3,0.3-0.4,0.5l0,0l-0.5-0.1
		c-0.1,0.2-0.1,0.4,0,0.6l0,0c-0.2,0.1-0.4,0.4-0.3,0.6c0,0.1,0.1,0.2,0.2,0.2c0.8,0.6,1.9,1,2.9,1.2c0.4,0.1,0.7,0.1,1-0.2
		C666.012,463.808,666.112,463.608,666.112,463.408z M664.112,460.408c1.5,0.2,2.7,1.7,2.5,3.1c0,0.4-0.2,0.6-0.3,0.8
		c-0.3,0.4-0.7,0.5-1,0.5c-0.2,0-0.4,0-0.5,0c-1.1-0.2-2.2-0.6-3.1-1.3c-0.1-0.1-0.3-0.2-0.4-0.5c-0.2-0.5,0-0.9,0.5-1.3
		c0.1,0,0.2-0.1,0.2-0.1c0.1,0,0.1-0.1,0.2-0.1c0.1-0.3,0.3-0.5,0.5-0.6C663.012,460.508,663.612,460.308,664.112,460.408z"/>
	<path fill="#108977" d="M660.612,479.708C660.612,479.708,660.512,479.708,660.612,479.708
		C660.612,479.808,660.612,479.708,660.612,479.708L660.612,479.708z"/>
	<path fill="#108977" d="M660.612,479.208l0.2,0.1c-0.1,0.1-0.1,0.2-0.2,0.2C660.612,479.508,660.612,479.408,660.612,479.208z"/>
	<path fill="#1D1D1B" d="M660.612,479.608L660.612,479.608L660.612,479.608L660.612,479.608z"/>
	<path fill="#139E86" d="M661.812,479.408c0.2,0,0.6,0,0.6,0.1c0.1,0.1,0.2,0.5,0,0.8c-0.1,0.5-0.4,1.1-0.8,1.2
		c-0.4,0.1-0.7-0.3-1.2-0.6c-0.1-0.1-0.1-0.1-0.2-0.2l0,0c0.4-0.1,0.6-0.4,0.7-0.6c0.1-0.2,0.1-0.5,0.1-0.6
		C661.412,479.408,661.612,479.408,661.812,479.408z"/>
	<path fill="#108977" d="M660.212,479.808l-0.1-0.5l0,0l0,0l0.5,0.3l0,0l0,0l0,0c0,0.1,0,0.1-0.1,0.2
		C660.412,479.808,660.312,479.808,660.212,479.808z"/>
	<path fill="#108977" d="M659.812,480.108c0.1-0.3,0.2-0.5,0.4-0.7l0.1,0.5c0.1,0,0.3-0.1,0.4-0.1l0,0
		C660.412,480.108,660.112,480.308,659.812,480.108z"/>
	<path fill="#108977" d="M660.112,478.808l0.6,0.7l0,0l-0.5-0.3L660.112,478.808z"/>
	<path fill="#108977" d="M660.112,478.808c-0.1,0-0.1,0-0.2,0c0.1-0.1,0.1-0.1,0.2-0.2l0,0V478.808L660.112,478.808L660.112,478.808
		z"/>
	<path fill="#108977" d="M659.912,478.808c0.1,0,0.1,0,0.2,0l0,0v-0.2l0.6,0.6c0,0.1,0,0.2,0,0.4l0,0l-0.6-0.7l0.1,0.5l-0.5-0.3
		C659.712,479.008,659.812,478.908,659.912,478.808z"/>
	<path fill="#108977" d="M661.612,481.508c0.5-0.1,0.7-0.8,0.8-1.2c0.1-0.5,0.1-0.7,0-0.8c-0.1-0.1-0.5-0.1-0.6-0.1s-0.5,0-0.6,0
		c0,0.2,0,0.5-0.1,0.6c-0.1,0.3-0.4,0.6-0.7,0.6l0,0c0.1,0.1,0.1,0.1,0.2,0.2C660.912,481.208,661.312,481.608,661.612,481.508z
		 M661.812,478.808c0.4,0,0.7,0,1,0.2c0.4,0.4,0.3,0.9,0.2,1.4c-0.2,0.7-0.6,1.5-1.3,1.7c-0.7,0.1-1.4-0.6-1.9-1.1
		c-0.3-0.2-0.5-0.4-0.6-0.6c-0.2-0.3-0.2-0.6,0.1-0.8c0.3-0.2,0.6-0.1,0.9-0.1l0,0l0,0c-0.2,0.2-0.3,0.5-0.4,0.7
		c0.3,0.2,0.6,0,0.7-0.3l0,0c0,0,0.1,0,0.1-0.1l-0.1-0.1l0,0l0,0c0-0.1,0.1-0.1,0.2-0.2l-0.2-0.1c0-0.1,0-0.3,0-0.4
		C661.012,478.808,661.412,478.808,661.812,478.808z"/>
	<path fill="#108977" d="M663.512,480.508c-0.4,1.5-1.1,1.9-1.7,2c-0.1,0-0.2,0-0.3,0c-0.7,0-1.3-0.6-1.8-0.9
		c-0.1-0.1-0.2-0.2-0.4-0.3l-0.2-0.1c-0.2-0.2-0.5-0.4-0.6-0.6c-0.3-0.5-0.3-1.2,0.2-1.6c0.3-0.2,0.6-0.2,0.9-0.2l0,0
		c-0.1,0.1-0.1,0.2-0.2,0.3l0.5,0.3c-0.3,0.1-0.6-0.1-0.9,0.1c-0.3,0.2-0.3,0.6-0.1,0.8c0.2,0.3,0.5,0.5,0.6,0.6
		c0.6,0.5,1.2,1.2,1.9,1.1s1.1-0.9,1.3-1.7c0.1-0.5,0.2-1-0.2-1.4c-0.3-0.2-0.6-0.2-1-0.2s-0.8,0-1.2,0.1c0,0.1,0,0.3,0,0.4
		l-0.6-0.6l-0.1-0.3h0.6c0.5,0,0.8,0,1.2-0.1c0.3,0,0.9-0.1,1.4,0.3C663.612,479.008,663.812,479.708,663.512,480.508z"/>
	<path fill="#0C9692" d="M663.112,478.608c-0.5-0.4-1-0.4-1.4-0.3c-0.4,0-0.8,0-1.2,0.1h-0.6l0.1,0.3l0,0c0,0-0.1,0.1-0.2,0.2l0,0
		c-0.3,0-0.6,0-0.9,0.2c-0.5,0.4-0.5,1-0.2,1.6c0.2,0.3,0.5,0.5,0.6,0.6l0.2,0.1c0.1,0.1,0.2,0.2,0.4,0.3c0.5,0.5,1,0.9,1.8,0.9
		c0.1,0,0.2,0,0.3,0c0.6-0.1,1.3-0.6,1.7-2C663.812,479.708,663.612,479.008,663.112,478.608z M671.712,476.208
		c2.2,0,4.6,0.2,6.4,1.2c-0.6,0.4-1.1,0.7-1.6,1c-5.2,3-9.5,4.7-13.7,5.6c-3.3,0.6-10.6,3.3-13.5-0.5c3.4-5.7,10-7.4,14.9-7.4
		c0.1,0,0.3,0,0.4,0L671.712,476.208z"/>
	<path fill="#139E86" d="M658.012,455.908c-0.4,0.6-0.7,1.4-1.1,2.1l-0.1,0.1l0,0c-0.8-0.3-1.5-0.8-1.7-1.5
		c-0.2-0.5-0.1-0.9,0.3-1.4c0.4-0.5,1.2-0.8,1.9-0.8c0.2,0,0.3,0,0.5,0.1s0.4,0.2,0.4,0.7
		C658.312,455.408,658.112,455.608,658.012,455.908z"/>
	<path fill="#139E86" d="M656.612,519.508c0.4,0.4,0.5,1,0.1,1.7c-0.2,0.4-0.4,0.4-0.4,0.4c-0.1,0-0.2,0-0.2-0.1
		c-0.6-0.3-1.2-1.1-1.2-1.7c0-0.2,0-0.4,0.4-0.5C655.912,519.108,656.412,519.208,656.612,519.508z"/>
	<path fill="#0C9692" d="M669.312,506.208c1.9,0.2,3.4,0.5,4.8,1c-1.7,1-3.5,1.9-5.7,2.1c-1.9,0.2-3.9-0.3-5.8-0.7
		c-1.8-0.5-3.6-0.8-5.3-1.6c-1.1-0.5-2.2-1.1-3.1-1.9c0.5-0.2,0.9-0.4,1.5-0.5c1-0.2,2,0.1,3.1,0.5c0.3,0.1,0.6,0.2,0.7,0.2
		c2.3,0.6,4.7,0.7,7,0.8C667.412,506.108,668.412,506.108,669.312,506.208z"/>
	<path fill="#108977" d="M657.512,454.408c-0.7,0-1.7,0.4-1.9,0.8c-0.4,0.5-0.5,0.9-0.3,1.4c0.2,0.6,0.8,1.2,1.7,1.5l0,0l0.1-0.1
		c0.4-0.7,0.7-1.4,1.1-2.1c0.1-0.3,0.3-0.5,0.3-0.6c0-0.5-0.2-0.6-0.4-0.7C657.812,454.408,657.612,454.408,657.512,454.408z
		 M658.512,456.008c-0.4,0.7-0.7,1.5-1.1,2.2c-0.1,0.2-0.2,0.3-0.4,0.4c-0.1,0-0.2,0-0.3,0c-1.6-0.6-2.9-2.1-1.7-3.7
		c0.7-1.1,3.8-1.8,3.7,0.3C658.812,455.508,658.712,455.808,658.512,456.008z"/>
	<path fill="#108977" d="M656.712,521.208c0.4-0.6,0.2-1.3-0.1-1.7s-0.7-0.4-1.2-0.2c-0.3,0.1-0.4,0.3-0.4,0.5
		c0,0.6,0.6,1.4,1.2,1.7c0,0,0.1,0.1,0.2,0.1C656.512,521.508,656.512,521.508,656.712,521.208z M655.212,518.808
		c1.8-0.7,2.8,1.1,2,2.6c-0.2,0.3-0.5,0.6-0.7,0.6s-0.3,0-0.5-0.1C655.012,521.508,653.712,519.508,655.212,518.808z"/>
	<path fill="#108977" d="M657.012,458.608c0.2,0,0.3-0.2,0.4-0.4c0.4-0.7,0.7-1.5,1.1-2.2c0.2-0.3,0.3-0.6,0.3-0.9
		c0.1-2.1-3-1.4-3.7-0.3c-1.2,1.6,0.1,3.1,1.7,3.7C656.812,458.608,656.912,458.608,657.012,458.608z M657.812,458.508
		c-0.1,0.1-0.3,0.6-0.6,0.6c-0.1,0-0.1,0-0.2,0c-0.2,0-0.3-0.1-0.4-0.1c-1.1-0.4-2-1.2-2.4-2.2c-0.2-0.6-0.2-1.4,0.5-2.3
		c0.6-0.8,2.4-1.6,3.6-1.1c0.7,0.3,1.1,0.9,1.1,1.8c0,0.5-0.2,0.8-0.4,1.1C658.712,457.108,658.312,457.708,657.812,458.508
		L657.812,458.508z"/>
	<path fill="#108977" d="M657.712,521.708c-0.1,0.2-0.5,0.9-1.2,0.9h-0.1c-0.2,0-0.5-0.1-0.6-0.2l0,0c-0.8-0.4-1.8-1.6-1.8-2.7
		c0-0.6,0.4-1.1,1-1.5c0.9-0.4,1.9-0.3,2.4,0.4C658.112,519.608,658.212,520.708,657.712,521.708z M657.212,521.408
		c0.7-1.4-0.3-3.3-2-2.6c-1.5,0.6-0.2,2.7,0.8,3.1c0.2,0.1,0.3,0.1,0.5,0.1C656.812,522.108,657.012,521.708,657.212,521.408z"/>
	<path fill="#139E86" d="M650.612,469.208c0.2,0,0.4,0,0.5-0.2c0.2-0.1,0.3-0.3,0.4-0.5c0,0,0,0,0-0.1c0.5-0.2,1.1-0.3,1.9-0.1
		c0.1,0,0.1,0,0.2,0c-0.3,0.5-0.6,0.9-1,1.3c-0.2,0.2-0.4,0.4-0.6,0.5c-0.3,0.1-0.7,0.1-1-0.1
		C650.912,469.908,650.712,469.608,650.612,469.208z"/>
	<path fill="#108977" d="M651.212,469.108c-0.2,0.1-0.4,0.1-0.5,0.2c0,0.4,0.2,0.6,0.5,0.8c0.3,0.2,0.6,0.3,1,0.1
		c0.2-0.1,0.4-0.3,0.6-0.5c0.4-0.4,0.7-0.8,1-1.3c0,0-0.1,0-0.2,0c-0.7-0.1-1.5-0.1-1.9,0.1v0.1
		C651.512,468.808,651.412,469.008,651.212,469.108z M650.812,470.508c-0.5-0.4-0.6-0.9-0.6-1.4c0-0.6,0.5-0.3,0.7-0.5
		c0.2-0.1,0.3-0.5,0.4-0.6c0.6-0.4,1.6-0.4,2.3-0.2c0.3,0,0.6,0.2,0.6,0.5c0,0.1-0.1,0.3-0.2,0.4c-0.4,0.5-0.6,0.9-1.1,1.4
		c-0.2,0.2-0.5,0.5-0.7,0.6C651.812,471.008,651.212,470.908,650.812,470.508z"/>
	<path fill="#108977" d="M649.612,469.108c0-0.1,0-0.5,0.3-0.6s0.6-0.2,0.6-0.2l0.1-0.1c0.1-0.2,0.2-0.3,0.4-0.4
		c0.8-0.4,1.9-0.4,2.6-0.3l0,0c0.6,0.1,1.1,0.5,1.1,1c0,0.3-0.2,0.6-0.3,0.6c-0.4,0.5-0.7,0.9-1.1,1.4c-0.3,0.3-0.6,0.6-0.9,0.7
		c-0.3,0.1-0.6,0.2-0.8,0.2c-0.5,0-0.9-0.2-1.3-0.5C649.912,470.508,649.612,469.708,649.612,469.108z M650.212,469.108
		c0,0.6,0.2,1.1,0.6,1.4c0.5,0.4,1,0.5,1.5,0.2c0.3-0.1,0.5-0.4,0.7-0.6c0.4-0.5,0.7-0.9,1.1-1.4c0.1-0.1,0.1-0.2,0.2-0.4
		c0-0.3-0.4-0.5-0.6-0.5c-0.7-0.1-1.6-0.1-2.3,0.2c-0.1,0.1-0.3,0.4-0.4,0.6C650.612,468.808,650.212,468.508,650.212,469.108z"/>
	<path fill="#0C9692" d="M680.412,502.608c-1,1-2.2,1.9-3.5,2.8c-0.6,0.4-1.1,0.7-1.6,1c-1.6-0.7-3.5-1.2-5.8-1.4
		c-0.9-0.1-1.9-0.1-3-0.1c-2.2-0.1-4.5-0.2-6.8-0.7c-0.3-0.1-0.5-0.2-0.7-0.2c-1.1-0.4-2.3-0.7-3.6-0.5c-0.7,0.2-1.5,0.5-2.1,0.7
		c-3.3-3.1-5.6-7.7-5.7-12.4c-0.1-2.9,0.4-5.6,1.5-7.9c3,1.2,5.9,1.7,8.6,1.7c2,0,3.8-0.2,5.4-0.6c4.4-0.8,8.8-2.6,14.1-5.7
		c0.6-0.4,1.3-0.7,1.9-1.2c0.1,0.1,0.2,0.2,0.3,0.3c0.4,0.5,0.7,1,1,1.6c0.2,0.4,0.4,0.6,0.6,1c0.3,0.5,0.6,0.9,0.9,1.2
		c-0.4,0.7-0.8,1.6-1.6,2.1c-0.4,0.4-0.7,0.6-1.1,1c-0.8,0.7-1.8,1.5-2.4,2.4c-1.4,2-1.7,5-0.6,7.8c0.9,2.5,2.5,4.6,4.1,6.7
		L680.412,502.608z"/>
	<path fill="#139E86" d="M650.412,454.108c-0.6,0.6-1.5,0.5-1.9,0c-0.3-0.2-0.6-0.7-0.1-1.3c0.2-0.3,0.6-0.4,0.7-0.4
		c0.1,0,0.2,0,0.3,0c0.6,0.1,1,0.6,1.2,0.9c0,0.1,0,0.1,0,0.2C650.612,453.708,650.512,453.908,650.412,454.108z"/>
	<path fill="#108977" d="M648.412,454.108c0.6,0.5,1.4,0.6,1.9,0c0.2-0.2,0.2-0.4,0.2-0.6c0-0.1,0-0.1,0-0.2
		c-0.1-0.5-0.6-0.8-1.2-0.9c-0.1,0-0.2,0-0.3,0c-0.3,0-0.6,0.1-0.7,0.4C647.812,453.408,648.212,453.808,648.412,454.108z
		 M650.812,454.508c-1.4,1.5-4.3-0.4-2.9-2C649.212,450.908,652.212,453.008,650.812,454.508z"/>
	<path fill="#00CEC9" d="M711.212,505.508c-2.9,5.1-5.8,10.4-9.2,15.4c-6.8,10.2-15,19.2-24.6,26.9c-1.5,1.2-3,2.3-4.5,3
		c-1.7,0.7-3.7,1-5.7,1.4c-5.2,0.8-10.6,1.7-15.7,0.8c-4.3-0.6-8.7-2.5-14.2-6c-9.9-6.2-17.7-13.8-23.1-22.4
		c-5.3-8.3-8.2-18-8.2-27.1c0-1.1,0-2.2,0.1-3.2c0.6-6.9,2.6-13.8,4.5-20.6l0.1-0.4c1-3.6,2.1-7.3,3-10.9
		c2.6-11.5,10.1-16.7,21.3-21.4c4.8-2,10-4,15.2-4.2c0.2,0,0.5,0,0.6,0c3.7,0,7.6,0.9,10.8,1.8c4.1,1,8.2,2.3,12.3,3.6
		c2.4,0.8,4.7,1.7,6.5,3.1c1.9,1.4,3.4,3.6,4.9,5.7l0.6,0.7c5.7,7.8,12.2,14.7,19.7,20.7l0.5,0.4c1.4,1.1,2.7,2.1,3.5,3.3
		c0.8,1.3,1.4,2.9,1.9,4.4l2.2,6.9c0.6,1.8,1.2,3.8,1.3,5.7c0.2,4.3-2.2,8.7-4.3,12.2L711.212,505.508z M638.912,471.508
		c0.7,4.9,4.2,9.4,9.1,12c0.1,0,0.1,0,0.2,0.1c-1.2,2.4-1.8,5.3-1.6,8.3c0.3,4.9,2.4,9.6,5.8,12.9c0,0-0.1,0-0.1,0.1
		c-0.8,0.5-1.8,0.9-2.7,1.2c-2,0.6-4.1,1.5-6,2.3c-0.6,0.3-1.3,0.6-1.9,0.8c-0.9,0.4-1.9,0.8-2.4,1.8c-0.3,0.6-0.4,1.2-0.4,1.8v0.4
		c-0.2,1.9-1,3.6-1.9,5.4c-1.1,2.3-2.2,4.7-1.8,7.3c0.2,1.3,0.7,2.5,1.2,3.3c3.1,5.9,8.2,10.4,13.2,14.8c0.9,0.7,1.9,1.6,3,2
		c1.4,0.6,3,0.6,4.4,0.6c0.2,0,0.4,0,0.6,0c2.1,0,4.8,0,6.9-1.4c0.7-0.6,1.4-1.2,2-1.9l0.4-0.4c2.8-3,6-5.5,9.6-7.4
		c0.3-0.2,0.6-0.4,0.9-0.5c2.5-1.3,5.1-2.6,6.3-5.2c1.2-2.5,0.6-5.3,0-7.8c-0.7-2.9-1.8-5.7-2.7-8.2c-0.6-1.6-1.2-3.4-2.3-4.8
		c-0.6-0.7-1.4-1.4-2.3-1.9c0.4-0.3,0.7-0.5,1.1-0.7c1.3-0.8,2.5-1.8,3.6-2.8c2.4,3.1,5,6,8.4,7.8c2.1,1,4.4,1.6,6.9,1.6
		s5-0.6,7.3-1.7c4.3-2.1,7.6-6,9.3-10.8c2.1-6.4,0.8-13.9-3.3-19.1c-0.9-1.2-1.9-2.1-3-2.8c-3.2-2.2-7.2-2.5-11.7-2.6h-0.5
		c-3-0.1-6.9-0.2-9.4,1.7c-1.2,0.9-1.9,2.2-2.5,3.6c0,0,0,0.1-0.1,0.1c-0.2-0.3-0.4-0.6-0.6-0.7c-0.2-0.3-0.4-0.6-0.6-0.9
		c-0.4-0.6-0.6-1.2-1.1-1.8c-0.1-0.1-0.1-0.1-0.2-0.2c1.8-1.4,2.9-2.8,3.4-4.4c0.5-1.5,0.5-3,0.5-4.4c0-2.8,0-5.8-0.6-8.8
		c-0.6-2.3-1.8-5.5-4.4-7.7c-1.6-1.3-3.5-2-5.2-2.7l-2.4-0.9c-0.8-0.4-1.6-0.6-2.4-1c-2.9-1.2-5.8-2.3-9-2.9
		c-2.5-0.5-6.1-0.6-9.4,1.1c-2.3,1.2-4.1,3.1-5.8,5.1c-1.5,1.6-3,3.2-4.7,4.4l-0.6,0.4c-1.9,1.1-3.9,2.4-3.7,5.1
		c0.2,1.5,0.8,3,1.6,4.4c0.6,1,1,2,1.3,3.1c0.2,0.6,0.2,1.4,0.3,2.1C638.812,470.708,638.812,471.108,638.912,471.508z"/>
	<path fill="#139E86" d="M648.912,478.708c-0.7,0.5-1.4,0.5-1.8,0.2c-0.3-0.3-0.4-0.9-0.2-1.4c0.1-0.2,0.3-0.5,0.6-0.5l0,0
		c0.1,0,0.1,0,0.2,0c0.3,0,0.7,0.1,1.1-0.2l0.1-0.1c0.1,0.1,0.1,0.3,0.1,0.4c0,0.2,0.1,0.4,0.1,0.5c0,0.3,0,0.6,0,0.8
		c0,0.1,0,0.1,0,0.1C649.012,478.608,649.012,478.608,648.912,478.708z"/>
	<path fill="#108977" d="M647.912,452.408c-1.5,1.7,1.5,3.5,2.9,2S649.212,450.908,647.912,452.408z M647.612,452.108
		c0.5-0.6,1.3-0.8,2-0.6c0.9,0.2,1.8,0.8,1.9,1.7c0.2,0.6,0,1.2-0.5,1.8c-0.5,0.5-1,0.7-1.7,0.7s-1.3-0.3-1.8-0.6
		C646.912,454.108,646.812,453.008,647.612,452.108z"/>
	<path fill="#108977" d="M647.112,478.908c0.4,0.3,1,0.3,1.8-0.2c0.1-0.1,0.2-0.1,0.2-0.1v-0.1c0-0.3,0-0.6,0-0.8
		c0-0.2,0-0.4-0.1-0.5c0-0.1-0.1-0.3-0.1-0.4l-0.1,0.1c-0.4,0.3-0.7,0.2-1.1,0.2c-0.1,0-0.1,0-0.2,0l0,0c-0.3,0-0.5,0.3-0.6,0.5
		C646.612,478.008,646.712,478.608,647.112,478.908z M649.212,476.408c0.2,0.2,0.2,0.4,0.3,0.6c0,0.2,0.1,0.4,0.1,0.6
		c0,0.4,0,0.6,0,0.9c0,0.1,0,0.3-0.1,0.4s-0.2,0.2-0.4,0.3c-3.4,1.9-3.5-2.7-1.7-2.6c0.4,0,0.6,0.1,0.9-0.1c0.1-0.1,0.1-0.1,0.2-0.2
		C648.812,476.208,649.012,476.308,649.212,476.408z"/>
	<path fill="#108977" d="M649.912,479.208c-0.1,0.2-0.3,0.4-0.6,0.5c-0.6,0.4-1.2,0.5-1.7,0.5c-0.6,0-1-0.3-1.3-0.5
		c-0.7-0.6-0.8-1.8-0.5-2.6c0.3-0.7,0.9-1.1,1.6-1.1c0.1,0,0.2,0,0.3,0s0.3,0,0.4,0c0.1-0.1,0.1-0.1,0.3-0.2
		c0.4-0.2,0.9-0.1,1.2,0.2c0.3,0.3,0.4,0.6,0.4,0.8c0,0.2,0.1,0.4,0.1,0.6c0,0.4,0,0.6,0,1
		C650.112,478.708,650.112,478.908,649.912,479.208z M649.412,477.108c0-0.2-0.1-0.5-0.3-0.6s-0.4-0.2-0.6-0.1
		c-0.1,0-0.1,0.1-0.2,0.2c-0.3,0.2-0.6,0.1-0.9,0.1c-1.9-0.1-1.8,4.4,1.7,2.6c0.1-0.1,0.3-0.2,0.4-0.3s0.1-0.3,0.1-0.4
		c0-0.4,0-0.6,0-0.9C649.512,477.308,649.512,477.308,649.412,477.108z"/>
	<path fill="#139E86" d="M646.512,462.008c-0.6-0.6-1.9-1.7-1.9-2.4c0-0.1,0-0.3,0.4-0.6c0.2-0.1,0.3-0.1,0.5-0.1s0.5,0.1,0.7,0.3
		c0.6,0.5,1.1,1.5,1,2.1c0,0.2-0.1,0.4-0.2,0.5l-0.2,0.3c0,0,0,0.1-0.1,0.1C646.612,462.108,646.512,462.108,646.512,462.008z"/>
	<path fill="#108977" d="M644.612,459.608c-0.1,0.7,1.2,1.9,1.9,2.4c0.1,0.1,0.2,0.2,0.3,0.2c0,0,0-0.1,0.1-0.1l0.2-0.3
		c0.1-0.2,0.2-0.4,0.2-0.5c0.2-0.6-0.3-1.6-1-2.1c-0.3-0.2-0.5-0.3-0.7-0.3s-0.3,0-0.5,0.1
		C644.612,459.308,644.612,459.508,644.612,459.608z M646.512,462.808c-0.8-0.8-3.8-3-1.9-4.3c1.5-0.9,3.3,1.4,3,2.8
		c-0.1,0.3-0.2,0.5-0.4,0.7c-0.1,0.2-0.2,0.4-0.4,0.6C646.712,462.708,646.612,462.908,646.512,462.808
		C646.612,462.908,646.612,462.808,646.512,462.808z"/>
	<path fill="#108977" d="M643.512,459.508c0-0.4,0.2-0.9,0.9-1.4s1.6-0.4,2.4,0.2c0.9,0.6,1.7,2,1.4,3.2c-0.1,0.3-0.2,0.6-0.3,0.7
		l-0.2,0.4c-0.1,0.1-0.1,0.2-0.2,0.4c-0.3,0.4-0.6,0.5-0.7,0.5c-0.1,0-0.1,0-0.2,0c-0.2,0-0.3-0.2-0.4-0.2c-0.1-0.1-0.3-0.3-0.5-0.5
		C644.812,461.908,643.412,460.708,643.512,459.508z M644.712,458.508c-1.9,1.3,1,3.3,1.9,4.3l0.1,0.1c0.1,0,0.2-0.1,0.3-0.2
		c0.1-0.2,0.2-0.4,0.4-0.6c0.1-0.3,0.3-0.5,0.4-0.7C648.012,460.008,646.212,457.608,644.712,458.508z"/>
	<path fill="#139E86" d="M642.512,516.908c-0.2,0-0.4-0.1-0.7-0.3c-0.4-0.2-0.6-0.5-0.6-0.6l0,0c-0.3-0.7,0.1-1.3,0.6-1.5
		c0.2-0.1,0.4-0.1,0.5-0.1c0.5,0,0.8,0.2,1.1,0.7c0.2,0.6,0,1.2-0.5,1.6C642.712,516.808,642.612,516.908,642.512,516.908z"/>
	<path fill="#139E86" d="M641.512,464.708c0.1-0.2,0.2-0.3,0.3-0.4c0.2-0.1,0.5,0.1,0.6,0.2c0.5,0.2,0.8,0.4,0.9,0.6
		c0,0.1,0,0.3,0,0.4c-0.2,0.9-0.8,1.8-1.4,2.5c0,0.1-0.1,0.1-0.1,0.2c0,0-0.1,0-0.2-0.1c-0.1-0.1-0.2-0.4-0.3-0.6l0,0
		c-0.3-0.6-0.6-1.2-0.9-1.8c-0.1-0.1-0.1-0.2-0.2-0.4c0.2,0,0.4,0,0.6-0.1C641.212,465.308,641.412,464.908,641.512,464.708z"/>
	<path fill="#108977" d="M642.612,517.508c-0.4,0-0.7-0.1-1-0.3c-0.4-0.2-0.7-0.6-0.9-0.9c-0.8-2,2.2-3.2,3.1-1.2
		c0.4,0.7,0.1,1.8-0.6,2.2C643.012,517.308,642.712,517.508,642.612,517.508z M643.312,515.108c-0.3-0.6-0.6-0.7-1.1-0.7
		c-0.2,0-0.4,0-0.5,0.1c-0.5,0.2-0.9,0.6-0.6,1.5l0,0c0.1,0.2,0.3,0.5,0.6,0.6c0.3,0.2,0.6,0.3,0.7,0.3c0.1,0,0.2-0.1,0.4-0.2
		C643.312,516.408,643.512,515.708,643.312,515.108z"/>
	<path fill="#108977" d="M641.312,513.608c1-0.5,2.3-0.2,3,1.2c0.5,1,0.1,2.2-0.7,2.9c-0.2,0.2-0.5,0.4-0.9,0.4c-0.1,0-0.1,0-0.2,0
		c-0.5,0-0.9-0.2-1.2-0.4c-0.6-0.4-0.9-0.7-1.1-1.2C639.612,515.108,640.312,513.908,641.312,513.608z M641.512,517.108
		c0.3,0.2,0.6,0.4,1,0.3c0.2,0,0.5-0.1,0.6-0.3c0.6-0.5,0.9-1.5,0.6-2.2c-0.9-2-4-0.8-3.1,1.2
		C640.812,516.608,641.212,516.908,641.512,517.108z"/>
	<path fill="#108977" d="M642.112,468.808c-0.3,0.1-0.6,0-0.7-0.2s-0.3-0.5-0.5-0.7c-0.5-1-1-1.9-1.5-2.9c0.4-0.1,0.8,0.1,1.2-0.1
		c0.5-0.2,0.6-0.9,1.1-1.1c0.4-0.1,0.6,0,1,0.2c0.5,0.2,1,0.5,1.2,1c0.1,0.2,0,0.5,0,0.6c-0.2,1-0.8,1.9-1.5,2.7
		C642.412,468.508,642.312,468.708,642.112,468.808z M641.912,464.408c-0.1,0-0.2,0.2-0.3,0.4c-0.2,0.3-0.4,0.6-0.7,0.7
		c-0.2,0.1-0.4,0.1-0.6,0.1c0.1,0.1,0.1,0.2,0.2,0.4c0.3,0.6,0.6,1.1,0.9,1.8l0,0c0.1,0.2,0.2,0.4,0.3,0.6c0.1,0.1,0.2,0.1,0.2,0.1
		s0.1-0.1,0.1-0.2c0.6-0.7,1.2-1.6,1.4-2.5c0-0.2,0-0.3,0-0.4c-0.1-0.3-0.5-0.5-0.9-0.6
		C642.312,464.508,642.012,464.308,641.912,464.408z"/>
	<path fill="#0C9692" d="M655.812,522.508c0.2,0.1,0.4,0.2,0.6,0.2h0.1c0.7,0,1.1-0.7,1.2-0.9c0.6-0.9,0.4-2.1-0.3-2.9
		c-0.6-0.6-1.5-0.8-2.4-0.4c-0.6,0.3-1,0.8-1,1.5C654.012,520.908,654.912,522.108,655.812,522.508L655.812,522.508z
		 M664.912,520.908c-0.1,1.2,1.6,3.1,3,3.2c0.1,0,0.1,0,0.2,0c0.6,0,1.1-0.3,1.6-0.7s0.7-1,0.9-1.5c0.1-0.2,0.2-0.5,0.1-0.7
		c-0.1-0.4-0.4-0.5-0.6-0.6c-1-0.6-2.2-0.8-3.3-0.9C665.212,519.608,664.912,520.608,664.912,520.908z M682.612,522.408
		c0.6,2.3,1,4.9,0,7c-1.1,2.2-3.5,3.5-5.8,4.7c-0.4,0.2-0.6,0.4-1,0.5c-3.7,1.9-7,4.5-9.9,7.6l-0.4,0.4c-0.6,0.6-1.2,1.2-1.9,1.7
		c-1.8,1.2-4.2,1.2-6.2,1.2c-1.8,0-3.1,0-4.4-0.6c-1-0.5-1.9-1.2-2.8-1.9c-4.8-4.3-9.9-8.6-13-14.5c-0.5-0.8-0.9-1.9-1.1-3.1
		c-0.4-2.2,0.6-4.4,1.8-6.7c0.8-1.9,1.8-3.7,1.9-5.7v-0.4c0-0.5,0.1-1,0.3-1.4c0.4-0.6,1-0.9,1.9-1.3c0.6-0.3,1.3-0.6,1.9-0.8
		c1.9-0.8,3.9-1.7,5.9-2.3c1-0.3,1.9-0.7,2.9-1.3c0.2-0.1,0.3-0.2,0.5-0.2c1.1,1,2.4,1.8,3.8,2.4c1.8,0.7,3.6,1.2,5.5,1.7
		c1.7,0.4,3.4,0.8,5.2,0.8c0.4,0,0.6,0,1,0c2.6-0.3,4.9-1.5,6.8-2.6c1,0.5,1.9,1.1,2.5,1.9c1.1,1.3,1.7,3.1,2.2,4.5
		C680.812,516.608,681.812,519.508,682.612,522.408z M641.312,517.608c0.3,0.2,0.7,0.4,1.2,0.4c0.1,0,0.1,0,0.2,0
		c0.4,0,0.7-0.2,0.9-0.4c0.8-0.6,1.2-1.9,0.7-2.9c-0.6-1.4-1.9-1.7-3-1.2c-1,0.4-1.7,1.5-1.2,2.8
		C640.312,516.808,640.712,517.208,641.312,517.608z"/>
	<path fill="#108977" d="M641.512,463.408c0.6-0.2,1,0,1.4,0.2c0.5,0.2,1.3,0.6,1.5,1.4c0.1,0.3,0.1,0.6,0,0.8
		c-0.2,1.2-0.9,2.1-1.6,3c-0.2,0.2-0.4,0.4-0.6,0.5c-0.1,0.1-0.3,0.1-0.5,0.1c-0.4,0-0.6-0.2-0.9-0.4c-0.3-0.3-0.4-0.6-0.6-0.8l0,0
		c-0.3-0.6-0.6-1.1-0.8-1.7c-0.2-0.4-0.4-0.7-0.6-1.1l-0.3-0.6l0.6-0.2c0.3-0.1,0.5,0,0.6,0s0.4,0,0.4,0c0.1-0.1,0.2-0.2,0.3-0.4
		C640.912,463.908,641.112,463.508,641.512,463.408z M641.412,468.608c0.2,0.2,0.6,0.3,0.7,0.2c0.2-0.1,0.3-0.2,0.4-0.4
		c0.6-0.8,1.3-1.7,1.5-2.7c0-0.2,0.1-0.5,0-0.6c-0.2-0.6-0.7-0.8-1.2-1c-0.3-0.1-0.6-0.3-1-0.2c-0.6,0.2-0.6,0.8-1.1,1.1
		c-0.4,0.2-0.7,0-1.2,0.1c0.5,0.9,1,1.9,1.5,2.9C641.112,468.208,641.212,468.408,641.412,468.608z"/>
	<path fill="#0C9692" d="M643.512,459.508c-0.1,1.2,1.2,2.4,2.2,3.2c0.2,0.2,0.4,0.3,0.5,0.5c0.1,0.1,0.2,0.2,0.4,0.2
		c0,0,0.1,0,0.2,0c0.2,0,0.5-0.1,0.7-0.5c0.1-0.1,0.1-0.2,0.2-0.4l0.2-0.4c0.1-0.2,0.3-0.5,0.3-0.7c0.3-1.1-0.5-2.5-1.4-3.2
		c-0.7-0.6-1.7-0.6-2.4-0.2C643.712,458.508,643.512,459.108,643.512,459.508z M657.112,459.108c0.5-0.1,0.6-0.5,0.6-0.6l0.1-0.1
		c0.4-0.6,0.7-1.4,1.1-2.1c0.2-0.3,0.4-0.6,0.4-1.1c0-0.8-0.4-1.5-1.1-1.8c-1.2-0.5-3,0.3-3.6,1.1c-0.6,0.9-0.6,1.8-0.5,2.3
		c0.3,0.9,1.2,1.8,2.4,2.2c0.1,0,0.2,0.1,0.4,0.1C657.012,459.108,657.112,459.108,657.112,459.108z M661.712,463.408
		c0.9,0.6,1.9,1.1,3.1,1.3c0.1,0,0.3,0,0.5,0c0.4,0,0.7-0.1,1-0.5c0.2-0.2,0.3-0.5,0.3-0.8c0.2-1.5-1-2.9-2.5-3.1
		c-0.6-0.1-1.1,0.1-1.5,0.4c-0.2,0.2-0.4,0.4-0.5,0.6c0,0-0.1,0.1-0.2,0.1s-0.2,0.1-0.2,0.1c-0.5,0.3-0.6,0.8-0.5,1.3
		C661.512,463.208,661.612,463.308,661.712,463.408z M650.612,468.108L650.612,468.108c-0.3,0.1-0.6,0.1-0.7,0.3
		c-0.3,0.2-0.3,0.6-0.3,0.6c0,0.7,0.3,1.4,0.8,1.9c0.4,0.3,0.8,0.5,1.3,0.5c0.3,0,0.6-0.1,0.8-0.2c0.4-0.2,0.6-0.5,0.9-0.7
		c0.4-0.5,0.7-0.9,1.1-1.4c0.1-0.1,0.2-0.4,0.3-0.6c0-0.6-0.5-0.9-1.1-1l0,0c-0.7-0.1-1.8-0.1-2.6,0.3
		C650.912,467.808,650.812,467.908,650.612,468.108z M647.712,454.808c0.5,0.5,1.1,0.6,1.8,0.6c0.6,0,1.2-0.2,1.7-0.7
		s0.6-1.1,0.5-1.8c-0.3-0.7-1-1.5-1.9-1.7c-0.8-0.2-1.6,0.1-2,0.6C646.812,453.008,646.912,454.108,647.712,454.808z
		 M649.312,479.708c0.3-0.1,0.5-0.3,0.6-0.5s0.1-0.5,0.2-0.6c0-0.4,0-0.7,0-1c0-0.2-0.1-0.4-0.1-0.6c-0.1-0.3-0.1-0.6-0.4-0.8
		c-0.4-0.4-0.9-0.5-1.2-0.2c-0.1,0.1-0.2,0.1-0.3,0.2c0,0-0.2,0-0.4,0c-0.1,0-0.2,0-0.3,0c-0.7,0-1.3,0.4-1.6,1.1s-0.3,1.9,0.5,2.6
		c0.2,0.2,0.6,0.5,1.3,0.5C648.112,480.108,648.712,480.008,649.312,479.708z M668.012,470.808c0.2,0,0.4,0.1,0.6,0.1
		c1.4,0,2.6-0.8,3.7-1.6c0.1-0.1,0.5-0.4,0.5-0.7c0-0.2-0.1-0.5-0.3-0.6s-0.4-0.2-0.5-0.2l-1.1-0.1c-0.1-0.3-0.2-0.5-0.5-0.6
		c-0.6-0.4-1.2-0.2-1.7,0.1c-1.1,0.6-1.7,2.1-1.2,3.3l0.1,0.3L668.012,470.808z M675.312,456.708c-0.4-0.1-0.8-0.1-1.3-0.1
		c-0.6,0.1-1.2,0.6-1.4,1.2s0.1,1.4,0.6,1.8s1,0.6,1.5,0.6l2.2,0.6l-0.2-0.8c-0.1-0.3,0-0.6,0-0.8c0-0.3,0.1-0.6,0.1-0.8
		c0-0.6-0.3-1.1-0.7-1.4C675.912,456.708,675.512,456.608,675.312,456.708z M648.412,482.508c-4.6-2.3-7.9-6.6-8.5-11.1
		c-0.1-0.4-0.1-0.8-0.1-1.2c-0.1-0.7-0.1-1.5-0.4-2.2c-0.3-1.1-0.8-2.2-1.4-3.2c-0.6-1.4-1.4-2.6-1.5-4c-0.2-2,1.5-3.1,3.1-4.1
		l0.6-0.4c1.9-1.2,3.5-3,5-4.6c1.8-1.9,3.3-3.7,5.6-4.8c1.9-1,4-1.3,5.8-1.3c1.1,0,2.1,0.1,3,0.3c3,0.6,5.9,1.7,8.7,2.9
		c0.8,0.4,1.6,0.6,2.4,1l2.4,0.9c1.6,0.6,3.4,1.4,4.9,2.6c2.5,2,3.6,5,4.1,7.1c0.6,2.8,0.6,5.7,0.6,8.5c0,1.4,0,2.9-0.5,4.2
		c-0.6,1.5-1.6,2.8-3.2,4.1c-2-1.5-4.8-1.6-7.2-1.7l-7.2-0.1c-5.3-0.1-12.3,1.2-16,7.5
		C648.512,482.508,648.412,482.508,648.412,482.508z M641.012,469.008c0.2,0.2,0.6,0.4,0.9,0.4c0.2,0,0.3,0,0.5-0.1
		c0.3-0.1,0.4-0.3,0.6-0.5c0.6-0.8,1.4-1.8,1.6-3c0-0.3,0.1-0.6,0-0.8c-0.2-0.8-1-1.2-1.5-1.4c-0.4-0.2-0.8-0.4-1.4-0.2
		c-0.5,0.2-0.6,0.5-0.8,0.7c-0.1,0.2-0.2,0.3-0.3,0.4c-0.1,0-0.3,0-0.4,0c-0.2,0-0.5,0-0.6,0l-0.6,0.2l0.3,0.6
		c0.2,0.4,0.4,0.7,0.6,1.1c0.3,0.6,0.6,1.1,0.8,1.7l0,0C640.612,468.408,640.712,468.708,641.012,469.008z"/>
	<path fill="#077777" d="M709.412,481.208c-0.9-1.2-1.9-2.1-3-2.8c-3.2-2.2-7.2-2.5-11.7-2.6h-0.4c-3-0.1-6.9-0.2-9.4,1.7
		c-1.2,0.9-1.9,2.2-2.5,3.6c0,0,0,0.1-0.1,0.1c-0.2-0.3-0.4-0.6-0.6-0.7c-0.2-0.3-0.4-0.6-0.6-0.9c-0.4-0.6-0.6-1.2-1.1-1.8
		c-0.1-0.1-0.1-0.1-0.2-0.2c1.8-1.4,2.9-2.8,3.4-4.4c0.5-1.5,0.5-3,0.5-4.4c0-2.8,0-5.8-0.6-8.8c-0.6-2.3-1.8-5.5-4.4-7.7
		c-1.6-1.3-3.5-2-5.2-2.7l-2.4-0.9c-0.8-0.4-1.6-0.6-2.4-1c-2.9-1.2-5.8-2.3-9-2.9c-2.5-0.5-6.1-0.6-9.4,1.1
		c-2.3,1.2-4.1,3.1-5.8,5.1c-1.5,1.6-3,3.2-4.7,4.4l-0.6,0.4c-1.9,1.1-3.9,2.4-3.7,5.1c0.2,1.5,0.8,3,1.6,4.4c0.6,1,1,2,1.3,3.1
		c0.2,0.6,0.2,1.4,0.3,2.1c0,0.5,0.1,0.8,0.1,1.3c0.7,4.9,4.2,9.4,9.1,12c0.1,0,0.1,0,0.2,0.1c-1.2,2.4-1.8,5.3-1.6,8.3
		c0.3,4.9,2.4,9.6,5.8,12.9l0,0c0,0-0.1,0-0.1,0.1c-0.8,0.5-1.8,0.9-2.7,1.2c-2,0.6-4.1,1.5-6,2.3c-0.6,0.3-1.3,0.6-1.9,0.8
		c-0.9,0.4-1.9,0.8-2.4,1.8c-0.3,0.6-0.4,1.2-0.4,1.8v0.4c-0.2,1.9-1,3.6-1.9,5.4c-1.1,2.3-2.2,4.7-1.8,7.3c0.2,1.3,0.7,2.5,1.2,3.3
		c3.1,5.9,8.2,10.4,13.2,14.8c0.9,0.7,1.9,2,3,2.5c1.4,0.6,3,1.1,4.4,1.1c0.2,0,0.4,0,0.6,0c2.1,0,4.8-0.5,6.9-1.9
		c0.7-0.6,1.4-1.5,2-2.1l0.4-0.5c2.8-3,6-5.5,9.6-7.4c0.3-0.2,0.6-0.4,0.9-0.6c2.5-1.3,5.1-2.6,6.3-5.2c1.2-2.5,0.6-5.3,0-7.8
		c-0.7-2.9-1.8-5.7-2.7-8.2c-0.6-1.6-1.2-3.4-2.3-4.8c-0.6-0.7-1.4-1.4-2.3-1.9c0.4-0.3,0.7-0.5,1.1-0.7c1.3-0.8,2.5-1.8,3.6-2.8
		c2.4,3.1,5,6,8.4,7.8c2.1,1,4.4,1.6,6.9,1.6s5-0.6,7.3-1.7c4.3-2.1,7.6-6,9.3-10.8
		C714.912,494.008,713.612,486.508,709.412,481.208z M639.912,471.408c-0.1-0.4-0.1-0.8-0.1-1.2c-0.1-0.7-0.1-1.5-0.4-2.2
		c-0.3-1.1-0.8-2.2-1.4-3.2c-0.6-1.4-1.4-2.6-1.5-4c-0.2-2,1.5-3.1,3.1-4.1l0.6-0.4c1.9-1.2,3.5-3,5-4.6c1.8-1.9,3.3-3.7,5.6-4.8
		c1.9-1,4-1.3,5.8-1.3c1.1,0,2.1,0.1,3,0.3c3,0.6,5.9,1.7,8.7,2.9c0.8,0.4,1.6,0.6,2.4,1l2.4,0.9c1.6,0.6,3.4,1.4,4.9,2.6
		c2.5,2,3.6,5,4.1,7.1c0.6,2.8,0.6,5.7,0.6,8.5c0,1.4,0,2.9-0.5,4.2c-0.6,1.5-1.6,2.8-3.2,4.1c-2-1.5-4.8-1.6-7.2-1.7l-7.2-0.1
		c-5.3-0.1-12.3,1.2-16,7.5c-0.1,0-0.1-0.1-0.2-0.1C643.812,480.208,640.512,476.008,639.912,471.408z M678.112,477.508
		c-0.6,0.4-1.1,0.7-1.6,1c-5.2,3-9.5,4.7-13.7,5.6c-3.3,0.6-8.3,1.5-13.2-0.6c3.4-5.7,9.8-6.4,14.7-6.4c0.1,0,0.3,0,0.4,0l7.2-0.4
		C674.012,476.808,676.412,476.408,678.112,477.508z M677.812,509.708c1.1,1.3,1.7,3.1,2.2,4.5c0.8,2.5,1.9,5.4,2.6,8.2
		c0.6,2.3,1,4.9,0,7c-1.1,2.2-3.5,3.5-5.8,4.7c-0.4,0.2-0.6,0.4-1,0.5c-3.7,1.9-7,4.5-9.9,7.6l-0.4,0.4c-0.6,0.6-1.2,1.2-1.9,1.7
		c-1.8,1.2-4.2,1.2-6.2,1.2c-1.8,0-3.1,0-4.4-0.6c-1-0.5-1.9-1.2-2.8-1.9c-4.8-4.3-9.9-8.6-13-14.5c-0.5-0.8-0.9-1.9-1.1-3.1
		c-0.4-2.2,0.6-4.4,1.8-6.7c0.8-1.9,1.8-3.7,1.9-5.7v-0.4c0-0.5,0.1-1,0.3-1.4c0.4-0.6,1-0.9,1.9-1.3c0.6-0.3,1.3-0.6,1.9-0.8
		c1.9-0.8,3.9-1.7,5.9-2.3c1-0.3,1.9-0.7,2.9-1.3c0.2-0.1,0.3-0.2,0.5-0.2c1.1,1,2.4,1.8,3.8,2.4c1.8,0.7,3.6,1.2,5.5,1.7
		c1.7,0.4,3.4,0.8,5.2,0.8c0.4,0,0.6,0,1,0c2.6-0.3,4.9-1.5,6.8-2.6C676.312,508.208,677.112,508.808,677.812,509.708z
		 M652.812,504.508C652.812,504.508,652.912,504.408,652.812,504.508L652.812,504.508l0.2-0.1L652.812,504.508L652.812,504.508
		C652.912,504.408,652.812,504.508,652.812,504.508z M654.112,505.008c0.5-0.2,0.9-0.4,1.5-0.5c1-0.2,2,0.1,3.1,0.5
		c0.3,0.1,0.6,0.2,0.7,0.2c2.3,0.6,4.7,0.7,7,0.8c0.9,0,1.9,0.1,2.9,0.1c1.9,0.2,3.4,0.5,4.8,1c-1.7,1-3.5,1.9-5.7,2.1
		c-1.9,0.2-3.9-0.3-5.8-0.7c-1.8-0.5-3.6-0.8-5.3-1.6C656.212,506.408,655.212,505.808,654.112,505.008z M676.812,505.408
		c-0.6,0.4-1.1,0.7-1.6,1c-1.6-0.7-3.5-1.2-5.8-1.4c-0.9-0.1-1.9-0.1-3-0.1c-2.2-0.1-4.5-0.2-6.8-0.7c-0.3-0.1-0.5-0.2-0.7-0.2
		c-1.1-0.4-2.3-0.7-3.6-0.5c-0.7,0.2-1.5,0.5-2.1,0.7c-3.3-3.1-5.6-7.7-5.7-12.4c-0.1-2.9,0.4-5.6,1.5-7.9c3,1.2,5.9,1.7,8.6,1.7
		c2,0,3.8-0.2,5.4-0.6c4.4-0.8,8.8-2.6,14.1-5.7c0.6-0.4,1.3-0.7,1.9-1.2c0.1,0.1,0.2,0.2,0.3,0.3c0.4,0.5,0.7,1,1,1.6
		c0.2,0.4,0.4,0.6,0.6,1c0.3,0.5,0.6,0.9,0.9,1.2c-0.4,0.7-0.8,1.6-1.6,2.1c-0.4,0.4-0.7,0.6-1.1,1c-0.8,0.7-1.8,1.5-2.4,2.4
		c-1.4,2-1.7,5-0.6,7.8c0.9,2.5,2.5,4.6,4.1,6.7l0.3,0.4C679.312,503.708,678.112,504.608,676.812,505.408z M680.912,501.608
		c-1.5-1.9-3.1-4-3.9-6.4c-0.9-2.5-0.6-5.1,0.6-6.9c0.6-0.8,1.4-1.5,2.2-2.2c0.4-0.4,0.8-0.6,1.2-1c0.6-0.6,1.1-1.3,1.6-2l0,0
		c0.1-0.2,0.2-0.4,0.3-0.5c-0.1,0.2-0.2,0.4-0.3,0.5c0.2,0.2,0.3,0.5,0.4,0.6c1.3,2.2,1.3,4.9,1.1,7.5c-0.2,3.6-0.6,7.6-3,10.6
		L680.912,501.608z M711.912,500.008c-1.5,4.5-4.7,8.2-8.7,10.2c-4.2,2-9.3,2.1-13.2,0.1c-3.2-1.7-5.7-4.5-8.2-7.6l0.1-0.1
		c2.5-3.1,3.1-7.2,3.2-11.2c0.1-2.8,0.2-5.7-1.3-8.2c-0.2-0.4-0.5-0.7-0.7-1.1c0.1-0.2,0.2-0.4,0.3-0.6c0.6-1.3,1.2-2.5,2.1-3.2
		c2.2-1.7,6-1.6,8.8-1.5h0.5c4.3,0.1,8.2,0.4,11.1,2.4c0.9,0.6,1.9,1.5,2.7,2.6C712.612,486.908,713.812,494.008,711.912,500.008z"
		/>
	<path fill="#00CEC9" d="M650.512,436.808c-5.2,0.2-10.4,2.1-15.2,4.2c-11.2,4.6-18.7,9.9-21.3,21.4c-0.8,3.7-1.9,7.4-3,10.9
		l-0.1,0.4c-1.9,6.8-4,13.7-4.5,20.6c-0.1,1.1-0.1,2.1-0.1,3.2c0,9.1,2.9,18.7,8.2,27.1c5.4,8.6,13.2,16.1,23.1,22.4
		c5.5,3.5,9.9,5.4,14.2,6c5.1,0.8,10.6,0,15.7-0.8c1.9-0.3,3.9-0.6,5.7-1.4c1.6-0.6,3.1-1.8,4.5-3c9.5-7.6,17.9-16.7,24.6-26.9
		c3.3-5,6.3-10.3,9.2-15.4l0.1-0.2c2-3.5,4.4-8,4.3-12.2c-0.1-1.9-0.7-3.9-1.3-5.7l-2.2-6.9c-0.5-1.6-1-3.2-1.9-4.4
		s-2.1-2.3-3.5-3.3l-0.5-0.4c-7.4-5.9-14.1-12.9-19.7-20.7l-0.6-0.7c-1.5-2-3.1-4.3-4.9-5.7c-1.9-1.4-4.2-2.2-6.5-3.1
		c-4.1-1.4-8.2-2.6-12.3-3.6c-3.2-0.8-7.1-1.8-10.8-1.8C651.012,436.808,650.712,436.808,650.512,436.808z M612.612,525.708
		c-5.5-8.8-8.4-18.6-8.4-28.2c0-1.1,0-2.3,0.1-3.4c0.6-7,2.6-14.2,4.6-21c1.1-3.7,2.2-7.5,3.1-11.2c2.8-12.3,11-18.1,22.6-22.9
		c5-2.1,10.4-4.2,15.9-4.4c0.3,0,0.6,0,0.8,0c4,0,7.9,0.9,11.3,1.8c4.2,1.1,8.3,2.3,12.4,3.7c2.6,0.8,5.1,1.8,7.1,3.3
		c2.1,1.6,3.8,3.9,5.4,6.1l0.6,0.8c5.5,7.6,12,14.4,19.3,20.2l0.4,0.3c1.5,1.2,3.1,2.4,4.1,4c1,1.5,1.6,3.3,2.1,5l0.4,1.2
		c0.6,1.9,1.2,3.8,1.9,5.7c0.6,1.9,1.3,4.2,1.5,6.3c0.3,4.8-2.4,9.5-4.5,13.3c-2.9,5.2-5.9,10.6-9.3,15.7
		c-6.9,10.4-15.3,19.5-25,27.3c-1.5,1.2-3.1,2.4-5,3.2s-4.1,1.2-6.1,1.5c-5.4,0.8-10.9,1.8-16.4,0.9c-4.6-0.7-9.2-2.7-15-6.3
		C626.112,542.308,618.112,534.608,612.612,525.708z"/>
	<path fill="#077777" d="M650.412,434.708c-5.6,0.2-10.9,2.2-15.9,4.4c-11.6,4.8-19.8,10.6-22.6,22.9c-0.8,3.7-1.9,7.5-3.1,11.2
		c-2,6.9-4.1,14-4.6,21c-0.1,1.1-0.1,2.3-0.1,3.4c0,9.5,3,19.4,8.4,28.2c5.6,8.9,13.5,16.7,23.7,23.1c5.7,3.6,10.4,5.6,15,6.3
		c5.5,0.8,11,0,16.4-0.9c2-0.4,4.2-0.6,6.1-1.5c1.9-0.8,3.5-2,5-3.2c9.7-7.8,18.2-17,25-27.3c3.4-5.1,6.4-10.5,9.3-15.7
		c2.1-3.8,4.8-8.5,4.5-13.3c-0.1-2.2-0.8-4.4-1.5-6.3c-0.6-1.9-1.2-3.8-1.9-5.7l-0.4-1.2c-0.6-1.8-1.1-3.5-2.1-5
		c-1.1-1.6-2.6-2.8-4.1-4l-0.4-0.3c-7.3-5.8-13.8-12.7-19.3-20.2l-0.6-0.8c-1.6-2.2-3.2-4.4-5.4-6.1c-2.1-1.6-4.5-2.5-7.1-3.3
		c-4.1-1.4-8.3-2.6-12.4-3.7c-3.4-0.8-7.3-1.8-11.3-1.8C651.012,434.608,650.712,434.608,650.412,434.708z M609.912,527.408
		c-6.5-10.5-9.6-22.3-8.8-33.5c0.6-7.3,2.7-14.5,4.7-21.6c1-3.5,2.1-7.4,3-11.1c3.3-14.5,13.7-20.6,24.5-25c5.3-2.2,10.9-4.4,17-4.5
		c4.6-0.2,9.2,0.9,13,1.9c4.2,1,8.4,2.3,12.7,3.7c2.6,0.8,5.5,1.9,8.1,3.8c2.5,1.9,4.3,4.4,5.9,6.7l0.6,0.8
		c5.4,7.3,11.6,14,18.7,19.6l0.4,0.3c1.7,1.3,3.4,2.7,4.7,4.6s1.9,3.9,2.5,5.7l0.5,1.3c0.6,1.9,1.3,3.8,1.9,5.7l0.1,0.1
		c0.6,2,1.7,4.4,1.7,6.9l0,0c0,5.8-2.9,11.2-5.1,15.1c-3,5.2-6.1,10.7-9.5,15.8c-7,10.7-15.7,20.1-25.7,28c-1.6,1.3-3.4,2.7-5.7,3.7
		s-4.7,1.4-6.9,1.8h-0.1c-3.9,0.6-7.9,1.3-12,1.3c-1.9,0-3.6-0.1-5.3-0.4c-5-0.8-10-2.9-16.1-6.8
		C624.012,544.708,615.812,536.608,609.912,527.408z"/>
</g>
<g id="Layer_1_1_" display="none">
	<g display="inline">
		<g>
			<g>
				<path fill="#0B7771" d="M349.4,316.1c0.6-0.6,1.3-0.8,2.3-0.9s3.5-0.1,7.4-0.1c4.1,0.1,6.8,0.3,8,0.5s2.7,0.7,4.4,1.7
					c1.6,0.7,2.7,1.5,3.3,2.2c0.6,0.7,1.4,1.8,2.1,3.1c1.4,2.7,2,5.5,1.7,8.5c-0.3,3.1-1.4,5.8-3.3,8.3c-1.1,1.4-1.7,2.1-1.7,2.4
					s0.9,1.3,2.8,3.1c2.8,3.1,4.2,6.8,4.2,11.1c0,3.1-1.1,6.1-3.2,9.1s-4.6,4.8-7.5,5.7c-1.7,0.6-5.5,0.7-11.4,0.7
					c-5.8,0-9.1-0.3-9.6-0.7c-0.6-0.6-0.7-9.5-0.7-27.1C348.2,326.2,348.6,317,349.4,316.1z M368,324.5c-1-1.1-1.9-1.8-2.5-2
					c-0.6-0.3-1.7-0.4-3.1-0.4c-2,0.1-3.7,0.4-4.8,1c-0.9,0.5-1.5,1-1.6,1.6c-0.2,0.6-0.3,2.5-0.3,5.6c0,3.8,0.4,6.2,1,7.2
					s2.3,1.4,4.8,1.4c1.8-0.1,3.3-0.5,4.6-1.3c1.4-0.7,2.4-1.9,3.1-3.2c0.7-1.4,1.1-3,1.1-4.6c0-1.2-0.2-2-0.5-2.7
					C369.7,326.4,369,325.5,368,324.5z M367.3,347.5c-1.6-0.8-3.6-1.3-6.2-1.3s-4.2,0.5-4.5,1.3c-0.5,0.9-0.6,3.6-0.6,8.2
					c0,3,0.1,5,0.3,6c0.2,1,0.5,1.9,1,2.5c0.6,0.7,1.1,1.1,1.6,1.2s1.8-0.1,3.7-0.4c2.7-0.5,4.6-1.2,6-2.1c2.6-1.9,3.8-4.5,3.5-8
					C371.7,351.5,370.1,349,367.3,347.5z"/>
				<g>
					<path fill="#0B7771" d="M389.5,320.3c-1,0-1.9,0.4-2.5,1s-1,1.5-1,2.4c0,1,0.4,1.9,1,2.5s1.5,1,2.5,1c0.9,0,1.8-0.4,2.4-0.9
						c0.7-0.6,1.1-1.5,1.1-2.5c0-0.9-0.4-1.8-1-2.4C391.3,320.6,390.4,320.3,389.5,320.3z"/>
					<path fill="#0B7771" d="M387.1,334.3h-2.4c-1,0-1.9,0.6-2.5,1.3c-0.6,0.6-1,1.6-1,2.5c0,1,0.4,1.9,1,2.5s1.5,1,2.5,1
						c0.4,0,0.6,0.2,0.9,0.5v0.1c0.3,0.3,0.3,0.6,0.3,0.9v19.4c0,0.4,0,0.7-0.4,1c-0.3,0.3-0.5,0.4-0.8,0.4c-1,0-1.9,0.4-2.5,1
						s-1,1.5-1,2.4c0,1,0.4,1.7,1,2.3c0.6,0.6,1.5,0.8,2.5,0.8h2.4c1.6,0,3.1-0.5,4.3-1.6s1.9-2.4,1.9-4.1v-24.2
						c0-1.6-0.7-3.2-1.9-4.4C390.3,335.2,388.7,334.3,387.1,334.3z"/>
				</g>
				<path fill="#0B7771" d="M420.1,334.3h-19.4c-1.7,0-3,0.9-4.1,2.1c-1.1,1.1-1.5,2.9-1.5,4.4V365c0,1.7,0.5,2.8,1.6,4
					c1.1,1.1,2.4,1.4,4.1,1.4h19.4c1.6,0,2.9-0.3,4-1.4s1.6-2.3,1.6-4v-24.2c0-1.6-0.5-3.3-1.6-4.5
					C423,335.3,421.7,334.3,420.1,334.3z M419.3,343.3v19.4c0,0.4-0.2,0.6-0.6,0.9c-0.3,0.3-0.6,0.4-1,0.4h-14.5
					c-0.5,0-0.8-0.1-1.1-0.4c-0.3-0.3-0.5-0.6-0.5-0.9v-19.4c0-0.4,0.2-0.7,0.5-1.1c0.3-0.3,0.6-0.6,1-0.6h14.5
					c0.4,0,0.6,0.3,0.9,0.6l0.2,0.1C419.1,342.7,419.3,343,419.3,343.3z"/>
			</g>
			<g>
				<path fill="#0B7771" d="M441.5,316.1c0.6-0.6,1.3-0.8,2.3-0.9s3.5-0.1,7.4-0.1c4.1,0.1,6.8,0.3,8,0.5s2.7,0.7,4.4,1.7
					c1.6,0.7,2.7,1.5,3.3,2.2s1.4,1.8,2.1,3.1c1.4,2.7,2,5.5,1.7,8.5c-0.3,3.1-1.4,5.8-3.3,8.3c-1.1,1.4-1.7,2.1-1.7,2.4
					s0.9,1.3,2.8,3.1c2.8,3.1,4.2,6.8,4.2,11.1c0,3.1-1.1,6.1-3.2,9.1s-4.6,4.8-7.5,5.7c-1.7,0.6-5.5,0.7-11.4,0.7
					c-5.8,0-9.1-0.3-9.6-0.7c-0.6-0.6-0.7-9.5-0.7-27.1C440.3,326.2,440.7,317,441.5,316.1z M460,324.5c-1-1.1-1.9-1.8-2.5-2
					c-0.6-0.3-1.7-0.4-3.1-0.4c-2,0.1-3.7,0.4-4.8,1c-0.9,0.5-1.5,1-1.6,1.6c-0.2,0.6-0.3,2.5-0.3,5.6c0,3.8,0.4,6.2,1,7.2
					s2.3,1.4,4.8,1.4c1.8-0.1,3.3-0.5,4.6-1.3c1.4-0.7,2.4-1.9,3.1-3.2c0.7-1.4,1.1-3,1.1-4.6c0-1.2-0.2-2-0.5-2.7
					C461.8,326.4,461.1,325.5,460,324.5z M459.4,347.5c-1.6-0.8-3.6-1.3-6.2-1.3s-4.2,0.5-4.5,1.3c-0.5,0.9-0.6,3.6-0.6,8.2
					c0,3,0.1,5,0.3,6c0.2,1,0.5,1.9,1,2.5c0.6,0.7,1.1,1.1,1.6,1.2s1.8-0.1,3.7-0.4c2.7-0.5,4.6-1.2,6-2.1c2.6-1.9,3.8-4.5,3.5-8
					C463.8,351.5,462.2,349,459.4,347.5z"/>
				<path fill="#0B7771" d="M501.6,342.1c0.3-0.3,0.3-0.4,0.7-0.4c0.9,0,1.7-0.4,2.2-0.9c0.7-0.6,1-1.5,1-2.5c0-0.9-0.4-1.9-1.1-2.6
					c-0.6-0.7-1.5-1.3-2.4-1.3h-2.4c-1.7,0-3.3,0.8-4.4,1.9s-1.9,2.8-1.9,4.4v21.8c0,0.4,0.1,0.8-0.2,1.1c-0.3,0.3-0.3,0.5-0.6,0.5
					h-9.6c-0.5,0-1.3-0.2-1.5-0.5c-0.3-0.3-0.9-0.6-0.9-1.1v-19.4c0-0.4,0.6-0.6,0.9-0.9s0.8-0.4,1.2-0.4c0.9,0,1.9-0.4,2.5-0.9
					c0.7-0.6,1.2-1.5,1.2-2.5c0-0.9-0.4-1.9-1-2.6s-1.5-1.3-2.4-1.3h-2.5c-1.7,0-2.9,0.8-4.1,1.9c-1.1,1.1-1.5,2.8-1.5,4.4V365
					c0,1.7,0.4,3,1.6,4.1c1.1,1.1,2.4,1.5,4.1,1.5H495c0.9,0,1.8-0.2,2.4-0.8v-0.1c0.6,0.6,1.5,0.9,2.4,0.9h2.4
					c0.9,0,1.8-0.2,2.4-0.8c0.7-0.6,1.1-1.5,1.1-2.4s-0.4-1.8-1-2.4c-0.6-0.7-1.5-1-2.4-1c-0.5,0-0.3-0.1-0.6-0.4s0.1-0.6,0.1-1
					v-19.4C501.7,342.7,501.3,342.4,501.6,342.1z"/>
				<path fill="#0B7771" d="M532.1,335.3h-14.5c-1,0-1.9,0.4-2.4,1c-0.6-0.6-1.5-1-2.4-1h-2.4c-1,0-1.9,0.4-2.5,1s-1,1.5-1,2.4
					c0,1,0.4,1.9,1,2.5s1.5,1,2.5,1c0.4,0,0.6,0.1,0.9,0.4l0.6,0.1c0.3,0.3,0.9,0.6,0.9,0.9V363c0,0.4-0.6,0.7-1,1
					c-0.3,0.3-0.8,0.4-1.2,0.4c-1,0-2,0.4-2.6,1s-1,1.5-1,2.4c0,1,0.3,1.5,0.9,2.1s1.5,0.6,2.4,0.6h2.4c1.6,0,3.2-0.2,4.4-1.3
					c1.1-1.1,2-2.2,2-3.9v-21.8c0-0.4-0.2-0.9,0.1-1.2s0.3-0.6,0.6-0.6h9.6c0.4,0,0.6,0.4,0.9,0.6l0.2,0.2c0.3,0.3,0.6,0.6,0.6,1
					V363c0,0.4-0.3,0.7-0.6,1s-0.6,0.4-1,0.4c-1,0-1.9,0.4-2.5,1s-1,1.5-1,2.4c0,1,0.3,1.5,1,2.1c0.6,0.6,1.5,0.6,2.5,0.6h2.4
					c1.6,0,2.9-0.2,4.1-1.3c1.1-1.1,1.7-2.2,1.7-3.9v-24.2c0-1.6-0.5-3-1.7-4.2C535.1,335.8,533.8,335.3,532.1,335.3z"/>
				<path fill="#0B7771" d="M571.2,340.2v-13.5c0-1.6-1-3.1-2.1-4.3c-1.1-1.1-3-1.9-4.5-1.9h-2.4c-1,0-1.9,0.6-2.5,1.2s-1,1.6-1,2.5
					c0,1,0.4,1.9,1,2.5s1.5,1,2.5,1c0.4,0,0.6,0.1,0.9,0.5l0.3,0.1c0.3,0.3,0.6,0.6,0.6,0.9v9.6c0,0.4-0.3,0.6-0.6,0.9
					s-0.7,0.3-1.1,0.3h-9.6c-0.5,0-0.8,0-1.1-0.3s-0.5-0.5-0.5-0.9v-12c0-1.6-0.5-3.1-1.6-4.3c-1.1-1.1-2.4-1.9-4-1.9h-2.4
					c-1,0-1.9,0.6-2.5,1.2s-1,1.6-1,2.5c0,1,0.4,1.9,1,2.5s1.5,1,2.5,1c0.4,0,0.6,0.1,0.9,0.5l0.2,0.1c0.3,0.3,0.5,0.6,0.5,0.9v12
					c0,1,0.3,1.8,0.9,2.4c-0.6,0.6-0.9,1.5-0.9,2.4v17c0,0.4-0.2,0.7-0.6,1c-0.3,0.3-0.6,0.4-0.9,0.4c-1,0-1.9,0.4-2.5,1
					s-1,1.5-1,2.4c0,1,0.4,1.5,1,2.1s1.5,0.6,2.5,0.6h2.4c1.6,0,2.9-0.2,4-1.3c1.1-1.1,1.6-2.2,1.6-3.9v-17c0-0.4,0.3-0.6,0.6-0.8
					c0.3-0.3,0.6-0.3,1.1-0.3h14.5c0.4,0,0.6,0,0.9,0.3h0.6c0.3,0.3,0.9,0.5,0.9,0.8V363c0,0.4-0.6,0.7-0.9,1
					c-0.3,0.3-0.8,0.4-1.2,0.4c-1,0-2,0.4-2.6,1s-1,1.5-1,2.4c0,1,0.3,1.5,0.9,2.1c0.6,0.6,1.5,0.6,2.4,0.6h2.4
					c1.6,0,3.2-0.2,4.4-1.3c1.1-1.1,2-2.2,2-3.9V346c0-1.6-0.5-3-1.7-4.2C573.3,340.9,572.1,340.4,571.2,340.2z"/>
				<path fill="#0B7771" d="M599.1,334.3h-14.5c-1.7,0-3.1,0.9-4.3,2c-1.1,1.1-1.8,2.9-1.8,4.4v9.6c0,1,0.3,1.8,0.9,2.4
					c-0.6,0.6-0.9,1.5-0.9,2.4v9.6c0,1.7,0.6,2.9,1.8,4.1c1.1,1.1,2.6,1.5,4.3,1.5h14.5c1.6,0,2.8-0.4,3.9-1.5
					c1.1-1.1,1.5-2.4,1.5-4v-2.4c0-0.9-0.1-1.8-0.8-2.4c-0.6-0.7-1.4-1-2.3-1c-1,0-1.9,0.4-2.4,1c-0.6,0.6-0.9,1.5-0.9,2.4
					c0,0.4-0.1,0.7-0.5,1c-0.3,0.3-0.6,0.4-0.9,0.4h-9.6c-0.5,0-1-0.2-1.3-0.4c-0.3-0.3-0.6-0.6-0.6-1v-4.8c0-0.4,0.4-1,0.7-1.3
					s0.8-0.7,1.3-0.7h12c1.6,0,2.8-0.2,3.9-1.3c1.1-1.1,1.5-2.2,1.5-3.9v-9.7c0-1.6-0.4-3.2-1.5-4.4
					C601.8,335.3,600.7,334.3,599.1,334.3z M598.1,343.2v4.8c0,0.4-0.1,0.1-0.5,0.4c-0.3,0.3-0.6-0.3-0.9-0.3H587
					c-0.5,0-1,0.5-1.3,0.3c-0.3-0.3-0.6,0-0.6-0.4v-4.8c0-0.4,0.4-0.7,0.7-1s0.8-0.5,1.3-0.5h9.6c0.4,0,0.6,0.2,0.9,0.5l0.1,0.1
					C598,342.6,598.1,342.9,598.1,343.2z"/>
				<path fill="#0B7771" d="M628.4,336.3c-0.6-0.7-1.2-2-2.1-2l-9.5-0.6c-1,0-1.9,0.6-2.4,1.3c-0.6-0.6-1.5-0.7-2.4-0.7h-2.4
					c-1,0-1.9,0.6-2.5,1.3c-0.6,0.6-1,1.6-1,2.5c0,1,0.4,1.9,1,2.5s1.5,1,2.5,1c0.4,0,0.6,0.2,0.9,0.5l0.2,0.1
					c0.3,0.3,0.5,0.6,0.5,0.9v19.4c0,0.4,0.1,0.6-0.3,0.9c-0.3,0.3,0,0.1-0.3,0.4c-0.6,0.7-0.9,0.4-1.5,1s-1,1.5-1,2.4
					c0,1,0.4,1.7,1,2.3c0.6,0.6,1.5,0.8,2.5,0.8h0.5c1.6,0,3.2-0.5,4.4-1.6c1.1-1.1,2-2.4,2-4.1v-21.8c0-0.4-0.2-0.6,0.1-0.9
					s0.3-0.4,0.6-0.4h6.9c0.9,0,1.8,0.6,2.3,0c0.7-0.6,1.1-0.8,1.1-1.8C629.5,339.1,629.1,336.9,628.4,336.3z"/>
			</g>
		</g>
		<g>
			<g>
				<g>
					
						<rect x="478.385" y="264.612" transform="matrix(0.8643 -0.5029 0.5029 0.8643 -66.5762 285.5241)" fill="#A1E2E0" width="35.099" height="3.1"/>
				</g>
				<g>
					
						<rect x="476.257" y="252.396" transform="matrix(0.8643 -0.5029 0.5029 0.8643 -61.4914 280.442)" fill="#22A6B3" width="25.599" height="3.6"/>
				</g>
				<g>
					
						<rect x="426.708" y="173.211" transform="matrix(0.8643 -0.5029 0.5029 0.8643 -27.3115 248.778)" fill="#6FD1A0" width="41.498" height="3.6"/>
				</g>
				<g>
					
						<rect x="433.553" y="180.803" transform="matrix(0.8643 -0.5029 0.5029 0.8643 -30.3126 252.3363)" fill="#22A6B3" width="37.999" height="3.1"/>
				</g>
				<g>
					
						<rect x="453.259" y="196.828" transform="matrix(0.8643 -0.5029 0.5029 0.8643 -36.9634 260.2308)" fill="#8FD8D5" width="21.199" height="3.6"/>
				</g>
				<g>
					
						<rect x="471.085" y="227.994" transform="matrix(0.8643 -0.5029 0.5029 0.8643 -50.0835 273.9267)" fill="#7ED6DF" width="23.199" height="3.6"/>
				</g>
				<g>
					
						<rect x="454.258" y="207.219" transform="matrix(0.8643 -0.5029 0.5029 0.8643 -41.3583 264.2212)" fill="#6FD1A0" width="29.599" height="3.1"/>
				</g>
				<g>
					
						<rect x="461.638" y="219.68" transform="matrix(0.8643 -0.5029 0.5029 0.8643 -46.5427 269.9247)" fill="#22A6B3" width="30.799" height="3.1"/>
				</g>
				<path fill="#2D98DA" d="M452.5,205.8c1.7-0.5,3.2-0.9,4.9-1.4c-0.3,3.1-0.1,6.4,0.6,9.5c1.8,7.6,6.5,14.5,12.9,18.8
					c4.8,3.2,10.7,5.2,16.4,7.1c8.6,2.9,17.5,5.9,23.4,13.2c3.7,4.6,5.6,8.4,7.1,13.1l-4.7,2.8c-1.4-4.3-3-8.8-6.1-12.8
					c-5-6.3-12.9-8.9-21.2-11.8c-6-2-12.2-4.2-17.6-7.7c-7.5-5-12.9-13-14.9-21.8C452.7,212.1,452.4,209,452.5,205.8z"/>
				<g>
					<path fill="#0F5659" d="M477.3,247.3c1.8-3.2,4.2-6.1,6.4-8.9c3.6-4.3,6.9-8.3,7.6-13.2c0.6-4.5-1-9.6-5.2-15.6
						c-7.5-10.7-17.7-17-27.3-16.9c-2.6,0.1-5.3,0.6-8,1.1c-2.9,0.6-5.8,1.1-8.9,1.2c-6.9,0.1-14.4-10.6-17.1-15.7l4.3-2.2
						c2,3.9,8.7,12.9,13.5,12.8c2.7,0,4.5-0.2,7.4-0.6c2.9-0.6,5.7-1.1,8.8-1.2c11.2-0.2,23,6.9,31.3,18.9c4.8,6.9,6.9,13.2,6,18.9
						c-0.8,6.3-4.8,11-8.7,15.7c-2.2,2.7-4.4,5.3-5.9,8.1c-5.6,10.3-0.3,26.2,9.7,32.4l-4.7,2.7
						C474.6,277.3,470.6,259.6,477.3,247.3z"/>
				</g>
				<path fill="#2D98DA" d="M457.4,189.1c0.9-1.6,1.9-3.1,3-4.5c2.5-3.6,4.8-7,5.2-10.8c0.4-3.5-3.6-11-6.2-15.6l4.2-2.4
					c2.4,4.2,7.3,13.1,6.9,18.3c-0.5,5.1-3.2,9.2-6,13.2c-1,1.5-1.9,2.9-2.8,4.3c-2.3,4-3.7,8.7-4.2,13.2c-1.7,0.5-3.2,0.7-4.9,1.2
					C452.7,200.1,454.4,194.2,457.4,189.1z"/>
			</g>
			<g>
				<path fill="#8FD8D5" d="M491.9,278.9l-24.5-41.6v-28.1h1.9c0.7,0,1.8,1.2,1.8,0.4v-0.5c0-0.7-1-1.8-1.8-1.8H448
					c-0.7,0-0.9,1-0.9,1.8v0.5c0,0.7,0.2-0.4,0.9-0.4h1.9v28.1l-24.5,41.6c-6.7,11.6,1.4,25.8,14.7,25.8h37.1
					C490.6,304.7,498.6,290.5,491.9,278.9z"/>
				<path fill="#D91EF4" d="M476,259.1c-0.3-0.5-0.7-0.7-1.3-0.8c-1.3-0.1-2.7-0.5-4-0.5c-4.4-0.1-3.1,0.9-7.4,0.4
					s-6.9-1.4-12.6-1.2c-2.3,0.1-4.7,0.5-7,0.5c-0.6,0-1.2,0.3-1.5,0.8l-8.4,14.6l-4.1,6.9c-5.5,9.4,1.4,21.1,12.2,21.1h33.9
					c10.8,0,17.6-11.8,12.2-21.1L476,259.1z"/>
				<circle fill="#8FD8D5" cx="451.6" cy="286" r="1.7"/>
				<circle fill="#8FD8D5" cx="463" cy="279" r="0.8"/>
				<circle fill="#8FD8D5" cx="452.9" cy="275.4" r="1.3"/>
				<circle fill="#8FD8D5" cx="468.8" cy="288" r="0.6"/>
			</g>
			<g>
				<g>
					<path fill="#0F5659" d="M476.9,234.4c-1.9,3.6-2.5,7.6-3.2,11.6c-0.6,3.7-1.3,7.5-1.9,11.2c-1.5,8.2-2.9,16.5-1.9,24.7
						c1,7.9,6.8,18.2,12.4,23.7c5.7,5.6,15.5,5.2,23.4,4.6s15-4.6,21.6-9.1c2.9-1.9,6-4.3,6.9-7.6c0.8-3-0.3-6.3,0.6-9.3
						c1.3-5,7.1-7.6,9.3-12.3c2.5-5.7-1.2-12-3.3-17.8c-2.6-6.9-3.1-14.3-4.5-21.5s-4.2-10.1-9.6-14.9c-8.2-7.1-16.1-8.2-23.7-2.8
						C495.1,220.3,481.2,225.8,476.9,234.4z"/>
					<path fill="#6FD1A0" d="M480.5,237.5c-1.6,3.1-2.2,6.8-2.9,10.2c-0.6,3.3-1.2,6.6-1.8,9.9c-1.3,7.2-2.6,14.5-1.7,21.9
						c0.9,6.9,5.9,16,10.9,20.9s13.7,4.6,20.7,4.1c6.9-0.5,13.2-4.1,19.1-8c2.6-1.8,5.3-3.7,6.1-6.8c0.7-2.7-0.2-5.6,0.5-8.2
						c1.2-4.4,6.3-6.7,8.2-10.8c2.2-5-1-10.6-3-15.7c-2.3-6-2.8-12.6-4.1-18.9c-1.3-6.3-3.7-8.4-8.5-12.7c-7.2-6.3-14.2-7.8-20.9-3
						C496.6,225.2,484.3,230,480.5,237.5z"/>
				</g>
				<path fill="#D91EF4" d="M520.3,239.4c-1.1-2.9-3.6-6.9-7.1-6.9c-3,0.1-6,0.2-8.8,1.2s-5.5,3-6.4,5.8c-0.6,1.9-0.5,4-0.2,6
					c0.6,3.6,2,7.3,4.7,9.8c2.7,2.5,6.9,3.7,10.2,2.1c1.9-0.9,3.3-2.6,4.7-4.3c1.9-2.4,3.7-5.1,4-8.1
					C521.6,243.2,521.1,241.2,520.3,239.4z"/>
				<path fill="#A1E2E0" d="M500.5,234.1c-0.6,0.4-1.2,0.7-1.7,1.2c-1.9,1.9-2,5-4,6.8c-0.1,0.1-0.2,0.2-0.4,0.2
					c-0.3,0-0.4-0.5-0.3-0.7c0.4-1.8,0.9-3.4,1.9-5c0.2-0.4,0.4-0.7,0.2-1c-0.2-0.3-0.6-0.4-0.9-0.3s-0.6,0.4-0.7,0.6
					c-1.9,2.5-3.6,5.6-3.3,8.7c0,0.1,0,0.2,0,0.2s-0.1,0-0.1,0.1c-0.6,0.1-1.2-0.4-1.5-0.8c-0.3-0.5-0.3-1.1-0.3-1.8
					c0-0.9,0.1-1.9,0.4-2.7c0.4-1.2,1.2-2.2,1.9-3.2c1-1.4,2-2.7,3.1-4.1c1.1-1.6,2.3-3.1,4-4.1c0.6-0.4,1.4-0.6,1.9,0
					c0.4,0.5,0.2,1.2-0.2,1.7c-0.5,0.8-1.1,1.5-1.9,1.9c-0.5,0.3-1.1,0.6-1.5,1c-0.4,0.5-0.5,1.2,0,1.7c0,0,0.1,0,0.1,0.1
					c0.2,0.1,0.4-0.2,0.5-0.4c0.3-0.6,0.7-0.8,1.3-1.1c0.6-0.3,1.1-0.4,1.7-0.6c0.7-0.4,1.3-0.9,1.9-1.4c1.6-1.2,3.7-1.9,5.6-1.1
					c0.1,0,0.2,0.1,0.2,0.1c0.1,0.1,0.1,0.2,0,0.4c-0.2,0.6-0.6,1-1.2,1.1c-0.3,0.1-0.6-0.1-0.8,0c-0.4,0.1-0.7,0.3-1.1,0.5
					C503.5,232.5,502,233.3,500.5,234.1z"/>
				<path fill="#A1E2E0" d="M506.3,224.3c-0.5,0.1-0.9,0.2-1.3,0.4c-0.4,0.3-0.6,0.7-0.5,1.2c0.1,0.4,0.5,0.6,0.8,0.6
					c1.8,0.6,3.7-0.2,5.6-0.1c1.4,0,2.8,0.5,4.2,1c0.3,0.1,0.6,0.3,0.7,0.5c0.2,0.2,0.3,0.6,0.1,0.8c-0.2,0.3-0.6,0.3-0.9,0.3
					c-0.8-0.1-1.6-0.3-2.3-0.4c-0.7-0.1-1.7-0.1-2.3,0.4c-0.1,0-0.2,0.1-0.2,0.2c0,0.1,0,0.1,0,0.2c0.2,0.8,0.9,1.5,1.8,1.5
					c0.5,0,0.8-0.1,1.2-0.2c1-0.1,2,0.3,3.1,0.6c0.6,0.2,1.1,0.3,1.6,0.6c1.4,1.3,2.2,2.3,2.8,3.8s1.4,2.4,1.6,3.9
					c0,0.3,0.1,0.6,0.3,0.7c0.3,0.3,0.8,0.2,1.1-0.1c0.6-0.6,0.5-1.9,0.1-2.7c-1.2-2.9-2.6-4.9-5.8-7c-0.1-0.1-0.2-0.3-0.3-0.4
					c0-0.2,0-0.3,0-0.5c0.1-0.5,0.2-0.8,0.3-1.3c1.3,1.5,2.7,2.9,4,4.4c0.5,0.5,0.9,0.9,1.2,1.5c0.5,0.8,0.7,1.8,0.9,2.8
					c0,0.2,0.1,0.3,0.2,0.4c0.2,0.1,0.3,0,0.5-0.1l0,0c0.7-0.5,1-1.4,0.8-2.2c-0.1-0.3-0.2-0.6-0.4-0.8c-1.6-1.8-3.2-3.5-4.8-5.3
					c-0.7-0.7-1.8-1.6-2.6-2.2c-1.8-1.5-4-1.9-6.1-2.7C509.8,223.3,508.1,223.9,506.3,224.3z"/>
				<path fill="#A1E2E0" d="M499.2,257.4c-0.4-0.7,0.4-1.5,1.1-1.2c0.6,0.3,1.3,0.6,1.9,1c0.7,0.5,1.4,1,2.1,1.5
					c2,1.3,4.4,1.9,6.8,1.9c2.4-0.1,4.7-1.1,6.4-2.8c1.9-1.9,2.9-4.6,3.6-7.3c0.2-0.6,0.9-0.6,1.1,0s0.1,1.2,0,1.8
					c-0.6,3.1-2.4,5.9-4.9,7.8c0.2,0.4,0.6,0.7,1,0.9c3.9-3.5,5.9-8.8,6.3-14c0-0.6,0.1-1.1-0.1-1.7c-0.1-0.4,0.4-0.7,0.7-0.6
					c0.8,0.5,1.7,1.3,1.8,1.9c0.2,1.9-1.1,3.6-1.3,5.6c-0.4,3.1-1.9,5.8-3.9,8.1s-4.6,4-7.3,5.3c-0.9,0.5-1.9,0.8-2.9,1.3
					c-0.7,0.3-1.8,0.5-2-0.2c0.3-1.1,1.4-1.8,2.4-2.3c1.5-0.8,3.1-1.7,4.5-2.5c-0.1-0.6-0.9-1-1.6-0.9s-1.2,0.5-1.9,0.7
					c-2.3,1.2-5.2,1.2-7.5,0l-0.8,2.1c0.7,0.7,1.7,1.1,2.6,1.6c0.8,0.5,0.9,1.4,0.1,1.7c-0.1,0-0.2,0.1-0.3,0.1
					c-0.7,0.1-1.1-0.6-1.9-0.8c-2.3-0.7-4.4-2-6.1-3.8c-0.8-0.9-1.5-1.6-2.2-2.6c-1-1.4-2.1-3.1-3.2-4.4c-0.5-0.6-1-1.7-0.4-2.2
					c0.8-0.2,1.7,0.4,2.1,1c0.5,0.6,0.8,1.5,1.2,2.2c1.4,2.6,3.5,4.9,6,6.5c0.2,0.1,0.5,0.3,0.6,0.1c0.1-0.1,0.2-0.2,0.3-0.3
					c0.2-0.4,0.5-0.8,0.6-1.2C502.8,260.4,500,259.2,499.2,257.4z"/>
				<g>
					
						<rect x="500.79" y="278.21" transform="matrix(0.9606 -0.2778 0.2778 0.9606 -57.3923 151.9769)" fill="#897BEF" width="13.599" height="0.6"/>
					
						<rect x="500.776" y="277.686" transform="matrix(0.9606 -0.2778 0.2778 0.9606 -57.2471 151.9524)" fill="#785EEA" width="13.599" height="0.6"/>
					
						<rect x="500.998" y="278.605" transform="matrix(0.9606 -0.2778 0.2778 0.9606 -57.4938 152.0502)" fill="#785EEA" width="13.599" height="0.6"/>
					
						<rect x="500.794" y="277.284" transform="matrix(0.9606 -0.2778 0.2778 0.9606 -57.1348 151.9417)" fill="#744DEF" width="13.599" height="0.6"/>
					
						<rect x="501.178" y="278.904" transform="matrix(0.9606 -0.2778 0.2778 0.9606 -57.5698 152.112)" fill="#744DEF" width="13.599" height="0.6"/>
					
						<rect x="500.795" y="278.583" transform="matrix(0.9606 -0.2778 0.2778 0.9606 -57.4956 151.993)" fill="#703BF2" width="13.599" height="0.6"/>
					
						<rect x="500.579" y="277.79" transform="matrix(0.9606 -0.2778 0.2778 0.9606 -57.2838 151.9019)" fill="#703BF2" width="13.599" height="0.6"/>
					
						<rect x="500.29" y="278.294" transform="matrix(0.9606 -0.2778 0.2778 0.9606 -57.4352 151.8414)" fill="#6B25F2" width="13.599" height="0.6"/>
				</g>
				<g>
					
						<rect x="488.668" y="274.163" transform="matrix(0.5922 -0.8058 0.8058 0.5922 -18.8421 511.6962)" fill="#897BEF" width="14.9" height="0.6"/>
					
						<rect x="489.076" y="274.547" transform="matrix(0.5922 -0.8058 0.8058 0.5922 -18.9849 512.1816)" fill="#785EEA" width="14.9" height="0.6"/>
					
						<rect x="488.426" y="274.004" transform="matrix(0.5922 -0.8058 0.8058 0.5922 -18.8122 511.4362)" fill="#785EEA" width="14.9" height="0.6"/>
					
						<rect x="489.56" y="274.804" transform="matrix(0.5922 -0.8058 0.8058 0.5922 -18.9945 512.6763)" fill="#744DEF" width="14.9" height="0.6"/>
					
						<rect x="487.97" y="273.627" transform="matrix(0.5922 -0.8058 0.8058 0.5922 -18.6947 510.9154)" fill="#744DEF" width="14.9" height="0.6"/>
					
						<rect x="488.597" y="273.753" transform="matrix(0.5922 -0.8058 0.8058 0.5922 -18.54 511.4721)" fill="#703BF2" width="14.9" height="0.6"/>
					
						<rect x="489.301" y="274.23" transform="matrix(0.5922 -0.8058 0.8058 0.5922 -18.6369 512.2338)" fill="#703BF2" width="14.9" height="0.6"/>
					
						<rect x="489.195" y="273.578" transform="matrix(0.5922 -0.8058 0.8058 0.5922 -18.1549 511.8824)" fill="#6B25F2" width="14.9" height="0.6"/>
				</g>
				<g>
					
						<rect x="487.915" y="285.416" transform="matrix(0.989 -0.1482 0.1482 0.989 -37.8175 75.5698)" fill="#D91EF4" width="0.6" height="12.301"/>
				</g>
				<g>
					
						<rect x="486.094" y="285.614" transform="matrix(0.9717 -0.2362 0.2362 0.9717 -55.1521 123.1425)" fill="#D91EF4" width="0.6" height="12.3"/>
				</g>
				<g>
					<path fill="#D279F7" d="M494.5,242.6c0-0.2,0.1-0.5-0.4-0.7c-0.6-0.5-1.2-0.2-1.5,0.2s-0.3,0.8,0.1,1.3l-0.3,0.4l0.3,0.2
						l0.4-0.2C493.5,243.6,494.4,243.2,494.5,242.6z"/>
					<path fill="#D279F7" d="M489,241.9c0.5-0.3,0.9-0.6,0.9-1c0-0.2-0.1-0.4-0.3-0.5c-0.6-0.5-1.3-0.3-1.6,0.2
						c-0.3,0.4-0.4,0.8,0,1.3l0.3-0.4L489,241.9L489,241.9z"/>
					<path fill="#D279F7" d="M490.7,236c-0.6-0.5-1.3-0.3-1.6,0.2c-0.3,0.4-0.3,0.8,0.1,1.3l-0.2,0.3l0.5,0.4l0.4-0.3
						c0.5-0.3,1.1-0.8,1.1-1.3C491,236.1,490.9,236,490.7,236z"/>
					<path fill="#D279F7" d="M491.6,236.6l0.4-0.3c0.5-0.3,1-0.8,1-1.3c0-0.2,0-0.4-0.2-0.6c-0.6-0.5-1.1-0.2-1.4,0.3
						c-0.3,0.4-0.6,0.6,0.2,1.3l-0.2,0.3L491.6,236.6z"/>
					<path fill="#D279F7" d="M493.9,231.7l0.4,0.3l0.2-0.1c0.4-0.1,1.1-0.4,1.2-1c0-0.2,0-0.5-0.4-0.8c-0.2-0.2-0.6-0.2-0.8,0
						c-0.2,0.1-0.4,0.3-0.5,0.5C493.7,231,493.7,231.4,493.9,231.7z"/>
					<path fill="#D279F7" d="M497.2,228.4l0.6,0.4l0.2-0.1c0.4-0.1,1.1-0.4,1.2-0.9c0-0.2,0-0.6-0.4-0.8c-0.6-0.5-1.2-0.3-1.5,0.2
						C497,227.4,497.3,228.2,497.2,228.4L497.2,228.4z"/>
					<path fill="#D279F7" d="M499.7,228.4c-0.1,0.3,0,0.5,0.1,0.6l0.4,0.3l0.2-0.1c0.4-0.1,1.1-0.4,1.2-1c0-0.1,0-0.2,0-0.3v-0.1
						c0-0.2-0.1-0.4-0.2-0.5c-0.6-0.5-1.1-0.2-1.5,0.3C499.8,227.8,499.6,228,499.7,228.4z"/>
					<path fill="#D279F7" d="M494.5,232.2c-0.3,0.4-0.1,1-0.2,1.1l-0.1,0.2l0.9,0.6l0.3-0.3c0.5-0.3,1-0.8,1-1.3
						c0-0.2-0.2-0.5-0.4-0.6C495.5,231.6,494.8,231.7,494.5,232.2z"/>
					<path fill="#D279F7" d="M491.3,238.9l0.1-0.2l0,0l0,0l0,0l0,0c0.3,0.2,0.6,0.4,0.9,0.2c0.4-0.2,0.6-0.4,0.6-0.8
						c0-0.4-0.1-0.7-0.5-1c-0.3-0.2-0.6-0.3-1-0.2c-0.4,0.2-0.6,0.6-0.6,0.9C491,238.3,491,238.6,491.3,238.9z"/>
					<path fill="#D279F7" d="M491.1,241.5c-0.6-0.5-1-0.1-1.4,0.3c-0.3,0.4-0.6,0.6,0.3,1.4l0.3-0.4l0.1,0.1h0.2
						c0.5-0.3,0.9-0.6,0.9-1C491.4,241.7,491.3,241.6,491.1,241.5z"/>
					<path fill="#D279F7" d="M494.5,240.9l0.3-0.1c0.4-0.1,1.1-0.5,1.2-1c0-0.2,0-0.6-0.4-0.8c-0.6-0.5-1.2-0.2-1.5,0.2
						s0.2,1.1,0.1,1.3l-0.1,0.2L494.5,240.9z"/>
					<path fill="#D279F7" d="M495.9,236.1l0.6,0.5l0.2-0.1c0.4-0.1,1.1-0.5,1.2-1c0-0.2,0-0.5-0.4-0.8c-0.6-0.5-1.3-0.3-1.6,0.2
						C495.8,235.1,496.1,235.9,495.9,236.1L495.9,236.1z"/>
					<path fill="#D279F7" d="M501.1,233.4c0-0.2,0.1-0.5-0.4-0.7c-0.6-0.5-1.2-0.2-1.5,0.2s-0.3,0.8,0.1,1.3l-0.1,0.2l0.3,0.2
						l0.3-0.1C500.2,234.3,501.1,233.9,501.1,233.4z"/>
					<path fill="#D279F7" d="M503.1,232.3L503.1,232.3c0.6,0.1,1.1-0.3,1.2-0.8c0.1-0.6-0.2-1.1-0.8-1.3l-0.1,0.5v-0.5
						c-0.4-0.1-0.7,0.1-0.9,0.3c-0.3,0.3-0.3,0.7-0.2,1.1c0.1,0.2,0.2,0.4,0.4,0.5C502.8,232.3,502.9,232.3,503.1,232.3z"/>
					<path fill="#D279F7" d="M507.5,229.5c0-0.2-0.1-0.4-0.3-0.6c-0.6-0.5-1.2-0.2-1.5,0.2s0.1,1.1,0,1.2l-0.3,0.4l0.6,0.4l0.4-0.4
						C506.9,230.6,507.5,229.9,507.5,229.5z"/>
					<path fill="#D279F7" d="M504.2,229.8l0.3-0.2c0.5-0.3,1-0.7,1-1.2c0-0.2-0.1-0.4-0.2-0.5c-0.6-0.5-1.1-0.1-1.4,0.3
						c-0.3,0.4-0.6,0.6,0.2,1.4l-0.1,0.2H504.2z"/>
					<path fill="#D279F7" d="M511.9,228.8c-0.6-0.5-1.1-0.2-1.5,0.3c-0.3,0.4-0.7,0.5,0.1,1.3l-0.2,0.3l0.4,0.3l0.4-0.3
						c0.5-0.3,1-0.8,1.1-1.3C512.2,229.1,512.1,228.9,511.9,228.8z"/>
					<path fill="#D279F7" d="M521.3,233c0-0.2,0-0.6-0.5-0.8c-0.6-0.5-1.2-0.2-1.5,0.2s0,1-0.1,1.2l-0.4,0.5l0.6,0.5l0.4-0.3
						C520.3,234.1,521.2,233.5,521.3,233z"/>
					<path fill="#D279F7" d="M522.2,235c-0.3-0.2-0.6-0.3-1-0.1s-0.6,0.5-0.6,0.8c0,0.4,0.2,0.6,0.5,0.9l0.2-0.3l0,0l0,0l0,0l0,0
						c0.3,0.2,0.6,0.5,0.8,0.3c0.4-0.2,0.5-0.4,0.6-0.7C522.6,235.6,522.5,235.3,522.2,235z"/>
					<path fill="#D279F7" d="M525.4,238.4L525,239l0.4,0.3l0.4-0.3c0.4-0.1,1.3-0.6,1.4-1.2c0-0.2,0-0.6-0.4-0.8
						c-0.6-0.5-1.2-0.2-1.5,0.2C525,237.4,524.5,237.5,525.4,238.4z"/>
					<path fill="#D279F7" d="M523.1,241.3l-0.3,0.4l0.4,0.3l0.4-0.3c0.5-0.3,1-0.8,1-1.3c0-0.2-0.1-0.5-0.3-0.6
						c-0.6-0.5-1.1-0.2-1.5,0.2C522.7,240.4,522.3,240.6,523.1,241.3z"/>
					<path fill="#D279F7" d="M522.2,232.6L522.2,232.6l0.2,0.3l0.3-0.1c0.4-0.1,1.1-0.5,1.2-1c0-0.2,0-0.5-0.4-0.7
						c-0.6-0.5-1.1-0.2-1.5,0.3C521.8,231.6,521.3,231.8,522.2,232.6z"/>
					<path fill="#D279F7" d="M520.3,230.2l0.1-0.2l0.5,0.4h0.2c0.4-0.1,1.1-0.4,1.2-0.9c0-0.2,0-0.5-0.4-0.7
						c-0.6-0.5-1.2-0.2-1.6,0.2C520,229.3,520,229.7,520.3,230.2z"/>
					<path fill="#D279F7" d="M517.5,228l0.7,0.6l0.2-0.1c0.4-0.1,1.1-0.5,1.2-1c0-0.2,0-0.5-0.5-0.8c-0.6-0.5-1.3-0.3-1.6,0.2
						C517.5,227.2,517.6,227.9,517.5,228L517.5,228z"/>
					<path fill="#D279F7" d="M504,226.8l0.3-0.4l0,0l0.1,0.2c0.4-0.1,1-0.2,1.1-0.7c0-0.2,0-0.5-0.4-0.7c-0.6-0.5-1.1-0.1-1.4,0.3
						C503.6,225.7,503.2,226,504,226.8z"/>
					<path fill="#D279F7" d="M508,227.3l0.3-0.4l0.5,0.4l0.1,0.1c0.4-0.1,1-0.3,1.1-0.8c0-0.2,0-0.5-0.4-0.7
						c-0.6-0.5-1.2-0.2-1.5,0.2C507.7,226.4,508.1,227.2,508,227.3z"/>
					<path fill="#D279F7" d="M511.3,225.3L511.3,225.3l0.6,0.6l0.3-0.1c0.4-0.1,1.1-0.4,1.2-0.9c0-0.2,0-0.6-0.4-0.8
						c-0.6-0.5-1.3-0.3-1.7,0.1C511.2,224.6,511,224.8,511.3,225.3z"/>
					<path fill="#D279F7" d="M506.5,224.4l-0.4,0.5l0.6,0.5l0.4-0.3c0.4-0.1,1.2-0.6,1.3-1.1c0-0.2,0-0.6-0.4-0.8
						c-0.6-0.5-1.3-0.3-1.6,0.1C506.3,223.5,506.6,224.2,506.5,224.4z"/>
					<path fill="#D279F7" d="M514.7,227.5l0.9,0.6l0.2-0.1c0.4-0.1,1.1-0.5,1.2-1c0-0.2,0-0.6-0.5-0.8c-0.6-0.5-1.4-0.3-1.7,0.1
						C514.7,226.7,514.8,227.3,514.7,227.5L514.7,227.5z"/>
					<path fill="#D279F7" d="M512.9,229.7c-0.3,0.4-0.4,0.7,0,1.2l-0.2,0.3l0.6,0.4l0.3-0.2c0.4-0.1,1.2-0.6,1.3-1.1
						c0-0.2,0-0.5-0.4-0.8C513.8,229,513.2,229.3,512.9,229.7z"/>
					<path fill="#D279F7" d="M523,246.7l0.4,0.3l0.2-0.1c0.4-0.1,1.1-0.4,1.2-1c0-0.2,0-0.5-0.4-0.8c-0.2-0.2-0.6-0.2-0.8,0
						c-0.2,0.1-0.4,0.3-0.5,0.5C522.8,246,522.8,246.4,523,246.7z"/>
					<path fill="#D279F7" d="M522.6,248.6c-0.3,0.4-0.4,0.7,0,1.2l0.1-0.1l0.6,0.4h0.2c0.4-0.1,1.1-0.4,1.2-0.9c0-0.2,0-0.5-0.5-0.8
						C523.7,248,523,248.3,522.6,248.6z"/>
					<path fill="#D279F7" d="M522.4,252.2l0.4,0.3l0.2-0.1c0.4-0.1,1.1-0.4,1.2-1c0-0.2,0-0.5-0.4-0.8c-0.2-0.2-0.6-0.2-0.8,0
						c-0.2,0.1-0.4,0.3-0.5,0.5C522.2,251.4,522.2,251.9,522.4,252.2z"/>
					<path fill="#D279F7" d="M521.5,254.1c-0.2,0.1-0.4,0.3-0.5,0.5c-0.3,0.5-0.4,0.8-0.1,1.2l0.4,0.3l0.3-0.2
						c0.5-0.3,0.9-0.7,1-1.2C522.6,254.2,522.1,253.8,521.5,254.1z"/>
					<path fill="#D279F7" d="M519.8,258.3c0.4-0.1,1.1-0.4,1.2-1c0-0.2,0-0.5-0.4-0.8c-0.2-0.2-0.6-0.2-0.8,0
						c-0.2,0.1-0.4,0.3-0.5,0.5c-0.3,0.5-0.4,0.8-0.1,1.2l0.4,0.3L519.8,258.3z"/>
					<path fill="#D279F7" d="M516.8,260.7l0.4,0.3l0.3-0.2c0.5-0.3,0.9-0.7,1-1.2c0-0.5-0.6-0.8-1-0.6c-0.2,0.1-0.4,0.3-0.5,0.5
						C516.6,260,516.5,260.4,516.8,260.7z"/>
					<path fill="#D279F7" d="M514.1,263.7l0.4,0.3l0.3-0.2c0.5-0.3,1-0.7,1-1.2c0-0.2-0.1-0.4-0.3-0.5c-0.6-0.5-1.2-0.2-1.5,0.3
						C513.7,262.8,513.3,262.9,514.1,263.7L514.1,263.7z"/>
					<path fill="#D279F7" d="M503.5,262.5c-0.6-0.5-1.3-0.3-1.6,0.2c-0.3,0.4,0,1-0.1,1.1l-0.2,0.2l0.7,0.5l0.3-0.2
						c0.4-0.1,1.1-0.5,1.2-1C503.8,263.2,503.8,262.8,503.5,262.5z"/>
					<path fill="#D279F7" d="M494,254.9c-0.6-0.5-1.1-0.2-1.5,0.3c-0.3,0.4-0.7,0.5,0.1,1.3l0.2-0.3l0.4,0.3h0.2
						c0.5-0.3,0.8-0.6,0.8-1C494.3,255.3,494.2,255.1,494,254.9z"/>
					<path fill="#D279F7" d="M492.7,246.3c-0.6-0.5-1.1-0.2-1.5,0.3c-0.3,0.4-0.6,0.6,0.2,1.4l0,0l0.2,0.1h0.2
						c0.4-0.1,1.1-0.4,1.2-0.9C493.1,246.9,493.1,246.6,492.7,246.3z"/>
					<path fill="#D279F7" d="M497.3,255c-0.2-0.2-0.6-0.2-0.8,0c-0.2,0.1-0.4,0.3-0.5,0.5c-0.3,0.5-0.4,0.8-0.1,1.2l0.4,0.3l0.2-0.1
						c0.4-0.1,1.1-0.4,1.2-1C497.7,255.7,497.7,255.3,497.3,255z"/>
					<path fill="#D279F7" d="M497.6,257.4c-0.3,0.4-0.8,0.5,0,1.2l0.2-0.2l0.6,0.4h0.2c0.5-0.3,0.9-0.6,0.9-1.1
						c0-0.2-0.1-0.4-0.3-0.5C498.6,256.7,497.9,257,497.6,257.4z"/>
					<path fill="#D279F7" d="M496,252.4c-0.6-0.5-1.1-0.2-1.5,0.3c-0.3,0.4-0.7,0.5,0.1,1.3l0,0l0.4,0.3l0.3-0.2
						c0.5-0.3,1-0.7,1-1.2C496.2,252.6,496.1,252.4,496,252.4z"/>
					<path fill="#D279F7" d="M498.2,254.8c-0.3,0.4-0.5,0.7-0.1,1.2l0.1-0.2l0.6,0.5h0.2c0.4-0.1,1-0.3,1.1-0.8c0-0.2,0-0.6-0.5-0.8
						C499.1,254.2,498.5,254.4,498.2,254.8z"/>
					<path fill="#D279F7" d="M502.2,256.6c-0.6-0.5-1.3-0.3-1.7,0.1c-0.3,0.4-0.1,1-0.2,1.1l-0.1,0.2l0.8,0.6l0.3-0.2
						c0.4-0.1,1.2-0.6,1.3-1.1C502.6,257.2,502.5,256.9,502.2,256.6z"/>
					<path fill="#D279F7" d="M506.1,258.8c-0.6-0.5-1.3-0.3-1.6,0.2c-0.3,0.4,0,1-0.1,1.1l-0.1,0.1l0.7,0.5l0.2-0.1
						c0.4-0.1,1.1-0.5,1.2-1C506.5,259.5,506.5,259.1,506.1,258.8z"/>
					<path fill="#D279F7" d="M506,262.1l0.6,0.5l0.2,0.1c0.4-0.1,1.1-0.4,1.2-0.9c0-0.2,0-0.5-0.4-0.7c-0.6-0.5-1.3-0.3-1.7,0.1
						c-0.3,0.4-0.5,0.7-0.1,1.2L506,262.1z"/>
					<path fill="#D279F7" d="M513.7,259c0-0.2,0-0.5-0.4-0.8c-0.2-0.2-0.6-0.2-0.8,0c-0.2,0.1-0.4,0.3-0.5,0.5
						c-0.3,0.5-0.4,0.8-0.1,1.2l0.4,0.3l0.2-0.1C512.8,259.9,513.6,259.6,513.7,259z"/>
					<path fill="#D279F7" d="M516,258.4c-0.2-0.2-0.6-0.2-0.8,0c-0.2,0.1-0.4,0.3-0.5,0.5c-0.3,0.5-0.4,0.8-0.1,1.2l0.4,0.3l0.2-0.1
						c0.4-0.1,1.1-0.4,1.2-1C516.3,259,516.3,258.7,516,258.4z"/>
					<path fill="#D279F7" d="M509.9,261.7l0.4,0.3l0.3-0.2c0.5-0.3,0.9-0.7,1-1.2c0-0.5-0.6-0.8-1-0.6c-0.2,0.1-0.4,0.3-0.5,0.5
						C509.8,261,509.8,261.4,509.9,261.7z"/>
					<path fill="#D279F7" d="M518,256.8c0-0.2,0-0.5-0.4-0.7c-0.6-0.5-1.1-0.2-1.5,0.3c-0.3,0.4-0.7,0.5,0.1,1.3l0.1-0.2l0.3,0.2
						h0.2C517.3,257.6,517.9,257.4,518,256.8z"/>
					<path fill="#D279F7" d="M520,254.9c0-0.2,0-0.6-0.4-0.8c-0.6-0.5-1.2-0.2-1.6,0.2c-0.3,0.4,0,1-0.1,1.2l-0.1,0.2l0.6,0.5
						l0.3-0.1C519,255.8,519.9,255.5,520,254.9z"/>
					<path fill="#D279F7" d="M522,252.1c0-0.2,0-0.6-0.4-0.8c-0.6-0.5-1.2-0.2-1.6,0.2c-0.3,0.4,0,1-0.1,1.2l0.3-0.4l0.6,0.5v0.2
						C521.2,252.7,521.9,252.6,522,252.1z"/>
					<path fill="#D279F7" d="M518.9,260.8l0.4,0.3l0.2-0.1c0.4-0.1,1.1-0.4,1.2-1c0-0.2,0-0.5-0.4-0.8c-0.2-0.2-0.6-0.2-0.8,0
						c-0.2,0.1-0.4,0.3-0.5,0.5C518.7,260,518.7,260.5,518.9,260.8z"/>
					<path fill="#D279F7" d="M523.5,257.8c-0.6-0.5-1.3-0.3-1.6,0.1s0,1-0.1,1.1v0.1l0.7,0.6l0.2-0.1c0.4-0.1,1.1-0.5,1.2-1
						C523.9,258.4,523.9,258.1,523.5,257.8z"/>
					<path fill="#D279F7" d="M523.6,255.2c-0.3,0.4-0.3,0.8,0.1,1.3l0.2-0.2l0.4,0.3l0.1,0.1c0.4-0.1,1-0.3,1.1-0.8
						c0-0.2,0-0.5-0.4-0.7C524.5,254.6,523.9,254.9,523.6,255.2z"/>
					<path fill="#D279F7" d="M525,252.2c-0.3,0.4-0.6,0.6,0.2,1.4l-0.1,0.1l0.1,0.1l0.3-0.1c0.4-0.1,1.2-0.5,1.3-1
						c0-0.2,0.1-0.5-0.4-0.7C525.8,251.4,525.2,251.7,525,252.2z"/>
					<path fill="#D279F7" d="M525.6,249.8c-0.3,0.4,0,1-0.1,1.1v0.1l0.7,0.6l0.2-0.1c0.4-0.1,1.1-0.4,1.2-0.9c0-0.2,0-0.6-0.4-0.8
						C526.6,249.2,525.9,249.4,525.6,249.8z"/>
					<path fill="#D279F7" d="M525.1,247.3l-0.1,0.2l0.6,0.5l0.3-0.2c0.5-0.3,1-0.7,1-1.2c0-0.2-0.1-0.4-0.3-0.5
						c-0.6-0.5-1.3-0.3-1.6,0.2C525,246.3,524.8,246.8,525.1,247.3z"/>
					<path fill="#D279F7" d="M525.4,242.8l0.6,0.5h0.1c0.4-0.1,1-0.3,1.1-0.9c0-0.2,0-0.6-0.4-0.8c-0.6-0.5-1.2-0.2-1.6,0.2
						c-0.3,0.4,0,1-0.1,1.2L525.4,242.8z"/>
					<path fill="#D279F7" d="M512.1,267.2l0.4,0.3l0.3-0.2c0.5-0.3,0.9-0.7,1-1.2c0-0.5-0.6-0.8-1-0.6c-0.2,0.1-0.4,0.3-0.5,0.5
						C511.9,266.4,511.9,266.9,512.1,267.2z"/>
					<path fill="#D279F7" d="M517.4,263.3c-0.6-0.5-1.3-0.3-1.6,0.2c-0.3,0.4,0,1-0.1,1.1l-0.1,0.2l0.7,0.6l0.3-0.1
						c0.4-0.1,1.2-0.5,1.3-1C517.8,263.8,517.7,263.6,517.4,263.3z"/>
					<path fill="#D279F7" d="M520.1,261.8c-0.6-0.5-1.2-0.2-1.5,0.2c-0.3,0.4-0.3,0.8,0.1,1.3l-0.1,0.1l0.4,0.3l0.3-0.1
						c0.4-0.1,1.2-0.5,1.3-1C520.6,262.4,520.6,262.2,520.1,261.8z"/>
					<path fill="#D279F7" d="M504.7,265.4c-0.6-0.5-1.4-0.4-1.7,0.1c-0.3,0.4-0.2,0.9-0.3,1l-0.2,0.3l1,0.7l0.3-0.2
						c0.4-0.1,1.2-0.5,1.3-1C505,266.2,505,265.8,504.7,265.4z"/>
					<path fill="#D279F7" d="M501,262.8c-0.6-0.5-1.2-0.2-1.6,0.2c-0.3,0.4,0,1-0.1,1.2l-0.2,0.3l0.6,0.5l0.3-0.2
						c0.4-0.1,1.1-0.5,1.2-1C501.3,263.6,501.3,263.1,501,262.8z"/>
					<path fill="#D279F7" d="M498.6,261c-0.2-0.2-0.6-0.2-0.8,0c-0.2,0.1-0.4,0.3-0.5,0.5c-0.3,0.5-0.4,0.8-0.1,1.2l0.4,0.3l0.2-0.1
						c0.4-0.1,1.1-0.4,1.2-1C499,261.5,499,261.2,498.6,261z"/>
					<path fill="#D279F7" d="M495.6,261.8l0.3-0.3c0.5-0.3,1-0.8,1-1.3c0-0.2-0.1-0.5-0.3-0.6c-0.6-0.5-1.4-0.4-1.7,0.1
						c-0.3,0.4-0.2,0.9-0.3,1l-0.2,0.3L495.6,261.8z"/>
					<path fill="#D279F7" d="M494.8,251.2l0.3-0.3c0.5-0.3,1-0.7,1-1.2c0-0.2-0.1-0.4-0.3-0.6c-0.6-0.5-1.1-0.2-1.4,0.3
						c-0.3,0.4-0.7,0.5,0.1,1.3l-0.1,0.2L494.8,251.2z"/>
					<path fill="#D279F7" d="M491.2,249.2c-0.2-0.2-0.6-0.2-0.8,0c-0.2,0.1-0.4,0.3-0.5,0.5c-0.3,0.5-0.4,0.8-0.1,1.2l0.4,0.3
						l0.2-0.1c0.4-0.1,1.1-0.4,1.2-1C491.6,249.9,491.6,249.5,491.2,249.2z"/>
					<path fill="#D279F7" d="M489.1,265.4c-0.6-0.5-1.3-0.3-1.6,0.2c-0.3,0.4,0,1-0.1,1.1l-0.1,0.1l0.7,0.6l0.2-0.1
						c0.4-0.1,1.1-0.5,1.2-1C489.6,266,489.6,265.7,489.1,265.4z"/>
					<path fill="#D279F7" d="M507.6,283.9c-0.6-0.5-1.1-0.2-1.4,0.3c-0.3,0.4-0.6,0.6,0.2,1.3l0.3-0.4l0.3,0.2l0.1,0.1
						c0.5-0.3,0.8-0.6,0.8-1S507.8,283.9,507.6,283.9z"/>
					<path fill="#D279F7" d="M492.7,295.2c-0.6-0.5-1.3-0.3-1.6,0.2c-0.3,0.4-0.4,0.7,0,1.2l0.2-0.3l0.6,0.5h0.2
						c0.5-0.3,0.9-0.6,0.9-1C493,295.4,492.9,295.3,492.7,295.2z"/>
					<path fill="#D279F7" d="M522.5,289.7c0-0.2,0-0.5-0.4-0.8c-0.2-0.2-0.6-0.2-0.8,0c-0.2,0.1-0.4,0.3-0.5,0.5
						c-0.3,0.5-0.4,0.8-0.1,1.2l0.4,0.3l0.2-0.1C521.7,290.6,522.5,290.2,522.5,289.7z"/>
					<path fill="#D279F7" d="M523.4,264.2c-0.6-0.5-1.3-0.3-1.7,0.1c-0.3,0.4-0.1,1-0.2,1.1v0.1l0.8,0.6l0.2-0.1
						c0.4-0.1,1.1-0.5,1.2-1C523.8,264.8,523.8,264.5,523.4,264.2z"/>
					<path fill="#D279F7" d="M481.2,254.1c-0.6-0.5-1.3-0.3-1.6,0.2c-0.3,0.4,0.1,1.1,0,1.2l0.1-0.1l0.6,0.5l0.2-0.1
						c0.5-0.3,0.9-0.7,0.9-1.2C481.6,254.4,481.4,254.3,481.2,254.1z"/>
				</g>
				<path fill="#2D98DA" d="M482.3,277c-0.9,0.7-1.6,1.1-2.9,0.9c-1.2-0.1-1.7-0.7-2.4-1.6c-0.5-0.6-0.8-1.3-1-2
					c-0.1-0.5-0.1-1-0.1-1.5l0.8-7.4c0.3-2.5,2-4.4,4.5-4.1c1.2,0.2,1.9,0.4,2.6,1.3s1,2.6,0.8,3.9l-0.8,7.4
					C483.9,275.1,483.4,276.3,482.3,277z"/>
				<path fill="#2D98DA" d="M501.9,296.5c-1.1-0.6-1.7-1-2-2.1c-0.4-1.1,0-1.8,0.5-2.9c0.4-0.7,0.8-1.3,1.5-1.8
					c0.4-0.3,0.8-0.6,1.3-0.6l7.1-2.3c2.4-0.7,4.8,0,5.6,2.5c0.4,1.2,0.5,1.9-0.1,3s-1.9,1.9-3.1,2.4l-7.1,2.3
					C504.3,297.1,503,297,501.9,296.5z"/>
				<path fill="#2D98DA" d="M528.8,277.2c-1.2,0.4-1.9,0.6-3,0c-1-0.5-1.3-1.2-1.8-2.3c-0.3-0.7-0.4-1.5-0.3-2.3
					c0.1-0.5,0.2-0.9,0.5-1.4l3.2-6.8c1.1-2.3,3.3-3.4,5.7-2.3c1.1,0.6,1.7,0.9,2,2.1s0.1,2.8-0.5,3.9l-3.2,6.8
					C531,276,530.1,276.8,528.8,277.2z"/>
			</g>
		</g>
	</g>
	<g id="New_Symbol_3" display="inline">
	</g>
</g>
<g id="Layer_2_1_" display="none">
	
		<rect y="45.6" display="inline" fill="none" stroke="#EF3F22" stroke-width="0.1" stroke-miterlimit="10" width="978.2" height="514.4"/>
</g>
</svg>
