<svg id="Layer_1" data-name="Layer 1" xmlns="http://www.w3.org/2000/svg" viewBox="0 0 257.529 77.391"><title>Untitled-1</title><g id="ATP"><path d="M57.789,77.18L89.271,0l31.483,77.18H109.277l-2.316-6.107H71.688L69.266,77.18H57.789Zm17.689-16h27.587L89.271,25.8Z" fill="#222248"/><path d="M137.391,0.105h49.277V10.951H167.609V77.18H156.448V10.951H137.391V0.105Z" fill="#222248"/><path d="M257.319,24.534c0.069,0.421.121,0.842,0.158,1.263s0.052,0.879.052,1.369v0.21q0,0.738-.052,1.369c-0.037.421-.089,0.842-0.158,1.264v0.105L257,32.641a0.611,0.611,0,0,0-.1.421q-0.107.528-.211,0.947a7.519,7.519,0,0,1-.316.948A26.777,26.777,0,0,1,245,50.015a31.533,31.533,0,0,1-7.687,3.317,32.236,32.236,0,0,1-8.95,1.21H214.57V77.391H203.3V0h25.06A30.471,30.471,0,0,1,245,4.528a27.015,27.015,0,0,1,11.371,14.952,9.587,9.587,0,0,1,.527,2,0.609,0.609,0,0,0,.1.421q0.1,0.631.158,1.263a9.8,9.8,0,0,0,.158,1.158v0.211ZM229.732,44.645a13.825,13.825,0,0,0,6.37-1.474,17.09,17.09,0,0,0,5.054-3.9,18.15,18.15,0,0,0,3.37-5.528,17.92,17.92,0,0,0,0-12.951,18.2,18.2,0,0,0-3.37-5.528,17.145,17.145,0,0,0-5.054-3.9,13.843,13.843,0,0,0-6.37-1.474H214.675V44.645h15.058Z" fill="#222248"/><path d="M49.383,22.743a20.515,20.515,0,0,1-1.527,8.371,33.261,33.261,0,0,1-4.475,7.107L20.006,68.02H48.856v9.371H0L24.218,45.382q3.262-4.21,5.9-7.687,1.05-1.474,2.158-2.9t1.948-2.633q0.841-1.208,1.421-1.947a8.168,8.168,0,0,0,.685-0.948,12.933,12.933,0,0,0,.732-11.687,13.077,13.077,0,0,0-2.907-4.212A14.262,14.262,0,0,0,29.87,10.53a13.269,13.269,0,0,0-10.359,0,13.365,13.365,0,0,0-7.083,7.055,12.77,12.77,0,0,0-1.057,5.159H0.526a20.471,20.471,0,0,1,1.948-8.792A23.526,23.526,0,0,1,7.739,6.687,25.053,25.053,0,0,1,24.954,0,25.058,25.058,0,0,1,42.17,6.687a23.574,23.574,0,0,1,5.265,7.265A20.5,20.5,0,0,1,49.383,22.743Z" fill="#222248"/></g></svg>