<?xml version="1.0" encoding="utf-8"?>
<!-- Generator: Adobe Illustrator 19.2.1, SVG Export Plug-In . SVG Version: 6.00 Build 0)  -->
<svg version="1.1" id="Layer_1" xmlns="http://www.w3.org/2000/svg" xmlns:xlink="http://www.w3.org/1999/xlink" x="0px" y="0px"
	 viewBox="0 0 573.5 326.5" enable-background="new 0 0 573.5 326.5" xml:space="preserve">
<g>
	<path fill="#544C9B" d="M70.6,17.6c-1.1-0.6-2.3-0.9-3.5-1c-1.1-0.6-2.3-0.9-3.5-1c-1.1-0.6-2.3-0.9-3.5-1
		c-5.9-3.4-14.3,2.7-11.4,10.3l0,0c2,5.3-1.8,10.4-6.5,11.1c-0.9-0.3-1.7-0.5-2.5-0.5c-1.1-0.6-2.3-0.9-3.4-1
		c-7.5-4-15.6,5.6-10,12.5l0,0c4.9,6-0.8,15.1-8.3,13.1c-8.8-2.3-14.1,9.9-6.5,14.8c6.5,4.1,3.8,14.5-4,15
		c-9.1,0.6-10.5,13.8-1.7,16c7.5,1.9,8,12.5,0.8,15.4l0,0c-8.1,3.3-6.1,15.1,2,15.6c1,0.6,2.1,1,3.4,1c1,0.6,2.1,1,3.4,1
		c0.2,0.1,0.4,0.2,0.6,0.3c2.9,3.1,3.2,8.6-0.8,11.9l0,0c-6.1,5.1-2.3,14,4.2,14.4c1,0.6,2.2,1,3.4,1.1c1,0.6,2.2,1,3.4,1.1
		c1,0.6,2.2,1,3.4,1.1c1,0.6,2.2,1,3.4,1.1c0.1,0.1,0.3,0.2,0.5,0.2c0.6,2.1,0.4,4.5-1,6.7c-3.7,5.9,0.7,12.2,6.1,12.5
		c1,0.6,2.2,1,3.5,1.1c1,0.6,2.2,1,3.5,1.1c1,0.6,2.2,1,3.5,1.1c1,0.6,2.2,1,3.5,1.1c1,0.6,2.2,1,3.5,1.1c0.4,0.2,0.7,0.4,1.1,0.6
		c0,0.1,0,0.1,0,0.2l0,0c-1.5,5.6,2.6,9.8,7.1,10.1c1.1,0.6,2.2,1,3.5,1.1c1.1,0.6,2.2,1,3.5,1.1c1.1,0.6,2.2,1,3.5,1.1
		c1.1,0.6,2.2,1,3.5,1.1c1.1,0.6,2.2,1,3.5,1.1c1.1,0.6,2.2,1,3.5,1.1c1.1,0.6,2.2,1,3.5,1.1c1.1,0.6,2.2,1,3.5,1.1
		c1.1,0.6,2.2,1,3.5,1.1c1.1,0.6,2.2,1,3.5,1.1c1.1,0.6,2.2,1,3.5,1.1c1.1,0.6,2.2,1,3.5,1.1c1.1,0.6,2.2,1,3.5,1.1
		c1.1,0.6,2.2,1,3.5,1.1c1.1,0.6,2.2,1,3.5,1.1c1.1,0.6,2.2,1,3.5,1.1c1.1,0.6,2.2,1,3.5,1.1c1.1,0.6,2.2,1,3.5,1.1
		c1.1,0.6,2.2,1,3.5,1.1c1.1,0.6,2.2,1,3.5,1.1c1.1,0.6,2.2,1,3.5,1.1c1.1,0.6,2.2,1,3.5,1.1c1.1,0.6,2.2,1,3.5,1.1
		c1.1,0.6,2.2,1,3.5,1.1c1.1,0.6,2.2,1,3.5,1.1c1.1,0.6,2.2,1,3.5,1.1c1.1,0.6,2.2,1,3.5,1.1c1.1,0.6,2.2,1,3.5,1.1
		c1.1,0.6,2.2,1,3.5,1.1c1.1,0.6,2.2,1,3.5,1.1c1.1,0.6,2.2,1,3.5,1.1c1.1,0.6,2.2,1,3.5,1.1c1.1,0.6,2.2,1,3.5,1.1
		c1,0.6,2.2,1,3.5,1.1c1,0.6,2.2,1,3.5,1.1c1,0.6,2.2,1,3.5,1.1c1,0.6,2.2,1,3.5,1.1c1,0.6,2.2,1,3.5,1.1c1,0.6,2.2,1,3.5,1.1
		c1,0.6,2.2,1,3.5,1.1c1,0.6,2.2,1,3.5,1.1c1,0.6,2.2,1,3.5,1.1c1,0.6,2.2,1,3.5,1.1c1,0.6,2.2,1,3.5,1.1c1,0.6,2.2,1,3.5,1.1
		c1,0.6,2.2,1,3.5,1.1c1,0.7,2.2,1,3.5,1.1c1,0.7,2.2,1,3.5,1.1c1,0.7,2.2,1,3.5,1.1c1,0.7,2.2,1,3.5,1.1c1,0.7,2.2,1,3.5,1.1
		c1,0.7,2.2,1,3.5,1.1c1,0.7,2.2,1,3.5,1.1c1,0.7,2.2,1,3.5,1.1c1,0.7,2.2,1,3.5,1.1c1,0.7,2.2,1,3.5,1.1c1,0.7,2.2,1,3.5,1.1
		c1,0.7,2.2,1,3.5,1.1c1,0.7,2.2,1,3.5,1.1c1,0.7,2.2,1,3.5,1.1c1,0.7,2.2,1,3.5,1.1c1,0.7,2.2,1,3.5,1.1c1,0.7,2.2,1,3.5,1.1
		c1,0.7,2.2,1,3.5,1.1c1,0.7,2.2,1,3.5,1.1c1,0.7,2.2,1,3.5,1.1c1,0.7,2.2,1,3.5,1.1c1,0.7,2.2,1,3.5,1.1c1,0.7,2.2,1,3.5,1.1
		c1,0.7,2.2,1.1,3.5,1.1c1,0.7,2.2,1.1,3.5,1.1c1,0.7,2.2,1.1,3.5,1.1c1,0.7,2.2,1.1,3.5,1.1c1,0.7,2.2,1.1,3.5,1.1
		c1,0.7,2.2,1.1,3.5,1.1c1,0.7,2.2,1.1,3.5,1.1c1,0.7,2.2,1.1,3.5,1.1c1,0.7,2.2,1.1,3.5,1.1c1,0.7,2.2,1.1,3.5,1.1
		c1,0.7,2.2,1.1,3.5,1.1c1,0.7,2.2,1.1,3.5,1.1c1,0.7,2.2,1.1,3.5,1.1c1,0.7,2.2,1.1,3.5,1.1c1,0.7,2.2,1.1,3.5,1.1
		c1,0.7,2.2,1.1,3.5,1.1c1,0.7,2.2,1.1,3.5,1.1c1,0.7,2.2,1.1,3.5,1.1c1,0.7,2.2,1.1,3.5,1.1c1,0.7,2.2,1.1,3.5,1.1
		c1,0.7,2.2,1.1,3.5,1.1c1,0.7,2.2,1.1,3.5,1.1c1,0.7,2.2,1.1,3.5,1.1c1,0.7,2.2,1.1,3.5,1.1c1,0.7,2.2,1.1,3.5,1.1
		c1,0.7,2.2,1.1,3.5,1.1c1,0.7,2.2,1.1,3.5,1.1c1,0.7,2.2,1.1,3.5,1.1c1,0.7,2.2,1.1,3.5,1.1c1,0.7,2.2,1.1,3.5,1.1
		c1,0.7,2.2,1.1,3.5,1.1c2,1.3,4.6,1.6,6.8,0.2c0.4,0.1,0.7,0.1,1.1,0.1c1,0.7,2.3,1.1,3.5,1.1c1,0.7,2.3,1.1,3.5,1.1
		c1,0.7,2.3,1.1,3.5,1.1c1,0.7,2.3,1.1,3.5,1.1c1,0.7,2.3,1.1,3.5,1.1c1,0.7,2.3,1.1,3.5,1.1c1,0.7,2.3,1.1,3.5,1.1
		c3.3,2.3,8.6,1.2,9.9-3.8l1.4-5.5c0.4,0.1,0.7,0.1,1.1,0.1c1,0.8,2.3,1.1,3.5,1.1c1,0.8,2.3,1.1,3.5,1.1c1,0.8,2.3,1.1,3.5,1.1
		c1,0.8,2.3,1.1,3.5,1.1c1,0.8,2.3,1.1,3.5,1.1c1,0.8,2.3,1.1,3.5,1.1c3.9,2.8,10.5,0.1,10.1-5.8l-0.7-13.7c0.3,0,0.6,0,0.9,0
		c1.1,0.8,2.3,1.1,3.6,1.1c1.1,0.8,2.3,1.1,3.6,1.1c1.1,0.8,2.3,1.1,3.6,1.1c1.1,0.8,2.3,1.1,3.6,1.1c1.1,0.8,2.3,1.1,3.6,1.1
		c1.1,0.8,2.3,1.1,3.6,1.1c4.7,3.4,11.9-1.6,9.5-7.9l-5.6-14.7c-0.8-2.2-0.4-4.4,0.7-6c0,0,0.1,0,0.1,0l0,0c1.2,0.8,2.4,1.1,3.6,1.1
		l0,0c1.2,0.8,2.4,1.1,3.6,1.1l0,0c1.2,0.8,2.4,1.1,3.6,1.1l0.1,0c1.2,0.8,2.4,1.1,3.5,1l0.1,0c1.2,0.8,2.4,1.1,3.5,1l0.1,0
		c1.2,0.8,2.4,1.1,3.5,1l0.1,0c6.1,3.9,13-4,8.4-9.7l-9.9-12.1c-3.9-4.8,0.7-12,6.6-10.5l15.1,3.9c7,1.8,11.2-7.9,5.1-11.8
		l-13.1-8.4c-5.2-3.3-3-11.5,3.2-12l15.6-1.1c7.3-0.5,8.4-11,1.3-12.7l-2.3-0.6c-0.4-0.2-0.8-0.4-1.3-0.5l-2.3-0.6
		c-0.4-0.2-0.8-0.4-1.3-0.5l-2.3-0.6c-0.4-0.2-0.8-0.4-1.3-0.5l-2.3-0.6c-0.4-0.2-0.8-0.4-1.3-0.5l-2.3-0.6c-0.3-0.2-0.7-0.3-1-0.4
		c-3.2-2.9-2.7-9,2.1-10.9l14.7-5.9c6.7-2.7,4.7-12.6-2.2-12.4c-1-0.7-2.2-1.1-3.6-1c-1-0.7-2.2-1.1-3.6-1c-1-0.7-2.2-1.1-3.6-1
		c-1-0.7-2.2-1.1-3.6-1c-1-0.7-2.2-1.1-3.6-1c-1-0.7-2.2-1.1-3.6-1c-0.3-0.2-0.6-0.3-0.9-0.5c0.3-1.3,1-2.6,2.2-3.6l12.2-10.2
		c5-4.2,1.5-11.8-4.1-11.4c-1-0.7-2.2-1.1-3.6-1c-1-0.7-2.2-1.1-3.6-1c-1-0.7-2.2-1.1-3.6-1c-1-0.7-2.2-1.1-3.6-1
		c-1-0.7-2.2-1.1-3.6-1c-1-0.7-2.2-1.1-3.6-1c-0.2-0.1-0.4-0.2-0.6-0.3l6.4-10.1c3.1-4.9-0.9-10.1-5.5-9.9c-1.1-0.7-2.3-1-3.6-1
		c-1.1-0.7-2.3-1-3.6-1c-1.1-0.7-2.3-1-3.6-1c-1.1-0.7-2.3-1-3.6-1c-1.1-0.7-2.3-1-3.6-1c-1.1-0.7-2.3-1-3.6-1
		c-0.4-0.3-0.9-0.5-1.4-0.7l1-3.6c1.3-4.8-2.5-8.2-6.3-8c-1.1-0.6-2.3-1-3.6-0.9c-1.1-0.6-2.3-1-3.6-0.9c-1.1-0.6-2.3-1-3.6-0.9
		c-1.1-0.6-2.3-1-3.6-0.9c-1.1-0.6-2.3-1-3.6-0.9c-1.1-0.6-2.3-1-3.6-0.9c-1.1-0.6-2.3-1-3.6-0.9c-1.1-0.6-2.3-1-3.6-0.9
		c-1.1-0.6-2.3-1-3.6-0.9c-1.1-0.6-2.3-1-3.6-0.9c-1.1-0.6-2.3-1-3.6-0.9c-1.1-0.6-2.3-1-3.6-0.9c-1.1-0.6-2.3-1-3.6-0.9
		c-1.1-0.6-2.3-1-3.6-0.9c-1.1-0.6-2.3-1-3.6-0.9c-1.1-0.6-2.3-1-3.6-0.9c-1.1-0.6-2.3-1-3.6-0.9c-1.1-0.6-2.3-1-3.6-0.9
		c-1.1-0.6-2.3-1-3.6-0.9c-1.1-0.6-2.3-1-3.6-0.9c-1.1-0.6-2.3-1-3.6-0.9c-1.1-0.6-2.3-1-3.6-0.9c-1.1-0.6-2.3-1-3.6-0.9
		c-1.1-0.6-2.3-1-3.6-0.9c-1.1-0.6-2.3-1-3.6-0.9c-1.1-0.6-2.3-1-3.6-0.9c-1.1-0.6-2.3-1-3.6-0.9c-1.1-0.6-2.3-1-3.6-0.9
		c-1.1-0.6-2.3-1-3.6-0.9c-1.1-0.6-2.3-1-3.6-0.9c-1.1-0.6-2.3-1-3.6-0.9c-1.1-0.6-2.3-1-3.6-0.9c-1.1-0.6-2.3-1-3.6-0.9
		c-1.1-0.6-2.3-1-3.6-0.9c-1.1-0.6-2.3-1-3.6-0.9c-1.1-0.6-2.3-1-3.6-0.9c-1.1-0.6-2.3-0.9-3.6-0.9c-1.1-0.6-2.3-0.9-3.6-0.9
		c-1.1-0.6-2.3-0.9-3.6-0.9c-1.1-0.6-2.3-0.9-3.6-0.9c-1.1-0.6-2.3-0.9-3.6-0.9c-1.1-0.6-2.3-0.9-3.6-0.9c-1.1-0.6-2.3-0.9-3.6-0.9
		c-1.1-0.6-2.3-0.9-3.6-0.9c-1.1-0.6-2.3-0.9-3.6-0.9c-1.1-0.6-2.3-0.9-3.6-0.9c-1.1-0.6-2.3-0.9-3.6-0.9c-1.1-0.6-2.3-0.9-3.6-0.9
		c-1.1-0.6-2.3-0.9-3.6-0.9c-1.1-0.6-2.3-0.9-3.6-0.9c-1.1-0.6-2.3-0.9-3.6-0.9c-1.1-0.6-2.3-0.9-3.6-0.9c-1.1-0.6-2.3-0.9-3.6-0.9
		c-1.1-0.6-2.3-0.9-3.6-0.9c-1.1-0.6-2.3-0.9-3.6-0.9c-1.1-0.6-2.3-0.9-3.6-0.9c-1.1-0.6-2.3-0.9-3.6-0.9c-1.1-0.6-2.3-0.9-3.6-0.9
		c-1.1-0.6-2.3-0.9-3.6-0.9c-1.1-0.6-2.3-0.9-3.6-0.9c-1.1-0.6-2.3-0.9-3.6-0.9c-1.1-0.6-2.3-0.9-3.6-0.9c-1.1-0.6-2.3-0.9-3.6-0.9
		c-1.1-0.6-2.3-0.9-3.6-0.9c-1.1-0.6-2.3-0.9-3.6-0.9c-1.1-0.6-2.3-0.9-3.6-0.9c-1.1-0.6-2.3-0.9-3.6-0.9c-1.1-0.6-2.3-0.9-3.6-0.9
		c-1.1-0.6-2.3-0.9-3.6-0.9c-1.1-0.6-2.3-0.9-3.6-0.9c-1.1-0.6-2.3-0.9-3.6-0.9c-1.1-0.6-2.3-0.9-3.6-0.9c-1.1-0.6-2.3-0.9-3.6-0.9
		c-1.1-0.6-2.3-0.9-3.6-0.9c-1.1-0.6-2.3-0.9-3.6-0.9c-1.1-0.6-2.3-0.9-3.6-0.9c-1.1-0.6-2.3-0.9-3.6-0.9c-1.1-0.6-2.3-0.9-3.6-0.9
		c-1.1-0.6-2.3-0.9-3.6-0.9c-1.1-0.6-2.3-0.9-3.6-0.9c-1.1-0.6-2.3-0.9-3.6-0.9c-1.1-0.6-2.3-0.9-3.6-0.9c-1.1-0.6-2.3-0.9-3.6-0.9
		c-1.1-0.6-2.3-0.9-3.6-0.9c-1.1-0.6-2.3-0.9-3.6-0.9c-1.1-0.6-2.3-0.9-3.6-0.9c-1.1-0.6-2.3-0.9-3.6-0.9c-1.1-0.6-2.3-0.9-3.6-0.9
		c-1.1-0.6-2.3-0.9-3.6-0.9c-1.1-0.6-2.3-0.9-3.6-0.9c-1.1-0.6-2.3-0.9-3.6-0.9c-1.1-0.6-2.3-0.9-3.6-0.9c-1.1-0.6-2.3-0.9-3.6-0.9
		c-1.1-0.6-2.3-0.9-3.6-0.9c-1.1-0.6-2.3-0.9-3.6-0.9c-1.1-0.6-2.3-0.9-3.6-0.9c-1.1-0.6-2.3-0.9-3.6-0.9c-1.1-0.6-2.3-0.9-3.6-0.9
		c-1.1-0.6-2.3-0.9-3.6-0.9c-1.1-0.6-2.3-0.9-3.6-0.9c-1.4-0.8-3.1-1.1-4.7-0.9c-1-0.5-2.2-0.8-3.4-0.9c-1.1-0.6-2.3-0.9-3.5-0.9
		c-1.1-0.6-2.3-0.9-3.5-0.9c-1.1-0.6-2.3-0.9-3.5-0.9c-1.1-0.6-2.3-0.9-3.5-0.9c-1.1-0.6-2.3-0.9-3.5-0.9c-1.1-0.6-2.3-0.9-3.5-0.9
		c-4.1-2.2-10.1-0.6-11.7,5.2l0,0c-0.2,0.6-0.4,1.2-0.6,1.7c-0.2,0-0.4,0-0.6,0c-1.1-0.6-2.3-0.9-3.5-0.9c-1.1-0.6-2.3-0.9-3.5-0.9
		c-1.1-0.6-2.3-0.9-3.5-0.9c-1.1-0.6-2.3-0.9-3.5-0.9c-1.1-0.6-2.3-0.9-3.5-0.9c-4.9-2.7-12.4,0.7-12,7.8c0.2,3.2-1.3,5.7-3.5,7.2
		C72.3,17.8,71.4,17.7,70.6,17.6z"/>
	<g>
		<g>
			<polygon fill="#504898" points="412.4,309.5 411.4,312.4 56.7,197.3 57.7,194.4 			"/>
		</g>
		<g>
			<polygon fill="#504898" points="385.1,289.6 384.1,292.4 32.3,178.6 33.2,175.7 			"/>
		</g>
		<g>
			<polygon fill="#504898" points="363.7,266.2 362.7,269.1 14.9,153 15.8,150.1 			"/>
		</g>
		<g>
			<polygon fill="#504898" points="355.8,232.3 354.9,235.2 6.2,123 7.2,120.2 			"/>
		</g>
		<g>
			<polygon fill="#504898" points="353.3,196.4 352.3,199.3 7.2,91.6 8.1,88.7 			"/>
		</g>
		<g>
			<polygon fill="#504898" points="363.4,164.9 362.5,167.8 17.6,61.8 18.5,58.9 			"/>
		</g>
		<g>
			<polygon fill="#504898" points="380.2,134.3 379.3,137.3 41.9,37.7 42.7,34.8 			"/>
		</g>
		<g>
			<polygon fill="#504898" points="407.8,111.5 407,114.4 59.8,16.2 60.6,13.3 			"/>
		</g>
		<g>
			<polygon fill="#504898" points="441.8,99.2 441,102.1 105.7,9.3 106.5,6.4 			"/>
		</g>
	</g>
	<path fill="#58519E" d="M362.3,262.4l12.2-10.2c4.8-4,1.9-11.9-4.3-11.4l-15.6,1.2c-7.2,0.6-9.4-9.7-2.6-12.4l14.7-5.9
		c5.8-2.3,5.4-10.8-0.6-12.3l-15.1-3.8c-7-1.7-5.9-12.2,1.3-12.7l15.6-1.1c6.2-0.4,8.3-8.7,3.2-12l-13.1-8.4
		c-6.1-3.9-1.9-13.6,5.1-11.8l15.1,3.9c6,1.5,10.5-5.7,6.6-10.5l-9.9-12.1c-4.6-5.6,2.4-13.6,8.4-9.7l13.1,8.5
		c5.2,3.3,11.6-2.1,9.4-7.9l-5.6-14.7c-2.6-6.8,6.4-12.3,10.9-6.6l9.8,12.2c3.9,4.8,11.6,1.6,11.3-4.6l-0.8-15.9
		c-0.4-7.4,9.7-9.8,12.3-2.9l5.5,14.8c2.2,5.8,10.5,5.2,12.1-0.9l4-15.5c1.9-7.2,12.1-6.3,12.5,1.1l0.7,15.9c0.3,6.3,8.3,8.3,11.7,3
		l8.5-13.6c3.9-6.3,13.4-2.2,11.5,5l-4.1,15.5c-1.6,6.1,5.3,10.6,10.1,6.5l12.2-10.3c5.6-4.8,13.3,2.1,9.3,8.4l-8.6,13.5
		c-3.4,5.3,1.8,11.8,7.6,9.4l14.6-6.1c6.8-2.8,11.9,6.2,6.2,10.9l-12.2,10.2c-4.8,4-1.9,11.9,4.3,11.4l15.6-1.2
		c7.2-0.6,9.4,9.7,2.6,12.4l-14.7,5.9c-5.8,2.3-5.4,10.8,0.6,12.3l15.1,3.8c7,1.7,5.9,12.2-1.3,12.7l-15.6,1.1
		c-6.2,0.4-8.3,8.7-3.2,12l13.1,8.4c6.1,3.9,1.9,13.6-5.1,11.8l-15.1-3.9c-6-1.5-10.5,5.7-6.6,10.5l9.9,12.1
		c4.6,5.6-2.4,13.6-8.4,9.7l-13.1-8.5c-5.2-3.3-11.6,2.1-9.4,7.9l5.6,14.7c2.6,6.8-6.4,12.3-10.9,6.6l-9.8-12.2
		c-3.9-4.8-11.6-1.6-11.3,4.6l0.8,15.9c0.4,7.4-9.7,9.8-12.3,2.9l-5.5-14.8c-2.2-5.8-10.5-5.2-12.1,0.9l-4,15.5
		c-1.9,7.2-12.1,6.3-12.5-1.1l-0.7-15.9c-0.3-6.3-8.3-8.3-11.7-3l-8.5,13.6c-3.9,6.3-13.4,2.2-11.5-5l4.1-15.5
		c1.6-6.1-5.3-10.6-10.1-6.5l-12.2,10.3c-5.6,4.8-13.3-2.1-9.3-8.4l8.6-13.5c3.4-5.3-1.8-11.8-7.6-9.4l-14.6,6.1
		C361.8,276.2,356.7,267.2,362.3,262.4z"/>
</g>
</svg>
