<?xml version="1.0" encoding="utf-8"?>
<!-- Generator: Adobe Illustrator 19.2.1, SVG Export Plug-In . SVG Version: 6.00 Build 0)  -->
<svg version="1.1" id="Camada_1" xmlns="http://www.w3.org/2000/svg" xmlns:xlink="http://www.w3.org/1999/xlink" x="0px" y="0px"
	 viewBox="0 0 1200 1200" style="enable-background:new 0 0 1200 1200;" xml:space="preserve">
<style type="text/css">
	.st0{fill:#4B4B4B;}
	.st1{fill:#E056FD;}
	.st2{fill:#1DD1A1;}
	.st3{fill:#7158E2;}
	.st4{fill:#140F4C;}
	.st5{fill:#F368E0;}
	.st6{fill:#222147;}
</style>
<g>
	<polygon class="st0" points="594,148.1 593.9,145 623.1,144.1 623.2,147.1 	"/>
	<ellipse transform="matrix(0.9748 -0.2232 0.2232 0.9748 -16.8873 142.5455)" class="st1" cx="622.2" cy="146" rx="4.3" ry="4.3"/>
	<polygon class="st0" points="602.3,73.6 605.1,74.7 588.7,115.7 585.9,114.6 	"/>
	<polygon class="st0" points="607.4,75.9 610.3,77 593.9,118 591,116.9 	"/>
	<polygon class="st0" points="597.7,147.5 594.7,148.2 587.2,117.8 590.1,117.1 	"/>
	<polygon class="st0" points="558.3,86.5 556.2,88.7 588.5,118.9 590.6,116.7 	"/>
	
		<rect x="506.6" y="76.7" transform="matrix(0.2332 -0.9724 0.9724 0.2332 323.5735 566.8311)" class="st0" width="29.2" height="3.1"/>
	<polygon class="st0" points="497.9,82.3 499.3,79.5 520.7,89.8 519.4,92.6 	"/>
	
		<rect x="517.7" y="91.5" transform="matrix(0.999 -4.460022e-002 4.460022e-002 0.999 -3.6121 24.1702)" class="st0" width="44.2" height="3.1"/>
	
		<rect x="533.5" y="107.8" transform="matrix(0.4703 -0.8825 0.8825 0.4703 197.8349 548.2092)" class="st0" width="44.1" height="3.1"/>
	
		<rect x="528.6" y="104.9" transform="matrix(0.4703 -0.8825 0.8825 0.4703 197.7653 542.4032)" class="st0" width="44.1" height="3.1"/>
	<polygon class="st0" points="518.3,89.7 521,91.1 507.7,117.1 504.9,115.7 	"/>
	
		<ellipse transform="matrix(0.1985 -0.9801 0.9801 0.1985 411.1265 655.1462)" class="st2" cx="606.1" cy="76.2" rx="8.6" ry="8.6"/>
	<path class="st2" d="M588.5,149.5c-1.9-4.3,0-9.4,4.3-11.3s9.4,0,11.3,4.3c1.9,4.3,0,9.4-4.3,11.3
		C595.5,155.7,590.5,153.8,588.5,149.5z"/>
	
		<ellipse transform="matrix(0.3054 -0.9522 0.9522 0.3054 256.6859 604.8569)" class="st2" cx="542.9" cy="126.5" rx="8.6" ry="8.6"/>
	<ellipse transform="matrix(0.9906 -0.1368 0.1368 0.9906 -6.3724 68.9963)" class="st1" cx="498.8" cy="80.9" rx="4.3" ry="4.3"/>
	
		<ellipse transform="matrix(4.420100e-002 -0.999 0.999 4.420100e-002 436.5006 586.4697)" class="st1" cx="524.7" cy="65.1" rx="4.3" ry="4.3"/>
	
		<ellipse transform="matrix(0.2768 -0.9609 0.9609 0.2768 255.4199 570.0734)" class="st1" cx="506.4" cy="115.3" rx="4.3" ry="4.3"/>
	<path class="st3" d="M581.9,109.1c-3.7,4.4-3.2,10.9,1.1,14.6c4.4,3.7,10.9,3.2,14.7-1.1s3.2-10.9-1.1-14.6
		C592.2,104.3,585.6,104.8,581.9,109.1z"/>
	<ellipse class="st3" cx="518.8" cy="92.4" rx="10.4" ry="10.4"/>
	<ellipse class="st3" cx="561.3" cy="92.1" rx="10.4" ry="10.4"/>
</g>
<g id="ENZIMA_1_">
	<path class="st4" d="M640.1,221c0.9,0,1.7-0.2,2.4-0.5c0.7-0.4,1.3-0.8,1.8-1.4l2.7,2c-0.8,1-1.8,1.8-3,2.3
		c-1.2,0.6-2.5,0.9-3.9,0.9c-1.2,0-2.3-0.2-3.4-0.6c-1.1-0.4-2-1-2.8-1.8c-0.8-0.8-1.4-1.6-1.9-2.6c-0.5-1-0.7-2.1-0.7-3.2
		c0-1.1,0.2-2.2,0.7-3.2c0.5-1,1.1-1.9,1.9-2.6c0.8-0.8,1.7-1.3,2.8-1.8c1.1-0.4,2.2-0.6,3.4-0.6c1.4,0,2.7,0.3,3.9,0.9
		c1.2,0.6,2.2,1.4,3,2.4l-2.7,2c-0.5-0.6-1.1-1.1-1.8-1.4c-0.7-0.3-1.5-0.5-2.4-0.5c-0.7,0-1.4,0.1-2.1,0.4
		c-0.7,0.3-1.2,0.6-1.7,1.1c-0.5,0.5-0.9,1-1.1,1.6c-0.3,0.6-0.4,1.3-0.4,2c0,0.7,0.1,1.3,0.4,2c0.3,0.6,0.7,1.2,1.1,1.6
		c0.5,0.5,1.1,0.8,1.7,1.1C638.6,220.9,639.3,221,640.1,221z"/>
	<path class="st4" d="M661,207.6c1.2,0,2.4,0.2,3.4,0.6c1.1,0.4,2,1,2.8,1.8c0.8,0.8,1.4,1.6,1.9,2.6c0.5,1,0.7,2.1,0.7,3.2
		c0,1.2-0.2,2.2-0.7,3.2c-0.5,1-1.1,1.9-1.9,2.6c-0.8,0.8-1.7,1.3-2.8,1.8c-1.1,0.4-2.2,0.6-3.4,0.6c-1.2,0-2.4-0.2-3.4-0.6
		c-1.1-0.4-2-1-2.8-1.8c-0.8-0.8-1.4-1.6-1.9-2.6c-0.5-1-0.7-2.1-0.7-3.2c0-1.2,0.2-2.2,0.7-3.2c0.5-1,1.1-1.9,1.9-2.6
		c0.8-0.8,1.7-1.3,2.8-1.8C658.6,207.8,659.8,207.6,661,207.6z M661,221c0.7,0,1.4-0.1,2.1-0.4c0.7-0.3,1.2-0.6,1.7-1.1
		c0.5-0.5,0.9-1,1.1-1.6c0.3-0.6,0.4-1.3,0.4-2c0-0.7-0.1-1.3-0.4-2c-0.3-0.6-0.7-1.2-1.1-1.6c-0.5-0.5-1.1-0.8-1.7-1.1
		c-0.7-0.3-1.3-0.4-2.1-0.4c-0.7,0-1.4,0.1-2.1,0.4c-0.7,0.3-1.2,0.6-1.7,1.1c-0.5,0.5-0.9,1-1.2,1.6c-0.3,0.6-0.4,1.3-0.4,2
		c0,0.7,0.1,1.3,0.4,2c0.3,0.6,0.7,1.2,1.2,1.6c0.5,0.5,1.1,0.8,1.7,1.1C659.6,220.9,660.3,221,661,221z"/>
	<path class="st4" d="M675.1,224.2l10-23.1l10,23.1h-3.6l-0.7-1.8h-11.2l-0.8,1.8H675.1z M680.6,219.4h8.7l-4.4-10.6L680.6,219.4z"
		/>
</g>
<g id="NAD_1_">
	<path class="st4" d="M633.6,193.3h-2.8v-20.8l13.2,15.8v-15.4h2.8v20.4H644l-10.5-12.9V193.3L633.6,193.3z"/>
	<path class="st4" d="M651.2,193.2l8.3-20.4l8.3,20.4h-3l-0.6-1.6h-9.3l-0.6,1.6H651.2z M655.8,189h7.3l-3.6-9.3L655.8,189z"/>
	<path class="st4" d="M679.3,172.8c1.4,0,2.7,0.3,3.9,0.8c1.2,0.5,2.2,1.3,3.1,2.2c0.9,0.9,1.6,2,2.1,3.2c0.5,1.2,0.8,2.6,0.8,4
		s-0.3,2.7-0.8,4c-0.5,1.2-1.2,2.3-2.1,3.2c-0.9,0.9-1.9,1.6-3.1,2.2c-1.2,0.5-2.5,0.8-3.9,0.8h-7.1v-20.4H679.3z M679,190.6
		c1,0,2-0.2,2.9-0.6c0.9-0.4,1.6-0.9,2.3-1.6c0.6-0.7,1.1-1.5,1.5-2.4c0.4-0.9,0.5-1.9,0.5-2.9c0-1-0.2-2-0.5-2.9
		c-0.4-0.9-0.8-1.7-1.5-2.4c-0.6-0.7-1.4-1.2-2.3-1.6c-0.9-0.4-1.8-0.6-2.8-0.6h-3.8v15.2C675.2,190.6,679,190.6,679,190.6z"/>
	<path class="st4" d="M696.5,172.9v3.3h3.1v0.8h-3.1v3.3h-0.9V177h-3.1v-0.8h3.1v-3.3H696.5z"/>
</g>
<g id="NADH_1_">
	<path class="st4" d="M133.1,211.1h-2.7v-20l12.7,15.2v-14.8h2.7v19.6h-2.6l-10.1-12.4L133.1,211.1L133.1,211.1z"/>
	<path class="st4" d="M150,211l8-19.6l8,19.6h-2.9l-0.6-1.6h-9l-0.6,1.6H150z M154.5,207h7l-3.5-9L154.5,207z"/>
	<path class="st4" d="M177.1,191.5c1.3,0,2.6,0.3,3.7,0.8s2.2,1.2,3,2.1c0.9,0.9,1.5,1.9,2,3.1c0.5,1.2,0.7,2.5,0.7,3.8
		s-0.2,2.6-0.7,3.8c-0.5,1.2-1.1,2.2-2,3.1c-0.8,0.9-1.9,1.6-3,2.1c-1.2,0.5-2.4,0.8-3.8,0.8h-6.8v-19.6H177.1z M176.7,208.5
		c1,0,1.9-0.2,2.8-0.6s1.6-0.9,2.2-1.6c0.6-0.7,1.1-1.4,1.4-2.3c0.3-0.9,0.5-1.8,0.5-2.8s-0.2-1.9-0.5-2.8c-0.3-0.9-0.8-1.7-1.4-2.3
		s-1.3-1.2-2.2-1.6c-0.8-0.4-1.7-0.6-2.7-0.6h-3.7v14.6L176.7,208.5L176.7,208.5z"/>
	<path class="st4" d="M201.3,191.5h2.9V211h-2.9v-3.5V205h-7.6v2.6v3.5h-2.9v-19.6h2.9v3.4v5v2.5v0.1h7.6v-0.1v-2.5v-5V191.5z"/>
</g>
<g id="co2">
	<polygon class="st0" points="942.5,757.5 940.8,759.2 916.6,733.6 918.4,731.9 	"/>
	<polygon class="st0" points="939.1,760.4 937.4,762.1 913.2,736.6 915,734.9 	"/>
	
		<rect x="887.4" y="747" transform="matrix(0.7201 -0.6939 0.6939 0.7201 -265.8673 837.4251)" class="st0" width="35.2" height="2.4"/>
	
		<rect x="884.5" y="743.7" transform="matrix(0.7201 -0.6939 0.6939 0.7201 -264.3766 834.4131)" class="st0" width="35.2" height="2.4"/>
	
		<ellipse transform="matrix(0.5919 -0.806 0.806 0.5919 -228.7699 1067.0294)" class="st2" cx="939.3" cy="759.4" rx="6.8" ry="6.8"/>
	
		<ellipse transform="matrix(0.5848 -0.8112 0.8112 0.5848 -244.9088 1037.7419)" class="st2" cx="891.2" cy="758.1" rx="6.8" ry="6.8"/>
	<ellipse class="st3" cx="915.7" cy="735" rx="8.3" ry="8.3"/>
</g>
<g id="acetiL_x5F_coA">
	<g>
		<path class="st4" d="M602.6,346c0.8,0,1.6-0.2,2.3-0.5s1.3-0.8,1.8-1.4l2.6,1.9c-0.8,0.9-1.7,1.7-2.9,2.3
			c-1.2,0.6-2.4,0.8-3.8,0.8c-1.2,0-2.2-0.2-3.3-0.6c-1-0.4-1.9-1-2.7-1.7c-0.8-0.7-1.4-1.6-1.8-2.5c-0.4-1-0.7-2-0.7-3.1
			c0-1.1,0.2-2.1,0.7-3.1c0.4-1,1.1-1.8,1.8-2.5c0.8-0.7,1.7-1.3,2.7-1.7c1-0.4,2.1-0.6,3.3-0.6c1.4,0,2.6,0.3,3.8,0.8
			s2.1,1.3,2.9,2.3l-2.6,1.9c-0.5-0.6-1.1-1-1.8-1.4c-0.7-0.3-1.5-0.5-2.3-0.5c-0.7,0-1.4,0.1-2,0.4s-1.2,0.6-1.7,1
			c-0.5,0.4-0.8,1-1.1,1.6c-0.3,0.6-0.4,1.2-0.4,1.9s0.1,1.3,0.4,1.9c0.3,0.6,0.6,1.1,1.1,1.6c0.5,0.4,1,0.8,1.7,1.1
			C601.2,345.9,601.9,346,602.6,346z"/>
		<path class="st4" d="M622.8,333.1c1.2,0,2.3,0.2,3.3,0.6c1,0.4,1.9,1,2.7,1.7c0.8,0.7,1.4,1.6,1.8,2.5c0.4,1,0.7,2,0.7,3.1
			s-0.2,2.2-0.7,3.1c-0.4,1-1,1.8-1.8,2.5c-0.8,0.7-1.7,1.3-2.7,1.7c-1,0.4-2.1,0.6-3.3,0.6s-2.3-0.2-3.3-0.6c-1-0.4-1.9-1-2.7-1.7
			c-0.8-0.7-1.4-1.6-1.8-2.5c-0.4-1-0.7-2-0.7-3.1s0.2-2.2,0.7-3.1c0.4-1,1-1.8,1.8-2.5c0.8-0.7,1.7-1.3,2.7-1.7
			C620.5,333.3,621.6,333.1,622.8,333.1z M622.8,346c0.7,0,1.4-0.1,2-0.4s1.2-0.6,1.6-1s0.8-1,1.1-1.6c0.3-0.6,0.4-1.2,0.4-1.9
			c0-0.7-0.1-1.3-0.4-1.9c-0.3-0.6-0.6-1.1-1.1-1.6c-0.5-0.4-1-0.8-1.6-1c-0.6-0.3-1.3-0.4-2-0.4s-1.4,0.1-2,0.4s-1.2,0.6-1.6,1
			s-0.8,1-1.1,1.6c-0.3,0.6-0.4,1.2-0.4,1.9s0.1,1.3,0.4,1.9c0.3,0.6,0.7,1.1,1.1,1.6c0.5,0.4,1,0.8,1.6,1
			C621.4,345.9,622.1,346,622.8,346z"/>
		<path class="st4" d="M636.3,349.1l9.6-22.3l9.6,22.3H652l-0.7-1.8h-10.8l-0.7,1.8H636.3z M641.7,344.5h8.4l-4.2-10.2L641.7,344.5z
			"/>
	</g>
	<rect x="556.6" y="305" transform="matrix(0.684 -0.7295 0.7295 0.684 -59.6916 509.157)" class="st0" width="2.6" height="37"/>
	
		<rect x="578.7" y="325.7" transform="matrix(0.3086 -0.9512 0.9512 0.3086 79.7924 785.1806)" class="st0" width="2.6" height="23.9"/>
	
		<rect x="501.9" y="301.7" transform="matrix(0.2336 -0.9723 0.9723 0.2336 99.4576 732.1456)" class="st0" width="24.5" height="2.6"/>
	
		<rect x="503" y="299.5" transform="matrix(0.4328 -0.9015 0.9015 0.4328 7.0026 630.1367)" class="st0" width="2.6" height="19.9"/>
	
		<rect x="511.3" y="314.1" transform="matrix(0.999 -4.450042e-002 4.450042e-002 0.999 -13.5092 23.8884)" class="st0" width="37" height="2.6"/>
	
		<rect x="531" y="295.1" transform="matrix(0.1786 -0.9839 0.9839 0.1786 159.7258 784.1592)" class="st0" width="37" height="2.6"/>
	
		<rect x="535.6" y="296.2" transform="matrix(0.1786 -0.9839 0.9839 0.1786 162.5037 789.5338)" class="st0" width="37" height="2.6"/>
	
		<rect x="495" y="322.7" transform="matrix(0.455 -0.8905 0.8905 0.455 -12.0779 628.3141)" class="st0" width="24.5" height="2.6"/>
	<g id="oxigenios_1_">
		<circle class="st2" cx="555.2" cy="279.5" r="7.2"/>
	</g>
	<g id="Hidrogenios_2_">
		<ellipse transform="matrix(0.9906 -0.137 0.137 0.9906 -37.1372 70.7533)" class="st1" cx="495.5" cy="305.2" rx="3.6" ry="3.6"/>
		
			<ellipse transform="matrix(4.430081e-002 -0.999 0.999 4.430081e-002 202.5471 795.6912)" class="st1" cx="517.2" cy="292" rx="3.6" ry="3.6"/>
		<ellipse transform="matrix(0.2772 -0.9608 0.9608 0.2772 41.7728 723.6028)" class="st1" cx="501.8" cy="334" rx="3.6" ry="3.6"/>
	</g>
	
		<ellipse id="Enxofre_2_" transform="matrix(0.6508 -0.7592 0.7592 0.6508 -54.9909 552.2858)" class="st5" cx="572.9" cy="335.9" rx="10.1" ry="10.1"/>
	<g>
		<circle class="st3" cx="512.2" cy="314.8" r="8.7"/>
		<circle class="st3" cx="547.7" cy="314.6" r="8.7"/>
	</g>
</g>
<g id="acido_oxaloacetico">
	
		<rect x="349.3" y="267.2" transform="matrix(3.999999e-002 -0.9992 0.9992 3.999999e-002 84.145 624.5409)" class="st0" width="35.6" height="2.5"/>
	
		<rect x="353.8" y="267.6" transform="matrix(3.999999e-002 -0.9992 0.9992 3.999999e-002 88.1291 629.4059)" class="st0" width="35.6" height="2.5"/>
	
		<rect x="317.2" y="246.8" transform="matrix(0.9999 -1.130041e-002 1.130041e-002 0.9999 -2.9699 3.6152)" class="st0" width="2.5" height="35.6"/>
	
		<rect x="321.7" y="247" transform="matrix(0.9999 -1.130041e-002 1.130041e-002 0.9999 -2.9711 3.6665)" class="st0" width="2.5" height="35.6"/>
	<rect x="329.4" y="271.3" transform="matrix(0.5 -0.866 0.866 0.5 -81.3182 428.7585)" class="st0" width="2.5" height="27.1"/>
	
		<rect x="381.2" y="271.5" transform="matrix(0.3603 -0.9328 0.9328 0.3603 -25.2478 541.7735)" class="st0" width="2.5" height="35.6"/>
	
		<rect x="297.7" y="282" transform="matrix(0.9574 -0.2888 0.2888 0.9574 -68.6143 101.4451)" class="st0" width="23.5" height="2.5"/>
	
		<rect x="291.5" y="272.4" transform="matrix(0.7777 -0.6286 0.6286 0.7777 -112.3674 246.7573)" class="st0" width="2.5" height="19.6"/>
	
		<rect x="399.9" y="290.4" transform="matrix(0.9383 -0.3457 0.3457 0.9383 -75.4189 160.3141)" class="st0" width="23.5" height="2.5"/>
	
		<rect x="426.4" y="282.6" transform="matrix(0.3486 -0.9373 0.9373 0.3486 4.4923 591.3279)" class="st0" width="2.5" height="19.6"/>
	
		<rect x="383.6" y="309" transform="matrix(1.729914e-002 -0.9999 0.9999 1.729914e-002 84.2262 706.1566)" class="st0" width="35.6" height="2.5"/>
	
		<rect x="379" y="308.7" transform="matrix(1.729914e-002 -0.9999 0.9999 1.729914e-002 80.0281 701.3748)" class="st0" width="35.6" height="2.5"/>
	
		<rect x="341.4" y="285.4" transform="matrix(0.9805 -0.1963 0.1963 0.9805 -49.3023 75.8976)" class="st0" width="33.5" height="2.5"/>
	
		<rect x="327.8" y="293" transform="matrix(0.6314 -0.7755 0.7755 0.6314 -102.9676 371.7533)" class="st0" width="23.5" height="2.5"/>
	
		<rect x="345.5" y="288.5" transform="matrix(0.8805 -0.4741 0.4741 0.8805 -99.87 200.0197)" class="st0" width="2.5" height="19.2"/>
	<g id="oxigenios_29_">
		<ellipse transform="matrix(0.9903 -0.139 0.139 0.9903 -31.3786 53.9052)" class="st2" cx="370.2" cy="251.6" rx="6.9" ry="6.9"/>
	</g>
	<circle class="st2" cx="298.3" cy="288.2" r="6.9"/>
	<circle class="st1" cx="286.5" cy="274.7" r="3.4"/>
	
		<ellipse transform="matrix(0.8374 -0.5465 0.5465 0.8374 -89.7554 276.3905)" class="st2" cx="419.7" cy="289.1" rx="6.9" ry="6.9"/>
	
		<ellipse transform="matrix(0.9481 -0.3181 0.3181 0.9481 -71.4336 154.3334)" class="st1" cx="436.9" cy="295.9" rx="3.4" ry="3.4"/>
	<circle class="st3" cx="320.7" cy="280.1" r="8.4"/>
	<g id="oxigenios_28_">
		
			<ellipse transform="matrix(0.9818 -0.1897 0.1897 0.9818 -41.1491 65.3231)" class="st2" cx="320.6" cy="247.6" rx="6.9" ry="6.9"/>
	</g>
	<circle class="st3" cx="399.2" cy="295.1" r="8.4"/>
	<g id="oxigenios_19_">
		
			<ellipse transform="matrix(0.9869 -0.1616 0.1616 0.9869 -47.6233 68.7147)" class="st2" cx="398.6" cy="327.1" rx="6.9" ry="6.9"/>
	</g>
	<circle class="st3" cx="343.3" cy="291.4" r="8.4"/>
	
		<ellipse transform="matrix(0.4723 -0.8815 0.8815 0.4723 -84.768 471.2623)" class="st1" cx="351.2" cy="306.4" rx="3.4" ry="3.4"/>
	
		<ellipse transform="matrix(0.4723 -0.8815 0.8815 0.4723 -91.2246 452.6966)" class="st1" cx="332.5" cy="302.5" rx="3.4" ry="3.4"/>
	
		<ellipse transform="matrix(0.6858 -0.7278 0.7278 0.6858 -91.0847 358.6293)" class="st3" cx="369.8" cy="284.8" rx="8.4" ry="8.4"/>
</g>
<g id="h2o">
	
		<rect x="959.7" y="525.5" transform="matrix(0.8118 -0.5839 0.5839 0.8118 -124.7717 666.1371)" class="st0" width="22.8" height="2.4"/>
	
		<rect x="977.7" y="520.6" transform="matrix(0.9737 -0.228 0.228 0.9737 -95.0271 237.1306)" class="st0" width="2.4" height="18.6"/>
	
		<ellipse transform="matrix(0.6858 -0.7278 0.7278 0.6858 -83.9127 883.1569)" class="st1" cx="980.9" cy="538.8" rx="3.3" ry="3.3"/>
	
		<ellipse transform="matrix(0.6858 -0.7278 0.7278 0.6858 -85.2731 867.6957)" class="st1" cx="962.3" cy="532.6" rx="3.3" ry="3.3"/>
	<g id="oxigenios_38_">
		
			<ellipse transform="matrix(0.8051 -0.5931 0.5931 0.8051 -120.4492 680.5182)" class="st2" cx="975.3" cy="523.6" rx="6.7" ry="6.7"/>
	</g>
</g>
<g id="citrato">
	
		<rect x="937.8" y="371.2" transform="matrix(0.4269 -0.9043 0.9043 0.4269 190.0424 1069.7589)" class="st0" width="2.4" height="27.4"/>
	
		<rect x="867.4" y="342" transform="matrix(0.4627 -0.8865 0.8865 0.4627 171.0766 968.5684)" class="st0" width="34.5" height="2.4"/>
	
		<rect x="871.2" y="344.1" transform="matrix(0.4627 -0.8865 0.8865 0.4627 171.1889 973.1249)" class="st0" width="34.5" height="2.4"/>
	<g id="oxigenios_34_">
		
			<ellipse transform="matrix(0.297 -0.9549 0.9549 0.297 313.9345 1085.7413)" class="st2" cx="894.3" cy="329.7" rx="6.7" ry="6.7"/>
	</g>
	<rect x="877" y="384.3" transform="matrix(0.866 -0.5 0.5 0.866 -79.221 491.869)" class="st0" width="2.4" height="19"/>
	
		<rect x="856.2" y="395.6" transform="matrix(0.343 -0.9393 0.9393 0.343 197.591 1076.1091)" class="st0" width="23.7" height="2.5"/>
	<g id="oxigenios_33_">
		
			<ellipse transform="matrix(0.8051 -0.5931 0.5931 0.8051 -73.1773 592.3721)" class="st2" cx="864.8" cy="407.5" rx="6.7" ry="6.7"/>
	</g>
	
		<rect x="855.1" y="327.7" transform="matrix(0.4328 -0.9015 0.9015 0.4328 181.8713 963.0885)" class="st0" width="2.4" height="18.6"/>
	
		<rect x="870" y="338.8" transform="matrix(0.7855 -0.6189 0.6189 0.7855 -29.282 614.0699)" class="st0" width="2.4" height="20.9"/>
	
		<rect x="824.5" y="393.8" transform="matrix(0.8118 -0.5839 0.5839 0.8118 -73.3175 562.4169)" class="st0" width="22.8" height="2.4"/>
	
		<rect x="842.8" y="387.1" transform="matrix(0.9737 -0.228 0.228 0.9737 -68.1426 202.853)" class="st0" width="2.4" height="18.6"/>
	
		<rect x="865.6" y="370.5" transform="matrix(0.1786 -0.9839 0.9839 0.1786 354.7599 1168.4042)" class="st0" width="23.1" height="2.4"/>
	
		<rect x="812.5" y="346.9" transform="matrix(1 -3.699975e-003 3.699975e-003 1 -1.3418 3.013)" class="st0" width="2.4" height="34.5"/>
	
		<rect x="816.9" y="347.1" transform="matrix(1 -3.699975e-003 3.699975e-003 1 -1.3423 3.0293)" class="st0" width="2.4" height="34.5"/>
	
		<rect x="829" y="363.9" transform="matrix(0.4328 -0.9015 0.9015 0.4328 124.9401 966.0381)" class="st0" width="2.4" height="39.6"/>
	
		<rect x="885.7" y="370.4" transform="matrix(0.2423 -0.9702 0.9702 0.2423 295.9492 1154.1477)" class="st0" width="2.4" height="34.5"/>
	
		<rect x="787.1" y="373.2" transform="matrix(0.7777 -0.6286 0.6286 0.7777 -65.3412 580.6255)" class="st0" width="2.4" height="19"/>
	
		<rect x="842" y="385.8" transform="matrix(0.9628 -0.2702 0.2702 0.9628 -72.6447 246.2851)" class="st0" width="32.5" height="2.4"/>
	<circle class="st3" cx="879.6" cy="358.5" r="8.1"/>
	<ellipse transform="matrix(0.9906 -0.137 0.137 0.9906 -37.6211 119.325)" class="st1" cx="848.1" cy="333" rx="3.3" ry="3.3"/>
	
		<ellipse transform="matrix(0.6858 -0.7278 0.7278 0.6858 -29.131 742.9943)" class="st1" cx="845.9" cy="405.2" rx="3.3" ry="3.3"/>
	
		<ellipse transform="matrix(0.6858 -0.7278 0.7278 0.6858 -14.768 768.5513)" class="st1" cx="882.7" cy="401.4" rx="3.3" ry="3.3"/>
	
		<ellipse transform="matrix(0.6858 -0.7278 0.7278 0.6858 -31.9019 727.9133)" class="st1" cx="827.1" cy="400.9" rx="3.3" ry="3.3"/>
	
		<rect x="893.7" y="383.6" transform="matrix(0.4401 -0.8979 0.8979 0.4401 161.1767 1028.1602)" class="st0" width="22.8" height="2.4"/>
	
		<rect x="896.9" y="375.9" transform="matrix(0.9877 -0.1565 0.1565 0.9877 -49.2191 145.3025)" class="st0" width="2.4" height="18.6"/>
	<ellipse transform="matrix(0.737 -0.6759 0.6759 0.737 -18.4409 705.0986)" class="st1" cx="896.8" cy="376.2" rx="3.3" ry="3.3"/>
	<ellipse transform="matrix(0.2612 -0.9653 0.9653 0.2612 309.9287 1155.811)" class="st1" cx="910" cy="375.4" rx="3.3" ry="3.3"/>
	<g id="oxigenios_32_">
		<circle class="st2" cx="863.4" cy="340.1" r="6.7"/>
	</g>
	<circle class="st2" cx="793.7" cy="388.5" r="6.7"/>
	
		<rect x="792.2" y="384.1" transform="matrix(0.8521 -0.5233 0.5233 0.8521 -82.8073 477.5165)" class="st0" width="22.8" height="2.4"/>
	
		<rect x="787.1" y="373.2" transform="matrix(0.7777 -0.6286 0.6286 0.7777 -65.3412 580.6255)" class="st0" width="2.4" height="19"/>
	<circle class="st2" cx="793.7" cy="388.5" r="6.7"/>
	<circle class="st1" cx="782.3" cy="375.4" r="3.3"/>
	
		<rect x="946.5" y="386.8" transform="matrix(0.8245 -0.5659 0.5659 0.8245 -51.7672 609.1021)" class="st0" width="19" height="2.4"/>
	
		<ellipse transform="matrix(0.3654 -0.9309 0.9309 0.3654 238.535 1133.5905)" class="st2" cx="950.6" cy="391.9" rx="6.7" ry="6.7"/>
	
		<rect x="946.5" y="386.8" transform="matrix(0.8245 -0.5659 0.5659 0.8245 -51.7672 609.1021)" class="st0" width="19" height="2.4"/>
	
		<ellipse transform="matrix(0.3654 -0.9309 0.9309 0.3654 238.535 1133.5905)" class="st2" cx="950.6" cy="391.9" rx="6.7" ry="6.7"/>
	
		<ellipse transform="matrix(7.820293e-002 -0.9969 0.9969 7.820293e-002 507.0172 1313.5327)" class="st1" cx="963.8" cy="382.6" rx="3.3" ry="3.3"/>
	<circle class="st3" cx="816.2" cy="379.7" r="8.1"/>
	<g id="oxigenios_31_">
		
			<ellipse transform="matrix(0.9832 -0.1823 0.1823 0.9832 -49.7113 154.5782)" class="st2" cx="816" cy="347.7" rx="6.7" ry="6.7"/>
	</g>
	
		<rect x="910.3" y="365.8" transform="matrix(1.870047e-002 -0.9998 0.9998 1.870047e-002 543.1761 1287.4939)" class="st0" width="34.5" height="2.4"/>
	
		<rect x="914.6" y="366.1" transform="matrix(1.870047e-002 -0.9998 0.9998 1.870047e-002 547.2299 1292.1321)" class="st0" width="34.5" height="2.4"/>
	
		<rect x="903.9" y="385.8" transform="matrix(0.9737 -0.228 0.228 0.9737 -64.129 218.8707)" class="st0" width="22.8" height="2.4"/>
	
		<ellipse transform="matrix(0.1042 -0.9946 0.9946 0.1042 451.8997 1267.5688)" class="st3" cx="929.6" cy="382.9" rx="8.1" ry="8.1"/>
	<g id="oxigenios_30_">
		
			<ellipse transform="matrix(0.9871 -0.1602 0.1602 0.9871 -44.1545 153.5378)" class="st2" cx="930.2" cy="350.6" rx="6.7" ry="6.7"/>
	</g>
	<circle class="st3" cx="901.5" cy="391.1" r="8.1"/>
	<circle class="st3" cx="843.5" cy="389.2" r="8.1"/>
	<ellipse transform="matrix(0.6858 -0.7278 0.7278 0.6858 -5.373 756.9403)" class="st3" cx="874" cy="384.7" rx="8.1" ry="8.1"/>
</g>
<g id="h2o_x5F_1">
	
		<rect x="881.7" y="437.2" transform="matrix(0.8118 -0.5839 0.5839 0.8118 -87.8867 604.0046)" class="st0" width="22.8" height="2.4"/>
	
		<rect x="899.7" y="432.3" transform="matrix(0.9737 -0.228 0.228 0.9737 -76.9517 217.0332)" class="st0" width="2.4" height="18.6"/>
	<ellipse transform="matrix(0.6858 -0.7278 0.7278 0.6858 -44.1469 798.67)" class="st1" cx="902.9" cy="450.5" rx="3.3" ry="3.3"/>
	
		<ellipse transform="matrix(0.6858 -0.7278 0.7278 0.6858 -45.5074 783.2087)" class="st1" cx="884.3" cy="444.3" rx="3.3" ry="3.3"/>
	<g id="oxigenios_35_">
		
			<ellipse transform="matrix(0.8051 -0.5931 0.5931 0.8051 -83.2767 617.0683)" class="st2" cx="897.4" cy="435.3" rx="6.7" ry="6.7"/>
	</g>
</g>
<g id="h2o_x5F_2">
	
		<rect x="593.2" y="405.8" transform="matrix(0.8118 -0.5839 0.5839 0.8118 -123.8755 429.6537)" class="st0" width="22.8" height="2.4"/>
	
		<rect x="611.2" y="401" transform="matrix(0.9737 -0.228 0.228 0.9737 -77.4053 150.4344)" class="st0" width="2.4" height="18.6"/>
	
		<ellipse transform="matrix(0.6858 -0.7278 0.7278 0.6858 -111.9786 578.8507)" class="st1" cx="614.4" cy="419.1" rx="3.3" ry="3.3"/>
	<ellipse transform="matrix(0.6858 -0.7278 0.7278 0.6858 -113.339 563.3893)" class="st1" cx="595.8" cy="413" rx="3.3" ry="3.3"/>
	<g id="oxigenios_36_">
		
			<ellipse transform="matrix(0.8051 -0.5931 0.5931 0.8051 -120.9094 439.844)" class="st2" cx="608.9" cy="403.9" rx="6.7" ry="6.7"/>
	</g>
</g>
<g id="isocitrato">
	
		<rect x="1130.8" y="583.6" transform="matrix(0.61 -0.7924 0.7924 0.61 -16.7125 1135.7391)" class="st0" width="29.4" height="2.6"/>
	
		<rect x="1070.2" y="558.9" transform="matrix(0.4627 -0.8865 0.8865 0.4627 85.0033 1260.6576)" class="st0" width="24.7" height="2.6"/>
	<g id="oxigenios_42_">
		<ellipse transform="matrix(0.297 -0.9549 0.9549 0.297 242.054 1425.2372)" class="st2" cx="1089" cy="548.2" rx="7.1" ry="7.1"/>
	</g>
	<rect x="1072.1" y="595.4" transform="matrix(0.866 -0.5 0.5 0.866 -158.9894 617.8522)" class="st0" width="2.6" height="20.3"/>
	
		<rect x="1051.2" y="599.2" transform="matrix(0.5853 -0.8108 0.8108 0.5853 -45.6906 1111.6222)" class="st0" width="25.4" height="2.6"/>
	<g id="oxigenios_41_">
		
			<ellipse transform="matrix(0.936 -0.3521 0.3521 0.936 -147.6744 411.1595)" class="st2" cx="1056.6" cy="611.6" rx="7.1" ry="7.1"/>
	</g>
	
		<rect x="1064.6" y="546.8" transform="matrix(0.7855 -0.6189 0.6189 0.7855 -116.6815 779.3439)" class="st0" width="2.6" height="22.4"/>
	
		<rect x="1014.9" y="605.9" transform="matrix(0.8118 -0.5839 0.5839 0.8118 -161.2266 713.9974)" class="st0" width="24.4" height="2.6"/>
	
		<rect x="1034.5" y="598.7" transform="matrix(0.9737 -0.228 0.228 0.9737 -111.4896 252.1681)" class="st0" width="2.6" height="19.9"/>
	
		<rect x="1059.9" y="580.7" transform="matrix(0.1786 -0.9839 0.9839 0.1786 308.1338 1533.1261)" class="st0" width="24.7" height="2.6"/>
	
		<rect x="988.3" y="586.8" transform="matrix(0.9445 -0.3286 0.3286 0.9445 -137.5419 362.2231)" class="st0" width="29.3" height="2.6"/>
	
		<rect x="1023" y="578.2" transform="matrix(0.6604 -0.7509 0.7509 0.6604 -97.1759 970.4102)" class="st0" width="2.6" height="29"/>
	
		<rect x="1083" y="581.1" transform="matrix(0.1786 -0.9839 0.9839 0.1786 300.6925 1559.2963)" class="st0" width="2.6" height="36.9"/>
	
		<rect x="1009.3" y="560.7" transform="matrix(0.9914 -0.1308 0.1308 0.9914 -66.2483 137.1037)" class="st0" width="2.6" height="24.4"/>
	
		<rect x="1031" y="596.8" transform="matrix(0.9877 -0.1565 0.1565 0.9877 -80.686 171.4386)" class="st0" width="34.8" height="2.6"/>
	<circle class="st3" cx="1074.9" cy="567.9" r="8.7"/>
	
		<ellipse transform="matrix(0.6858 -0.7278 0.7278 0.6858 -123.7747 949.5588)" class="st1" cx="1037.8" cy="618.1" rx="3.6" ry="3.6"/>
	
		<ellipse transform="matrix(0.6858 -0.7278 0.7278 0.6858 -107.897 977.5729)" class="st1" cx="1078.2" cy="613.7" rx="3.6" ry="3.6"/>
	
		<ellipse transform="matrix(0.6858 -0.7278 0.7278 0.6858 -126.7404 933.419)" class="st1" cx="1017.7" cy="613.5" rx="3.6" ry="3.6"/>
	
		<rect x="1099.7" y="592.3" transform="matrix(0.6609 -0.7505 0.7505 0.6609 -68.4332 1035.7432)" class="st0" width="24.4" height="2.6"/>
	
		<rect x="1101.6" y="587.3" transform="matrix(0.9877 -0.1565 0.1565 0.9877 -79.8729 179.9592)" class="st0" width="2.6" height="19.9"/>
	
		<ellipse transform="matrix(0.737 -0.6759 0.6759 0.737 -107.4789 899.031)" class="st1" cx="1101.5" cy="587.6" rx="3.6" ry="3.6"/>
	
		<ellipse transform="matrix(0.506 -0.8626 0.8626 0.506 48.3914 1254.8729)" class="st1" cx="1119.7" cy="585.2" rx="3.6" ry="3.6"/>
	<g id="oxigenios_40_">
		<circle class="st2" cx="1057.6" cy="548.2" r="7.1"/>
	</g>
	
		<ellipse transform="matrix(0.7627 -0.6468 0.6468 0.7627 -123.7263 785.1162)" class="st2" cx="1008" cy="561.2" rx="7.1" ry="7.1"/>
	
		<rect x="1009.3" y="560.7" transform="matrix(0.9914 -0.1308 0.1308 0.9914 -66.2483 137.1037)" class="st0" width="2.6" height="24.4"/>
	
		<ellipse transform="matrix(0.7627 -0.6468 0.6468 0.7627 -123.7263 785.1162)" class="st2" cx="1008" cy="561.2" rx="7.1" ry="7.1"/>
	
		<ellipse transform="matrix(0.5556 -0.8315 0.8315 0.5556 30.2263 1213.6814)" class="st2" cx="1150.4" cy="578.6" rx="7.1" ry="7.1"/>
	
		<ellipse transform="matrix(0.7634 -0.6459 0.6459 0.7634 -136.9411 792.3894)" class="st3" cx="1013.2" cy="583.1" rx="8.7" ry="8.7"/>
	<g id="oxigenios_39_">
		
			<ellipse transform="matrix(0.8692 -0.4945 0.4945 0.8692 -162.716 568.2039)" class="st2" cx="992.6" cy="591.6" rx="7.1" ry="7.1"/>
	</g>
	
		<rect x="1141.2" y="593.5" transform="matrix(0.8097 -0.5868 0.5868 0.8097 -137.8534 785.6173)" class="st0" width="2.6" height="23.8"/>
	
		<rect x="1110.9" y="599.1" transform="matrix(0.981 -0.1941 0.1941 0.981 -95.1662 229.4063)" class="st0" width="24.4" height="2.6"/>
	
		<ellipse transform="matrix(0.7196 -0.6944 0.6944 0.7196 -95.6258 956.5018)" class="st3" cx="1136.5" cy="596.7" rx="8.7" ry="8.7"/>
	<g id="oxigenios_37_">
		
			<ellipse transform="matrix(0.6919 -0.722 0.722 0.6919 -89.8074 1019.3112)" class="st2" cx="1149.4" cy="614.9" rx="7.1" ry="7.1"/>
	</g>
	<circle class="st3" cx="1106.5" cy="603.5" r="8.7"/>
	<circle class="st3" cx="1035.3" cy="601" r="8.7"/>
	
		<ellipse transform="matrix(0.6858 -0.7278 0.7278 0.6858 -97.8423 965.1473)" class="st3" cx="1068.9" cy="595.9" rx="8.7" ry="8.7"/>
</g>
<g id="NAD_x5F_2">
	<path class="st4" d="M881.2,615.2h-2.7v-19.7l12.5,14.9v-14.6h2.7v19.3h-2.6l-9.9-12.2V615.2z"/>
	<path class="st4" d="M897.9,615.1l7.9-19.3l7.9,19.3h-2.9l-0.6-1.5h-8.8l-0.6,1.5H897.9z M902.3,611.1h6.9l-3.4-8.8L902.3,611.1z"
		/>
	<path class="st4" d="M924.5,595.8c1.3,0,2.5,0.3,3.6,0.8c1.1,0.5,2.1,1.2,3,2.1c0.8,0.9,1.5,1.9,2,3.1c0.5,1.2,0.7,2.4,0.7,3.8
		c0,1.3-0.2,2.6-0.7,3.8c-0.5,1.2-1.1,2.2-2,3.1c-0.8,0.9-1.8,1.6-3,2.1c-1.1,0.5-2.4,0.8-3.7,0.8h-6.7v-19.3L924.5,595.8
		L924.5,595.8z M924.2,612.6c1,0,1.9-0.2,2.7-0.6c0.8-0.4,1.5-0.9,2.1-1.5s1.1-1.4,1.4-2.3s0.5-1.8,0.5-2.8s-0.2-1.9-0.5-2.8
		c-0.3-0.9-0.8-1.6-1.4-2.3c-0.6-0.7-1.3-1.2-2.1-1.5c-0.8-0.4-1.7-0.6-2.7-0.6h-3.6v14.3L924.2,612.6L924.2,612.6z"/>
	<path class="st4" d="M940.8,595.9v3.1h3v0.8h-3v3.1h-0.8v-3.1h-3v-0.8h3v-3.1H940.8z"/>
</g>
<g>
	<path class="st6" d="M631.4,281.8c-9.3-2-18.6-4-27.9-6c-5.5-1.2-12.4-2.7-17.1-7.4c-3.7-3.7-5.4-8.7-6.6-13.2
		c-2.7-10.2-3.4-19.1-2-27.4c1.6-10,6.2-18.6,13.1-24.2c6.4-5.3,14.6-8,21.8-10.4l11.2-3.7l1,3.2l-11.2,3.7
		c-7.3,2.4-14.8,4.8-20.7,9.7c-6.2,5.2-10.4,13.1-11.9,22.2c-1.3,7.8-0.6,16.3,2,26c1.1,4,2.6,8.6,5.7,11.7c4,4,10.3,5.4,15.4,6.5
		c9.3,2,18.6,4,27.9,6L631.4,281.8z"/>
</g>
<g>
	<path class="st6" d="M631.3,403.9c5.9-9.4,11.7-18.9,17.6-28.3c3.5-5.6,26.3-12.1,33.3-15.4c5.5-2.6,11.7-2.5,17.1-2
		c12.2,1,22.3,3.8,30.9,8.5c10.3,5.7,17.9,14.2,21.5,23.9c3.3,9.1,3.1,19.1,2.8,28l-0.4,13.8l-3.9-0.1l0.4-13.8
		c0.2-8.9,0.5-18.1-2.6-26.5c-3.2-8.8-10.2-16.6-19.7-21.8c-8.1-4.4-17.6-7.1-29.3-8c-4.8-0.4-10.4-0.5-15.1,1.7
		c-6,2.8-28.5,8.7-31.7,13.9c-5.9,9.4-11.7,18.9-17.6,28.3L631.3,403.9z"/>
</g>
<g>
	<path class="st6" d="M917.2,424.8c10.4-3.9,20.8-7.9,31.1-11.8c6.2-2.3,28.2,6.3,35.8,8c5.9,1.3,10.8,5.1,14.8,8.7
		c9.1,8.2,15.4,16.6,19.4,25.5c4.7,10.8,5.7,22.1,2.6,32c-2.9,9.3-9.2,17.1-14.7,24l-8.7,10.7l-3-2.4l8.7-10.7
		c5.6-6.9,11.4-14.1,14.1-22.7c2.8-9,1.9-19.4-2.5-29.3c-3.7-8.4-9.7-16.3-18.4-24.2c-3.6-3.3-8-6.7-13-7.8
		c-6.5-1.4-27.9-10.3-33.6-8.2c-10.4,3.9-20.8,7.9-31.1,11.8L917.2,424.8z"/>
</g>
<polygon class="st4" points="564.9,231.3 548.4,248.8 548.4,167.8 543.4,167.8 543.4,248.8 524.7,235.5 521.8,239.6 547,257.5 
	568.5,234.7 "/>
<polygon class="st4" points="739.3,330.1 751.4,344.7 688.1,336.6 687.6,340.5 750.8,348.6 738.6,361.8 741.5,364.5 758,346.6 
	742.4,327.6 "/>
<polygon class="st4" points="1060.5,461.9 1056.1,480.3 1024.2,425.2 1020.8,427.1 1052.7,482.3 1034.8,480.6 1034.4,484.5 
	1058.6,486.8 1064.3,462.8 "/>
<polygon class="st4" points="480.4,295 468.6,295 468.6,283.9 463.6,283.9 463.6,295 451.8,295 451.8,300 463.6,300 463.6,312.3 
	468.6,312.3 468.6,300 480.4,300 "/>
<g id="ENZIMA_3_">
	<path class="st4" d="M723.9,461.1c0.9,0,1.7-0.2,2.4-0.5c0.7-0.4,1.3-0.8,1.8-1.4l2.7,2c-0.8,1-1.8,1.8-3,2.3
		c-1.2,0.6-2.5,0.9-3.9,0.9c-1.2,0-2.3-0.2-3.4-0.6c-1.1-0.4-2-1-2.8-1.8c-0.8-0.8-1.4-1.6-1.9-2.6s-0.7-2.1-0.7-3.2
		c0-1.1,0.2-2.2,0.7-3.2c0.5-1,1.1-1.9,1.9-2.6c0.8-0.8,1.7-1.3,2.8-1.8c1.1-0.4,2.2-0.6,3.4-0.6c1.4,0,2.7,0.3,3.9,0.9
		c1.2,0.6,2.2,1.4,3,2.4l-2.7,2c-0.5-0.6-1.1-1.1-1.8-1.4c-0.7-0.3-1.5-0.5-2.4-0.5c-0.7,0-1.4,0.1-2.1,0.4
		c-0.7,0.3-1.2,0.6-1.7,1.1c-0.5,0.5-0.9,1-1.1,1.6c-0.3,0.6-0.4,1.3-0.4,2c0,0.7,0.1,1.3,0.4,2c0.3,0.6,0.7,1.2,1.1,1.6
		c0.5,0.5,1.1,0.8,1.7,1.1C722.4,460.9,723.1,461.1,723.9,461.1z"/>
	<path class="st4" d="M744.8,447.7c1.2,0,2.4,0.2,3.4,0.6c1.1,0.4,2,1,2.8,1.8c0.8,0.8,1.4,1.6,1.9,2.6c0.5,1,0.7,2.1,0.7,3.2
		c0,1.2-0.2,2.2-0.7,3.2c-0.5,1-1.1,1.9-1.9,2.6c-0.8,0.8-1.7,1.3-2.8,1.8c-1.1,0.4-2.2,0.6-3.4,0.6c-1.2,0-2.4-0.2-3.4-0.6
		c-1.1-0.4-2-1-2.8-1.8c-0.8-0.8-1.4-1.6-1.9-2.6c-0.5-1-0.7-2.1-0.7-3.2c0-1.2,0.2-2.2,0.7-3.2c0.5-1,1.1-1.9,1.9-2.6
		c0.8-0.8,1.7-1.3,2.8-1.8C742.4,447.9,743.6,447.7,744.8,447.7z M744.8,461.1c0.7,0,1.4-0.1,2.1-0.4c0.7-0.3,1.2-0.6,1.7-1.1
		c0.5-0.5,0.9-1,1.1-1.6c0.3-0.6,0.4-1.3,0.4-2c0-0.7-0.1-1.3-0.4-2c-0.3-0.6-0.7-1.2-1.1-1.6c-0.5-0.5-1.1-0.8-1.7-1.1
		c-0.7-0.3-1.3-0.4-2.1-0.4c-0.7,0-1.4,0.1-2.1,0.4c-0.7,0.3-1.2,0.6-1.7,1.1c-0.5,0.5-0.9,1-1.2,1.6c-0.3,0.6-0.4,1.3-0.4,2
		c0,0.7,0.1,1.3,0.4,2c0.3,0.6,0.7,1.2,1.2,1.6c0.5,0.5,1.1,0.8,1.7,1.1S744.1,461.1,744.8,461.1z"/>
	<path class="st4" d="M758.8,464.3l10-23.1l10,23.1h-3.6l-0.7-1.8h-11.2l-0.8,1.8H758.8z M764.4,459.5h8.7l-4.4-10.6L764.4,459.5z"
		/>
</g>
<g id="NADH_x5F_2">
	<path class="st4" d="M789,744h-3.3v-24.2l15.4,18.4v-18h3.3V744h-3.2L789,729V744z"/>
	<path class="st4" d="M809.5,743.9l9.7-23.8l9.7,23.8h-3.5l-0.7-1.9h-10.9l-0.7,1.9H809.5z M814.9,739h8.5l-4.2-10.9L814.9,739z"/>
	<path class="st4" d="M842.3,720.2c1.6,0,3.1,0.3,4.5,0.9c1.4,0.6,2.6,1.5,3.6,2.6s1.9,2.3,2.5,3.8c0.6,1.4,0.9,3,0.9,4.6
		c0,1.6-0.3,3.2-0.9,4.6c-0.6,1.4-1.4,2.7-2.4,3.8c-1,1.1-2.2,1.9-3.6,2.5c-1.4,0.6-2.9,0.9-4.6,0.9H834v-23.8H842.3z M841.9,740.9
		c1.2,0,2.3-0.2,3.3-0.7c1-0.5,1.9-1.1,2.6-1.9c0.7-0.8,1.3-1.7,1.7-2.8c0.4-1.1,0.6-2.2,0.6-3.4s-0.2-2.4-0.6-3.4
		c-0.4-1.1-1-2-1.7-2.8c-0.7-0.8-1.6-1.4-2.6-1.9c-1-0.5-2.1-0.7-3.3-0.7h-4.4v17.7L841.9,740.9L841.9,740.9z"/>
	<path class="st4" d="M871.6,720.2h3.5v23.7h-3.5v-4.2v-3.1h-9.2v3.1v4.2h-3.5v-23.7h3.5v4.1v6.1v3v0.1h9.2v-0.1v-3v-6.1V720.2z"/>
</g>
<g id="alfacetoglurato">
	
		<rect x="1111.6" y="835.3" transform="matrix(0.7895 -0.6138 0.6138 0.7895 -286.0535 861.6845)" class="st0" width="3.2" height="25.1"/>
	
		<rect x="1116" y="832.3" transform="matrix(0.7895 -0.6138 0.6138 0.7895 -283.2961 863.759)" class="st0" width="3.2" height="25.1"/>
	<g id="oxigenios_45_">
		<ellipse transform="matrix(0.7122 -0.702 0.702 0.7122 -278.9344 1037.4717)" class="st2" cx="1125.7" cy="858.9" rx="9" ry="9"/>
	</g>
	
		<rect x="982.5" y="797.4" transform="matrix(0.9843 -0.1767 0.1767 0.9843 -127.6096 186.5867)" class="st0" width="3.2" height="25.1"/>
	
		<rect x="977.2" y="798" transform="matrix(0.9843 -0.1767 0.1767 0.9843 -127.7978 185.6624)" class="st0" width="3.2" height="25.1"/>
	<g id="oxigenios_44_">
		<ellipse transform="matrix(0.9568 -0.2907 0.2907 0.9568 -188.6942 318.6589)" class="st2" cx="978.1" cy="794.4" rx="9" ry="9"/>
	</g>
	
		<rect x="952.9" y="839.4" transform="matrix(0.972 -0.2348 0.2348 0.972 -173.354 247.9277)" class="st0" width="3.2" height="25.1"/>
	
		<rect x="958.1" y="838.5" transform="matrix(0.972 -0.2348 0.2348 0.972 -172.9943 249.1326)" class="st0" width="3.2" height="25.1"/>
	<g id="oxigenios_43_">
		<ellipse transform="matrix(0.9378 -0.3471 0.3471 0.9378 -241.2042 387.5984)" class="st2" cx="961.4" cy="867.2" rx="9" ry="9"/>
	</g>
	
		<rect x="931.3" y="794.5" transform="matrix(0.9742 -0.2256 0.2256 0.9742 -158.017 231.2683)" class="st0" width="3.2" height="25.1"/>
	
		<ellipse transform="matrix(0.2076 -0.9782 0.9782 0.2076 -40.6542 1539.6022)" class="st1" cx="930" cy="794.9" rx="4.5" ry="4.5"/>
	
		<rect x="1031.9" y="833.9" transform="matrix(0.7314 -0.6819 0.6819 0.7314 -299.8375 932.2198)" class="st0" width="3.2" height="25.7"/>
	
		<rect x="1000" y="844.9" transform="matrix(0.7314 -0.6819 0.6819 0.7314 -304.403 920.2594)" class="st0" width="32" height="3.3"/>
	
		<rect x="949.5" y="826.3" transform="matrix(0.8975 -0.4411 0.4411 0.8975 -265.9417 511.8166)" class="st0" width="36.6" height="3.2"/>
	
		<rect x="1023.9" y="826.2" transform="matrix(0.9309 -0.3653 0.3653 0.9309 -230.0095 439.7224)" class="st0" width="46.6" height="3.2"/>
	
		<rect x="944.1" y="811.7" transform="matrix(0.7532 -0.6578 0.6578 0.7532 -310.6576 826.2958)" class="st0" width="3.2" height="30.8"/>
	
		<rect x="1003.2" y="805.1" transform="matrix(0.3386 -0.9409 0.9409 0.3386 -113.5954 1492.4895)" class="st0" width="3.2" height="43.9"/>
	
		<ellipse transform="matrix(0.5046 -0.8634 0.8634 0.5046 -222.4208 1323.2144)" class="st1" cx="1041.8" cy="855.4" rx="4.5" ry="4.5"/>
	
		<ellipse transform="matrix(0.5661 -0.8243 0.8243 0.5661 -269.3307 1200.6145)" class="st1" cx="1005.9" cy="856.2" rx="4.5" ry="4.5"/>
	
		<rect x="1055.6" y="796.5" transform="matrix(0.4986 -0.8668 0.8668 0.4986 -171.4685 1322.2108)" class="st0" width="3.2" height="25.7"/>
	
		<rect x="1058" y="802.6" transform="matrix(0.4986 -0.8668 0.8668 0.4986 -158.704 1334.2329)" class="st0" width="32" height="3.3"/>
	
		<ellipse transform="matrix(0.2285 -0.9735 0.9735 0.2285 25.418 1638.9363)" class="st1" cx="1046.8" cy="803.4" rx="4.5" ry="4.5"/>
	
		<ellipse transform="matrix(0.2988 -0.9543 0.9543 0.2988 1.9814 1587.0801)" class="st1" cx="1080.9" cy="792.2" rx="4.5" ry="4.5"/>
	<ellipse transform="matrix(0.277 -0.9609 0.9609 0.277 -108.8789 1488.6615)" class="st2" cx="934.8" cy="816.7" rx="9" ry="9"/>
	
		<rect x="944.1" y="811.7" transform="matrix(0.7532 -0.6578 0.6578 0.7532 -310.6576 826.2958)" class="st0" width="3.2" height="30.8"/>
	<ellipse transform="matrix(0.277 -0.9609 0.9609 0.277 -108.8789 1488.6615)" class="st2" cx="934.8" cy="816.7" rx="9" ry="9"/>
	<ellipse transform="matrix(0.5986 -0.801 0.801 0.5986 -287.0884 1098.8013)" class="st3" cx="952.9" cy="835.9" rx="11" ry="11"/>
	
		<rect x="1084.8" y="810.4" transform="matrix(0.4347 -0.9006 0.9006 0.4347 -129.5476 1445.235)" class="st0" width="3.2" height="30.8"/>
	
		<ellipse transform="matrix(0.9744 -0.2249 0.2249 0.9744 -157.2003 261.5163)" class="st3" cx="1069.5" cy="820.9" rx="11" ry="11"/>
	
		<ellipse transform="matrix(0.9744 -0.2249 0.2249 0.9744 -159.0472 242.0991)" class="st3" cx="983.3" cy="819.3" rx="11" ry="11"/>
	
		<ellipse transform="matrix(0.5046 -0.8634 0.8634 0.5046 -213.9614 1299.3053)" class="st3" cx="1025.1" cy="836.1" rx="11" ry="11"/>
	
		<rect x="1128.5" y="816" transform="matrix(0.9714 -0.2373 0.2373 0.9714 -161.4393 294.1665)" class="st0" width="25.1" height="3.2"/>
	
		<ellipse transform="matrix(0.7799 -0.6259 0.6259 0.7799 -256.1463 901.0755)" class="st1" cx="1153.1" cy="814.7" rx="4.5" ry="4.5"/>
	
		<rect x="1102.8" y="827" transform="matrix(0.8145 -0.5801 0.5801 0.8145 -273.2705 802.3948)" class="st0" width="30.8" height="3.2"/>
	
		<ellipse transform="matrix(0.9989 -4.671894e-002 4.671894e-002 0.9989 -37.1199 53.7411)" class="st2" cx="1131.1" cy="821" rx="9" ry="9"/>
	
		<rect x="1102.8" y="827" transform="matrix(0.8145 -0.5801 0.5801 0.8145 -273.2705 802.3948)" class="st0" width="30.8" height="3.2"/>
	
		<ellipse transform="matrix(0.9989 -4.671894e-002 4.671894e-002 0.9989 -37.1199 53.7411)" class="st2" cx="1131.1" cy="821" rx="9" ry="9"/>
	
		<ellipse transform="matrix(0.9989 -4.773748e-002 4.773748e-002 0.9989 -38.6006 53.7703)" class="st3" cx="1106.4" cy="835" rx="11" ry="11"/>
</g>
<g id="coA_x5F_3">
	<path class="st4" d="M484.7,941.9c0.8,0,1.5-0.2,2.1-0.5c0.6-0.3,1.2-0.7,1.6-1.2l2.4,1.7c-0.7,0.9-1.6,1.5-2.6,2.1
		c-1.1,0.5-2.2,0.8-3.5,0.8c-1.1,0-2.1-0.2-3-0.6c-0.9-0.4-1.8-0.9-2.5-1.6c-0.7-0.7-1.3-1.4-1.7-2.3c-0.4-0.9-0.6-1.8-0.6-2.9
		c0-1,0.2-1.9,0.6-2.8c0.4-0.9,1-1.7,1.7-2.3c0.7-0.7,1.5-1.2,2.5-1.6c0.9-0.4,1.9-0.6,3-0.6c1.2,0,2.4,0.3,3.5,0.8
		c1.1,0.5,1.9,1.2,2.6,2.1l-2.4,1.7c-0.4-0.5-1-1-1.6-1.3c-0.6-0.3-1.3-0.5-2.1-0.5c-0.6,0-1.3,0.1-1.8,0.3c-0.6,0.2-1.1,0.5-1.5,1
		c-0.4,0.4-0.8,0.9-1,1.4c-0.2,0.5-0.4,1.1-0.4,1.7c0,0.6,0.1,1.2,0.4,1.7c0.2,0.5,0.6,1,1,1.4c0.4,0.4,0.9,0.7,1.5,1
		C483.4,941.8,484.1,941.9,484.7,941.9z"/>
	<path class="st4" d="M503.1,930.2c1.1,0,2.1,0.2,3,0.6c0.9,0.4,1.8,0.9,2.5,1.6c0.7,0.7,1.3,1.4,1.7,2.3c0.4,0.9,0.6,1.8,0.6,2.9
		c0,1-0.2,2-0.6,2.9c-0.4,0.9-1,1.7-1.7,2.3c-0.7,0.7-1.5,1.2-2.5,1.6c-0.9,0.4-1.9,0.6-3,0.6c-1.1,0-2.1-0.2-3-0.6
		c-0.9-0.4-1.8-0.9-2.5-1.6c-0.7-0.7-1.3-1.4-1.7-2.3c-0.4-0.9-0.6-1.8-0.6-2.9c0-1,0.2-2,0.6-2.9c0.4-0.9,1-1.7,1.7-2.3
		c0.7-0.7,1.5-1.2,2.5-1.6C501,930.3,502.1,930.2,503.1,930.2z M503.1,941.9c0.6,0,1.3-0.1,1.8-0.3c0.6-0.2,1.1-0.5,1.5-1
		c0.4-0.4,0.8-0.9,1-1.4c0.2-0.5,0.4-1.1,0.4-1.7c0-0.6-0.1-1.2-0.4-1.7c-0.2-0.5-0.6-1-1-1.4c-0.4-0.4-0.9-0.7-1.5-1
		c-0.6-0.2-1.2-0.3-1.8-0.3c-0.6,0-1.3,0.1-1.8,0.3c-0.6,0.2-1.1,0.5-1.5,1c-0.4,0.4-0.8,0.9-1,1.4c-0.3,0.5-0.4,1.1-0.4,1.7
		c0,0.6,0.1,1.2,0.4,1.7c0.3,0.5,0.6,1,1,1.4c0.4,0.4,0.9,0.7,1.5,1C501.9,941.8,502.5,941.9,503.1,941.9z"/>
	<path class="st4" d="M515.5,944.8l8.8-20.3l8.8,20.3h-3.2l-0.6-1.6h-9.8l-0.7,1.6H515.5z M520.4,940.5h7.7l-3.8-9.3L520.4,940.5z"
		/>
</g>
<g id="siccinio">
	
		<rect x="857.6" y="1037.8" transform="matrix(0.1507 -0.9886 0.9886 0.1507 -312.299 1744.9117)" class="st0" width="3.5" height="32.8"/>
	
		<rect x="688.8" y="1028.1" transform="matrix(0.7096 -0.7046 0.7046 0.7096 -533.5225 789.1577)" class="st0" width="3.5" height="27.4"/>
	<ellipse transform="matrix(0.941 -0.3384 0.3384 0.941 -309.0756 291.2987)" class="st1" cx="681" cy="1032.2" rx="4.9" ry="4.9"/>
	
		<rect x="804.7" y="1068.4" transform="matrix(0.7003 -0.7139 0.7139 0.7003 -530.9698 900.1342)" class="st0" width="3.5" height="28"/>
	
		<rect x="770" y="1081.2" transform="matrix(0.7003 -0.7139 0.7139 0.7003 -537.137 886.7552)" class="st0" width="34.9" height="3.6"/>
	
		<rect x="729.2" y="1064.6" transform="matrix(0.3587 -0.9335 0.9335 0.3587 -516.9767 1380.1565)" class="st0" width="33.6" height="3.5"/>
	
		<rect x="757.7" y="1052.1" transform="matrix(0.6892 -0.7246 0.7246 0.6892 -536.2021 881.5809)" class="st0" width="3.5" height="27.4"/>
	
		<rect x="682.7" y="1084" transform="matrix(0.7165 -0.6975 0.6975 0.7165 -558.1082 798.0311)" class="st0" width="40.3" height="3.5"/>
	
		<rect x="710.1" y="1063.4" transform="matrix(0.8198 -0.5726 0.5726 0.8198 -478.4016 609.9728)" class="st0" width="39.9" height="3.5"/>
	
		<rect x="795" y="1059.3" transform="matrix(0.9137 -0.4064 0.4064 0.9137 -360.434 425.0288)" class="st0" width="50.8" height="3.5"/>
	
		<rect x="704.2" y="1044.2" transform="matrix(0.9201 -0.3918 0.3918 0.9201 -359.2638 361.4082)" class="st0" width="3.5" height="33.6"/>
	
		<rect x="772.5" y="1038.4" transform="matrix(0.2963 -0.9551 0.9551 0.2963 -469.7587 1487.1047)" class="st0" width="3.5" height="47.9"/>
	
		<ellipse transform="matrix(0.1744 -0.9847 0.9847 0.1744 -423.597 1644.9939)" class="st1" cx="769.2" cy="1075.1" rx="4.9" ry="4.9"/>
	
		<ellipse transform="matrix(0.4656 -0.885 0.885 0.4656 -529.8934 1305.3446)" class="st1" cx="815.9" cy="1091.4" rx="4.9" ry="4.9"/>
	
		<ellipse transform="matrix(0.1744 -0.9847 0.9847 0.1744 -453.2759 1620.8259)" class="st1" cx="739.9" cy="1080.7" rx="4.9" ry="4.9"/>
	
		<rect x="843.2" y="1025.3" transform="matrix(0.9958 -9.170713e-002 9.170713e-002 0.9958 -91.7227 81.87)" class="st0" width="3.5" height="27.4"/>
	
		<rect x="837.4" y="1025.5" transform="matrix(0.9958 -9.170713e-002 9.170713e-002 0.9958 -91.7612 81.3394)" class="st0" width="3.5" height="27.4"/>
	
		<ellipse transform="matrix(0.5288 -0.8487 0.8487 0.5288 -562.4731 1174.8036)" class="st1" cx="776.9" cy="1094" rx="4.9" ry="4.9"/>
	
		<ellipse transform="matrix(0.5614 -0.8276 0.8276 0.5614 -559.7534 1036.8527)" class="st2" cx="698.2" cy="1046.5" rx="9.8" ry="9.8"/>
	
		<rect x="704.2" y="1044.2" transform="matrix(0.9201 -0.3918 0.3918 0.9201 -359.2638 361.4082)" class="st0" width="3.5" height="33.6"/>
	
		<ellipse transform="matrix(0.5614 -0.8276 0.8276 0.5614 -559.7534 1036.8527)" class="st2" cx="698.2" cy="1046.5" rx="9.8" ry="9.8"/>
	
		<ellipse transform="matrix(0.5623 -0.8269 0.8269 0.5623 -575.6711 1059.7194)" class="st3" cx="713.2" cy="1073.7" rx="11.9" ry="11.9"/>
	<g id="oxigenios_47_">
		
			<ellipse transform="matrix(0.5781 -0.816 0.816 0.5781 -602.6396 1027.0692)" class="st2" cx="691.9" cy="1096.3" rx="9.8" ry="9.8"/>
	</g>
	
		<ellipse transform="matrix(0.9634 -0.2681 0.2681 0.9634 -251.2472 264.8847)" class="st3" cx="844.4" cy="1052.5" rx="11.9" ry="11.9"/>
	
		<ellipse transform="matrix(0.9634 -0.2681 0.2681 0.9634 -255.338 239.8099)" class="st3" cx="750.5" cy="1054.9" rx="11.9" ry="11.9"/>
	
		<ellipse transform="matrix(0.4656 -0.885 0.885 0.4656 -522.1503 1277.7083)" class="st3" cx="796.9" cy="1071.2" rx="11.9" ry="11.9"/>
	<g id="oxigenios_46_">
		
			<ellipse transform="matrix(0.9782 -0.2077 0.2077 0.9782 -193.8793 196.7789)" class="st2" cx="840" cy="1021.5" rx="9.8" ry="9.8"/>
	</g>
	<g>
		<path class="st4" d="M947.6,1067c1.1-0.3,2.1-0.8,2.9-1.5s1.4-1.5,1.8-2.5l4.1,1.6c-0.7,1.5-1.7,2.9-3,4s-2.9,2-4.7,2.5
			c-1.5,0.4-3,0.6-4.6,0.4c-1.5-0.2-2.9-0.6-4.2-1.3c-1.3-0.7-2.4-1.6-3.4-2.7c-0.9-1.1-1.6-2.4-2-3.9c-0.4-1.4-0.5-2.9-0.3-4.3
			c0.2-1.4,0.7-2.8,1.5-4c0.8-1.2,1.7-2.3,2.9-3.3c1.2-0.9,2.6-1.6,4.1-2c1.8-0.5,3.6-0.6,5.3-0.3c1.7,0.3,3.3,1,4.7,1.9l-2.7,3.5
			c-0.8-0.6-1.8-1-2.8-1.2c-1.1-0.2-2.1-0.1-3.2,0.2c-0.9,0.3-1.8,0.7-2.5,1.2c-0.7,0.6-1.3,1.2-1.8,2c-0.5,0.8-0.8,1.6-0.9,2.5
			c-0.1,0.9-0.1,1.8,0.2,2.6c0.2,0.9,0.7,1.7,1.2,2.3c0.6,0.7,1.3,1.2,2,1.6c0.8,0.4,1.6,0.7,2.6,0.8
			C945.7,1067.3,946.6,1067.3,947.6,1067z"/>
		<path class="st4" d="M969.5,1042.5c1.6-0.4,3.1-0.6,4.6-0.4c1.5,0.2,2.9,0.6,4.2,1.3c1.3,0.7,2.4,1.6,3.3,2.7
			c0.9,1.1,1.6,2.4,2,3.9c0.4,1.5,0.5,2.9,0.3,4.4c-0.2,1.4-0.7,2.8-1.5,4c-0.8,1.2-1.7,2.3-2.9,3.3c-1.2,0.9-2.6,1.6-4.1,2
			c-1.6,0.4-3.1,0.6-4.6,0.4c-1.5-0.2-2.9-0.6-4.2-1.3c-1.3-0.7-2.4-1.6-3.3-2.7c-0.9-1.1-1.6-2.4-2-3.9c-0.4-1.5-0.5-2.9-0.3-4.4
			c0.2-1.4,0.7-2.8,1.5-4c0.8-1.2,1.7-2.3,2.9-3.3C966.6,1043.6,968,1042.9,969.5,1042.5z M974.3,1059.6c0.9-0.3,1.8-0.7,2.5-1.2
			c0.7-0.6,1.3-1.2,1.8-2c0.5-0.8,0.8-1.6,0.9-2.5c0.1-0.9,0.1-1.8-0.2-2.7s-0.7-1.7-1.2-2.4c-0.6-0.7-1.3-1.2-2-1.7
			c-0.8-0.4-1.6-0.7-2.6-0.8c-0.9-0.1-1.9,0-2.8,0.2c-0.9,0.3-1.8,0.7-2.5,1.2c-0.7,0.6-1.3,1.2-1.8,2c-0.5,0.8-0.8,1.6-0.9,2.5
			c-0.1,0.9-0.1,1.8,0.1,2.7c0.2,0.9,0.7,1.7,1.2,2.4c0.6,0.7,1.3,1.2,2.1,1.7c0.8,0.4,1.6,0.7,2.6,0.8
			C972.4,1059.9,973.4,1059.8,974.3,1059.6z"/>
		<path class="st4" d="M993.3,1058.7l4.5-33l20.9,25.9l-4.6,1.3l-1.6-2.1l-14.2,4l-0.3,2.6L993.3,1058.7z M998.8,1050.6l11.1-3.1
			l-9.3-11.9L998.8,1050.6z"/>
	</g>
	
		<rect x="912.9" y="1047.9" transform="matrix(4.230228e-002 -0.9991 0.9991 4.230228e-002 -187.3681 1933.1289)" class="st0" width="3.5" height="32.8"/>
	
		<rect x="883.9" y="1042.9" transform="matrix(0.2904 -0.9569 0.9569 0.2904 -385.6163 1599.4126)" class="st0" width="3.5" height="33.6"/>
	
		<ellipse transform="matrix(0.568 -0.823 0.823 0.568 -492.0884 1175.5201)" class="st2" cx="873.8" cy="1056.5" rx="9.8" ry="9.8"/>
	
		<ellipse id="Enxofre_3_" transform="matrix(0.4235 -0.9059 0.9059 0.4235 -442.8325 1433.3025)" class="st5" cx="904.7" cy="1064.6" rx="13.9" ry="13.9"/>
</g>
<g id="adp_x5F_1">
	<path class="st4" d="M601.7,942.4l8.6-21.1l8.6,21.1h-3.1l-0.6-1.7h-9.7l-0.7,1.7H601.7z M606.5,938h7.6l-3.8-9.7L606.5,938z"/>
	<path class="st4" d="M630.9,921.3c1.4,0,2.8,0.3,4,0.8c1.2,0.6,2.3,1.3,3.2,2.3c0.9,1,1.7,2.1,2.2,3.4c0.5,1.3,0.8,2.6,0.8,4.1
		c0,1.5-0.3,2.8-0.8,4.1c-0.5,1.3-1.2,2.4-2.1,3.3s-2,1.7-3.2,2.3c-1.3,0.6-2.6,0.8-4.1,0.8h-7.4v-21.1L630.9,921.3L630.9,921.3z
		 M630.5,939.7c1.1,0,2.1-0.2,3-0.6c0.9-0.4,1.7-1,2.3-1.7c0.7-0.7,1.2-1.5,1.5-2.5c0.4-1,0.5-2,0.5-3s-0.2-2.1-0.5-3
		c-0.4-1-0.9-1.8-1.5-2.5c-0.7-0.7-1.4-1.3-2.4-1.7c-0.9-0.4-1.9-0.6-2.9-0.6h-4v15.7H630.5z"/>
	<path class="st4" d="M660.5,928c0,0.1,0,0.2,0,0.3c0,0.1,0,0.2,0,0.4v0v0c0,0.1,0,0.3,0,0.4c0,0.1,0,0.2,0,0.3v0l-0.1,0.7
		c0,0,0,0.1,0,0.1c0,0.1,0,0.2-0.1,0.3c0,0.1,0,0.2-0.1,0.3c-0.3,0.9-0.7,1.7-1.2,2.4s-1.2,1.3-1.9,1.8c-0.6,0.4-1.3,0.7-2.1,0.9
		c-0.8,0.2-1.6,0.3-2.5,0.3h-3.8v6.3h-3.1v-21.2h6.9c1.7,0,3.2,0.4,4.6,1.2c0.7,0.5,1.4,1.1,1.9,1.8c0.5,0.7,0.9,1.5,1.2,2.3
		c0.1,0.2,0.1,0.4,0.1,0.5c0,0.1,0,0.1,0,0.1c0,0.1,0,0.2,0,0.3C660.4,927.7,660.5,927.8,660.5,928L660.5,928L660.5,928z
		 M652.9,933.5c0.6,0,1.2-0.1,1.7-0.4c0.5-0.3,1-0.6,1.4-1.1c0.4-0.4,0.7-0.9,0.9-1.5c0.2-0.6,0.3-1.2,0.3-1.8
		c0-0.6-0.1-1.2-0.3-1.8c-0.2-0.6-0.5-1.1-0.9-1.5c-0.4-0.4-0.9-0.8-1.4-1.1c-0.5-0.3-1.1-0.4-1.7-0.4h-4.1v9.5L652.9,933.5
		L652.9,933.5z"/>
</g>
<g id="atp_x5F_1">
	<path class="st4" d="M481.5,915.2l8.3-20.3l8.3,20.3h-3l-0.6-1.6h-9.3l-0.6,1.6H481.5z M486.2,911h7.3l-3.6-9.3L486.2,911z"/>
	<path class="st4" d="M502.5,894.9h13v2.9h-5v17.4h-2.9v-17.4h-5L502.5,894.9L502.5,894.9z"/>
	<path class="st4" d="M534.1,901.3c0,0.1,0,0.2,0,0.3c0,0.1,0,0.2,0,0.4v0v0c0,0.1,0,0.2,0,0.4c0,0.1,0,0.2,0,0.3v0l-0.1,0.7
		c0,0,0,0.1,0,0.1c0,0.1,0,0.2-0.1,0.2c0,0.1,0,0.2-0.1,0.2c-0.3,0.9-0.6,1.6-1.2,2.3s-1.1,1.2-1.8,1.7c-0.6,0.4-1.3,0.7-2,0.9
		c-0.7,0.2-1.5,0.3-2.4,0.3h-3.6v6h-3v-20.4h6.6c1.7,0,3.1,0.4,4.4,1.2c0.7,0.5,1.3,1,1.8,1.7c0.5,0.7,0.9,1.4,1.2,2.2
		c0.1,0.2,0.1,0.4,0.1,0.5c0,0.1,0,0.1,0,0.1c0,0.1,0,0.2,0,0.3C534.1,901.1,534.1,901.2,534.1,901.3L534.1,901.3L534.1,901.3z
		 M526.8,906.6c0.6,0,1.2-0.1,1.7-0.4c0.5-0.3,1-0.6,1.3-1c0.4-0.4,0.7-0.9,0.9-1.5c0.2-0.5,0.3-1.1,0.3-1.7c0-0.6-0.1-1.2-0.3-1.7
		c-0.2-0.5-0.5-1-0.9-1.5c-0.4-0.4-0.8-0.8-1.3-1c-0.5-0.3-1.1-0.4-1.7-0.4h-4v9.2L526.8,906.6L526.8,906.6z"/>
</g>
<g id="succinato">
	<rect x="445.6" y="1066" class="st0" width="3.5" height="32.9"/>
	
		<rect x="285.9" y="1030.7" transform="matrix(0.6608 -0.7505 0.7505 0.6608 -686.2475 570.1413)" class="st0" width="3.5" height="27.4"/>
	<rect x="294.3" y="1039.8" transform="matrix(0.866 -0.5 0.5 0.866 -479.5118 293.5644)" class="st0" width="27.4" height="3.5"/>
	
		<ellipse transform="matrix(0.9163 -0.4006 0.4006 0.9163 -391.5602 197.8509)" class="st1" cx="277.4" cy="1035.5" rx="4.9" ry="4.9"/>
	
		<rect x="457.4" y="1091.8" transform="matrix(0.3863 -0.9224 0.9224 0.3863 -737.8691 1101.9733)" class="st0" width="3.5" height="27.4"/>
	
		<ellipse transform="matrix(0.7402 -0.6724 0.6724 0.7402 -624.2673 605.7163)" class="st1" cx="471.7" cy="1110.7" rx="4.9" ry="4.9"/>
	
		<rect x="389.8" y="1024" transform="matrix(0.7775 -0.6289 0.6289 0.7775 -565.6951 477.2045)" class="st0" width="3.5" height="28"/>
	
		<rect x="393.1" y="1037.8" transform="matrix(0.7775 -0.6289 0.6289 0.7775 -562.4442 489.5559)" class="st0" width="34.9" height="3.6"/>
	
		<rect x="326" y="1068.1" transform="matrix(0.8118 -0.5839 0.5839 0.8118 -560.1625 401.5052)" class="st0" width="33.6" height="3.5"/>
	
		<rect x="356.6" y="1061.7" transform="matrix(0.9737 -0.228 0.228 0.9737 -235.735 110.0204)" class="st0" width="3.5" height="27.4"/>
	
		<rect x="337.3" y="1029.9" transform="matrix(0.6604 -0.7509 0.7509 0.6604 -673.1943 611.0807)" class="st0" width="3.5" height="39.9"/>
	
		<rect x="420.5" y="1036" transform="matrix(0.4102 -0.912 0.912 0.4102 -718.9267 1011.1658)" class="st0" width="3.5" height="50.8"/>
	
		<rect x="356" y="1056.3" transform="matrix(0.9737 -0.228 0.228 0.9737 -231.2238 114.4893)" class="st0" width="47.9" height="3.5"/>
	
		<ellipse transform="matrix(0.6858 -0.7278 0.7278 0.6858 -678.6242 604.9643)" class="st1" cx="361.3" cy="1088.4" rx="4.9" ry="4.9"/>
	
		<ellipse transform="matrix(0.5639 -0.8258 0.8258 0.5639 -681.8199 764.712)" class="st1" cx="383.2" cy="1028" rx="4.9" ry="4.9"/>
	
		<ellipse transform="matrix(0.6858 -0.7278 0.7278 0.6858 -681.3351 578.975)" class="st1" cx="329.9" cy="1078.6" rx="4.9" ry="4.9"/>
	
		<rect x="444.4" y="1055" transform="matrix(0.6819 -0.7314 0.7314 0.6819 -627.28 671.1738)" class="st0" width="27.4" height="3.5"/>
	
		<rect x="440.4" y="1050.8" transform="matrix(0.6819 -0.7314 0.7314 0.6819 -625.4543 666.9232)" class="st0" width="27.4" height="3.5"/>
	
		<ellipse transform="matrix(0.6226 -0.7826 0.7826 0.6226 -646.6362 719.3138)" class="st1" cx="422.4" cy="1030" rx="4.9" ry="4.9"/>
	
		<ellipse transform="matrix(0.7627 -0.6468 0.6468 0.7627 -609.1214 440.8091)" class="st2" cx="296.1" cy="1050.4" rx="9.8" ry="9.8"/>
	
		<ellipse transform="matrix(0.7627 -0.6468 0.6468 0.7627 -609.1214 440.8091)" class="st2" cx="296.1" cy="1050.4" rx="9.8" ry="9.8"/>
	
		<ellipse transform="matrix(0.7634 -0.6459 0.6459 0.7634 -593.0387 454.3228)" class="st3" cx="323.7" cy="1036.7" rx="12" ry="12"/>
	<circle class="st3" cx="445.6" cy="1067.6" r="12"/>
	<circle class="st3" cx="354.1" cy="1061.3" r="12"/>
	
		<ellipse transform="matrix(0.6858 -0.7278 0.7278 0.6858 -641.7614 622.8163)" class="st3" cx="400.4" cy="1054.7" rx="12" ry="12"/>
	<g id="oxigenios_48_">
		
			<ellipse transform="matrix(0.5915 -0.8063 0.8063 0.5915 -648.5491 802.5227)" class="st2" cx="467.7" cy="1041.3" rx="9.8" ry="9.8"/>
	</g>
	
		<ellipse transform="matrix(7.170188e-002 -0.9974 0.9974 7.170188e-002 -679.6406 1469.3811)" class="st2" cx="449.6" cy="1099.8" rx="9.8" ry="9.8"/>
</g>
<g id="fad_x5F_1">
	<path class="st4" d="M106.9,963.9h15.2v3.7h-11.4v3.6v3.3v2h9.7v3.6h-9.7v3.7v6.3h-3.8V963.9z"/>
	<path class="st4" d="M127.7,989.9l10.6-26.1l10.6,26.1h-3.9l-0.8-2.1h-11.9l-0.8,2.1H127.7z M133.7,984.5h9.3l-4.7-12L133.7,984.5z
		"/>
	<path class="st4" d="M163.7,963.9c1.8,0,3.4,0.3,4.9,1c1.5,0.7,2.9,1.6,4,2.8c1.1,1.2,2,2.6,2.7,4.1c0.7,1.6,1,3.3,1,5.1
		c0,1.8-0.3,3.5-1,5.1c-0.6,1.6-1.5,3-2.7,4.1c-1.1,1.2-2.5,2.1-4,2.8c-1.5,0.7-3.2,1-5,1h-9.1v-26.1L163.7,963.9L163.7,963.9z
		 M163.3,986.6c1.3,0,2.5-0.3,3.7-0.8c1.1-0.5,2.1-1.2,2.9-2.1s1.4-1.9,1.9-3.1c0.5-1.2,0.7-2.4,0.7-3.8s-0.2-2.6-0.7-3.8
		c-0.5-1.2-1.1-2.2-1.9-3.1c-0.8-0.9-1.8-1.6-2.9-2.1c-1.1-0.5-2.3-0.8-3.6-0.8h-4.9v19.4L163.3,986.6L163.3,986.6z"/>
</g>
<g id="fadh2_x5F_1">
	<path class="st4" d="M35.2,822.8h15.4v3.7H39.1v3.6v3.3v2.1h9.8v3.6h-9.8v3.8v6.3h-3.9V822.8z"/>
	<path class="st4" d="M56.3,849.2l10.8-26.4l10.8,26.4h-3.9l-0.8-2.1H61.1l-0.8,2.1H56.3z M62.4,843.7h9.4l-4.7-12.1L62.4,843.7z"/>
	<path class="st4" d="M92.8,822.8c1.8,0,3.4,0.3,5,1c1.5,0.7,2.9,1.6,4.1,2.8c1.2,1.2,2.1,2.6,2.7,4.2s1,3.3,1,5.1
		c0,1.8-0.3,3.5-1,5.1c-0.6,1.6-1.5,3-2.7,4.2c-1.1,1.2-2.5,2.1-4.1,2.8c-1.6,0.7-3.3,1-5.1,1h-9.2v-26.4H92.8z M92.4,845.8
		c1.3,0,2.6-0.3,3.7-0.8c1.1-0.5,2.1-1.2,2.9-2.1c0.8-0.9,1.5-1.9,1.9-3.1c0.5-1.2,0.7-2.5,0.7-3.8c0-1.3-0.2-2.6-0.7-3.8
		c-0.5-1.2-1.1-2.2-1.9-3.1c-0.8-0.9-1.8-1.6-2.9-2.1c-1.1-0.5-2.4-0.8-3.7-0.8h-4.9v19.7L92.4,845.8L92.4,845.8z"/>
	<path class="st4" d="M125.4,822.8h3.9v26.4h-3.9v-4.7V841h-10.3v3.5v4.7h-3.9v-26.4h3.9v4.6v6.8v3.4v0.1h10.3v-0.1v-3.4v-6.8V822.8
		z"/>
	<path class="st4" d="M144.8,838.4c0,0.7-0.1,1.2-0.3,1.7c-0.2,0.5-0.5,0.9-0.9,1.4l-4.6,5.9h5.7v1.9H135l4.8-6.3
		c0.4-0.6,0.8-1.1,1.2-1.5c0.1-0.2,0.3-0.4,0.4-0.6s0.3-0.4,0.4-0.5c0.1-0.2,0.2-0.3,0.3-0.4c0.1-0.1,0.1-0.2,0.1-0.2
		c0.2-0.4,0.4-0.8,0.4-1.3c0-0.4-0.1-0.7-0.2-1c-0.1-0.3-0.3-0.6-0.6-0.8c-0.2-0.2-0.5-0.4-0.8-0.6c-0.3-0.1-0.7-0.2-1-0.2
		s-0.7,0.1-1,0.2c-0.3,0.1-0.6,0.3-0.8,0.6s-0.4,0.5-0.6,0.8c-0.1,0.3-0.2,0.7-0.2,1h-2.1c0-0.6,0.1-1.2,0.4-1.7
		c0.3-0.5,0.6-1,1-1.4s0.9-0.7,1.5-1c0.6-0.2,1.2-0.4,1.9-0.4s1.3,0.1,1.9,0.4s1.1,0.6,1.5,1c0.4,0.4,0.8,0.9,1,1.4
		C144.6,837.2,144.8,837.8,144.8,838.4z"/>
</g>
<g id="h2o_x5F_1_1_">
	
		<rect x="125.4" y="633.2" transform="matrix(0.8118 -0.5839 0.5839 0.8118 -344.6906 199.2397)" class="st0" width="22.8" height="2.4"/>
	
		<rect x="143.3" y="628.3" transform="matrix(0.9737 -0.228 0.228 0.9737 -141.5648 49.744)" class="st0" width="2.4" height="18.6"/>
	
		<ellipse transform="matrix(0.6858 -0.7278 0.7278 0.6858 -424.4334 309.8169)" class="st1" cx="146.6" cy="646.5" rx="3.3" ry="3.3"/>
	
		<ellipse transform="matrix(0.6858 -0.7278 0.7278 0.6858 -425.7938 294.3556)" class="st1" cx="128" cy="640.3" rx="3.3" ry="3.3"/>
	<g id="oxigenios_53_">
		
			<ellipse transform="matrix(0.8051 -0.5931 0.5931 0.8051 -346.9094 206.6696)" class="st2" cx="141" cy="631.2" rx="6.7" ry="6.7"/>
	</g>
</g>
<g id="fumarico">
	
		<rect x="123.6" y="737.4" transform="matrix(3.799973e-003 -1 1 3.799973e-003 -602.1472 873.9493)" class="st0" width="28" height="3.6"/>
	
		<rect x="129.5" y="737.8" transform="matrix(3.799973e-003 -1 1 3.799973e-003 -596.6736 880.2639)" class="st0" width="28" height="3.6"/>
	<g id="oxigenios_50_">
		
			<ellipse transform="matrix(0.9936 -0.1134 0.1134 0.9936 -84.9879 20.8744)" class="st2" cx="141" cy="757.5" rx="10.1" ry="10.1"/>
	</g>
	
		<rect x="281.5" y="722.4" transform="matrix(0.3295 -0.9442 0.9442 0.3295 -508.0082 763.1221)" class="st0" width="3.6" height="33.6"/>
	
		<rect x="102.4" y="702.4" transform="matrix(0.869 -0.4948 0.4948 0.869 -333.1876 149.8229)" class="st0" width="28" height="3.6"/>
	
		<ellipse transform="matrix(0.9967 -8.080244e-002 8.080244e-002 0.9967 -57.1187 10.7582)" class="st1" cx="104.4" cy="711.1" rx="5" ry="5"/>
	<rect x="294" y="739" transform="matrix(0.8972 -0.4415 0.4415 0.8972 -295.4502 212.1108)" class="st0" width="28" height="3.6"/>
	
		<ellipse transform="matrix(0.9998 -2.059975e-002 2.059975e-002 0.9998 -15.0644 6.7561)" class="st1" cx="320.4" cy="734.6" rx="5" ry="5"/>
	
		<rect x="220.7" y="741.4" transform="matrix(1 -8.399704e-003 8.399704e-003 1 -6.3399 1.8957)" class="st0" width="3.6" height="28.6"/>
	
		<rect x="165.4" y="696.3" transform="matrix(1.010050e-002 -0.9999 0.9999 1.010050e-002 -520.5221 870.436)" class="st0" width="28" height="3.6"/>
	
		<rect x="138.1" y="718.2" transform="matrix(0.9498 -0.3128 0.3128 0.9498 -217.276 85.7076)" class="st0" width="40.7" height="3.6"/>
	
		<rect x="216.8" y="737.1" transform="matrix(0.9727 -0.2319 0.2319 0.9727 -164.7323 76.445)" class="st0" width="51.9" height="3.6"/>
	
		<rect x="131.6" y="692.7" transform="matrix(0.8194 -0.5733 0.5733 0.8194 -382.8262 204.7225)" class="st0" width="3.6" height="34.3"/>
	
		<rect x="199.7" y="700.2" transform="matrix(0.5928 -0.8054 0.8054 0.5928 -501.5898 457.3735)" class="st0" width="3.6" height="48.9"/>
	
		<rect x="195.5" y="706" transform="matrix(0.5928 -0.8054 0.8054 0.5928 -507.9396 456.3548)" class="st0" width="3.6" height="48.9"/>
	<ellipse transform="matrix(0.8393 -0.5437 0.5437 0.8393 -343.1951 207.648)" class="st1" cx="179.6" cy="684.3" rx="5" ry="5"/>
	<ellipse transform="matrix(0.9554 -0.2954 0.2954 0.9554 -217.23 100.1139)" class="st1" cx="222.7" cy="769" rx="5" ry="5"/>
	
		<rect x="257.6" y="719.5" transform="matrix(9.250117e-002 -0.9957 0.9957 9.250117e-002 -471.7026 924.9884)" class="st0" width="28" height="3.6"/>
	
		<rect x="251.8" y="718.5" transform="matrix(9.250117e-002 -0.9957 0.9957 9.250117e-002 -476.0801 918.3215)" class="st0" width="28" height="3.6"/>
	
		<ellipse transform="matrix(0.7627 -0.6468 0.6468 0.7627 -421.4882 247.0895)" class="st2" cx="126" cy="697.9" rx="10.1" ry="10.1"/>
	
		<ellipse transform="matrix(0.7627 -0.6468 0.6468 0.7627 -421.4882 247.0895)" class="st2" cx="126" cy="697.9" rx="10.1" ry="10.1"/>
	
		<ellipse transform="matrix(0.7045 -0.7097 0.7097 0.7045 -472.5232 314.1288)" class="st3" cx="141" cy="724.5" rx="12.2" ry="12.2"/>
	
		<ellipse transform="matrix(0.9962 -8.680223e-002 8.680223e-002 0.9962 -62.7565 26.0772)" class="st3" cx="268.5" cy="734.7" rx="12.2" ry="12.2"/>
	
		<ellipse transform="matrix(0.9962 -8.680223e-002 8.680223e-002 0.9962 -61.3432 18.2445)" class="st3" cx="179.1" cy="714.5" rx="12.2" ry="12.2"/>
	
		<ellipse transform="matrix(0.6201 -0.7845 0.7845 0.6201 -497.5593 456.6171)" class="st3" cx="222.7" cy="742.1" rx="12.2" ry="12.2"/>
	<g id="oxigenios_49_">
		
			<ellipse transform="matrix(0.9997 -2.479981e-002 2.479981e-002 0.9997 -17.3449 6.9093)" class="st2" cx="269.9" cy="702.7" rx="10.1" ry="10.1"/>
	</g>
	
		<ellipse transform="matrix(0.7094 -0.7048 0.7048 0.7094 -438.2061 425.815)" class="st2" cx="297.3" cy="744.3" rx="10.1" ry="10.1"/>
</g>
<g>
	
		<rect x="157.4" y="422.4" transform="matrix(3.999999e-002 -0.9992 0.9992 3.999999e-002 -248.8987 589.1595)" class="st0" width="49.6" height="3.4"/>
	
		<rect x="163.7" y="422.9" transform="matrix(3.999999e-002 -0.9992 0.9992 3.999999e-002 -243.3453 595.9398)" class="st0" width="49.6" height="3.4"/>
	
		<rect x="112.6" y="394" transform="matrix(0.9999 -1.130041e-002 1.130041e-002 0.9999 -4.7249 1.3183)" class="st0" width="3.4" height="49.6"/>
	
		<rect x="118.9" y="394.1" transform="matrix(0.9999 -1.130041e-002 1.130041e-002 0.9999 -4.7265 1.3898)" class="st0" width="3.4" height="49.6"/>
	<rect x="129.7" y="428" transform="matrix(0.5 -0.866 0.866 0.5 -321.3149 337.2061)" class="st0" width="3.4" height="37.7"/>
	
		<rect x="201.8" y="428.3" transform="matrix(0.3603 -0.9328 0.9328 0.3603 -292.5239 479.682)" class="st0" width="3.4" height="49.6"/>
	
		<rect x="85.4" y="443" transform="matrix(0.9574 -0.2888 0.2888 0.9574 -124.0945 48.3574)" class="st0" width="32.8" height="3.4"/>
	
		<rect x="76.8" y="429.7" transform="matrix(0.7777 -0.6286 0.6286 0.7777 -261.2572 147.9037)" class="st0" width="3.4" height="27.4"/>
	
		<rect x="228" y="454.6" transform="matrix(0.9383 -0.3457 0.3457 0.9383 -142.7029 112.6171)" class="st0" width="32.8" height="3.4"/>
	
		<rect x="264.9" y="443.8" transform="matrix(0.3486 -0.9373 0.9373 0.3486 -255.1564 547.8782)" class="st0" width="3.4" height="27.4"/>
	
		<rect x="205.1" y="480.6" transform="matrix(1.729914e-002 -0.9999 0.9999 1.729914e-002 -256.3332 703.8286)" class="st0" width="49.6" height="3.4"/>
	
		<rect x="198.8" y="480.2" transform="matrix(1.729914e-002 -0.9999 0.9999 1.729914e-002 -262.183 697.1622)" class="st0" width="49.6" height="3.4"/>
	
		<rect x="146.4" y="447.8" transform="matrix(0.9805 -0.1963 0.1963 0.9805 -84.9324 42.0792)" class="st0" width="46.8" height="3.4"/>
	
		<rect x="127.4" y="458.3" transform="matrix(0.6314 -0.7755 0.7755 0.6314 -303.6917 281.0507)" class="st0" width="32.8" height="3.4"/>
	
		<rect x="152.1" y="452" transform="matrix(0.8805 -0.4741 0.4741 0.8805 -202.2555 128.5392)" class="st0" width="3.4" height="26.7"/>
	<g id="oxigenios_57_">
		<ellipse transform="matrix(0.9903 -0.139 0.139 0.9903 -53.8713 29.8172)" class="st2" cx="186.5" cy="400.6" rx="9.6" ry="9.6"/>
	</g>
	<circle class="st2" cx="86.3" cy="451.6" r="9.6"/>
	<circle class="st1" cx="69.8" cy="432.8" r="4.8"/>
	
		<ellipse transform="matrix(0.8374 -0.5465 0.5465 0.8374 -205.9388 213.2829)" class="st2" cx="255.6" cy="452.8" rx="9.6" ry="9.6"/>
	
		<ellipse transform="matrix(0.9481 -0.3181 0.3181 0.9481 -132.5609 112.8912)" class="st1" cx="279.4" cy="462.4" rx="4.8" ry="4.8"/>
	<circle class="st3" cx="117.5" cy="440.3" r="11.7"/>
	<g id="oxigenios_52_">
		<ellipse transform="matrix(0.9818 -0.1897 0.1897 0.9818 -72.8054 29.4481)" class="st2" cx="117.4" cy="395" rx="9.6" ry="9.6"/>
	</g>
	<circle class="st3" cx="226.9" cy="461.3" r="11.7"/>
	<g id="oxigenios_51_">
		
			<ellipse transform="matrix(0.9869 -0.1616 0.1616 0.9869 -78.7802 43.1848)" class="st2" cx="226.1" cy="505.9" rx="9.6" ry="9.6"/>
	</g>
	<circle class="st3" cx="149" cy="456.1" r="11.7"/>
	<ellipse transform="matrix(0.4723 -0.8815 0.8815 0.4723 -336.0728 392.7526)" class="st1" cx="160" cy="477" rx="4.8" ry="4.8"/>
	
		<ellipse transform="matrix(0.4723 -0.8815 0.8815 0.4723 -345.0731 366.8729)" class="st1" cx="133.9" cy="471.6" rx="4.8" ry="4.8"/>
	
		<ellipse transform="matrix(0.6858 -0.7278 0.7278 0.6858 -266.826 275.7531)" class="st3" cx="186" cy="446.9" rx="11.7" ry="11.7"/>
</g>
<g>
	<path class="st4" d="M34.2,297.1h-3.9v-29.2l18.5,22.1v-21.6h3.9v28.7h-3.8L34.2,279V297.1z"/>
	<path class="st4" d="M58.9,297l11.7-28.6L82.3,297H78l-0.9-2.3H64.1l-0.9,2.3H58.9z M65.5,291.1h10.2l-5.1-13.1L65.5,291.1z"/>
	<path class="st4" d="M98.4,268.4c1.9,0,3.7,0.4,5.4,1.1s3.1,1.8,4.4,3.1c1.3,1.3,2.2,2.8,3,4.5c0.7,1.7,1.1,3.6,1.1,5.6
		c0,2-0.4,3.8-1.1,5.6c-0.7,1.7-1.7,3.2-2.9,4.5s-2.7,2.3-4.4,3.1c-1.7,0.8-3.5,1.1-5.5,1.1h-10v-28.6H98.4z M98,293.4
		c1.5,0,2.8-0.3,4-0.8c1.2-0.6,2.3-1.3,3.2-2.3c0.9-1,1.6-2.1,2.1-3.4c0.5-1.3,0.7-2.7,0.7-4.1s-0.2-2.8-0.7-4.1
		c-0.5-1.3-1.2-2.4-2.1-3.4c-0.9-1-2-1.7-3.2-2.3s-2.6-0.8-4-0.8h-5.4v21.3L98,293.4L98,293.4z"/>
	<path class="st4" d="M122.6,268.5v4.6h4.4v1.2h-4.4v4.6h-1.3v-4.6h-4.4v-1.2h4.4v-4.6H122.6z"/>
</g>
<path class="st4" d="M235.9,188.2h4.2v28.6h-4.2v-5.1v-3.7h-11.1v3.7v5.1h-4.2v-28.6h4.2v5v7.3v3.7v0.1h11.1v-0.1v-3.7v-7.3V188.2z"
	/>
<path class="st4" d="M252.2,190.1v4.6h4.4v1.2h-4.4v4.6H251v-4.6h-4.4v-1.2h4.4v-4.6H252.2z"/>
<g>
	<path class="st6" d="M952,616.6c10.6,3.3,21.2,6.6,31.8,10c6.3,2,18.3,22.4,23.2,28.4c3.9,4.7,5.3,10.7,6.2,16
		c2.1,12.1,1.9,22.5-0.5,32c-2.9,11.4-9.2,20.9-17.8,26.8c-8,5.5-17.8,7.7-26.4,9.7l-13.5,3.1l-0.9-3.8l13.5-3.1
		c8.7-2,17.7-4,25.1-9.1c7.8-5.3,13.5-14.1,16.2-24.5c2.3-8.9,2.4-18.9,0.5-30.4c-0.8-4.8-2.1-10.2-5.4-14.2
		c-4.2-5.1-15.6-25.4-21.4-27.2c-10.6-3.3-21.2-6.6-31.8-10L952,616.6z"/>
</g>
<polygon class="st4" points="1051.5,717.3 1036.7,729.1 1045.7,666 1041.8,665.5 1032.8,728.5 1019.7,716.1 1017,719 1034.7,735.7 
	1053.9,720.4 "/>
<g id="nad_x5F_3_1_">
	<path class="st4" d="M728.3,823.2h-2.8v-20.4l12.9,15.5v-15.1h2.8v20.1h-2.7l-10.3-12.6V823.2z"/>
	<path class="st4" d="M745.5,823.1l8.2-20l8.2,20h-3l-0.6-1.6h-9.2l-0.6,1.6H745.5z M750.1,819h7.2l-3.6-9.2L750.1,819z"/>
	<path class="st4" d="M773.2,803.1c1.3,0,2.6,0.3,3.8,0.8c1.2,0.5,2.2,1.2,3.1,2.2c0.9,0.9,1.6,2,2.1,3.2c0.5,1.2,0.8,2.5,0.8,3.9
		c0,1.4-0.2,2.7-0.7,3.9c-0.5,1.2-1.2,2.3-2,3.2c-0.9,0.9-1.9,1.6-3.1,2.1c-1.2,0.5-2.5,0.8-3.9,0.8h-7v-20H773.2z M772.8,820.6
		c1,0,2-0.2,2.8-0.6c0.9-0.4,1.6-0.9,2.2-1.6s1.1-1.5,1.4-2.4c0.3-0.9,0.5-1.9,0.5-2.9c0-1-0.2-2-0.5-2.9c-0.3-0.9-0.8-1.7-1.5-2.4
		c-0.6-0.7-1.4-1.2-2.2-1.6c-0.9-0.4-1.8-0.6-2.8-0.6h-3.7v14.9L772.8,820.6L772.8,820.6z"/>
	<path class="st4" d="M790.1,803.2v3.2h3.1v0.8h-3.1v3.2h-0.9v-3.2h-3.1v-0.8h3.1v-3.2H790.1z"/>
</g>
<g id="coA_x5F_3_1_">
	<path class="st4" d="M733.1,788.6c0.8,0,1.6-0.2,2.3-0.5c0.7-0.3,1.3-0.8,1.8-1.4l2.6,1.9c-0.8,1-1.8,1.7-2.9,2.3
		c-1.2,0.6-2.5,0.9-3.8,0.9c-1.2,0-2.3-0.2-3.3-0.6c-1-0.4-2-1-2.7-1.7c-0.8-0.7-1.4-1.6-1.9-2.6c-0.4-1-0.7-2-0.7-3.2
		c0-1.1,0.2-2.2,0.7-3.1c0.4-1,1.1-1.8,1.9-2.6c0.8-0.7,1.7-1.3,2.7-1.7c1-0.4,2.1-0.6,3.3-0.6c1.4,0,2.7,0.3,3.8,0.8
		c1.2,0.6,2.1,1.3,2.9,2.3l-2.6,1.9c-0.5-0.6-1.1-1.1-1.8-1.4c-0.7-0.3-1.5-0.5-2.3-0.5c-0.7,0-1.4,0.1-2,0.4
		c-0.6,0.3-1.2,0.6-1.7,1.1c-0.5,0.4-0.9,1-1.1,1.6c-0.3,0.6-0.4,1.2-0.4,1.9c0,0.7,0.1,1.3,0.4,1.9c0.3,0.6,0.6,1.1,1.1,1.6
		c0.5,0.4,1,0.8,1.7,1.1C731.7,788.5,732.3,788.6,733.1,788.6z"/>
	<path class="st4" d="M753.5,775.6c1.2,0,2.3,0.2,3.4,0.6c1,0.4,2,1,2.7,1.7c0.8,0.7,1.4,1.6,1.8,2.6c0.4,1,0.7,2,0.7,3.2
		c0,1.1-0.2,2.2-0.7,3.2c-0.4,1-1.1,1.8-1.8,2.6c-0.8,0.7-1.7,1.3-2.7,1.7c-1,0.4-2.2,0.6-3.4,0.6c-1.2,0-2.3-0.2-3.4-0.6
		c-1-0.4-2-1-2.7-1.7c-0.8-0.7-1.4-1.6-1.8-2.6c-0.4-1-0.7-2-0.7-3.2c0-1.1,0.2-2.2,0.7-3.2c0.4-1,1.1-1.8,1.8-2.6
		c0.8-0.7,1.7-1.3,2.7-1.7C751.2,775.8,752.3,775.6,753.5,775.6z M753.5,788.6c0.7,0,1.4-0.1,2-0.4c0.6-0.3,1.2-0.6,1.7-1.1
		c0.5-0.5,0.8-1,1.1-1.6c0.3-0.6,0.4-1.2,0.4-1.9c0-0.7-0.1-1.3-0.4-1.9c-0.3-0.6-0.6-1.1-1.1-1.6c-0.5-0.5-1-0.8-1.7-1.1
		c-0.6-0.3-1.3-0.4-2-0.4c-0.7,0-1.4,0.1-2,0.4c-0.6,0.3-1.2,0.6-1.7,1.1c-0.5,0.5-0.9,1-1.1,1.6c-0.3,0.6-0.4,1.2-0.4,1.9
		c0,0.7,0.1,1.3,0.4,1.9c0.3,0.6,0.7,1.1,1.1,1.6c0.5,0.5,1,0.8,1.7,1.1C752.1,788.5,752.8,788.6,753.5,788.6z"/>
	<path class="st4" d="M767.3,791.8l9.7-22.6l9.7,22.6h-3.5l-0.7-1.8h-10.9l-0.7,1.8H767.3z M772.7,787.1h8.5l-4.3-10.3L772.7,787.1z
		"/>
</g>
<g>
	<path class="st6" d="M826.3,806.3c9.5,5.8,18.9,11.6,28.4,17.5c5.6,3.5,12.2,26.2,15.5,33.3c2.6,5.5,2.5,11.7,2.1,17
		c-1,12.2-3.7,22.3-8.4,30.9c-5.6,10.3-14.1,18-23.8,21.6c-9.1,3.4-19.1,3.1-28,2.9l-13.8-0.3l0.1-3.9l13.8,0.3
		c8.9,0.2,18.1,0.4,26.5-2.7c8.8-3.3,16.5-10.3,21.7-19.8c4.4-8.1,7-17.7,7.9-29.3c0.4-4.8,0.5-10.4-1.7-15.1
		c-2.8-6-8.9-28.4-14-31.6c-9.5-5.8-18.9-11.7-28.4-17.5L826.3,806.3z"/>
</g>
<polygon class="st4" points="902.1,921.7 887.3,933.5 896.4,870.4 892.5,869.9 883.4,933 870.4,920.5 867.7,923.4 885.3,940.2 
	904.6,924.8 "/>
<g id="co2_x5F_3_1_">
	<polygon class="st0" points="775.5,945.1 773.9,946.6 752.7,924.1 754.2,922.6 	"/>
	<polygon class="st0" points="772.5,947.7 770.9,949.2 749.7,926.7 751.3,925.2 	"/>
	
		<rect x="727" y="935.9" transform="matrix(0.7201 -0.6939 0.6939 0.7201 -442.3309 777.477)" class="st0" width="30.9" height="2.1"/>
	
		<rect x="724.4" y="933" transform="matrix(0.7201 -0.6939 0.6939 0.7201 -441.0212 774.8307)" class="st0" width="30.9" height="2.1"/>
	<ellipse transform="matrix(0.5919 -0.806 0.806 0.5919 -447.8261 1009.146)" class="st2" cx="772.6" cy="946.8" rx="6" ry="6"/>
	<ellipse transform="matrix(0.5848 -0.8112 0.8112 0.5848 -463.8105 985.1345)" class="st2" cx="730.4" cy="945.6" rx="6" ry="6"/>
	<ellipse class="st3" cx="751.9" cy="925.3" rx="7.3" ry="7.3"/>
</g>
<g id="nadh_x5F_3_1_">
	<path class="st4" d="M717.9,909.3h-2.8v-20.4l12.9,15.5v-15.1h2.8v20.1h-2.7l-10.3-12.6V909.3z"/>
	<path class="st4" d="M735.2,909.2l8.2-20l8.2,20h-3l-0.6-1.6h-9.2l-0.6,1.6H735.2z M739.8,905h7.2l-3.6-9.2L739.8,905z"/>
	<path class="st4" d="M762.8,889.2c1.3,0,2.6,0.3,3.8,0.8s2.2,1.2,3.1,2.2c0.9,0.9,1.6,2,2.1,3.2c0.5,1.2,0.8,2.5,0.8,3.9
		c0,1.4-0.2,2.7-0.7,3.9c-0.5,1.2-1.2,2.3-2,3.2c-0.9,0.9-1.9,1.6-3.1,2.1c-1.2,0.5-2.5,0.8-3.9,0.8h-7v-20H762.8z M762.5,906.6
		c1,0,2-0.2,2.8-0.6c0.9-0.4,1.6-0.9,2.2-1.6c0.6-0.7,1.1-1.5,1.4-2.4c0.3-0.9,0.5-1.9,0.5-2.9c0-1-0.2-2-0.5-2.9
		c-0.3-0.9-0.8-1.7-1.5-2.4c-0.6-0.7-1.4-1.2-2.2-1.6c-0.9-0.4-1.8-0.6-2.8-0.6h-3.7v14.9H762.5z"/>
	<path class="st4" d="M787.6,889.2h2.9v20h-2.9v-3.6V903h-7.8v2.6v3.6h-2.9v-20h2.9v3.5v5.1v2.6v0.1h7.8v-0.1v-2.6v-5.1V889.2z"/>
</g>
<g>
	<path class="st6" d="M653,961.1c-3.9,10.4-7.8,20.8-11.7,31.2c-2.3,6.2-23.4,17-29.7,21.6c-4.9,3.6-11,4.7-16.3,5.3
		c-12.2,1.4-22.6,0.6-31.9-2.3c-11.2-3.5-20.4-10.4-25.8-19.2c-5.1-8.3-6.7-18.2-8.2-26.9l-2.3-13.6l3.8-0.7l2.3,13.6
		c1.5,8.8,3.1,17.9,7.7,25.5c4.9,8,13.3,14.3,23.6,17.5c8.8,2.8,18.7,3.5,30.3,2.2c4.8-0.6,10.3-1.5,14.5-4.6
		c5.3-3.9,26.2-14.2,28.3-19.8c3.9-10.4,7.8-20.8,11.7-31.2L653,961.1z"/>
</g>
<polygon class="st4" points="554.2,1057.7 539.8,1045.4 603.4,1042.2 603.2,1038.3 539.6,1041.5 549.3,1026.3 546,1024.2 
	532.9,1044.7 551.7,1060.7 "/>
<g>
	<path class="st6" d="M189,963.8c9.8-5.2,19.7-10.3,29.5-15.5c5.8-3.1,13.9-25.4,17.7-32.1c3-5.3,3.3-11.5,3.2-16.9
		c-0.1-12.3-2.2-22.5-6.3-31.4c-4.9-10.7-12.8-18.9-22.3-23.2c-8.8-4-18.9-4.4-27.7-4.8l-13.8-0.6l-0.2,3.9l13.8,0.6
		c8.9,0.4,18.1,0.8,26.3,4.5c8.6,3.9,15.8,11.4,20.3,21.2c3.9,8.4,5.8,18.1,5.9,29.8c0.1,4.9-0.2,10.4-2.7,14.9
		c-3.2,5.8-10.8,27.8-16.1,30.6c-9.8,5.2-19.7,10.3-29.5,15.5L189,963.8z"/>
</g>
<polygon class="st4" points="272.6,853.8 258.6,841 263.3,904.6 259.4,904.9 254.7,841.3 240.8,852.8 238.3,849.8 257.1,834.3 
	275.2,850.9 "/>
<g>
	<path class="st6" d="M154.9,654.6c10.8-2.6,21.6-5.2,32.4-7.8c6.4-1.5,19.7-21.1,25.1-26.8c4.2-4.4,6-10.3,7.3-15.6
		c2.9-11.9,3.4-22.4,1.6-32c-2.1-11.6-7.8-21.5-15.9-27.9c-7.6-6-17.2-8.9-25.7-11.5l-13.2-4l-1.1,3.7l13.2,4
		c8.5,2.6,17.4,5.2,24.4,10.8c7.4,5.9,12.5,14.9,14.5,25.6c1.7,9.1,1.2,19-1.6,30.3c-1.1,4.7-2.8,10.1-6.3,13.8
		c-4.6,4.8-17.3,24.3-23.2,25.7c-10.8,2.6-21.6,5.2-32.4,7.8L154.9,654.6z"/>
</g>
<polygon class="st4" points="263,568.5 252.6,552.7 241.5,615.5 237.6,614.8 248.7,552 232.4,559.8 230.7,556.2 252.7,545.8 
	266.3,566.4 "/>
<g>
	<path class="st6" d="M100.7,314.7c9.5,5.7,19.1,11.4,28.6,17.1c5.7,3.4,28.9-1.3,36.7-1.6c6.1-0.2,11.5-3.2,16.1-6
		c10.4-6.5,18.1-13.6,23.5-21.7c6.5-9.8,9.4-20.8,8.1-31.1c-1.2-9.6-6.1-18.4-10.4-26.2l-6.7-12.1l-3.4,1.9l6.7,12.1
		c4.3,7.8,8.8,15.9,9.9,24.8c1.2,9.3-1.5,19.4-7.5,28.4c-5.1,7.6-12.4,14.4-22.3,20.6c-4.1,2.6-9,5.2-14.2,5.4
		c-6.6,0.3-29.3,5.3-34.5,2.2c-9.5-5.7-19.1-11.4-28.6-17.1L100.7,314.7z"/>
</g>
<polygon class="st4" points="238.1,328.5 241.8,309.9 190,347.1 187.7,343.9 239.4,306.8 222.4,300.9 223.7,297.2 246.7,305.1 
	242,329.3 "/>
<g>
	<path class="st4" d="M713.6,213.6v-19.1h4.4v1.3h-2.8v16.5h2.8v1.3H713.6z"/>
	<path class="st4" d="M720.3,193.4h5V211h-2.5v-15.4h-2.5V193.4z"/>
	<path class="st4" d="M732.1,194.5v19.2h-4.4v-1.3h2.8v-16.5h-2.8v-1.3H732.1z"/>
</g>
<g>
	<path class="st4" d="M959.5,460.9v-19.1h4.4v1.3h-2.8v16.5h2.8v1.3H959.5z"/>
	<path class="st4" d="M975.3,447.5c0.8,0.5,1.4,1.2,1.9,2.1s0.7,1.8,0.7,2.8c0,0.8-0.2,1.6-0.5,2.3c-0.3,0.7-0.7,1.3-1.2,1.9
		c-0.5,0.5-1.1,0.9-1.9,1.2c-0.7,0.3-1.5,0.5-2.3,0.5c-1.1,0-2.1-0.3-3.1-0.9c-0.8-0.5-1.4-1.1-1.9-1.8c-0.5-0.8-0.8-1.6-0.9-2.5
		h2.3h0.1c0,0.2,0,0.4,0.1,0.5c0.1,0.4,0.3,0.7,0.6,1.1c0.2,0.3,0.5,0.6,0.9,0.8c0.6,0.4,1.3,0.6,2,0.6c0.5,0,1-0.1,1.4-0.3
		c0.4-0.2,0.8-0.4,1.2-0.8s0.6-0.7,0.8-1.1c0.2-0.4,0.3-0.9,0.3-1.4c0-0.5-0.1-1-0.3-1.4c-0.2-0.4-0.5-0.8-0.8-1.2
		c-0.3-0.3-0.7-0.6-1.2-0.8c-0.4-0.2-0.9-0.3-1.4-0.3c-0.5,0-1.1,0.1-1.6,0.4l0.9-2.1l0.2-0.5l1.7-3.8h-6.1v-2.1h9.5l-2.8,6.2
		C974.4,447,974.9,447.2,975.3,447.5z"/>
	<path class="st4" d="M984.7,441.8v19.2h-4.4v-1.3h2.8v-16.5h-2.8v-1.3H984.7z"/>
</g>
<g>
	<path class="st4" d="M676.8,414.4v-19.1h4.4v1.3h-2.8v16.5h2.8v1.3H676.8z"/>
	<path class="st4" d="M694.8,399.3c0,0.8-0.1,1.4-0.3,1.9c-0.2,0.5-0.6,1.1-1,1.6l-5.3,6.8h6.6v2.1h-11.1l5.5-7.3
		c0.5-0.6,0.9-1.2,1.3-1.8c0.2-0.2,0.3-0.4,0.5-0.7s0.3-0.4,0.4-0.6c0.1-0.2,0.2-0.3,0.3-0.4c0.1-0.1,0.1-0.2,0.2-0.2
		c0.3-0.5,0.4-1,0.4-1.5c0-0.4-0.1-0.8-0.2-1.2s-0.4-0.7-0.7-1s-0.6-0.5-1-0.6c-0.4-0.2-0.8-0.2-1.2-0.2c-0.4,0-0.8,0.1-1.2,0.2
		c-0.4,0.2-0.7,0.4-1,0.6c-0.3,0.3-0.5,0.6-0.7,1c-0.2,0.4-0.2,0.8-0.2,1.2h-2.5c0-0.7,0.1-1.4,0.4-2c0.3-0.6,0.7-1.2,1.2-1.7
		c0.5-0.5,1.1-0.8,1.8-1.1s1.4-0.4,2.2-0.4s1.5,0.1,2.2,0.4s1.3,0.6,1.8,1.1c0.5,0.5,0.9,1,1.2,1.7
		C694.7,397.9,694.8,398.6,694.8,399.3z"/>
	<path class="st4" d="M701.6,395.3v19.2h-4.4v-1.3h2.8v-16.5h-2.8v-1.3H701.6z"/>
</g>
<g>
	<path class="st4" d="M950.8,681.2v-19.1h4.4v1.3h-2.8v16.5h2.8v1.3H950.8z"/>
	<path class="st4" d="M971,676.7h-2.1v1.9h-2.4v-1.9h-8.9l11.3-15.7v13.6h2.1V676.7z M961.8,674.6h4.6V668L961.8,674.6z"/>
	<path class="st4" d="M977.7,662.1v19.2h-4.4v-1.3h2.8v-16.5h-2.8v-1.3H977.7z"/>
</g>
<g>
	<path class="st4" d="M823,891.5v-19.1h4.4v1.3h-2.8v16.5h2.8v1.3H823z"/>
	<path class="st4" d="M833.7,873.4l-0.4,3.2c0.2,0,0.3-0.1,0.5-0.1c0.2,0,0.3,0,0.5,0c0.9,0,1.8,0.2,2.6,0.5
		c0.8,0.3,1.5,0.8,2.1,1.3c0.6,0.6,1.1,1.2,1.4,2c0.3,0.8,0.5,1.6,0.5,2.4c0,0.8-0.2,1.6-0.5,2.4c-0.3,0.8-0.8,1.4-1.4,2
		s-1.3,1-2.1,1.3s-1.7,0.5-2.7,0.5c-1,0-1.9-0.2-2.7-0.5c-0.8-0.3-1.4-0.8-2-1.3l1.4-1.6c0.4,0.4,0.9,0.7,1.5,1
		c0.6,0.2,1.2,0.3,1.8,0.3c0.6,0,1.1-0.1,1.6-0.3c0.5-0.2,0.9-0.5,1.3-0.9c0.4-0.4,0.6-0.8,0.9-1.3c0.2-0.5,0.3-1,0.3-1.6
		s-0.1-1.1-0.3-1.6c-0.2-0.5-0.5-0.9-0.9-1.3c-0.4-0.4-0.8-0.7-1.4-0.9c-0.5-0.2-1-0.3-1.6-0.3c-0.7,0-1.3,0.1-1.8,0.3
		s-0.9,0.5-1.4,0.9l0.9-8.6h8.1v2.1H833.7z"/>
	<path class="st4" d="M847.7,872.4v19.2h-4.4v-1.3h2.8v-16.5h-2.8v-1.3H847.7z"/>
</g>
<g>
	<path class="st4" d="M581.5,993.4v-19.1h4.4v1.3h-2.8v16.5h2.8v1.3H581.5z"/>
	<path class="st4" d="M593.8,979.8c0.8,0,1.5,0.1,2.2,0.4c0.7,0.3,1.3,0.7,1.8,1.2c0.5,0.5,0.9,1.1,1.2,1.8s0.4,1.4,0.4,2.1
		c0,0.8-0.1,1.5-0.4,2.1c-0.3,0.7-0.7,1.2-1.2,1.7c-0.5,0.5-1.1,0.9-1.8,1.2c-0.7,0.3-1.4,0.4-2.2,0.4c-0.8,0-1.5-0.1-2.2-0.4
		c-0.7-0.3-1.3-0.7-1.8-1.2c-0.5-0.5-0.9-1.1-1.2-1.7c-0.3-0.7-0.4-1.4-0.4-2.1c0-0.6,0.1-1.1,0.2-1.6c0.2-0.5,0.4-1,0.7-1.4
		l2.9-4.2l3.2-4.8h0h0.9h1.9l-4.3,6.5l0,0l-0.1,0.1H593.8z M593.9,988.5c0.4,0,0.8-0.1,1.2-0.2c0.4-0.2,0.7-0.4,0.9-0.7
		c0.3-0.3,0.5-0.6,0.6-1c0.2-0.4,0.2-0.8,0.2-1.3c0-0.5-0.1-0.9-0.2-1.3c-0.2-0.4-0.4-0.7-0.6-1c-0.3-0.3-0.6-0.5-0.9-0.7
		c-0.4-0.2-0.7-0.3-1.2-0.3s-0.8,0.1-1.2,0.3s-0.7,0.4-1,0.7c-0.3,0.3-0.5,0.6-0.7,1c-0.2,0.4-0.2,0.8-0.2,1.3
		c0,0.5,0.1,0.9,0.2,1.3c0.2,0.4,0.4,0.7,0.7,1c0.3,0.3,0.6,0.5,1,0.7C593,988.4,593.4,988.5,593.9,988.5z"/>
	<path class="st4" d="M606.2,974.3v19.2h-4.4v-1.3h2.8v-16.5h-2.8v-1.3H606.2z"/>
</g>
<g>
	<path class="st4" d="M181.7,908.6v-19.1h4.4v1.3h-2.8v16.5h2.8v1.3H181.7z"/>
	<path class="st4" d="M200.3,888.3l-9,17.6h0h-2.6l0.8-1.6l7.1-13.9h-8.2v-2.1h9.4H200.3z"/>
	<path class="st4" d="M207.1,889.4v19.2h-4.4v-1.3h2.8v-16.5h-2.8v-1.3H207.1z"/>
</g>
<g>
	<path class="st4" d="M159.1,599.9v-19.1h4.4v1.3h-2.8v16.5h2.8v1.3H159.1z"/>
	<path class="st4" d="M165.8,592.2c0-0.9,0.2-1.7,0.7-2.4c0.4-0.7,1-1.3,1.8-1.8c-0.6-0.4-1-0.9-1.3-1.6c-0.3-0.6-0.5-1.3-0.5-2.1
		c0-0.6,0.1-1.2,0.4-1.8c0.2-0.6,0.6-1.1,1-1.5c0.4-0.4,1-0.8,1.5-1c0.6-0.2,1.2-0.4,1.9-0.4s1.3,0.1,1.9,0.4c0.6,0.2,1.1,0.6,1.5,1
		c0.4,0.4,0.8,0.9,1,1.5c0.3,0.6,0.4,1.2,0.4,1.8c0,0.8-0.2,1.5-0.5,2.1c-0.3,0.6-0.8,1.2-1.3,1.6c0.7,0.5,1.3,1.1,1.8,1.8
		s0.7,1.5,0.7,2.4c0,0.7-0.1,1.3-0.4,1.9s-0.7,1.1-1.2,1.6s-1.1,0.8-1.7,1.1c-0.7,0.3-1.4,0.4-2.1,0.4c-0.8,0-1.5-0.1-2.1-0.4
		s-1.2-0.6-1.7-1.1c-0.5-0.4-0.9-1-1.2-1.6S165.8,592.9,165.8,592.2z M168.3,592.1c0,0.4,0.1,0.8,0.2,1.1c0.2,0.3,0.4,0.6,0.6,0.9
		c0.3,0.3,0.6,0.5,0.9,0.6c0.4,0.1,0.7,0.2,1.2,0.2c0.4,0,0.8-0.1,1.1-0.2c0.4-0.1,0.7-0.3,0.9-0.6c0.3-0.3,0.5-0.6,0.6-0.9
		c0.2-0.3,0.2-0.7,0.2-1.1c0-0.4-0.1-0.8-0.2-1.1c-0.2-0.4-0.4-0.7-0.6-0.9c-0.3-0.3-0.6-0.5-0.9-0.6c-0.4-0.1-0.7-0.2-1.1-0.2
		c-0.4,0-0.8,0.1-1.2,0.2c-0.4,0.1-0.7,0.3-0.9,0.6c-0.3,0.3-0.5,0.6-0.6,0.9C168.4,591.3,168.3,591.7,168.3,592.1z M168.8,584.4
		c0,0.7,0.2,1.3,0.7,1.8c0.5,0.5,1.1,0.7,1.8,0.7c0.7,0,1.3-0.2,1.8-0.7c0.5-0.5,0.7-1.1,0.7-1.8c0-0.8-0.2-1.4-0.7-1.8
		c-0.5-0.5-1.1-0.7-1.8-0.7c-0.7,0-1.3,0.2-1.8,0.7C169,583,168.8,583.6,168.8,584.4z"/>
	<path class="st4" d="M183.4,580.7v19.2H179v-1.3h2.8V582H179v-1.3H183.4z"/>
</g>
<g>
	<path class="st4" d="M162.5,288.8v-19.1h4.4v1.3h-2.8v16.5h2.8v1.3H162.5z"/>
	<path class="st4" d="M174.9,279.5c-0.8,0-1.5-0.1-2.2-0.4c-0.7-0.3-1.3-0.7-1.8-1.2s-0.9-1.1-1.2-1.8c-0.3-0.7-0.4-1.4-0.4-2.1
		c0-0.7,0.1-1.4,0.4-2.1c0.3-0.7,0.7-1.2,1.2-1.7s1.1-0.9,1.8-1.2c0.7-0.3,1.4-0.4,2.2-0.4c0.8,0,1.5,0.1,2.2,0.4s1.3,0.7,1.8,1.2
		c0.5,0.5,0.9,1.1,1.2,1.7c0.3,0.7,0.4,1.4,0.4,2.1c0,0.6-0.1,1.1-0.3,1.6c-0.2,0.5-0.4,1-0.7,1.4l-2.9,4.2l-3.2,4.8h0h-0.9h-1.9
		l4.3-6.5h0l0.1-0.1H174.9z M174.9,270.8c-0.4,0-0.8,0.1-1.2,0.3c-0.4,0.2-0.7,0.4-0.9,0.7c-0.3,0.3-0.5,0.6-0.6,1
		c-0.2,0.4-0.2,0.8-0.2,1.3c0,0.5,0.1,0.9,0.2,1.3c0.2,0.4,0.4,0.7,0.6,1c0.3,0.3,0.6,0.5,0.9,0.7c0.4,0.2,0.7,0.3,1.2,0.3
		s0.8-0.1,1.2-0.3s0.7-0.4,1-0.7c0.3-0.3,0.5-0.6,0.7-1c0.2-0.4,0.2-0.8,0.2-1.3c0-0.4-0.1-0.9-0.2-1.3c-0.2-0.4-0.4-0.7-0.7-1
		c-0.3-0.3-0.6-0.5-1-0.7S175.3,270.8,174.9,270.8z"/>
	<path class="st4" d="M187.2,269.7v19.2h-4.4v-1.3h2.8V271h-2.8v-1.3H187.2z"/>
</g>
</svg>
