<?xml version="1.0" encoding="utf-8"?>
<!-- Generator: Adobe Illustrator 19.2.1, SVG Export Plug-In . SVG Version: 6.00 Build 0)  -->
<svg version="1.1" id="Layer_1" xmlns="http://www.w3.org/2000/svg" xmlns:xlink="http://www.w3.org/1999/xlink" x="0px" y="0px"
	 viewBox="0 0 450.168 536.648" enable-background="new 0 0 450.168 536.648" xml:space="preserve">
<path id="citoplasma" fill="#85C9B9" d="M122.882,10.354c21.952-7.225,45.36-8.474,68.452-9.418
	c45.75-1.869,92.939-2.534,135.624,14.035c39.792,15.444,73.556,45.881,93.034,83.861c10.94,21.332,17.417,44.69,21.966,68.228
	c15.261,78.958,9.146,161.942-17.523,237.811c-14.347,40.812-35.836,81.09-71.253,105.931
	c-43.082,30.214-101.821,32.633-151.045,14.035c-49.226-18.598-104.207-42.508-134.825-85.305
	c-16.43-22.965-30.09-52.379-43.989-76.959c-30.333-53.641-29.625-118.748-6.284-201.34C35.076,97.415,53.719,33.118,122.882,10.354
	z"/>
</svg>
