<?xml version="1.0" encoding="utf-8"?>
<!-- Generator: Adobe Illustrator 22.1.0, SVG Export Plug-In . SVG Version: 6.00 Build 0)  -->
<svg version="1.1" id="Camada_1" xmlns="http://www.w3.org/2000/svg" xmlns:xlink="http://www.w3.org/1999/xlink" x="0px" y="0px"
	 viewBox="0 0 538.1 583.6" style="enable-background:new 0 0 538.1 583.6;" xml:space="preserve">
<style type="text/css">
	.st0{fill:#6FD1A0;}
</style>
<path class="st0" d="M69.3,104.1c18.3-14.3,39.3-24.9,58.2-38.5c20.4-14.5,38.6-32.3,60.2-45c58.7-34.1,136.3-23.5,192.9,14
	s94.3,98,119.1,161.2c22.2,57,35.1,117.6,38,178.7c1.3,27.7,0.5,55.8-9,81.9c-5.5,15-13.7,28.8-23.3,41.5
	c-38.9,51-102,81.7-166.4,85.3c-64.2,3.7-128.7-18.7-180-57.4c-32.3-24.5-59.5-55.2-86.2-85.7C57.5,422.7,42.2,405,31,384.7
	C-16.6,298.2-13.4,168.6,69.3,104.1z"/>
</svg>
