<?xml version="1.0" encoding="utf-8"?>
<!-- Generator: Adobe Illustrator 19.2.1, SVG Export Plug-In . SVG Version: 6.00 Build 0)  -->
<svg version="1.1" id="Layer_1" xmlns="http://www.w3.org/2000/svg" xmlns:xlink="http://www.w3.org/1999/xlink" x="0px" y="0px"
	 viewBox="0 0 346.162 493.842" enable-background="new 0 0 346.162 493.842" xml:space="preserve">
<g id="cloroplastos_2_">
	
		<ellipse transform="matrix(0.377 -0.9262 0.9262 0.377 -120.8724 314.1402)" fill="#52B57E" cx="173.081" cy="246.921" rx="259.029" ry="154.263"/>
	
		<ellipse transform="matrix(0.377 -0.9262 0.9262 0.377 -12.9693 264.0259)" fill="#6DB96D" cx="189.78" cy="141.654" rx="51.747" ry="57.57"/>
	
		<ellipse transform="matrix(0.377 -0.9262 0.9262 0.377 13.4579 345.8246)" fill="#88C37C" cx="263.799" cy="162.908" rx="51.747" ry="57.57"/>
	
		<ellipse transform="matrix(0.377 -0.9262 0.9262 0.377 -113.7703 261.4624)" fill="#88C37C" cx="137.474" cy="215.303" rx="51.747" ry="57.57"/>
	
		<ellipse transform="matrix(0.377 -0.9262 0.9262 0.377 -82.2054 337.7215)" fill="#6DB96D" cx="209.944" cy="229.968" rx="51.747" ry="63.168"/>
	
		<ellipse transform="matrix(0.377 -0.9262 0.9262 0.377 -196.3494 303.8374)" fill="#6DB96D" cx="127.684" cy="297.876" rx="51.747" ry="57.57"/>
	
		<ellipse transform="matrix(0.377 -0.9262 0.9262 0.377 -184.8092 392.2571)" fill="#88C37C" cx="199.181" cy="333.507" rx="51.747" ry="57.57"/>
	
		<ellipse transform="matrix(0.377 -0.9262 0.9262 0.377 -314.1237 304.8188)" fill="#88C37C" cx="69.526" cy="385.914" rx="51.747" ry="57.57"/>
	
		<ellipse transform="matrix(0.377 -0.9262 0.9262 0.377 -283.2969 387.6023)" fill="#6DB96D" cx="146.477" cy="404.391" rx="51.747" ry="57.57"/>
	
		<ellipse transform="matrix(0.6908 -0.7231 0.7231 0.6908 7.2474 241.9487)" fill="#6DB96D" cx="286.497" cy="112.501" rx="51.747" ry="57.57"/>
	
		<ellipse transform="matrix(0.6908 -0.7231 0.7231 0.6908 22.3184 183.2911)" fill="#88C37C" cx="225.453" cy="65.552" rx="51.747" ry="57.57"/>
</g>
</svg>
