<svg id="Layer_1" data-name="Layer 1" xmlns="http://www.w3.org/2000/svg" viewBox="0 0 239.956 87.07"><title>Untitled-1</title><g id="ENZIMA"><path d="M33.115,74.852A20.646,20.646,0,0,0,49.045,67.5l10.161,7.476a33.524,33.524,0,0,1-26.091,12.1A34.064,34.064,0,0,1,9.747,77.937,31.392,31.392,0,0,1,2.6,67.972a29.766,29.766,0,0,1,0-24.318,31.377,31.377,0,0,1,7.15-9.964,34.059,34.059,0,0,1,23.368-9.135,33.918,33.918,0,0,1,14.8,3.234,31.86,31.86,0,0,1,11.29,8.864L49.045,44.128a19.261,19.261,0,0,0-6.9-5.4,21.712,21.712,0,0,0-16.871-.483,20.262,20.262,0,0,0-6.46,4.068,18.909,18.909,0,0,0-4.327,6.07,18.094,18.094,0,0,0,0,14.737,18.878,18.878,0,0,0,4.327,6.07,21.113,21.113,0,0,0,6.46,4.126A20.266,20.266,0,0,0,33.115,74.852Z" fill="#222248"/><path d="M112.014,24.437a34.2,34.2,0,0,1,12.92,2.432,33.352,33.352,0,0,1,10.536,6.7,31.342,31.342,0,0,1,7.087,9.965,30.3,30.3,0,0,1,0,24.437,31.342,31.342,0,0,1-7.087,9.965,33.318,33.318,0,0,1-10.536,6.7,35.539,35.539,0,0,1-25.84,0,33.318,33.318,0,0,1-10.536-6.7,31.315,31.315,0,0,1-7.088-9.965,30.315,30.315,0,0,1,0-24.437,31.315,31.315,0,0,1,7.088-9.965,33.352,33.352,0,0,1,10.536-6.7A34.19,34.19,0,0,1,112.014,24.437Zm0.063,50.415a20.725,20.725,0,0,0,7.814-1.482,20.192,20.192,0,0,0,6.44-4.093,19.022,19.022,0,0,0,4.313-6.109,18.35,18.35,0,0,0,0-14.828,19.071,19.071,0,0,0-4.313-6.108,20.226,20.226,0,0,0-6.44-4.093,21.33,21.33,0,0,0-15.631,0,20.237,20.237,0,0,0-6.44,4.093,19.911,19.911,0,0,0-4.376,6.108,17.726,17.726,0,0,0,0,14.828,19.857,19.857,0,0,0,4.376,6.109,20.2,20.2,0,0,0,6.44,4.093A20.721,20.721,0,0,0,112.076,74.852Z" fill="#222248"/><path d="M164.945,86.952L202.45,0l37.506,86.952H226.283l-2.76-6.881H181.5l-2.885,6.881H164.945Zm21.073-18.031h32.864L202.45,29.063Z" fill="#222248"/></g></svg>