<?xml version="1.0" encoding="utf-8"?>
<!-- Generator: Adobe Illustrator 19.2.1, SVG Export Plug-In . SVG Version: 6.00 Build 0)  -->
<svg version="1.1" id="Layer_1" xmlns="http://www.w3.org/2000/svg" xmlns:xlink="http://www.w3.org/1999/xlink" x="0px" y="0px"
	 viewBox="0 0 576.2 377.7" enable-background="new 0 0 576.2 377.7" xml:space="preserve">
<g>
	<path fill="#615BA5" d="M164.5,364.9c49.9,11.7,104.1,16.8,156.3,9.4c18.2-2.6,36-6.7,53.7-10.7c30.9-7.1,61.8-14.1,92.6-21.2
		c8.6-2,17.3-4,25-7.4c6.2-2.8,11.5-6.4,16.6-10.1c14.9-10.8,28.4-22.5,40.4-34.9c10-10.3,19.2-21.7,20.5-34.1
		c1.3-12.4-7.4-25.9-23.9-29.7c-16.4,19-39.2,34.9-62.4,50c-36,23.5-74.6,46.2-120.3,58.2c-48.9,12.9-102.4,12.5-153.8,8.5
		c-25.3-2-50.5-4.8-74.3-10.9c-32.1-8.3-60.9-22.5-82.7-40.9c-7-5.9-15.2-12.8-26.2-12c-16.1,1.2-31.3,19.5-24.1,29.5
		c6.2,8.5,25.3,9.8,36.6,14.1C79.9,338,119.6,354.4,164.5,364.9z"/>
	<path fill="#615BA5" d="M203.7,334.4c14.2,2,29,3.2,43.1,0.5c14.1-2.6,27.5-9.7,31.8-19.5c2.9-6.6,0.1-15.1-9-17.4
		c-6.2-1.6-13,0.2-19.4,1.4c-30.5,6.1-63.6,1.5-90.9-9.2s-49.1-27-67.5-44.8c-7.6-7.3-15.3-15.4-27.5-18.5
		c-14.5-3.7-32.8,1.7-39.4,11.7c-8.9,13.5,4.4,25.2,19.2,32.2c15.6,7.4,28.4,15.5,42.9,24.1C120.5,314.6,160.8,328.4,203.7,334.4z"
		/>
	<path fill="#615BA5" d="M437.5,284.3c-25.3,14.1-51.6,28.6-82.7,34c-12.8,2.2-26.9,2.6-37.9-2.2c-11-4.8-16.5-16.2-8.6-23.7
		c4.3-4,11.2-6.1,17.8-8c44.4-12.6,89.5-25.3,128.2-45.3s71.1-48.6,79.2-81.7c11.9-4.7,27,3.4,28.8,12.8c2.6,13-10.9,22.5-19.1,33.1
		c-6,7.7-7.1,16.5-12.9,24.2C512.8,250.6,466,268.4,437.5,284.3z"/>
	<path fill="#615BA5" d="M30,219.5c-1.6,0.4-3.2,0.8-4.8,0.7c-3.1-0.3-5.2-2.4-6.5-4.4c-10.8-16.6,1.5-39,25.6-46.6
		c4-1.3,8.3-2.2,12.6-1.8c3.4,0.3,6.6,1.4,9.6,2.5c61,22.4,74.9,71.5,139,89.4c20.3,5.7,71.2-6.4,92.8-9.4
		c28.4-3.9,52.8-8.3,75.5-21.2c7.5-4.3,15-8.5,22.4-12.8c17.9-10.2,35.9-20.4,53.8-30.6c16.7-9.5,33.6-19.2,45.8-31.6
		c17.3-17.7,24.3-40.3,46.6-54.9c4.5,2,8.5,4.4,12.6,6.8c6.6,3.9,13.3,7.9,17.5,13.1s5.3,12.2,0.6,17.4c-5.9,6.5-18.1,8.1-27.7,11.7
		c-17.4,6.5-26.8,19.8-37.5,31.4c-16.3,17.7-37.5,32.9-58.5,48c-17.7,12.7-35.9,25.6-58.9,32.7c-16.4,5.1-34.4,6.9-51.1,11.4
		c-12.1,3.3-23.4,7.9-35.7,10.6c-11.5,2.5-23.5,3.1-35.4,3.7c-40.7,2.1-84.5,3.6-118.4-11.8C112,256.5,83.3,205.4,30,219.5z"/>
	<path fill="#615BA5" d="M277.8,195.6c-10.9,1.4-22,2.9-33,2.7c-19.9-0.2-38.8-5.5-56.9-11C144,174,101.5,158.5,59.1,143.1
		c-5.9-2.1-12-4.4-16-8.1c-9.1-8.3-4.6-20.9,4.2-29.6c10.1-10.1,26.5-17.9,43.8-17.6c23,0.4,40.3,13.8,54.9,26.1
		c19.4,16.3,39.7,32.5,65.5,43.6c25.7,11.1,58.1,16.6,87.3,9.8c11.2-2.6,21.9-6.9,33.6-7.7c21.9-1.4,52.9,22.4,25.4,31.6
		c-7.8,2.6-21.9-1.1-30.2-1C311,190.2,294.2,193.5,277.8,195.6z"/>
	<path fill="#615BA5" d="M413.7,173.3c-7.8,3.5-18.4,6.4-25.4,2.4c-3.3-1.9-4.9-4.9-6-7.8c-7-18.5,0.3-39.6,18.8-54
		c20.3-15.8,52-23.6,68.2-41.6c8.7-9.6,11.9-21.2,20-31c8.1-9.9,24.5-18.3,39.5-14.5c3.5,0.9,4.6,17.6,4.6,20.3
		c-0.1,8.4-3.4,13.6-8.9,20.8c-8.2,10.9-13.1,21.1-19.5,32.5C489.8,127.8,448.6,157.6,413.7,173.3z"/>
	<path fill="#615BA5" d="M313.9,222.3c-34.1,8.4-70.3-2.8-102.9-12.9c-6.9-2.1-14.1-4.3-21.7-4.2c-7.6,0-15.9,2.8-18.6,7.9
		c-2.6,4.8,0.5,10.4,5.7,13.9c5.2,3.5,12.1,5.4,18.9,7.3c8.9,2.4,17.8,4.9,26.7,7.3c7.2,2,14.5,4,22.1,5.1
		c23.8,3.5,48.6-1.7,72.2-6.9c29.9-6.6,63-14.9,77.4-34.6c2.6-3.6,4.4-8.3,0.7-11.4c-4-3.3-11.6-2.5-17.6-1.1
		c-8.7,2-17.3,4.4-25.6,7.2c-9,3-7.9,8.1-13.4,12.5C331.8,217,322,220.3,313.9,222.3z"/>
	<path fill="#615BA5" d="M373.5,98c-28.8,15.3-61.4,31.4-96.8,29.3c-18.9-1.1-36.2-7.4-52.9-13.6c-42.7-15.8-85.3-31.6-128-47.5
		C76.5,59,54.4,48.6,55.7,33c0.5-6.3,5-12.1,10.9-17C85.4,0.5,119.6-4.6,145,4.4c29.2,10.3,42.2,34.4,66.7,49.5
		c21.5,13.3,50.4,18.8,78.2,23.9c12.2,2.3,25.4,4.5,37.3,1.2c10.4-2.9,17.8-9.4,25-15.4c16-13.2,112.7-80.7,130.5-54.1
		C505.7,43.8,399.4,84.3,373.5,98z"/>
</g>
</svg>
