<svg id="Camada_1" data-name="Camada 1" xmlns="http://www.w3.org/2000/svg" viewBox="0 0 779.859 779.859"><title>glicolise</title><g id="Glicose"><g id="Ligacies"><rect x="545.613" y="331.299" width="6.418" height="61.366" transform="translate(1018.717 821.802) rotate(-169.028)" fill="#4b4b4b"/><rect x="563.967" y="324.866" width="6.418" height="49.97" transform="translate(-37.698 629.514) rotate(-56.481)" fill="#4b4b4b"/><rect x="590.28" y="250.418" width="6.418" height="49.97" transform="translate(594.961 929.676) rotate(-115.022)" fill="#4b4b4b"/><rect x="478.608" y="299.836" width="6.418" height="49.97" transform="translate(910.958 716.604) rotate(-171.592)" fill="#4b4b4b"/><rect x="327.889" y="458.561" width="6.418" height="61.366" transform="translate(662.196 978.489) rotate(180)" fill="#4b4b4b"/><rect x="306.068" y="497.069" width="6.418" height="61.366" transform="translate(-99.209 983.068) rotate(-107.732)" fill="#4b4b4b"/><rect x="458.173" y="447.009" width="6.418" height="61.366" transform="matrix(-0.8, 0.6, -0.6, -0.8, 1117.154, 582.692)" fill="#4b4b4b"/><rect x="429.934" y="435.457" width="6.418" height="61.366" transform="translate(651 1064) rotate(-157.123)" fill="#4b4b4b"/><rect x="478.71" y="497.069" width="6.418" height="61.366" transform="translate(1036.015 979.133) rotate(171.568)" fill="#4b4b4b"/><rect x="244.09" y="346.614" width="6.418" height="74.753" transform="translate(631.289 136.692) rotate(90)" fill="#4b4b4b"/><rect x="187.995" y="366.692" width="6.418" height="60.818" transform="translate(-57.093 761.24) rotate(-120)" fill="#4b4b4b"/><rect x="309.277" y="244.203" width="6.418" height="61.366" transform="translate(712.787 161.007) rotate(122.783)" fill="#4b4b4b"/><rect x="268.177" y="219.832" width="6.418" height="51.238" transform="translate(636.742 265.731) rotate(141.05)" fill="#4b4b4b"/><rect x="315.481" y="280.183" width="6.418" height="106.538" transform="translate(209.422 -114.671) rotate(30)" fill="#4b4b4b"/><rect x="311.631" y="371.959" width="6.418" height="106.538" transform="translate(800.113 636.066) rotate(150)" fill="#4b4b4b"/><rect x="278.187" y="374.22" width="6.418" height="68.155" transform="translate(417.926 885.004) rotate(-161.407)" fill="#4b4b4b"/><rect x="386.72" y="400.84" width="6.418" height="106.538" transform="translate(-2.094 906.411) rotate(-98.432)" fill="#4b4b4b"/><rect x="344.85" y="413.424" width="6.418" height="40.632" transform="translate(452.759 979.92) rotate(-152.106)" fill="#4b4b4b"/><rect x="457.959" y="342.437" width="6.418" height="106.538" transform="translate(732.229 939.567) rotate(-157.123)" fill="#4b4b4b"/><rect x="449.356" y="278.473" width="6.418" height="92.751" transform="translate(1002.279 234.539) rotate(135)" fill="#4b4b4b"/><rect x="514.819" y="300.294" width="6.418" height="92.751" transform="translate(251.066 909.931) rotate(-98.432)" fill="#4b4b4b"/><rect x="557.319" y="283.857" width="6.418" height="63.764" transform="translate(954.22 824.551) rotate(-157.123)" fill="#4b4b4b"/><rect x="377.475" y="245.1" width="6.418" height="92.751" transform="translate(672.159 -89.209) rotate(90)" fill="#4b4b4b"/><rect x="354.567" y="257.477" width="6.418" height="32.139" transform="translate(184.706 -142.24) rotate(30)" fill="#4b4b4b"/></g><g id="Oxigenios"><circle cx="285.959" cy="260.929" r="17.97" fill="#1dd1a1"/><circle cx="421.377" cy="291.735" r="17.97" fill="#1dd1a1"/><circle cx="215.362" cy="385.437" r="17.97" fill="#1dd1a1"/><circle cx="330.243" cy="520.213" r="17.97" fill="#1dd1a1"/><circle cx="479.139" cy="502.243" r="17.97" fill="#1dd1a1"/><circle cx="569.631" cy="287.884" r="17.97" fill="#1dd1a1"/></g><g id="Hidrogenios"><circle cx="364.899" cy="260.929" r="8.985" fill="#e056fd"/><circle cx="615.84" cy="264.78" r="8.985" fill="#e056fd"/><circle cx="587.601" cy="363.616" r="8.985" fill="#e056fd"/><circle cx="542.676" cy="389.929" r="8.985" fill="#e056fd"/><circle cx="484.915" cy="300.72" r="8.985" fill="#e056fd"/><circle cx="421.377" cy="494.542" r="8.985" fill="#e056fd"/><circle cx="357.198" cy="416.243" r="8.985" fill="#e056fd"/><circle cx="272.481" cy="438.064" r="8.985" fill="#e056fd"/><circle cx="164.018" cy="412.392" r="8.985" fill="#e056fd"/><circle cx="255.153" cy="225.63" r="8.985" fill="#e056fd"/><circle cx="281.466" cy="538.183" r="8.985" fill="#e056fd"/></g><g id="Carbonos"><circle cx="343.078" cy="291.735" r="21.821" fill="#7158e2"/><circle cx="475.93" cy="350.138" r="21.821" fill="#7158e2"/><circle cx="439.347" cy="445.765" r="21.821" fill="#7158e2"/><circle cx="285.959" cy="385.437" r="21.821" fill="#7158e2"/><circle cx="551.661" cy="341.795" r="21.821" fill="#7158e2"/><circle cx="334.093" cy="459.885" r="21.821" fill="#7158e2"/><circle cx="484.915" cy="554.228" r="8.985" fill="#e056fd"/></g></g><g id="ADP"><path d="M544.016,700.474l31.482-77.18,31.483,77.18H595.5l-2.316-6.107H557.914l-2.422,6.107H544.016Zm17.689-16h27.587L575.5,649.091Z" fill="#140f4c"/><path d="M650.572,623.4a35.156,35.156,0,0,1,14.583,3.054A37.68,37.68,0,0,1,677,634.771a39.9,39.9,0,0,1,8,12.267,38.288,38.288,0,0,1,2.948,15,39.493,39.493,0,0,1-2.843,15,38.194,38.194,0,0,1-7.845,12.214,37.28,37.28,0,0,1-11.845,8.265,36.007,36.007,0,0,1-14.847,3.054H623.617V623.4h26.955Zm-1.264,67.283a25.731,25.731,0,0,0,10.846-2.267,26.325,26.325,0,0,0,8.528-6.171,28.392,28.392,0,0,0,5.581-9.125,31.963,31.963,0,0,0,0-22.258,27.906,27.906,0,0,0-5.634-9.125,26.906,26.906,0,0,0-8.581-6.171,25.476,25.476,0,0,0-10.74-2.269H634.884v57.385h14.425Z" fill="#140f4c"/><path d="M758.6,647.827c0.069,0.421.121,0.842,0.158,1.263s0.052,0.879.052,1.369v0.21q0,0.738-.052,1.369c-0.037.421-.089,0.842-0.158,1.264v0.105l-0.316,2.527a0.611,0.611,0,0,0-.1.421q-0.107.528-.211,0.947a7.519,7.519,0,0,1-.316.948,26.777,26.777,0,0,1-11.371,15.057,31.533,31.533,0,0,1-7.687,3.317,32.236,32.236,0,0,1-8.95,1.21H715.854v22.849H704.588V623.294h25.06a30.471,30.471,0,0,1,16.637,4.528,27.015,27.015,0,0,1,11.371,14.952,9.587,9.587,0,0,1,.527,2,0.609,0.609,0,0,0,.1.421q0.1,0.631.158,1.263a9.8,9.8,0,0,0,.158,1.158v0.211Zm-27.587,20.111a13.825,13.825,0,0,0,6.37-1.474,17.09,17.09,0,0,0,5.054-3.9,18.15,18.15,0,0,0,3.37-5.528,17.92,17.92,0,0,0,0-12.951,18.2,18.2,0,0,0-3.37-5.528,17.145,17.145,0,0,0-5.054-3.9,13.843,13.843,0,0,0-6.37-1.474H715.959v34.747h15.058Z" fill="#140f4c"/><path d="M535.238,645.932a20.515,20.515,0,0,1-1.527,8.371,33.261,33.261,0,0,1-4.475,7.107l-23.375,29.8h28.851v9.371H485.855l24.218-32.009q3.262-4.21,5.9-7.687,1.05-1.474,2.158-2.9t1.948-2.633q0.841-1.208,1.421-1.947a8.168,8.168,0,0,0,.685-0.948,12.933,12.933,0,0,0,.732-11.687,13.077,13.077,0,0,0-2.907-4.212,14.262,14.262,0,0,0-4.281-2.843,13.269,13.269,0,0,0-10.359,0,13.365,13.365,0,0,0-7.083,7.055,12.77,12.77,0,0,0-1.057,5.159H486.382a20.471,20.471,0,0,1,1.948-8.792,23.526,23.526,0,0,1,5.265-7.265,25.378,25.378,0,0,1,34.431,0,23.574,23.574,0,0,1,5.265,7.265A20.5,20.5,0,0,1,535.238,645.932Z" fill="#140f4c"/></g><g id="_2NAD" data-name="2NAD"><path d="M130.257,655.521a20.515,20.515,0,0,1-1.527,8.371A33.261,33.261,0,0,1,124.255,671L100.88,700.8h28.851v9.371H80.874l24.218-32.009q3.262-4.21,5.9-7.687,1.05-1.474,2.158-2.9t1.948-2.633q0.841-1.208,1.421-1.947a8.168,8.168,0,0,0,.685-0.948,12.933,12.933,0,0,0,.732-11.687,13.077,13.077,0,0,0-2.907-4.212,14.262,14.262,0,0,0-4.281-2.843,13.269,13.269,0,0,0-10.359,0,13.365,13.365,0,0,0-7.083,7.055,12.77,12.77,0,0,0-1.057,5.159H81.4a20.471,20.471,0,0,1,1.948-8.792,23.526,23.526,0,0,1,5.265-7.265,25.378,25.378,0,0,1,34.431,0,23.574,23.574,0,0,1,5.265,7.265A20.5,20.5,0,0,1,130.257,655.521Z" fill="#140f4c"/><path d="M157.528,710.38H146.893V631.725l49.909,59.7V633.094h10.635V710.38H197.118l-39.59-48.751V710.38Z" fill="#140f4c"/><path d="M224.072,710.063l31.482-77.18,31.483,77.18H275.56l-2.316-6.106H237.97l-2.422,6.106H224.072Zm17.689-16h27.587l-13.794-35.379Z" fill="#140f4c"/><path d="M330.629,632.989a35.149,35.149,0,0,1,14.583,3.054,37.678,37.678,0,0,1,11.846,8.317,39.9,39.9,0,0,1,8,12.267,38.29,38.29,0,0,1,2.948,15,39.49,39.49,0,0,1-2.843,15,38.2,38.2,0,0,1-7.845,12.215,37.279,37.279,0,0,1-11.845,8.265,36.007,36.007,0,0,1-14.847,3.054H303.674v-77.18h26.955Zm-1.264,67.283A25.73,25.73,0,0,0,340.211,698a26.333,26.333,0,0,0,8.528-6.172,28.39,28.39,0,0,0,5.581-9.124,31.963,31.963,0,0,0,0-22.258,27.913,27.913,0,0,0-5.634-9.125,26.906,26.906,0,0,0-8.581-6.171,25.483,25.483,0,0,0-10.74-2.269H314.941v57.385h14.425Z" fill="#140f4c"/><path d="M400.5,637.149V650.9h13.221v3.51H400.5v13.864h-3.744V654.406H383.538V650.9h13.221V637.149H400.5Z" fill="#140f4c"/></g><path d="M102.07,594.679l-3.147-3.885c4.688-3.8,7.6-9.773,10.167-15.045l16.559-33.986c2.724-5.59,5.541-11.371,9.867-16.241,6.664-7.5,15.832-11.627,24.7-15.618,7.875-3.545,15.313-6.893,21.181-12.4l3.423,3.645c-6.477,6.083-14.649,9.762-22.552,13.319-8.772,3.949-17.058,7.678-23.011,14.379-3.871,4.356-6.534,9.823-9.11,15.11l-16.559,33.985C110.789,583.678,107.62,590.183,102.07,594.679Z" fill="#140f4c"/><path d="M617.622,587.179c-9.776-8.374-10.886-21.266-11.959-33.732-0.759-8.817-1.544-17.934-5.395-25.282-5.952-11.36-18.5-17.537-30.626-23.51q-2.149-1.058-4.263-2.112l2.244-4.469q2.092,1.05,4.228,2.1c12.85,6.328,26.137,12.87,32.847,25.675,4.316,8.238,5.145,17.865,5.946,27.174,1.032,11.993,2.007,23.32,10.229,30.363Z" fill="#140f4c"/><polygon points="173.883 522.341 182.212 501.456 161.457 493.18 163.309 488.536 188.708 498.663 178.527 524.193 173.883 522.341" fill="#140f4c"/><polygon points="589.685 501.662 567.267 499.924 565.54 522.201 560.556 521.814 562.669 494.553 590.071 496.677 589.685 501.662" fill="#140f4c"/></svg>