<svg id="Camada_1" data-name="Camada 1" xmlns="http://www.w3.org/2000/svg" viewBox="0 0 779.859 779.859"><title>glicolise</title><polygon points="575.312 430.435 575.114 424.614 630.729 422.803 630.926 428.624 575.312 430.435" fill="#4b4b4b"/><path d="M627.146,418.472a8.157,8.157,0,1,1-6.121,9.762A8.16,8.16,0,0,1,627.146,418.472Z" fill="#e056fd"/><polygon points="591.127 288.618 596.539 290.774 565.325 368.86 559.913 366.703 591.127 288.618" fill="#4b4b4b"/><polygon points="600.943 292.981 606.355 295.137 575.141 373.223 569.729 371.066 600.943 292.981" fill="#4b4b4b"/><polygon points="582.329 429.34 576.676 430.744 562.381 372.826 568.035 371.423 582.329 429.34" fill="#4b4b4b"/><polygon points="507.374 313.187 503.389 317.431 564.821 374.936 568.806 370.692 507.374 313.187" fill="#4b4b4b"/><rect x="433.848" y="269.682" width="5.826" height="55.631" transform="translate(81.429 -93.66) rotate(13.487)" fill="#4b4b4b"/><polygon points="392.44 305.128 394.962 299.884 435.862 319.488 433.34 324.732 392.44 305.128" fill="#4b4b4b"/><rect x="469.366" y="283.525" width="5.818" height="84.21" transform="translate(168.022 811.952) rotate(-92.555)" fill="#4b4b4b"/><rect x="499.302" y="314.601" width="5.827" height="84.079" transform="translate(226.745 -194.294) rotate(28.055)" fill="#4b4b4b"/><rect x="490.025" y="309.181" width="5.827" height="84.079" transform="translate(223.106 -190.568) rotate(28.055)" fill="#4b4b4b"/><polygon points="431.123 319.219 436.312 321.866 410.96 371.399 405.771 368.752 431.123 319.219" fill="#4b4b4b"/><path d="M614.523,296.838a16.315,16.315,0,1,1-12.745-19.2A16.315,16.315,0,0,1,614.523,296.838Z" fill="#1dd1a1"/><path d="M564.985,433.11a16.313,16.313,0,1,1,21.546,8.173A16.321,16.321,0,0,1,564.985,433.11Z" fill="#1dd1a1"/><ellipse cx="478.179" cy="389.331" rx="16.289" ry="16.316" transform="translate(-38.6 725.743) rotate(-72.216)" fill="#1dd1a1"/><ellipse cx="394.069" cy="302.485" rx="8.158" ry="8.145" transform="translate(-37.668 56.74) rotate(-7.861)" fill="#e056fd"/><ellipse cx="443.458" cy="272.436" rx="8.145" ry="8.158" transform="translate(151.694 703.424) rotate(-87.468)" fill="#e056fd"/><path d="M416.484,370.362a8.157,8.157,0,1,1-5.576-10.083A8.16,8.16,0,0,1,416.484,370.362Z" fill="#e056fd"/><path d="M552.325,356.32a19.8,19.8,0,1,0,27.936-2.144A19.758,19.758,0,0,0,552.325,356.32Z" fill="#7158e2"/><ellipse cx="432.152" cy="324.392" rx="19.812" ry="19.78" fill="#7158e2"/><ellipse cx="513.147" cy="323.811" rx="19.812" ry="19.78" fill="#7158e2"/><polygon points="299.434 537.527 299.237 531.705 354.852 529.894 355.049 535.716 299.434 537.527" fill="#4b4b4b"/><path d="M351.269,525.564a8.157,8.157,0,1,1-6.121,9.762A8.16,8.16,0,0,1,351.269,525.564Z" fill="#e056fd"/><polygon points="315.25 395.71 320.662 397.866 289.448 475.951 284.036 473.795 315.25 395.71" fill="#4b4b4b"/><polygon points="325.065 400.072 330.477 402.229 299.263 480.314 293.851 478.158 325.065 400.072" fill="#4b4b4b"/><polygon points="306.451 536.432 300.798 537.835 286.504 479.918 292.157 478.515 306.451 536.432" fill="#4b4b4b"/><polygon points="231.497 420.279 227.511 424.523 288.943 482.028 292.929 477.784 231.497 420.279" fill="#4b4b4b"/><rect x="157.97" y="376.774" width="5.826" height="55.631" transform="translate(98.798 -26.365) rotate(13.487)" fill="#4b4b4b"/><polygon points="116.563 412.22 119.085 406.976 159.984 426.579 157.462 431.824 116.563 412.22" fill="#4b4b4b"/><rect x="193.488" y="390.617" width="5.818" height="84.21" transform="translate(-227.139 648.215) rotate(-92.555)" fill="#4b4b4b"/><rect x="223.425" y="421.692" width="5.827" height="84.079" transform="translate(244.696 -51.961) rotate(28.055)" fill="#4b4b4b"/><rect x="214.148" y="416.273" width="5.827" height="84.079" transform="translate(241.057 -48.235) rotate(28.055)" fill="#4b4b4b"/><polygon points="155.246 426.31 160.434 428.958 135.082 478.491 129.893 475.844 155.246 426.31" fill="#4b4b4b"/><path d="M338.646,403.929a16.315,16.315,0,1,1-12.745-19.2A16.315,16.315,0,0,1,338.646,403.929Z" fill="#1dd1a1"/><path d="M289.107,540.2a16.313,16.313,0,1,1,21.546,8.173A16.321,16.321,0,0,1,289.107,540.2Z" fill="#1dd1a1"/><ellipse cx="202.301" cy="496.423" rx="16.289" ry="16.316" transform="translate(-332.188 537.431) rotate(-72.216)" fill="#1dd1a1"/><ellipse cx="118.191" cy="409.576" rx="8.158" ry="8.145" transform="translate(-54.908 20.014) rotate(-7.861)" fill="#e056fd"/><ellipse cx="167.58" cy="379.528" rx="8.145" ry="8.158" transform="translate(-218.981 530.176) rotate(-87.468)" fill="#e056fd"/><path d="M140.607,477.454a8.157,8.157,0,1,1-5.576-10.083A8.16,8.16,0,0,1,140.607,477.454Z" fill="#e056fd"/><path d="M276.447,463.411a19.8,19.8,0,1,0,27.936-2.144A19.758,19.758,0,0,0,276.447,463.411Z" fill="#7158e2"/><ellipse cx="156.274" cy="431.484" rx="19.812" ry="19.78" fill="#7158e2"/><ellipse cx="237.269" cy="430.902" rx="19.812" ry="19.78" fill="#7158e2"/><g id="_2NADH" data-name="2NADH"><path d="M92.562,120.953a20.515,20.515,0,0,1-1.527,8.371,33.261,33.261,0,0,1-4.475,7.107l-23.375,29.8H92.036V175.6H43.179L67.4,143.592q3.262-4.21,5.9-7.687,1.05-1.474,2.158-2.9t1.948-2.633q0.841-1.208,1.421-1.947a8.168,8.168,0,0,0,.685-0.948,12.933,12.933,0,0,0,.732-11.687,13.077,13.077,0,0,0-2.907-4.212,14.262,14.262,0,0,0-4.281-2.843,13.269,13.269,0,0,0-10.359,0,13.365,13.365,0,0,0-7.083,7.055,12.77,12.77,0,0,0-1.057,5.159H43.706a20.471,20.471,0,0,1,1.948-8.792,23.526,23.526,0,0,1,5.265-7.265,25.378,25.378,0,0,1,34.431,0,23.574,23.574,0,0,1,5.265,7.265A20.5,20.5,0,0,1,92.562,120.953Z" fill="#140f4c"/><path d="M119.832,175.812H109.2V97.157l49.909,59.7V98.526h10.635v77.285H159.422l-39.59-48.751v48.751Z" fill="#140f4c"/><path d="M186.376,175.5l31.482-77.18,31.483,77.18H237.865l-2.316-6.106H200.275l-2.422,6.106H186.376Zm17.689-16h27.587l-13.794-35.379Z" fill="#140f4c"/><path d="M292.934,98.421a35.156,35.156,0,0,1,14.583,3.054,37.678,37.678,0,0,1,11.846,8.317,39.9,39.9,0,0,1,8,12.267,38.29,38.29,0,0,1,2.948,15,39.49,39.49,0,0,1-2.843,15,38.2,38.2,0,0,1-7.845,12.215,37.279,37.279,0,0,1-11.845,8.265,36.007,36.007,0,0,1-14.847,3.054H265.979V98.421h26.955ZM291.67,165.7a25.73,25.73,0,0,0,10.846-2.267,26.333,26.333,0,0,0,8.528-6.172,28.39,28.39,0,0,0,5.581-9.124,31.963,31.963,0,0,0,0-22.258,27.913,27.913,0,0,0-5.634-9.125,26.906,26.906,0,0,0-8.581-6.171,25.483,25.483,0,0,0-10.74-2.269H277.246V165.7H291.67Z" fill="#140f4c"/><path d="M388.224,98.421H399.49V175.5H388.224v-23.9H358.215v23.9H346.949V98.421h11.267V141.7h30.009V98.421Z" fill="#140f4c"/></g><path d="M150.667,323.965l-4.877,1.1c-1.328-5.886-5.394-11.143-8.982-15.782l-23.129-29.9c-3.8-4.919-7.738-10.005-10.187-16.042-3.771-9.3-3.408-19.345-3.057-29.061,0.312-8.63.606-16.782-1.734-24.485l4.784-1.453c2.584,8.5,2.26,17.458,1.947,26.119-0.347,9.614-.675,18.694,2.694,27,2.19,5.4,5.911,10.211,9.509,14.862l23.129,29.9C144.668,311.274,149.1,317,150.667,323.965Z" fill="#140f4c"/><path d="M556.62,282.583c5.353-11.707,17.438-16.329,29.125-20.8,8.266-3.161,16.812-6.431,22.813-12.159,9.277-8.855,11.755-22.616,14.15-35.923,0.283-1.572.564-3.134,0.855-4.68l4.914,0.924c-0.288,1.534-.568,3.083-0.848,4.641-2.538,14.1-5.162,28.673-15.619,38.654-6.728,6.421-15.753,9.873-24.48,13.211-11.243,4.3-21.862,8.361-26.364,18.208Z" fill="#140f4c"/><polygon points="117.641 227.533 102.609 210.811 85.993 225.75 82.65 222.032 102.984 203.751 121.359 224.19 117.641 227.533" fill="#140f4c"/><polygon points="631.114 232.142 626.601 210.114 604.712 214.599 603.708 209.702 630.495 204.213 636.011 231.138 631.114 232.142" fill="#140f4c"/><g id="ATP"><path d="M536.006,108.674l31.482-77.18,31.483,77.18H587.494l-2.316-6.107H549.9l-2.422,6.107H536.006Zm17.689-16h27.587L567.488,57.291Z" fill="#140f4c"/><path d="M615.607,31.6h49.277V42.445H645.826v66.229H634.665V42.445H615.607V31.6Z" fill="#140f4c"/><path d="M735.536,56.028c0.069,0.421.121,0.842,0.158,1.263s0.052,0.879.052,1.369v0.21q0,0.738-.052,1.369c-0.037.421-.089,0.842-0.158,1.264v0.105l-0.316,2.527a0.611,0.611,0,0,0-.1.421q-0.107.528-.211,0.947a7.519,7.519,0,0,1-.316.948,26.777,26.777,0,0,1-11.371,15.057,31.533,31.533,0,0,1-7.687,3.317,32.236,32.236,0,0,1-8.95,1.21H692.787v22.849H681.52V31.494h25.06a30.471,30.471,0,0,1,16.637,4.528,27.015,27.015,0,0,1,11.371,14.952,9.587,9.587,0,0,1,.527,2,0.609,0.609,0,0,0,.1.421q0.1,0.631.158,1.263a9.8,9.8,0,0,0,.158,1.158v0.211ZM707.949,76.139a13.825,13.825,0,0,0,6.37-1.474,17.09,17.09,0,0,0,5.054-3.9,18.15,18.15,0,0,0,3.37-5.528,17.92,17.92,0,0,0,0-12.951,18.2,18.2,0,0,0-3.37-5.528,17.145,17.145,0,0,0-5.054-3.9,13.843,13.843,0,0,0-6.37-1.474H692.892V76.139h15.058Z" fill="#140f4c"/><path d="M527.6,54.237a20.515,20.515,0,0,1-1.527,8.371,33.261,33.261,0,0,1-4.475,7.107l-23.375,29.8h28.851v9.371H478.217l24.218-32.009q3.262-4.21,5.9-7.687,1.05-1.474,2.158-2.9t1.948-2.633q0.841-1.208,1.421-1.947a8.168,8.168,0,0,0,.685-0.948,12.933,12.933,0,0,0,.732-11.687,13.077,13.077,0,0,0-2.907-4.212,14.262,14.262,0,0,0-4.281-2.843,13.269,13.269,0,0,0-10.359,0,13.365,13.365,0,0,0-7.083,7.055,12.77,12.77,0,0,0-1.057,5.159H478.743a20.471,20.471,0,0,1,1.948-8.792,23.526,23.526,0,0,1,5.265-7.265,25.378,25.378,0,0,1,34.431,0,23.574,23.574,0,0,1,5.265,7.265A20.5,20.5,0,0,1,527.6,54.237Z" fill="#140f4c"/></g></svg>