<?xml version="1.0" encoding="utf-8"?>
<!-- Generator: Adobe Illustrator 19.2.1, SVG Export Plug-In . SVG Version: 6.00 Build 0)  -->
<svg version="1.1" id="Layer_1" xmlns="http://www.w3.org/2000/svg" xmlns:xlink="http://www.w3.org/1999/xlink" x="0px" y="0px"
	 viewBox="0 0 500.946 464.545" enable-background="new 0 0 500.946 464.545" xml:space="preserve">
<g id="l1_1_">
	<g>
		<path fill="#4732E0" d="M248.12,0C120.027,0,0,76.162,0,204.255s120.063,260.289,248.12,260.289
			c128.093,0,252.825-63.675,252.825-191.732C500.946,144.754,376.213,0,248.12,0z"/>
		<path fill="#AFA5F9" d="M470.942,273.138c0,111.652-111.215,161.274-222.827,161.274S30.004,315.666,30.004,204.015
			S136.463,30.097,248.114,30.097S470.942,161.486,470.942,273.138z"/>
	</g>
	<path fill="#501AB7" d="M210.906,171.109c2.299,0,2.299,0,2.299,0s0-2.299,2.299-2.299c2.299-2.299,4.599-2.299,6.898,0
		c2.299,2.299,4.599,2.299,6.898,4.599c4.599,0,6.898-2.299,9.198-4.599c4.599-6.898,6.898-16.096,4.599-25.258
		c0-2.299,0-2.299-2.299-4.599c-2.299-6.898-16.096-16.096-22.958-18.36c-6.863-2.264-9.198,4.599-13.796,11.497
		C199.409,143.552,187.948,168.809,210.906,171.109z"/>
	<path fill="#501AB7" d="M255.054,312.149c2.299,6.898,9.198,9.197,13.796,4.599c0-2.299,2.299-4.599,2.299-6.898
		s2.299-4.599,4.599-2.299c0,0,0,0,2.299,2.299c4.599,9.197,6.898,20.659,9.198,29.856c2.299,11.497,6.898,20.659,13.796,25.258
		h2.299c0,0,2.299,0,2.299-2.299c6.898-6.898,13.796-13.796,20.659-20.659l2.299-2.299c0-2.299,0-2.299,0-4.599
		c-2.299-9.197-13.796-9.197-13.796-18.36c0-2.299,0-4.599,2.299-6.898c2.299-6.898,4.599-13.796,6.898-20.659
		c0-2.299,2.299-4.599,0-6.898c0-4.599-6.898-4.599-9.198-4.599c-11.497,0-20.659-11.497-29.857-13.796
		c-11.497-2.299-22.958,6.898-34.455,18.36c4.599-4.599,4.599,11.497,4.599,11.497C255.054,300.652,252.755,305.251,255.054,312.149
		z"/>
	<path fill="#501AB7" d="M275.819,190.388c-2.299,4.599-2.299,6.898-2.299,11.497c0,4.598,2.299,11.497,4.599,16.096
		c2.299,4.599,2.299,6.898,6.898,9.197c2.299,2.299,4.599,2.299,4.599,2.299c2.299,2.299,6.898,6.898,9.198,6.898
		c6.898,2.299,11.497-2.299,18.36-6.898c2.299-2.299,6.898-6.898,9.198-11.497c4.599-11.497-6.898-25.258-2.299-39.054
		c2.299-4.599,4.599-9.197,2.299-13.796c0-2.299-2.299-2.299-2.299-2.299c-6.898-4.599-13.796-11.497-20.659-16.096
		C285.016,158.232,280.418,174.328,275.819,190.388z"/>
	<path fill="#501AB7" d="M109.592,295.417c0,2.299,0,2.299,0,2.299c0,2.299,2.299,2.299,4.599,2.299
		c9.198,2.299,18.36-2.299,25.258-11.497c0-2.299,2.299-2.299,2.299-4.599c0-2.299-2.299-4.599-4.599-6.898
		s-4.599-2.299-6.898-4.599c-4.599-6.898,2.299-18.36-2.299-25.258c0-2.299-2.299-2.299-4.599-4.599
		c-2.299-2.299-4.599-4.599-9.198-4.599c0,0-2.299-2.299-2.299,0c-2.299,0-2.299,4.599-2.299,6.898
		c0,4.599-4.599,6.898-4.599,11.497C102.694,265.56,109.592,286.219,109.592,295.417z"/>
</g>
</svg>
