<?xml version="1.0" encoding="utf-8"?>
<!-- Generator: Adobe Illustrator 19.2.1, SVG Export Plug-In . SVG Version: 6.00 Build 0)  -->
<svg version="1.1" id="Layer_1" xmlns="http://www.w3.org/2000/svg" xmlns:xlink="http://www.w3.org/1999/xlink" x="0px" y="0px"
	 viewBox="0 0 284 188.7" style="enable-background:new 0 0 284 188.7;" xml:space="preserve">
<style type="text/css">
	.st0{fill:#0F5659;}
	.st1{fill:#6FD1A0;}
	.st2{fill:#D91EF4;}
	.st3{fill:#A1E2E0;}
	.st4{fill:#897BEF;}
	.st5{fill:#785EEA;}
	.st6{fill:#744DEF;}
	.st7{fill:#703BF2;}
	.st8{fill:#6B25F2;}
	.st9{fill:#D279F7;}
	.st10{fill:#2D98DA;}
	.st11{fill:#22A6B3;}
	.st12{fill:#8FD8D5;}
	.st13{fill:#7ED6DF;}
	.st14{fill:#57BC87;}
	.st15{fill:#1C83B7;}
</style>
<g>
	<path class="st0" d="M408.6,22.5c-2.3,3.4-4.2,7.1-5.5,11l-4.2,10.9c-3.1,7.9-6.2,16-6.7,24.4c-0.6,8,3.2,19.4,7.7,26.2
		c4.5,6.7,14.5,8.3,22.5,9.2s16-1.7,23.4-4.8c3.3-1.4,6.8-3.1,8.3-6.3c1.4-2.8,1-6.3,2.3-9.2c2.3-4.8,8.7-6.2,11.7-10.5
		c3.6-5.3,1.1-12.2,0-18.4c-1.2-7.4-0.4-14.9-0.3-22.3c0-7.4-2.2-11-6.8-16.8C454.4,7,446.8,4.4,438,8.3
		C429.3,12.2,414.5,14.7,408.6,22.5z"/>
	<path class="st1" d="M411.5,26.3c-2.1,3-3.8,6.3-4.8,9.6l-3.7,9.6c-2.6,7-5.4,14.1-5.9,21.5c-0.5,7.1,2.9,17.2,6.8,23.1
		s12.8,7.3,19.9,8.2c7.1,0.9,14.2-1.6,20.7-4.2c2.9-1.2,6-2.8,7.4-5.5c1.3-2.6,0.8-5.6,2.1-8.1c2-4.2,7.7-5.5,10.3-9.3
		c3.2-4.6,1-10.7,0.1-16.2c-1.2-6.5-0.4-13.2-0.3-19.8c0-6.6-2-9.2-6.1-14.3c-6-7.7-12.7-10.6-20.4-7S416.8,19.5,411.5,26.3z"/>
	<path class="st2" d="M450.1,35.7c-0.6-3-2.3-7.7-5.8-8.2c-2.9-0.6-6.1-0.8-9.1-0.5c-3.1,0.3-5.9,2-7.5,4.5c-1,1.8-1.4,3.9-1.3,6
		c-0.2,3.8,0.8,7.5,2.9,10.7c2.2,3.1,6.1,5,9.9,4.1c2.1-0.7,3.9-1.9,5.5-3.4c2.3-2.1,4.7-4.3,5.5-7.3
		C450.5,39.7,450.5,37.6,450.1,35.7z"/>
	<path class="st3" d="M431.3,26.5c-0.7,0.2-1.4,0.5-2,0.9c-2.2,1.5-2.9,4.6-5.4,5.9c-0.1,0.1-0.3,0.1-0.4,0.1
		c-0.4-0.1-0.3-0.6-0.2-0.8c0.7-1.6,1.6-3.2,2.8-4.7c0.3-0.2,0.5-0.7,0.5-1.1c-0.2-0.3-0.5-0.5-0.9-0.4c-0.4,0.1-0.7,0.2-0.9,0.6
		c-2.4,2.1-4.8,4.8-5,8c0,0.1,0,0.1,0,0.2l-0.1,0c-0.6-0.1-1.2-0.6-1.3-1.1c-0.1-0.7-0.2-1.2,0.1-1.8c0.2-1,0.5-1.8,0.9-2.6
		c0.7-1.1,1.6-2.1,2.6-2.9l3.9-3.4c1.3-1.4,2.9-2.5,4.7-3.2c0.6-0.3,1.4-0.1,1.8,0.4c0.1,0.5,0,1.3-0.5,1.7
		c-0.6,0.6-1.4,1.3-2.3,1.6c-0.5,0.1-1.1,0.4-1.7,0.7c-0.5,0.4-0.6,1-0.3,1.6l0.1,0c0.2,0.2,0.4-0.2,0.6-0.3
		c0.3-0.4,0.9-0.7,1.6-0.8c0.5-0.1,1.2-0.2,1.7-0.3c0.8-0.2,1.5-0.6,2.2-1c1.8-0.9,3.9-1,5.7,0c0.1,0,0.1,0.1,0.2,0.2
		c0,0.1,0,0.2-0.1,0.4c-0.2,0.6-0.8,0.9-1.4,0.9c-0.2,0-0.5-0.1-0.7-0.1c-0.4,0.1-0.8,0.1-1.2,0.2C434.5,25.4,432.8,25.9,431.3,26.5
		z"/>
	<path class="st3" d="M439.1,17.8c-0.5-0.1-0.9,0.1-1.3,0.1c-0.4,0.2-0.8,0.6-0.7,1.1c0.1,0.4,0.4,0.7,0.7,0.8
		c1.6,0.9,3.7,0.6,5.5,1c1.4,0.4,2.7,1,3.9,1.9c0.2,0.2,0.6,0.4,0.6,0.6c0.2,0.3,0.1,0.7,0,0.9c-0.3,0.2-0.7,0.2-1,0.1
		c-0.7-0.3-1.5-0.7-2.3-0.8c-0.7-0.3-1.6-0.3-2.4-0.1c-0.1,0-0.1,0.1-0.2,0.2c0,0,0,0.1,0,0.2c0.1,0.9,0.6,1.6,1.4,1.8
		c0.4,0.1,0.9,0,1.2,0.1c1.1,0.2,2.1,0.5,2.9,1.2c0.6,0.2,1,0.6,1.5,0.9c1,1.2,1.7,2.8,2.1,4.3c0.5,1.4,0.7,2.8,0.8,4.2
		c0,0.2,0,0.5,0.1,0.8c0.3,0.3,0.8,0.4,1.1,0.1c0.8-0.7,1-1.7,0.6-2.7c-0.5-3.2-2.1-6-4.4-8.1c-0.1-0.1-0.2-0.3-0.2-0.4
		c0-0.1,0-0.2,0.1-0.5l0.5-1.2l3,4.9c0.4,0.6,0.7,1.1,0.9,1.7c0.3,1,0.4,2,0.4,3c0,0.2,0.1,0.4,0.3,0.4c0.1,0,0.2,0,0.4-0.1l0,0
		c1.1-0.5,1.5-1.9,1.1-2.8l0,0l-3.7-6.2c-0.7-1-1.4-1.9-2.2-2.9c-1.4-1.8-3.7-2.6-5.6-3.9C442.6,17.5,440.9,17.8,439.1,17.8z"/>
	<path class="st3" d="M425.4,49.5c-0.2-0.4,0.1-1,0.5-1.2c0.3-0.1,0.7-0.1,0.9,0.2c0.7,0.5,1.2,1,1.7,1.5c0.6,0.6,1.2,1.2,1.9,1.9
		c1.7,1.7,4,2.8,6.4,3.2c2.5,0.4,4.9-0.2,6.9-1.6c2.2-1.7,4.1-4,5.1-6.6c0.2-0.2,0.5-0.4,0.8-0.2c0.2,0,0.3,0.3,0.3,0.4
		c0,0.6-0.1,1.2-0.3,1.7c-1.2,3.1-3.5,5.4-6.4,6.9c0.2,0.4,0.5,0.9,0.9,1.2c4.5-2.9,7.7-7.5,9.1-12.7c0.2-0.5,0.3-1.1,0.3-1.6
		c0-0.2,0.2-0.5,0.5-0.5c0.1,0,0.2,0,0.4,0.1c0.7,0.5,1.1,1.4,1.4,2.2c-0.1,2-1.8,3.5-2.4,5.2c-1.1,3-3.1,5.5-5.6,7.3
		c-2.5,1.8-5.3,3.2-8.4,3.8c-1.1,0.3-2.1,0.5-3.2,0.8c-0.8,0.2-1.8,0.2-2-0.7c0.7-1,1.7-1.6,2.9-1.8l5-1.7c-0.1-0.7-0.6-1.3-1.4-1.3
		c-0.6,0-1.3,0.1-2,0.4c-2.6,0.8-5.4,0.2-7.5-1.5l-1.3,1.9c0.6,0.8,1.5,1.6,2.3,2.1c0.6,0.6,0.7,1.7-0.2,1.7l-0.4,0.1
		c-0.8,0-1-0.8-1.7-1.2c-2.2-1.2-4-2.9-5.4-5c-0.6-1-1.1-2-1.7-3c-0.7-1.5-1.6-3.5-2.3-5.2c-0.3-0.8-0.6-1.9,0.1-2.3
		c0.9,0.2,1.6,0.7,2,1.5c0.3,0.8,0.6,1.6,0.8,2.4c1,2.9,2.6,5.6,4.7,7.7c0.1,0.1,0.3,0.3,0.6,0.2c0.1-0.1,0.1-0.1,0.3-0.2l1-1.1
		C428.4,53.3,425.9,51.5,425.4,49.5z"/>
	
		<rect x="422.9" y="72" transform="matrix(0.9961 -8.837622e-002 8.837622e-002 0.9961 -4.7078 38.2668)" class="st4" width="13.8" height="0.6"/>
	
		<rect x="422.8" y="71.6" transform="matrix(0.9961 -8.837622e-002 8.837622e-002 0.9961 -4.6747 38.2629)" class="st5" width="13.8" height="0.6"/>
	
		<rect x="422.9" y="72.4" transform="matrix(0.9961 -8.837622e-002 8.837622e-002 0.9961 -4.7432 38.272)" class="st5" width="13.8" height="0.6"/>
	
		<rect x="422.9" y="71.1" transform="matrix(0.9961 -8.837622e-002 8.837622e-002 0.9961 -4.6295 38.2683)" class="st6" width="13.8" height="0.6"/>
	
		<rect x="423" y="72.8" transform="matrix(0.9961 -8.837622e-002 8.837622e-002 0.9961 -4.7791 38.2781)" class="st6" width="13.8" height="0.6"/>
	
		<rect x="423.1" y="72.7" transform="matrix(0.9959 -9.064717e-002 9.064717e-002 0.9959 -4.8464 39.285)" class="st7" width="13.8" height="0.6"/>
	
		<rect x="422.6" y="71.7" transform="matrix(0.9961 -8.837622e-002 8.837622e-002 0.9961 -4.6827 38.2394)" class="st7" width="13.8" height="0.6"/>
	
		<rect x="422.2" y="72" transform="matrix(0.9961 -8.837622e-002 8.837622e-002 0.9961 -4.7126 38.2101)" class="st8" width="13.8" height="0.6"/>
	
		<rect x="411.5" y="65.7" transform="matrix(0.7358 -0.6772 0.6772 0.7358 66.0614 301.2837)" class="st4" width="15.2" height="0.6"/>
	
		<rect x="411.8" y="66.1" transform="matrix(0.7358 -0.6772 0.6772 0.7358 65.851 301.6172)" class="st5" width="15.2" height="0.6"/>
	
		<rect x="411.1" y="65.4" transform="matrix(0.7358 -0.6772 0.6772 0.7358 66.1182 300.9186)" class="st5" width="15.2" height="0.6"/>
	
		<rect x="412.1" y="66.5" transform="matrix(0.7358 -0.6772 0.6772 0.7358 65.647 301.9293)" class="st6" width="15.2" height="0.6"/>
	
		<rect x="410.8" y="65.2" transform="matrix(0.7358 -0.6772 0.6772 0.7358 66.2038 300.6683)" class="st6" width="15.2" height="0.6"/>
	
		<rect x="411.4" y="65.3" transform="matrix(0.7358 -0.6772 0.6772 0.7358 66.2845 301.1024)" class="st7" width="15.2" height="0.6"/>
	<rect x="412" y="65.9" transform="matrix(0.7358 -0.6772 0.6772 0.7358 66.044 301.6732)" class="st7" width="15.2" height="0.6"/>
	
		<rect x="412" y="65.3" transform="matrix(0.7358 -0.6772 0.6772 0.7358 66.4458 301.4796)" class="st8" width="15.2" height="0.6"/>
	
		<rect x="401.4" y="81.2" transform="matrix(4.426626e-002 -0.999 0.999 4.426626e-002 308.1728 485.3044)" class="st2" width="12.6" height="0.7"/>
	
		<rect x="405.6" y="75.2" transform="matrix(0.999 -4.541640e-002 4.541640e-002 0.999 -3.2821 18.5216)" class="st2" width="0.7" height="12.6"/>
	<path class="st9" d="M423.6,33.9c0.2-0.2,0-0.6-0.2-0.8c-0.4-0.5-1.1-0.5-1.5-0.2c-0.4,0.3-0.6,0.9-0.3,1.3l-0.3,0.3l0.3,0.3
		l0.4-0.2C422.6,34.7,423.2,34.3,423.6,33.9z"/>
	<path class="st9" d="M418.3,32.1c0.5-0.1,0.9-0.5,1-0.8c0-0.2-0.1-0.4-0.1-0.5c-0.4-0.5-1.2-0.6-1.6-0.2c-0.3,0.3-0.4,0.8-0.2,1.2
		l0.3-0.3l0.4,0.5L418.3,32.1z"/>
	<path class="st9" d="M421,26.4c-0.4-0.5-1-0.6-1.6-0.2l0,0c-0.3,0.3-0.4,0.8-0.1,1.2l-0.3,0.2l0.4,0.5l0.4-0.2
		c0.5-0.1,1-0.6,1.4-1.1C421.2,26.7,421.3,26.5,421,26.4z"/>
	<path class="st9" d="M421.9,27.2l0.4-0.2c0.5-0.1,1-0.6,1.3-1c0-0.2,0.1-0.4-0.1-0.5c-0.3-0.4-0.9-0.4-1.4-0.1c0,0,0,0.1-0.1,0.1
		c-0.3,0.3-0.8,0.3-0.1,1.4l-0.3,0.2L421.9,27.2z"/>
	<path class="st9" d="M425.2,22.8l0.3,0.3l0.2,0c0.5,0,1.1-0.3,1.4-0.7c0.1-0.4,0-0.6-0.2-0.8c-0.2-0.2-0.5-0.2-0.7-0.1
		c-0.3,0.1-0.4,0.2-0.6,0.3C425.2,21.9,425,22.4,425.2,22.8z"/>
	<path class="st9" d="M429,20.1l0.4,0.5l0.3-0.1c0.5,0,1.1-0.2,1.4-0.7c0.1-0.4,0-0.6-0.2-0.9c-0.4-0.5-1-0.6-1.5-0.2l0,0
		C429.2,19.2,429.1,19.6,429,20.1L429,20.1z"/>
	<path class="st9" d="M431.6,20.6c0,0.2-0.1,0.5,0,0.6l0.3,0.3l0.2,0c0.5,0,1.1-0.3,1.4-0.7c0-0.1,0-0.1,0-0.2l0-0.1
		c0-0.2-0.1-0.4-0.1-0.5c-0.3-0.4-0.9-0.4-1.4-0.1c0,0,0,0.1-0.1,0.1C431.7,20,431.5,20.2,431.6,20.6z"/>
	<path class="st9" d="M425.6,23.4c-0.2,0.3-0.3,0.7-0.3,1.1l-0.2,0.2l0.7,0.8l0.4-0.2c0.5-0.1,1-0.6,1.4-1.1c0-0.2-0.1-0.4-0.3-0.6
		C426.8,23.1,426.2,23,425.6,23.4z"/>
	<path class="st9" d="M421.2,29.5l0.2-0.2l0,0c0.2,0.3,0.5,0.5,0.9,0.4c0.4-0.1,0.7-0.4,0.8-0.6c0.1-0.4,0-0.8-0.3-1.1
		c-0.2-0.3-0.6-0.4-1-0.3c-0.4,0.1-0.7,0.4-0.9,0.8C420.8,28.8,420.9,29.2,421.2,29.5z"/>
	<path class="st9" d="M420.5,32c-0.3-0.3-0.9-0.4-1.2-0.1l-0.1,0.1c-0.3,0.3-0.7,0.5,0,1.5l0.3-0.3l0.1,0l0.1,0c0.5,0,0.9-0.5,1-0.8
		C420.7,32.3,420.6,32.2,420.5,32z"/>
	<path class="st9" d="M423.9,32.1l0.3-0.1c0.5,0,1.1-0.3,1.4-0.7c0.1-0.4,0-0.6-0.2-0.9c-0.3-0.4-1.1-0.5-1.4-0.1c0,0,0,0-0.1,0.1
		c-0.1,0.4-0.2,0.9-0.1,1.2l-0.2,0.2L423.9,32.1z"/>
	<path class="st9" d="M426.3,27.6l0.5,0.6l0.3-0.1c0.5,0,1.1-0.3,1.4-0.7c0.1-0.4,0-0.6-0.2-0.9c-0.4-0.5-1.2-0.6-1.6-0.2l0,0
		C426.5,26.7,426.4,27.2,426.3,27.6L426.3,27.6z"/>
	<path class="st9" d="M432.1,25.9c0.2-0.2,0-0.6-0.2-0.8c-0.4-0.5-1.1-0.5-1.5-0.2c-0.4,0.3-0.6,0.9-0.3,1.3l-0.1,0.1l0.3,0.3
		l0.3-0.1C431.2,26.6,431.7,26.4,432.1,25.9z"/>
	<path class="st9" d="M434.2,25.2L434.2,25.2c0.6,0.2,1.1,0,1.4-0.5c0,0,0,0,0-0.1c0.2-0.6,0-1.1-0.6-1.4l-0.2,0.5l0.1-0.5
		c-0.3-0.2-0.7-0.1-1.1,0.2s-0.5,0.7-0.3,1.1c0.1,0.3,0.2,0.4,0.3,0.6C434,25.1,434.1,25.2,434.2,25.2z"/>
	<path class="st9" d="M439.2,23.2c0-0.2-0.1-0.4-0.1-0.5c-0.4-0.5-1.1-0.5-1.5-0.2l0,0c-0.2,0.3-0.3,0.8-0.2,1.2l-0.3,0.3l0.4,0.5
		l0.4-0.3C438.4,24.2,438.8,23.8,439.2,23.2z"/>
	<path class="st9" d="M435.8,23l0.4-0.2c0.5-0.1,1-0.6,1.2-1c0-0.2,0.1-0.4-0.1-0.5c-0.3-0.4-0.9-0.4-1.4-0.1l-0.1,0.1
		c-0.3,0.3-0.7,0.5,0,1.4l-0.1,0.1L435.8,23z"/>
	<path class="st9" d="M443.8,23.4c-0.3-0.4-0.9-0.4-1.4-0.1c0,0,0,0.1-0.1,0.1c-0.3,0.3-0.8,0.3-0.1,1.2l-0.2,0.2l0.3,0.3l0.4-0.2
		c0.5-0.1,1-0.6,1.4-1.1C443.9,23.8,443.9,23.5,443.8,23.4z"/>
	<path class="st9" d="M452.4,29.5c0.1-0.4,0-0.6-0.3-1c-0.4-0.5-1.1-0.5-1.5-0.2l0,0c-0.2,0.3-0.3,0.8-0.2,1.2l-0.5,0.4l0.5,0.6
		l0.4-0.2C451.4,30.3,452,30.1,452.4,29.5z"/>
	<path class="st9" d="M452.8,31.6c-0.2-0.3-0.6-0.4-1-0.3c-0.4,0.1-0.7,0.4-0.8,0.7c-0.1,0.4,0,0.8,0.3,1l0.3-0.2l0,0
		c0.2,0.3,0.4,0.5,0.8,0.5c0.4-0.1,0.6-0.3,0.6-0.6C453.1,32.3,453,31.9,452.8,31.6z"/>
	<path class="st9" d="M455.3,35.7l-0.5,0.4l0.3,0.3l0.4-0.3c0.7-0.1,1.2-0.4,1.6-1c0.1-0.4,0-0.6-0.2-0.9c-0.4-0.5-1.1-0.5-1.5-0.2
		c0,0,0,0,0,0.1C455.2,34.6,454.6,34.6,455.3,35.7z"/>
	<path class="st9" d="M452.4,38.2l-0.3,0.3l0.3,0.3l0.4-0.3c0.5-0.1,1-0.6,1.3-1c0-0.2-0.1-0.4-0.1-0.5c-0.3-0.4-0.9-0.4-1.4-0.1
		c0,0,0,0.1-0.1,0.1C452.2,37.2,451.7,37.2,452.4,38.2z"/>
	<path class="st9" d="M453.3,29.3L453.3,29.3l0.2,0.4l0.3-0.1c0.5,0,1.1-0.3,1.4-0.7c0.1-0.4,0-0.6-0.2-0.8
		c-0.3-0.4-0.9-0.4-1.4-0.1c0,0,0,0.1-0.1,0.1C453.1,28.2,452.6,28.3,453.3,29.3z"/>
	<path class="st9" d="M451.9,26.5l0.1-0.1l0.4,0.5l0.1,0c0.5,0,1.1-0.2,1.4-0.7c0.1-0.4,0-0.6-0.2-0.8c-0.4-0.5-1.1-0.5-1.5-0.2l0,0
		C451.7,25.4,451.6,26,451.9,26.5z"/>
	<path class="st9" d="M449.5,23.7l0.6,0.8l0.1,0c0.5,0,1.1-0.3,1.4-0.7c0.1-0.4,0-0.6-0.3-1c-0.4-0.5-1.2-0.6-1.6-0.2
		C449.7,23,449.6,23.4,449.5,23.7L449.5,23.7L449.5,23.7z"/>
	<path class="st9" d="M436.3,19.9l0.3-0.3l0,0l0.1,0.1c0.5,0.1,1.1-0.2,1.2-0.5c0-0.2,0-0.6-0.2-0.8c-0.3-0.4-0.9-0.4-1.4-0.1
		l-0.1,0.1C436,18.7,435.6,18.8,436.3,19.9z"/>
	<path class="st9" d="M440.1,21.1l0.3-0.3l0.4,0.5l0.1,0.1c0.5,0.1,1.1-0.2,1.3-0.6c0.1-0.4,0-0.6-0.2-0.8c-0.4-0.5-1.1-0.5-1.5-0.2
		l0,0C440.2,20.4,440.1,20.7,440.1,21.1z"/>
	<path class="st9" d="M443.8,19.8L443.8,19.8l0.5,0.7l0.3-0.1c0.5,0,1.1-0.3,1.4-0.7c0.1-0.4,0-0.6-0.2-0.9
		c-0.4-0.5-1.2-0.6-1.6-0.2C443.7,18.9,443.6,19.4,443.8,19.8L443.8,19.8z"/>
	<path class="st9" d="M439.2,17.9l-0.5,0.4l0.5,0.6l0.4-0.2c0.6,0,1.2-0.4,1.6-0.8c0.1-0.4,0-0.6-0.2-0.9c-0.4-0.5-1.2-0.6-1.6-0.2
		C439.4,17.2,439.2,17.5,439.2,17.9z"/>
	<path class="st9" d="M446.7,22.7l0.8,0.9l0.3-0.1c0.5,0,1.1-0.3,1.4-0.7c0.1-0.4,0-0.6-0.3-1c-0.4-0.5-1.2-0.6-1.7-0.2
		C447.1,21.9,446.9,22.2,446.7,22.7L446.7,22.7z"/>
	<path class="st9" d="M444.5,24.5c-0.4,0.3-0.5,0.8-0.2,1.2L444,26l0.5,0.5l0.3-0.1c0.6,0,1.2-0.3,1.6-0.8c0.1-0.4,0-0.6-0.2-0.9
		C445.8,24.1,445,24,444.5,24.5C444.6,24.4,444.6,24.4,444.5,24.5z"/>
	<path class="st9" d="M451.4,43.5l0.3,0.3l0.3-0.1c0.5,0,1.1-0.3,1.4-0.7c0.1-0.4,0-0.6-0.2-0.8s-0.5-0.2-0.7-0.1
		c-0.3,0.1-0.4,0.2-0.6,0.3C451.4,42.7,451.2,43.1,451.4,43.5z"/>
	<path class="st9" d="M450.6,45.4c-0.4,0.3-0.5,0.8-0.2,1.2l0.1-0.1L451,47l0.1,0c0.5,0,1.1-0.2,1.4-0.7c0.1-0.4,0-0.6-0.2-0.9
		C451.9,45,451.2,45,450.6,45.4L450.6,45.4z"/>
	<path class="st9" d="M449.7,48.9l0.3,0.3l0.3-0.1c0.5,0,1.1-0.3,1.4-0.7c0.1-0.4,0-0.6-0.2-0.8c-0.2-0.2-0.5-0.2-0.7-0.1
		c-0.3,0.1-0.4,0.2-0.6,0.3C449.6,48,449.5,48.5,449.7,48.9z"/>
	<path class="st9" d="M448.5,50.6c-0.3,0.1-0.4,0.2-0.6,0.3c-0.4,0.3-0.5,0.8-0.4,1.2l0.3,0.3l0.3-0.1c0.5-0.1,1-0.6,1.2-1
		c0.1-0.4-0.2-0.7-0.6-0.8C448.6,50.6,448.5,50.6,448.5,50.6z"/>
	<path class="st9" d="M445.8,54.4c0.5,0,1.1-0.3,1.4-0.7c0.1-0.4,0-0.6-0.2-0.8c-0.2-0.2-0.5-0.2-0.7-0.1c-0.3,0.1-0.4,0.2-0.6,0.3
		c-0.4,0.3-0.5,0.8-0.4,1.2l0.3,0.3L445.8,54.4z"/>
	<path class="st9" d="M442.4,56.3l0.3,0.4l0.3-0.1c0.5-0.1,1-0.6,1.2-1c0.1-0.4-0.2-0.8-0.6-0.8c-0.1,0-0.2,0-0.4,0.1
		c-0.3,0.1-0.4,0.2-0.6,0.3C442.3,55.4,442.2,55.9,442.4,56.3z"/>
	<path class="st9" d="M439.1,58.8l0.3,0.3l0.4-0.2c0.5-0.1,1-0.6,1.2-1c0-0.2-0.1-0.4-0.1-0.5c-0.4-0.5-1.1-0.5-1.5-0.2
		c0,0,0,0,0,0.1C439.1,57.7,438.6,57.7,439.1,58.8L439.1,58.8z"/>
	<path class="st9" d="M428.6,55.5c-0.4-0.5-1.2-0.6-1.6-0.2l0,0c-0.2,0.3-0.3,0.7-0.3,1.1l-0.2,0.2l0.6,0.6l0.3-0.1
		c0.5,0,1.1-0.3,1.4-0.7C429,56.2,428.9,55.8,428.6,55.5z"/>
	<path class="st9" d="M420.8,46.1c-0.3-0.4-0.9-0.4-1.4-0.1c0,0,0,0.1-0.1,0.1c-0.3,0.3-0.8,0.3-0.1,1.4l0.2-0.2l0.3,0.3l0.1,0
		c0.5-0.1,0.9-0.5,1-0.8C420.9,46.5,420.9,46.2,420.8,46.1z"/>
	<path class="st9" d="M421.1,37.1c-0.3-0.4-0.9-0.4-1.4-0.1c0,0,0,0.1-0.1,0.1c-0.3,0.3-0.8,0.3-0.1,1.4l0,0l0.1,0.1l0.2,0
		c0.5,0,1.1-0.2,1.4-0.6C421.5,37.7,421.3,37.3,421.1,37.1z"/>
	<path class="st9" d="M423.9,46.8c-0.2-0.2-0.5-0.2-0.7-0.1c-0.3,0.1-0.4,0.2-0.6,0.3c-0.4,0.3-0.5,0.8-0.4,1.2l0.3,0.3l0.3-0.1
		c0.5,0,1.1-0.3,1.4-0.7C424.3,47.4,424.3,47,423.9,46.8z"/>
	<path class="st9" d="M423.8,49.2c-0.3,0.3-1,0.3-0.2,1.2l0.2-0.2l0.4,0.5l0.1,0c0.5-0.1,1-0.4,1.2-0.9c0-0.2-0.1-0.4-0.1-0.5
		C424.9,48.8,424.3,48.8,423.8,49.2z"/>
	<path class="st9" d="M423.1,43.9c-0.3-0.4-0.9-0.4-1.4-0.1c0,0,0,0.1-0.1,0.1c-0.3,0.3-0.8,0.3-0.1,1.4l0,0l0.3,0.4l0.3-0.1
		c0.5-0.1,1-0.6,1.2-1C423.3,44.2,423.2,44,423.1,43.9z"/>
	<path class="st9" d="M424.8,46.7c-0.4,0.2-0.5,0.8-0.4,1.2l0,0l0.1-0.1l0.6,0.6l0.1,0c0.5,0.1,1.1-0.2,1.3-0.6
		c0.1-0.4,0-0.6-0.2-0.9C426.1,46.5,425.4,46.3,424.8,46.7C424.9,46.8,424.9,46.8,424.8,46.7z"/>
	<path class="st9" d="M428.5,49.4c-0.4-0.5-1.2-0.6-1.6-0.2c-0.2,0.3-0.3,0.7-0.3,1.1l-0.2,0.2l0.7,0.8l0.3-0.1
		c0.6,0,1.1-0.4,1.4-0.9C428.9,50,428.7,49.5,428.5,49.4z"/>
	<path class="st9" d="M432,52.3c-0.4-0.5-1.2-0.6-1.6-0.2l0,0c-0.2,0.3-0.3,0.7-0.3,1.1l-0.1,0.1l0.6,0.6l0.3-0.1
		c0.5,0,1.1-0.3,1.4-0.7C432.4,52.9,432.3,52.5,432,52.3z"/>
	<path class="st9" d="M431.2,55.6l0.5,0.6l0.1,0c0.5,0.1,1.1-0.2,1.4-0.6c0.1-0.4,0-0.6-0.2-0.8c-0.4-0.5-1.2-0.6-1.6-0.2
		c-0.4,0.3-0.5,0.8-0.2,1.2L431.2,55.6z"/>
	<path class="st9" d="M439.6,53.9c0.1-0.4,0-0.6-0.2-0.8c-0.2-0.2-0.5-0.2-0.7-0.1s-0.4,0.2-0.6,0.3c-0.4,0.3-0.5,0.8-0.4,1.2
		l0.3,0.3l0.3-0.1C438.8,54.8,439.3,54.5,439.6,53.9z"/>
	<path class="st9" d="M442,53.8c-0.2-0.2-0.5-0.2-0.7-0.1c-0.3,0.1-0.4,0.2-0.6,0.3c-0.4,0.3-0.5,0.8-0.4,1.2l0.3,0.3l0.3-0.1
		c0.5,0,1.1-0.3,1.4-0.7C442.4,54.4,442.2,54.1,442,53.8z"/>
	<path class="st9" d="M435.3,56l0.3,0.4l0.3-0.1c0.5-0.1,1-0.6,1.2-1c0.1-0.4-0.2-0.8-0.6-0.8c-0.1,0-0.2,0-0.4,0.1
		c-0.3,0.1-0.4,0.2-0.6,0.3C435.3,55,435.2,55.6,435.3,56z"/>
	<path class="st9" d="M444.4,52.7c0.1-0.4,0-0.6-0.2-0.8c-0.3-0.4-0.9-0.4-1.4-0.1c0,0,0,0.1-0.1,0.1c-0.3,0.3-0.8,0.3-0.1,1.4
		l0.1-0.1l0.2,0.3l0.1,0C443.6,53.3,444,53.2,444.4,52.7z"/>
	<path class="st9" d="M446.7,51.1c0.1-0.4,0-0.6-0.2-0.9c-0.4-0.5-1.1-0.5-1.5-0.2l0,0c-0.2,0.3-0.3,0.8-0.2,1.2l-0.1,0.1l0.5,0.5
		l0.3-0.1C445.8,51.9,446.4,51.6,446.7,51.1z"/>
	<path class="st9" d="M449.2,48.7c0.1-0.4,0-0.6-0.2-0.9c-0.4-0.5-1.1-0.5-1.5-0.2l0,0c-0.2,0.3-0.3,0.8-0.2,1.2l0.3-0.3l0.5,0.6
		l0,0.1C448.5,49.3,449,49.2,449.2,48.7z"/>
	<path class="st9" d="M444.5,56.8l0.3,0.3l0.3-0.1c0.5,0,1.1-0.3,1.4-0.7c0.1-0.4,0-0.6-0.2-0.8s-0.5-0.2-0.7-0.1
		c-0.3,0.1-0.4,0.2-0.6,0.3C444.5,56,444.4,56.4,444.5,56.8z"/>
	<path class="st9" d="M449.7,54.7c-0.4-0.5-1.2-0.6-1.6-0.2c-0.2,0.3-0.3,0.7-0.3,1.1l0,0l0.6,0.8l0.3-0.1c0.5,0,1.1-0.3,1.4-0.7
		C450,55.2,449.9,54.9,449.7,54.7z"/>
	<path class="st9" d="M450.2,52.1c-0.3,0.3-0.4,0.8-0.1,1.2l0.2-0.2l0.3,0.3l0.1,0.1c0.5,0.1,1.1-0.2,1.3-0.6c0.1-0.4,0-0.6-0.2-0.8
		C451.3,51.8,450.7,51.8,450.2,52.1L450.2,52.1z"/>
	<path class="st9" d="M452.2,49.3c-0.3,0.3-0.7,0.4,0,1.4l0,0.1l0.1,0.1l0.3-0.1c0.5,0,1.1-0.3,1.4-0.7c0.2-0.2,0-0.6-0.2-0.8
		C453.4,48.9,452.8,48.9,452.2,49.3C452.3,49.3,452.2,49.3,452.2,49.3z"/>
	<path class="st9" d="M453.4,47.1c-0.2,0.3-0.3,0.7-0.3,1.1l0,0.1l0.6,0.6l0.3-0.1c0.5,0,1.1-0.3,1.4-0.7c0.1-0.4,0-0.6-0.2-0.9
		c-0.4-0.5-1-0.6-1.6-0.3C453.4,47,453.4,47.1,453.4,47.1z"/>
	<path class="st9" d="M453.4,44.4l-0.1,0.1l0.5,0.6l0.4-0.2c0.5-0.1,1-0.6,1.2-1c0-0.2-0.1-0.4-0.1-0.5c-0.4-0.5-1.2-0.6-1.6-0.2
		C453.3,43.5,453.2,44,453.4,44.4z"/>
	<path class="st9" d="M454.5,40.1l0.5,0.6l0.1,0c0.5,0,1.1-0.2,1.3-0.6c0.1-0.4,0-0.6-0.2-0.9c-0.4-0.5-1-0.6-1.5-0.2l0,0
		c-0.2,0.3-0.3,0.8-0.2,1.2L454.5,40.1z"/>
	<path class="st9" d="M436.5,61.9l0.3,0.4l0.3-0.1c0.5-0.1,1-0.6,1.2-1c0.1-0.4-0.2-0.8-0.6-0.8c-0.1,0-0.2,0-0.4,0.1
		c-0.3,0.1-0.4,0.2-0.6,0.3C436.4,61,436.3,61.4,436.5,61.9z"/>
	<path class="st9" d="M442.4,58.9c-0.4-0.5-1.2-0.6-1.6-0.3l0,0c-0.2,0.3-0.3,0.8-0.2,1.2l-0.1,0.1l0.6,0.6l0.3-0.1
		c0.5,0,1.1-0.3,1.4-0.9C442.8,59.5,442.7,59.3,442.4,58.9z"/>
	<path class="st9" d="M445.5,58.1c-0.4-0.5-1.1-0.5-1.5-0.2l0,0c-0.3,0.3-0.4,0.8-0.1,1.2l0,0.1l0.3,0.3l0.3-0.1
		c0.5,0,1.1-0.3,1.4-0.7C445.9,58.6,445.7,58.3,445.5,58.1z"/>
	<path class="st9" d="M429.2,58.7c-0.4-0.6-1.1-0.7-1.7-0.3c-0.2,0.3-0.4,0.7-0.5,1.1l-0.3,0.2l0.8,0.9l0.3-0.2
		c0.5,0,1.1-0.3,1.4-0.9C429.6,59.2,429.6,59,429.2,58.7z"/>
	<path class="st9" d="M426.1,55.4c-0.4-0.5-1-0.6-1.5-0.2l0,0c-0.2,0.3-0.3,0.8-0.4,1.2l-0.2,0.2l0.5,0.6l0.3-0.1
		c0.5,0,1.1-0.3,1.4-0.7C426.5,56,426.4,55.6,426.1,55.4z"/>
	<path class="st9" d="M424.1,53c-0.2-0.2-0.5-0.2-0.7-0.1c-0.3,0.1-0.4,0.2-0.6,0.3c-0.4,0.3-0.5,0.8-0.4,1.2l0.3,0.3l0.3-0.1
		c0.5,0,1.1-0.3,1.4-0.7C424.5,53.5,424.5,53.2,424.1,53z"/>
	<path class="st9" d="M420.9,53.2l0.4-0.2c0.5-0.1,1-0.6,1.2-1c0-0.2,0-0.5-0.1-0.7c-0.4-0.6-1.1-0.7-1.6-0.3
		c-0.2,0.3-0.4,0.7-0.4,0.9l-0.2,0.2L420.9,53.2z"/>
	<path class="st9" d="M422.3,42.6l0.4-0.2c0.5-0.1,1-0.6,1.2-1c0-0.2-0.1-0.4-0.1-0.5c-0.3-0.4-0.9-0.4-1.4-0.1l-0.1,0.1
		c-0.3,0.3-0.8,0.3-0.1,1.4l-0.1,0.1L422.3,42.6z"/>
	<path class="st9" d="M418.9,39.7c-0.2-0.2-0.5-0.2-0.7-0.1c-0.3,0.1-0.4,0.2-0.6,0.3c-0.4,0.3-0.5,0.8-0.4,1.2l0.3,0.3l0.3-0.1
		c0.5,0,1.1-0.3,1.4-0.7C419.3,40.4,419.3,40.1,418.9,39.7z"/>
	<path class="st9" d="M413.8,55.6c-0.4-0.5-1.2-0.6-1.6-0.2l0,0c-0.2,0.3-0.3,0.7-0.3,1.1l0,0.1l0.6,0.6l0.3-0.1
		c0.5,0,1.1-0.3,1.4-0.7C414.2,56.1,414,55.8,413.8,55.6z"/>
	<path class="st9" d="M428.7,77.6c-0.3-0.4-0.9-0.4-1.4-0.1c0,0,0,0.1-0.1,0.1c-0.3,0.3-0.8,0.3-0.1,1.4l0.3-0.3l0.2,0.3l0.1,0.1
		c0.5,0,0.8-0.3,1-0.8C428.9,77.9,428.8,77.8,428.7,77.6z"/>
	<path class="st9" d="M411.5,86.1c-0.4-0.5-1.2-0.6-1.6-0.2c-0.4,0.3-0.5,0.8-0.2,1.2l0.3-0.2l0.5,0.6l0.1,0
		c0.5-0.1,0.9-0.5,1.1-0.9C411.7,86.4,411.8,86.3,411.5,86.1z"/>
	<path class="st9" d="M442.5,86.4c0.1-0.4,0-0.6-0.2-0.8c-0.2-0.2-0.5-0.2-0.7-0.1c-0.3,0.1-0.4,0.2-0.6,0.3
		c-0.4,0.3-0.5,0.8-0.4,1.2l0.3,0.3l0.3-0.1C441.7,87.3,442.1,87,442.5,86.4z"/>
	<path class="st9" d="M448.2,61.1c-0.4-0.5-1.2-0.6-1.6-0.2c-0.2,0.3-0.3,0.7-0.3,1.1l0,0l0.7,0.8l0.3-0.1c0.5,0,1.1-0.3,1.4-0.9
		C448.6,61.6,448.6,61.3,448.2,61.1z"/>
	<path class="st9" d="M408,42.8c-0.4-0.5-1-0.6-1.6-0.2l0,0c-0.2,0.3-0.3,0.8-0.2,1.2l0-0.1l0.5,0.6l0.3-0.1c0.5-0.1,1-0.6,1.2-1
		C408.4,43.1,408.3,43,408,42.8z"/>
	<path class="st10" d="M404.7,65.9c-0.9,0.6-2.1,0.7-3,0.4s-1.8-1.1-2.1-2.1c-0.4-0.7-0.6-1.5-0.6-2.3c0-0.5,0.1-1,0.2-1.5l2.3-7.3
		c0.9-2.5,2.9-4,5.3-3.2c1,0.2,1.9,0.9,2.3,1.8c0.5,1.2,0.5,2.8,0.1,4.1l-2.3,7.3C406.6,64.3,405.8,65.3,404.7,65.9z"/>
	<path class="st10" d="M420.5,89.2c-0.9-0.6-1.5-1.6-1.7-2.6c-0.1-1,0.3-2,1-2.7c0.5-0.7,1.1-1.2,1.8-1.4c0.4-0.2,1-0.3,1.5-0.5
		l7.6-0.9c2.6-0.3,4.8,0.9,5.2,3.5c0.3,1.1,0,2.2-0.7,2.9c-1,1-2.2,1.6-3.6,1.7l-7.6,0.9C422.8,90.3,421.5,89.9,420.5,89.2z"/>
	<path class="st10" d="M451.3,75.2c-1.1,0.3-2.2,0.1-2.9-0.6s-1.2-1.6-1.3-2.7c-0.1-0.8-0.1-1.5,0.2-2.4c0.2-0.5,0.4-0.9,0.8-1.4
		l4.6-6.1c1.6-2.1,4-2.8,6.1-1.2c0.9,0.6,1.6,1.5,1.7,2.5c0.1,1.4-0.4,2.7-1.3,3.8l-4.6,6.1C453.6,74.4,452.5,75,451.3,75.2z"/>
</g>
<title>logo</title>
<path class="st0" d="M1.2,132.6c0.6-0.6,1.5-0.9,2.3-0.9c1-0.1,3.5-0.1,7.5,0c4.1,0.1,6.8,0.3,8,0.5c1.6,0.3,3.1,0.9,4.5,1.7
	c1.2,0.6,2.4,1.3,3.4,2.2c0.9,1,1.6,2,2.1,3.2c1.4,2.6,2,5.6,1.7,8.6c-0.3,3.1-1.5,6-3.4,8.4c-0.7,0.7-1.3,1.5-1.7,2.5
	c0,0.3,1,1.3,2.9,3.1c2.8,3,4.3,7,4.2,11.2c-0.1,3.3-1.2,6.6-3.3,9.2c-1.8,2.7-4.5,4.7-7.6,5.8c-1.7,0.5-5.5,0.8-11.5,0.8
	s-9.2-0.3-9.7-0.8s-0.8-9.7-0.8-27.4S0.4,133.4,1.2,132.6z M20,141c-0.7-0.8-1.6-1.5-2.5-2c-1-0.3-2.1-0.4-3.1-0.4
	c-1.7,0-3.3,0.3-4.8,1c-0.7,0.3-1.3,0.9-1.6,1.6c-0.2,1.9-0.3,3.8-0.3,5.7c0,3.9,0.3,6.3,1,7.3s2.3,1.4,4.9,1.4
	c1.7,0,3.3-0.5,4.7-1.3c1.4-0.8,2.5-1.9,3.2-3.3c0.7-1.5,1.1-3.1,1.1-4.7c0-0.9-0.1-1.8-0.5-2.7C21.5,142.6,20.8,141.8,20,141z
	 M19.3,164.2c-2-0.9-4.1-1.3-6.3-1.2c-2.7,0-4.2,0.4-4.6,1.2c-0.4,0.8-0.7,3.6-0.7,8.3c0,2,0,4,0.3,6c0.1,0.9,0.5,1.8,1,2.5
	c0.4,0.6,1,1,1.6,1.2c1.3,0,2.5-0.1,3.8-0.4c2.2-0.3,4.2-1,6.1-2.2c2.6-1.8,3.9-4.9,3.5-8C23.9,168.5,22.1,165.7,19.3,164.2
	L19.3,164.2z"/>
<path class="st0" d="M41.7,136.8c-0.9,0-1.9,0.4-2.5,1.1c-0.6,0.6-1,1.5-1,2.4c-0.1,1.9,1.4,3.4,3.3,3.5c0.1,0,0.1,0,0.2,0
	c1.9,0,3.5-1.6,3.5-3.5C45.1,138.4,43.6,136.9,41.7,136.8z"/>
<path class="st0" d="M39.3,150.4h-2.4c-1,0.2-1.9,0.8-2.5,1.6c-0.7,0.7-1,1.7-1,2.7s0.3,1.9,1,2.6c0.7,0.7,1.6,1.1,2.5,1.1
	c0.3,0,0.7,0.2,0.9,0.4v0.1c0.2,0.2,0.3,0.6,0.3,0.9v19.5c0.1,0.4-0.1,0.7-0.3,1c-0.2,0.2-0.5,0.4-0.9,0.4c-0.9,0-1.8,0.4-2.5,1.1
	c-0.7,0.6-1,1.5-1,2.4s0.3,1.7,1,2.4c0.7,0.6,1.6,0.9,2.5,0.8h2.4c1.7,0.1,3.3-0.5,4.5-1.5s2-2.5,2.1-4.1v-24.4
	c-0.1-1.8-0.9-3.4-2.1-4.7C42.6,151.4,41,150.5,39.3,150.4z"/>
<path class="st0" d="M72.6,150.4H53.1c-1.7,0-2.7,1.3-3.9,2.4S48,156,48,157.6V182c-0.2,1.5,0.3,2.9,1.3,4c1,1,2.4,1.5,3.8,1.4h19.5
	c2.8,0.2,5.2-1.8,5.4-4.6c0-0.3,0-0.5,0-0.8v-24.4c0-1.6-0.3-3.7-1.5-4.8S74.2,150.4,72.6,150.4z M72,160v19.5
	c-0.1,0.5-0.3,0.9-0.7,1.2c-0.3,0.3-0.7,0.5-1.2,0.6H55.5c-0.4-0.1-0.8-0.3-1.1-0.6s-0.5-0.8-0.5-1.2V160c0-0.4,0.2-0.8,0.5-1.1
	c0.2-0.3,0.6-0.5,1-0.6h14.7c0.4,0.1,0.7,0.3,0.9,0.6l0.3,0.1C71.7,159.3,71.9,159.6,72,160z"/>
<path class="st0" d="M94.1,132.6c0.6-0.6,1.5-0.9,2.3-0.9c1-0.1,3.5-0.1,7.5,0c4.1,0.1,6.8,0.3,8,0.5c1.6,0.3,3.1,0.9,4.5,1.7
	c1.2,0.6,2.4,1.3,3.4,2.2c0.9,1,1.6,2,2.1,3.2c1.4,2.6,2,5.6,1.7,8.6c-0.3,3.1-1.5,6-3.4,8.4c-0.7,0.7-1.3,1.5-1.7,2.5
	c0,0.3,0.9,1.3,2.8,3.1c2.8,3,4.3,7,4.3,11.2c-0.1,3.3-1.2,6.6-3.3,9.2c-1.8,2.7-4.5,4.7-7.6,5.8c-1.7,0.5-5.5,0.8-11.5,0.8
	s-9.2-0.3-9.7-0.8s-0.7-9.7-0.7-27.4S93.4,133.4,94.1,132.6z M112.9,141c-0.7-0.8-1.6-1.5-2.5-2.1c-1-0.3-2.1-0.4-3.1-0.4
	c-1.7,0-3.3,0.3-4.8,1c-0.7,0.3-1.3,0.9-1.6,1.6c-0.2,1.9-0.3,3.8-0.3,5.7c0,3.9,0.3,6.3,1,7.3s2.3,1.4,4.9,1.4
	c1.7,0,3.3-0.5,4.7-1.3c1.3-0.7,2.5-1.8,3.2-3.2c0.7-1.5,1.1-3.1,1.1-4.7c0-0.9-0.1-1.8-0.5-2.7C114.4,142.6,113.7,141.8,112.9,141z
	 M112.2,164.2c-2-0.9-4.1-1.4-6.3-1.3c-2.6,0-4.2,0.4-4.6,1.3c-0.5,0.9-0.7,3.6-0.7,8.3c0,2,0,4,0.3,6c0.1,0.9,0.5,1.8,1,2.5
	c0.4,0.6,1,1,1.6,1.2c1.3,0,2.5-0.1,3.8-0.4c2.2-0.3,4.2-1,6.1-2.2c2.6-1.8,3.9-4.9,3.5-8C116.8,168.5,115,165.6,112.2,164.2
	L112.2,164.2z"/>
<path class="st0" d="M154.9,158.8c0.1-0.3,0.4-0.4,0.7-0.4c0.9,0,1.7-0.4,2.3-1c0.7-0.7,1.1-1.6,1.1-2.5c0-1.1-0.4-2.2-1.1-3
	c-0.6-0.7-1.5-1.6-2.5-1.6H153c-1.7,0-3.1,1.1-4.3,2.3c-1.1,1.3-1.7,3-1.7,4.7v22c0,0.5-0.1,1-0.4,1.4c-0.2,0.3-0.5,0.6-0.9,0.7
	h-9.8c-0.5-0.1-0.9-0.4-1.3-0.7c-0.4-0.4-0.6-0.8-0.6-1.4v-19.5c0.1-0.4,0.3-0.8,0.7-1c0.3-0.3,0.7-0.4,1.1-0.4c0.9,0,1.8-0.4,2.5-1
	s1.2-1.6,1.1-2.5c0-1.1-0.3-2.2-1.1-3c-0.6-0.7-1.5-1.6-2.4-1.6h-2.4c-1.7,0-2.9,1.1-4.1,2.3c-1,1.3-1.5,3-1.4,4.7v24.4
	c-0.1,1.5,0.4,3,1.5,4.1c1.1,1,2.5,1.6,4,1.5h14.6c0.9,0.1,1.7-0.2,2.4-0.8v-0.1c0.7,0.6,1.6,0.9,2.5,0.9h2.4
	c0.9,0.1,1.7-0.2,2.4-0.8c1.3-1.2,1.5-3.2,0.3-4.6c-0.1-0.1-0.2-0.2-0.3-0.3c-0.6-0.7-1.5-1.1-2.4-1.1c-0.4,0-0.3-0.1-0.5-0.4
	s0.1-0.6,0.1-1v-19.4C155,159.4,154.6,159.1,154.9,158.8z"/>
<path class="st0" d="M185.7,151.4H171c-0.9,0-1.8,0.3-2.5,1c-0.6-0.7-1.5-1-2.4-1h-2.4c-1,0.1-1.9,0.6-2.5,1.3c-0.7,0.7-1,1.6-1,2.6
	s0.3,1.9,1,2.6c0.7,0.7,1.6,1,2.5,1c0.3,0,0.7,0.2,0.9,0.4l0.5,0.1c0.4,0.2,0.7,0.5,0.9,0.9v19.5c-0.2,0.4-0.5,0.8-0.9,1
	c-0.3,0.3-0.7,0.4-1.1,0.4c-1,0-1.9,0.4-2.6,1.1c-0.7,0.6-1,1.5-1.1,2.4c0,0.8,0.3,1.6,1,2.1c0.7,0.7,1.5,0.6,2.5,0.6h2.4
	c1.5,0.2,3-0.3,4.1-1.3s1.7-2.4,1.7-3.9v-22c0-0.5,0.2-0.9,0.5-1.2c0.2-0.3,0.6-0.6,1-0.7h9.8c0.4,0.1,0.7,0.3,0.9,0.7l-0.3,0.2
	c0.2,0.3,0.2,0.7,0.1,1v19.5c0.1,0.3,0.1,0.7-0.1,1c-0.2,0.2-0.5,0.4-0.8,0.4c-0.9,0-1.8,0.4-2.4,1.1c-0.7,0.6-1,1.5-1,2.4
	c0,0.8,0.4,1.6,1,2.1c0.7,0.7,1.5,0.6,2.5,0.6h2.4c1.6,0.2,3.1-0.3,4.4-1.3c1.2-0.9,1.9-2.4,1.9-3.9v-24.3c-0.1-1.7-0.7-3.3-1.9-4.4
	C188.8,152.2,187.3,151.5,185.7,151.4z"/>
<path class="st0" d="M225,156.9v-13.7c-0.1-1.7-0.8-3.4-2.1-4.6c-1.2-1.3-2.8-2.1-4.5-2.2H216c-1,0.2-1.9,0.7-2.5,1.5
	c-0.7,0.7-1,1.7-1,2.6c0,1,0.3,1.9,1,2.6c0.7,0.7,1.6,1.1,2.5,1.1c0.3,0,0.7,0.2,0.9,0.4l0.4,0.1c0.3,0.2,0.6,0.5,0.7,0.9v9.8
	c-0.1,0.4-0.4,0.7-0.8,0.8c-0.4,0.2-0.8,0.3-1.3,0.2h-9.8c-0.3,0.1-0.7,0-0.9-0.2s-0.3-0.5-0.3-0.8v-12.2c0-1.7-0.7-3.4-1.9-4.6
	c-1.1-1.3-2.6-2.1-4.3-2.2h-2.4c-1,0.1-1.9,0.7-2.5,1.5c-0.7,0.7-1,1.7-1,2.6c0,1,0.3,1.9,1,2.6c0.7,0.7,1.6,1.1,2.5,1.1
	c0.3,0,0.7,0.2,0.9,0.4l0.2,0.1c0.3,0.2,0.5,0.5,0.5,0.9v12.2c0,0.9,0.3,1.8,1,2.5c-0.6,0.6-1,1.5-1,2.4v17.1
	c-0.1,0.8-0.7,1.4-1.5,1.4c-1.9,0-3.5,1.6-3.5,3.5c0,0.8,0.4,1.6,1,2.1c0.7,0.7,1.5,0.6,2.5,0.6h2.4c1.5,0.2,3.1-0.3,4.3-1.3
	c1.2-0.9,1.8-2.4,1.9-3.9v-17.1c0-0.4,0.1-0.8,0.3-1.2c0.2-0.3,0.5-0.6,0.9-0.6h14.6c0.4,0.1,0.7,0.3,0.9,0.6l0.5,0.2
	c0.4,0.2,0.7,0.6,0.8,1v14.6c-0.1,0.4-0.4,0.8-0.8,1c-0.3,0.3-0.7,0.4-1.1,0.4c-1,0-1.9,0.4-2.6,1.1c-0.6,0.6-1,1.5-1,2.4
	c0,0.8,0.3,1.6,1,2.1c0.7,0.7,1.5,0.6,2.5,0.6h2.4c1.6,0,3.4-0.2,4.6-1.3s2.1-2.2,2.1-3.9v-19.5c0-1.6-0.7-3.1-1.8-4.2
	C227.4,157.7,226.2,157.1,225,156.9z"/>
<path class="st0" d="M253.3,150.4h-14.6c-1.8,0.2-3.4,1-4.7,2.4c-1.2,1.3-1.9,3-2,4.8v9.8c0,0.9,0.3,1.8,1,2.5c-0.6,0.6-1,1.5-1,2.4
	v9.8c0,1.6,0.9,2.8,2.1,4c1.3,1,3,1.5,4.6,1.4h14.6c1.5,0.1,2.9-0.4,4-1.4s1.7-2.5,1.6-4v-2.4c0-1.9-1.4-3.4-3.3-3.5
	c-0.9,0-1.8,0.4-2.5,1.1c-0.7,0.6-1,1.5-1,2.4c0,0.5-0.1,0.9-0.4,1.3c-0.2,0.3-0.5,0.5-0.9,0.6H241c-0.4-0.1-0.7-0.3-0.9-0.6
	c-0.2-0.4-0.3-0.8-0.3-1.3v-4.9c-0.1-0.5,0.1-1,0.3-1.4s0.5-0.7,0.9-0.8h12.2c1.5,0.2,2.9-0.3,4-1.3c1.1-1,1.7-2.4,1.6-3.8v-9.8
	c0.1-1.7-0.5-3.4-1.6-4.8C256.2,151.6,254.9,150.4,253.3,150.4z M253,159.9v4.9c0,0.4-0.5,0.3-0.8,0.6s-0.9,0-1.3,0h-9.8
	c-0.4,0-0.6,0.3-0.9,0c-0.2-0.1-0.3-0.3-0.3-0.6v-4.9c-0.1-0.4,0.1-0.8,0.3-1.1s0.5-0.5,0.9-0.5h9.8c0.4,0,0.7,0.2,0.9,0.5l0.4,0.1
	C252.6,159.2,252.9,159.5,253,159.9z"/>
<path class="st0" d="M282.9,153c-0.6-0.7-1.2-2-2.1-2l-9.6-0.6c-0.9,0-1.8,0.3-2.5,1c-0.6-0.7-1.5-1-2.4-1h-2.4
	c-1,0.2-1.9,0.8-2.5,1.6c-0.7,0.7-1,1.7-1,2.7s0.3,1.9,1,2.6c0.7,0.7,1.6,1.1,2.5,1.1c0.3,0,0.7,0.2,0.9,0.4l0.5,0.1
	c0.4,0.2,0.6,0.5,0.8,0.9v19.4c0,0.4-0.2,0.8-0.6,1c-0.1,0.1-0.3,0.3-0.4,0.4c-0.7,0.8-1,0.4-1.6,1.1c-0.6,0.6-1,1.5-1,2.4
	s0.3,1.7,1,2.3s1.6,0.9,2.5,0.8h0.4c1.7,0.1,3.3-0.5,4.6-1.5c1.2-1,2-2.5,2.1-4.1v-22c-0.2-0.3-0.2-0.7,0-1c0.3-0.3,0.2-0.4,0.6-0.4
	h6.9c0.9,0,1.8,0.7,2.4,0.1s1.1-0.8,1.1-1.8S283.6,153.6,282.9,153z"/>
<rect x="131.7" y="89" transform="matrix(0.8645 -0.5026 0.5026 0.8645 -25.6172 85.6075)" class="st3" width="28.6" height="2.6"/>
<rect x="130.8" y="79.1" transform="matrix(0.8644 -0.5029 0.5029 0.8644 -21.3533 81.9582)" class="st11" width="20.9" height="2.9"/>
<rect x="89.9" y="14.5" transform="matrix(0.8645 -0.5026 0.5026 0.8645 6.4533 55.8395)" class="st1" width="33.8" height="2.9"/>
<rect x="95.9" y="20.5" transform="matrix(0.8644 -0.5029 0.5029 0.8644 4.1421 58.9783)" class="st11" width="31" height="2.6"/>
<rect x="112" y="33.7" transform="matrix(0.8644 -0.5029 0.5029 0.8644 -1.3138 65.4513)" class="st12" width="17.3" height="2.9"/>
<rect x="126.6" y="59.1" transform="matrix(0.8644 -0.5029 0.5029 0.8644 -11.9937 76.6292)" class="st13" width="18.9" height="2.9"/>
<rect x="112.9" y="42.1" transform="matrix(0.8644 -0.5029 0.5029 0.8644 -4.855 68.7388)" class="st1" width="24.2" height="2.6"/>
<rect x="118.2" y="52.5" transform="matrix(0.8645 -0.5026 0.5026 0.8645 -9.3296 72.9878)" class="st11" width="25" height="2.6"/>
<path class="st10" d="M111.3,41c1.3-0.4,2.7-0.8,4-1.1c-0.2,2.6-0.1,5.2,0.5,7.8c1.5,6.3,5.2,11.8,10.6,15.4
	c3.9,2.7,8.8,4.3,13.4,5.9c7,2.4,14.3,4.8,19.2,10.8c2.6,3.1,4.6,6.8,5.8,10.7l-3.9,2.2c-1.2-3.5-2.4-7.2-5-10.4
	c-4.1-5.1-10.6-7.3-17.4-9.6c-4.9-1.7-10-3.4-14.4-6.3c-6.2-4.2-10.5-10.5-12.2-17.8C111.4,46.1,111.2,43.5,111.3,41z"/>
<path class="st0" d="M131.6,74.8c1.5-2.6,3.3-5,5.3-7.3c2.9-3.5,5.7-6.8,6.2-10.8c0.5-3.7-0.9-7.9-4.2-12.7
	c-6.1-8.8-14.5-13.9-22.3-13.8c-2.2,0.1-4.4,0.4-6.6,0.9c-2.4,0.5-4.8,0.9-7.3,1c-5.7,0.1-11.7-8.6-14-12.9l3.4-1.9
	c1.7,3.2,7.1,10.5,11,10.5c2,0,4-0.2,6-0.5c2.4-0.5,4.8-0.9,7.2-1c9.2-0.2,18.8,5.6,25.6,15.5c4,5.7,5.6,10.8,4.9,15.5
	c-0.7,5.1-4,9-7.1,12.8c-1.8,2-3.4,4.3-4.8,6.6c-4.6,8.4-0.2,21.4,8,26.5l-3.8,2.2C129.4,99.4,126.1,84.9,131.6,74.8z"/>
<path class="st10" d="M115.3,27.3c0.8-1.3,1.6-2.5,2.4-3.7c2-2.9,4-5.7,4.2-8.9c0.3-2.9-2.9-9-5.1-12.7l3.4-2c2,3.4,6,10.7,5.6,15
	c-0.4,4.2-2.7,7.5-4.9,10.8c-0.8,1.2-1.6,2.3-2.3,3.5c-1.9,3.3-3.1,7-3.4,10.9c-1.3,0.4-2.7,0.6-4,1
	C111.5,36.2,112.9,31.5,115.3,27.3z"/>
<path class="st12" d="M143.8,101L124,66.7V44.4h1.2c0.6,0,0.8,0.4,0.8-0.2v-0.4c0-0.6-0.2-2.3-0.8-2.3h-17.5c-0.6,0-0.7,1.7-0.7,2.3
	v0.4c0,0.6,0,0.2,0.7,0.2h1.4v22.4l-20,34.2c-5.4,9.4,1.2,21.3,12.1,21.3h30.4c7.8-0.1,14.2-6.5,14.1-14.3
	C145.7,105.5,145,103.1,143.8,101z"/>
<path class="st2" d="M130.6,84.6c-0.2-0.4-0.6-0.6-1-0.7c-1.1-0.1-2.2-0.4-3.3-0.4c-3.6-0.1-2.5,0.7-6.1,0.3s-5.6-1.2-10.3-1
	c-1.9,0.1-3.9,0.4-5.8,0.4c-0.5,0-1,0.3-1.2,0.7l-6.9,12l-3.3,5.7c-3.2,5.5-1.3,12.5,4.2,15.7c1.8,1,3.8,1.6,5.8,1.5h27.7
	c6.4,0,11.5-5.1,11.5-11.5c0-2-0.5-4-1.5-5.8L130.6,84.6z"/>
<circle class="st12" cx="110.6" cy="106.5" r="1.4"/>
<circle class="st12" cx="119.9" cy="100.8" r="0.7"/>
<circle class="st12" cx="111.7" cy="97.8" r="1.1"/>
<circle class="st12" cx="124.7" cy="108.2" r="0.5"/>
<path class="st0" d="M131.3,64.3c-1.3,3-2.2,6.2-2.6,9.5l-1.6,9.2c-1.2,6.7-2.4,13.5-1.5,20.2c0.8,6.4,5.5,14.8,10.1,19.4
	s12.7,4.3,19.1,3.8s12.3-3.8,17.7-7.4c2.4-1.6,4.9-3.5,5.6-6.2c0.7-2.4-0.2-5.1,0.4-7.6c1.1-4.1,5.9-6.2,7.6-10.1
	c2-4.7-1-9.8-2.8-14.5c-2.1-5.6-2.6-11.7-3.7-17.5s-3.4-8.3-7.9-12.2c-6.7-5.8-13.1-6.7-19.4-2.3S134.8,57.3,131.3,64.3z"/>
<path class="st1" d="M134.2,66.9c-1.2,2.7-2,5.5-2.3,8.3l-1.4,8.1c-1,5.9-2.1,11.9-1.3,17.8c0.7,5.7,4.9,13.1,8.9,17.1
	s11.2,3.8,16.9,3.4s10.9-3.4,15.6-6.5c2.1-1.4,4.3-3.1,5-5.5c0.6-2.2-0.2-4.5,0.4-6.7c0.9-3.6,5.2-5.5,6.7-8.9
	c1.8-4.1-0.9-8.6-2.4-12.8c-1.9-4.9-2.3-10.3-3.3-15.5s-3-6.9-7-10.3c-5.9-5.1-11.6-6.4-17.1-2.4S137.3,60.7,134.2,66.9z"/>
<path class="st2" d="M166.8,68.4c-0.9-2.3-3-5.7-5.8-5.6c-2.4,0-4.9,0.3-7.2,1c-2.4,0.7-4.3,2.5-5.2,4.7c-0.5,1.6-0.5,3.3-0.1,4.9
	c0.4,3,1.8,5.8,3.9,8c2.2,2.1,5.6,3,8.4,1.7c1.5-0.9,2.8-2.1,3.8-3.5c1.5-2,3-4.1,3.2-6.6C167.7,71.5,167.4,69.9,166.8,68.4z"/>
<path class="st3" d="M150.6,64.1c-0.5,0.3-1,0.6-1.4,1c-1.5,1.5-1.6,4.1-3.3,5.5c-0.1,0.1-0.2,0.1-0.3,0.1c-0.3,0-0.3-0.4-0.3-0.6
	c0.3-1.4,0.8-2.8,1.5-4.1c0.2-0.2,0.3-0.6,0.2-0.9c-0.2-0.2-0.5-0.3-0.8-0.2c-0.3,0.1-0.5,0.3-0.6,0.6c-1.6,2-3,4.5-2.7,7.1
	c0,0.1,0,0.1,0,0.2h-0.1c-0.5,0-1-0.3-1.2-0.7c-0.2-0.5-0.3-0.9-0.2-1.4c0-0.8,0.1-1.5,0.3-2.2c0.4-1,0.9-1.9,1.6-2.7l2.5-3.3
	c0.8-1.3,1.9-2.4,3.2-3.2c0.4-0.3,1.1-0.3,1.5,0c0.2,0.4,0.2,1-0.1,1.4c-0.4,0.6-0.9,1.2-1.6,1.6c-0.4,0.2-0.8,0.5-1.2,0.8
	c-0.3,0.4-0.3,0.9,0,1.3h0.1c0.2,0.1,0.3-0.2,0.4-0.3c0.2-0.4,0.6-0.7,1.1-0.9c0.4-0.2,0.9-0.3,1.3-0.5c0.6-0.3,1.1-0.7,1.6-1.1
	c1.3-1,2.9-1.4,4.5-0.9c0.1,0,0.1,0.1,0.2,0.1c0,0.1,0,0.2,0,0.3c-0.1,0.5-0.5,0.8-1,0.9c-0.2,0-0.4,0-0.6,0
	c-0.3,0.1-0.6,0.2-0.9,0.3C152.9,62.7,151.7,63.4,150.6,64.1z"/>
<path class="st3" d="M155.4,56c-0.4,0-0.7,0.2-1,0.3c-0.3,0.2-0.5,0.6-0.4,1c0.1,0.3,0.4,0.5,0.7,0.5c1.4,0.5,3-0.1,4.5-0.1
	c1.2,0.1,2.3,0.4,3.4,0.9c0.2,0.1,0.5,0.2,0.6,0.4c0.2,0.2,0.2,0.5,0.1,0.7c-0.2,0.2-0.5,0.3-0.8,0.2c-0.6-0.1-1.3-0.3-1.9-0.3
	c-0.6-0.1-1.3,0-1.9,0.3c-0.1,0-0.1,0.1-0.1,0.2c0,0,0,0.1,0,0.2c0.2,0.7,0.7,1.2,1.4,1.2c0.3,0,0.7-0.1,1-0.1
	c0.9,0,1.7,0.1,2.5,0.5c0.5,0.1,0.9,0.3,1.3,0.5c1,0.8,1.8,1.9,2.3,3.1c0.6,1,1,2.1,1.3,3.2c0,0.2,0.1,0.4,0.2,0.6
	c0.3,0.2,0.7,0.2,0.9-0.1c0.5-0.7,0.5-1.5,0.1-2.2c-0.9-2.4-2.6-4.4-4.7-5.7c-0.1-0.1-0.2-0.2-0.2-0.3s0-0.2,0-0.4l0.2-1L168,63
	c0.4,0.4,0.7,0.8,1,1.2c0.4,0.7,0.6,1.5,0.8,2.3c0,0.2,0.1,0.3,0.3,0.3c0.1,0,0.2,0,0.3-0.1l0,0c0.8-0.6,0.9-1.7,0.4-2.4l0,0
	l-3.9-4.3c-0.7-0.7-1.4-1.3-2.2-1.9c-1.4-1.2-3.3-1.5-5-2.2C158.1,55.3,156.8,55.8,155.4,56z"/>
<path class="st3" d="M149.5,83.1c-0.2-0.3-0.1-0.8,0.2-1c0.2-0.1,0.5-0.2,0.7,0c0.6,0.3,1.1,0.6,1.6,0.9c0.6,0.4,1.1,0.8,1.8,1.2
	c1.6,1.1,3.6,1.6,5.5,1.5c2-0.1,3.8-0.9,5.2-2.3c1.5-1.7,2.6-3.8,3-6c0.1-0.2,0.3-0.4,0.6-0.3c0.2,0,0.3,0.2,0.3,0.3
	c0.1,0.5,0.1,1,0,1.4c-0.5,2.6-1.9,4.8-4,6.4c0.2,0.3,0.5,0.6,0.9,0.8c3.1-3,4.9-7.1,5.2-11.4c0.1-0.4,0.1-0.9,0-1.3
	c0-0.2,0.1-0.4,0.3-0.5c0.1,0,0.2,0,0.3,0c0.6,0.3,1.1,0.9,1.4,1.5c0.2,1.6-0.9,3-1.1,4.5c-0.4,2.5-1.6,4.8-3.3,6.6
	c-1.7,1.8-3.7,3.3-6,4.3c-0.8,0.4-1.6,0.7-2.4,1.1c-0.6,0.3-1.4,0.4-1.7-0.2c0.4-0.9,1.1-1.5,2-1.9l3.7-2.1
	c-0.2-0.5-0.7-0.9-1.3-0.8c-0.5,0.1-1,0.3-1.5,0.6c-1.9,1-4.2,1-6.1,0l-0.7,1.7c0.6,0.5,1.4,1,2.1,1.3c0.6,0.4,0.8,1.2,0.1,1.4
	l-0.3,0.1c-0.6,0.1-0.9-0.5-1.5-0.7c-1.9-0.6-3.6-1.7-5-3.1c-0.6-0.7-1.2-1.4-1.8-2.1c-0.8-1.1-1.8-2.5-2.6-3.7
	c-0.4-0.6-0.8-1.4-0.3-1.8c0.7,0,1.4,0.3,1.8,0.9c0.4,0.6,0.7,1.2,1,1.8c1.2,2.1,2.9,4,4.9,5.3c0.1,0.1,0.3,0.2,0.5,0.1
	c0.1-0.1,0.1-0.1,0.2-0.2l0.6-1C152.4,85.6,150.2,84.6,149.5,83.1z"/>
<rect x="150.9" y="100.1" transform="matrix(0.9606 -0.2778 0.2778 0.9606 -21.7182 47.4108)" class="st4" width="11.1" height="0.5"/>
<rect x="150.8" y="99.8" transform="matrix(0.9606 -0.2778 0.2778 0.9606 -21.6402 47.3774)" class="st5" width="11.1" height="0.5"/>
<rect x="151" y="100.4" transform="matrix(0.9606 -0.2778 0.2778 0.9606 -21.8005 47.4493)" class="st5" width="11.1" height="0.5"/>
<rect x="150.8" y="99.4" transform="matrix(0.9606 -0.2778 0.2778 0.9606 -21.5263 47.3576)" class="st6" width="11.1" height="0.5"/>
<rect x="151.1" y="100.7" transform="matrix(0.9606 -0.2778 0.2778 0.9606 -21.8837 47.4902)" class="st6" width="11.1" height="0.5"/>
<rect x="151.2" y="100.6" transform="matrix(0.96 -0.28 0.28 0.96 -21.9676 47.9271)" class="st7" width="11.1" height="0.5"/>
<rect x="150.6" y="99.9" transform="matrix(0.9606 -0.2778 0.2778 0.9606 -21.6769 47.3259)" class="st7" width="11.1" height="0.5"/>
<rect x="150.4" y="100.2" transform="matrix(0.9606 -0.2778 0.2778 0.9606 -21.7709 47.2762)" class="st8" width="11.1" height="0.5"/>
<rect x="141" y="96.8" transform="matrix(0.5922 -0.8058 0.8058 0.5922 -18.1937 158.0785)" class="st4" width="12.2" height="0.5"/>
<rect x="141.3" y="97.1" transform="matrix(0.5922 -0.8058 0.8058 0.5922 -18.2997 158.4565)" class="st5" width="12.2" height="0.5"/>
<rect x="140.6" y="96.6" transform="matrix(0.5922 -0.8058 0.8058 0.5922 -18.2433 157.7139)" class="st5" width="12.2" height="0.5"/>
<rect x="141.6" y="97.3" transform="matrix(0.5922 -0.8058 0.8058 0.5922 -18.4057 158.8124)" class="st6" width="12.2" height="0.5"/>
<rect x="140.3" y="96.5" transform="matrix(0.5922 -0.8058 0.8058 0.5922 -18.2328 157.4507)" class="st6" width="12.2" height="0.5"/>
<rect x="140.8" y="96.5" transform="matrix(0.5922 -0.8058 0.8058 0.5922 -18.0323 157.842)" class="st7" width="12.2" height="0.5"/>
<rect x="141.4" y="96.9" transform="matrix(0.5922 -0.8058 0.8058 0.5922 -18.0995 158.4552)" class="st7" width="12.2" height="0.5"/>
<rect x="141.3" y="96.4" transform="matrix(0.5922 -0.8058 0.8058 0.5922 -17.7712 158.1562)" class="st8" width="12.2" height="0.5"/>
<rect x="140.2" y="106" transform="matrix(0.989 -0.1482 0.1482 0.989 -14.9043 22.0486)" class="st2" width="0.6" height="10.1"/>
<rect x="138.8" y="106.2" transform="matrix(0.9717 -0.2362 0.2362 0.9717 -22.3383 36.0046)" class="st2" width="0.6" height="10.1"/>
<path class="st9" d="M145.7,71.1c0.1-0.2-0.1-0.5-0.3-0.6c-0.4-0.3-0.9-0.2-1.2,0.1c-0.3,0.3-0.3,0.8,0,1.1L144,72l0.3,0.2l0.3-0.2
	C145,71.9,145.4,71.5,145.7,71.1z"/>
<path class="st9" d="M141.2,70.5c0.4-0.2,0.6-0.5,0.7-0.8c0-0.2-0.1-0.3-0.2-0.4c-0.4-0.3-1-0.3-1.3,0.1c-0.2,0.3-0.2,0.7,0,1
	l0.2-0.3l0.4,0.3L141.2,70.5z"/>
<path class="st9" d="M142.5,65.6c-0.4-0.3-0.9-0.3-1.3,0.1l0,0c-0.2,0.3-0.2,0.7,0.1,1l-0.2,0.2l0.4,0.3l0.3-0.2
	c0.4-0.2,0.7-0.6,0.9-1.1C142.7,65.8,142.7,65.6,142.5,65.6z"/>
<path class="st9" d="M143.3,66.1l0.3-0.2c0.4-0.2,0.7-0.6,0.9-1c0-0.2,0-0.3-0.2-0.4c-0.3-0.3-0.8-0.2-1.1,0.1c0,0,0,0.1-0.1,0.1
	c-0.2,0.3-0.6,0.4,0.1,1.1L143,66L143.3,66.1z"/>
<path class="st9" d="M145.2,62.1l0.3,0.2h0.2c0.4-0.1,0.8-0.4,1-0.8c0-0.3-0.1-0.5-0.3-0.6s-0.4-0.1-0.6,0c-0.2,0.1-0.3,0.2-0.4,0.3
	C145.1,61.4,145,61.8,145.2,62.1z"/>
<path class="st9" d="M147.8,59.4l0.4,0.3l0.2-0.1c0.4-0.1,0.8-0.3,1-0.8c0-0.3-0.1-0.5-0.3-0.7c-0.4-0.3-0.9-0.3-1.2,0.1l0,0
	C147.8,58.7,147.8,59,147.8,59.4L147.8,59.4z"/>
<path class="st9" d="M149.9,59.4c0,0.2,0,0.4,0.1,0.5l0.3,0.2h0.2c0.4-0.1,0.8-0.4,1-0.8c0-0.1,0-0.1,0-0.2V59
	c0-0.2-0.1-0.3-0.2-0.4c-0.3-0.3-0.8-0.2-1.1,0.1c0,0,0,0.1-0.1,0.1C149.9,58.9,149.8,59.1,149.9,59.4z"/>
<path class="st9" d="M145.6,62.5c-0.1,0.3-0.1,0.6-0.1,0.9l-0.1,0.2l0.7,0.5l0.3-0.2c0.4-0.2,0.7-0.6,0.9-1.1c0-0.2-0.1-0.3-0.3-0.4
	C146.5,62.1,146,62.1,145.6,62.5z"/>
<path class="st9" d="M143.1,68l0.1-0.2l0,0c0.2,0.2,0.5,0.3,0.8,0.2c0.3-0.1,0.5-0.4,0.5-0.6c0-0.3-0.1-0.6-0.4-0.8
	c-0.2-0.2-0.5-0.2-0.8-0.1s-0.5,0.4-0.6,0.8C142.7,67.5,142.8,67.8,143.1,68z"/>
<path class="st9" d="M142.9,70.1c-0.3-0.2-0.8-0.2-1,0.1l-0.1,0.1c-0.2,0.3-0.5,0.5,0.2,1.2l0.2-0.3h0.1h0.1
	c0.4-0.1,0.6-0.5,0.7-0.8C143.1,70.3,143,70.2,142.9,70.1z"/>
<path class="st9" d="M145.6,69.6l0.2-0.1c0.4-0.1,0.8-0.4,1-0.8c0-0.3-0.1-0.5-0.3-0.7c-0.3-0.3-0.9-0.2-1.1,0.1c0,0,0,0-0.1,0.1
	c0,0.3,0,0.7,0.1,1l-0.1,0.2L145.6,69.6z"/>
<path class="st9" d="M146.8,65.7l0.5,0.4l0.2-0.1c0.4-0.1,0.8-0.4,1-0.8c0-0.3-0.1-0.5-0.3-0.7c-0.4-0.3-1-0.3-1.3,0.1l0,0
	C146.8,65,146.8,65.4,146.8,65.7L146.8,65.7z"/>
<path class="st9" d="M151.1,63.5c0.1-0.2-0.1-0.5-0.3-0.6c-0.4-0.3-0.9-0.2-1.2,0.1s-0.3,0.8,0,1.1l-0.1,0.1l0.3,0.2l0.2-0.1
	C150.5,64.2,150.9,63.9,151.1,63.5z"/>
<path class="st9" d="M152.7,62.6L152.7,62.6c0.5,0.1,0.9-0.2,1-0.6c0,0,0,0,0-0.1c0.1-0.5-0.2-0.9-0.7-1l-0.1,0.4v-0.4
	c-0.3-0.1-0.6,0-0.8,0.3s-0.3,0.6-0.1,0.9c0.1,0.2,0.2,0.3,0.3,0.4C152.5,62.6,152.6,62.6,152.7,62.6z"/>
<path class="st9" d="M156.3,60.3c0-0.2-0.1-0.3-0.2-0.4c-0.4-0.3-0.9-0.2-1.2,0.1l0,0c-0.1,0.3-0.1,0.7,0,1l-0.2,0.3l0.4,0.3
	l0.3-0.3C155.8,61.2,156.1,60.8,156.3,60.3z"/>
<path class="st9" d="M153.6,60.6l0.3-0.2c0.4-0.2,0.7-0.6,0.8-1c0-0.2,0-0.3-0.2-0.4c-0.3-0.3-0.8-0.2-1.1,0.1l-0.1,0.1
	c-0.2,0.3-0.5,0.5,0.2,1.1l-0.1,0.1L153.6,60.6z"/>
<path class="st9" d="M159.9,59.7c-0.3-0.3-0.8-0.2-1.1,0.1c0,0,0,0.1-0.1,0.1c-0.2,0.3-0.6,0.4,0.1,1l-0.1,0.2l0.3,0.2l0.3-0.2
	c0.4-0.2,0.7-0.6,0.9-1.1C160.1,60,160,59.8,159.9,59.7z"/>
<path class="st9" d="M167.6,63.2c0-0.3-0.1-0.5-0.4-0.7c-0.4-0.3-0.9-0.2-1.2,0.1l0,0c-0.1,0.3-0.1,0.7,0,1l-0.3,0.4l0.5,0.4
	l0.3-0.2C167,64,167.4,63.7,167.6,63.2z"/>
<path class="st9" d="M168.3,64.8c-0.2-0.2-0.5-0.2-0.8-0.1s-0.5,0.4-0.5,0.7c0,0.3,0.1,0.6,0.4,0.7l0.2-0.2l0,0
	c0.2,0.2,0.4,0.3,0.7,0.3c0.3-0.1,0.4-0.3,0.4-0.6C168.6,65.3,168.5,65,168.3,64.8z"/>
<path class="st9" d="M170.9,67.6l-0.3,0.4l0.3,0.2l0.3-0.3c0.5-0.2,0.9-0.5,1.1-1c0-0.3-0.1-0.5-0.3-0.7c-0.4-0.3-0.9-0.2-1.2,0.1
	c0,0,0,0,0,0.1C170.6,66.8,170.2,66.9,170.9,67.6z"/>
<path class="st9" d="M169,70l-0.2,0.3l0.3,0.2l0.3-0.3c0.4-0.2,0.7-0.6,0.9-1c0-0.2-0.1-0.3-0.2-0.4c-0.3-0.3-0.8-0.2-1.1,0.1
	c0,0,0,0.1-0.1,0.1C168.7,69.3,168.3,69.4,169,70z"/>
<path class="st9" d="M168.3,62.9L168.3,62.9l0.2,0.3l0.2-0.1c0.4-0.1,0.8-0.4,1-0.8c0-0.3-0.1-0.5-0.3-0.6c-0.3-0.3-0.8-0.2-1.1,0.1
	c0,0,0,0.1-0.1,0.1C168,62.1,167.6,62.2,168.3,62.9z"/>
<path class="st9" d="M166.8,60.9l0.1-0.1l0.4,0.3h0.1c0.4-0.1,0.8-0.3,1-0.8c0-0.3-0.1-0.5-0.3-0.6c-0.4-0.3-0.9-0.2-1.2,0.1l0,0
	C166.5,60.1,166.5,60.6,166.8,60.9z"/>
<path class="st9" d="M164.5,59.1l0.6,0.5h0.1c0.4-0.1,0.8-0.4,1-0.8c0-0.3-0.1-0.5-0.4-0.7c-0.4-0.3-1-0.3-1.3,0.1
	C164.5,58.5,164.5,58.8,164.5,59.1L164.5,59.1L164.5,59.1z"/>
<path class="st9" d="M153.5,58.1l0.2-0.3l0,0l0.1,0.1c0.4,0,0.8-0.3,0.9-0.6c0-0.2-0.1-0.5-0.3-0.6c-0.3-0.3-0.8-0.2-1.1,0.1
	l-0.1,0.1C153.1,57.2,152.8,57.4,153.5,58.1z"/>
<path class="st9" d="M156.7,58.5l0.2-0.3l0.4,0.3l0.1,0.1c0.4,0,0.8-0.3,0.9-0.7c0-0.3-0.1-0.5-0.3-0.6c-0.4-0.3-0.9-0.2-1.2,0.1
	l0,0C156.6,57.9,156.6,58.2,156.7,58.5z"/>
<path class="st9" d="M159.4,56.9L159.4,56.9l0.5,0.5l0.2-0.1c0.4-0.1,0.8-0.4,1-0.8c0-0.3-0.1-0.5-0.3-0.7c-0.4-0.3-1-0.3-1.3,0.1
	C159.2,56.2,159.2,56.6,159.4,56.9L159.4,56.9z"/>
<path class="st9" d="M155.5,56.1l-0.3,0.4l0.5,0.4l0.3-0.2c0.5-0.1,0.9-0.5,1.1-0.9c0-0.3-0.1-0.5-0.3-0.7c-0.4-0.3-1-0.3-1.3,0.1
	C155.5,55.5,155.4,55.8,155.5,56.1z"/>
<path class="st9" d="M162.1,58.7l0.8,0.6l0.2-0.1c0.4-0.1,0.8-0.4,1-0.8c0-0.3-0.1-0.5-0.4-0.7c-0.4-0.3-1-0.3-1.4,0.1
	C162.3,58,162.2,58.3,162.1,58.7L162.1,58.7z"/>
<path class="st9" d="M160.7,60.5c-0.3,0.3-0.3,0.7,0,1l-0.2,0.2L161,62l0.2-0.1c0.5-0.1,0.9-0.4,1.1-0.9c0-0.3-0.1-0.5-0.3-0.7
	C161.6,60,161,60,160.7,60.5C160.7,60.4,160.7,60.4,160.7,60.5z"/>
<path class="st9" d="M169,74.4l0.3,0.2l0.2-0.1c0.4-0.1,0.8-0.4,1-0.8c0-0.3-0.1-0.5-0.3-0.6s-0.4-0.1-0.6,0
	c-0.2,0.1-0.3,0.2-0.4,0.3C168.9,73.7,168.8,74.1,169,74.4z"/>
<path class="st9" d="M168.7,76c-0.3,0.3-0.3,0.7,0,1l0.1-0.1l0.4,0.3h0.1c0.4-0.1,0.8-0.3,1-0.8c0-0.3-0.1-0.5-0.3-0.7
	C169.6,75.5,169.1,75.6,168.7,76L168.7,76z"/>
<path class="st9" d="M168.5,78.9l0.3,0.2L169,79c0.4-0.1,0.8-0.4,1-0.8c0-0.3-0.1-0.5-0.3-0.6s-0.4-0.1-0.6,0
	c-0.2,0.1-0.3,0.2-0.4,0.3C168.3,78.2,168.3,78.6,168.5,78.9z"/>
<path class="st9" d="M167.8,80.4c-0.2,0.1-0.3,0.2-0.4,0.3c-0.3,0.3-0.3,0.7-0.1,1l0.3,0.2l0.2-0.1c0.4-0.2,0.7-0.6,0.8-1
	c0-0.3-0.3-0.5-0.6-0.5C167.9,80.4,167.8,80.4,167.8,80.4z"/>
<path class="st9" d="M166.3,83.8c0.4-0.1,0.8-0.4,1-0.8c0-0.3-0.1-0.5-0.3-0.6s-0.4-0.1-0.6,0c-0.2,0.1-0.3,0.2-0.4,0.3
	c-0.3,0.3-0.3,0.7-0.1,1l0.3,0.2L166.3,83.8z"/>
<path class="st9" d="M163.9,85.8l0.3,0.3l0.2-0.1c0.4-0.2,0.7-0.6,0.8-1c0-0.3-0.3-0.6-0.6-0.5c-0.1,0-0.2,0-0.3,0.1
	c-0.2,0.1-0.3,0.2-0.4,0.3C163.7,85.1,163.7,85.5,163.9,85.8z"/>
<path class="st9" d="M161.7,88.3l0.3,0.2l0.3-0.2c0.4-0.2,0.7-0.6,0.8-1c0-0.2-0.1-0.3-0.2-0.4c-0.4-0.3-0.9-0.2-1.2,0.1
	c0,0,0,0,0,0.1C161.5,87.4,161.1,87.5,161.7,88.3L161.7,88.3z"/>
<path class="st9" d="M152.9,87.3c-0.4-0.3-1-0.3-1.3,0.1l0,0c-0.1,0.3-0.1,0.6-0.1,0.9l-0.1,0.2l0.6,0.4l0.2-0.1
	c0.4-0.1,0.8-0.4,1-0.8C153.3,87.8,153.2,87.5,152.9,87.3z"/>
<path class="st9" d="M145.3,81.1c-0.3-0.3-0.8-0.2-1.1,0.1c0,0,0,0.1-0.1,0.1c-0.2,0.3-0.6,0.4,0.1,1.1l0.1-0.2l0.3,0.2h0.1
	c0.4-0.2,0.6-0.5,0.7-0.8C145.5,81.4,145.4,81.2,145.3,81.1z"/>
<path class="st9" d="M144.2,74c-0.3-0.3-0.8-0.2-1.1,0.1c0,0,0,0.1-0.1,0.1c-0.2,0.3-0.6,0.4,0.1,1.1l0,0l0.1,0.1h0.2
	c0.4-0.1,0.8-0.3,1-0.7C144.6,74.4,144.4,74.1,144.2,74z"/>
<path class="st9" d="M147.9,81.2c-0.2-0.1-0.4-0.1-0.6,0c-0.2,0.1-0.3,0.2-0.4,0.3c-0.3,0.3-0.3,0.7-0.1,1l0.3,0.2l0.2-0.1
	c0.4-0.1,0.8-0.4,1-0.8C148.3,81.6,148.2,81.3,147.9,81.2z"/>
<path class="st9" d="M148.2,83.1c-0.2,0.3-0.7,0.4,0,1l0.1-0.2l0.4,0.3h0.1c0.4-0.2,0.7-0.5,0.8-0.9c0-0.2-0.1-0.3-0.2-0.4
	C149,82.6,148.5,82.7,148.2,83.1z"/>
<path class="st9" d="M146.8,79c-0.3-0.3-0.8-0.2-1.1,0.1c0,0,0,0.1-0.1,0.1c-0.2,0.3-0.6,0.4,0.1,1.1l0,0l0.3,0.3l0.2-0.1
	c0.4-0.2,0.7-0.6,0.8-1C147,79.2,146.9,79.1,146.8,79z"/>
<path class="st9" d="M148.6,81c-0.3,0.2-0.3,0.7-0.1,1l0,0l0.1-0.1l0.6,0.4h0.1c0.4,0,0.8-0.3,0.9-0.7c0-0.3-0.1-0.5-0.3-0.7
	C149.6,80.6,149,80.6,148.6,81C148.7,81,148.7,81,148.6,81z"/>
<path class="st9" d="M151.9,82.5c-0.4-0.3-1-0.3-1.3,0.1c-0.1,0.3-0.1,0.6-0.1,0.9l-0.1,0.2l0.7,0.5l0.2-0.1c0.5-0.1,0.8-0.5,1-0.9
	C152.3,82.9,152.1,82.6,151.9,82.5z"/>
<path class="st9" d="M155.1,84.3c-0.4-0.3-1-0.3-1.3,0.1l0,0c-0.1,0.3-0.1,0.6-0.1,0.9l-0.1,0.1l0.6,0.4l0.2-0.1
	c0.4-0.1,0.8-0.4,1-0.8C155.5,84.7,155.4,84.4,155.1,84.3z"/>
<path class="st9" d="M155,87l0.5,0.4h0.1c0.4,0,0.8-0.3,1-0.7c0-0.3-0.1-0.5-0.3-0.6c-0.4-0.3-1-0.3-1.3,0.1c-0.3,0.3-0.3,0.7,0,1
	V87z"/>
<path class="st9" d="M161.3,84.4c0-0.3-0.1-0.5-0.3-0.6s-0.4-0.1-0.6,0c-0.2,0.1-0.3,0.2-0.4,0.3c-0.3,0.3-0.3,0.7-0.1,1l0.3,0.2
	l0.2-0.1C160.8,85.2,161.2,84.9,161.3,84.4z"/>
<path class="st9" d="M163.2,83.9c-0.2-0.1-0.4-0.1-0.6,0c-0.2,0.1-0.3,0.2-0.4,0.3c-0.3,0.3-0.3,0.7-0.1,1l0.3,0.2l0.2-0.1
	c0.4-0.1,0.8-0.4,1-0.8C163.6,84.3,163.4,84.1,163.2,83.9z"/>
<path class="st9" d="M158.3,86.7l0.3,0.3l0.2-0.1c0.4-0.2,0.7-0.6,0.8-1c0-0.3-0.3-0.6-0.6-0.5c-0.1,0-0.2,0-0.3,0.1
	c-0.2,0.1-0.3,0.2-0.4,0.3C158.1,85.9,158.1,86.4,158.3,86.7z"/>
<path class="st9" d="M164.9,82.7c0-0.3-0.1-0.5-0.3-0.6c-0.3-0.3-0.8-0.2-1.1,0.1c0,0,0,0.1-0.1,0.1c-0.2,0.3-0.6,0.4,0.1,1.1
	l0.1-0.1l0.2,0.2h0.1C164.4,83.3,164.7,83.1,164.9,82.7z"/>
<path class="st9" d="M166.5,81.1c0-0.3-0.1-0.5-0.3-0.7c-0.4-0.3-0.9-0.2-1.2,0.1l0,0c-0.1,0.3-0.1,0.7,0,1l-0.1,0.1l0.5,0.3
	l0.2-0.1C165.9,81.8,166.3,81.5,166.5,81.1z"/>
<path class="st9" d="M168.1,78.8c0-0.3-0.1-0.5-0.3-0.7c-0.4-0.3-0.9-0.2-1.2,0.1l0,0c-0.1,0.3-0.1,0.7,0,1l0.2-0.3l0.5,0.4v0.1
	C167.6,79.4,168,79.2,168.1,78.8z"/>
<path class="st9" d="M165.6,85.9l0.3,0.2l0.2-0.1c0.4-0.1,0.8-0.4,1-0.8c0-0.3-0.1-0.5-0.3-0.6s-0.4-0.1-0.6,0
	c-0.2,0.1-0.3,0.2-0.4,0.3C165.5,85.3,165.5,85.6,165.6,85.9z"/>
<path class="st9" d="M169.4,83.4c-0.4-0.3-1-0.3-1.3,0.1c-0.1,0.3-0.1,0.6-0.1,0.9l0,0l0.6,0.5l0.2-0.1c0.4-0.1,0.8-0.4,1-0.8
	C169.7,83.8,169.6,83.6,169.4,83.4z"/>
<path class="st9" d="M169.4,81.3c-0.2,0.3-0.2,0.7,0.1,1l0.1-0.2l0.3,0.2l0.1,0.1c0.4,0,0.8-0.3,0.9-0.7c0-0.3-0.1-0.5-0.3-0.6
	C170.2,80.9,169.7,81,169.4,81.3L169.4,81.3z"/>
<path class="st9" d="M170.5,78.8c-0.2,0.3-0.5,0.4,0.2,1.1V80l0.1,0.1L171,80c0.4-0.1,0.8-0.4,1-0.8c0.1-0.2-0.1-0.5-0.3-0.6
	C171.4,78.3,170.9,78.4,170.5,78.8C170.6,78.8,170.5,78.8,170.5,78.8z"/>
<path class="st9" d="M171.1,76.9c-0.1,0.3-0.1,0.6-0.1,0.9v0.1l0.6,0.4l0.2-0.1c0.4-0.1,0.8-0.4,1-0.8c0-0.3-0.1-0.5-0.3-0.7
	c-0.4-0.3-0.9-0.3-1.3,0C171.1,76.8,171.1,76.9,171.1,76.9z"/>
<path class="st9" d="M170.7,74.8l-0.1,0.1l0.5,0.4l0.3-0.2c0.4-0.2,0.7-0.6,0.8-1c0-0.2-0.1-0.3-0.2-0.4c-0.4-0.3-1-0.3-1.3,0.1
	C170.5,74.1,170.5,74.5,170.7,74.8z"/>
<path class="st9" d="M170.9,71.2l0.5,0.4h0.1c0.4-0.1,0.8-0.3,0.9-0.7c0-0.3-0.1-0.5-0.3-0.7c-0.4-0.3-0.9-0.3-1.2,0.1l0,0
	c-0.1,0.3-0.1,0.7,0,1V71.2z"/>
<path class="st9" d="M160.1,91.1l0.3,0.3l0.2-0.1c0.4-0.2,0.7-0.6,0.8-1c0-0.3-0.3-0.6-0.6-0.5c-0.1,0-0.2,0-0.3,0.1
	c-0.2,0.1-0.3,0.2-0.4,0.3C159.9,90.4,159.9,90.8,160.1,91.1z"/>
<path class="st9" d="M164.3,87.9c-0.4-0.3-1-0.3-1.3,0l0,0c-0.1,0.3-0.1,0.7,0,1l-0.1,0.1l0.6,0.4l0.2-0.1c0.4-0.1,0.8-0.4,1-0.9
	C164.7,88.3,164.6,88.1,164.3,87.9z"/>
<path class="st9" d="M166.6,86.8c-0.4-0.3-0.9-0.2-1.2,0.1l0,0c-0.2,0.3-0.2,0.7,0.1,1V88l0.3,0.2l0.2-0.1c0.4-0.1,0.8-0.4,1-0.8
	C167,87.1,166.8,86.9,166.6,86.8z"/>
<path class="st9" d="M153.9,89.7c-0.4-0.4-1-0.4-1.4,0c-0.1,0.3-0.2,0.6-0.2,0.9l-0.2,0.2l0.8,0.6l0.2-0.2c0.4-0.1,0.8-0.4,1-0.9
	C154.3,90.1,154.2,89.9,153.9,89.7z"/>
<path class="st9" d="M150.9,87.6c-0.4-0.3-0.9-0.3-1.2,0.1l0,0c-0.1,0.3-0.1,0.7-0.1,1l-0.1,0.2l0.5,0.4l0.2-0.1
	c0.4-0.1,0.8-0.4,1-0.8C151.3,88,151.2,87.7,150.9,87.6z"/>
<path class="st9" d="M149,86c-0.2-0.1-0.4-0.1-0.6,0c-0.2,0.1-0.3,0.2-0.4,0.3c-0.3,0.3-0.3,0.7-0.1,1l0.3,0.2l0.2-0.1
	c0.4-0.1,0.8-0.4,1-0.8C149.4,86.4,149.3,86.1,149,86z"/>
<path class="st9" d="M146.5,86.7l0.3-0.2c0.4-0.2,0.7-0.6,0.8-1c0-0.2-0.1-0.4-0.2-0.5c-0.4-0.4-1-0.4-1.3,0
	c-0.1,0.3-0.2,0.6-0.2,0.8l-0.1,0.2L146.5,86.7z"/>
<path class="st9" d="M146,78.1l0.3-0.2c0.4-0.2,0.7-0.6,0.8-1c0-0.2-0.1-0.3-0.2-0.4c-0.3-0.3-0.8-0.2-1.1,0.1l-0.1,0.1
	c-0.2,0.3-0.6,0.4,0.1,1.1l-0.1,0.1L146,78.1z"/>
<path class="st9" d="M142.9,76.4c-0.2-0.1-0.4-0.1-0.6,0c-0.2,0.1-0.3,0.2-0.4,0.3c-0.3,0.3-0.3,0.7-0.1,1l0.3,0.2l0.2-0.1
	c0.4-0.1,0.8-0.4,1-0.8C143.3,76.9,143.2,76.6,142.9,76.4z"/>
<path class="st9" d="M141.3,89.7c-0.4-0.3-1-0.3-1.3,0.1l0,0c-0.1,0.3-0.1,0.6-0.1,0.9v0.1l0.6,0.4l0.2-0.1c0.4-0.1,0.8-0.4,1-0.8
	C141.7,90,141.5,89.8,141.3,89.7z"/>
<path class="st9" d="M156.4,104.7c-0.3-0.3-0.8-0.2-1.1,0.1c0,0,0,0.1-0.1,0.1c-0.2,0.3-0.6,0.4,0.1,1.1l0.2-0.3l0.2,0.2l0.1,0.1
	c0.4-0.1,0.6-0.4,0.7-0.8C156.6,104.9,156.5,104.8,156.4,104.7z"/>
<path class="st9" d="M144.2,114c-0.4-0.3-1-0.3-1.3,0.1c-0.3,0.3-0.3,0.7,0,1l0.2-0.2l0.5,0.4h0.1c0.4-0.2,0.6-0.5,0.7-0.9
	C144.4,114.2,144.4,114.1,144.2,114z"/>
<path class="st9" d="M168.6,109.5c0-0.3-0.1-0.5-0.3-0.6s-0.4-0.1-0.6,0c-0.2,0.1-0.3,0.2-0.4,0.3c-0.3,0.3-0.3,0.7-0.1,1l0.3,0.2
	l0.2-0.1C168.1,110.3,168.4,110,168.6,109.5z"/>
<path class="st9" d="M169.2,88.7c-0.4-0.3-1-0.3-1.3,0.1c-0.1,0.3-0.1,0.6-0.1,0.9l0,0l0.7,0.5l0.2-0.1c0.4-0.1,0.8-0.4,1-0.9
	C169.6,89,169.5,88.8,169.2,88.7z"/>
<path class="st9" d="M134.8,80.5c-0.4-0.3-0.9-0.3-1.3,0.1l0,0c-0.1,0.3-0.1,0.7,0,1v-0.1l0.5,0.4l0.2-0.1c0.4-0.2,0.7-0.6,0.8-1
	C135.1,80.7,135,80.6,134.8,80.5z"/>
<path class="st10" d="M135.7,99.2c-0.6,0.6-1.5,0.9-2.3,0.8s-1.6-0.6-2-1.3c-0.4-0.5-0.7-1.1-0.8-1.7c-0.1-0.4-0.1-0.8-0.1-1.2
	l0.7-6.1c0.3-2.1,1.7-3.6,3.7-3.3c0.8,0,1.6,0.4,2.1,1.1c0.6,0.9,0.8,2.1,0.7,3.2l-0.7,6.1C137,97.6,136.5,98.5,135.7,99.2z"/>
<path class="st10" d="M151.7,115.1c-0.8-0.3-1.4-1-1.7-1.8c-0.2-0.8-0.1-1.6,0.4-2.3c0.3-0.6,0.7-1.1,1.2-1.4
	c0.3-0.2,0.7-0.4,1.1-0.6l5.8-1.9c2-0.6,3.9,0,4.6,2c0.4,0.8,0.3,1.7-0.1,2.4c-0.6,0.9-1.5,1.6-2.6,1.9l-5.8,1.9
	C153.7,115.6,152.6,115.5,151.7,115.1z"/>
<path class="st10" d="M173.8,99.3c-0.8,0.4-1.7,0.4-2.4,0s-1.2-1.1-1.4-1.9c-0.2-0.6-0.3-1.2-0.2-1.9c0.1-0.4,0.2-0.8,0.4-1.2
	l2.7-5.5c0.9-1.9,2.7-2.8,4.6-1.9c0.8,0.3,1.5,0.9,1.7,1.7c0.3,1.1,0.1,2.2-0.4,3.2l-2.7,5.5C175.5,98.3,174.7,99,173.8,99.3z"/>
<g>
	<polygon class="st7" points="513.7,101.8 508.4,101.9 505.6,102 508.3,100.1 508.3,100.1 513.7,100 	"/>
	<path class="st14" d="M512.4,105.9l-4.2,0.1l-2.9-1.8l0,0l2.8-0.1l5.2-0.2l0,0.5C513.4,105.3,513.2,105.9,512.4,105.9z"/>
	<path class="st11" d="M510.4,110.6l-3.2,0.1l-2.9-1.8l0,0l2.8-0.1l4.6-0.1l0,0.5C511.8,110,511.2,110.6,510.4,110.6z"/>
	<polygon class="st11" points="514.5,158.9 508.5,159 505.7,159.1 508.4,157.2 508.4,157.2 514.5,157.1 	"/>
	<polygon class="st7" points="498.7,159.3 503,159.1 505.8,157.3 505.8,157.3 503,157.3 498.6,157.4 	"/>
	<polygon class="st11" points="496.8,102.2 502.9,102 505.7,100.1 505.7,100.1 502.9,100.2 496.8,100.4 	"/>
	<polygon class="st2" points="496.9,106.3 502.7,106.2 505.6,106.1 502.7,104.3 502.7,104.3 496.9,104.5 	"/>
	<polygon class="st7" points="498.1,110.9 501.8,110.8 504.6,110.7 501.8,109 501.8,109 498,109.1 	"/>
	<path class="st11" d="M500.1,145.9c-0.1-1,0.7-1.8,1.7-1.9l1.9-0.1l2.8-0.1l-2.8,1.9l0,0L500.1,145.9L500.1,145.9z"/>
	<path class="st7" d="M511.3,143.8l-2.1,0.1l-2.8,1.9l0,0l2.8-0.1l3.9-0.1l-0.6-0.5C512.5,144.4,512.1,143.8,511.3,143.8z"/>
	<polygon class="st7" points="514.6,152.5 510.3,152.6 507.4,152.6 510.3,154.4 510.3,154.4 514.6,154.3 	"/>
	<polygon class="st11" points="498.7,152.8 504.8,152.7 507.7,154.4 507.7,154.4 504.9,154.5 498.8,154.7 	"/>
	<polygon class="st2" points="498.6,148.2 504.4,148.1 507.3,148 504.5,149.9 504.5,149.9 498.7,150 	"/>
	<path class="st14" d="M512.6,147.9l-2.7,0.1l-2.8,1.9l0,0l2.8-0.1l4.1-0.1l0.5-0.5C514.5,148.5,513.3,147.9,512.6,147.9z"/>
	<polygon class="st2" points="511,119.9 508.1,120 506.1,120.1 508.9,118.2 508.9,118.2 510.3,118.1 	"/>
	<polygon class="st14" points="499.1,120.2 503.5,120.1 506.3,118.2 506.3,118.2 503.5,118.3 500.4,118.4 	"/>
	<polygon class="st14" points="497.4,124.4 501.4,124.3 504.3,124.2 501.4,122.4 501.4,122.4 497.6,122.5 	"/>
	<path class="st2" d="M511.6,124l-4.7,0.1l-2.9-1.8l0,0l2.8-0.1l6.1-0.2l0,0.5C512.9,123.4,512.3,124,511.6,124z"/>
	<polygon class="st11" points="497.3,126.8 503.8,126.7 506.6,126.6 503.8,128.5 503.8,128.5 497.5,128.6 	"/>
	<path class="st7" d="M512.4,126.5l-3.1,0.1l-2.8,1.9l0,0l2.8-0.1l3.8-0.1l-0.6-0.5C512.5,127,513.1,126.5,512.4,126.5z"/>
	<polygon class="st7" points="499.5,135 503,134.9 505.8,134.8 503.1,136.7 503.1,136.7 500.8,136.8 	"/>
	<path class="st11" d="M511.7,134.7l-3.3,0.1l-2.8,1.9l0,0l2.8-0.1l2.5-0.1l0.7-1.3C511.7,134.5,512.5,134.7,511.7,134.7z"/>
	<polygon class="st2" points="497.8,130.9 501.2,130.8 504.1,130.8 501.3,132.7 501.3,132.7 499,132.7 	"/>
	<path class="st14" d="M511.4,130.6l-4.7,0.1l-2.8,1.9l0,0l2.8-0.1l6.1-0.2l0-0.5C512.8,131.2,512.2,130.6,511.4,130.6z"/>
	<path class="st15" d="M515.1,151.7c-0.1-0.7-0.1-1.3-0.2-2c-0.3-3.9-2.5-8.4-6.7-9.9c-0.4-0.2-0.9-0.3-1.3-0.4
		c-0.6-0.2-1.2-0.3-1.7-0.6c-0.7-0.4-1.3-1-1.9-1.7c-1.3-1.4-2.6-2.7-3.4-4.4c-0.7-1.4-1.1-3-1.2-5.1c-0.2-2.3,0.1-6.6,2.6-9.2
		c-0.5-0.4-1-0.9-1.5-1.4c-3,3.1-3.3,8.1-3.1,10.8c0.2,2.4,0.6,4.3,1.4,5.9c0.9,1.9,2.4,3.4,3.7,4.9c0.7,0.7,1.4,1.5,2.5,2.1
		c0.7,0.4,1.5,0.6,2.2,0.8c0.4,0.1,0.8,0.2,1.1,0.3c3.4,1.2,5.1,5,5.4,8.2c0.1,0.7,0.1,1.4,0.2,2.1c0.3,3,0.5,5.6,0.1,9l2,0.2
		C515.6,157.5,515.3,154.7,515.1,151.7z"/>
	<g>
		<path class="st0" d="M499.1,160.9l-2.1-0.1l0.3-6.1c0.1-2.6,0.3-5.2,1-7.8c0.9-3,2.7-5.3,4.9-6.5c0.7-0.4,1.4-0.6,2-0.9
			c0.7-0.3,1.3-0.5,1.9-0.8c3.2-1.9,4-6.3,4.2-8.8c0.2-2.6,0-5.2-0.4-7.7c-0.3-1.4-0.7-3.3-1.9-4.5c-1.2-1.3-3.2-1.9-5.1-2.5
			l-0.5-0.2c-2.3-0.7-4.9-1.8-6.2-4.1c-1-1.7-1.2-3.7-1.3-5.5c0-0.4-0.1-0.9-0.1-1.3c-0.1-1.6-0.2-3.2,0-4.7l2.1,0
			c-0.1,1.3-0.1,3.1,0,4.6c0,0.5,0.1,0.9,0.1,1.4c0.1,1.5,0.3,3.2,1,4.6c0.9,1.7,3.1,2.5,5,3.1l0.5,0.2c2.1,0.6,4.4,1.4,6,3.1
			c1.5,1.6,2.1,3.8,2.4,5.5c0.5,2.7,0.7,5.5,0.5,8.2c-0.4,5-2.2,8.7-5.2,10.5c-0.7,0.4-1.4,0.7-2.1,1c-0.6,0.2-1.2,0.5-1.8,0.8
			c-1.8,1-3.2,2.9-3.9,5.3c-0.7,2.3-0.8,4.8-1,7.2L499.1,160.9z"/>
	</g>
	<path class="st15" d="M501.1,118.5c0.1-0.1,0.2-0.2,0.4-0.4c0,0,0,0,0,0c0.1-0.1,0.1-0.1,0.2-0.2c0.7-0.6,1.6-1.1,2.6-1.6
		c0.3-0.2,0.7-0.3,1-0.5c3-1.7,5.4-3.9,6.9-6.4c1.5-2.4,2.1-6.5,1.7-10.3l-2.3,0.1c0.4,3.3,0,7.1-1.2,9.2c-1.3,2.2-3.4,4.2-6.1,5.7
		c-0.3,0.2-0.6,0.3-0.9,0.5c-0.9,0.5-1.9,1-2.8,1.7c0,0,0,0,0,0c-0.1,0-0.1,0.1-0.2,0.1c-0.3,0.2-0.5,0.4-0.7,0.7
		C500.1,117.6,500.6,118.1,501.1,118.5z"/>
</g>
<g>
	<path class="st0" d="M366.6,122.8h23.9v6.5h-17.4v9.5h15.4v6.5h-15.4v9.5h17.4v6.5h-23.9V122.8z"/>
	<path class="st0" d="M395.6,151.8v-15.7h6.5v15.6c0,2.9,1.9,4.3,4.4,4.3c2.5,0,4.4-1.4,4.4-4.3v-15.6h6.5v15.7c0,6-4,9.9-10.9,9.9
		C399.6,161.7,395.6,157.8,395.6,151.8z"/>
	<path class="st0" d="M437.3,147l10.1,14.1h-8.3l-9.2-13.6v13.6h-6.5v-38.3h6.5v23.8l9.2-10.6h8.3L437.3,147z"/>
	<path class="st0" d="M447.9,148.2c0-7.3,5.6-13.1,12.4-13.1c3.6,0,6.3,1.3,8.2,3.4v-2.8h6.5v25.1h-6l-0.2-3.2
		c-1.9,2.3-4.7,3.7-8.5,3.7C453.5,161.3,447.9,155.5,447.9,148.2z M468.7,148.2c0-4-3.1-7.2-7.1-7.2c-4,0-7.2,3.2-7.2,7.2
		s3.1,7.2,7.2,7.2C465.5,155.4,468.7,152.2,468.7,148.2z"/>
	<path class="st0" d="M488.2,149.9V161h-6.4v-25.1h6.4v3.5c1.5-2.5,3.6-4,6.8-4c0.3,0,0.6,0,0.9,0v6.3
		C492,141,488.2,142.6,488.2,149.9z"/>
	<path class="st0" d="M516.7,148.2c0-7.3,5.6-13.1,12.4-13.1c3.6,0,6.3,1.3,8.2,3.4v-2.8h6.5v25.1h-6l-0.2-3.2
		c-1.9,2.3-4.7,3.7-8.5,3.7C522.3,161.3,516.7,155.5,516.7,148.2z M537.5,148.2c0-4-3.1-7.2-7.1-7.2c-4,0-7.2,3.2-7.2,7.2
		s3.1,7.2,7.2,7.2C534.3,155.4,537.5,152.2,537.5,148.2z"/>
</g>
</svg>
