<?xml version="1.0" encoding="utf-8"?>
<!-- Generator: Adobe Illustrator 22.1.0, SVG Export Plug-In . SVG Version: 6.00 Build 0)  -->
<svg version="1.1" id="Layer_1" xmlns="http://www.w3.org/2000/svg" xmlns:xlink="http://www.w3.org/1999/xlink" x="0px" y="0px"
	 viewBox="0 0 235.4 188.7" style="enable-background:new 0 0 235.4 188.7;" xml:space="preserve">
<style type="text/css">
	.st0{fill:#A1E2E0;}
	.st1{fill:#22A6B3;}
	.st2{fill:#6FD1A0;}
	.st3{fill:#8FD8D5;}
	.st4{fill:#7ED6DF;}
	.st5{fill:#2D98DA;}
	.st6{fill:#0F5659;}
	.st7{fill:#D91EF4;}
	.st8{fill:#897BEF;}
	.st9{fill:#785EEA;}
	.st10{fill:#744DEF;}
	.st11{fill:#703BF2;}
	.st12{fill:#6B25F2;}
	.st13{fill:#D279F7;}
	.st14{fill:#57BC87;}
	.st15{fill:#1C83B7;}
	.st16{fill:#187C7C;}
</style>
<title>logo</title>
<g>
	<g>
		<g>
			
				<rect x="112.4" y="89" transform="matrix(0.8645 -0.5026 0.5026 0.8645 -28.222 75.9173)" class="st0" width="28.6" height="2.6"/>
			
				<rect x="111.5" y="79.1" transform="matrix(0.8644 -0.5029 0.5029 0.8644 -23.972 72.2593)" class="st1" width="20.9" height="2.9"/>
			
				<rect x="70.6" y="14.5" transform="matrix(0.8645 -0.5026 0.5026 0.8645 3.8313 46.1423)" class="st2" width="33.8" height="2.9"/>
			<rect x="76.6" y="20.5" transform="matrix(0.8644 -0.5029 0.5029 0.8644 1.5244 49.278)" class="st1" width="31" height="2.6"/>
			
				<rect x="92.7" y="33.7" transform="matrix(0.8644 -0.5029 0.5029 0.8644 -3.9367 55.7387)" class="st3" width="17.3" height="2.9"/>
			
				<rect x="107.3" y="59.1" transform="matrix(0.8644 -0.5029 0.5029 0.8644 -14.6208 66.9324)" class="st4" width="18.9" height="2.9"/>
			
				<rect x="93.6" y="42.1" transform="matrix(0.8644 -0.5029 0.5029 0.8644 -7.497 59.0524)" class="st2" width="24.2" height="2.6"/>
			
				<rect x="98.9" y="52.5" transform="matrix(0.8645 -0.5026 0.5026 0.8645 -11.9557 63.2809)" class="st1" width="25" height="2.6"/>
			<path class="st5" d="M92,41c1.3-0.4,2.7-0.8,4-1.1c-0.2,2.6-0.1,5.2,0.5,7.8c1.5,6.3,5.2,11.8,10.6,15.4
				c3.9,2.7,8.8,4.3,13.4,5.9c7,2.4,14.3,4.8,19.2,10.8c2.6,3.1,4.6,6.8,5.8,10.7l-3.9,2.2c-1.2-3.5-2.4-7.2-5-10.4
				c-4.1-5.1-10.6-7.3-17.4-9.6c-4.9-1.7-10-3.4-14.4-6.3c-6.2-4.2-10.5-10.5-12.2-17.8C92.1,46.1,91.9,43.5,92,41z"/>
			<path class="st6" d="M112.3,74.8c1.5-2.6,3.3-5,5.3-7.3c2.9-3.5,5.7-6.8,6.2-10.8c0.5-3.7-0.9-7.9-4.2-12.7
				c-6.1-8.8-14.5-13.9-22.3-13.8c-2.2,0.1-4.4,0.4-6.6,0.9c-2.4,0.5-4.8,0.9-7.3,1c-5.7,0.1-11.7-8.6-14-12.9l3.4-1.9
				c1.7,3.2,7.1,10.5,11,10.5c2,0,4-0.2,6-0.5c2.4-0.5,4.8-0.9,7.2-1c9.2-0.2,18.8,5.6,25.6,15.5c4,5.7,5.6,10.8,4.9,15.5
				c-0.7,5.1-4,9-7.1,12.8c-1.8,2-3.4,4.3-4.8,6.6c-4.6,8.4-0.2,21.4,8,26.5l-3.8,2.2C110.1,99.4,106.8,84.9,112.3,74.8z"/>
			<path class="st5" d="M96,27.3c0.8-1.3,1.6-2.5,2.4-3.7c2-2.9,4-5.7,4.2-8.9c0.3-2.9-2.9-9-5.1-12.7l3.4-2c2,3.4,6,10.7,5.6,15
				c-0.4,4.2-2.7,7.5-4.9,10.8c-0.8,1.2-1.6,2.3-2.3,3.5c-1.9,3.3-3.1,7-3.4,10.9c-1.3,0.4-2.7,0.6-4,1C92.2,36.2,93.6,31.5,96,27.3
				z"/>
		</g>
		<g>
			<path class="st3" d="M124.5,101l-19.8-34.3V44.4h1.2c0.6,0,0.8,0.4,0.8-0.2v-0.4c0-0.6-0.2-2.3-0.8-2.3H88.4
				c-0.6,0-0.7,1.7-0.7,2.3v0.4c0,0.6,0,0.2,0.7,0.2h1.4v22.4l-20,34.2c-5.4,9.4,1.2,21.3,12.1,21.3h30.4
				c7.8-0.1,14.2-6.5,14.1-14.3C126.4,105.5,125.7,103.1,124.5,101z"/>
			<path class="st7" d="M111.3,84.6c-0.2-0.4-0.6-0.6-1-0.7c-1.1-0.1-2.2-0.4-3.3-0.4c-3.6-0.1-2.5,0.7-6.1,0.3s-5.6-1.2-10.3-1
				c-1.9,0.1-3.9,0.4-5.8,0.4c-0.5,0-1,0.3-1.2,0.7l-6.9,12l-3.3,5.7c-3.2,5.5-1.3,12.5,4.2,15.7c1.8,1,3.8,1.6,5.8,1.5h27.7
				c6.4,0,11.5-5.1,11.5-11.5c0-2-0.5-4-1.5-5.8L111.3,84.6z"/>
		</g>
		<circle class="st3" cx="91.3" cy="106.5" r="1.4"/>
		<circle class="st3" cx="100.6" cy="100.8" r="0.7"/>
		<circle class="st3" cx="92.4" cy="97.8" r="1.1"/>
		<circle class="st3" cx="105.4" cy="108.2" r="0.5"/>
		<g>
			<path class="st6" d="M96.7,79.6c0.4,3.2,1.2,6.5,2.5,9.5l3.3,8.8c2.3,6.4,4.7,12.9,8.9,18.2c3.9,5.1,12.2,10,18.5,11.7
				c6.3,1.7,13.1-2.7,18.4-6.3c5.3-3.7,8.7-9.5,11.6-15.3c1.3-2.6,2.5-5.5,1.7-8.2c-0.6-2.4-2.7-4.3-3.5-6.8
				c-1.1-4.1,2-8.3,1.5-12.6c-0.6-5.1-5.8-8-9.7-11.1c-4.6-3.8-8.1-8.8-12-13.3s-7.1-5.5-13-6.6c-8.7-1.6-14.7,0.8-17.9,7.8
				S96.2,71.8,96.7,79.6z"/>
			<path class="st2" d="M100.5,80.4c0.3,2.9,1,5.8,2.2,8.3l2.9,7.7c2.1,5.6,4.2,11.3,7.8,16c3.5,4.6,10.8,8.8,16.3,10.3
				c5.5,1.4,11.6-2.4,16.3-5.6s7.7-8.4,10.2-13.5c1.1-2.3,2.2-4.8,1.5-7.3c-0.6-2.2-2.4-3.8-3-6c-1-3.6,1.7-7.4,1.3-11.1
				c-0.5-4.4-5.1-7-8.5-9.8c-4.1-3.3-7.2-7.7-10.7-11.7s-6.1-4.5-11.2-5.4c-7.7-1.4-13.2,0.3-16,6.5S100.1,73.5,100.5,80.4z"/>
			<path class="st7" d="M129.4,65.3c-1.9-1.5-5.5-3.4-7.8-1.9c-2.1,1.2-4.1,2.7-5.7,4.5c-1.7,1.8-2.5,4.3-2.1,6.7
				c0.4,1.6,1.2,3.1,2.4,4.3c1.9,2.4,4.5,4.1,7.4,4.9c3,0.7,6.3-0.2,8.1-2.8c0.8-1.5,1.4-3.2,1.5-4.9c0.3-2.5,0.5-5.1-0.6-7.3
				C131.8,67.5,130.7,66.3,129.4,65.3z"/>
			<path class="st0" d="M113.3,69.7c-0.3,0.5-0.6,1-0.7,1.6c-0.5,2.1,0.7,4.3-0.1,6.4c0,0.1-0.1,0.2-0.2,0.2
				c-0.3,0.2-0.5-0.2-0.6-0.4c-0.4-1.4-0.7-2.8-0.8-4.3c0.1-0.3,0-0.7-0.3-0.9c-0.3-0.1-0.6,0-0.8,0.2c-0.2,0.2-0.3,0.5-0.2,0.8
				c-0.4,2.5-0.3,5.4,1.2,7.5c0.1,0.1,0.1,0.1,0.1,0.2l-0.1,0.1c-0.4,0.3-1,0.2-1.4,0c-0.4-0.3-0.7-0.6-0.9-1.1
				c-0.4-0.7-0.7-1.3-0.8-2.1c-0.2-1.1-0.2-2.1,0-3.1l0.5-4.1c0-1.5,0.4-3,1.2-4.4c0.2-0.5,0.8-0.8,1.3-0.8c0.4,0.2,0.7,0.8,0.6,1.3
				c0,0.7-0.2,1.5-0.6,2.2c-0.2,0.4-0.4,0.8-0.6,1.3c-0.1,0.5,0.2,0.9,0.7,1.1l0.1-0.1c0.2,0,0.2-0.3,0.2-0.5c0-0.4,0.2-0.9,0.5-1.3
				c0.2-0.4,0.6-0.7,0.9-1.1c0.4-0.6,0.6-1.2,0.8-1.8c0.6-1.5,1.8-2.7,3.4-3c0.1-0.1,0.1,0,0.2,0c0.1,0.1,0.1,0.2,0.2,0.3
				c0.2,0.5,0,0.9-0.4,1.3c-0.2,0.1-0.3,0.2-0.5,0.3c-0.2,0.2-0.4,0.5-0.6,0.7C114.6,67.4,113.9,68.6,113.3,69.7z"/>
			<rect x="131" y="97.9" transform="matrix(0.69 -0.7238 0.7238 0.69 -28.7428 129.2428)" class="st8" width="11.1" height="0.5"/>
			
				<rect x="130.7" y="97.7" transform="matrix(0.69 -0.7238 0.7238 0.69 -28.6663 129.0052)" class="st9" width="11.1" height="0.5"/>
			
				<rect x="131.2" y="98.1" transform="matrix(0.69 -0.7238 0.7238 0.69 -28.8198 129.4789)" class="st9" width="11.1" height="0.5"/>
			
				<rect x="130.5" y="97.4" transform="matrix(0.69 -0.7238 0.7238 0.69 -28.4782 128.7532)" class="st10" width="11.1" height="0.5"/>
			
				<rect x="131.4" y="98.3" transform="matrix(0.69 -0.7238 0.7238 0.69 -28.8972 129.7147)" class="st10" width="11.1" height="0.5"/>
			
				<rect x="131.5" y="98.1" transform="matrix(0.6883 -0.7254 0.7254 0.6883 -28.6415 130.1094)" class="st11" width="11.1" height="0.5"/>
			
				<rect x="130.6" y="97.9" transform="matrix(0.69 -0.7238 0.7238 0.69 -28.8396 128.9744)" class="st11" width="11.1" height="0.5"/>
			
				<rect x="130.6" y="98.3" transform="matrix(0.69 -0.7238 0.7238 0.69 -29.1053 129.0703)" class="st12" width="11.1" height="0.5"/>
			
				<rect x="120.8" y="99.7" transform="matrix(0.1058 -0.9944 0.9944 0.1058 14.0588 215.5006)" class="st8" width="12.2" height="0.5"/>
			
				<rect x="121.2" y="99.8" transform="matrix(0.1058 -0.9944 0.9944 0.1058 14.3041 216.0239)" class="st9" width="12.2" height="0.5"/>
			
				<rect x="120.2" y="99.8" transform="matrix(0.1058 -0.9944 0.9944 0.1058 13.4669 215.1115)" class="st9" width="12.2" height="0.5"/>
			
				<rect x="121.4" y="99.9" transform="matrix(0.1058 -0.9944 0.9944 0.1058 14.4443 216.4057)" class="st10" width="12.2" height="0.5"/>
			
				<rect x="120" y="99.8" transform="matrix(0.1058 -0.9944 0.9944 0.1058 13.221 214.8492)" class="st10" width="12.2" height="0.5"/>
			
				<rect x="120.4" y="99.6" transform="matrix(0.1058 -0.9944 0.9944 0.1058 13.8709 215.0473)" class="st11" width="12.2" height="0.5"/>
			
				<rect x="121.1" y="99.6" transform="matrix(0.1058 -0.9944 0.9944 0.1058 14.5132 215.808)" class="st11" width="12.2" height="0.5"/>
			
				<rect x="120.8" y="99.2" transform="matrix(0.1058 -0.9944 0.9944 0.1058 14.6011 215.0872)" class="st12" width="12.2" height="0.5"/>
			
				<rect x="127.9" y="110.3" transform="matrix(0.7797 -0.6261 0.6261 0.7797 -44.007 105.6842)" class="st7" width="0.6" height="10.1"/>
			
				<rect x="126.8" y="111.2" transform="matrix(0.7205 -0.6934 0.6934 0.7205 -45.1019 120.6203)" class="st7" width="0.6" height="10.1"/>
			<path class="st5" d="M118.1,107.6c-0.2,0.8-0.8,1.5-1.6,1.8s-1.7,0.3-2.4-0.1c-0.6-0.2-1.2-0.6-1.5-1.1c-0.3-0.3-0.5-0.6-0.7-1
				l-2.5-5.6c-0.8-2-0.3-4,1.5-4.7c0.7-0.4,1.6-0.5,2.4-0.1c1,0.5,1.7,1.4,2.2,2.4l2.5,5.6C118.4,105.5,118.4,106.6,118.1,107.6z"/>
			<path class="st5" d="M139.9,113.3c-0.8,0.1-1.7-0.2-2.4-0.7c-0.6-0.6-0.9-1.3-0.8-2.2c0-0.7,0.1-1.3,0.3-1.8
				c0.2-0.3,0.4-0.7,0.6-1.1l4.1-4.6c1.4-1.5,3.4-2,5-0.6c0.7,0.5,1.1,1.3,1.1,2.1c-0.1,1.1-0.5,2.1-1.3,3l-4.1,4.6
				C141.9,112.7,140.9,113.1,139.9,113.3z"/>
			<path class="st5" d="M151.1,88.5c-0.5,0.7-1.3,1.2-2.1,1.2c-0.8,0-1.6-0.3-2.2-0.9c-0.5-0.4-0.9-0.9-1.1-1.5
				c-0.1-0.4-0.2-0.8-0.3-1.2l-0.4-6.1c-0.2-2.1,0.9-3.8,3-4c0.8-0.1,1.7,0,2.3,0.6c0.8,0.8,1.2,1.9,1.3,3l0.4,6.1
				C152,86.8,151.7,87.8,151.1,88.5z"/>
			<path class="st0" d="M114.5,60.9c-0.3,0.2-0.5,0.5-0.7,0.8c-0.2,0.3-0.1,0.8,0.2,1.1c0.2,0.2,0.6,0.2,0.9,0.1
				c1.5-0.3,2.5-1.6,3.8-2.4c1.1-0.5,2.2-0.8,3.4-0.9c0.2,0,0.5-0.1,0.7,0c0.3,0.1,0.4,0.3,0.4,0.6c-0.1,0.3-0.3,0.5-0.6,0.6
				c-0.6,0.2-1.3,0.4-1.8,0.7c-0.6,0.2-1.1,0.7-1.5,1.2c-0.1,0.1,0,0.1,0,0.2c0,0,0.1,0.1,0.1,0.2c0.5,0.5,1.2,0.7,1.8,0.3
				c0.3-0.2,0.6-0.4,0.8-0.6c0.8-0.5,1.5-0.8,2.4-0.8c0.5-0.2,0.9-0.2,1.4-0.2c1.3,0.2,2.5,0.7,3.5,1.5c1,0.6,1.9,1.3,2.7,2.1
				c0.1,0.2,0.3,0.3,0.5,0.4c0.4,0,0.7-0.2,0.7-0.5c0.1-0.9-0.3-1.5-1-2c-2-1.6-4.5-2.5-6.9-2.6c-0.1,0-0.3-0.1-0.3-0.2
				c-0.1-0.1-0.1-0.2-0.2-0.3l-0.3-1l4.4,1.4c0.5,0.1,1,0.3,1.5,0.5c0.7,0.4,1.3,1,1.8,1.6c0.1,0.2,0.2,0.2,0.4,0.1
				c0.1-0.1,0.2-0.1,0.2-0.2l0,0c0.4-0.9-0.1-1.9-0.9-2.3l0,0l-5.5-1.8c-1-0.3-1.9-0.4-2.9-0.5c-1.8-0.3-3.6,0.4-5.4,0.6
				C116.5,59,115.6,60.1,114.5,60.9z"/>
			<path class="st0" d="M123.1,87.3c-0.3-0.2-0.5-0.6-0.3-1c0.1-0.2,0.3-0.4,0.6-0.4c0.7,0,1.3,0,1.8,0c0.7,0,1.4,0.1,2.2,0.1
				c1.9,0.1,3.9-0.4,5.5-1.5c1.7-1.1,2.8-2.7,3.3-4.6c0.4-2.2,0.3-4.6-0.4-6.7c0-0.2,0.1-0.5,0.4-0.6c0.2-0.1,0.4,0,0.4,0.1
				c0.3,0.4,0.6,0.8,0.7,1.2c0.9,2.5,0.8,5.1-0.2,7.5c0.3,0.2,0.7,0.3,1.2,0.2c1.2-4.2,0.7-8.6-1.2-12.5c-0.1-0.4-0.4-0.8-0.7-1.1
				c-0.1-0.2-0.1-0.4,0-0.6c0.1-0.1,0.2-0.1,0.3-0.2c0.7,0,1.4,0.2,2,0.6c1,1.3,0.7,3,1.3,4.4c0.9,2.4,1,5,0.5,7.4
				c-0.6,2.4-1.5,4.7-3,6.7c-0.5,0.7-1,1.4-1.5,2.2c-0.4,0.6-1,1.1-1.6,0.7c-0.1-1,0.2-1.8,0.8-2.6l2.1-3.7c-0.4-0.3-1.1-0.4-1.5,0
				c-0.4,0.3-0.7,0.8-1,1.3c-1.1,1.8-3.1,3-5.3,3.1l0.3,1.8c0.8,0.1,1.7,0.2,2.5,0.1c0.7,0,1.3,0.6,0.8,1.2l-0.2,0.2
				c-0.5,0.4-1,0-1.6,0.2c-1.9,0.4-4,0.3-5.9-0.2c-0.9-0.3-1.7-0.6-2.6-0.9c-1.2-0.5-2.8-1.3-4.1-1.9c-0.6-0.3-1.4-0.8-1.2-1.4
				c0.6-0.4,1.4-0.4,2-0.1c0.6,0.3,1.2,0.7,1.8,1.1c2.1,1.2,4.5,2,6.9,2.1c0.1,0,0.4,0,0.5-0.2c0-0.1,0-0.1,0.1-0.3l0-1.2
				C126.8,88,124.4,88.3,123.1,87.3z"/>
			<path class="st13" d="M112.6,78.3c0-0.2-0.3-0.4-0.6-0.4c-0.5-0.1-0.9,0.3-1,0.7c-0.1,0.4,0.1,0.8,0.6,1l0,0.4l0.4,0l0.2-0.3
				C112.4,79.3,112.5,78.8,112.6,78.3z"/>
			<path class="st13" d="M108.4,80c0.2-0.4,0.3-0.7,0.2-1c-0.1-0.2-0.2-0.2-0.4-0.2c-0.5-0.1-1,0.2-1.1,0.7c0,0.4,0.2,0.7,0.5,0.9
				l0-0.4l0.5,0.1L108.4,80z"/>
			<path class="st13" d="M107,75.1c-0.5-0.1-0.9,0.2-1.1,0.7l0,0c0,0.4,0.2,0.7,0.6,0.8l-0.1,0.3L107,77l0.2-0.3
				c0.2-0.4,0.3-0.9,0.2-1.4C107.3,75.2,107.2,75,107,75.1z"/>
			<path class="st13" d="M108,75.2l0.2-0.3c0.2-0.4,0.3-0.9,0.3-1.3c-0.1-0.2-0.2-0.3-0.4-0.2c-0.4-0.1-0.8,0.2-0.9,0.6
				c0,0,0.1,0.1,0,0.1c0,0.4-0.3,0.6,0.6,0.9l-0.1,0.3L108,75.2z"/>
			<path class="st13" d="M107.6,70.7l0.4,0l0.2-0.1c0.3-0.3,0.5-0.7,0.5-1.2c-0.2-0.3-0.3-0.4-0.6-0.4c-0.2,0-0.4,0.1-0.5,0.3
				c-0.1,0.2-0.2,0.3-0.2,0.5C107.2,70.2,107.3,70.6,107.6,70.7z"/>
			<path class="st13" d="M108.5,67.1l0.5,0.1l0.1-0.2c0.3-0.3,0.5-0.7,0.5-1.2c-0.2-0.3-0.3-0.4-0.6-0.5c-0.5-0.1-0.9,0.2-1,0.7l0,0
				C108.1,66.5,108.3,66.8,108.5,67.1L108.5,67.1z"/>
			<path class="st13" d="M110.3,66c0.1,0.2,0.2,0.3,0.3,0.4l0.4,0l0.2-0.1c0.3-0.3,0.5-0.7,0.5-1.2c-0.1-0.1-0.1-0.1-0.1-0.2
				l-0.1-0.1c-0.1-0.2-0.2-0.2-0.4-0.2c-0.4-0.1-0.8,0.2-0.9,0.6c0,0,0.1,0.1,0,0.1C110.1,65.6,110.1,65.8,110.3,66z"/>
			<path class="st13" d="M108.2,70.9c0.1,0.3,0.2,0.6,0.4,0.8l0,0.2l0.9,0.1l0.2-0.3c0.2-0.4,0.3-0.9,0.2-1.4
				c-0.1-0.2-0.2-0.2-0.5-0.2C108.7,70.1,108.3,70.3,108.2,70.9z"/>
			<path class="st13" d="M108.8,76.9l0-0.2l0,0c0.3,0.1,0.6,0,0.8-0.2s0.2-0.6,0.1-0.8c-0.2-0.3-0.4-0.5-0.7-0.5
				c-0.3-0.1-0.5,0.1-0.7,0.3c-0.2,0.2-0.2,0.6-0.1,1C108.2,76.7,108.4,76.9,108.8,76.9z"/>
			<path class="st13" d="M109.7,78.8c-0.4,0-0.8,0.2-0.8,0.6l0,0.1c0,0.4-0.2,0.7,0.8,0.9l0-0.4l0.1-0.1l0.1-0.1
				c0.3-0.3,0.3-0.7,0.2-1C109.9,78.9,109.8,78.8,109.7,78.8z"/>
			<path class="st13" d="M111.7,77l0.1-0.2c0.3-0.3,0.5-0.7,0.5-1.2c-0.2-0.3-0.3-0.4-0.6-0.5c-0.4-0.1-0.9,0.3-0.9,0.6
				c0,0,0,0,0,0.1c0.2,0.3,0.4,0.6,0.6,0.8l0,0.2L111.7,77z"/>
			<path class="st13" d="M110.8,73l0.6,0.1l0.1-0.2c0.3-0.3,0.5-0.7,0.5-1.2c-0.2-0.3-0.3-0.4-0.6-0.5c-0.5-0.1-1,0.2-1.1,0.7l0,0
				C110.5,72.4,110.7,72.8,110.8,73L110.8,73z"/>
			<path class="st13" d="M113.4,69c0-0.2-0.3-0.4-0.6-0.4c-0.5-0.1-0.9,0.3-1,0.7s0.1,0.8,0.6,1l0,0.1l0.4,0l0.1-0.2
				C113.2,69.9,113.4,69.4,113.4,69z"/>
			<path class="st13" d="M114.3,67.4L114.3,67.4c0.5-0.2,0.7-0.6,0.6-1c0,0,0,0-0.1-0.1c-0.2-0.5-0.6-0.7-1.1-0.5l0.1,0.4l-0.2-0.3
				c-0.3,0.1-0.5,0.3-0.5,0.7c0,0.4,0,0.7,0.4,0.8c0.2,0.1,0.3,0.2,0.5,0.2C114.2,67.5,114.3,67.4,114.3,67.4z"/>
			<path class="st13" d="M116.3,63.6c-0.1-0.2-0.2-0.2-0.4-0.2c-0.5-0.1-0.9,0.3-1,0.7l0,0c0.1,0.3,0.3,0.7,0.5,0.9l0,0.4l0.5,0.1
				l0.1-0.4C116.3,64.6,116.4,64.1,116.3,63.6z"/>
			<path class="st13" d="M114.1,65.2l0.2-0.3c0.2-0.4,0.3-0.9,0.2-1.3c-0.1-0.2-0.2-0.3-0.4-0.2c-0.4-0.1-0.8,0.2-0.9,0.6l0,0.1
				c0,0.4-0.2,0.7,0.7,0.8l0,0.1L114.1,65.2z"/>
			<path class="st13" d="M119.1,61.3c-0.4-0.1-0.8,0.2-0.9,0.6c0,0,0.1,0.1,0,0.1c0,0.4-0.3,0.6,0.6,0.8l0,0.2l0.4,0l0.2-0.3
				c0.2-0.4,0.3-0.9,0.2-1.4C119.4,61.4,119.2,61.3,119.1,61.3z"/>
			<path class="st13" d="M127.5,60.4c-0.2-0.3-0.3-0.4-0.7-0.4c-0.5-0.1-0.9,0.3-1,0.7l0,0c0.1,0.3,0.3,0.7,0.5,0.9l-0.1,0.5
				l0.6,0.1l0.2-0.3C127.4,61.4,127.6,60.9,127.5,60.4z"/>
			<path class="st13" d="M128.9,61.4c-0.3-0.1-0.5,0.1-0.7,0.3c-0.2,0.2-0.2,0.6-0.1,0.9c0.2,0.3,0.4,0.5,0.7,0.4l0.1-0.3l0,0
				c0.3,0.1,0.5,0.1,0.8-0.1c0.2-0.2,0.2-0.5,0-0.7C129.4,61.7,129.2,61.5,128.9,61.4z"/>
			<path class="st13" d="M132.6,62.5l-0.1,0.5l0.4,0l0.1-0.4c0.3-0.4,0.5-0.9,0.4-1.4c-0.2-0.3-0.3-0.4-0.6-0.5
				c-0.5-0.1-0.9,0.3-1,0.7c0,0,0,0,0.1,0.1C131.9,62,131.6,62.3,132.6,62.5z"/>
			<path class="st13" d="M132.1,65.6l0,0.4l0.4,0l0.1-0.4c0.2-0.4,0.3-0.9,0.3-1.3c-0.1-0.2-0.2-0.2-0.4-0.2
				c-0.4-0.1-0.8,0.2-0.9,0.6c0,0,0.1,0.1,0,0.1C131.5,65.1,131.2,65.4,132.1,65.6z"/>
			<path class="st13" d="M128,59.8L128,59.8l0.3,0.2l0.1-0.2c0.3-0.3,0.5-0.7,0.5-1.2c-0.2-0.3-0.3-0.4-0.6-0.4
				c-0.4-0.1-0.8,0.2-0.9,0.6c0,0,0.1,0.1,0,0.1C127.3,59.3,127,59.5,128,59.8z"/>
			<path class="st13" d="M125.7,58.8l0-0.1l0.5,0.1l0.1-0.1c0.3-0.3,0.5-0.7,0.5-1.2c-0.2-0.3-0.3-0.4-0.6-0.4
				c-0.5-0.1-0.9,0.3-1,0.7l0,0C125,58.3,125.3,58.7,125.7,58.8z"/>
			<path class="st13" d="M122.8,58.4l0.8,0.1l0.1-0.1c0.3-0.3,0.5-0.7,0.5-1.2c-0.2-0.3-0.3-0.4-0.7-0.4c-0.5-0.1-1,0.2-1.1,0.7
				C122.5,57.9,122.6,58.2,122.8,58.4L122.8,58.4L122.8,58.4z"/>
			<path class="st13" d="M112.8,63.1l0-0.4l0,0l0.1,0c0.3-0.2,0.5-0.7,0.5-1c-0.1-0.2-0.3-0.4-0.6-0.4c-0.4-0.1-0.8,0.2-0.9,0.6
				l0,0.1C112,62.5,111.8,62.8,112.8,63.1z"/>
			<path class="st13" d="M115.7,61.8l0-0.4l0.5,0.1l0.1,0c0.3-0.2,0.5-0.7,0.4-1.1c-0.2-0.3-0.3-0.4-0.6-0.4c-0.5-0.1-0.9,0.3-1,0.7
				l0,0C115.3,61.4,115.5,61.6,115.7,61.8z"/>
			<path class="st13" d="M117.3,59.1L117.3,59.1l0.7,0.2l0.1-0.2c0.3-0.3,0.5-0.7,0.5-1.2c-0.2-0.3-0.3-0.4-0.6-0.5
				c-0.5-0.1-1,0.2-1.1,0.7C116.7,58.6,116.9,58.9,117.3,59.1L117.3,59.1z"/>
			<path class="st13" d="M113.5,60.4l-0.1,0.5l0.6,0.1l0.2-0.3c0.4-0.3,0.5-0.9,0.5-1.3c-0.2-0.3-0.3-0.4-0.6-0.5
				c-0.5-0.1-1,0.2-1.1,0.7C113.2,59.8,113.2,60.2,113.5,60.4z"/>
			<path class="st13" d="M120.5,59.3l1,0.1l0.1-0.2c0.3-0.3,0.5-0.7,0.5-1.2c-0.2-0.3-0.3-0.4-0.7-0.4c-0.5-0.1-1,0.2-1.2,0.8
				C120.3,58.6,120.4,58.9,120.5,59.3L120.5,59.3z"/>
			<path class="st13" d="M120.2,61.5c-0.1,0.4,0.1,0.8,0.5,0.9l-0.1,0.3l0.6,0l0.1-0.2c0.4-0.3,0.6-0.8,0.5-1.3
				c-0.2-0.3-0.3-0.4-0.6-0.5C120.7,60.7,120.2,61,120.2,61.5C120.1,61.5,120.1,61.5,120.2,61.5z"/>
			<path class="st13" d="M134.4,69.4l0.4,0l0.1-0.2c0.3-0.3,0.5-0.7,0.5-1.2c-0.2-0.3-0.3-0.4-0.6-0.4s-0.4,0.1-0.5,0.3
				c-0.1,0.2-0.2,0.3-0.2,0.5C133.9,68.8,134,69.2,134.4,69.4z"/>
			<path class="st13" d="M134.9,70.9c-0.1,0.4,0.1,0.8,0.5,0.9l0-0.1l0.5,0.1l0.1-0.1c0.3-0.3,0.5-0.7,0.5-1.2
				c-0.2-0.3-0.3-0.4-0.6-0.5C135.4,70,135.1,70.4,134.9,70.9L134.9,70.9z"/>
			<path class="st13" d="M136.2,73.5l0.4,0l0.1-0.2c0.3-0.3,0.5-0.7,0.5-1.2c-0.2-0.3-0.3-0.4-0.6-0.4s-0.4,0.1-0.5,0.3
				c-0.1,0.2-0.2,0.3-0.2,0.5C135.7,73,135.9,73.4,136.2,73.5z"/>
			<path class="st13" d="M136.4,75.2c-0.1,0.2-0.2,0.3-0.2,0.5c-0.1,0.4,0.1,0.8,0.4,0.9l0.4,0l0.1-0.2c0.2-0.4,0.3-0.9,0.2-1.3
				c-0.2-0.3-0.5-0.3-0.8-0.1C136.4,75.1,136.4,75.2,136.4,75.2z"/>
			<path class="st13" d="M136.8,78.9c0.3-0.3,0.5-0.7,0.5-1.2c-0.2-0.3-0.3-0.4-0.6-0.4s-0.4,0.1-0.5,0.3c-0.1,0.2-0.2,0.3-0.2,0.5
				c-0.1,0.4,0.1,0.8,0.4,0.9l0.4,0L136.8,78.9z"/>
			<path class="st13" d="M135.7,81.8l0.4,0.1l0.1-0.2c0.2-0.4,0.3-0.9,0.2-1.3c-0.2-0.3-0.6-0.4-0.8-0.1c-0.1,0.1-0.2,0.1-0.2,0.2
				c-0.1,0.2-0.2,0.3-0.2,0.5C135.2,81.3,135.4,81.6,135.7,81.8z"/>
			<path class="st13" d="M135.1,85.1l0.4,0l0.2-0.3c0.2-0.4,0.3-0.9,0.2-1.3c-0.1-0.2-0.2-0.2-0.4-0.2c-0.5-0.1-0.9,0.3-1,0.7
				c0,0,0,0,0.1,0.1C134.4,84.4,134.1,84.7,135.1,85.1L135.1,85.1z"/>
			<path class="st13" d="M127,88.6c-0.5-0.1-1,0.2-1.1,0.7l0,0c0.1,0.3,0.2,0.6,0.4,0.8l0,0.2l0.7,0l0.1-0.2
				c0.3-0.3,0.5-0.7,0.5-1.2C127.6,88.9,127.3,88.7,127,88.6z"/>
			<path class="st13" d="M117.3,87.1c-0.4-0.1-0.8,0.2-0.9,0.6c0,0,0.1,0.1,0,0.1c0,0.4-0.3,0.6,0.6,0.9l0-0.2l0.4,0l0.1-0.1
				c0.2-0.4,0.3-0.7,0.2-1C117.6,87.3,117.4,87.1,117.3,87.1z"/>
			<path class="st13" d="M112.7,81.5c-0.4-0.1-0.8,0.2-0.9,0.6c0,0,0.1,0.1,0,0.1c0,0.4-0.3,0.6,0.6,0.9l0,0l0.1,0l0.2-0.1
				c0.3-0.3,0.5-0.7,0.5-1.1C113.3,81.7,113,81.5,112.7,81.5z"/>
			<path class="st13" d="M119.6,85.9c-0.2,0-0.4,0.1-0.5,0.3c-0.1,0.2-0.2,0.3-0.2,0.5c-0.1,0.4,0.1,0.8,0.4,0.9l0.4,0l0.1-0.2
				c0.3-0.3,0.5-0.7,0.5-1.2C120.1,86,119.9,85.8,119.6,85.9z"/>
			<path class="st13" d="M120.8,87.4c0,0.4-0.4,0.7,0.5,0.9l0-0.2l0.5,0.1l0.1-0.1c0.2-0.4,0.4-0.8,0.2-1.2
				c-0.1-0.2-0.2-0.2-0.4-0.2C121.2,86.5,120.8,86.9,120.8,87.4z"/>
			<path class="st13" d="M117.5,84.5c-0.4-0.1-0.8,0.2-0.9,0.6c0,0,0.1,0.1,0,0.1c0,0.4-0.3,0.6,0.6,0.9l0,0l0.4,0.1l0.1-0.2
				c0.2-0.4,0.3-0.9,0.2-1.3C117.8,84.6,117.6,84.6,117.5,84.5z"/>
			<path class="st13" d="M120.1,85.4c-0.2,0.3,0.1,0.8,0.4,0.9l0,0l0-0.1l0.7,0l0.1-0.1c0.3-0.2,0.5-0.7,0.4-1.1
				c-0.2-0.3-0.3-0.4-0.6-0.5C120.7,84.5,120.2,84.8,120.1,85.4C120.2,85.3,120.2,85.3,120.1,85.4z"/>
			<path class="st13" d="M123.7,85c-0.5-0.1-1,0.2-1.1,0.7c0.1,0.3,0.2,0.6,0.4,0.8l0,0.2l0.9,0.1l0.1-0.2c0.4-0.3,0.4-0.8,0.4-1.3
				C124.2,85.1,123.9,85,123.7,85z"/>
			<path class="st13" d="M127.3,84.9c-0.5-0.1-1,0.2-1.1,0.7l0,0c0.1,0.3,0.2,0.6,0.4,0.8l0,0.1l0.7,0l0.1-0.2
				c0.3-0.3,0.5-0.7,0.5-1.2C127.9,85.1,127.7,84.9,127.3,84.9z"/>
			<path class="st13" d="M128.6,87.3l0.6,0.1l0.1-0.1c0.3-0.2,0.5-0.7,0.5-1.1c-0.2-0.3-0.3-0.4-0.6-0.4c-0.5-0.1-1,0.2-1.1,0.7
				c-0.1,0.4,0.1,0.8,0.5,0.9L128.6,87.3z"/>
			<path class="st13" d="M132.8,81.9c-0.2-0.3-0.3-0.4-0.6-0.4s-0.4,0.1-0.5,0.3s-0.2,0.3-0.2,0.5c-0.1,0.4,0.1,0.8,0.4,0.9l0.4,0
				l0.1-0.2C132.7,82.8,132.9,82.4,132.8,81.9z"/>
			<path class="st13" d="M134.1,80.5c-0.2,0-0.4,0.1-0.5,0.3c-0.1,0.2-0.2,0.3-0.2,0.5c-0.1,0.4,0.1,0.8,0.4,0.9l0.4,0l0.1-0.2
				c0.3-0.3,0.5-0.7,0.5-1.2C134.7,80.6,134.4,80.6,134.1,80.5z"/>
			<path class="st13" d="M131.3,85.4l0.4,0.1l0.1-0.2c0.2-0.4,0.3-0.9,0.2-1.3c-0.2-0.3-0.6-0.4-0.8-0.1c-0.1,0.1-0.2,0.1-0.2,0.2
				c-0.1,0.2-0.2,0.3-0.2,0.5C130.7,84.8,131,85.2,131.3,85.4z"/>
			<path class="st13" d="M135,78.6c-0.2-0.3-0.3-0.4-0.6-0.4c-0.4-0.1-0.8,0.2-0.9,0.6c0,0,0.1,0.1,0,0.1c0,0.4-0.3,0.6,0.6,0.9
				l0-0.1l0.3,0.1l0.1-0.1C134.9,79.4,135,79.1,135,78.6z"/>
			<path class="st13" d="M135.6,76.4c-0.2-0.3-0.3-0.4-0.6-0.5c-0.5-0.1-0.9,0.3-1,0.7l0,0c0.1,0.3,0.3,0.7,0.5,0.9l0,0.1l0.6,0
				l0.1-0.2C135.4,77.3,135.6,76.9,135.6,76.4z"/>
			<path class="st13" d="M135.8,73.6c-0.2-0.3-0.3-0.4-0.6-0.5c-0.5-0.1-0.9,0.3-1,0.7l0,0c0.1,0.3,0.3,0.7,0.5,0.9l0-0.4l0.6,0.1
				l0.1,0.1C135.7,74.4,135.9,74,135.8,73.6z"/>
			<path class="st13" d="M137.2,81l0.4,0l0.1-0.2c0.3-0.3,0.5-0.7,0.5-1.2c-0.2-0.3-0.3-0.4-0.6-0.4s-0.4,0.1-0.5,0.3
				c-0.1,0.2-0.2,0.3-0.2,0.5C136.8,80.6,137,80.8,137.2,81z"/>
			<path class="st13" d="M139.2,77c-0.5-0.1-1,0.2-1.1,0.7c0.1,0.3,0.2,0.6,0.4,0.8l0,0l0.8,0.1l0.1-0.2c0.3-0.3,0.5-0.7,0.5-1.2
				C139.7,77.1,139.5,77,139.2,77z"/>
			<path class="st13" d="M138.2,75.1c0,0.4,0.2,0.7,0.6,0.8l0-0.2l0.4,0l0.1,0c0.3-0.2,0.5-0.7,0.4-1.1c-0.2-0.3-0.3-0.4-0.6-0.4
				C138.7,74.4,138.3,74.7,138.2,75.1L138.2,75.1z"/>
			<path class="st13" d="M137.9,72.4c0,0.4-0.2,0.6,0.7,0.8l0.1,0.1l0.1,0l0.1-0.2c0.3-0.3,0.5-0.7,0.5-1.2c0-0.2-0.3-0.4-0.6-0.4
				C138.4,71.5,138,71.9,137.9,72.4C138,72.4,137.9,72.4,137.9,72.4z"/>
			<path class="st13" d="M137.4,70.5c0.1,0.3,0.2,0.6,0.4,0.8l0.1,0.1l0.7,0l0.1-0.2c0.3-0.3,0.5-0.7,0.5-1.2
				c-0.2-0.3-0.3-0.4-0.6-0.5c-0.5-0.1-0.9,0.2-1.1,0.7C137.4,70.4,137.4,70.5,137.4,70.5z"/>
			<path class="st13" d="M136,68.9l0,0.1l0.6,0.1l0.2-0.3c0.2-0.4,0.3-0.9,0.2-1.3c-0.1-0.2-0.2-0.2-0.4-0.2c-0.5-0.1-1,0.2-1.1,0.7
				C135.5,68.4,135.7,68.7,136,68.9z"/>
			<path class="st13" d="M134.4,65.7l0.6,0.1l0.1-0.1c0.3-0.3,0.5-0.7,0.4-1.1c-0.2-0.3-0.3-0.4-0.6-0.5c-0.5-0.1-0.9,0.2-1,0.7l0,0
				C134,65.2,134.2,65.5,134.4,65.7L134.4,65.7z"/>
			<path class="st13" d="M135.1,88.3l0.4,0.1l0.1-0.2c0.2-0.4,0.3-0.9,0.2-1.3c-0.2-0.3-0.6-0.4-0.8-0.1c-0.1,0.1-0.2,0.1-0.2,0.2
				c-0.1,0.2-0.2,0.3-0.2,0.5C134.6,87.8,134.8,88.1,135.1,88.3z"/>
			<path class="st13" d="M137.1,83.4c-0.5-0.1-1,0.2-1.1,0.7l0,0c0.1,0.3,0.3,0.7,0.5,0.9l0,0.1l0.7,0l0.1-0.2
				c0.3-0.3,0.5-0.7,0.4-1.3C137.7,83.6,137.5,83.4,137.1,83.4z"/>
			<path class="st13" d="M138.5,81.3c-0.5-0.1-0.9,0.3-1,0.7l0,0c0,0.4,0.2,0.7,0.6,0.8l0.1,0.1l0.4,0l0.1-0.2
				c0.3-0.3,0.5-0.7,0.5-1.2C139,81.4,138.8,81.3,138.5,81.3z"/>
			<path class="st13" d="M129,90.2c-0.5-0.1-1.1,0.2-1.2,0.7c0.1,0.3,0.1,0.6,0.3,0.9l-0.1,0.3l1,0.1l0.1-0.3
				c0.3-0.3,0.5-0.7,0.4-1.3C129.6,90.3,129.4,90.2,129,90.2z"/>
			<path class="st13" d="M125.4,89.9c-0.5-0.1-0.9,0.2-1,0.7l0,0c0.1,0.3,0.3,0.7,0.4,0.9l0,0.2l0.6,0.1l0.1-0.2
				c0.3-0.3,0.5-0.7,0.5-1.2C125.9,90,125.7,89.8,125.4,89.9z"/>
			<path class="st13" d="M122.9,89.5c-0.2,0-0.4,0.1-0.5,0.3c-0.1,0.2-0.2,0.3-0.2,0.5c-0.1,0.4,0.1,0.8,0.4,0.9l0.4,0l0.1-0.2
				c0.3-0.3,0.5-0.7,0.5-1.2C123.5,89.6,123.2,89.4,122.9,89.5z"/>
			<path class="st13" d="M121.1,91.3l0.2-0.3c0.2-0.4,0.3-0.9,0.2-1.3c-0.1-0.2-0.3-0.3-0.4-0.3c-0.5-0.1-1.1,0.2-1.1,0.7
				c0.1,0.3,0.1,0.6,0.2,0.8l0,0.2L121.1,91.3z"/>
			<path class="st13" d="M116.4,84.2l0.2-0.3c0.2-0.4,0.3-0.9,0.2-1.3c-0.1-0.2-0.2-0.2-0.4-0.2c-0.4-0.1-0.8,0.2-0.9,0.6l0,0.1
				c0,0.4-0.3,0.6,0.6,0.9l0,0.1L116.4,84.2z"/>
			<path class="st13" d="M112.8,84.3c-0.2,0-0.4,0.1-0.5,0.3c-0.1,0.2-0.2,0.3-0.2,0.5c-0.1,0.4,0.1,0.8,0.4,0.9l0.4,0l0.1-0.2
				c0.3-0.3,0.5-0.7,0.5-1.2C113.4,84.5,113.2,84.3,112.8,84.3z"/>
			<path class="st13" d="M118.1,96.5c-0.5-0.1-1,0.2-1.1,0.7l0,0c0.1,0.3,0.2,0.6,0.4,0.8l0.1,0.1l0.7,0l0.1-0.2
				c0.3-0.3,0.5-0.7,0.5-1.2C118.6,96.6,118.4,96.5,118.1,96.5z"/>
			<path class="st13" d="M138.7,101.9c-0.4-0.1-0.8,0.2-0.9,0.6c0,0,0.1,0.1,0,0.1c0,0.4-0.3,0.6,0.6,0.9l0-0.4l0.3,0.1l0.1,0
				c0.3-0.3,0.3-0.6,0.2-1C139,102,138.9,101.9,138.7,101.9z"/>
			<path class="st13" d="M132.9,116.1c-0.5-0.1-1,0.2-1.1,0.7c-0.1,0.4,0.1,0.8,0.5,0.9l0.1-0.3l0.6,0.1l0.1-0.1
				c0.2-0.4,0.3-0.7,0.2-1.1C133.2,116.2,133.1,116.1,132.9,116.1z"/>
			<path class="st13" d="M151.7,99.9c-0.2-0.3-0.3-0.4-0.6-0.4c-0.2,0-0.4,0.1-0.5,0.3c-0.1,0.2-0.2,0.3-0.2,0.5
				c-0.1,0.4,0.1,0.8,0.4,0.9l0.4,0l0.1-0.2C151.7,100.8,151.8,100.4,151.7,99.9z"/>
			<path class="st13" d="M141.7,81.6c-0.5-0.1-1,0.2-1.1,0.7c0.1,0.3,0.2,0.6,0.4,0.8l0,0l0.9,0.1l0.1-0.2c0.3-0.3,0.5-0.7,0.4-1.3
				C142.2,81.7,142.1,81.6,141.7,81.6z"/>
			<path class="st13" d="M107.9,91.9c-0.5-0.1-0.9,0.2-1.1,0.7l0,0c0.1,0.3,0.3,0.7,0.5,0.9l-0.1-0.1l0.6,0.1l0.1-0.2
				c0.2-0.4,0.3-0.9,0.2-1.3C108.3,91.9,108.1,91.9,107.9,91.9z"/>
		</g>
	</g>
	<g>
		<g>
			<polygon class="st11" points="195.4,109.1 188.4,109.3 184.7,109.4 188.2,106.9 188.2,106.9 195.4,106.7 			"/>
			<path class="st14" d="M193.7,114.6l-5.6,0.1l-3.9-2.4l0,0l3.7-0.1l6.9-0.3v0.7C195,113.8,194.7,114.6,193.7,114.6z"/>
			<path class="st1" d="M191,120.8l-4.3,0.1l-3.9-2.4l0,0l3.7-0.1l6.1-0.1v0.7C192.9,120,192.1,120.8,191,120.8z"/>
			<polygon class="st1" points="196.5,185 188.5,185.1 184.8,185.2 188.4,182.7 188.4,182.7 196.5,182.6 			"/>
			<polygon class="st11" points="175.5,185.5 181.2,185.2 184.9,182.9 184.9,182.9 181.2,182.9 175.4,183 			"/>
			<polygon class="st1" points="173,109.7 181.1,109.4 184.8,106.9 184.8,106.9 181.1,107 173,107.3 			"/>
			<polygon class="st7" points="173.1,115.1 180.8,115 184.7,114.8 180.8,112.4 180.8,112.4 173.1,112.7 			"/>
			<polygon class="st11" points="174.7,121.2 179.6,121.1 183.3,120.9 179.6,118.7 179.6,118.7 174.6,118.8 			"/>
			<path class="st1" d="M177.3,167.7c-0.1-1.3,0.9-2.4,2.3-2.5l2.5-0.1l3.7-0.1l-3.7,2.5l0,0L177.3,167.7L177.3,167.7z"/>
			<path class="st11" d="M192.2,164.9l-2.8,0.1l-3.7,2.5l0,0l3.7-0.1l5.2-0.1l-0.8-0.7C193.8,165.7,193.3,164.9,192.2,164.9z"/>
			<polygon class="st11" points="196.6,176.5 190.9,176.6 187,176.6 190.9,179 190.9,179 196.6,178.9 			"/>
			<polygon class="st1" points="175.5,176.9 183.6,176.7 187.4,179 187.4,179 183.7,179.1 175.6,179.4 			"/>
			<polygon class="st7" points="175.4,170.8 183.1,170.6 186.9,170.5 183.2,173 183.2,173 175.5,173.2 			"/>
			<path class="st14" d="M194,170.4l-3.6,0.1l-3.7,2.5l0,0l3.7-0.1l5.4-0.1l0.7-0.7C196.5,171.2,194.9,170.4,194,170.4z"/>
			<polygon class="st7" points="191.8,133.2 188,133.3 185.3,133.4 189,130.9 189,130.9 190.9,130.8 			"/>
			<polygon class="st14" points="176,133.6 181.9,133.4 185.6,130.9 185.6,130.9 181.9,131 177.7,131.2 			"/>
			<polygon class="st14" points="173.8,139.1 179.1,139 182.9,138.9 179.1,136.5 179.1,136.5 174,136.6 			"/>
			<path class="st7" d="M192.6,138.6l-6.2,0.1l-3.9-2.4l0,0l3.7-0.1l8.1-0.3v0.7C194.4,137.8,193.6,138.6,192.6,138.6z"/>
			<polygon class="st1" points="173.6,142.3 182.3,142.2 186,142.1 182.3,144.6 182.3,144.6 173.9,144.7 			"/>
			<path class="st11" d="M193.7,141.9l-4.1,0.1l-3.7,2.5l0,0l3.7-0.1l5-0.1l-0.8-0.7C193.8,142.6,194.6,141.9,193.7,141.9z"/>
			<polygon class="st11" points="176.5,153.2 181.2,153.1 184.9,153 181.3,155.5 181.3,155.5 178.3,155.6 			"/>
			<path class="st1" d="M192.8,152.8l-4.4,0.1l-3.7,2.5l0,0l3.7-0.1l3.3-0.1l0.9-1.7C192.8,152.6,193.8,152.8,192.8,152.8z"/>
			<polygon class="st7" points="174.3,147.8 178.8,147.7 182.7,147.7 178.9,150.2 178.9,150.2 175.9,150.2 			"/>
			<path class="st14" d="M192.4,147.4l-6.2,0.1l-3.7,2.5l0,0l3.7-0.1l8.1-0.3V149C194.2,148.2,193.4,147.4,192.4,147.4z"/>
			<path class="st15" d="M197.3,175.4c-0.1-0.9-0.1-1.7-0.3-2.7c-0.4-5.2-3.3-11.2-8.9-13.2c-0.5-0.3-1.2-0.4-1.7-0.5
				c-0.8-0.3-1.6-0.4-2.3-0.8c-0.9-0.5-1.7-1.3-2.5-2.3c-1.7-1.9-3.5-3.6-4.5-5.8c-0.9-1.9-1.5-4-1.6-6.8c-0.3-3.1,0.1-8.8,3.5-12.2
				c-0.7-0.5-1.3-1.2-2-1.9c-4,4.1-4.4,10.8-4.1,14.3c0.3,3.2,0.8,5.7,1.9,7.8c1.2,2.5,3.2,4.5,4.9,6.5c0.9,0.9,1.9,2,3.3,2.8
				c0.9,0.5,2,0.8,2.9,1.1c0.5,0.1,1.1,0.3,1.5,0.4c4.5,1.6,6.8,6.6,7.2,10.9c0.1,0.9,0.1,1.9,0.3,2.8c0.4,4,0.7,7.4,0.1,12l2.7,0.3
				C197.9,183.1,197.5,179.4,197.3,175.4z"/>
			<g>
				<path class="st6" d="M176,187.6l-2.8-0.1l0.4-8.1c0.1-3.5,0.4-6.9,1.3-10.4c1.2-4,3.6-7,6.5-8.6c0.9-0.5,1.9-0.8,2.7-1.2
					c0.9-0.4,1.7-0.7,2.5-1.1c4.3-2.5,5.3-8.4,5.6-11.7c0.3-3.5,0-6.9-0.5-10.2c-0.4-1.9-0.9-4.4-2.5-6c-1.6-1.7-4.3-2.5-6.8-3.3
					l-0.7-0.3c-3.1-0.9-6.5-2.4-8.2-5.4c-1.3-2.3-1.6-4.9-1.7-7.3c0-0.5-0.1-1.2-0.1-1.7c-0.1-2.1-0.3-4.3,0-6.2h2.8
					c-0.1,1.7-0.1,4.1,0,6.1c0,0.7,0.1,1.2,0.1,1.9c0.1,2,0.4,4.3,1.3,6.1c1.2,2.3,4.1,3.3,6.6,4.1l0.7,0.3c2.8,0.8,5.8,1.9,8,4.1
					c2,2.1,2.8,5,3.2,7.3c0.7,3.6,0.9,7.3,0.7,10.9c-0.5,6.6-2.9,11.6-6.9,13.9c-0.9,0.5-1.9,0.9-2.8,1.3c-0.8,0.3-1.6,0.7-2.4,1.1
					c-2.4,1.3-4.3,3.9-5.2,7s-1.1,6.4-1.3,9.6L176,187.6z"/>
			</g>
			<path class="st15" d="M178.7,131.3c0.1-0.1,0.3-0.3,0.5-0.5l0,0c0.1-0.1,0.1-0.1,0.3-0.3c0.9-0.8,2.1-1.5,3.5-2.1
				c0.4-0.3,0.9-0.4,1.3-0.7c4-2.3,7.2-5.2,9.2-8.5c2-3.2,2.8-8.6,2.3-13.7l-3.1,0.1c0.5,4.4,0,9.4-1.6,12.2
				c-1.7,2.9-4.5,5.6-8.1,7.6c-0.4,0.3-0.8,0.4-1.2,0.7c-1.2,0.7-2.5,1.3-3.7,2.3l0,0c-0.1,0-0.1,0.1-0.3,0.1
				c-0.4,0.3-0.7,0.5-0.9,0.9C177.3,130.1,178,130.8,178.7,131.3z"/>
		</g>
		<g>
			<path class="st16" d="M0,137h31.7v8.6H8.6v12.6h20.5v8.6H8.6v12.6h23.1v8.6H0V137z"/>
			<path class="st16" d="M38.5,175.5v-20.9h8.6v20.7c0,3.9,2.5,5.7,5.8,5.7s5.8-1.9,5.8-5.7v-20.7h8.6v20.9c0,8-5.3,13.2-14.5,13.2
				S38.5,183.5,38.5,175.5z"/>
			<path class="st16" d="M93.9,169.2l13.4,18.7h-11l-12.2-18.1v18.1h-8.6V137h8.6v31.6l12.2-14.1h11L93.9,169.2z"/>
			<path class="st16" d="M108,170.8c0-9.7,7.4-17.4,16.5-17.4c4.8,0,8.4,1.7,10.9,4.5v-3.7h8.6v33.3h-8l-0.3-4.3
				c-2.5,3.1-6.2,4.9-11.3,4.9C115.4,188.2,108,180.5,108,170.8z M135.6,170.8c0-5.3-4.1-9.6-9.4-9.6s-9.6,4.3-9.6,9.6
				s4.1,9.6,9.6,9.6C131.4,180.3,135.6,176.1,135.6,170.8z"/>
			<path class="st16" d="M161.5,173v14.7H153v-33.3h8.5v4.6c2-3.3,4.8-5.3,9-5.3c0.4,0,0.8,0,1.2,0v8.4
				C166.6,161.2,161.5,163.3,161.5,173z"/>
			<path class="st16" d="M199.4,170.8c0-9.7,7.4-17.4,16.5-17.4c4.8,0,8.4,1.7,10.9,4.5v-3.7h8.6v33.3h-8l-0.3-4.3
				c-2.5,3.1-6.2,4.9-11.3,4.9C206.8,188.2,199.4,180.5,199.4,170.8z M227,170.8c0-5.3-4.1-9.6-9.4-9.6s-9.6,4.3-9.6,9.6
				s4.1,9.6,9.6,9.6C222.8,180.3,227,176.1,227,170.8z"/>
		</g>
	</g>
</g>
</svg>
