<?xml version="1.0" encoding="utf-8"?>
<!-- Generator: Adobe Illustrator 22.1.0, SVG Export Plug-In . SVG Version: 6.00 Build 0)  -->
<svg version="1.1" id="Layer_1" xmlns="http://www.w3.org/2000/svg" xmlns:xlink="http://www.w3.org/1999/xlink" x="0px" y="0px"
	 viewBox="0 0 775.214 834.562" enable-background="new 0 0 775.214 834.562" xml:space="preserve">
<path id="esq" fill="#0F5659" d="M373,237.78c0,0-92.493-103.333-178.5-24c-116.5,136,36.447,200.864,63.464,210.466
	c21.955,7.803-131.464-9.42-102.683,105.034c6.673,20.573,0.719,73.5,89.719,116c130.667,9,142.607-126.667,142.607-126.667
	c-1.107-73.833-80.107-88.231-79.357-92.731c-0.167-8.253,41.25-16.102,67.605-66.602C399,301,387.754,254.78,373,237.78z"/>
<path id="cesq" fill="#98E2CD" d="M375.468,294.613c-8.167-30.167-39.845-104.938-127.802-87.974c-178,76.775-6,214.154,34,221.307
	c3.852,0.689-214,10.667-68,184c40,33.928,115.711-4.132,133.333-24.667c1.168-1.769,36-45.516,18.667-88
	c-16.667-58.667-69.413-66.885-70-73.333C295.542,422.74,382.333,379.947,375.468,294.613z"/>
<path id="dir" fill="#0F5659" d="M573,284c-99.854,11.274-109,57.667-129,108c-7.333,23-8.667,48.333-0.805,66.623
	C465.862,499.956,501.635,571.544,584,556c99-17,112.8-73.2,115-127C689,387,695,274.333,573,284z"/>
<path id="cdir" fill="#98E2CD" d="M593,301c-107.65,13.578-128,78-139,104c0.587,6.449-2.668,35.467,3.832,41.467
	c8.834,25.866,90.398,123.817,145.834,87.199c52.667-18,79.433-58.533,81.333-105.333C679.667,359.667,645,305,593,301z"/>
<path id="def_x5F_baix" fill="none" stroke="#6B25F2" stroke-miterlimit="10" d="M552.093,412.711
	c-1.029,7.995-2.019,16.363,0.789,23.919c1.07,2.88,2.659,5.532,4.055,8.269c2.896,5.679,4.965,11.735,7.025,17.767
	c1.38,4.043,2.761,8.087,4.142,12.13c4.209,12.327,8.449,24.797,9.65,37.767c2.658-16.08,0.255-32.958-6.785-47.657
	c-1.122-2.343-2.363-4.645-3.139-7.124c-0.64-2.045-0.952-4.182-1.614-6.22c-1.402-4.32-4.294-7.988-6.177-12.121
	c-3.5-7.683-3.33-16.463-3.095-24.902"/>
<path id="def_x5F_cima" fill="none" stroke="#6B25F2" stroke-miterlimit="10" d="M584.843,407.991
	c-0.268-5.435-0.526-10.974,0.884-16.229c0.87-3.243,2.354-6.286,3.937-9.248c4.433-8.294,9.76-16.25,12.365-25.287
	c2.197-7.621,2.35-15.665,2.329-23.597c-0.016-6.037-0.125-12.074-0.326-18.108c2.724,13.784,3.697,27.914,2.889,41.941
	c-0.163,2.831-0.406,5.696-1.354,8.368c-0.787,2.221-2.038,4.242-3.248,6.263c-6.243,10.424-11.819,22.038-10.936,34.156"/>
<path id="def_x5F_baix_x5F_esq" fill="none" stroke="#6B25F2" stroke-miterlimit="10" d="M258.76,414.378
	c-1.029,7.995-2.019,16.363,0.789,23.919c1.07,2.88,2.659,5.532,4.055,8.269c2.896,5.679,4.965,11.735,7.025,17.767
	c1.381,4.043,2.761,8.087,4.142,12.13c4.209,12.327,8.449,24.797,9.65,37.767c2.658-16.08,0.255-32.958-6.785-47.658
	c-1.122-2.343-2.363-4.645-3.139-7.124c-0.64-2.045-0.952-4.182-1.614-6.22c-1.402-4.32-4.294-7.988-6.177-12.121
	c-3.5-7.683-3.33-16.463-3.095-24.902"/>
<path id="def_x5F_cima_x5F_esq" fill="none" stroke="#6B25F2" stroke-miterlimit="10" d="M291.509,409.658
	c-0.268-5.435-0.526-10.974,0.884-16.229c0.87-3.243,2.354-6.286,3.937-9.248c4.433-8.294,9.76-16.25,12.365-25.287
	c2.197-7.621,2.35-15.665,2.329-23.597c-0.016-6.037-0.125-12.074-0.326-18.108c2.724,13.784,3.697,27.914,2.889,41.941
	c-0.163,2.831-0.406,5.696-1.354,8.368c-0.787,2.221-2.038,4.242-3.248,6.263c-6.243,10.424-11.819,22.038-10.936,34.156"/>
</svg>
