<?xml version="1.0" encoding="utf-8"?>
<!-- Generator: Adobe Illustrator 19.2.1, SVG Export Plug-In . SVG Version: 6.00 Build 0)  -->
<svg version="1.1" id="Layer_1" xmlns="http://www.w3.org/2000/svg" xmlns:xlink="http://www.w3.org/1999/xlink" x="0px" y="0px"
	 viewBox="0 0 612 792" enable-background="new 0 0 612 792" xml:space="preserve">
<g>
	<path fill="#0F5658" d="M272.234,492.386c-21.231-52.44-4.578-110.009,40.315-141.068c33.351-23.074,69.134-25.963,106.311-10.449
		c28.049,11.705,50.204,30.595,65.269,57.169c13.229,23.335,16.391,48.416,10.294,74.378c-8.52,36.28-29.704,63.313-63.515,78.706
		c-26.342,11.993-54.405,17.685-83.702,12.337c-23.67-4.321-41.822-17.139-56.144-36.056
		C282.633,516.271,276.555,503.94,272.234,492.386z"/>
	<path fill="#97E0CB" d="M281.88,459.518c-5.471-37.921,14.349-78.268,47.114-97.098c34.577-19.871,68.095-15.758,100.521,4.435
		c22.071,13.744,38.628,32.599,46.297,58.054c5.304,17.608,4.493,35.377-1.514,52.56c-10.194,29.16-29.878,49.769-58.919,60.544
		c-17.547,6.51-35.82,10.157-54.773,8.849c-27.398-1.892-47.021-15.871-60.763-38.997c-2.374-3.995-4.749-8.005-6.336-12.409
		c-3.051-11.551-9.03-22.18-10.76-34.15C282.653,460.656,282.265,460.068,281.88,459.518z"/>
	<path fill="#96DDD0" d="M281.88,459.518c3.109,2.678,1.938,6.779,3.318,10.112c3.456,8.354,7.271,16.666,8.309,25.825
		C288.018,483.998,283.468,472.238,281.88,459.518z"/>
	<path fill="#2E98D9" d="M333.993,438.753c-6.422,2.414-11.092,0.989-13.261-2.738c-2.568-4.412-1.988-10.028,1.898-13.214
		c6.166-5.056,12.472-9.963,18.957-14.599c4.214-3.012,9.211-2.462,12.333,0.668c3.781,3.791,4.66,8.179,1.337,12.041
		C348.725,428.501,339.921,433.43,333.993,438.753z"/>
	<path fill="#2E98D9" d="M397.694,512.095c5.58-4.404,11.118-8.862,16.753-13.194c4.417-3.396,10.397-3.042,13.462,0.628
		c3.867,4.63,3.293,10.474-1.531,14.466c-5.969,4.939-11.822,10.03-18.291,14.331c-1.654,1.358-3.531,2.116-5.691,2.112
		c-8.408-0.393-11.784-5.934-8.517-13.979c3.694-0.959,6.152-3.965,9.886-5.485C401.442,511.346,400.259,514.671,397.694,512.095z"
		/>
	<path fill="#D71FF1" d="M443.58,427.297c7.853,8.078,12.511,17.546,10.471,28.95c-1.552,8.679-8.386,12.652-16.299,14.943
		c-0.917-0.349-1.972-0.482-2.434-1.548c-0.422-1-0.269-1.918,0.396-2.76c2.211-1.856,3.981-4.254,6.811-5.364
		c3.528-1.385-0.603-3.607,0.505-5.283c0.161-0.672,0.465-1.277,0.871-1.83c1.636-1.371,1.885-3.264,1.946-5.233
		c0.125-0.464,0.375-0.842,0.744-1.147c1.35-0.661,2.275-0.082,3.021,1.026c1.012,1.776,0.914,3.724,0.823,5.67
		c0.142-1.465,0.441-2.934-0.198-4.352c-0.135-0.436-0.229-0.882-0.288-1.334c-0.723-4.864-2.015-9.22-8.198-9.237
		c-1.717-0.132-3.428-0.738-5.147-0.025c-1.23,0.386-2.392,0.893-3.331,1.818c-2.13,1.706-1.935,4.61-3.419,6.64
		c-0.65,0.9-1.216,1.883-2.224,2.462c-1.27-0.714-2.815-0.14-4.097-0.858c-1.37-1.517-1.881-3.443-2.568-5.288
		c-1.149-3.465,0.45-6.125,2.548-8.627c1.279-1.525,2.739-2.904,3.734-4.658c1.084-1.544,2.607-2.33,4.444-2.562
		c1.574,0.19,2.816,0.7,2.41,3.347c0.811-2.222,0.941-4.221,3.041-4.793c0.449,0.164,0.788,0.511,1.191,0.739
		c0.195,0.11,0.266-0.207-0.055-0.491c-0.472-0.418-0.95-0.842-1.619-0.331c-0.537,0.347-1.031,0.763-1.671,0.921
		c-2.147,0.25-4.401,0.027-6.278,1.456c-2.159,1.164-4.514,1.238-6.878,1.271c-1.617-0.949-5.28,1.294-4.755-3.024
		c5.091-1.75,9.59-5.89,15.615-3.874c1.049,1.305,2.437,0.479,3.676,0.585c2.045-0.534,3.698,0.87,5.583,1.131
		c0,0,0.039,0.025,0.039,0.025c0.518,0.537,1.037,1.074,1.555,1.612c-0.05,0.146-0.14,0.276-0.162,0.432
		C443.627,427.086,443.332,427.916,443.58,427.297z"/>
	<path fill="#D51FEF" d="M422.075,443.886c0.831,2.177,1.661,4.355,2.492,6.532c0.072,0.196,0.145,0.392,0.221,0.587
		c0.348,1.221,0.848,2.372,1.601,3.406c0.899,1.313,1.87,2.575,2.621,3.981c1.677,2.274,2.723,4.926,4.36,7.221
		c1.03,1.199,1.052,3.07,2.623,3.909c0.587,0.556,1.174,1.111,1.761,1.667c-4.746,1.607-9.558,2.353-14.523,1.117
		c0.134-0.274,0.201-0.411,0.201-0.411c0.029-0.152-0.044-0.016-0.219,0.408c-0.985-0.002-1.971-0.004-2.956-0.006
		c-2.736-0.921-4.123-2.902-5.106-5.585c-1.933-5.273-3.536-10.695-6.308-15.633c-0.138-1.674-0.355-3.363,0.732-4.853
		c0.821-0.303,1.547-0.084,2.219,0.408c1.858,2.74,1.265,6.767,4.58,8.747c1.22,1.034,1.509,2.909,3.445,3.656
		c1.936-4.84-0.379-9.955,1.053-14.739C421.176,443.878,421.582,443.755,422.075,443.886z"/>
	<path fill="#734FEC" d="M416.56,366.885c0.55,2.443-0.374,3.977-2.573,5.255c-8.442,4.908-16.885,9.831-25.1,15.103
		c-2.312,1.484-3.788,1.467-5.595-0.222c0.495-1.465,2.105-1.342,3.05-2.164c0.478-0.423,0.949-0.853,1.461-1.237
		c1.802-0.877,3.241-2.214,4.618-3.642c6.629-3.65,12.871-7.958,19.642-11.354C413.514,367.896,414.747,366.661,416.56,366.885z"/>
	<path fill="#703EF0" d="M416.56,366.885c-7.691,5.642-16.215,9.888-24.47,14.584c-1.145,1.345-2.513,1.679-4.122,0.914
		c-1.49-1.495-0.913-2.707,0.66-3.549c7.73-4.135,15.307-8.515,22.385-13.706c1.62-1.189,3.144-0.438,4.716-0.023
		C416.006,365.698,416.283,366.291,416.56,366.885z"/>
	<path fill="#7A62E7" d="M415.729,365.104c-5.432-0.438-7.968,4.62-12.231,6.519c-5.137,2.288-9.275,6.541-14.858,8.17
		c-0.975,0.284-0.827,1.299-0.696,2.135c-1.447,1.809-3.527,1.965-5.599,2.141c-0.716-2.006,0.382-2.985,1.977-3.929
		c8.513-5.038,17.089-9.986,25.396-15.347C412.212,363.183,413.81,363.249,415.729,365.104z"/>
	<path fill="#97DDCE" d="M409.368,449.759c1.475,6.071,4.205,11.689,6.309,17.533c0.845,2.347,3.09,3.306,4.577,5.006
		c-2.799,0.116-4.16-1.503-4.997-3.948c-0.967-2.827-2.062-5.613-3.158-8.394c-1.316-3.338-2.445-6.443-5.806-8.872
		c-3.01-2.176-2.896-7.09-5.862-10.616c4.726,0.283,3.703,3.579,4.428,5.774c0.344,1.041,0.356,2.555,1.709,2.79
		c1.355,0.235,0.969-1.487,1.71-2.056C409.285,447.652,409.599,448.599,409.368,449.759z"/>
	<path fill="#7042EB" d="M319.727,495.51c0.126-0.262,0.332-0.425,0.615-0.488c1.155-1.286,2.467-0.911,3.796-0.364
		c0.895,0.184,1.749,0.48,2.533,0.955c1.246,0.879,2.502,1.745,4.048,2.036c1.296,0.32,2.558,0.733,3.77,1.299
		c1.358,1.078,3.68,1.056,3.919,3.418c-2.313,4.039-4.92-0.046-7.375,0.279c-2.671-0.671-5.138-1.917-7.772-2.714
		C321.178,499.301,319.4,498.184,319.727,495.51z"/>
	<path fill="#7C76DF" d="M347.24,511.519c-6.346-1.927-12.271-4.824-18.133-7.865c0.641-1.492,1.951-1.045,3.097-1.07
		c4.365,1.462,8.795,2.765,12.82,5.086C345.967,508.83,348.952,508.83,347.24,511.519z"/>
	<path fill="#2F99DC" d="M397.694,512.095c3.887,1.149,5.15-2.937,8.196-4.361c0.458,1.76-0.15,3.012-1.267,3.489
		c-2.986,1.276-5.168,3.594-7.671,5.482c-1.244,0.938-2.182,1.627-3.073-0.246C394.625,514.544,396.114,513.28,397.694,512.095z"/>
	<path fill="#734DEB" d="M332.333,503.429c-1.075,0.075-2.151,0.149-3.227,0.224c-2.009-0.663-4.018-1.327-6.027-1.991
		c-1.002-0.095-1.867-0.512-2.651-1.123c-0.291-1.669-1.665-3.186-0.702-5.03c2.445,4.999,8.115,3.68,11.892,6.071
		C332.383,501.994,332.674,502.59,332.333,503.429z"/>
	<path fill="#785AE8" d="M345.944,502.533c2.929,1.101,5.864,2.185,8.784,3.31c1.3,0.501,1.827,1.362,1.018,2.693
		c-3.278,2.109-5.788-0.533-8.594-1.376c-1.254-0.687-2.656-1.221-3.041-2.838C344.308,503.301,344.726,502.506,345.944,502.533z"/>
	<path fill="#D22BEB" d="M411.1,438.262c1.231-3.444,1.423-7.45,5.168-9.531c3.559,3.915,0.396,6.899-1.393,10.078
		C413.488,439.518,412.202,439.523,411.1,438.262z"/>
	<path fill="#7D66EA" d="M345.944,502.533c-0.521,0.572-1.042,1.144-1.563,1.716c-2.348,1.336-3.984-0.224-5.715-1.404
		c-0.12-0.204-0.237-0.411-0.354-0.617c-1.408-0.885-2.816-1.77-4.224-2.654c0.474-0.844,1.197-1.12,2.124-0.935
		C339.852,498.947,342.868,500.816,345.944,502.533z"/>
	<path fill="#C81EE3" d="M414.573,438.182c0.551-3.152,3.627-5.852,1.695-9.45c0.27-0.313,0.54-0.625,0.81-0.937
		c0.042,3.062,3.705,0.134,4.16,2.515c-0.047,0.213-0.093,0.427-0.133,0.642c-1.102,2.829-2.844,5.424-3.119,8.564
		c-0.137,0.463-0.369,0.868-0.689,1.227c-1.417,0.821-2.302,0.255-2.884-1.102C414.345,439.141,414.393,438.654,414.573,438.182z"/>
	<path fill="#7A65E5" d="M336.212,498.638c-0.708,0.312-1.416,0.623-2.125,0.935c-1.174-0.271-2.347-0.542-3.521-0.813
		c-1.384-0.928-2.687-1.982-4.22-2.675c-0.733-0.088-1.467-0.175-2.2-0.263c-0.876-0.88-0.52-1.635,0.237-2.351
		C328.606,494.554,332.765,495.782,336.212,498.638z"/>
	<path fill="#96DFCE" d="M344.597,476.427c-1.157,5.007-4.994,0.197-6.794,2.338c-0.948-1.459,2.975-2.306-0.13-3.462
		c-3.698-1.376,0.042-1.544,0.422-1.91c0.99-0.953,1.922-2.42,3.715-1.48C341.367,474.266,342.231,475.81,344.597,476.427z"/>
	<path fill="#703DF3" d="M382.345,384.069c1.316-2.154,3.597-1.785,5.599-2.141c1.421,0.206,2.821,0.213,4.146-0.459
		c-0.869,1.801-2.245,2.797-4.303,2.712c-0.583,0.242-0.815,0.649-0.602,1.268c-0.623,2.196-2.797,0.547-3.894,1.571
		C381.509,386.507,382.298,385.169,382.345,384.069z"/>
	<path fill="#6831EE" d="M347.34,506.308c2.843,0.588,5.352,2.437,8.406,2.228c0.526,1.389,0.336,2.59-0.917,3.515
		c-3.028,0.442-5.121-1.329-7.238-3.053c-0.757-0.607-1.403-1.278-1.384-2.342c0.171-0.34,0.397-0.504,0.676-0.494
		C347.154,506.172,347.307,506.22,347.34,506.308z"/>
	<path fill="#7558E9" d="M348.011,508.246c2.273,1.268,4.545,2.536,6.818,3.805c-2.782,3.444-5.066-0.254-7.589-0.53
		c0.509-2.044-2.21-1.632-2.393-3.149C345.861,507.318,346.947,508.061,348.011,508.246z"/>
	<path fill="#91E3CA" d="M457.303,443.392c-2.717-3.621-4.704-7.518-5.637-11.867c-0.24-1.117,0.027-2.393,1.217-2.114
		c2.156,0.506-0.36,1.283-0.108,1.96C454.268,435.384,455.79,439.386,457.303,443.392z"/>
	<path fill="#92E3C4" d="M373.891,401.171c1.383-0.244,2.178,0.282,0.931,1.377c-1.484,1.302-3.533,2.506-5.448,1.319
		c-1.894-1.173-2.803-3.219-1.91-5.611C369.227,400.064,371.4,400.968,373.891,401.171z"/>
	<path fill="#CC83EE" d="M344.597,476.427c-1.377,0.586-2.977,1.204-3.916-0.33c-0.926-1.514-0.443-3.107,1.13-4.182
		C343.897,472.704,343.917,474.769,344.597,476.427z"/>
	<path fill="#9CDCD3" d="M412.466,468.657c-1.617-4.283-3.234-8.565-4.851-12.848c0.156-0.059,0.312-0.117,0.467-0.176
		c1.617,4.283,3.234,8.567,4.852,12.85C412.778,468.541,412.622,468.599,412.466,468.657z"/>
	<path fill="#D770FA" d="M411.727,489.507c-1.025,0.306-1.997,0.328-2.449-0.862c-0.49-1.289,0.019-2.335,1.228-2.806
		c1.338-0.521,2.311,0.404,2.699,1.484C413.589,488.39,412.714,489.102,411.727,489.507z"/>
	<path fill="#D91DF2" d="M414.573,438.182c0.11,0.301,0.222,0.601,0.335,0.901c-0.365,1.512-0.596,3.074-1.646,4.332
		c-0.379,0.296-0.8,0.495-1.274,0.592c-0.503,0.001-0.944-0.16-1.331-0.479c-0.741-0.816-0.827-1.75-0.507-2.759
		c0.317-0.836,0.635-1.671,0.951-2.507C412.258,438.235,413.415,438.209,414.573,438.182z"/>
	<path fill="#A3D7DA" d="M373.891,401.171c-3.5,2.022-5.643,1.052-6.427-2.915c0.302-0.117,0.603-0.235,0.904-0.353
		c0.619,0.078,1.157,0.367,1.698,0.645c0.973,0.329,2.029,0.271,2.989,0.647C373.333,399.853,373.612,400.512,373.891,401.171z"/>
	<path fill="#DC65F5" d="M414.151,413.409c-0.001,1.042-0.243,2.069-1.385,2.287c-0.923,0.176-1.537-0.59-1.734-1.432
		c-0.212-0.908,0.206-1.638,1.17-1.836C413.052,412.252,413.846,412.374,414.151,413.409z"/>
	<path fill="#92E2C3" d="M433.637,474.069c1.868-0.705,3.737-1.411,6.285-2.373C438.324,475.154,435.265,472.701,433.637,474.069z"
		/>
	<path fill="#B9A1DF" d="M369.21,399.771c-0.281-0.623-0.561-1.245-0.842-1.868c1.798-2.597,3.302-2.833,4.356,0.543
		C371.595,399.001,370.425,399.446,369.21,399.771z"/>
	<path fill="#CE29E8" d="M410.15,440.769c0.391,0.972,0.781,1.943,1.172,2.915c1.104,1.018,0.824,2.084,0.11,3.165
		c-0.428-0.198-0.855-0.396-1.283-0.594c-0.64-0.091-1.281-0.183-1.712-0.75c-0.406-1.563-0.112-2.983,0.873-4.261
		C409.588,441.082,409.868,440.924,410.15,440.769z"/>
	<path fill="#96E3C0" d="M335.303,510.073c2.136-1.101,3.348-0.522,4.566,0.791C338.143,512.257,336.865,511.475,335.303,510.073z"
		/>
	<path fill="#94E4C1" d="M421.468,424.405c-1.642,1.265-3.157,1.97-5.279,1.892C417.822,425.019,419.344,424.333,421.468,424.405z"
		/>
	<path fill="#97DDCE" d="M409.31,441.244c-0.135,1.479-0.27,2.958-0.405,4.437c-0.049,0.284-0.177,0.46-0.383,0.529
		c-0.223,0.075-0.346,0.083-0.369,0.023C407.08,444.232,406.825,442.42,409.31,441.244z"/>
	<path fill="#734DEB" d="M324.384,493.472c-0.079,0.784-0.158,1.567-0.237,2.351c-1.271-0.249-2.341-1.453-3.803-0.8
		C321.352,493.624,322.498,492.584,324.384,493.472z"/>
	<path fill="#96E0C4" d="M324.597,504.69c1.704,0.143,2.827,0.651,3.8,1.524c-0.169,0.244-0.336,0.654-0.461,0.641
		C326.569,506.72,325.251,506.46,324.597,504.69z"/>
	<path fill="#94DCC9" d="M411.06,431.465c0.206,1.482-0.275,2.616-1.476,3.822C408.847,433.32,409.966,432.362,411.06,431.465z"/>
	<path fill="#CD7CF1" d="M369.21,399.771c0.812-1.395,1.971-1.872,3.514-1.326c0.136,0.239,0.247,0.489,0.331,0.749
		C371.827,399.746,370.679,400.831,369.21,399.771z"/>
	<path fill="#319CDA" d="M402.395,530.438c1.897-0.704,3.793-1.408,5.69-2.112C406.649,530.27,404.791,531.078,402.395,530.438z"/>
	<path fill="#D32DEF" d="M408.153,446.233c0.224-0.22,0.475-0.404,0.752-0.552c0.415,0.192,0.829,0.383,1.244,0.575
		c-0.26,1.168-0.521,2.336-0.781,3.504c-0.363-0.928-0.726-1.856-1.089-2.784c0,0,0.017-0.385,0.017-0.385L408.153,446.233z"/>
	<path fill="#D528F2" d="M436.37,424.506c-1.22-0.228-3.049,3.365-3.676-0.585C433.964,423.831,435.242,423.699,436.37,424.506z"/>
	<path fill="#8DE7C4" d="M441.952,425.637c-0.191-0.815-0.409-1.71,0.74-1.914c0.348-0.062,1.153,0.459,1.13,0.628
		c-0.137,0.991-1.139,0.966-1.831,1.311C441.991,425.662,441.952,425.637,441.952,425.637z"/>
	<path fill="#A4DEE7" d="M320.43,500.539c1.071-0.068,1.916,0.396,2.651,1.122C321.561,502.788,320.729,502.293,320.43,500.539z"/>
	<path fill="#2D99E3" d="M336.777,413.836c-0.344,3.668-2.06,4.554-4.746,4.958C333.003,416.65,334.43,415.467,336.777,413.836z"/>
	<path fill="#2F97E9" d="M354.31,419.979c-0.593,0.737-0.808,1.207-1.168,1.39c-0.3,0.152-0.771-0.032-1.166-0.068
		c0.136-0.387,0.166-0.906,0.437-1.124C352.672,419.968,353.182,420.072,354.31,419.979z"/>
	<path fill="#791599" d="M446.383,448.629c0.016,0.303,0.055,0.603,0.116,0.9c-2.737,1.142-1.35,4.428-3.149,6.061
		c-1.474,1.699-3.383,1.697-5.369,1.389c-3.112-0.67-1.56-2.826-1.45-4.536c-0.369-1.53-0.871-3.03-0.768-4.633
		c0.284-1.357,1.203-1.991,2.493-2.202c1.412-0.516,2.881,2.277,4.271-0.08c0.932-0.272,1.701,0.207,2.509,0.515
		c0.41,0.177,0.77,0.429,1.095,0.733C446.538,447.348,446.668,447.96,446.383,448.629z"/>
	<path fill="#C31BDF" d="M417.502,440.275c-0.114-0.313-0.228-0.625-0.343-0.938c0.591-2.304,1.794-4.371,3.858-5.414
		c2.562-1.293,0.405-2.4,0.213-3.593c0,0,0.007-0.02,0.007-0.02c2.613-0.625,5.225-1.25,7.838-1.875
		c1.705,1.634-2.677,1.836-0.825,3.505c-0.986,2.541-3.486,3.874-4.867,6.077c-1.106,1.763-2.475,3.56-1.308,5.87
		c-0.303,0.125-0.606,0.25-0.91,0.374c-0.909-0.121-1.522-0.689-2.071-1.357c-0.473-0.672-0.8-1.435-1.282-2.105
		C417.706,440.626,417.604,440.45,417.502,440.275z"/>
	<path fill="#8517A6" d="M428.853,447.748c1.662-2.054,0.74-5.531,3.764-6.835c2.15-0.559,3.29-0.285,1.787,2.167
		c1.364-0.686,2.631-2.234,4.276-0.638c0.266,0.258-0.074,0.91-0.353,1.317c-0.65,0.733-1.491,1.178-2.368,1.566
		c-2.022,0.691-3.114,1.716-1.371,3.78c0.621,1.02,1.047,2.092,0.881,3.321c-1.751,2.284-3.588,1.985-5.48,0.182
		c-0.497-0.564-0.862-1.203-1.087-1.921C428.677,449.711,428.601,448.732,428.853,447.748z"/>
	<path fill="#901DB0" d="M437.849,443.336c-0.556-0.081-4.611-1.959-5.231-2.423c0.658-1.583,2.196-1.769,3.555-2.241
		c2.753,0.005,5.221,0.749,7.202,2.773c0.939,1.237,1.568,2.598,1.671,4.171c-0.052,0.51-0.169,1.005-0.348,1.486
		c-0.911-0.086-1.331-0.726-1.658-1.471c-1.032-0.177-2.094,0.125-3.122-0.187c-0.423-0.104-0.819-0.272-1.2-0.481
		C438.18,444.553,437.755,444.081,437.849,443.336z"/>
	<path fill="#D026EC" d="M446.383,448.629c-0.275-0.61-0.549-1.219-0.824-1.829c-0.585-3.084-2.552-5.478-4.043-8.11
		c6.98,0.425,9.183,2.895,9.28,10.408c-1.551-1.621-2.018-3.687-2.509-5.757c0.247,2.034,1.465,3.795,1.794,5.812
		c-0.181,0.586-0.568,0.805-1.162,0.659C448.436,448.643,447.613,448.198,446.383,448.629z"/>
	<path fill="#C01CDC" d="M443.76,456.037c3.185,4.273,1.523,6.42-3.083,7.796c-1.722,0.514-2.19,3.245-4.408,3.551
		c-0.758-0.024-1.335-0.354-1.72-1.012c-0.064-0.478,0.034-0.921,0.287-1.332c0.896-1.158,1.762-2.575,3.088-3.038
		c2.765-0.966,3.473-3.101,3.898-5.561C442.404,456.005,443.016,455.702,443.76,456.037z"/>
	<path fill="#9F14C1" d="M441.517,438.69c2.973,1.893,4.966,4.275,4.044,8.11c-0.284,0.113-0.572,0.213-0.864,0.302
		c-0.114-0.333-0.228-0.666-0.343-0.999c0.101-1.805-0.447-3.356-1.796-4.594c-2.129-0.946-4.258-1.892-6.387-2.837
		C437.958,437.402,439.736,438.491,441.517,438.69z"/>
	<path fill="#B41FD1" d="M443.76,456.037c-0.627,0.251-1.253,0.502-1.88,0.753c-1.464,2.953-3.409,4.776-6.911,2.936
		c-0.575-0.728-0.801-1.539-0.576-2.455c0.745-1.145,1.828-1.293,3.05-1.029c1.966-0.306,4.034-0.113,5.839-1.199
		c0.168-0.351,0.387-0.51,0.657-0.48c0.258,0.029,0.405,0.092,0.442,0.189C444.173,455.18,443.967,455.608,443.76,456.037z"/>
	<path fill="#C21CE1" d="M448.92,449.811c0.3-0.123,0.6-0.244,0.901-0.363c0.591-0.159,0.841,0.439,1.294,0.585
		c0.202,0.796,0.713,1.665,0.546,2.374c-0.4,1.704,0.834,5.001-1.8,4.715c-2.988-0.325,0.146-2.884-0.362-4.425
		C449.194,451.771,449.106,450.775,448.92,449.811z"/>
	<path fill="#BD1ADB" d="M428.853,447.748c0.321,0.997,0.641,1.994,0.962,2.991c-0.084,0.962-0.444,1.828-0.896,2.665
		c-0.101,0.364-0.193,0.728-0.242,1.103c-0.071,1.392,0.793,2.743,0.177,4.154c-0.319,0.348-0.69,0.401-1.106,0.201
		c-0.902-1.445-1.804-2.891-2.707-4.336c0.505-0.819-0.343-1.672,0.062-2.495c0.505-1.112,2.009-0.713,2.589-1.713
		C428.079,449.462,428.466,448.605,428.853,447.748z"/>
	<path fill="#B512D2" d="M437.226,427.44c-1.246,2.489-2.492,4.979-3.817,7.625c-1.871-1.946,1.788-4.239-0.829-5.78
		c-0.923-2.757,2.383-0.489,2.454-2.065c0.613-0.193,1.226-0.387,1.84-0.58C437.331,426.757,437.448,427.024,437.226,427.44z"/>
	<path fill="#B71BD5" d="M435.035,427.22c0.131,1.816-2.265,0.628-2.454,2.065c-1.507,0.782-3.578,0.642-4.33,2.655
		c-2.793-1.89,1.488-2.116,0.825-3.505C430.691,426.21,433.03,427.534,435.035,427.22z"/>
	<path fill="#A424C2" d="M444.38,454.751c-0.365,0.097-0.731,0.195-1.098,0.292c0.797-1.999-0.591-5.274,3.217-5.513
		C447.464,451.948,447.035,453.801,444.38,454.751z"/>
	<path fill="#DF19F4" d="M437.226,427.44c-0.105-0.273-0.222-0.54-0.352-0.801c0.732-1.32,1.372-0.03,2.021,0.108
		c1.34,0.284,2.15,1.05,1.411,2.478c-0.275,0.533-0.936,1.227-1.422,1.228C436.689,430.456,438.015,428.337,437.226,427.44z"/>
	<path fill="#B816D8" d="M451.116,450.033c-0.431-0.195-0.863-0.39-1.294-0.585c-0.804-2.128-1.607-4.257-2.411-6.385
		c0.321-0.128,0.641-0.257,0.962-0.385c0.808,2.14,1.616,4.28,2.424,6.42C450.899,449.411,451.005,449.722,451.116,450.033z"/>
	<path fill="#A716C2" d="M434.624,465.958c0.548,0.475,1.097,0.951,1.645,1.426c-0.092,0.714-0.184,1.428-0.276,2.141
		c-1.956-0.009-2.682-1.349-3.181-2.936C433.203,465.768,433.838,465.645,434.624,465.958z"/>
	<path fill="#D51FEF" d="M427.692,450.318c-0.22,1.363-1.375,1.569-2.398,1.938c-0.838-0.351-1.011-0.978-0.741-1.788
		c0,0,0.013-0.05,0.013-0.05C425.508,447.239,426.654,450.476,427.692,450.318z"/>
	<path fill="#E119FA" d="M443.58,427.297c0.347,0.92,0.695,1.84,1.042,2.76c-1.429-0.602-3.813-0.921-1.076-2.783
		C443.546,427.274,443.58,427.297,443.58,427.297z"/>
	<path fill="#BD1AD9" d="M419.517,442.726c0.906,0.129,1.329,0.776,1.648,1.535c0.806,4.751,0.868,9.519,0.355,14.304
		c-0.114,1.068,0.551,2.491-1.179,2.813c-1.247,0.232-1.553-1.026-2.267-1.643c-1.194-1.033-1.632-2.477-2.172-3.87
		c-0.649-0.707-0.265-1.234,0.296-1.728c0.418-0.177,0.858-0.242,1.303-0.198c0.419,0.223,0.664,0.61,0.868,1.031
		c0.35-0.451,0.061-0.898-0.116-1.257c-0.4-0.812-1.479,0.109-1.953-0.673c-0.825-0.892-1.183-1.934-1.036-3.14
		c0.197-0.705,0.688-1.122,1.344-1.367c0.786-0.127,1.491-0.353,1.473-1.37c-0.005-0.404,0.031-0.796,0.076-1.191
		C418.384,444.794,418.363,443.512,419.517,442.726z"/>
	<path fill="#C319E1" d="M416.5,454.546c-0.199,0.44-0.398,0.879-0.598,1.319c-4.697-1.415-3.634-5.686-4.471-9.016
		c-0.037-1.055-0.073-2.11-0.11-3.165c0.313-0.117,0.625-0.234,0.937-0.35c1.597,0.786,1.815,2.308,1.874,3.803
		C414.24,449.843,415.23,452.231,416.5,454.546z"/>
	<path fill="#C01CDC" d="M434.624,465.958c-0.604,0.21-1.209,0.421-1.813,0.631c-1.688-2.575-3.376-5.15-5.063-7.726
		c0.309-0.116,0.617-0.232,0.925-0.348c0.334-0.498,0.773-0.622,1.319-0.377c1.981,2.319,4.217,4.485,4.671,7.729
		C434.662,465.867,434.624,465.958,434.624,465.958z"/>
	<path fill="#E317FA" d="M423.212,472.303c-0.472-1.914,0.517-2.571,2.522-2.655c0.145,1.921-1.358,2.138-2.504,2.658
		C423.23,472.307,423.212,472.303,423.212,472.303z"/>
	<path fill="#AE0ECC" d="M424.554,450.469c0.247,0.596,0.493,1.193,0.74,1.789c0.225,0.79,0.377,1.574-0.253,2.269
		C424.515,453.218,422.563,452.08,424.554,450.469z"/>
	<path fill="#6535E5" d="M387.185,385.449c-0.745-0.084-1.912-0.21-1.667-1.021c0.328-1.089,1.421-0.825,2.268-0.247
		C387.587,384.604,387.386,385.027,387.185,385.449z"/>
	<path fill="#7543F4" d="M348.011,508.246c-1.054,0.041-2.109,0.083-3.164,0.125c-4.171-1.647-8.343-3.294-12.514-4.941
		c-0.238-0.616-0.476-1.233-0.714-1.849c2.293-0.424,4.181,3.334,6.693,0.647c0,0-0.011,0.01-0.011,0.01
		c2.381,2.043,5.678,2.429,8.065,4.462C346.914,507.215,347.462,507.73,348.011,508.246z"/>
	<path fill="#734DEB" d="M326.347,496.085c2.315-0.541,3.25,1.094,4.22,2.675C328.755,498.507,327.139,497.946,326.347,496.085z"/>
	<path fill="#6C3BE7" d="M346.366,506.7c-2.943-1.027-6.19-1.504-8.065-4.462c2.027,0.67,4.054,1.34,6.08,2.01
		c0.986,0.687,1.972,1.373,2.958,2.06C347.015,506.439,346.69,506.569,346.366,506.7z"/>
	<path fill="#D320F0" d="M421.231,430.33c1.485,0.472,2.97,0.944,5.443,1.73c-4.402,1.871-7.133,4.371-9.514,7.277
		C416.794,435.556,418.959,432.919,421.231,430.33z"/>
	<path fill="#C31BDF" d="M417.531,448.83c-0.619,0.234-1.237,0.468-1.856,0.702c-3.011-1.345-1.329-4.491-2.509-6.539
		c-0.646-1.85,0.841-2.749,1.742-3.909c0.5,1.19,1.34,1.642,2.594,1.191c0,0,0.015,0.008,0.015,0.008
		c1.929,1.675,0.8,3.963,1.191,5.946l-0.019,0.027C418.194,447.065,418.334,448.159,417.531,448.83z"/>
	<path fill="#D420EB" d="M413.166,442.993c0.793-0.142,1.87-0.361,1.464,0.938c-0.663,2.122,0.456,3.784,1.045,5.601
		c0.479,1.247,0.958,2.495,1.437,3.742c0.384,0.216,0.483,0.524,0.296,0.923c-0.301,0.119-0.604,0.236-0.907,0.35
		c-5.127-2.333-2.523-7.591-4.241-11.213C412.561,443.22,412.864,443.106,413.166,442.993z"/>
	<path fill="#881AA7" d="M437.442,456.242c-0.927,0.35-1.854,0.7-2.781,1.05c-2.455-0.723-5.641-0.87-3.884-4.919
		c1.331,1.184,2.883,0.415,4.339,0.492c0.849-0.904,1.542-0.283,2.247,0.229C438.813,454.108,434.691,455.26,437.442,456.242z"/>
	<path fill="#931FB2" d="M437.364,453.094c-0.749-0.076-1.498-0.152-2.247-0.229c-0.479-1.267-0.959-2.534-1.439-3.801
		c-0.014-0.912,0.427-1.502,1.275-1.806c0.676-0.035,1.04,0.512,1.53,0.824C437.208,449.677,437.663,451.319,437.364,453.094z"/>
	<path fill="#851CA6" d="M439.551,444.809c1.351-0.528,2.512-0.248,3.487,0.822c-0.77,5.057-2.59,1.535-4.105,0.503
		C438.84,445.552,439.041,445.108,439.551,444.809z"/>
	<path fill="#901DB0" d="M439.551,444.809c-0.206,0.441-0.412,0.882-0.618,1.324c-1.031,0.381-2.202,0.584-2.45,1.949
		c-0.43-0.198-0.861-0.396-1.291-0.594c-0.805-0.882-0.521-1.693,0.161-2.477c1.341-0.475,2.708-0.535,4.096-0.238L439.551,444.809z
		"/>
	<path fill="#B218CE" d="M418.708,446.228c-1.101-1.841-0.795-3.964-1.191-5.946c2.53-0.71,2.055,1.039,2,2.444
		C419.248,443.893,418.978,445.061,418.708,446.228z"/>
	<path fill="#D82BF6" d="M430.778,452.373c-0.58,3.119,2.811,3.104,3.884,4.919c0.227,0.638,0.455,1.276,0.682,1.914
		c-2.061,1.963-3.587,0.594-5.019-0.871c-1.314-1.344-1.832-3.14-2.475-4.851c0.656-0.916,1.312-1.832,1.967-2.747
		C430.136,451.284,430.457,451.828,430.778,452.373z"/>
	<path fill="#C82EE6" d="M435.554,445.358c-0.12,0.71-0.241,1.42-0.361,2.129c-0.505,0.526-1.01,1.052-1.515,1.577
		c-3.29-2.701-1.391-3.786,1.427-4.584C435.657,444.567,435.826,444.85,435.554,445.358z"/>
	<path fill="#B52FD8" d="M435.554,445.358c-0.162-0.287-0.312-0.58-0.449-0.878c0.915-0.381,1.83-0.763,2.744-1.144
		c0.534,0.479,1.069,0.958,1.602,1.437C438.233,445.51,436.899,445.474,435.554,445.358z"/>
	<path fill="#B62ECE" d="M442.558,441.509c1.965,0.998,2.543,2.538,1.795,4.595C443.755,444.572,443.156,443.04,442.558,441.509z"/>
	<path fill="#D721F0" d="M427.849,453.485c2.63,1.734,2.828,6.654,7.494,5.721c2.976,1.35,4.398-1.505,6.537-2.417
		c1.223,2.615,1.463,4.946-2.189,5.496c-2.373,0.358-2.568,3.513-5.029,3.582c-2.245-2.197-4.212-4.576-5.053-7.695
		c-1.294-1.297-1.867-2.866-1.769-4.688L427.849,453.485z"/>
	<path fill="#D51FEF" d="M427.84,453.483c0.59,1.563,1.18,3.125,1.769,4.688c-0.313,0.113-0.625,0.227-0.937,0.343
		C428.313,456.851,426.786,455.381,427.84,453.483z"/>
	<path fill="#AE13CC" d="M417.407,454.196c-0.105-0.306-0.204-0.613-0.296-0.923c1.983-0.135,1.983-0.135,2.264,3.779
		C417.654,456.797,418.104,455.091,417.407,454.196z"/>
	<path fill="#D01FE5" d="M417.531,448.83c-0.419-1.221-0.053-2.088,1.159-2.574c0.382,1.147,1.201,2.392,0.091,3.431
		C418.248,450.186,417.812,449.346,417.531,448.83z"/>
</g>
<path fill="#0F5658" d="M246.654,584.859c-56.559,1.339-104.534-34.576-117.734-87.546c-9.806-39.352,0.131-73.848,27.777-103.148
	c20.858-22.106,46.356-36.16,76.539-40.867c26.504-4.133,51.084,1.768,73.219,16.642c30.932,20.786,48.739,50.154,51.197,87.221
	c1.915,28.881-2.672,57.145-18.025,82.664c-12.404,20.618-30.807,33.072-53.564,39.789
	C272.672,583.567,258.99,584.898,246.654,584.859z"/>
<path fill="#97E0CB" d="M219.313,564.225c-37.409-8.276-68.154-41.071-74.196-78.375c-6.376-39.367,9.311-69.271,39.656-92.474
	c20.654-15.793,44.142-24.623,70.665-22.806c18.346,1.257,34.683,8.293,48.637,19.983c23.679,19.837,36.007,45.533,35.829,76.507
	c-0.108,18.715-3.15,37.099-11.069,54.368c-11.448,24.964-31.457,38.383-57.947,43.071c-4.576,0.81-9.167,1.615-13.847,1.544
	c-11.884-1.226-23.939,0.613-35.749-1.996C220.649,563.904,219.963,564.059,219.313,564.225z"/>
<path fill="#96DDD0" d="M219.313,564.225c3.603-1.963,7.026,0.581,10.632,0.468c9.036-0.283,18.16-0.916,27.095,1.349
	C244.382,567.13,231.773,567.232,219.313,564.225z"/>
<path fill="#2E98D9" d="M218.294,508.137c-0.01,6.861-2.993,10.727-7.246,11.439c-5.035,0.844-10.084-1.682-11.692-6.443
	c-2.552-7.554-4.916-15.187-6.962-22.892c-1.329-5.006,0.951-9.487,4.981-11.302c4.882-2.198,9.297-1.47,11.737,3.003
	C213.906,490.733,215.408,500.71,218.294,508.137z"/>
<path fill="#2E98D9" d="M309.409,474.449c-2.149-6.776-4.364-13.532-6.426-20.334c-1.617-5.331,0.826-10.801,5.342-12.372
	c5.698-1.982,10.962,0.619,12.992,6.542c2.512,7.328,5.207,14.603,6.946,22.175c0.686,2.027,0.733,4.051-0.034,6.07
	c-3.338,7.727-9.714,8.928-16.087,3.03c0.408-3.794-1.536-7.156-1.639-11.186C310.032,470.678,312.725,472.959,309.409,474.449z"/>
<path fill="#D71FF1" d="M246.286,401.567c10.331-4.493,20.834-5.507,30.783,0.43c7.572,4.518,8.874,12.315,8.223,20.526
	c-0.65,0.735-1.147,1.674-2.308,1.73c-1.085,0.042-1.889-0.426-2.442-1.346c-0.955-2.724-2.573-5.227-2.613-8.267
	c-0.049-3.79-3.587-0.71-4.764-2.339c-0.572-0.388-1.031-0.886-1.405-1.461c-0.704-2.015-2.387-2.916-4.208-3.669
	c-0.39-0.281-0.655-0.648-0.81-1.101c-0.141-1.497,0.727-2.158,2.027-2.464c2.019-0.319,3.807,0.46,5.595,1.233
	c-1.32-0.65-2.589-1.449-4.141-1.352c-0.456-0.028-0.906-0.098-1.35-0.202c-4.806-1.041-9.337-1.372-11.537,4.406
	c-0.73,1.56-1.902,2.946-1.841,4.806c-0.073,1.287-0.01,2.553,0.524,3.758c0.844,2.596,3.63,3.439,5.004,5.544
	c0.613,0.926,1.332,1.803,1.517,2.95c-1.117,0.936-1.125,2.584-2.249,3.53c-1.903,0.746-3.885,0.544-5.854,0.535
	c-3.647-0.149-5.572-2.584-7.171-5.431c-0.975-1.736-1.75-3.588-3.039-5.138c-1.061-1.56-1.259-3.262-0.827-5.063
	c0.734-1.406,1.65-2.387,3.982-1.072c-1.793-1.543-3.616-2.371-3.41-4.538c0.312-0.362,0.757-0.557,1.112-0.853
	c0.172-0.143-0.1-0.322-0.479-0.122c-0.558,0.294-1.123,0.592-0.882,1.398c0.135,0.625,0.349,1.234,0.272,1.888
	c-0.524,2.097-1.53,4.126-0.855,6.387c0.327,2.431-0.436,4.66-1.24,6.884c-1.459,1.178-0.654,5.397-4.508,3.381
	c0.161-5.381-2.123-11.052,1.891-15.977c1.591-0.52,1.309-2.11,1.846-3.233c0.223-2.102,2.12-3.153,3.03-4.823
	c0,0,0.037-0.027,0.037-0.027c0.686-0.295,1.371-0.59,2.057-0.885c0.119,0.098,0.209,0.229,0.347,0.305
	C246.105,401.448,246.777,402.018,246.286,401.567z"/>
<path fill="#D51FEF" d="M254.21,427.546c2.33-0.008,4.661-0.016,6.991-0.024c0.209,0.002,0.418,0.003,0.627,0.001
	c1.265,0.106,2.518,0.045,3.752-0.294c1.546-0.377,3.069-0.84,4.65-1.045c2.72-0.766,5.57-0.808,8.296-1.528
	c1.485-0.54,3.244,0.1,4.584-1.073c0.727-0.353,1.454-0.706,2.181-1.059c-0.173,5.008-1.175,9.773-4.085,13.981
	c-0.209-0.222-0.313-0.333-0.313-0.333c-0.132-0.081-0.03,0.035,0.304,0.349c-0.35,0.921-0.7,1.843-1.05,2.764
	c-1.828,2.234-4.171,2.832-7.028,2.804c-5.616-0.054-11.255-0.47-16.853,0.38c-1.614-0.462-3.272-0.856-4.282-2.4
	c0.007-0.875,0.468-1.477,1.165-1.932c3.219-0.77,6.777,1.207,9.802-1.195c1.398-0.776,3.255-0.384,4.637-1.931
	c-3.844-3.521-9.447-3.162-13.417-6.191C253.884,428.384,253.912,427.961,254.21,427.546z"/>
<path fill="#97DDCE" d="M255.215,441.508c6.201,0.765,12.421,0.195,18.631,0.291c2.494,0.038,4.184-1.724,6.3-2.514
	c-0.88,2.66-2.876,3.361-5.459,3.28c-2.987-0.094-5.979-0.054-8.968-0.011c-3.588,0.052-6.891,0.012-10.351,2.298
	c-3.098,2.047-7.656,0.205-12.002,1.734c1.934-4.321,4.657-2.2,6.966-2.103c1.096,0.046,2.516,0.569,3.214-0.613
	c0.698-1.185-1.049-1.432-1.32-2.326C253.215,440.842,254.211,440.882,255.215,441.508z"/>
<path fill="#7042EB" d="M266.353,541.531c-0.2-0.211-0.28-0.46-0.239-0.748c-0.795-1.534,0.019-2.629,1.001-3.68
	c0.489-0.772,1.067-1.466,1.788-2.033c1.263-0.856,2.516-1.724,3.335-3.068c0.757-1.099,1.589-2.135,2.546-3.068
	c1.488-0.889,2.288-3.07,4.582-2.459c2.961,3.591-1.781,4.587-2.344,6.998c-1.571,2.262-3.608,4.13-5.284,6.312
	C270.412,541.512,268.739,542.782,266.353,541.531z"/>
<path fill="#7C76DF" d="M291.048,521.447c-4.044,5.256-8.848,9.776-13.764,14.186c-1.17-1.127-0.288-2.194,0.093-3.275
	c2.909-3.567,5.693-7.251,9.287-10.197C288.083,521.687,289.138,518.895,291.048,521.447z"/>
<path fill="#2F99DC" d="M309.409,474.449c2.448-3.231-0.929-5.855-1.185-9.208c1.809,0.194,2.765,1.204,2.817,2.417
	c0.139,3.244,1.537,6.104,2.419,9.113c0.438,1.496,0.751,2.616-1.316,2.788C310.616,478.185,309.96,476.345,309.409,474.449z"/>
<path fill="#734DEB" d="M278.215,532.535c-0.31,1.032-0.62,2.065-0.93,3.098c-1.33,1.645-2.661,3.29-3.992,4.935
	c-0.443,0.904-1.139,1.566-1.987,2.083c-1.664-0.317-3.569,0.432-4.953-1.12c5.541-0.522,6.31-6.292,9.88-8.981
	C276.889,531.981,277.549,531.92,278.215,532.535z"/>
<path fill="#785AE8" d="M282.183,519.485c2.064-2.351,4.116-4.715,6.199-7.049c0.928-1.039,1.919-1.228,2.879-0.001
	c0.815,3.812-2.544,5.227-4.323,7.554c-1.085,0.93-2.08,2.053-3.729,1.842C282.324,521.287,281.728,520.615,282.183,519.485z"/>
<path fill="#D22BEB" d="M245.071,435.826c-2.787-2.368-6.467-3.963-7.091-8.201c4.919-1.946,6.594,2.067,8.937,4.863
	C247.089,434.036,246.64,435.241,245.071,435.826z"/>
<path fill="#7D66EA" d="M282.183,519.485c0.351,0.689,0.702,1.379,1.053,2.068c0.42,2.669-1.617,3.648-3.332,4.851
	c-0.233,0.04-0.468,0.077-0.703,0.113c-1.325,1.005-2.65,2.009-3.975,3.014c-0.622-0.741-0.625-1.516-0.124-2.318
	C276.677,523.917,279.491,521.757,282.183,519.485z"/>
<path fill="#C81EE3" d="M246.223,432.549c-2.754-1.629-4.193-5.46-8.242-4.924c-0.197-0.363-0.394-0.726-0.59-1.089
	c2.88,1.042,1.435-3.419,3.822-3.003c0.183,0.119,0.367,0.238,0.554,0.351c2.257,2.031,4.07,4.577,6.91,5.943
	c0.385,0.292,0.681,0.651,0.904,1.078c0.268,1.616-0.574,2.244-2.05,2.309C247.04,433.101,246.601,432.885,246.223,432.549z"/>
<path fill="#7A65E5" d="M275.103,527.214c0.041,0.773,0.083,1.545,0.124,2.318c-0.668,1.002-1.336,2.004-2.004,3.006
	c-1.357,0.967-2.803,1.814-3.993,3.003c-0.341,0.655-0.682,1.31-1.023,1.965c-1.132,0.509-1.713-0.091-2.115-1.052
	C268.595,532.887,271.213,529.43,275.103,527.214z"/>
<path fill="#96DFCE" d="M257.285,511.523c4.276,2.851-1.58,4.742-0.213,7.182c-1.699,0.371-1.107-3.598-3.284-1.101
	c-2.593,2.973-1.429-0.585-1.638-1.07c-0.542-1.263-1.585-2.653-0.072-3.998C254.122,513.781,255.872,513.519,257.285,511.523z"/>
<path fill="#6831EE" d="M286.208,519.512c1.554-2.452,4.171-4.146,5.053-7.077c1.485-0.001,2.542,0.601,2.964,2.1
	c-0.656,2.989-3.053,4.321-5.413,5.693c-0.835,0.494-1.691,0.861-2.68,0.468c-0.257-0.28-0.331-0.549-0.223-0.806
	C286.015,519.638,286.115,519.512,286.208,519.512z"/>
<path fill="#7558E9" d="M288.258,519.569c1.989-1.678,3.978-3.356,5.968-5.035c2.239,3.819-2.027,4.65-3.176,6.913
	c-1.732-1.198-2.308,1.491-3.792,1.126C286.632,521.253,287.709,520.499,288.258,519.569z"/>
<path fill="#91E3CA" d="M266.191,394.414c-4.348,1.262-8.696,1.745-13.093,1.082c-1.13-0.17-2.229-0.871-1.548-1.885
	c1.235-1.839,1.074,0.79,1.795,0.793C257.627,394.425,261.909,394.414,266.191,394.414z"/>
<path fill="#92E3C4" d="M197.228,457.535c0.261-1.38,1.033-1.938,1.617-0.384c0.694,1.848,1.096,4.19-0.691,5.563
	c-1.767,1.357-4.002,1.486-5.924-0.195C194.544,461.508,196.158,459.794,197.228,457.535z"/>
<path fill="#CC83EE" d="M257.285,511.523c0.062,1.495,0.075,3.21-1.692,3.547c-1.743,0.332-3.063-0.683-3.513-2.534
	C253.554,510.863,255.494,511.574,257.285,511.523z"/>
<path fill="#9CDCD3" d="M273.989,445.285c-4.578,0-9.155,0-13.733,0c0-0.166,0-0.333,0-0.499c4.578,0,9.157,0,13.735,0
	C273.991,444.952,273.99,445.119,273.989,445.285z"/>
<path fill="#D770FA" d="M293.235,453.341c-0.076,1.067-0.399,1.984-1.671,1.987c-1.379,0.003-2.178-0.843-2.191-2.14
	c-0.015-1.436,1.194-2.019,2.342-2.001C292.846,451.205,293.204,452.275,293.235,453.341z"/>
<path fill="#D91DF2" d="M246.223,432.549c0.32,0.003,0.641,0.005,0.961,0.005c1.285,0.875,2.665,1.644,3.472,3.07
	c0.143,0.46,0.18,0.923,0.104,1.401c-0.177,0.471-0.483,0.827-0.918,1.076c-1.025,0.405-1.93,0.155-2.76-0.5
	c-0.67-0.592-1.339-1.184-2.009-1.776C245.455,434.734,245.839,433.642,246.223,432.549z"/>
<path fill="#A3D7DA" d="M197.228,457.535c0.655,3.989-1.01,5.651-4.998,4.983c-0.003-0.324-0.007-0.647-0.011-0.971
	c0.292-0.551,0.752-0.953,1.203-1.361c0.651-0.794,0.97-1.802,1.661-2.568C195.798,457.591,196.513,457.563,197.228,457.535z"/>
<path fill="#DC65F5" d="M222.898,424.194c0.974,0.369,1.85,0.959,1.65,2.104c-0.161,0.926-1.095,1.23-1.952,1.116
	c-0.924-0.122-1.459-0.772-1.305-1.743C221.428,424.813,221.822,424.113,222.898,424.194z"/>
<path fill="#92E2C3" d="M286.531,427.39c0-1.997,0-3.994,0-6.718C289.202,423.389,285.825,425.385,286.531,427.39z"/>
<path fill="#B9A1DF" d="M194.264,461.42c-0.682,0.043-1.363,0.085-2.045,0.128c-1.794-2.6-1.484-4.09,2.047-3.883
	C194.387,458.917,194.39,460.168,194.264,461.42z"/>
<path fill="#CE29E8" d="M247.081,437.601c1.047-0.022,2.094-0.045,3.141-0.067c1.342-0.673,2.241-0.035,3,1.015
	c-0.336,0.33-0.672,0.66-1.008,0.99c-0.312,0.567-0.623,1.134-1.307,1.337c-1.606-0.172-2.83-0.949-3.678-2.322
	C247.176,438.238,247.126,437.92,247.081,437.601z"/>
<path fill="#96E3C0" d="M285.479,532.103c-0.276-2.388,0.694-3.316,2.353-3.993C288.526,530.218,287.343,531.137,285.479,532.103z"
	/>
<path fill="#94E4C1" d="M235.77,421.232c0.603,1.983,0.728,3.649-0.095,5.607C235.057,424.86,234.952,423.194,235.77,421.232z"/>
<path fill="#97DDCE" d="M247.228,438.555c1.336,0.649,2.672,1.297,4.008,1.946c0.248,0.146,0.368,0.328,0.359,0.545
	c-0.009,0.235-0.045,0.353-0.109,0.353C249.236,441.696,247.451,441.295,247.228,438.555z"/>
<path fill="#734DEB" d="M266.091,536.455c0.705,0.351,1.411,0.702,2.116,1.052c-0.682,1.101-2.186,1.676-2.092,3.275
	C265.162,539.345,264.594,537.905,266.091,536.455z"/>
<path fill="#96E0C4" d="M276.661,540.218c0.735-1.544,1.607-2.415,2.768-3.017c0.169,0.244,0.493,0.545,0.437,0.658
	C279.257,539.09,278.548,540.231,276.661,540.218z"/>
<path fill="#94DCC9" d="M238.698,433.463c1.459,0.33,2.35,1.182,3.054,2.73C239.651,436.189,239.151,434.804,238.698,433.463z"/>
<path fill="#CD7CF1" d="M194.264,461.42c-1.018-1.253-1.055-2.505,0.001-3.756c0.271-0.043,0.544-0.058,0.818-0.045
	C195.166,458.963,195.775,460.42,194.264,461.42z"/>
<path fill="#319CDA" d="M328.23,476.53c0.011-2.023,0.023-4.046,0.034-6.069C329.576,472.491,329.675,474.515,328.23,476.53z"/>
<path fill="#D32DEF" d="M251.487,441.399c-0.127-0.287-0.21-0.587-0.251-0.898c0.326-0.32,0.651-0.641,0.977-0.961
	c1.001,0.656,2.001,1.312,3.002,1.968c-0.996,0.012-1.993,0.024-2.989,0.035c0,0-0.354-0.151-0.354-0.151L251.487,441.399z"/>
<path fill="#D528F2" d="M241.128,407.327c-0.644,1.061,2.071,4.041-1.846,3.232C239.647,409.339,239.975,408.097,241.128,407.327z"
	/>
<path fill="#8DE7C4" d="M244.158,402.504c-0.83-0.109-1.744-0.222-1.529-1.368c0.065-0.347,0.837-0.917,0.987-0.835
	c0.879,0.478,0.501,1.407,0.579,2.176C244.195,402.476,244.158,402.504,244.158,402.504z"/>
<path fill="#A4DEE7" d="M271.306,542.65c0.315-1.026,1.047-1.653,1.986-2.083C273.809,542.386,273.052,542.99,271.306,542.65z"/>
<path fill="#2D99E3" d="M195.966,496.73c3.31,1.618,3.533,3.536,2.962,6.191C197.266,501.255,196.663,499.503,195.966,496.73z"/>
<path fill="#2F97E9" d="M207.906,482.497c0.48,0.815,0.844,1.182,0.888,1.584c0.037,0.334-0.302,0.709-0.475,1.067
	c-0.315-0.264-0.789-0.475-0.898-0.806C207.318,484.026,207.596,483.585,207.906,482.497z"/>
<path fill="#791599" d="M267.233,406.479c0.289,0.092,0.584,0.162,0.883,0.21c0.102,2.964,3.666,2.827,4.558,5.087
	c1.068,1.979,0.392,3.764-0.597,5.514c-1.726,2.675-3.195,0.461-4.756-0.246c-1.562-0.195-3.143-0.256-4.606-0.918
	c-1.169-0.745-1.437-1.828-1.18-3.11c0.016-1.503,3.148-1.891,1.434-4.024c0.075-0.968,0.794-1.518,1.368-2.165
	c0.31-0.321,0.673-0.569,1.073-0.766C266.089,405.883,266.708,405.977,267.233,406.479z"/>
<path fill="#C31BDF" d="M249.215,430.548c-0.333-0.004-0.666-0.007-0.998-0.011c-1.947-1.367-3.456-3.222-3.702-5.522
	c-0.305-2.853-2.103-1.227-3.286-1.468c0,0-0.016-0.014-0.016-0.014c0.338-2.665,0.676-5.33,1.015-7.995
	c2.131-1.018,0.772,3.153,2.988,2.01c2.029,1.82,2.393,4.63,3.966,6.7c1.259,1.657,2.457,3.573,5.029,3.297
	c0.01,0.328,0.02,0.656,0.029,0.983c-0.434,0.807-1.182,1.18-2.001,1.458c-0.796,0.205-1.625,0.242-2.422,0.456
	C249.616,430.481,249.416,430.515,249.215,430.548z"/>
<path fill="#8517A6" d="M260.217,422.569c-1.335-2.28-4.913-2.646-5.065-5.935c0.236-2.209,0.895-3.179,2.659-0.906
	c-0.16-1.518-1.161-3.251,0.913-4.226c0.335-0.158,0.825,0.39,1.107,0.795c0.456,0.867,0.575,1.811,0.628,2.769
	c-0.068,2.136,0.505,3.52,3.052,2.618c1.174-0.221,2.327-0.241,3.418,0.349c1.518,2.445,0.59,4.058-1.766,5.191
	c-0.703,0.266-1.43,0.381-2.181,0.339C261.991,423.427,261.048,423.152,260.217,422.569z"/>
<path fill="#901DB0" d="M259.267,412.595c-0.272,0.492-3.462,3.622-4.114,4.038c-1.248-1.174-0.879-2.679-0.841-4.117
	c0.978-2.574,2.545-4.62,5.138-5.758c1.489-0.441,2.985-0.549,4.492-0.09c0.458,0.228,0.88,0.513,1.267,0.85
	c-0.403,0.822-1.15,0.989-1.962,1.032c-0.53,0.903-0.623,2.004-1.278,2.855c-0.247,0.359-0.543,0.67-0.874,0.953
	C260.521,412.715,259.931,412.945,259.267,412.595z"/>
<path fill="#D026EC" d="M267.233,406.479c-0.667,0.042-1.334,0.083-2.002,0.125c-3.092-0.542-6.027,0.453-9.016,0.918
	c2.863-6.38,5.952-7.568,13.015-5.006c-2.065,0.878-4.162,0.585-6.272,0.313c1.99,0.487,4.068-0.03,6.071,0.375
	c0.485,0.376,0.552,0.816,0.206,1.32C267.971,404.564,267.265,405.177,267.233,406.479z"/>
<path fill="#C01CDC" d="M273.236,411.551c5.123-1.471,6.544,0.843,6.204,5.638c-0.127,1.792,2.262,3.195,1.765,5.379
	c-0.29,0.7-0.803,1.124-1.554,1.252c-0.47-0.109-0.85-0.357-1.145-0.739c-0.766-1.248-1.787-2.558-1.752-3.962
	c0.073-2.928-1.674-4.344-3.826-5.611C272.728,412.808,272.661,412.129,273.236,411.551z"/>
<path fill="#9F14C1" d="M256.215,407.522c2.821-2.113,5.753-3.136,9.016-0.918c0.005,0.306-0.003,0.611-0.023,0.915
	c-0.352-0.011-0.704-0.022-1.056-0.032c-1.653-0.732-3.297-0.767-4.932,0.057c-1.637,1.658-3.274,3.315-4.91,4.973
	C253.753,410.397,255.4,409.118,256.215,407.522z"/>
<path fill="#B41FD1" d="M273.236,411.551c0.014,0.675,0.027,1.35,0.041,2.025c2.245,2.413,3.264,4.876,0.306,7.503
	c-0.884,0.28-1.723,0.205-2.5-0.328c-0.808-1.101-0.563-2.167,0.114-3.217c0.409-1.947,1.319-3.814,0.941-5.887
	c-0.268-0.281-0.341-0.543-0.217-0.784c0.118-0.231,0.229-0.347,0.333-0.347C272.581,410.861,272.909,411.206,273.236,411.551z"/>
<path fill="#C21CE1" d="M269.235,404.524c-0.009-0.324-0.016-0.648-0.021-0.971c0.06-0.609,0.708-0.631,1.004-1.004
	c0.816,0.092,1.809-0.079,2.414,0.328c1.453,0.976,4.973,0.986,3.775,3.349c-1.359,2.681-2.647-1.155-4.268-1.224
	C271.166,404.96,270.203,404.691,269.235,404.524z"/>
<path fill="#BD1ADB" d="M260.217,422.569c1.046,0.052,2.092,0.104,3.138,0.156c0.87,0.418,1.553,1.061,2.177,1.78
	c0.305,0.224,0.613,0.438,0.946,0.616c1.277,0.558,2.847,0.227,3.949,1.302c0.213,0.421,0.131,0.787-0.202,1.106
	c-1.671,0.333-3.342,0.667-5.013,1c-0.587-0.761-1.685-0.27-2.312-0.94c-0.862-0.865,0.043-2.131-0.688-3.027
	C261.546,423.898,260.882,423.234,260.217,422.569z"/>
<path fill="#B512D2" d="M244.175,407.562c1.889,2.045,3.778,4.09,5.785,6.264c-2.482,1.063-3.334-3.171-5.7-1.266
	c-2.905-0.11,0.384-2.402-1.065-3.025c0.036-0.642,0.071-1.284,0.107-1.926C243.573,407.223,243.864,407.207,244.175,407.562z"/>
<path fill="#B71BD5" d="M243.195,409.534c1.746,0.519-0.213,2.341,1.065,3.025c0.199,1.686-0.663,3.575,0.955,4.989
	c-2.755,1.945-1.454-2.14-2.988-2.01C240.716,413.241,242.781,411.521,243.195,409.534z"/>
<path fill="#A424C2" d="M272.253,410.516c-0.038,0.376-0.076,0.753-0.115,1.13c-1.588-1.452-5.143-1.31-4.021-4.958
	C270.719,406.641,272.302,407.697,272.253,410.516z"/>
<path fill="#DF19F4" d="M244.175,407.562c-0.292,0.002-0.584,0.017-0.874,0.046c-0.977-1.151,0.456-1.294,0.815-1.853
	c0.739-1.153,1.742-1.64,2.817-0.445c0.401,0.446,0.817,1.309,0.646,1.764C246.807,409.129,245.294,407.141,244.175,407.562z"/>
<path fill="#B816D8" d="M270.218,402.548c-0.335,0.335-0.669,0.669-1.004,1.004c-2.275,0-4.55,0-6.825,0
	c-0.007-0.345-0.014-0.691-0.02-1.036c2.287,0,4.575,0,6.862,0C269.559,402.531,269.889,402.542,270.218,402.548z"/>
<path fill="#A716C2" d="M279.291,423.602c0.638-0.345,1.277-0.69,1.915-1.035c0.635,0.338,1.271,0.676,1.905,1.015
	c-0.7,1.827-2.21,2.033-3.87,1.939C278.612,424.864,278.72,424.227,279.291,423.602z"/>
<path fill="#D51FEF" d="M262.211,424.563c1.198,0.687,0.982,1.84,0.966,2.928c-0.625,0.66-1.272,0.601-1.934,0.061
	c0,0-0.042-0.029-0.042-0.03C258.558,425.518,261.992,425.589,262.211,424.563z"/>
<path fill="#E119FA" d="M246.286,401.567c0.983,0,1.967,0,2.95,0c-1.068,1.124-2.209,3.242-2.984,0.023
	C246.252,401.591,246.286,401.567,246.286,401.567z"/>
<path fill="#BD1AD9" d="M252.22,429.529c0.44-0.802,1.195-0.969,2.018-0.999c4.729,0.924,9.212,2.55,13.507,4.72
	c0.958,0.484,2.525,0.364,2.215,2.097c-0.223,1.249-1.508,1.091-2.338,1.54c-1.388,0.752-2.894,0.652-4.387,0.665
	c-0.891,0.358-1.248-0.188-1.512-0.888c-0.018-0.454,0.077-0.888,0.275-1.288c0.357-0.313,0.805-0.406,1.272-0.448
	c-0.298-0.486-0.819-0.374-1.217-0.335c-0.901,0.087-0.421,1.422-1.32,1.589c-1.126,0.457-2.227,0.423-3.304-0.14
	c-0.59-0.433-0.807-1.04-0.804-1.74c0.159-0.78,0.197-1.52-0.761-1.862c-0.38-0.138-0.734-0.31-1.087-0.492
	C253.755,431.32,252.548,430.886,252.22,429.529z"/>
<path fill="#C319E1" d="M262.213,436.526c0.341,0.342,0.682,0.683,1.023,1.025c-2.983,3.894-6.604,1.392-10.014,0.998
	c-1-0.338-2-0.677-3-1.015c0.001-0.334,0.002-0.667,0.003-1.001c1.3-1.216,2.801-0.883,4.22-0.41
	C257.014,436.979,259.598,436.897,262.213,436.526z"/>
<path fill="#C01CDC" d="M279.291,423.602c-0.017,0.64-0.034,1.28-0.05,1.919c-3.005,0.669-6.011,1.339-9.016,2.008
	c0.001-0.33,0.001-0.659,0.001-0.988c-0.348-0.488-0.309-0.943,0.114-1.367c2.869-1.034,5.686-2.361,8.88-1.64
	C279.219,423.534,279.291,423.602,279.291,423.602z"/>
<path fill="#E317FA" d="M281.196,436.52c-1.957-0.235-2.223-1.392-1.593-3.297c1.848,0.543,1.52,2.025,1.603,3.281
	C281.206,436.505,281.196,436.52,281.196,436.52z"/>
<path fill="#AE0ECC" d="M261.243,427.552c0.645-0.02,1.29-0.04,1.935-0.061c0.819,0.069,1.605,0.203,2.033,1.038
	C263.801,428.56,262.047,429.983,261.243,427.552z"/>
<path fill="#6535E5" d="M252.99,390.006c-0.342,0.667-0.872,1.714-1.544,1.199c-0.903-0.692-0.27-1.621,0.57-2.21
	C252.341,389.332,252.666,389.669,252.99,390.006z"/>
<path fill="#7543F4" d="M288.258,519.569c-0.334,1.001-0.667,2.002-1.001,3.004c-3.014,3.321-6.028,6.641-9.043,9.962
	c-0.661,0.005-1.321,0.01-1.982,0.015c0.413-2.294,4.596-2.733,2.969-6.032c0,0,0.006,0.014,0.006,0.014
	c2.752-1.506,4.278-4.454,7.023-5.969C286.907,520.231,287.582,519.9,288.258,519.569z"/>
<path fill="#734DEB" d="M269.229,535.541c0.311-2.357,2.172-2.654,3.993-3.003C272.346,534.143,271.25,535.457,269.229,535.541z"/>
<path fill="#6C3BE7" d="M286.231,520.562c-2,2.391-3.593,5.26-7.023,5.969c1.343-1.66,2.685-3.319,4.028-4.978
	c0.991-0.68,1.981-1.36,2.972-2.04C286.216,519.862,286.223,520.212,286.231,520.562z"/>
<path fill="#D320F0" d="M241.229,423.547c0.966-1.223,1.933-2.445,3.541-4.481c0.195,4.779,1.57,8.217,3.447,11.471
	C244.551,429.544,242.848,426.587,241.229,423.547z"/>
<path fill="#C31BDF" d="M257.229,433.543c0,0.661,0.001,1.323,0.001,1.984c-2.322,2.342-4.671-0.343-7.004,0.037
	c-1.958-0.049-2.275-1.758-3.042-3.011c1.29-0.047,2.009-0.674,2.031-2.006c0,0,0.012-0.011,0.012-0.011
	c2.249-1.213,3.99,0.651,5.984,0.986l0.019,0.028C255.812,432.299,256.886,432.555,257.229,433.543z"/>
<path fill="#D420EB" d="M250.227,435.565c0.147-0.792,0.323-1.877,1.395-1.038c1.751,1.37,3.701,0.91,5.609,1.001
	c1.336-0.008,2.672-0.015,4.008-0.023c0.338-0.283,0.66-0.267,0.968,0.049c0.005,0.324,0.007,0.648,0.007,0.972
	c-3.994,3.973-7.992-0.321-11.988,0.007C250.226,436.211,250.226,435.888,250.227,435.565z"/>
<path fill="#881AA7" d="M271.197,417.533c0,0.991,0,1.982,0,2.973c-1.544,2.042-2.806,4.97-5.974,1.896
	c1.578-0.827,1.406-2.551,1.993-3.885c-0.545-1.113,0.28-1.543,1.008-2.021C269.685,415.497,269.307,419.761,271.197,417.533z"/>
<path fill="#931FB2" d="M268.224,416.495c-0.336,0.674-0.672,1.348-1.008,2.022c-1.355,0.001-2.709,0.002-4.064,0.003
	c-0.858-0.309-1.255-0.93-1.239-1.831c0.206-0.645,0.846-0.792,1.311-1.14C264.972,415.434,266.669,415.588,268.224,416.495z"/>
<path fill="#851CA6" d="M261.246,411.522c-0.017-1.451,0.655-2.438,2.001-2.972c4.459,2.507,0.521,2.965-0.98,4.018
	C261.69,412.45,261.345,412.105,261.246,411.522z"/>
<path fill="#901DB0" d="M261.246,411.522c0.34,0.348,0.68,0.697,1.02,1.046c-0.008,1.099-0.231,2.267,0.958,2.98
	c-0.337,0.333-0.675,0.665-1.012,0.998c-1.11,0.442-1.768-0.11-2.26-1.026c0.03-1.423,0.456-2.723,1.224-3.916L261.246,411.522z"/>
<path fill="#B218CE" d="M255.211,431.523c-2.111,0.379-3.989-0.657-5.984-0.986c0.229-2.618,1.698-1.556,2.993-1.008
	C253.217,430.193,254.214,430.858,255.211,431.523z"/>
<path fill="#D82BF6" d="M265.223,422.402c2.713,1.644,3.897-1.533,5.974-1.896c0.677,0.013,1.354,0.025,2.032,0.038
	c1.109,2.622-0.712,3.566-2.587,4.388c-1.722,0.755-3.584,0.605-5.412,0.602c-0.625-0.937-1.251-1.874-1.875-2.81
	C263.977,422.618,264.6,422.51,265.223,422.402z"/>
<path fill="#C82EE6" d="M260.348,415.455c0.622,0.363,1.243,0.727,1.864,1.09c0.314,0.658,0.628,1.316,0.941,1.974
	c-3.689,2.124-4.033-0.036-3.785-2.954C259.644,415.08,259.968,415.022,260.348,415.455z"/>
<path fill="#B52FD8" d="M260.348,415.455c-0.326,0.05-0.653,0.087-0.98,0.11c-0.033-0.991-0.067-1.981-0.101-2.971
	c0.637-0.33,1.274-0.661,1.91-0.991C261.436,413.003,260.931,414.238,260.348,415.455z"/>
<path fill="#B62ECE" d="M259.221,407.544c1.628-1.486,3.273-1.482,4.933-0.057C262.509,407.505,260.865,407.525,259.221,407.544z"/>
<path fill="#D721F0" d="M265.229,425.534c2.551-1.848,7.224-0.295,7.999-4.99c2.314-2.307,0.146-4.646,0.048-6.969
	c2.878-0.22,5.143,0.379,4.368,3.989c-0.504,2.347,2.379,3.644,1.575,5.97c-2.848,1.325-5.769,2.324-8.984,2.009
	c-1.671,0.753-3.341,0.735-5.011-0.001L265.229,425.534z"/>
<path fill="#D51FEF" d="M265.224,425.543c1.67,0,3.341,0,5.011,0.001c-0.005,0.333-0.008,0.665-0.01,0.998
	C268.542,426.289,266.627,427.199,265.224,425.543z"/>
<path fill="#AE13CC" d="M262.206,435.554c-0.323-0.01-0.646-0.026-0.968-0.049c0.574-1.903,0.574-1.903,4.335-0.784
	C264.726,436.242,263.289,435.219,262.206,435.554z"/>
<path fill="#D01FE5" d="M257.229,433.543c-1.29-0.039-1.972-0.688-1.999-1.993c1.208,0.048,2.662-0.279,3.242,1.127
	C258.751,433.351,257.811,433.462,257.229,433.543z"/>
</svg>
