<?xml version="1.0" encoding="utf-8"?>
<!-- Generator: Adobe Illustrator 19.2.1, SVG Export Plug-In . SVG Version: 6.00 Build 0)  -->
<svg version="1.1" id="Layer_1" xmlns="http://www.w3.org/2000/svg" xmlns:xlink="http://www.w3.org/1999/xlink" x="0px" y="0px"
	 viewBox="0 0 556.7 599.4" enable-background="new 0 0 556.7 599.4" xml:space="preserve">
<path fill="#12575A" d="M556.3,375.7c-2.9-60.2-15.3-119.2-37.2-175.6c-28.8-73.9-69.7-128.9-121.3-163.3
	C367,16.6,331.9,4,295.7,0.9c-39-3.6-76,4.1-106.9,22.2c-14.3,8.3-26.3,18.2-38.1,27.6c-6.9,5.7-13.5,11-20.3,15.8
	c-6.9,5-14.4,9.6-22.4,14.4c-11,6.8-22.1,13.7-33,22.2l0,0C33.5,135.7,7.2,186.2,1.3,245.2c-5.4,52.7,6,109.2,31.1,154.5
	c12,21.9,28.1,40.2,42.2,56.3c22.7,26,51.1,58.4,84.6,83.8c51.1,38.6,111.4,59.5,171.4,59.5c4.8,0,9.8-0.2,14.6-0.5
	c69.7-3.9,135.2-37.7,175.4-90.4c11.4-15,20.1-30.5,25.7-46C557.3,432.3,557.5,400.4,556.3,375.7z"/>
</svg>
