<?xml version="1.0" encoding="utf-8"?>
<!-- Generator: Adobe Illustrator 19.2.1, SVG Export Plug-In . SVG Version: 6.00 Build 0)  -->
<svg version="1.1" id="Layer_1" xmlns="http://www.w3.org/2000/svg" xmlns:xlink="http://www.w3.org/1999/xlink" x="0px" y="0px"
	 viewBox="0 0 570.852 552.214" enable-background="new 0 0 570.852 552.214" xml:space="preserve">
<path id="membrana" fill="#38A378" d="M180.603,15.43c22.263-7.327,46.005-8.595,69.423-9.552c46.4-1.896,94.258-2.57,137.55,14.233
	c10.09,3.916,19.796,8.783,28.99,14.481c2.299,1.425,3.025,1.655,3.918,2.047c11.599,2.446,49.226-16.917,54.083-22.866
	c0.457-0.561,11.292,11.535,11.292,11.535s-12.712,46.99-13.011,62.001c0.135,0.947-0.252,1.472,1.011,3.782
	c1.453,2.28,2.853,4.595,4.199,6.941c1.346,2.346,2.637,4.724,3.871,7.131c11.095,21.635,17.665,45.324,22.279,69.196
	c4.422,22.879,7.074,46.092,7.977,69.375c0.112,2.91,0.2,5.781,0.265,8.478c-0.692,2.506-1.381,4.99-1.976,7.365
	c0.527,2.403,1.155,4.888,1.818,7.432c0.836,2.424,2.062,4.622,3.134,7.096c3.135,5.722,55.424,20.383,55.424,20.383
	s-0.016,22.33-1.821,22.098c-12.264-1.578-54.005-1.227-60.814,5.841c-0.475,0.906-1.097,1.09-0.071,3.511
	c-0.044,1.198-0.166,2.309-0.742,4.919c-0.43,2.881-0.887,5.757-1.372,8.63c-4.358,25.849-10.898,51.326-19.592,76.059
	c-6.366,18.109-14.117,36.113-23.832,52.749c-1.389,2.376-2.816,4.725-4.285,7.042c-0.321,2.805-0.801,5.593-1.338,8.257
	c2.585,13.914,18.373,51.786,18.373,51.786s-4.1,17.082-6.014,16.83c-9.255-1.222-35.146-21.383-43.254-16.748
	c-9.166,3.055-18.332-7.639-27.03-3.302c-2.607,1.359-5.253,2.634-7.935,3.825c-2.682,1.19-5.4,2.299-8.149,3.323
	c-38.493,14.353-83.158,12.577-121.988-2.094c-34.946-13.203-72.754-29.047-102.945-52.251c-2.156-1.658-4.273-3.353-6.35-5.086
	c-2.199-0.858-3.533-1.005-4.796-1.116c-12.067,1.792-34.758,20.558-45.078,28.208c-1.198,0.887-18.449-22.429-18.449-22.429
	s17.178-34.084,18.842-40.739c1.528-6.111,4.584-12.221,6.019-18.546c-1.1-1.834-2.331-4.016-3.57-6.245
	c-8.663-15.606-16.804-31.817-25.027-46.357c-6.591-11.658-11.739-23.848-15.523-36.635c-0.315-1.065-0.621-2.134-0.918-3.208
	c-1.859-8.081-5.352-15.794-5.851-24.6c-0.101-1.762-0.182-3.399-0.361-4.719c-14.267-7.093-48.477-17.774-56.667-24.833
	c-1.345-1.16,2.088-16.654,2.088-16.654s36.188-13.113,45.894-19.693c2.898-1.964,6.028-3.543,9.243-4.929
	c0.881-0.38,0.72-0.436,1.345-0.599c1.53-0.399,2.051-2.305,0.911-3.399l-0.036-0.035c-0.198-1.03-0.188-1.332-0.083-3.538
	c2.905-19.343,7.483-39.759,13.585-61.354c8.315-29.421,16.757-58.942,30.08-84.562c1.332-2.561,2.607-5.011,2.876-6.781
	c-3.28-7.48-24.977-44.401-38.273-61.156C65.615,13.027,91.072,0,91.072,0s40.55,23.778,56.369,22.786c2.178-0.07-2.327,0.554,0,0
	c4.654-1.107,9.791-1.303,15.527-0.323c2.522-1.103,5.403-2.406,8.384-3.625C174.333,17.615,177.414,16.479,180.603,15.43z"/>
</svg>
