<?xml version="1.0" encoding="utf-8"?>
<!-- Generator: Adobe Illustrator 19.2.1, SVG Export Plug-In . SVG Version: 6.00 Build 0)  -->
<svg version="1.1" id="Layer_1" xmlns="http://www.w3.org/2000/svg" xmlns:xlink="http://www.w3.org/1999/xlink" x="0px" y="0px"
	 viewBox="0 0 556.7 599.4" enable-background="new 0 0 556.7 599.4" xml:space="preserve">
<path d="M284.094,396.152c-0.01,9.935,0.169,20.526,5.681,28.791c6.41,9.611,18.324,13.624,29.369,17.011
	c0,0,0.411,0.368,3.362,0.13s5.987-1.858,7.018-4.633c0.583-1.569,0.47-3.298,0.35-4.968c-0.266-3.688-3.318-4.066-6.371-6.151
	c-3.015-2.06-5.317-3.656-8.778-4.821c-6.801-2.29-6.988-11.012-7.222-18.184c-0.805-24.712-0.972-49.444-0.501-74.165
	c0.131-6.885,0.31-13.808-0.672-20.624c-0.827-5.741-2.465-11.33-4.099-16.895c-1.508-5.138-3.016-10.276-4.524-15.413
	c-2.594-8.838-6.216-18.082-12.791-6.773c-3.79,6.518-4.218,13.196-2.921,20.387c3.809,21.116,2.162,43.014,2.141,64.427
	C284.122,368.231,284.108,382.191,284.094,396.152z"/>
<circle fill="#606060" cx="281.333" cy="278.28" r="61"/>
</svg>
