<?xml version="1.0" encoding="utf-8"?>
<!-- Generator: Adobe Illustrator 19.2.1, SVG Export Plug-In . SVG Version: 6.00 Build 0)  -->
<svg version="1.1" id="Layer_1" xmlns="http://www.w3.org/2000/svg" xmlns:xlink="http://www.w3.org/1999/xlink" x="0px" y="0px"
	 viewBox="0 0 775.2 834.6" enable-background="new 0 0 775.2 834.6" xml:space="preserve">
<g display="none">
	<path display="inline" fill="#0F5659" d="M402,410c-32.8,3-5-181.7-213-129c-64.7,23.3-70.7,98-70.7,136.3
		c0,23.3,40.1,99.8,50.7,120.4c10.2,19.9,50,28.7,78,34.3c130.7,9,122.1-130,154-130c2.4,0,4.7,0.4,7.1,1.1
		c-0.3-11.2-1.1-22.5-2.3-33.8C404.5,409.6,403.3,409.9,402,410z"/>
	<path display="inline" fill="#98E2CD" d="M403.7,417.3c-28,2.6-68-165.6-173.7-116.3c-101,29.3-83.7,81.6-83.7,113.3
		c0,40.7,64.7,131.6,94.7,127.3c84.7,30.1,132.1-106.8,159.9-106.8c2.1,0,4.4,0.4,7,1.2c-0.3-6.4-0.8-12.8-1.3-19.3
		C405.6,417,404.6,417.2,403.7,417.3z"/>
</g>
<g display="none">
	<path display="inline" fill="#0F5659" d="M573,284c-99.9,11.3-131,115.1-167.2,125.3c1.2,11.3,2,22.6,2.3,33.8
		C450.8,455.5,501.6,571.5,584,556c99-17,112.8-73.2,115-127C689,387,695,274.3,573,284z"/>
	<path display="inline" fill="#98E2CD" d="M593,301c-107.6,13.6-155.2,107.5-186.5,115.8c0.6,6.4,1,12.9,1.3,19.3
		c43,13.4,140.4,134.2,195.8,97.6c52.7-18,79.4-58.5,81.3-105.3C679.7,359.7,645,305,593,301z"/>
</g>
<path fill="#0F5659" d="M489.2,308c-28.8-27.4-67-41.1-104.9-37.6c-32.8,3-68.3,19.3-95.1,43.5c-31.5,28.5-48.9,65.3-48.9,103.6
	c0,23.3,5.6,46.5,16.2,67.1c10.2,19.9,25.1,37.5,43.1,50.9c25.6,19.1,56,29.2,87.9,29.2c44.2,0,76-9.4,100.3-29.6
	c29.3-24.4,44.7-62.4,46.9-116.2C536.5,377.6,519.8,337.1,489.2,308z"/>
<path fill="#98E2CD" d="M470.133,326.183c-24-22.8-55.7-34.2-86.9-31.3c-28,2.6-58.6,16.7-81.8,37.6c-26.6,24.1-41.3,54.8-41.3,86.5
	c0,40.7,19.7,76.9,50,99.6c20.7,15.5,46.4,24.6,74.2,24.6c38.5,0,65.7-7.7,85.6-24.3c24.1-20,36.7-52.6,38.6-99.4
	C510.033,384.883,496.033,350.783,470.133,326.183z"/>
<g>
	<g>
		<g>
			<g>
				<path id="acid1" fill="none" stroke="#6D138E" stroke-miterlimit="10" d="M397.7,391.2c-7.2,1.5-5.8,0.5-12.8,2.6
					c6.4,1.1,4.2,2.4,10.6,1.3c15.2-2.6-5.7-4.4,9.5-1.9c2.4,0.4,9.4,2.1,10.7,4.2c-17.2,4.3-3.6,3.2-20.1-3.3
					c5-5.9-3.6-1.5,3.9-3.4s3-1.3,10.7,0c1.5,0.3,0.2-4.1,1.4-3.1c0.3,0.3-9.3,5.9-9.7,6c-25.7,7.1,3.3,1.2,3,1.6
					c-4,5.1,1.6-8.4-4.7-6.6c-6.2,1.7,13.4,9.1,6.9,8.9c-5.2-0.2-10.5-0.6-15.4-2.6c-2.2-0.9-4.5-2.3-5.4-4.5
					c-0.7-1.8-0.4-4,0.4-5.7c0.9-1.8,2.3-3.2,3.7-4.5c6.5-5.8,0.3,13.9,9,13s4.5-1.1,12.1,3.1c2.3,1.3-2.7-9.5-2.7-6.8
					c0,1.4,1.1,2.6,0.2,3.7c-3.6,4.5-12.4-4.1-18.2-3.3c-12.4,1.8,10.3,2.3-0.2-4.5c-2.2-1.5-4.4-3.1-6.1-5.1c-2-2.2,3.4,10.5,2,8
					c-1.2-2.2,21.4,4.1,21,1.6c-0.8-4.8-9.2-0.5-5.7-3.9s-4.2,2.5,0.5,1.5c5.3-1.2,0.5,0.2,5.9,0.8c7.7,0.9-7.2-0.1-1.6,5.3
					c2,1.9,3.2-2.6,3.5,0.1c0.4,3,6.5-4.1,4.8-1.6c-6.3,9.2,1.7-6.6-9.4-5.4c-4,0.4-8.1,0.2-11.7-1.6c-3.5-1.8-6.3-5.5-6.2-9.5
					c0.1-3.1,12.5,16,14.3,13.5c1.7-2.3-5.2-3.1-3.3-5.2c1.3-1.4-1.6,1.2,0,0c1.8-1.3,6.1,4.1,8.2,3.3c8.9-3.3-7.6-1.5,0.8,2.8
					c3.3,1.7-6.2-1.5-4.2,1.5s9.9-4.2,8.8-0.7c-0.9,2.9-2.2-2.9-4.6-0.9c-5.2,4.4,4.6-0.5-1.9,1.5c-5.2,1.6,4.8-0.2-0.6-0.9
					s-10.8-3.5-13.4-8.2c-0.8-1.4-1.4-3-1.7-4.6c-1.3-5.2,6.7,16.5,9.5,12c3-4.8,4.3-1.7,9.9-2.6s-15.8,2.5-10.6,4.9
					c4.1,1.9,7-4.3,9.7-0.6c2.6,3.7,7,0.4,6.1,4.9c-0.8,3.9-1.5-8.5-4.3-5.6c-7.5,8,10.7,6.7-0.1,8.8c-5.2,1-10.5,1.4-15.6,0.1
					s-9.9-4.4-12.3-9.1s-1.9-10.9,1.9-14.6c11.8,7.7,15.2,18.8,3.2-1.4c2.3-0.2,7,8.8,9.3,9.2c3.3,0.6,2.3-0.5,5.3,1
					c6.9,3.5,10.5,5.6,13.8,12.6c-27-2.4-9.3-4-4-1c-0.9,2.6,3-5.8,0.5-4.9c-4,1.4-8.7,5.5-12.6,3.8c-3.6-1.7-2.4,4.1-4.1,0.5
					s-2.5-7.6-3.2-11.5"/>
			</g>
		</g>
	</g>
	<g>
		<g>
			<g>
				<path id="acid2" fill="none" stroke="#6D138E" stroke-miterlimit="10" d="M404.6,446.1c0.1-0.1-4.6,4.7,3.8,8.2
					c-0.4-4.8-5.4-2.6-5.8-7.4c-0.1-1.3-0.4,4.8-0.8,3.6c-0.2-0.7,0.8-5.9,0.5-6.6c-1.9-3.9,3.4,2.8,1.5-1.1
					c-0.2-0.3-3.1-2.5-2.8-2.8c2.5,0-3.1-1-1.7,1.1c4.6,6.8-3-12.7,0.7-5.3c2.5,5.1,4.7,10.5,5.1,16.2c0.2,2.1,3-6.8,1.7-5.2
					c-1.4,1.7,2.4,1.3,0.2,0.9s-1.7,2.9-3.5,1.6c-3.1-2.2,1.1,1.4-1.7-1.3c-4.2-4.1,8.7,3.4,5-1.2c-2.5-3.1-1,4.9-2.6,1.2
					c-1-2.3-0.7,2.9,1.1,1.3c1.5-1.3-4.5-4.9-2.6-4.1c2.2,0.9-2,0.4,0,1.8c8,5.8-7.8-9.4-0.4-2.9c3.3,2.9,3.8,3.4,7.5,5.8
					c-2.8-4.6-7.4-3.4-3-3"/>
			</g>
		</g>
	</g>
</g>
<path fill="none" stroke="#6D138E" stroke-miterlimit="10" d="M395.6,351.9c-3.3-0.4-6.6-0.9-9.5-2.6c-2.9-1.6-2.5-3.7-2.7-7
	c0-0.4,0.9-1.8,1.1-2.1c0.2-0.4,0.2-1.6,0.6-1.8c2.2-1.2,1.4-1.3,3.9-1.3c0.7,0,1.3,0.1,1.9,0.5c1.7,1,1.8,3.5,1.7,5.5
	c2.3-0.3,4.5-0.6,6.8-0.9c0.2,0.9,0.1,1.8-0.3,2.6c0.2-0.6,0.7-1.1,1.2-1.5c0.3,2-0.3,4.1-1.6,5.7c-0.2,0.3-0.5,0.5-0.9,0.6
	s-0.9-0.2-1.2-0.5c-2-1.4-4.2-3.3-3.8-5.7c0.4-2.6,3.7-3.8,6.3-3.4c0.4,0.1,0.8,0.2,1,0.5s0.1,0.6,0,0.9c-0.4,1.5-1.5,2.8-3,3.4
	c-0.6,0.3-1.3,0.4-2,0.2c-1.6-0.3-2.7-2-2.8-3.7c-0.1-2,1.3-4,3.2-4.6c1.9-0.6,4.3,0.4,5,2.3s-0.4,4.3-2.3,4.9c-0.9,0.2-2,0-2.3-0.9
	c-0.2-0.7,0.4-1.5,1.1-1.7s1.5-0.1,2.2,0.2c2.3,0.7,4.5,2,6.2,3.7c0.6,0.6,1.1,1.2,1.2,2c0.3,2.1-2.2,3.3-4.2,3.7
	c-3.3,0.6-7.4,0.2-9-2.8c-0.6-1.1-0.7-2.3-0.5-3.5c0.3-2.2,1.7-4.4,3.8-5.3c2.1-1,4.7-0.6,6.3,0.9c0.7,0.7,1.2,1.5,1.2,2.5
	c-0.1,1.2-0.9,2.1-1.8,2.9c-2.6,2.3-5.6,4.1-8.9,5.1c-1.7,0.5-3.8,0.8-5.1-0.5c-0.5-0.5-0.8-1.2-1-1.9c-1.1-4.2,2-8.6,5.8-10.8
	c1.4-0.9,3.2-1.5,4.8-1c1.1,0.4,1.8,1.3,2.5,2.2c1.5,1.8,2.8,4.1,2.4,6.4c-0.3,1.4-1.2,2.6-2.2,3.7c-2.5,2.6-3.5,3.3-6.9,4.3
	c-1.6,0.5-4-0.4-5.3-1.4c-0.7-0.5-2.6-1.6-2.9-2.4c-1.6-3.9-0.9-5.9,1-9.7c1.1-2.2,2.8-4.5,5.3-4.7c1-0.1,2,0.2,2.9,0.6
	c3.7,1.6,6.6,4.9,7.6,8.8c-2.3,0.1-4.7-0.9-6.3-2.5c-0.7-0.7-1.3-1.6-1.3-2.5c-0.1-1.3,0.8-2.4,1.8-3.3c1.9-1.7,5.3-2.4,6.8-0.3
	c1,1.4,0.6,3.3-0.2,4.9c-1.3,2.4-3.7,4.4-6.4,4.2c-0.6,0-1.1-0.2-1.6-0.5c-1.3-1.1-0.4-3.2,0.9-4.3c0.8-0.7,1.8-1.4,2.9-1.5
	s2.3,0.4,2.7,1.4c0.4,0.9,0.1,1.9-0.3,2.7c-1.3,2.9-4.3,4.9-7.5,5.1c-0.6,0-1.4-0.1-1.6-0.7c-0.1-0.4,0-0.8,0.1-1.1
	c0.6-1.6,1.4-3.1,2.6-4.3c1.2-1.1,3-1.8,4.6-1.4c2.8,0.7,4.1,4.2,3,6.9c-1,2.7-3.7,4.4-6.4,5.2c-2.2,0.7-5,0.7-6.6-1
	c-0.6-0.7-1-1.7-1.3-2.6c-0.8-2.5-1.2-5.2-0.4-7.7c0.8-2.5,3.1-4.7,5.7-4.5c1,0,2,0.4,3,0.9c2.6,1.2,5.1,3,6.2,5.6
	c1.4,3.4-0.2,7.5-3,9.8s-2.8-2.7-6.5-2.7c-2.1,0-5.1,0.5-6.4-1.1c-1.1-1.3-1.2-0.7-1.3-2.4c-0.2-3.2-3.5-4.1-2.4-7.2
	s3.5-5.8,6.7-6.4c2.7-0.5,5.4,0.6,7.9,1.6c5.8,2.4,2.8,4.3,8.6,6.7"/>
<g>
	<g>
		<path fill="#2D98DA" d="M334,474c-0.1,0.6-0.1,0.1-0.2-0.7c0-1-0.1-0.8-0.2-0.9c-0.1-0.3-0.2-0.6-0.3-1c0-1.2-0.2-1.6-0.4-1.3
			c0-0.5-0.1-0.8-0.2-0.7c0-0.5-0.1-0.6-0.2-0.8c-0.1-0.1-0.1-0.7-0.3-0.7c-0.1,0.1-0.2-0.7-0.3-0.9c0-0.7-0.2-0.4-0.3-0.9
			c-0.1-0.4-0.2-0.3-0.3-0.9c-0.1,0-0.1-1.8-0.3-1c-0.2,0.6-0.2-0.4-0.3-0.8s-0.2-0.6-0.3-1.1c-0.1,0-0.3-0.1-0.3-0.8
			c-0.1,0.4-0.3,0.3-0.2-1c-0.2,0.3-0.2-0.6-0.3-0.8c-0.1-0.1-0.2-1.1-0.3-0.9c-0.1-0.2-0.2-1.1-0.3-1c-0.1-0.5-0.2-0.8-0.3-0.9
			c-0.1-0.3-0.2-0.7-0.3-1.1c-0.1-0.8-0.2-1-0.3-1.2c0-0.8-0.2-0.9-0.3-0.8c-0.2-0.5-0.4-1.3-0.6-1.8c-0.1-0.4-0.2-0.8-0.2-1.1
			c-0.1-0.3-0.2-0.5-0.3-0.6c-0.2,0.1-0.3-1-0.4-2c-0.2-0.3-0.3-1-0.5-0.8c-0.2,0.4-0.2-0.7-0.4-0.8c-0.1-0.4-0.1-1-0.2-1
			c-0.1-0.5-0.2-1.2-0.2-0.7c-0.1-0.5-0.2-1.9-0.3-1.6c-0.1-0.3-0.2-0.9-0.2-1.2c-0.1-0.2,0-1.7,0-1.6c0-0.4,0.1-1.3,0.1-1.2
			c-0.1,1.1,0.2-1.1,0.3-1.2c0.2-1.3,0.3-0.8,0.4-1.4c0.3-1.4,0.5-0.6,1-1.9c0.3,0.4,0.7-0.2,1.3-1.7c0.5-0.8,1-1.4,1.6-1.5
			c0.6-0.5,1.2-0.9,1.8-1.2c0.3-0.2,0.7-0.3,1-0.5c0.3-0.1,0.7,0,1.1-0.4c0,0.2,0,0,0,0c1-0.6,1.8-0.3,2.8-0.5
			c1-0.4,1.9-0.2,2.7,0.1c1-0.5,1.8,0.4,2.6,0.7c0.8,0.4,1.6,0.7,2.4,1.2c0.8,0,1.4,1.7,2.1,1.7c0.6,0.7,1.2,1.4,1.6,2.2
			c0.2,0.4,0.4,0.8,0.6,1.2c0.2,0.1,0.3,1.1,0.5,1.3c0-0.1,0,0.9,0.2,0.7c0.2,0.3,0.4,0.9,0.6,1.8c0.1,0.3,0.3,0.8,0.4,1.3
			c0.1,0.3,0.1,0.5,0.2,0.8c0.1,0.1,0.2,0.5,0.2,0.7c0.2,0.4,0.3,1.7,0.6,1.3c0.1,0.5,0.2,0.3,0.3,1c0.1,0.1,0.1,1.1,0.3,1.1
			c0.1,0.6,0.1,1.3,0.3,1c0.1,0.3,0.3-0.2,0.3,0.9c0,0.9,0.2,0.8,0.3,0.7c0.1,0.5,0.4-0.7,0.3,1.1c0,0.6,0.2-0.8,0.3-0.4
			c0,0.5,0.1,0.3,0.1,1.4c0.2-0.1,0,2.1,0.3,1c0,0.6,0,0.8,0,1.1c0,0.1,0,0.2,0.1,0c0.2-0.9,0.1,0.5,0.2-0.2c0.1-0.2,0.1,0.5,0.1,1
			c0,0.2,0,1.1,0.2,0c0.1,0.6,0.2,0.3,0.3,0.6c0.1-0.1,0.2,0.6,0.3,1.4c0.1,0.3,0.1,1.7,0.3,1.1c0.1,0.1,0.2,0.3,0.3,0.7
			c0,1.1,0.2,0.7,0.3,1c0.1-0.2,0.2,0.2,0.3,0.9c0.1,0.2,0.2,0.5,0.3,0.8c0.1,0.2,0.2,0.5,0.3,0.7c0.1,0.7,0.3,1.3,0.5,1.3
			c0.2-0.1,0.4-0.1,0.4,1.4c0.1,0.2,0.2,0.7,0.3,1c0.1,0.2,0.2,0.4,0.2,0.9c0.2-0.3,0.3,0,0.2,0.7c0,0.6,0,1.3,0.1,1.1
			c0.1,0.1,0.2,0,0.2,0.4c0.2-0.2,0.1,1.7,0.2,1.3c0,0.5,0.1,0.6,0,1.4c-0.1,1.1,0,0.3-0.1,1.4c-0.1,0.8-0.2,1-0.3,1.5
			c-0.1,0.2-0.3,1.2-0.4,1.2c-0.2,0.3-0.3,0.6-0.5,1.1s-0.5,1-0.7,1.2c-0.5,0.7-1.1,1.4-1.7,2.1c-1.3,1.2-2.9,2.2-4.8,2.8l0,0
			c-0.9,0.3-1.9,0.5-2.8,0.5c-0.9,0.1-1.8,0-2.7-0.1c-0.9-0.3-1.7-0.7-2.6-0.7c-0.4-0.5-0.8-0.8-1.2-1s-0.8-0.2-1.2-0.3
			c-0.4-0.3-0.7-0.4-1.1-0.6c-0.3-0.4-0.7-0.3-1-1.1c-0.3-0.2-0.6-0.3-0.9-0.9c-0.3-0.5-0.5-0.9-0.8-1.2c-0.2-0.4-0.4-0.8-0.6-1.2
			C334.2,475.6,334.2,473.7,334,474z"/>
	</g>
</g>
<g>
	<g>
		<path fill="#2D98DA" d="M473.8,427.5c-0.1,0.6-0.1,0.1-0.2-0.7c0-1-0.1-0.8-0.2-0.9c-0.1-0.3-0.2-0.6-0.3-1c0-1.2-0.2-1.6-0.4-1.3
			c0-0.5-0.1-0.8-0.2-0.7c0-0.5-0.1-0.6-0.2-0.8c-0.1-0.1-0.1-0.7-0.3-0.7c-0.1,0.1-0.2-0.7-0.3-0.9c0-0.7-0.2-0.4-0.3-0.9
			c-0.1-0.4-0.2-0.3-0.3-0.9c-0.1,0-0.1-1.8-0.3-1c-0.2,0.6-0.2-0.4-0.3-0.8c-0.1-0.4-0.2-0.6-0.3-1.1c-0.1,0-0.3-0.1-0.3-0.8
			c-0.1,0.4-0.3,0.3-0.2-1c-0.2,0.3-0.2-0.6-0.3-0.8c-0.1-0.1-0.2-1.1-0.3-0.9c-0.1-0.2-0.2-1.1-0.3-1c-0.1-0.5-0.2-0.8-0.3-0.9
			c-0.1-0.3-0.2-0.7-0.3-1.1c-0.1-0.8-0.2-1-0.3-1.2c0-0.8-0.2-0.9-0.3-0.8c-0.2-0.5-0.4-1.3-0.6-1.8c-0.1-0.4-0.2-0.8-0.2-1.1
			c-0.1-0.3-0.2-0.5-0.3-0.6c-0.2,0.1-0.3-1-0.4-2c-0.2-0.3-0.3-1-0.5-0.8c-0.2,0.4-0.2-0.7-0.4-0.8c-0.1-0.4-0.1-1-0.2-1
			c-0.1-0.5-0.2-1.2-0.2-0.7c-0.1-0.5-0.2-1.9-0.3-1.6c-0.1-0.3-0.2-0.9-0.2-1.2c-0.1-0.2,0-1.7,0-1.6c0-0.4,0.1-1.3,0.1-1.2
			c-0.1,1.1,0.2-1.1,0.3-1.2c0.2-1.3,0.3-0.8,0.4-1.4c0.3-1.4,0.5-0.6,1-1.9c0.3,0.4,0.7-0.2,1.3-1.7c0.5-0.8,1-1.4,1.6-1.5
			c0.6-0.5,1.2-0.9,1.8-1.2c0.3-0.2,0.7-0.3,1-0.5c0.3-0.1,0.7,0,1.1-0.4c0,0.2,0,0,0,0c1-0.6,1.8-0.3,2.8-0.5
			c1-0.4,1.9-0.2,2.7,0.1c1-0.5,1.8,0.4,2.6,0.7c0.8,0.4,1.6,0.7,2.4,1.2c0.8,0,1.4,1.7,2.1,1.7c0.6,0.7,1.2,1.4,1.6,2.2
			c0.2,0.4,0.4,0.8,0.6,1.2c0.2,0.1,0.3,1.1,0.5,1.3c0-0.1,0,0.9,0.2,0.7c0.2,0.3,0.4,0.9,0.6,1.8c0.1,0.3,0.3,0.8,0.4,1.3
			c0.1,0.3,0.1,0.5,0.2,0.8c0.1,0.1,0.2,0.5,0.2,0.7c0.2,0.4,0.3,1.7,0.6,1.3c0.1,0.5,0.2,0.3,0.3,1c0.1,0.1,0.1,1.1,0.3,1.1
			c0.1,0.6,0.1,1.3,0.3,1c0.1,0.3,0.3-0.2,0.3,0.9c0,0.9,0.2,0.8,0.3,0.7c0.1,0.5,0.4-0.7,0.3,1.1c0,0.6,0.2-0.8,0.3-0.4
			c0,0.5,0.1,0.3,0.1,1.4c0.2-0.1,0,2.1,0.3,1c0,0.6,0,0.8,0,1.1c0,0.1,0,0.2,0.1,0c0.2-0.9,0.1,0.5,0.2-0.2c0.1-0.2,0.1,0.5,0.1,1
			c0,0.2,0,1.1,0.2,0c0.1,0.6,0.2,0.3,0.3,0.6c0.1-0.1,0.2,0.6,0.3,1.4c0.1,0.3,0.1,1.7,0.3,1.1c0.1,0.1,0.2,0.3,0.3,0.7
			c0,1.1,0.2,0.7,0.3,1c0.1-0.2,0.2,0.2,0.3,0.9c0.1,0.2,0.2,0.5,0.3,0.8c0.1,0.2,0.2,0.5,0.3,0.7c0.1,0.7,0.3,1.3,0.5,1.3
			c0.2-0.1,0.4-0.1,0.4,1.4c0.1,0.2,0.2,0.7,0.3,1c0.1,0.2,0.2,0.4,0.2,0.9c0.2-0.3,0.3,0,0.2,0.7c0,0.6,0,1.3,0.1,1.1
			c0.1,0.1,0.2,0,0.2,0.4c0.2-0.2,0.1,1.7,0.2,1.3c0,0.5,0.1,0.6,0,1.4c-0.1,1.1,0,0.3-0.1,1.4c-0.1,0.8-0.2,1-0.3,1.5
			c-0.1,0.2-0.3,1.2-0.4,1.2c-0.2,0.3-0.3,0.6-0.5,1.1s-0.5,1-0.7,1.2c-0.5,0.7-1.1,1.4-1.7,2.1c-1.3,1.2-2.9,2.2-4.8,2.8l0,0
			c-0.9,0.3-1.9,0.5-2.8,0.5c-0.9,0.1-1.8,0-2.7-0.1c-0.9-0.3-1.7-0.7-2.6-0.7c-0.4-0.5-0.8-0.8-1.2-1c-0.4-0.2-0.8-0.2-1.2-0.3
			c-0.4-0.3-0.7-0.4-1.1-0.6c-0.3-0.4-0.7-0.3-1-1.1c-0.3-0.2-0.6-0.3-0.9-0.9c-0.3-0.5-0.5-0.9-0.8-1.2c-0.2-0.4-0.5-0.8-0.6-1.2
			C474.1,429.1,474,427.2,473.8,427.5z"/>
	</g>
</g>
<path fill="#D279F7" d="M327.9,403.5c-0.5-0.2-1.1-0.2-1.6-0.1c-0.7,0.2-1.2,0.7-1.4,1.4c-0.4,1.1,0.1,2.5,1.2,3.1
	c0.4,0.2,0.8,0.3,1.3,0.3s1.1-0.2,1.6-0.5c0.8-0.6,1.3-1.6,1.1-2.6c-0.1-0.4-0.2-0.8-0.4-1C329.4,403.8,328.8,403.4,327.9,403.5z"/>
<path fill="#D279F7" d="M364.1,361L364.1,361c-0.6-0.4-1.4-0.4-2.1,0s-1.1,1-1.2,1.7c-0.1,1,0.6,2,1.7,2.7c0.6,0.3,1.1,0.5,1.7,0.5
	h0.1c0.8,0,1.6-0.5,1.9-1.2c0.4-0.8,0.2-1.9-0.5-2.7C365.3,361.5,364.6,361.2,364.1,361z"/>
<path fill="#D279F7" d="M406.1,471.4l-1.3-0.3v-0.2c-1-0.1-2.1,0.1-3,0.5l-0.3,0.1l-0.2,0.3c-0.4,0.6-0.5,1.3-0.3,2s0.6,1.3,1.2,1.7
	c0.5,0.3,1.1,0.4,1.6,0.5c0.2,0,0.4,0,0.6,0c0.7,0,1.2-0.1,1.7-0.3c1-0.4,1.6-1.3,1.6-2.3c0-0.6-0.2-1.2-0.6-1.5
	C406.8,471.6,406.3,471.5,406.1,471.4z"/>
<path fill="#D279F7" d="M450.5,394.9L450.5,394.9c-0.8,0.3-1.4,0.8-1.9,1.1c-0.4,0.3-1,0.8-1.3,1.5c-0.4,0.9-0.2,2.1,0.7,2.6
	c0.4,0.3,0.9,0.3,1.2,0.3h0.1h2.4c0.2,0,0.7,0,1-0.4c0.4-0.4,0.5-0.9,0.5-1.2V397c0-0.3,0-0.8-0.2-1.2
	C452.6,395,451.7,394.7,450.5,394.9z"/>
<g id="centr2_1_">
	<polygon fill="#7D63EA" points="462.9,476.5 461.4,475.1 493.4,441.4 494.9,442.8 	"/>
	<polygon fill="#744DEF" points="463.6,477.7 462.5,476.6 495,442.4 496.1,443.5 	"/>
	<polygon fill="#703BF2" points="463.9,479.5 462.8,478.4 496.8,442.6 497.9,443.7 	"/>
	<polygon fill="#7D63EA" points="467.4,480.9 468.9,482.3 501,448.6 499.4,447.1 	"/>
	<polygon fill="#744DEF" points="466.1,480.1 467.4,481.3 499.8,447 498.6,445.8 	"/>
	<polygon fill="#703BF2" points="464.5,480 465.6,481.1 499.6,445.3 498.5,444.2 	"/>
	<polygon fill="#6B25F2" points="464.2,480.7 463.2,479.7 498.1,443 499.1,444 	"/>
</g>
<g id="negocio2">
	<path fill="none" stroke="#6B25F2" stroke-miterlimit="10" d="M395.831,340.881c-14.094-1.508-27.836,4.629-40.181,11.594
		c-3.111,1.755-6.21,3.583-9.583,4.756c-2.771,0.963-5.688,1.469-8.437,2.491c-3.459,1.285-6.563,3.352-9.632,5.4
		c-12.405,8.278-25.164,16.908-33.243,29.445c-2.313,3.59-4.329,7.588-7.858,9.993c5.784-0.644,10.132-4.407,14.421-8.341
		c6.873-6.305,13.592-12.779,20.148-19.413c1.859-1.881,3.707-3.777,5.703-5.513c14.191-12.342,34.087-15.31,50.775-23.986
		c2.676-1.391,5.293-2.941,8.155-3.892S393.029,339.763,395.831,340.881z"/>
	<path fill="none" stroke="#6B25F2" stroke-miterlimit="10" d="M399.625,392.441c-0.769,0.545-1.754,0.701-2.659,0.962
		c-4.838,1.398-9.676,2.795-14.514,4.193c-2.295,0.663-4.594,1.327-6.939,1.783c-3.773,0.734-7.637,0.926-11.4,1.708
		c-3.201,0.665-6.299,1.751-9.466,2.562c-19.004,4.862-39.306-0.409-58.597,3.151c-1.277,0.236-2.582,0.511-3.863,0.297
		c-2.042-0.341-3.044-1.823-4.533-3.261c2.376,0.691,4.777,1.386,7.248,1.515c5.261,0.275,10.279-2.017,15.456-2.992
		c5.593-1.054,11.342-0.563,17.033-0.561c9.17,0.004,18.34-1.279,27.157-3.8c2.903-0.83,5.78-1.796,8.762-2.272
		c3.353-0.535,6.771-0.439,10.157-0.679c7.273-0.516,14.337-2.574,21.336-4.62c1.285-0.376,2.693-0.402,4.031-0.355"/>
	<path fill="none" stroke="#6B25F2" stroke-miterlimit="10" d="M403.338,447.004c-2.61,1.493-5.752,1.656-8.759,1.665
		c-15.358,0.044-30.718-3.021-44.883-8.956c-5.208-2.182-10.248-4.743-15.282-7.302c-3.861-1.963-7.73-3.929-11.38-6.26
		c-4.241-2.708-8.157-5.888-12.062-9.061c-5.93-4.817-15.331-8.246-21.261-13.063l-2.057-0.472l0.979,2.011
		c4.343,2.866,10.23,6.424,13.306,10.621c2.051,2.799,5.217,4.575,7.819,6.871c3.069,2.708,7.05,4.095,10.606,6.121
		c5.17,2.946,9.478,7.274,14.779,9.976c5.671,2.89,12.153,3.758,18.047,6.16c3.173,1.293,6.178,3.032,9.478,3.954
		c3.433,0.959,7.046,0.996,10.61,1.026c5.182,0.044,10.363,0.088,15.545,0.133c5.73,0.049,11.599,0.075,16.997-1.849"/>
</g>
<g id="nucleo_x5F_esquerdo" display="none">
	<path display="inline" fill="#C333F2" d="M323,457c-0.2-0.2-0.2-0.5-0.4-0.8c-0.2-0.5-0.5-1.1-0.7-1.6c-0.1-0.3-0.2-0.6-0.2-0.9
		c-0.2-0.5-0.2-0.9-0.5-1.4c-0.6-1.4-1.7-2.5-2.9-3.4c-2.4-2.1-5.1-4.1-8.3-4.9c-2.5-0.7-5.1-0.5-7.6-0.4l-9.3,0.5
		c-1,0.1-2.4,0.2-3.3,1c-0.2,0.2-1.1,0.4-1.7,0.5c-0.9,0.2-1.7,0.4-2.1,0.7c-0.5,0.5-1,0.8-1.4,1.1c-2,1.6-3.1,2.6-4.8,6
		c-0.2,0.5-0.6,1.1-1,1.9c-0.9,1.7-2.1,3.7-2.3,4.9c-0.2,1-0.2,1.9,0,2.8c0.1,0.4,0.1,1.2,0.2,2.3c0.2,3.5,0.5,6.4,0.9,7.2
		c1.7,3.2,3.5,4.9,5.9,7.2l0.7,0.6c1.5,1.5,5.1,4.6,8.7,5.6c-0.6-3.8-1-7.1,0.3-11.1c-1.3,4-0.9,7.3-0.3,11.1
		c0.6,0.2,1.3,0.3,1.9,0.3c3,0.1,6.2,0.2,9.2,0.2c2.2,0,4.5,0,6.7-0.1c1.2,0,2.6-0.1,3.9-0.5c2.1-0.6,4-2.1,5.3-4.3
		c1.2-1.9,2-4.1,2.7-6.2C324.1,470.5,325.8,463.2,323,457z"/>
	<g display="inline">
		<g>
			<path fill="#D91EF4" d="M292.9,485.6c0.7,0.2,1.3,0.3,2,0.3c5.3,0.2,10.6,0.2,15.9,0.1c1.3,0,2.5-0.1,3.7-0.5
				c2.1-0.6,3.9-2.2,5.1-4.1s2-4,2.6-6.2c1.7-5.9,2.9-12.5,0.3-18.2c-0.4-0.8-0.8-1.6-1.1-2.4c-0.2-0.8-0.4-1.5-0.7-2.2
				c-0.5-1.3-1.7-2.4-2.7-3.3c-2.4-2.1-5.1-4-8.1-4.9c-2.4-0.6-4.9-0.5-7.4-0.4c-3.1,0.2-6.2,0.4-9.3,0.5c-1.1,0.1-2.3,0.2-3.1,0.8
				c-0.6,0.5-3.1,0.7-3.7,1.2c-2.9,2.5-4.1,3-6,7.1c-0.8,1.6-2.9,5-3.3,6.8c-0.2,0.9-0.2,1.7,0,2.7c0.2,1.2,0.4,8.2,1,9.3
				c1.8,3.3,3.7,5,6.5,7.8C286.7,482.2,289.9,484.7,292.9,485.6"/>
			<path fill="#D91EF4" d="M292.9,485.6"/>
		</g>
	</g>
	<g display="inline">
		<path fill="#D731F4" d="M312.9,456c1.7,3.4,1.2,7.8-1.4,10.6c-0.7,0.7-1.4,1.3-2.2,1.9c-0.5,0.4-1.1,0.8-1.7,0.9
			c-0.5,0.1-1,0-1.4-0.1c-3.5-0.8-6.9-2.1-10-3.9c-1.4-0.8-2.8-1.7-3.4-3.3c-0.4-1-0.4-2.1-0.3-3.2c0.2-1.7,0.5-3.3,1.1-4.9
			c0.5-1.1,1.1-2.4,2.4-2.5c0.4-0.1,0.8,0,1.2,0c1-0.1,1.8-0.6,2.7-1.1c1.5-0.7,2.2,0.3,3.6,0.2c1.1-0.1,1.4-0.9,2.7-0.6
			C309,450.8,311.6,453.5,312.9,456z"/>
	</g>
</g>
<g id="nucleo_x5F_direito" display="none">
	<path display="inline" fill="#C333F2" d="M538.5,451.8c-0.2-0.2-0.2-0.5-0.4-0.8c-0.2-0.5-0.5-1.1-0.7-1.6
		c-0.1-0.3-0.2-0.6-0.2-0.9c-0.2-0.5-0.2-0.9-0.5-1.4c-0.6-1.4-1.7-2.5-2.9-3.4c-2.4-2.1-5.1-4.1-8.3-4.9c-2.5-0.7-5.1-0.5-7.6-0.4
		l-9.3,0.5c-1,0.1-2.4,0.2-3.3,1c-0.2,0.2-1.1,0.4-1.7,0.5c-0.9,0.2-1.7,0.4-2.1,0.7c-0.5,0.5-1,0.8-1.4,1.1c-2,1.6-3.1,2.6-4.8,6
		c-0.2,0.5-0.6,1.1-1,1.9c-0.9,1.7-2.1,3.7-2.3,4.9c-0.2,1-0.2,1.9,0,2.8c0.1,0.4,0.1,1.2,0.2,2.3c0.2,3.5,0.5,6.4,0.9,7.2
		c1.7,3.2,3.5,4.9,5.9,7.2l0.7,0.6c1.5,1.5,5.1,4.6,8.7,5.6c-0.6-3.8-1-7.1,0.3-11.1c-1.3,4-0.9,7.3-0.3,11.1
		c0.6,0.2,1.3,0.3,1.9,0.3c3,0.1,6.2,0.2,9.2,0.2c2.2,0,4.5,0,6.7-0.1c1.2,0,2.6-0.1,3.9-0.5c2.1-0.6,4-2.1,5.3-4.3
		c1.2-1.9,2-4.1,2.7-6.2C539.7,465.3,541.4,458,538.5,451.8z"/>
	<g display="inline">
		<g>
			<path fill="#D91EF4" d="M508.5,480.4c0.7,0.2,1.3,0.3,2,0.3c5.3,0.2,10.6,0.2,15.9,0.1c1.3,0,2.5-0.1,3.7-0.5
				c2.1-0.6,3.9-2.2,5.1-4.1c1.2-1.9,2-4,2.6-6.2c1.7-5.9,2.9-12.5,0.3-18.2c-0.4-0.8-0.8-1.6-1.1-2.4c-0.2-0.8-0.4-1.5-0.7-2.2
				c-0.5-1.3-1.7-2.4-2.7-3.3c-2.4-2.1-5.1-4-8.1-4.9c-2.4-0.6-4.9-0.5-7.4-0.4c-3.1,0.2-6.2,0.4-9.3,0.5c-1.1,0.1-2.3,0.2-3.1,0.8
				c-0.6,0.5-3.1,0.7-3.7,1.2c-2.9,2.5-4.1,3-6,7.1c-0.8,1.6-2.9,5-3.3,6.8c-0.2,0.9-0.2,1.7,0,2.7c0.2,1.2,0.4,8.2,1,9.3
				c1.8,3.3,3.7,5,6.5,7.8C502.3,477,505.5,479.5,508.5,480.4"/>
			<path fill="#D91EF4" d="M508.5,480.4"/>
		</g>
	</g>
	<g display="inline">
		<path fill="#D731F4" d="M528.4,450.8c1.7,3.4,1.2,7.8-1.4,10.6c-0.7,0.7-1.4,1.3-2.2,1.9c-0.5,0.4-1.1,0.8-1.7,0.9
			c-0.5,0.1-1,0-1.4-0.1c-3.5-0.8-6.9-2.1-10-3.9c-1.4-0.8-2.8-1.7-3.4-3.3c-0.4-1-0.4-2.1-0.3-3.2c0.2-1.7,0.5-3.3,1.1-4.9
			c0.5-1.1,1.1-2.4,2.4-2.5c0.4-0.1,0.8,0,1.2,0c1-0.1,1.8-0.6,2.7-1.1c1.5-0.7,2.2,0.3,3.6,0.2c1.1-0.1,1.4-0.9,2.7-0.6
			C524.6,445.6,527.2,448.3,528.4,450.8z"/>
	</g>
</g>
<g id="negocio">
	<path fill="none" stroke="#6B25F2" stroke-miterlimit="10" d="M397.344,343.099c0.663-0.081,1.325,0.11,1.987,0.203
		c0.669,0.095,1.347,0.09,2.023,0.086c0.913-0.006,1.829,0.038,2.741-0.008c15.977-0.808,32.159,2.916,46.176,10.625
		c7.359,4.047,14.086,9.137,20.747,14.252c2.976,2.285,5.961,4.594,8.489,7.367c2.805,3.076,4.988,6.657,7.107,10.24
		c3.773,6.379,7.403,12.844,10.885,19.386l-0.489,0.428c-2.547-1.383-4.832-3.196-7.101-4.999
		c-8.264-6.565-16.527-13.13-24.791-19.694c-3.412-2.71-6.831-5.426-10.511-7.759c-3.018-1.913-6.195-3.558-9.368-5.201
		c-6.234-3.227-12.468-6.454-18.702-9.681c-3.174-1.643-6.367-3.294-9.774-4.372c-4.64-1.468-9.611-1.852-14.091-3.755
		c-0.07-0.117-0.192-0.138-0.322-0.179c-1.56-0.487-3.127-0.954-4.699-1.399"/>
	<path fill="none" stroke="#6B25F2" stroke-miterlimit="10" d="M402.196,392.573c2.409,0.973,5.047,1.856,7.575,2.458
		c12.048,2.871,24.097,5.743,36.145,8.614c1.516,0.361,3.032,0.723,4.558,1.035c11.487,2.355,23.338,1.939,35.055,1.513
		c3.828-0.139,7.656-0.279,11.484-0.418c-6.761-4.669-16.39-3.39-24.601-3.092c-10.534,0.382-21.174,0.491-31.508-1.592
		c-11.054-2.227-21.632-6.936-32.882-7.702c-1.854-0.126-3.496-1.337-5.318-1.702"/>
	<path fill="none" stroke="#6B25F2" stroke-miterlimit="10" d="M406.006,452.227c13.567,2.988,27.55-1.401,40.746-5.741
		c5.314-1.747,10.628-3.495,15.943-5.242c3.927-1.291,7.878-2.593,11.514-4.56c6.457-3.493,11.635-8.924,16.378-14.527
		c1.137-1.343,2.266-2.717,3.057-4.29c0.663-1.32,1.073-2.75,1.478-4.17c0.707-2.476,1.105-5.538,1.812-8.014
		c-1.538,7.161-7.863,12.131-13.764,16.47c-5.503,4.046-11.06,8.123-17.299,10.901c-4.509,2.008-9.297,3.301-14.062,4.586
		c-10.94,2.951-21.881,5.902-32.822,8.853c-4.189,1.13-8.403,2.265-12.722,2.682"/>
</g>
</svg>
