<?xml version="1.0" encoding="utf-8"?>
<!-- Generator: Adobe Illustrator 19.2.1, SVG Export Plug-In . SVG Version: 6.00 Build 0)  -->
<svg version="1.1" id="Layer_1" xmlns="http://www.w3.org/2000/svg" xmlns:xlink="http://www.w3.org/1999/xlink" x="0px" y="0px"
	 viewBox="0 0 775.2 834.6" style="enable-background:new 0 0 775.2 834.6;" xml:space="preserve">
<style type="text/css">
	.st0{display:none;}
	.st1{display:inline;fill:#0F5659;}
	.st2{display:inline;fill:#98E2CD;}
	.st3{fill:#0F5659;}
	.st4{fill:#98E2CD;}
	.st5{fill:none;stroke:#6D138E;stroke-miterlimit:10;}
	.st6{fill:#2D98DA;}
	.st7{fill:#D279F7;}
	.st8{fill:#7D63EA;}
	.st9{fill:#744DEF;}
	.st10{fill:#703BF2;}
	.st11{fill:#6B25F2;}
	.st12{display:inline;fill:#C333F2;}
	.st13{display:inline;}
	.st14{fill:#D91EF4;}
	.st15{fill:#D731F4;}
	.st16{fill:none;stroke:#6B25F2;stroke-miterlimit:10;}
	.st17{fill:#6D138E;}
</style>
<g class="st0">
	<path class="st1" d="M402,410c-32.8,3-5-181.7-213-129c-64.7,23.3-70.7,98-70.7,136.3c0,23.3,40.1,99.8,50.7,120.4
		c10.2,19.9,50,28.7,78,34.3c130.7,9,122.1-130,154-130c2.4,0,4.7,0.4,7.1,1.1c-0.3-11.2-1.1-22.5-2.3-33.8
		C404.5,409.6,403.3,409.9,402,410z"/>
	<path class="st2" d="M403.7,417.3c-28,2.6-68-165.6-173.7-116.3c-101,29.3-83.7,81.6-83.7,113.3c0,40.7,64.7,131.6,94.7,127.3
		c84.7,30.1,132.1-106.8,159.9-106.8c2.1,0,4.4,0.4,7,1.2c-0.3-6.4-0.8-12.8-1.3-19.3C405.6,417,404.6,417.2,403.7,417.3z"/>
</g>
<g class="st0">
	<path class="st1" d="M573,284c-99.9,11.3-131,115.1-167.2,125.3c1.2,11.3,2,22.6,2.3,33.8C450.8,455.5,501.6,571.5,584,556
		c99-17,112.8-73.2,115-127C689,387,695,274.3,573,284z"/>
	<path class="st2" d="M593,301c-107.6,13.6-155.2,107.5-186.5,115.8c0.6,6.4,1,12.9,1.3,19.3c43,13.4,140.4,134.2,195.8,97.6
		c52.7-18,79.4-58.5,81.3-105.3C679.7,359.7,645,305,593,301z"/>
</g>
<path class="st3" d="M489.2,308c-28.8-27.4-67-41.1-104.9-37.6c-32.8,3-68.3,19.3-95.1,43.5c-31.5,28.5-48.9,65.3-48.9,103.6
	c0,23.3,5.6,46.5,16.2,67.1c10.2,19.9,25.1,37.5,43.1,50.9c25.6,19.1,56,29.2,87.9,29.2c44.2,0,76-9.4,100.3-29.6
	c29.3-24.4,44.7-62.4,46.9-116.2C536.5,377.6,519.8,337.1,489.2,308z"/>
<path class="st4" d="M470.1,326.2c-24-22.8-55.7-34.2-86.9-31.3c-28,2.6-58.6,16.7-81.8,37.6c-26.6,24.1-41.3,54.8-41.3,86.5
	c0,40.7,19.7,76.9,50,99.6c20.7,15.5,46.4,24.6,74.2,24.6c38.5,0,65.7-7.7,85.6-24.3c24.1-20,36.7-52.6,38.6-99.4
	C510,384.9,496,350.8,470.1,326.2z"/>
<g>
	<g>
		<g>
			<g>
				<path id="acid1" class="st5" d="M397.7,391.2c-7.2,1.5-5.8,0.5-12.8,2.6c6.4,1.1,4.2,2.4,10.6,1.3c15.2-2.6-5.7-4.4,9.5-1.9
					c2.4,0.4,9.4,2.1,10.7,4.2c-17.2,4.3-3.6,3.2-20.1-3.3c5-5.9-3.6-1.5,3.9-3.4s3-1.3,10.7,0c1.5,0.3,0.2-4.1,1.4-3.1
					c0.3,0.3-9.3,5.9-9.7,6c-25.7,7.1,3.3,1.2,3,1.6c-4,5.1,1.6-8.4-4.7-6.6c-6.2,1.7,13.4,9.1,6.9,8.9c-5.2-0.2-10.5-0.6-15.4-2.6
					c-2.2-0.9-4.5-2.3-5.4-4.5c-0.7-1.8-0.4-4,0.4-5.7c0.9-1.8,2.3-3.2,3.7-4.5c6.5-5.8,0.3,13.9,9,13s4.5-1.1,12.1,3.1
					c2.3,1.3-2.7-9.5-2.7-6.8c0,1.4,1.1,2.6,0.2,3.7c-3.6,4.5-12.4-4.1-18.2-3.3c-12.4,1.8,10.3,2.3-0.2-4.5
					c-2.2-1.5-4.4-3.1-6.1-5.1c-2-2.2,3.4,10.5,2,8c-1.2-2.2,21.4,4.1,21,1.6c-0.8-4.8-9.2-0.5-5.7-3.9s-4.2,2.5,0.5,1.5
					c5.3-1.2,0.5,0.2,5.9,0.8c7.7,0.9-7.2-0.1-1.6,5.3c2,1.9,3.2-2.6,3.5,0.1c0.4,3,6.5-4.1,4.8-1.6c-6.3,9.2,1.7-6.6-9.4-5.4
					c-4,0.4-8.1,0.2-11.7-1.6c-3.5-1.8-6.3-5.5-6.2-9.5c0.1-3.1,12.5,16,14.3,13.5c1.7-2.3-5.2-3.1-3.3-5.2c1.3-1.4-1.6,1.2,0,0
					c1.8-1.3,6.1,4.1,8.2,3.3c8.9-3.3-7.6-1.5,0.8,2.8c3.3,1.7-6.2-1.5-4.2,1.5s9.9-4.2,8.8-0.7c-0.9,2.9-2.2-2.9-4.6-0.9
					c-5.2,4.4,4.6-0.5-1.9,1.5c-5.2,1.6,4.8-0.2-0.6-0.9s-10.8-3.5-13.4-8.2c-0.8-1.4-1.4-3-1.7-4.6c-1.3-5.2,6.7,16.5,9.5,12
					c3-4.8,4.3-1.7,9.9-2.6s-15.8,2.5-10.6,4.9c4.1,1.9,7-4.3,9.7-0.6c2.6,3.7,7,0.4,6.1,4.9c-0.8,3.9-1.5-8.5-4.3-5.6
					c-7.5,8,10.7,6.7-0.1,8.8c-5.2,1-10.5,1.4-15.6,0.1s-9.9-4.4-12.3-9.1s-1.9-10.9,1.9-14.6c11.8,7.7,15.2,18.8,3.2-1.4
					c2.3-0.2,7,8.8,9.3,9.2c3.3,0.6,2.3-0.5,5.3,1c6.9,3.5,10.5,5.6,13.8,12.6c-27-2.4-9.3-4-4-1c-0.9,2.6,3-5.8,0.5-4.9
					c-4,1.4-8.7,5.5-12.6,3.8c-3.6-1.7-2.4,4.1-4.1,0.5s-2.5-7.6-3.2-11.5"/>
			</g>
		</g>
	</g>
	<g>
		<g>
			<g>
				<path id="acid2" class="st5" d="M404.6,446.1c0.1-0.1-4.6,4.7,3.8,8.2c-0.4-4.8-5.4-2.6-5.8-7.4c-0.1-1.3-0.4,4.8-0.8,3.6
					c-0.2-0.7,0.8-5.9,0.5-6.6c-1.9-3.9,3.4,2.8,1.5-1.1c-0.2-0.3-3.1-2.5-2.8-2.8c2.5,0-3.1-1-1.7,1.1c4.6,6.8-3-12.7,0.7-5.3
					c2.5,5.1,4.7,10.5,5.1,16.2c0.2,2.1,3-6.8,1.7-5.2c-1.4,1.7,2.4,1.3,0.2,0.9s-1.7,2.9-3.5,1.6c-3.1-2.2,1.1,1.4-1.7-1.3
					c-4.2-4.1,8.7,3.4,5-1.2c-2.5-3.1-1,4.9-2.6,1.2c-1-2.3-0.7,2.9,1.1,1.3c1.5-1.3-4.5-4.9-2.6-4.1c2.2,0.9-2,0.4,0,1.8
					c8,5.8-7.8-9.4-0.4-2.9c3.3,2.9,3.8,3.4,7.5,5.8c-2.8-4.6-7.4-3.4-3-3"/>
			</g>
		</g>
	</g>
</g>
<path class="st5" d="M395.6,351.9c-3.3-0.4-6.6-0.9-9.5-2.6c-2.9-1.6-2.5-3.7-2.7-7c0-0.4,0.9-1.8,1.1-2.1c0.2-0.4,0.2-1.6,0.6-1.8
	c2.2-1.2,1.4-1.3,3.9-1.3c0.7,0,1.3,0.1,1.9,0.5c1.7,1,1.8,3.5,1.7,5.5c2.3-0.3,4.5-0.6,6.8-0.9c0.2,0.9,0.1,1.8-0.3,2.6
	c0.2-0.6,0.7-1.1,1.2-1.5c0.3,2-0.3,4.1-1.6,5.7c-0.2,0.3-0.5,0.5-0.9,0.6s-0.9-0.2-1.2-0.5c-2-1.4-4.2-3.3-3.8-5.7
	c0.4-2.6,3.7-3.8,6.3-3.4c0.4,0.1,0.8,0.2,1,0.5s0.1,0.6,0,0.9c-0.4,1.5-1.5,2.8-3,3.4c-0.6,0.3-1.3,0.4-2,0.2
	c-1.6-0.3-2.7-2-2.8-3.7c-0.1-2,1.3-4,3.2-4.6c1.9-0.6,4.3,0.4,5,2.3s-0.4,4.3-2.3,4.9c-0.9,0.2-2,0-2.3-0.9
	c-0.2-0.7,0.4-1.5,1.1-1.7s1.5-0.1,2.2,0.2c2.3,0.7,4.5,2,6.2,3.7c0.6,0.6,1.1,1.2,1.2,2c0.3,2.1-2.2,3.3-4.2,3.7
	c-3.3,0.6-7.4,0.2-9-2.8c-0.6-1.1-0.7-2.3-0.5-3.5c0.3-2.2,1.7-4.4,3.8-5.3c2.1-1,4.7-0.6,6.3,0.9c0.7,0.7,1.2,1.5,1.2,2.5
	c-0.1,1.2-0.9,2.1-1.8,2.9c-2.6,2.3-5.6,4.1-8.9,5.1c-1.7,0.5-3.8,0.8-5.1-0.5c-0.5-0.5-0.8-1.2-1-1.9c-1.1-4.2,2-8.6,5.8-10.8
	c1.4-0.9,3.2-1.5,4.8-1c1.1,0.4,1.8,1.3,2.5,2.2c1.5,1.8,2.8,4.1,2.4,6.4c-0.3,1.4-1.2,2.6-2.2,3.7c-2.5,2.6-3.5,3.3-6.9,4.3
	c-1.6,0.5-4-0.4-5.3-1.4c-0.7-0.5-2.6-1.6-2.9-2.4c-1.6-3.9-0.9-5.9,1-9.7c1.1-2.2,2.8-4.5,5.3-4.7c1-0.1,2,0.2,2.9,0.6
	c3.7,1.6,6.6,4.9,7.6,8.8c-2.3,0.1-4.7-0.9-6.3-2.5c-0.7-0.7-1.3-1.6-1.3-2.5c-0.1-1.3,0.8-2.4,1.8-3.3c1.9-1.7,5.3-2.4,6.8-0.3
	c1,1.4,0.6,3.3-0.2,4.9c-1.3,2.4-3.7,4.4-6.4,4.2c-0.6,0-1.1-0.2-1.6-0.5c-1.3-1.1-0.4-3.2,0.9-4.3c0.8-0.7,1.8-1.4,2.9-1.5
	s2.3,0.4,2.7,1.4c0.4,0.9,0.1,1.9-0.3,2.7c-1.3,2.9-4.3,4.9-7.5,5.1c-0.6,0-1.4-0.1-1.6-0.7c-0.1-0.4,0-0.8,0.1-1.1
	c0.6-1.6,1.4-3.1,2.6-4.3c1.2-1.1,3-1.8,4.6-1.4c2.8,0.7,4.1,4.2,3,6.9c-1,2.7-3.7,4.4-6.4,5.2c-2.2,0.7-5,0.7-6.6-1
	c-0.6-0.7-1-1.7-1.3-2.6c-0.8-2.5-1.2-5.2-0.4-7.7c0.8-2.5,3.1-4.7,5.7-4.5c1,0,2,0.4,3,0.9c2.6,1.2,5.1,3,6.2,5.6
	c1.4,3.4-0.2,7.5-3,9.8s-2.8-2.7-6.5-2.7c-2.1,0-5.1,0.5-6.4-1.1c-1.1-1.3-1.2-0.7-1.3-2.4c-0.2-3.2-3.5-4.1-2.4-7.2
	s3.5-5.8,6.7-6.4c2.7-0.5,5.4,0.6,7.9,1.6c5.8,2.4,2.8,4.3,8.6,6.7"/>
<path class="st5" d="M401.7,489.9c-3.3-0.4-6.6-0.9-9.5-2.6c-2.9-1.6-2.5-3.7-2.7-7c0-0.4,0.9-1.8,1.1-2.1c0.2-0.4,0.2-1.6,0.6-1.8
	c2.2-1.2,1.4-1.3,3.9-1.3c0.7,0,1.3,0.1,1.9,0.5c1.7,1,1.8,3.5,1.7,5.5c2.3-0.3,4.5-0.6,6.8-0.9c0.2,0.9,0.1,1.8-0.3,2.6
	c0.2-0.6,0.7-1.1,1.2-1.5c0.3,2-0.3,4.1-1.6,5.7c-0.2,0.3-0.5,0.5-0.9,0.6s-0.9-0.2-1.2-0.5c-2-1.4-4.2-3.3-3.8-5.7
	c0.4-2.6,3.7-3.8,6.3-3.4c0.4,0.1,0.8,0.2,1,0.5s0.1,0.6,0,0.9c-0.4,1.5-1.5,2.8-3,3.4c-0.6,0.3-1.3,0.4-2,0.2
	c-1.6-0.3-2.7-2-2.8-3.7c-0.1-2,1.3-4,3.2-4.6c1.9-0.6,4.3,0.4,5,2.3s-0.4,4.3-2.3,4.9c-0.9,0.2-2,0-2.3-0.9
	c-0.2-0.7,0.4-1.5,1.1-1.7s1.5-0.1,2.2,0.2c2.3,0.7,4.5,2,6.2,3.7c0.6,0.6,1.1,1.2,1.2,2c0.3,2.1-2.2,3.3-4.2,3.7
	c-3.3,0.6-7.4,0.2-9-2.8c-0.6-1.1-0.7-2.3-0.5-3.5c0.3-2.2,1.7-4.4,3.8-5.3c2.1-1,4.7-0.6,6.3,0.9c0.7,0.7,1.2,1.5,1.2,2.5
	c-0.1,1.2-0.9,2.1-1.8,2.9c-2.6,2.3-5.6,4.1-8.9,5.1c-1.7,0.5-3.8,0.8-5.1-0.5c-0.5-0.5-0.8-1.2-1-1.9c-1.1-4.2,2-8.6,5.8-10.8
	c1.4-0.9,3.2-1.5,4.8-1c1.1,0.4,1.8,1.3,2.5,2.2c1.5,1.8,2.8,4.1,2.4,6.4c-0.3,1.4-1.2,2.6-2.2,3.7c-2.5,2.6-3.5,3.3-6.9,4.3
	c-1.6,0.5-4-0.4-5.3-1.4c-0.7-0.5-2.6-1.6-2.9-2.4c-1.6-3.9-0.9-5.9,1-9.7c1.1-2.2,2.8-4.5,5.3-4.7c1-0.1,2,0.2,2.9,0.6
	c3.7,1.6,6.6,4.9,7.6,8.8c-2.3,0.1-4.7-0.9-6.3-2.5c-0.7-0.7-1.3-1.6-1.3-2.5c-0.1-1.3,0.8-2.4,1.8-3.3c1.9-1.7,5.3-2.4,6.8-0.3
	c1,1.4,0.6,3.3-0.2,4.9c-1.3,2.4-3.7,4.4-6.4,4.2c-0.6,0-1.1-0.2-1.6-0.5c-1.3-1.1-0.4-3.2,0.9-4.3c0.8-0.7,1.8-1.4,2.9-1.5
	s2.3,0.4,2.7,1.4c0.4,0.9,0.1,1.9-0.3,2.7c-1.3,2.9-4.3,4.9-7.5,5.1c-0.6,0-1.4-0.1-1.6-0.7c-0.1-0.4,0-0.8,0.1-1.1
	c0.6-1.6,1.4-3.1,2.6-4.3c1.2-1.1,3-1.8,4.6-1.4c2.8,0.7,4.1,4.2,3,6.9c-1,2.7-3.7,4.4-6.4,5.2c-2.2,0.7-5,0.7-6.6-1
	c-0.6-0.7-1-1.7-1.3-2.6c-0.8-2.5-1.2-5.2-0.4-7.7c0.8-2.5,3.1-4.7,5.7-4.5c1,0,2,0.4,3,0.9c2.6,1.2,5.1,3,6.2,5.6
	c1.4,3.4-0.2,7.5-3,9.8s-2.8-2.7-6.5-2.7c-2.1,0-5.1,0.5-6.4-1.1c-1.1-1.3-1.2-0.7-1.3-2.4c-0.2-3.2-3.5-4.1-2.4-7.2
	s3.5-5.8,6.7-6.4c2.7-0.5,5.4,0.6,7.9,1.6c5.8,2.4,2.8,4.3,8.6,6.7"/>
<g>
	<g>
		<path class="st6" d="M334,474c-0.1,0.6-0.1,0.1-0.2-0.7c0-1-0.1-0.8-0.2-0.9c-0.1-0.3-0.2-0.6-0.3-1c0-1.2-0.2-1.6-0.4-1.3
			c0-0.5-0.1-0.8-0.2-0.7c0-0.5-0.1-0.6-0.2-0.8c-0.1-0.1-0.1-0.7-0.3-0.7c-0.1,0.1-0.2-0.7-0.3-0.9c0-0.7-0.2-0.4-0.3-0.9
			c-0.1-0.4-0.2-0.3-0.3-0.9c-0.1,0-0.1-1.8-0.3-1c-0.2,0.6-0.2-0.4-0.3-0.8s-0.2-0.6-0.3-1.1c-0.1,0-0.3-0.1-0.3-0.8
			c-0.1,0.4-0.3,0.3-0.2-1c-0.2,0.3-0.2-0.6-0.3-0.8c-0.1-0.1-0.2-1.1-0.3-0.9c-0.1-0.2-0.2-1.1-0.3-1c-0.1-0.5-0.2-0.8-0.3-0.9
			c-0.1-0.3-0.2-0.7-0.3-1.1c-0.1-0.8-0.2-1-0.3-1.2c0-0.8-0.2-0.9-0.3-0.8c-0.2-0.5-0.4-1.3-0.6-1.8c-0.1-0.4-0.2-0.8-0.2-1.1
			c-0.1-0.3-0.2-0.5-0.3-0.6c-0.2,0.1-0.3-1-0.4-2c-0.2-0.3-0.3-1-0.5-0.8c-0.2,0.4-0.2-0.7-0.4-0.8c-0.1-0.4-0.1-1-0.2-1
			c-0.1-0.5-0.2-1.2-0.2-0.7c-0.1-0.5-0.2-1.9-0.3-1.6c-0.1-0.3-0.2-0.9-0.2-1.2c-0.1-0.2,0-1.7,0-1.6c0-0.4,0.1-1.3,0.1-1.2
			c-0.1,1.1,0.2-1.1,0.3-1.2c0.2-1.3,0.3-0.8,0.4-1.4c0.3-1.4,0.5-0.6,1-1.9c0.3,0.4,0.7-0.2,1.3-1.7c0.5-0.8,1-1.4,1.6-1.5
			c0.6-0.5,1.2-0.9,1.8-1.2c0.3-0.2,0.7-0.3,1-0.5c0.3-0.1,0.7,0,1.1-0.4c0,0.2,0,0,0,0c1-0.6,1.8-0.3,2.8-0.5
			c1-0.4,1.9-0.2,2.7,0.1c1-0.5,1.8,0.4,2.6,0.7c0.8,0.4,1.6,0.7,2.4,1.2c0.8,0,1.4,1.7,2.1,1.7c0.6,0.7,1.2,1.4,1.6,2.2
			c0.2,0.4,0.4,0.8,0.6,1.2c0.2,0.1,0.3,1.1,0.5,1.3c0-0.1,0,0.9,0.2,0.7c0.2,0.3,0.4,0.9,0.6,1.8c0.1,0.3,0.3,0.8,0.4,1.3
			c0.1,0.3,0.1,0.5,0.2,0.8c0.1,0.1,0.2,0.5,0.2,0.7c0.2,0.4,0.3,1.7,0.6,1.3c0.1,0.5,0.2,0.3,0.3,1c0.1,0.1,0.1,1.1,0.3,1.1
			c0.1,0.6,0.1,1.3,0.3,1c0.1,0.3,0.3-0.2,0.3,0.9c0,0.9,0.2,0.8,0.3,0.7c0.1,0.5,0.4-0.7,0.3,1.1c0,0.6,0.2-0.8,0.3-0.4
			c0,0.5,0.1,0.3,0.1,1.4c0.2-0.1,0,2.1,0.3,1c0,0.6,0,0.8,0,1.1c0,0.1,0,0.2,0.1,0c0.2-0.9,0.1,0.5,0.2-0.2c0.1-0.2,0.1,0.5,0.1,1
			c0,0.2,0,1.1,0.2,0c0.1,0.6,0.2,0.3,0.3,0.6c0.1-0.1,0.2,0.6,0.3,1.4c0.1,0.3,0.1,1.7,0.3,1.1c0.1,0.1,0.2,0.3,0.3,0.7
			c0,1.1,0.2,0.7,0.3,1c0.1-0.2,0.2,0.2,0.3,0.9c0.1,0.2,0.2,0.5,0.3,0.8c0.1,0.2,0.2,0.5,0.3,0.7c0.1,0.7,0.3,1.3,0.5,1.3
			c0.2-0.1,0.4-0.1,0.4,1.4c0.1,0.2,0.2,0.7,0.3,1c0.1,0.2,0.2,0.4,0.2,0.9c0.2-0.3,0.3,0,0.2,0.7c0,0.6,0,1.3,0.1,1.1
			c0.1,0.1,0.2,0,0.2,0.4c0.2-0.2,0.1,1.7,0.2,1.3c0,0.5,0.1,0.6,0,1.4c-0.1,1.1,0,0.3-0.1,1.4c-0.1,0.8-0.2,1-0.3,1.5
			c-0.1,0.2-0.3,1.2-0.4,1.2c-0.2,0.3-0.3,0.6-0.5,1.1s-0.5,1-0.7,1.2c-0.5,0.7-1.1,1.4-1.7,2.1c-1.3,1.2-2.9,2.2-4.8,2.8l0,0
			c-0.9,0.3-1.9,0.5-2.8,0.5c-0.9,0.1-1.8,0-2.7-0.1c-0.9-0.3-1.7-0.7-2.6-0.7c-0.4-0.5-0.8-0.8-1.2-1s-0.8-0.2-1.2-0.3
			c-0.4-0.3-0.7-0.4-1.1-0.6c-0.3-0.4-0.7-0.3-1-1.1c-0.3-0.2-0.6-0.3-0.9-0.9c-0.3-0.5-0.5-0.9-0.8-1.2c-0.2-0.4-0.4-0.8-0.6-1.2
			C334.2,475.6,334.2,473.7,334,474z"/>
	</g>
</g>
<g>
	<g>
		<path class="st6" d="M473.8,427.5c-0.1,0.6-0.1,0.1-0.2-0.7c0-1-0.1-0.8-0.2-0.9c-0.1-0.3-0.2-0.6-0.3-1c0-1.2-0.2-1.6-0.4-1.3
			c0-0.5-0.1-0.8-0.2-0.7c0-0.5-0.1-0.6-0.2-0.8c-0.1-0.1-0.1-0.7-0.3-0.7c-0.1,0.1-0.2-0.7-0.3-0.9c0-0.7-0.2-0.4-0.3-0.9
			c-0.1-0.4-0.2-0.3-0.3-0.9c-0.1,0-0.1-1.8-0.3-1c-0.2,0.6-0.2-0.4-0.3-0.8c-0.1-0.4-0.2-0.6-0.3-1.1c-0.1,0-0.3-0.1-0.3-0.8
			c-0.1,0.4-0.3,0.3-0.2-1c-0.2,0.3-0.2-0.6-0.3-0.8c-0.1-0.1-0.2-1.1-0.3-0.9c-0.1-0.2-0.2-1.1-0.3-1c-0.1-0.5-0.2-0.8-0.3-0.9
			c-0.1-0.3-0.2-0.7-0.3-1.1c-0.1-0.8-0.2-1-0.3-1.2c0-0.8-0.2-0.9-0.3-0.8c-0.2-0.5-0.4-1.3-0.6-1.8c-0.1-0.4-0.2-0.8-0.2-1.1
			c-0.1-0.3-0.2-0.5-0.3-0.6c-0.2,0.1-0.3-1-0.4-2c-0.2-0.3-0.3-1-0.5-0.8c-0.2,0.4-0.2-0.7-0.4-0.8c-0.1-0.4-0.1-1-0.2-1
			c-0.1-0.5-0.2-1.2-0.2-0.7c-0.1-0.5-0.2-1.9-0.3-1.6c-0.1-0.3-0.2-0.9-0.2-1.2c-0.1-0.2,0-1.7,0-1.6c0-0.4,0.1-1.3,0.1-1.2
			c-0.1,1.1,0.2-1.1,0.3-1.2c0.2-1.3,0.3-0.8,0.4-1.4c0.3-1.4,0.5-0.6,1-1.9c0.3,0.4,0.7-0.2,1.3-1.7c0.5-0.8,1-1.4,1.6-1.5
			c0.6-0.5,1.2-0.9,1.8-1.2c0.3-0.2,0.7-0.3,1-0.5c0.3-0.1,0.7,0,1.1-0.4c0,0.2,0,0,0,0c1-0.6,1.8-0.3,2.8-0.5
			c1-0.4,1.9-0.2,2.7,0.1c1-0.5,1.8,0.4,2.6,0.7c0.8,0.4,1.6,0.7,2.4,1.2c0.8,0,1.4,1.7,2.1,1.7c0.6,0.7,1.2,1.4,1.6,2.2
			c0.2,0.4,0.4,0.8,0.6,1.2c0.2,0.1,0.3,1.1,0.5,1.3c0-0.1,0,0.9,0.2,0.7c0.2,0.3,0.4,0.9,0.6,1.8c0.1,0.3,0.3,0.8,0.4,1.3
			c0.1,0.3,0.1,0.5,0.2,0.8c0.1,0.1,0.2,0.5,0.2,0.7c0.2,0.4,0.3,1.7,0.6,1.3c0.1,0.5,0.2,0.3,0.3,1c0.1,0.1,0.1,1.1,0.3,1.1
			c0.1,0.6,0.1,1.3,0.3,1c0.1,0.3,0.3-0.2,0.3,0.9c0,0.9,0.2,0.8,0.3,0.7c0.1,0.5,0.4-0.7,0.3,1.1c0,0.6,0.2-0.8,0.3-0.4
			c0,0.5,0.1,0.3,0.1,1.4c0.2-0.1,0,2.1,0.3,1c0,0.6,0,0.8,0,1.1c0,0.1,0,0.2,0.1,0c0.2-0.9,0.1,0.5,0.2-0.2c0.1-0.2,0.1,0.5,0.1,1
			c0,0.2,0,1.1,0.2,0c0.1,0.6,0.2,0.3,0.3,0.6c0.1-0.1,0.2,0.6,0.3,1.4c0.1,0.3,0.1,1.7,0.3,1.1c0.1,0.1,0.2,0.3,0.3,0.7
			c0,1.1,0.2,0.7,0.3,1c0.1-0.2,0.2,0.2,0.3,0.9c0.1,0.2,0.2,0.5,0.3,0.8c0.1,0.2,0.2,0.5,0.3,0.7c0.1,0.7,0.3,1.3,0.5,1.3
			c0.2-0.1,0.4-0.1,0.4,1.4c0.1,0.2,0.2,0.7,0.3,1c0.1,0.2,0.2,0.4,0.2,0.9c0.2-0.3,0.3,0,0.2,0.7c0,0.6,0,1.3,0.1,1.1
			c0.1,0.1,0.2,0,0.2,0.4c0.2-0.2,0.1,1.7,0.2,1.3c0,0.5,0.1,0.6,0,1.4c-0.1,1.1,0,0.3-0.1,1.4c-0.1,0.8-0.2,1-0.3,1.5
			c-0.1,0.2-0.3,1.2-0.4,1.2c-0.2,0.3-0.3,0.6-0.5,1.1s-0.5,1-0.7,1.2c-0.5,0.7-1.1,1.4-1.7,2.1c-1.3,1.2-2.9,2.2-4.8,2.8l0,0
			c-0.9,0.3-1.9,0.5-2.8,0.5c-0.9,0.1-1.8,0-2.7-0.1c-0.9-0.3-1.7-0.7-2.6-0.7c-0.4-0.5-0.8-0.8-1.2-1c-0.4-0.2-0.8-0.2-1.2-0.3
			c-0.4-0.3-0.7-0.4-1.1-0.6c-0.3-0.4-0.7-0.3-1-1.1c-0.3-0.2-0.6-0.3-0.9-0.9c-0.3-0.5-0.5-0.9-0.8-1.2c-0.2-0.4-0.5-0.8-0.6-1.2
			C474.1,429.1,474,427.2,473.8,427.5z"/>
	</g>
</g>
<path class="st7" d="M327.9,403.5c-0.5-0.2-1.1-0.2-1.6-0.1c-0.7,0.2-1.2,0.7-1.4,1.4c-0.4,1.1,0.1,2.5,1.2,3.1
	c0.4,0.2,0.8,0.3,1.3,0.3s1.1-0.2,1.6-0.5c0.8-0.6,1.3-1.6,1.1-2.6c-0.1-0.4-0.2-0.8-0.4-1C329.4,403.8,328.8,403.4,327.9,403.5z"/>
<path class="st7" d="M364.1,361L364.1,361c-0.6-0.4-1.4-0.4-2.1,0s-1.1,1-1.2,1.7c-0.1,1,0.6,2,1.7,2.7c0.6,0.3,1.1,0.5,1.7,0.5h0.1
	c0.8,0,1.6-0.5,1.9-1.2c0.4-0.8,0.2-1.9-0.5-2.7C365.3,361.5,364.6,361.2,364.1,361z"/>
<path class="st7" d="M406.1,471.4l-1.3-0.3v-0.2c-1-0.1-2.1,0.1-3,0.5l-0.3,0.1l-0.2,0.3c-0.4,0.6-0.5,1.3-0.3,2s0.6,1.3,1.2,1.7
	c0.5,0.3,1.1,0.4,1.6,0.5c0.2,0,0.4,0,0.6,0c0.7,0,1.2-0.1,1.7-0.3c1-0.4,1.6-1.3,1.6-2.3c0-0.6-0.2-1.2-0.6-1.5
	C406.8,471.6,406.3,471.5,406.1,471.4z"/>
<path class="st7" d="M450.5,394.9L450.5,394.9c-0.8,0.3-1.4,0.8-1.9,1.1c-0.4,0.3-1,0.8-1.3,1.5c-0.4,0.9-0.2,2.1,0.7,2.6
	c0.4,0.3,0.9,0.3,1.2,0.3h0.1h2.4c0.2,0,0.7,0,1-0.4c0.4-0.4,0.5-0.9,0.5-1.2V397c0-0.3,0-0.8-0.2-1.2
	C452.6,395,451.7,394.7,450.5,394.9z"/>
<g id="centr2_1_">
	<polygon class="st8" points="462.9,476.5 461.4,475.1 493.4,441.4 494.9,442.8 	"/>
	<polygon class="st9" points="463.6,477.7 462.5,476.6 495,442.4 496.1,443.5 	"/>
	<polygon class="st10" points="463.9,479.5 462.8,478.4 496.8,442.6 497.9,443.7 	"/>
	<polygon class="st8" points="467.4,480.9 468.9,482.3 501,448.6 499.4,447.1 	"/>
	<polygon class="st9" points="466.1,480.1 467.4,481.3 499.8,447 498.6,445.8 	"/>
	<polygon class="st10" points="464.5,480 465.6,481.1 499.6,445.3 498.5,444.2 	"/>
	<polygon class="st11" points="464.2,480.7 463.2,479.7 498.1,443 499.1,444 	"/>
</g>
<g id="nucleo_x5F_esquerdo" class="st0">
	<path class="st12" d="M323,457c-0.2-0.2-0.2-0.5-0.4-0.8c-0.2-0.5-0.5-1.1-0.7-1.6c-0.1-0.3-0.2-0.6-0.2-0.9
		c-0.2-0.5-0.2-0.9-0.5-1.4c-0.6-1.4-1.7-2.5-2.9-3.4c-2.4-2.1-5.1-4.1-8.3-4.9c-2.5-0.7-5.1-0.5-7.6-0.4l-9.3,0.5
		c-1,0.1-2.4,0.2-3.3,1c-0.2,0.2-1.1,0.4-1.7,0.5c-0.9,0.2-1.7,0.4-2.1,0.7c-0.5,0.5-1,0.8-1.4,1.1c-2,1.6-3.1,2.6-4.8,6
		c-0.2,0.5-0.6,1.1-1,1.9c-0.9,1.7-2.1,3.7-2.3,4.9c-0.2,1-0.2,1.9,0,2.8c0.1,0.4,0.1,1.2,0.2,2.3c0.2,3.5,0.5,6.4,0.9,7.2
		c1.7,3.2,3.5,4.9,5.9,7.2l0.7,0.6c1.5,1.5,5.1,4.6,8.7,5.6c-0.6-3.8-1-7.1,0.3-11.1c-1.3,4-0.9,7.3-0.3,11.1
		c0.6,0.2,1.3,0.3,1.9,0.3c3,0.1,6.2,0.2,9.2,0.2c2.2,0,4.5,0,6.7-0.1c1.2,0,2.6-0.1,3.9-0.5c2.1-0.6,4-2.1,5.3-4.3
		c1.2-1.9,2-4.1,2.7-6.2C324.1,470.5,325.8,463.2,323,457z"/>
	<g class="st13">
		<g>
			<path class="st14" d="M292.9,485.6c0.7,0.2,1.3,0.3,2,0.3c5.3,0.2,10.6,0.2,15.9,0.1c1.3,0,2.5-0.1,3.7-0.5
				c2.1-0.6,3.9-2.2,5.1-4.1s2-4,2.6-6.2c1.7-5.9,2.9-12.5,0.3-18.2c-0.4-0.8-0.8-1.6-1.1-2.4c-0.2-0.8-0.4-1.5-0.7-2.2
				c-0.5-1.3-1.7-2.4-2.7-3.3c-2.4-2.1-5.1-4-8.1-4.9c-2.4-0.6-4.9-0.5-7.4-0.4c-3.1,0.2-6.2,0.4-9.3,0.5c-1.1,0.1-2.3,0.2-3.1,0.8
				c-0.6,0.5-3.1,0.7-3.7,1.2c-2.9,2.5-4.1,3-6,7.1c-0.8,1.6-2.9,5-3.3,6.8c-0.2,0.9-0.2,1.7,0,2.7c0.2,1.2,0.4,8.2,1,9.3
				c1.8,3.3,3.7,5,6.5,7.8C286.7,482.2,289.9,484.7,292.9,485.6"/>
			<path class="st14" d="M292.9,485.6"/>
		</g>
	</g>
	<g class="st13">
		<path class="st15" d="M312.9,456c1.7,3.4,1.2,7.8-1.4,10.6c-0.7,0.7-1.4,1.3-2.2,1.9c-0.5,0.4-1.1,0.8-1.7,0.9
			c-0.5,0.1-1,0-1.4-0.1c-3.5-0.8-6.9-2.1-10-3.9c-1.4-0.8-2.8-1.7-3.4-3.3c-0.4-1-0.4-2.1-0.3-3.2c0.2-1.7,0.5-3.3,1.1-4.9
			c0.5-1.1,1.1-2.4,2.4-2.5c0.4-0.1,0.8,0,1.2,0c1-0.1,1.8-0.6,2.7-1.1c1.5-0.7,2.2,0.3,3.6,0.2c1.1-0.1,1.4-0.9,2.7-0.6
			C309,450.8,311.6,453.5,312.9,456z"/>
	</g>
</g>
<g id="nucleo_x5F_direito" class="st0">
	<path class="st12" d="M538.5,451.8c-0.2-0.2-0.2-0.5-0.4-0.8c-0.2-0.5-0.5-1.1-0.7-1.6c-0.1-0.3-0.2-0.6-0.2-0.9
		c-0.2-0.5-0.2-0.9-0.5-1.4c-0.6-1.4-1.7-2.5-2.9-3.4c-2.4-2.1-5.1-4.1-8.3-4.9c-2.5-0.7-5.1-0.5-7.6-0.4l-9.3,0.5
		c-1,0.1-2.4,0.2-3.3,1c-0.2,0.2-1.1,0.4-1.7,0.5c-0.9,0.2-1.7,0.4-2.1,0.7c-0.5,0.5-1,0.8-1.4,1.1c-2,1.6-3.1,2.6-4.8,6
		c-0.2,0.5-0.6,1.1-1,1.9c-0.9,1.7-2.1,3.7-2.3,4.9c-0.2,1-0.2,1.9,0,2.8c0.1,0.4,0.1,1.2,0.2,2.3c0.2,3.5,0.5,6.4,0.9,7.2
		c1.7,3.2,3.5,4.9,5.9,7.2l0.7,0.6c1.5,1.5,5.1,4.6,8.7,5.6c-0.6-3.8-1-7.1,0.3-11.1c-1.3,4-0.9,7.3-0.3,11.1
		c0.6,0.2,1.3,0.3,1.9,0.3c3,0.1,6.2,0.2,9.2,0.2c2.2,0,4.5,0,6.7-0.1c1.2,0,2.6-0.1,3.9-0.5c2.1-0.6,4-2.1,5.3-4.3
		c1.2-1.9,2-4.1,2.7-6.2C539.7,465.3,541.4,458,538.5,451.8z"/>
	<g class="st13">
		<g>
			<path class="st14" d="M508.5,480.4c0.7,0.2,1.3,0.3,2,0.3c5.3,0.2,10.6,0.2,15.9,0.1c1.3,0,2.5-0.1,3.7-0.5
				c2.1-0.6,3.9-2.2,5.1-4.1c1.2-1.9,2-4,2.6-6.2c1.7-5.9,2.9-12.5,0.3-18.2c-0.4-0.8-0.8-1.6-1.1-2.4c-0.2-0.8-0.4-1.5-0.7-2.2
				c-0.5-1.3-1.7-2.4-2.7-3.3c-2.4-2.1-5.1-4-8.1-4.9c-2.4-0.6-4.9-0.5-7.4-0.4c-3.1,0.2-6.2,0.4-9.3,0.5c-1.1,0.1-2.3,0.2-3.1,0.8
				c-0.6,0.5-3.1,0.7-3.7,1.2c-2.9,2.5-4.1,3-6,7.1c-0.8,1.6-2.9,5-3.3,6.8c-0.2,0.9-0.2,1.7,0,2.7c0.2,1.2,0.4,8.2,1,9.3
				c1.8,3.3,3.7,5,6.5,7.8C502.3,477,505.5,479.5,508.5,480.4"/>
			<path class="st14" d="M508.5,480.4"/>
		</g>
	</g>
	<g class="st13">
		<path class="st15" d="M528.4,450.8c1.7,3.4,1.2,7.8-1.4,10.6c-0.7,0.7-1.4,1.3-2.2,1.9c-0.5,0.4-1.1,0.8-1.7,0.9
			c-0.5,0.1-1,0-1.4-0.1c-3.5-0.8-6.9-2.1-10-3.9c-1.4-0.8-2.8-1.7-3.4-3.3c-0.4-1-0.4-2.1-0.3-3.2c0.2-1.7,0.5-3.3,1.1-4.9
			c0.5-1.1,1.1-2.4,2.4-2.5c0.4-0.1,0.8,0,1.2,0c1-0.1,1.8-0.6,2.7-1.1c1.5-0.7,2.2,0.3,3.6,0.2c1.1-0.1,1.4-0.9,2.7-0.6
			C524.6,445.6,527.2,448.3,528.4,450.8z"/>
	</g>
</g>
<g id="esquerdo">
	<path class="st16" d="M395.8,340.9c-14.1-1.5-27.8,4.6-40.2,11.6c-3.1,1.8-6.2,3.6-9.6,4.8c-2.8,1-5.7,1.5-8.4,2.5
		c-3.5,1.3-6.6,3.4-9.6,5.4c-12.4,8.3-25.2,16.9-33.2,29.4c-2.3,3.6-4.3,7.6-7.9,10c5.8-0.6,10.1-4.4,14.4-8.3
		c6.9-6.3,13.6-12.8,20.1-19.4c1.9-1.9,3.7-3.8,5.7-5.5c14.2-12.3,34.1-15.3,50.8-24c2.7-1.4,5.3-2.9,8.2-3.9S393,339.8,395.8,340.9
		z"/>
	<path class="st16" d="M403.3,447c-2.6,1.5-5.8,1.7-8.8,1.7c-15.4,0-30.7-3-44.9-9c-5.2-2.2-10.2-4.7-15.3-7.3
		c-3.9-2-7.7-3.9-11.4-6.3c-4.2-2.7-8.2-5.9-12.1-9.1c-5.9-4.8-15.3-8.2-21.3-13.1l-2.1-0.5l1,2c4.3,2.9,10.2,6.4,13.3,10.6
		c2.1,2.8,5.2,4.6,7.8,6.9c3.1,2.7,7,4.1,10.6,6.1c5.2,2.9,9.5,7.3,14.8,10c5.7,2.9,12.2,3.8,18,6.2c3.2,1.3,6.2,3,9.5,4
		c3.4,1,7,1,10.6,1c5.2,0,10.4,0.1,15.5,0.1c5.7,0,11.6,0.1,17-1.8"/>
</g>
<g id="direito">
	<g id="negocio">
		<path class="st16" d="M402.2,392.6c2.4,1,5,1.9,7.6,2.5c12,2.9,24.1,5.7,36.1,8.6c1.5,0.4,3,0.7,4.6,1c11.5,2.4,23.3,1.9,35.1,1.5
			c3.8-0.1,7.7-0.3,11.5-0.4c-6.8-4.7-16.4-3.4-24.6-3.1c-10.5,0.4-21.2,0.5-31.5-1.6c-11.1-2.2-21.6-6.9-32.9-7.7
			c-1.9-0.1-3.5-1.3-5.3-1.7"/>
	</g>
	<path class="st16" d="M408,479.5c4.5-3.3,8.9-6.5,13.4-9.8c2.1-1.6,4.3-3.2,6.1-5.2c1.7-1.9,3-4.3,4.8-6c1.9-1.8,4.2-3,5.9-4.9
		c1.8-2.1,2.8-4.9,5.1-6.4c1.7-1.1,3.8-1.4,5.3-2.7c0.9-0.8,1.4-2,2.2-3c1.2-1.5,3-2.4,4.7-3.4c8.4-4.6,15.9-10.6,22.2-17.8
		c2.6-2.9,4.9-6,7-9.3c0.4-0.7,0.9-1.4,1.6-1.8c0.7-0.4,1.5-0.6,2.2-0.7c2.4-0.5,4.6-1.6,6.5-3.1c-1.4,3.8-2.8,7.7-5.6,10.7
		c-1.4,1.5-3,2.7-4.4,4.2c-2,2.2-3.3,5.1-5.2,7.4c-1.3,1.6-2.9,3-4.5,4.4c-3.9,3.4-7.8,6.8-11.8,10.1c-4.6,4-9.2,7.9-14.2,11.2
		c-4.1,2.7-8.7,5.1-11.7,9c-0.9,1.2-1.7,2.5-2.8,3.5c-1.1,0.9-2.5,1.5-3.7,2.2c-4.6,2.5-7.7,7.3-12.5,9.5c-2.8,1.3-6.1,1.7-8.5,3.7
		c-0.8,0.7-1.5,1.5-2.4,2.1c-2.1,1.4-5.1,1-7.2,2.6"/>
</g>
<g id="cromossomo">
	<path class="st11" d="M425.5,342c0.1,0.8,0.2,1.7,0.8,2.3c0.6,0.6,1.8,0.7,2.1-0.1c0.4-0.9-0.6-1.7-1-2.6c-0.3-0.5-0.3-1.2-0.4-1.8
		c-0.1-0.9-0.1-1.8-0.2-2.6C424.2,336.3,425.3,340.7,425.5,342z"/>
	<path class="st17" d="M424.8,340.8c0.4,0.8,0.5,1.6,0.5,2.5c0,1,0,1.9-0.1,2.9c0,0.5-0.1,1-0.4,1.4c-0.3,0.4-0.9,0.6-1.3,0.4
		c-0.3-1.3-0.6-2.7-0.9-4c-0.1-0.6-0.3-1.2-0.6-1.7C420.3,339.4,423.5,338.3,424.8,340.8z"/>
</g>
</svg>
