<?xml version="1.0" encoding="utf-8"?>
<!-- Generator: Adobe Illustrator 19.2.1, SVG Export Plug-In . SVG Version: 6.00 Build 0)  -->
<svg version="1.1" id="Layer_1" xmlns="http://www.w3.org/2000/svg" xmlns:xlink="http://www.w3.org/1999/xlink" x="0px" y="0px"
	 viewBox="0 0 612 792" enable-background="new 0 0 612 792" xml:space="preserve">
<path fill="#0F5658" d="M312.429,535.321c-56.559,1.339-104.534-34.576-117.734-87.546c-9.806-39.352,0.131-73.848,27.777-103.148
	c20.858-22.106,46.356-36.16,76.539-40.867c26.504-4.133,51.084,1.768,73.219,16.642c30.932,20.786,48.739,50.154,51.197,87.221
	c1.915,28.881-2.672,57.145-18.025,82.664c-12.404,20.618-30.807,33.072-53.564,39.789
	C338.447,534.029,324.764,535.36,312.429,535.321z"/>
<path fill="#97E0CB" d="M285.087,514.686c-37.409-8.276-68.154-41.071-74.196-78.375c-6.376-39.367,9.311-69.271,39.656-92.474
	c20.654-15.793,44.142-24.623,70.665-22.806c18.346,1.257,34.683,8.293,48.637,19.983c23.679,19.837,36.007,45.533,35.829,76.507
	c-0.108,18.715-3.15,37.099-11.069,54.368c-11.448,24.964-31.457,38.383-57.947,43.071c-4.576,0.81-9.167,1.615-13.847,1.544
	c-11.884-1.226-23.939,0.613-35.749-1.996C286.424,514.365,285.738,514.52,285.087,514.686z"/>
<path fill="#96DDD0" d="M285.087,514.686c3.603-1.963,7.026,0.581,10.632,0.468c9.036-0.283,18.16-0.916,27.095,1.349
	C310.157,517.592,297.547,517.694,285.087,514.686z"/>
<path fill="#2E98D9" d="M284.069,458.598c-0.01,6.861-2.993,10.727-7.246,11.439c-5.035,0.844-10.084-1.682-11.692-6.443
	c-2.552-7.554-4.916-15.187-6.962-22.892c-1.329-5.006,0.951-9.487,4.981-11.302c4.882-2.198,9.297-1.47,11.737,3.003
	C279.681,441.194,281.183,451.171,284.069,458.598z"/>
<path fill="#2E98D9" d="M375.184,424.91c-2.149-6.776-4.364-13.532-6.426-20.334c-1.617-5.331,0.826-10.801,5.342-12.372
	c5.698-1.982,10.962,0.619,12.992,6.542c2.512,7.328,5.207,14.603,6.946,22.175c0.686,2.027,0.733,4.051-0.034,6.07
	c-3.338,7.727-9.714,8.928-16.087,3.03c0.408-3.794-1.536-7.156-1.639-11.186C375.807,421.139,378.5,423.421,375.184,424.91z"/>
<path fill="#D71FF1" d="M312.06,352.029c10.331-4.493,20.834-5.507,30.783,0.43c7.572,4.518,8.874,12.315,8.223,20.526
	c-0.65,0.735-1.147,1.674-2.308,1.73c-1.085,0.042-1.889-0.426-2.442-1.346c-0.955-2.724-2.573-5.227-2.613-8.267
	c-0.049-3.79-3.587-0.71-4.764-2.339c-0.572-0.388-1.031-0.886-1.405-1.461c-0.704-2.015-2.387-2.916-4.208-3.669
	c-0.39-0.281-0.655-0.648-0.81-1.101c-0.141-1.497,0.727-2.158,2.027-2.464c2.019-0.319,3.807,0.46,5.595,1.233
	c-1.32-0.65-2.589-1.449-4.141-1.352c-0.456-0.028-0.906-0.098-1.35-0.202c-4.806-1.041-9.337-1.372-11.537,4.406
	c-0.73,1.56-1.902,2.946-1.841,4.806c-0.073,1.287-0.01,2.553,0.524,3.758c0.844,2.596,3.63,3.439,5.004,5.544
	c0.613,0.926,1.332,1.803,1.517,2.95c-1.117,0.936-1.125,2.584-2.249,3.53c-1.903,0.746-3.885,0.544-5.854,0.535
	c-3.647-0.149-5.572-2.584-7.171-5.431c-0.975-1.736-1.75-3.588-3.039-5.138c-1.061-1.56-1.259-3.262-0.827-5.063
	c0.734-1.406,1.65-2.387,3.982-1.072c-1.793-1.543-3.616-2.371-3.41-4.538c0.312-0.362,0.757-0.557,1.112-0.853
	c0.172-0.143-0.1-0.322-0.479-0.122c-0.558,0.294-1.123,0.592-0.882,1.398c0.135,0.625,0.349,1.234,0.272,1.888
	c-0.524,2.097-1.53,4.126-0.855,6.387c0.327,2.431-0.436,4.66-1.24,6.884c-1.459,1.178-0.654,5.397-4.508,3.381
	c0.161-5.381-2.123-11.052,1.891-15.977c1.591-0.52,1.309-2.11,1.846-3.233c0.223-2.102,2.12-3.153,3.03-4.823
	c0,0,0.037-0.028,0.037-0.027c0.686-0.295,1.371-0.59,2.057-0.885c0.119,0.098,0.209,0.229,0.347,0.305
	C311.88,351.91,312.552,352.479,312.06,352.029z"/>
<path fill="#D51FEF" d="M319.984,378.008c2.33-0.008,4.661-0.016,6.991-0.024c0.209,0.002,0.418,0.003,0.627,0.001
	c1.265,0.106,2.518,0.045,3.752-0.294c1.546-0.377,3.069-0.84,4.65-1.045c2.72-0.766,5.57-0.808,8.296-1.528
	c1.485-0.54,3.244,0.1,4.584-1.073c0.727-0.353,1.454-0.706,2.181-1.059c-0.173,5.008-1.175,9.773-4.085,13.981
	c-0.209-0.222-0.313-0.333-0.313-0.333c-0.132-0.081-0.03,0.035,0.304,0.349c-0.35,0.921-0.7,1.843-1.05,2.764
	c-1.828,2.234-4.171,2.832-7.028,2.804c-5.616-0.054-11.255-0.47-16.853,0.38c-1.614-0.462-3.272-0.856-4.282-2.4
	c0.007-0.875,0.468-1.477,1.165-1.932c3.219-0.77,6.777,1.207,9.802-1.195c1.398-0.776,3.255-0.384,4.637-1.931
	c-3.844-3.521-9.447-3.162-13.417-6.191C319.659,378.846,319.687,378.422,319.984,378.008z"/>
<path fill="#734FEC" d="M245.999,355.968c2.48,0.349,3.588,1.755,4.007,4.263c1.609,9.632,3.233,19.269,5.263,28.817
	c0.571,2.687,0.035,4.062-2.184,5.156c-1.196-0.98-0.512-2.443-0.947-3.618c-0.227-0.597-0.462-1.189-0.641-1.804
	c-0.184-1.995-0.926-3.814-1.776-5.607c-1.073-7.491-2.899-14.852-3.683-22.387C245.869,359.174,245.149,357.584,245.999,355.968z"
	/>
<path fill="#703EF0" d="M245.999,355.968c2.562,9.188,3.523,18.662,5,28.044c0.854,1.547,0.683,2.944-0.601,4.179
	c-1.925,0.866-2.855-0.102-3.087-1.871c-1.138-8.692-2.559-17.328-4.916-25.784c-0.54-1.936,0.701-3.096,1.644-4.42
	C244.692,356.067,245.345,356.017,245.999,355.968z"/>
<path fill="#7A62E7" d="M244.039,356.116c-2.329,4.927,1.508,9.086,1.778,13.745c0.326,5.613,2.843,10.988,2.395,16.786
	c-0.078,1.013,0.923,1.232,1.751,1.405c1.181,1.993,0.592,3.994,0.025,5.994c-2.129-0.038-2.657-1.412-2.977-3.238
	c-1.706-9.744-3.306-19.514-5.387-29.18C241,358.728,241.626,357.256,244.039,356.116z"/>
<path fill="#97DDCE" d="M320.99,391.969c6.201,0.765,12.421,0.195,18.631,0.291c2.494,0.038,4.184-1.724,6.3-2.514
	c-0.88,2.66-2.876,3.361-5.459,3.28c-2.987-0.094-5.979-0.054-8.968-0.011c-3.588,0.052-6.891,0.012-10.351,2.298
	c-3.098,2.047-7.656,0.205-12.002,1.734c1.934-4.321,4.657-2.2,6.966-2.103c1.096,0.046,2.516,0.569,3.214-0.613
	c0.698-1.185-1.049-1.432-1.32-2.326C318.989,391.303,319.986,391.344,320.99,391.969z"/>
<path fill="#7042EB" d="M332.128,491.992c-0.2-0.211-0.28-0.46-0.239-0.748c-0.795-1.534,0.019-2.629,1.001-3.68
	c0.489-0.772,1.067-1.466,1.788-2.033c1.263-0.856,2.516-1.724,3.335-3.068c0.757-1.099,1.589-2.135,2.546-3.068
	c1.488-0.889,2.288-3.07,4.582-2.459c2.961,3.591-1.781,4.587-2.344,6.998c-1.571,2.262-3.608,4.13-5.284,6.312
	C336.186,491.974,334.514,493.243,332.128,491.992z"/>
<path fill="#7C76DF" d="M356.823,471.909c-4.044,5.256-8.848,9.776-13.764,14.186c-1.17-1.127-0.288-2.194,0.093-3.275
	c2.909-3.567,5.693-7.251,9.287-10.197C353.858,472.149,354.912,469.356,356.823,471.909z"/>
<path fill="#2F99DC" d="M375.184,424.91c2.448-3.231-0.929-5.855-1.185-9.208c1.809,0.194,2.765,1.204,2.817,2.417
	c0.139,3.244,1.537,6.104,2.419,9.113c0.438,1.496,0.751,2.616-1.316,2.788C376.391,428.647,375.735,426.807,375.184,424.91z"/>
<path fill="#734DEB" d="M343.989,482.996c-0.31,1.032-0.62,2.065-0.93,3.098c-1.33,1.645-2.661,3.29-3.992,4.935
	c-0.443,0.904-1.139,1.566-1.987,2.083c-1.664-0.317-3.569,0.432-4.953-1.12c5.541-0.522,6.31-6.292,9.88-8.981
	C342.664,482.443,343.324,482.381,343.989,482.996z"/>
<path fill="#785AE8" d="M347.958,469.946c2.064-2.351,4.116-4.715,6.199-7.049c0.928-1.039,1.919-1.228,2.879-0.001
	c0.815,3.812-2.544,5.227-4.323,7.554c-1.085,0.93-2.08,2.053-3.729,1.842C348.099,471.749,347.503,471.077,347.958,469.946z"/>
<path fill="#D22BEB" d="M310.846,386.288c-2.787-2.368-6.467-3.963-7.091-8.201c4.919-1.946,6.594,2.067,8.937,4.863
	C312.864,384.497,312.415,385.703,310.846,386.288z"/>
<path fill="#7D66EA" d="M347.958,469.946c0.351,0.689,0.702,1.379,1.053,2.068c0.42,2.669-1.617,3.648-3.332,4.851
	c-0.233,0.04-0.468,0.077-0.703,0.113c-1.325,1.005-2.65,2.009-3.975,3.014c-0.622-0.741-0.625-1.516-0.124-2.318
	C342.452,474.379,345.266,472.218,347.958,469.946z"/>
<path fill="#C81EE3" d="M311.998,383.011c-2.754-1.629-4.193-5.46-8.242-4.924c-0.197-0.363-0.394-0.726-0.59-1.089
	c2.88,1.042,1.435-3.419,3.822-3.003c0.183,0.119,0.367,0.238,0.554,0.351c2.257,2.031,4.07,4.577,6.91,5.943
	c0.385,0.292,0.681,0.651,0.904,1.078c0.268,1.616-0.574,2.244-2.05,2.309C312.814,383.563,312.376,383.346,311.998,383.011z"/>
<path fill="#7A65E5" d="M340.877,477.675c0.041,0.773,0.083,1.545,0.124,2.318c-0.668,1.002-1.336,2.004-2.004,3.006
	c-1.357,0.967-2.803,1.814-3.993,3.003c-0.341,0.655-0.682,1.31-1.023,1.965c-1.132,0.509-1.713-0.091-2.115-1.052
	C334.37,483.348,336.987,479.891,340.877,477.675z"/>
<path fill="#96DFCE" d="M323.06,461.985c4.276,2.851-1.58,4.742-0.213,7.182c-1.699,0.371-1.107-3.598-3.284-1.101
	c-2.593,2.973-1.429-0.585-1.638-1.07c-0.542-1.263-1.585-2.653-0.072-3.998C319.897,464.243,321.647,463.98,323.06,461.985z"/>
<path fill="#703DF3" d="M249.989,394.047c-1.55-1.992-0.399-3.995-0.025-5.995c0.695-1.257,1.196-2.564,1.035-4.041
	c1.378,1.449,1.824,3.089,1.018,4.984c0.02,0.63,0.319,0.992,0.974,1.011c1.835,1.359-0.477,2.81,0.094,4.197
	C251.974,395.689,251.001,394.479,249.989,394.047z"/>
<path fill="#6831EE" d="M351.983,469.974c1.554-2.452,4.171-4.146,5.053-7.077c1.485-0.001,2.542,0.601,2.964,2.1
	c-0.656,2.989-3.053,4.321-5.413,5.693c-0.835,0.494-1.691,0.861-2.68,0.468c-0.257-0.28-0.331-0.549-0.223-0.806
	C351.79,470.1,351.889,469.974,351.983,469.974z"/>
<path fill="#7558E9" d="M354.033,470.031c1.989-1.678,3.978-3.356,5.968-5.035c2.239,3.819-2.027,4.65-3.176,6.913
	c-1.732-1.198-2.308,1.491-3.792,1.126C352.406,471.714,353.484,470.961,354.033,470.031z"/>
<path fill="#91E3CA" d="M331.966,344.876c-4.348,1.262-8.696,1.745-13.093,1.082c-1.13-0.17-2.229-0.871-1.548-1.885
	c1.235-1.839,1.074,0.79,1.795,0.793C323.401,344.886,327.683,344.876,331.966,344.876z"/>
<path fill="#92E3C4" d="M263.002,407.997c0.261-1.38,1.033-1.938,1.617-0.384c0.694,1.848,1.096,4.19-0.691,5.563
	c-1.767,1.357-4.002,1.486-5.924-0.195C260.319,411.969,261.933,410.256,263.002,407.997z"/>
<path fill="#CC83EE" d="M323.06,461.985c0.062,1.495,0.075,3.21-1.692,3.547c-1.743,0.332-3.063-0.683-3.513-2.534
	C319.329,461.324,321.268,462.036,323.06,461.985z"/>
<path fill="#9CDCD3" d="M339.764,395.747c-4.578,0-9.155,0-13.733,0c0-0.166,0-0.333,0-0.499c4.578,0,9.157,0,13.735,0
	C339.766,395.414,339.765,395.58,339.764,395.747z"/>
<path fill="#D770FA" d="M359.009,403.803c-0.076,1.067-0.399,1.984-1.671,1.987c-1.379,0.003-2.178-0.843-2.191-2.14
	c-0.015-1.436,1.194-2.019,2.342-2.001C358.621,401.666,358.979,402.737,359.009,403.803z"/>
<path fill="#D91DF2" d="M311.998,383.011c0.32,0.003,0.641,0.005,0.961,0.005c1.285,0.875,2.665,1.644,3.472,3.07
	c0.143,0.46,0.18,0.923,0.104,1.401c-0.177,0.471-0.483,0.827-0.918,1.076c-1.025,0.405-1.93,0.155-2.76-0.5
	c-0.67-0.592-1.339-1.184-2.009-1.776C311.23,385.195,311.614,384.103,311.998,383.011z"/>
<path fill="#A3D7DA" d="M263.002,407.997c0.655,3.989-1.01,5.651-4.998,4.983c-0.003-0.324-0.007-0.647-0.011-0.971
	c0.292-0.551,0.752-0.953,1.203-1.361c0.651-0.794,0.97-1.802,1.661-2.568C261.572,408.053,262.287,408.025,263.002,407.997z"/>
<path fill="#DC65F5" d="M288.672,374.655c0.974,0.369,1.85,0.959,1.65,2.104c-0.161,0.926-1.095,1.23-1.952,1.116
	c-0.924-0.122-1.459-0.772-1.305-1.743C287.202,375.274,287.597,374.574,288.672,374.655z"/>
<path fill="#92E2C3" d="M352.305,377.852c0-1.997,0-3.994,0-6.719C354.976,373.851,351.6,375.846,352.305,377.852z"/>
<path fill="#B9A1DF" d="M260.039,411.882c-0.682,0.043-1.363,0.085-2.045,0.128c-1.794-2.6-1.484-4.09,2.047-3.883
	C260.161,409.378,260.164,410.63,260.039,411.882z"/>
<path fill="#CE29E8" d="M312.856,388.063c1.047-0.022,2.094-0.045,3.141-0.067c1.342-0.673,2.241-0.035,3,1.015
	c-0.336,0.33-0.672,0.66-1.008,0.99c-0.312,0.567-0.623,1.134-1.307,1.337c-1.606-0.172-2.83-0.949-3.678-2.322
	C312.95,388.699,312.901,388.381,312.856,388.063z"/>
<path fill="#96E3C0" d="M351.254,482.564c-0.276-2.388,0.694-3.316,2.353-3.993C354.3,480.68,353.117,481.599,351.254,482.564z"/>
<path fill="#94E4C1" d="M301.544,371.693c0.603,1.983,0.728,3.649-0.095,5.607C300.831,375.321,300.727,373.656,301.544,371.693z"/>
<path fill="#97DDCE" d="M313.003,389.016c1.336,0.649,2.672,1.297,4.008,1.946c0.248,0.146,0.368,0.328,0.359,0.545
	c-0.009,0.235-0.045,0.353-0.109,0.353C315.011,392.157,313.226,391.756,313.003,389.016z"/>
<path fill="#734DEB" d="M331.865,486.916c0.705,0.351,1.411,0.702,2.116,1.052c-0.682,1.101-2.186,1.676-2.092,3.275
	C330.937,489.807,330.369,488.367,331.865,486.916z"/>
<path fill="#96E0C4" d="M342.436,490.679c0.735-1.544,1.607-2.415,2.768-3.017c0.169,0.244,0.493,0.545,0.437,0.658
	C345.032,489.552,344.323,490.693,342.436,490.679z"/>
<path fill="#94DCC9" d="M304.472,383.925c1.459,0.33,2.35,1.182,3.054,2.73C305.426,386.65,304.926,385.265,304.472,383.925z"/>
<path fill="#CD7CF1" d="M260.039,411.882c-1.018-1.253-1.055-2.505,0.001-3.756c0.271-0.043,0.544-0.058,0.818-0.045
	C260.941,409.424,261.55,410.881,260.039,411.882z"/>
<path fill="#319CDA" d="M394.004,426.991c0.011-2.023,0.023-4.046,0.034-6.069C395.351,422.952,395.45,424.976,394.004,426.991z"/>
<path fill="#D32DEF" d="M317.262,391.861c-0.127-0.287-0.21-0.587-0.251-0.898c0.326-0.32,0.651-0.641,0.977-0.961
	c1.001,0.656,2.001,1.312,3.002,1.968c-0.996,0.012-1.993,0.024-2.989,0.035c0,0-0.354-0.151-0.354-0.151L317.262,391.861z"/>
<path fill="#D528F2" d="M306.903,357.788c-0.644,1.061,2.071,4.041-1.846,3.232C305.421,359.8,305.749,358.559,306.903,357.788z"/>
<path fill="#8DE7C4" d="M309.933,352.965c-0.83-0.109-1.744-0.222-1.529-1.368c0.065-0.347,0.837-0.917,0.987-0.835
	c0.879,0.478,0.501,1.407,0.579,2.176C309.97,352.938,309.933,352.965,309.933,352.965z"/>
<path fill="#A4DEE7" d="M337.081,493.112c0.315-1.026,1.047-1.653,1.986-2.083C339.584,492.848,338.827,493.451,337.081,493.112z"/>
<path fill="#2D99E3" d="M261.741,447.192c3.31,1.618,3.533,3.536,2.962,6.191C263.041,451.716,262.438,449.964,261.741,447.192z"/>
<path fill="#2F97E9" d="M273.681,432.959c0.48,0.815,0.844,1.182,0.888,1.584c0.037,0.334-0.302,0.709-0.475,1.067
	c-0.315-0.264-0.789-0.475-0.898-0.806C273.092,434.488,273.37,434.047,273.681,432.959z"/>
<path fill="#791599" d="M333.007,356.941c0.289,0.092,0.584,0.162,0.883,0.21c0.102,2.964,3.666,2.827,4.558,5.087
	c1.068,1.979,0.392,3.764-0.597,5.514c-1.726,2.675-3.195,0.461-4.756-0.246c-1.562-0.195-3.143-0.256-4.606-0.918
	c-1.169-0.745-1.437-1.828-1.18-3.11c0.016-1.503,3.148-1.891,1.434-4.024c0.075-0.968,0.794-1.518,1.368-2.165
	c0.31-0.321,0.673-0.569,1.073-0.766C331.864,356.344,332.483,356.439,333.007,356.941z"/>
<path fill="#C31BDF" d="M314.99,381.009c-0.333-0.004-0.666-0.007-0.998-0.011c-1.947-1.367-3.456-3.222-3.702-5.522
	c-0.305-2.853-2.103-1.227-3.286-1.468c0,0-0.016-0.014-0.016-0.014c0.338-2.665,0.676-5.33,1.015-7.995
	c2.131-1.018,0.772,3.153,2.988,2.01c2.029,1.82,2.393,4.63,3.966,6.7c1.259,1.657,2.457,3.573,5.029,3.297
	c0.01,0.328,0.02,0.656,0.029,0.983c-0.434,0.807-1.182,1.18-2.001,1.458c-0.796,0.205-1.625,0.242-2.422,0.456
	C315.391,380.943,315.19,380.976,314.99,381.009z"/>
<path fill="#8517A6" d="M325.991,373.03c-1.335-2.28-4.913-2.646-5.065-5.935c0.236-2.209,0.895-3.179,2.659-0.906
	c-0.16-1.518-1.161-3.251,0.913-4.226c0.335-0.158,0.825,0.39,1.107,0.795c0.456,0.867,0.575,1.811,0.628,2.769
	c-0.068,2.136,0.505,3.52,3.052,2.618c1.174-0.221,2.327-0.241,3.418,0.349c1.518,2.445,0.59,4.058-1.766,5.191
	c-0.703,0.266-1.43,0.381-2.181,0.339C327.766,373.888,326.823,373.613,325.991,373.03z"/>
<path fill="#901DB0" d="M325.041,363.056c-0.272,0.492-3.462,3.622-4.114,4.038c-1.248-1.174-0.879-2.679-0.841-4.117
	c0.978-2.574,2.545-4.62,5.138-5.758c1.489-0.441,2.985-0.549,4.492-0.09c0.458,0.228,0.88,0.513,1.267,0.85
	c-0.403,0.822-1.15,0.989-1.962,1.032c-0.53,0.903-0.623,2.004-1.278,2.855c-0.247,0.359-0.543,0.67-0.874,0.953
	C326.296,363.176,325.705,363.406,325.041,363.056z"/>
<path fill="#D026EC" d="M333.007,356.941c-0.667,0.042-1.334,0.083-2.002,0.125c-3.092-0.542-6.027,0.453-9.016,0.918
	c2.863-6.38,5.952-7.568,13.015-5.006c-2.065,0.878-4.162,0.585-6.272,0.313c1.99,0.487,4.068-0.03,6.071,0.375
	c0.485,0.376,0.552,0.816,0.206,1.319C333.745,355.026,333.039,355.638,333.007,356.941z"/>
<path fill="#C01CDC" d="M339.011,362.012c5.123-1.471,6.544,0.843,6.204,5.638c-0.127,1.792,2.262,3.195,1.765,5.379
	c-0.29,0.7-0.803,1.124-1.554,1.252c-0.47-0.109-0.85-0.357-1.145-0.739c-0.766-1.248-1.787-2.558-1.752-3.962
	c0.073-2.928-1.674-4.344-3.826-5.611C338.502,363.269,338.435,362.59,339.011,362.012z"/>
<path fill="#9F14C1" d="M321.99,357.983c2.821-2.113,5.753-3.136,9.016-0.918c0.005,0.306-0.003,0.611-0.023,0.915
	c-0.352-0.011-0.704-0.022-1.056-0.032c-1.653-0.732-3.297-0.767-4.932,0.057c-1.637,1.658-3.274,3.315-4.91,4.973
	C319.528,360.858,321.175,359.579,321.99,357.983z"/>
<path fill="#B41FD1" d="M339.011,362.012c0.014,0.675,0.027,1.35,0.041,2.025c2.245,2.413,3.264,4.876,0.306,7.503
	c-0.884,0.28-1.723,0.205-2.5-0.328c-0.808-1.101-0.563-2.167,0.114-3.217c0.409-1.947,1.319-3.814,0.941-5.887
	c-0.268-0.281-0.341-0.543-0.217-0.784c0.118-0.231,0.229-0.347,0.333-0.347C338.355,361.322,338.683,361.667,339.011,362.012z"/>
<path fill="#C21CE1" d="M335.01,354.985c-0.009-0.324-0.016-0.648-0.021-0.971c0.06-0.609,0.708-0.631,1.004-1.004
	c0.816,0.092,1.809-0.079,2.414,0.328c1.453,0.976,4.973,0.986,3.775,3.349c-1.359,2.681-2.647-1.155-4.268-1.224
	C336.941,355.421,335.977,355.152,335.01,354.985z"/>
<path fill="#BD1ADB" d="M325.991,373.03c1.046,0.052,2.092,0.104,3.138,0.156c0.87,0.418,1.553,1.061,2.177,1.78
	c0.305,0.224,0.613,0.438,0.946,0.616c1.277,0.558,2.847,0.227,3.949,1.302c0.213,0.421,0.131,0.787-0.202,1.106
	c-1.671,0.333-3.342,0.667-5.013,1c-0.587-0.761-1.685-0.27-2.312-0.94c-0.862-0.865,0.043-2.131-0.688-3.027
	C327.321,374.36,326.656,373.695,325.991,373.03z"/>
<path fill="#B512D2" d="M309.95,358.023c1.889,2.045,3.778,4.09,5.785,6.264c-2.482,1.063-3.334-3.171-5.7-1.266
	c-2.905-0.11,0.384-2.402-1.065-3.025c0.036-0.642,0.071-1.284,0.107-1.926C309.348,357.684,309.639,357.669,309.95,358.023z"/>
<path fill="#B71BD5" d="M308.97,359.996c1.746,0.519-0.213,2.341,1.065,3.025c0.199,1.686-0.663,3.575,0.955,4.989
	c-2.755,1.945-1.454-2.14-2.988-2.01C306.491,363.703,308.556,361.982,308.97,359.996z"/>
<path fill="#A424C2" d="M338.028,360.977c-0.038,0.376-0.076,0.753-0.115,1.13c-1.588-1.452-5.143-1.31-4.021-4.957
	C336.494,357.103,338.077,358.158,338.028,360.977z"/>
<path fill="#DF19F4" d="M309.95,358.023c-0.292,0.002-0.584,0.017-0.874,0.046c-0.977-1.151,0.456-1.294,0.815-1.853
	c0.739-1.153,1.742-1.64,2.817-0.445c0.401,0.446,0.817,1.309,0.646,1.764C312.582,359.591,311.068,357.602,309.95,358.023z"/>
<path fill="#B816D8" d="M335.993,353.01c-0.335,0.335-0.669,0.669-1.004,1.004c-2.275,0-4.55,0-6.825,0
	c-0.007-0.345-0.014-0.691-0.02-1.036c2.287,0,4.575,0,6.862,0C335.334,352.993,335.663,353.003,335.993,353.01z"/>
<path fill="#A716C2" d="M345.065,374.064c0.638-0.345,1.277-0.69,1.915-1.035c0.635,0.338,1.271,0.676,1.905,1.015
	c-0.7,1.827-2.21,2.033-3.87,1.939C344.387,375.326,344.495,374.689,345.065,374.064z"/>
<path fill="#D51FEF" d="M327.986,375.024c1.198,0.687,0.982,1.841,0.966,2.928c-0.625,0.66-1.272,0.6-1.934,0.061
	c0,0-0.042-0.029-0.042-0.03C324.333,375.98,327.767,376.051,327.986,375.024z"/>
<path fill="#E119FA" d="M312.06,352.029c0.983,0,1.967,0,2.95,0c-1.068,1.124-2.209,3.242-2.984,0.023
	C312.027,352.052,312.06,352.029,312.06,352.029z"/>
<path fill="#BD1AD9" d="M317.995,379.99c0.44-0.802,1.195-0.969,2.018-0.999c4.729,0.924,9.212,2.55,13.507,4.72
	c0.958,0.484,2.525,0.364,2.215,2.097c-0.223,1.249-1.508,1.091-2.338,1.54c-1.388,0.752-2.894,0.652-4.387,0.665
	c-0.891,0.358-1.248-0.188-1.512-0.888c-0.018-0.454,0.077-0.888,0.275-1.288c0.357-0.313,0.805-0.406,1.272-0.448
	c-0.298-0.487-0.819-0.374-1.217-0.335c-0.901,0.087-0.421,1.422-1.32,1.589c-1.126,0.457-2.227,0.423-3.304-0.14
	c-0.59-0.433-0.807-1.04-0.804-1.74c0.159-0.78,0.197-1.52-0.761-1.862c-0.38-0.138-0.734-0.31-1.087-0.492
	C319.53,381.781,318.323,381.347,317.995,379.99z"/>
<path fill="#C319E1" d="M327.988,386.988c0.341,0.342,0.682,0.683,1.023,1.025c-2.983,3.894-6.604,1.391-10.014,0.998
	c-1-0.338-2-0.677-3-1.015c0.001-0.334,0.002-0.667,0.003-1.001c1.3-1.216,2.801-0.883,4.22-0.41
	C322.789,387.441,325.373,387.359,327.988,386.988z"/>
<path fill="#C01CDC" d="M345.065,374.064c-0.017,0.64-0.034,1.28-0.05,1.919c-3.005,0.669-6.011,1.339-9.016,2.008
	c0.001-0.33,0.001-0.659,0.001-0.988c-0.348-0.488-0.309-0.943,0.114-1.367c2.869-1.034,5.686-2.361,8.88-1.64
	C344.994,373.996,345.065,374.064,345.065,374.064z"/>
<path fill="#E317FA" d="M346.971,386.982c-1.957-0.235-2.223-1.392-1.593-3.297c1.848,0.543,1.52,2.025,1.603,3.281
	C346.98,386.966,346.971,386.982,346.971,386.982z"/>
<path fill="#AE0ECC" d="M327.018,378.013c0.645-0.02,1.29-0.04,1.935-0.061c0.819,0.069,1.605,0.203,2.033,1.038
	C329.576,379.021,327.822,380.445,327.018,378.013z"/>
<path fill="#6535E5" d="M252.99,390.006c-0.342,0.667-0.872,1.714-1.544,1.199c-0.903-0.692-0.27-1.621,0.57-2.21
	C252.341,389.332,252.666,389.669,252.99,390.006z"/>
<path fill="#7543F4" d="M354.033,470.031c-0.334,1.001-0.667,2.002-1.001,3.004c-3.014,3.321-6.028,6.641-9.043,9.962
	c-0.661,0.005-1.321,0.01-1.982,0.015c0.413-2.294,4.596-2.733,2.969-6.032c0,0,0.006,0.014,0.006,0.014
	c2.752-1.506,4.278-4.454,7.023-5.969C352.681,470.693,353.357,470.362,354.033,470.031z"/>
<path fill="#734DEB" d="M335.004,486.002c0.311-2.357,2.172-2.654,3.993-3.003C338.12,484.605,337.025,485.919,335.004,486.002z"/>
<path fill="#6C3BE7" d="M352.006,471.024c-2,2.391-3.593,5.26-7.023,5.969c1.343-1.66,2.685-3.319,4.028-4.978
	c0.991-0.68,1.981-1.36,2.972-2.04C351.991,470.324,351.998,470.674,352.006,471.024z"/>
<path fill="#D320F0" d="M307.004,374.009c0.966-1.223,1.933-2.446,3.541-4.481c0.195,4.779,1.57,8.217,3.447,11.471
	C310.326,380.005,308.623,377.048,307.004,374.009z"/>
<path fill="#C31BDF" d="M323.004,384.005c0,0.661,0.001,1.323,0.001,1.984c-2.322,2.342-4.671-0.343-7.004,0.037
	c-1.958-0.049-2.275-1.758-3.042-3.011c1.29-0.047,2.009-0.674,2.031-2.006c0,0,0.012-0.011,0.012-0.011
	c2.249-1.213,3.99,0.651,5.984,0.986l0.019,0.028C321.587,382.76,322.66,383.017,323.004,384.005z"/>
<path fill="#D420EB" d="M316.001,386.026c0.147-0.792,0.323-1.877,1.395-1.038c1.751,1.37,3.701,0.91,5.609,1.001
	c1.336-0.008,2.672-0.015,4.008-0.023c0.338-0.283,0.66-0.267,0.968,0.049c0.005,0.324,0.007,0.648,0.007,0.972
	c-3.994,3.973-7.992-0.321-11.988,0.007C316,386.672,316.001,386.349,316.001,386.026z"/>
<path fill="#881AA7" d="M336.971,367.995c0,0.991,0,1.982,0,2.973c-1.544,2.042-2.806,4.97-5.974,1.896
	c1.578-0.827,1.406-2.551,1.993-3.885c-0.545-1.113,0.28-1.543,1.008-2.021C335.459,365.958,335.081,370.222,336.971,367.995z"/>
<path fill="#931FB2" d="M333.999,366.956c-0.336,0.674-0.672,1.348-1.008,2.022c-1.355,0.001-2.709,0.002-4.064,0.003
	c-0.858-0.309-1.255-0.93-1.239-1.831c0.206-0.645,0.846-0.792,1.311-1.14C330.747,365.895,332.444,366.05,333.999,366.956z"/>
<path fill="#851CA6" d="M327.02,361.983c-0.017-1.451,0.655-2.438,2.001-2.972c4.459,2.507,0.521,2.965-0.98,4.018
	C327.464,362.912,327.12,362.567,327.02,361.983z"/>
<path fill="#901DB0" d="M327.02,361.983c0.34,0.348,0.68,0.697,1.02,1.046c-0.008,1.099-0.231,2.267,0.958,2.98
	c-0.337,0.333-0.675,0.665-1.012,0.998c-1.11,0.442-1.768-0.11-2.26-1.026c0.03-1.423,0.456-2.723,1.224-3.916L327.02,361.983z"/>
<path fill="#B218CE" d="M320.986,381.984c-2.111,0.379-3.989-0.657-5.984-0.986c0.229-2.618,1.698-1.556,2.993-1.008
	C318.992,380.655,319.989,381.32,320.986,381.984z"/>
<path fill="#D82BF6" d="M330.997,372.863c2.713,1.644,3.897-1.533,5.974-1.896c0.677,0.013,1.354,0.025,2.032,0.038
	c1.109,2.622-0.712,3.566-2.587,4.388c-1.722,0.755-3.584,0.605-5.412,0.602c-0.625-0.937-1.251-1.874-1.875-2.81
	C329.752,373.079,330.375,372.971,330.997,372.863z"/>
<path fill="#C82EE6" d="M326.122,365.917c0.622,0.363,1.243,0.727,1.864,1.09c0.314,0.658,0.628,1.316,0.941,1.974
	c-3.689,2.124-4.033-0.036-3.785-2.954C325.419,365.541,325.743,365.483,326.122,365.917z"/>
<path fill="#B52FD8" d="M326.122,365.917c-0.326,0.05-0.653,0.087-0.98,0.11c-0.033-0.991-0.067-1.981-0.101-2.971
	c0.637-0.33,1.274-0.661,1.91-0.991C327.21,363.464,326.706,364.699,326.122,365.917z"/>
<path fill="#B62ECE" d="M324.996,358.005c1.628-1.486,3.273-1.482,4.933-0.057C328.283,357.967,326.64,357.986,324.996,358.005z"/>
<path fill="#D721F0" d="M331.004,375.996c2.551-1.848,7.224-0.295,7.999-4.99c2.314-2.308,0.146-4.646,0.048-6.969
	c2.878-0.22,5.143,0.379,4.368,3.989c-0.504,2.347,2.379,3.643,1.575,5.97c-2.848,1.325-5.769,2.324-8.984,2.009
	c-1.671,0.753-3.341,0.735-5.011-0.001L331.004,375.996z"/>
<path fill="#D51FEF" d="M330.999,376.004c1.67,0,3.341,0,5.011,0.001c-0.005,0.333-0.008,0.665-0.01,0.998
	C334.317,376.751,332.402,377.66,330.999,376.004z"/>
<path fill="#AE13CC" d="M327.981,386.016c-0.323-0.01-0.646-0.026-0.968-0.049c0.574-1.903,0.574-1.903,4.335-0.784
	C330.501,386.703,329.064,385.681,327.981,386.016z"/>
<path fill="#D01FE5" d="M323.004,384.005c-1.29-0.039-1.972-0.688-1.999-1.993c1.208,0.048,2.662-0.279,3.242,1.127
	C324.526,383.813,323.586,383.923,323.004,384.005z"/>
<path fill="#0F5658" d="M312.429,535.321c-56.559,1.339-104.534-34.576-117.734-87.546c-9.806-39.352,0.131-73.848,27.777-103.148
	c20.858-22.106,46.356-36.16,76.539-40.867c26.504-4.133,51.084,1.768,73.219,16.642c30.932,20.786,48.739,50.154,51.197,87.221
	c1.915,28.881-2.672,57.145-18.025,82.664c-12.404,20.618-30.807,33.072-53.564,39.789
	C338.447,534.029,324.764,535.36,312.429,535.321z"/>
<path fill="#97E0CB" d="M285.087,514.686c-37.409-8.276-68.154-41.071-74.196-78.375c-6.376-39.367,9.311-69.271,39.656-92.474
	c20.654-15.793,44.142-24.623,70.665-22.806c18.346,1.257,34.683,8.293,48.637,19.983c23.679,19.837,36.007,45.533,35.829,76.507
	c-0.108,18.715-3.15,37.099-11.069,54.368c-11.448,24.964-31.457,38.383-57.947,43.071c-4.576,0.81-9.167,1.615-13.847,1.544
	c-11.884-1.226-23.939,0.613-35.749-1.996C286.424,514.365,285.738,514.52,285.087,514.686z"/>
<path fill="#96DDD0" d="M285.087,514.686c3.603-1.963,7.026,0.581,10.632,0.468c9.036-0.283,18.16-0.916,27.095,1.349
	C310.157,517.592,297.547,517.694,285.087,514.686z"/>
<path fill="#2E98D9" d="M284.069,458.598c-0.01,6.861-2.993,10.727-7.246,11.439c-5.035,0.844-10.084-1.682-11.692-6.443
	c-2.552-7.554-4.916-15.187-6.962-22.892c-1.329-5.006,0.951-9.487,4.981-11.302c4.882-2.198,9.297-1.47,11.737,3.003
	C279.681,441.194,281.183,451.171,284.069,458.598z"/>
<path fill="#2E98D9" d="M375.184,424.91c-2.149-6.776-4.364-13.532-6.426-20.334c-1.617-5.331,0.826-10.801,5.342-12.372
	c5.698-1.982,10.962,0.619,12.992,6.542c2.512,7.328,5.207,14.603,6.946,22.175c0.686,2.027,0.733,4.051-0.034,6.07
	c-3.338,7.727-9.714,8.928-16.087,3.03c0.408-3.794-1.536-7.156-1.639-11.186C375.807,421.139,378.5,423.421,375.184,424.91z"/>
<path fill="#D71FF1" d="M312.06,352.029c10.331-4.493,20.834-5.507,30.783,0.43c7.572,4.518,8.874,12.315,8.223,20.526
	c-0.65,0.735-1.147,1.674-2.308,1.73c-1.085,0.042-1.889-0.426-2.442-1.346c-0.955-2.724-2.573-5.227-2.613-8.267
	c-0.049-3.79-3.587-0.71-4.764-2.339c-0.572-0.388-1.031-0.886-1.405-1.461c-0.704-2.015-2.387-2.916-4.208-3.669
	c-0.39-0.281-0.655-0.648-0.81-1.101c-0.141-1.497,0.727-2.158,2.027-2.464c2.019-0.319,3.807,0.46,5.595,1.233
	c-1.32-0.65-2.589-1.449-4.141-1.352c-0.456-0.028-0.906-0.098-1.35-0.202c-4.806-1.041-9.337-1.372-11.537,4.406
	c-0.73,1.56-1.902,2.946-1.841,4.806c-0.073,1.287-0.01,2.553,0.524,3.758c0.844,2.596,3.63,3.439,5.004,5.544
	c0.613,0.926,1.332,1.803,1.517,2.95c-1.117,0.936-1.125,2.584-2.249,3.53c-1.903,0.746-3.885,0.544-5.854,0.535
	c-3.647-0.149-5.572-2.584-7.171-5.431c-0.975-1.736-1.75-3.588-3.039-5.138c-1.061-1.56-1.259-3.262-0.827-5.063
	c0.734-1.406,1.65-2.387,3.982-1.072c-1.793-1.543-3.616-2.371-3.41-4.538c0.312-0.362,0.757-0.557,1.112-0.853
	c0.172-0.143-0.1-0.322-0.479-0.122c-0.558,0.294-1.123,0.592-0.882,1.398c0.135,0.625,0.349,1.234,0.272,1.888
	c-0.524,2.097-1.53,4.126-0.855,6.387c0.327,2.431-0.436,4.66-1.24,6.884c-1.459,1.178-0.654,5.397-4.508,3.381
	c0.161-5.381-2.123-11.052,1.891-15.977c1.591-0.52,1.309-2.11,1.846-3.233c0.223-2.102,2.12-3.153,3.03-4.823
	c0,0,0.037-0.028,0.037-0.027c0.686-0.295,1.371-0.59,2.057-0.885c0.119,0.098,0.209,0.229,0.347,0.305
	C311.88,351.91,312.552,352.479,312.06,352.029z"/>
<path fill="#D51FEF" d="M319.984,378.008c2.33-0.008,4.661-0.016,6.991-0.024c0.209,0.002,0.418,0.003,0.627,0.001
	c1.265,0.106,2.518,0.045,3.752-0.294c1.546-0.377,3.069-0.84,4.65-1.045c2.72-0.766,5.57-0.808,8.296-1.528
	c1.485-0.54,3.244,0.1,4.584-1.073c0.727-0.353,1.454-0.706,2.181-1.059c-0.173,5.008-1.175,9.773-4.085,13.981
	c-0.209-0.222-0.313-0.333-0.313-0.333c-0.132-0.081-0.03,0.035,0.304,0.349c-0.35,0.921-0.7,1.843-1.05,2.764
	c-1.828,2.234-4.171,2.832-7.028,2.804c-5.616-0.054-11.255-0.47-16.853,0.38c-1.614-0.462-3.272-0.856-4.282-2.4
	c0.007-0.875,0.468-1.477,1.165-1.932c3.219-0.77,6.777,1.207,9.802-1.195c1.398-0.776,3.255-0.384,4.637-1.931
	c-3.844-3.521-9.447-3.162-13.417-6.191C319.659,378.846,319.687,378.422,319.984,378.008z"/>
<path fill="#734FEC" d="M245.999,355.968c2.48,0.349,3.588,1.755,4.007,4.263c1.609,9.632,3.233,19.269,5.263,28.817
	c0.571,2.687,0.035,4.062-2.184,5.156c-1.196-0.98-0.512-2.443-0.947-3.618c-0.227-0.597-0.462-1.189-0.641-1.804
	c-0.184-1.995-0.926-3.814-1.776-5.607c-1.073-7.491-2.899-14.852-3.683-22.387C245.869,359.174,245.149,357.584,245.999,355.968z"
	/>
<path fill="#703EF0" d="M245.999,355.968c2.562,9.188,3.523,18.662,5,28.044c0.854,1.547,0.683,2.944-0.601,4.179
	c-1.925,0.866-2.855-0.102-3.087-1.871c-1.138-8.692-2.559-17.328-4.916-25.784c-0.54-1.936,0.701-3.096,1.644-4.42
	C244.692,356.067,245.345,356.017,245.999,355.968z"/>
<path fill="#7A62E7" d="M244.039,356.116c-2.329,4.927,1.508,9.086,1.778,13.745c0.326,5.613,2.843,10.988,2.395,16.786
	c-0.078,1.013,0.923,1.232,1.751,1.405c1.181,1.993,0.592,3.994,0.025,5.994c-2.129-0.038-2.657-1.412-2.977-3.238
	c-1.706-9.744-3.306-19.514-5.387-29.18C241,358.728,241.626,357.256,244.039,356.116z"/>
<path fill="#97DDCE" d="M320.99,391.969c6.201,0.765,12.421,0.195,18.631,0.291c2.494,0.038,4.184-1.724,6.3-2.514
	c-0.88,2.66-2.876,3.361-5.459,3.28c-2.987-0.094-5.979-0.054-8.968-0.011c-3.588,0.052-6.891,0.012-10.351,2.298
	c-3.098,2.047-7.656,0.205-12.002,1.734c1.934-4.321,4.657-2.2,6.966-2.103c1.096,0.046,2.516,0.569,3.214-0.613
	c0.698-1.185-1.049-1.432-1.32-2.326C318.989,391.303,319.986,391.344,320.99,391.969z"/>
<path fill="#7042EB" d="M332.128,491.992c-0.2-0.211-0.28-0.46-0.239-0.748c-0.795-1.534,0.019-2.629,1.001-3.68
	c0.489-0.772,1.067-1.466,1.788-2.033c1.263-0.856,2.516-1.724,3.335-3.068c0.757-1.099,1.589-2.135,2.546-3.068
	c1.488-0.889,2.288-3.07,4.582-2.459c2.961,3.591-1.781,4.587-2.344,6.998c-1.571,2.262-3.608,4.13-5.284,6.312
	C336.186,491.974,334.514,493.243,332.128,491.992z"/>
<path fill="#7C76DF" d="M356.823,471.909c-4.044,5.256-8.848,9.776-13.764,14.186c-1.17-1.127-0.288-2.194,0.093-3.275
	c2.909-3.567,5.693-7.251,9.287-10.197C353.858,472.149,354.912,469.356,356.823,471.909z"/>
<path fill="#2F99DC" d="M375.184,424.91c2.448-3.231-0.929-5.855-1.185-9.208c1.809,0.194,2.765,1.204,2.817,2.417
	c0.139,3.244,1.537,6.104,2.419,9.113c0.438,1.496,0.751,2.616-1.316,2.788C376.391,428.647,375.735,426.807,375.184,424.91z"/>
<path fill="#734DEB" d="M343.989,482.996c-0.31,1.032-0.62,2.065-0.93,3.098c-1.33,1.645-2.661,3.29-3.992,4.935
	c-0.443,0.904-1.139,1.566-1.987,2.083c-1.664-0.317-3.569,0.432-4.953-1.12c5.541-0.522,6.31-6.292,9.88-8.981
	C342.664,482.443,343.324,482.381,343.989,482.996z"/>
<path fill="#785AE8" d="M347.958,469.946c2.064-2.351,4.116-4.715,6.199-7.049c0.928-1.039,1.919-1.228,2.879-0.001
	c0.815,3.812-2.544,5.227-4.323,7.554c-1.085,0.93-2.08,2.053-3.729,1.842C348.099,471.749,347.503,471.077,347.958,469.946z"/>
<path fill="#D22BEB" d="M310.846,386.288c-2.787-2.368-6.467-3.963-7.091-8.201c4.919-1.946,6.594,2.067,8.937,4.863
	C312.864,384.497,312.415,385.703,310.846,386.288z"/>
<path fill="#7D66EA" d="M347.958,469.946c0.351,0.689,0.702,1.379,1.053,2.068c0.42,2.669-1.617,3.648-3.332,4.851
	c-0.233,0.04-0.468,0.077-0.703,0.113c-1.325,1.005-2.65,2.009-3.975,3.014c-0.622-0.741-0.625-1.516-0.124-2.318
	C342.452,474.379,345.266,472.218,347.958,469.946z"/>
<path fill="#C81EE3" d="M311.998,383.011c-2.754-1.629-4.193-5.46-8.242-4.924c-0.197-0.363-0.394-0.726-0.59-1.089
	c2.88,1.042,1.435-3.419,3.822-3.003c0.183,0.119,0.367,0.238,0.554,0.351c2.257,2.031,4.07,4.577,6.91,5.943
	c0.385,0.292,0.681,0.651,0.904,1.078c0.268,1.616-0.574,2.244-2.05,2.309C312.814,383.563,312.376,383.346,311.998,383.011z"/>
<path fill="#7A65E5" d="M340.877,477.675c0.041,0.773,0.083,1.545,0.124,2.318c-0.668,1.002-1.336,2.004-2.004,3.006
	c-1.357,0.967-2.803,1.814-3.993,3.003c-0.341,0.655-0.682,1.31-1.023,1.965c-1.132,0.509-1.713-0.091-2.115-1.052
	C334.37,483.348,336.987,479.891,340.877,477.675z"/>
<path fill="#96DFCE" d="M323.06,461.985c4.276,2.851-1.58,4.742-0.213,7.182c-1.699,0.371-1.107-3.598-3.284-1.101
	c-2.593,2.973-1.429-0.585-1.638-1.07c-0.542-1.263-1.585-2.653-0.072-3.998C319.897,464.243,321.647,463.98,323.06,461.985z"/>
<path fill="#703DF3" d="M249.989,394.047c-1.55-1.992-0.399-3.995-0.025-5.995c0.695-1.257,1.196-2.564,1.035-4.041
	c1.378,1.449,1.824,3.089,1.018,4.984c0.02,0.63,0.319,0.992,0.974,1.011c1.835,1.359-0.477,2.81,0.094,4.197
	C251.974,395.689,251.001,394.479,249.989,394.047z"/>
<path fill="#6831EE" d="M351.983,469.974c1.554-2.452,4.171-4.146,5.053-7.077c1.485-0.001,2.542,0.601,2.964,2.1
	c-0.656,2.989-3.053,4.321-5.413,5.693c-0.835,0.494-1.691,0.861-2.68,0.468c-0.257-0.28-0.331-0.549-0.223-0.806
	C351.79,470.1,351.889,469.974,351.983,469.974z"/>
<path fill="#7558E9" d="M354.033,470.031c1.989-1.678,3.978-3.356,5.968-5.035c2.239,3.819-2.027,4.65-3.176,6.913
	c-1.732-1.198-2.308,1.491-3.792,1.126C352.406,471.714,353.484,470.961,354.033,470.031z"/>
<path fill="#91E3CA" d="M331.966,344.876c-4.348,1.262-8.696,1.745-13.093,1.082c-1.13-0.17-2.229-0.871-1.548-1.885
	c1.235-1.839,1.074,0.79,1.795,0.793C323.401,344.886,327.683,344.876,331.966,344.876z"/>
<path fill="#92E3C4" d="M263.002,407.997c0.261-1.38,1.033-1.938,1.617-0.384c0.694,1.848,1.096,4.19-0.691,5.563
	c-1.767,1.357-4.002,1.486-5.924-0.195C260.319,411.969,261.933,410.256,263.002,407.997z"/>
<path fill="#CC83EE" d="M323.06,461.985c0.062,1.495,0.075,3.21-1.692,3.547c-1.743,0.332-3.063-0.683-3.513-2.534
	C319.329,461.324,321.268,462.036,323.06,461.985z"/>
<path fill="#9CDCD3" d="M339.764,395.747c-4.578,0-9.155,0-13.733,0c0-0.166,0-0.333,0-0.499c4.578,0,9.157,0,13.735,0
	C339.766,395.414,339.765,395.58,339.764,395.747z"/>
<path fill="#D770FA" d="M359.009,403.803c-0.076,1.067-0.399,1.984-1.671,1.987c-1.379,0.003-2.178-0.843-2.191-2.14
	c-0.015-1.436,1.194-2.019,2.342-2.001C358.621,401.666,358.979,402.737,359.009,403.803z"/>
<path fill="#D91DF2" d="M311.998,383.011c0.32,0.003,0.641,0.005,0.961,0.005c1.285,0.875,2.665,1.644,3.472,3.07
	c0.143,0.46,0.18,0.923,0.104,1.401c-0.177,0.471-0.483,0.827-0.918,1.076c-1.025,0.405-1.93,0.155-2.76-0.5
	c-0.67-0.592-1.339-1.184-2.009-1.776C311.23,385.195,311.614,384.103,311.998,383.011z"/>
<path fill="#A3D7DA" d="M263.002,407.997c0.655,3.989-1.01,5.651-4.998,4.983c-0.003-0.324-0.007-0.647-0.011-0.971
	c0.292-0.551,0.752-0.953,1.203-1.361c0.651-0.794,0.97-1.802,1.661-2.568C261.572,408.053,262.287,408.025,263.002,407.997z"/>
<path fill="#DC65F5" d="M288.672,374.655c0.974,0.369,1.85,0.959,1.65,2.104c-0.161,0.926-1.095,1.23-1.952,1.116
	c-0.924-0.122-1.459-0.772-1.305-1.743C287.202,375.274,287.597,374.574,288.672,374.655z"/>
<path fill="#92E2C3" d="M352.305,377.852c0-1.997,0-3.994,0-6.719C354.976,373.851,351.6,375.846,352.305,377.852z"/>
<path fill="#B9A1DF" d="M260.039,411.882c-0.682,0.043-1.363,0.085-2.045,0.128c-1.794-2.6-1.484-4.09,2.047-3.883
	C260.161,409.378,260.164,410.63,260.039,411.882z"/>
<path fill="#CE29E8" d="M312.856,388.063c1.047-0.022,2.094-0.045,3.141-0.067c1.342-0.673,2.241-0.035,3,1.015
	c-0.336,0.33-0.672,0.66-1.008,0.99c-0.312,0.567-0.623,1.134-1.307,1.337c-1.606-0.172-2.83-0.949-3.678-2.322
	C312.95,388.699,312.901,388.381,312.856,388.063z"/>
<path fill="#96E3C0" d="M351.254,482.564c-0.276-2.388,0.694-3.316,2.353-3.993C354.3,480.68,353.117,481.599,351.254,482.564z"/>
<path fill="#94E4C1" d="M301.544,371.693c0.603,1.983,0.728,3.649-0.095,5.607C300.831,375.321,300.727,373.656,301.544,371.693z"/>
<path fill="#97DDCE" d="M313.003,389.016c1.336,0.649,2.672,1.297,4.008,1.946c0.248,0.146,0.368,0.328,0.359,0.545
	c-0.009,0.235-0.045,0.353-0.109,0.353C315.011,392.157,313.226,391.756,313.003,389.016z"/>
<path fill="#734DEB" d="M331.865,486.916c0.705,0.351,1.411,0.702,2.116,1.052c-0.682,1.101-2.186,1.676-2.092,3.275
	C330.937,489.807,330.369,488.367,331.865,486.916z"/>
<path fill="#96E0C4" d="M342.436,490.679c0.735-1.544,1.607-2.415,2.768-3.017c0.169,0.244,0.493,0.545,0.437,0.658
	C345.032,489.552,344.323,490.693,342.436,490.679z"/>
<path fill="#94DCC9" d="M304.472,383.925c1.459,0.33,2.35,1.182,3.054,2.73C305.426,386.65,304.926,385.265,304.472,383.925z"/>
<path fill="#CD7CF1" d="M260.039,411.882c-1.018-1.253-1.055-2.505,0.001-3.756c0.271-0.043,0.544-0.058,0.818-0.045
	C260.941,409.424,261.55,410.881,260.039,411.882z"/>
<path fill="#319CDA" d="M394.004,426.991c0.011-2.023,0.023-4.046,0.034-6.069C395.351,422.952,395.45,424.976,394.004,426.991z"/>
<path fill="#D32DEF" d="M317.262,391.861c-0.127-0.287-0.21-0.587-0.251-0.898c0.326-0.32,0.651-0.641,0.977-0.961
	c1.001,0.656,2.001,1.312,3.002,1.968c-0.996,0.012-1.993,0.024-2.989,0.035c0,0-0.354-0.151-0.354-0.151L317.262,391.861z"/>
<path fill="#D528F2" d="M306.903,357.788c-0.644,1.061,2.071,4.041-1.846,3.232C305.421,359.8,305.749,358.559,306.903,357.788z"/>
<path fill="#8DE7C4" d="M309.933,352.965c-0.83-0.109-1.744-0.222-1.529-1.368c0.065-0.347,0.837-0.917,0.987-0.835
	c0.879,0.478,0.501,1.407,0.579,2.176C309.97,352.938,309.933,352.965,309.933,352.965z"/>
<path fill="#A4DEE7" d="M337.081,493.112c0.315-1.026,1.047-1.653,1.986-2.083C339.584,492.848,338.827,493.451,337.081,493.112z"/>
<path fill="#2D99E3" d="M261.741,447.192c3.31,1.618,3.533,3.536,2.962,6.191C263.041,451.716,262.438,449.964,261.741,447.192z"/>
<path fill="#2F97E9" d="M273.681,432.959c0.48,0.815,0.844,1.182,0.888,1.584c0.037,0.334-0.302,0.709-0.475,1.067
	c-0.315-0.264-0.789-0.475-0.898-0.806C273.092,434.488,273.37,434.047,273.681,432.959z"/>
<path fill="#791599" d="M333.007,356.941c0.289,0.092,0.584,0.162,0.883,0.21c0.102,2.964,3.666,2.827,4.558,5.087
	c1.068,1.979,0.392,3.764-0.597,5.514c-1.726,2.675-3.195,0.461-4.756-0.246c-1.562-0.195-3.143-0.256-4.606-0.918
	c-1.169-0.745-1.437-1.828-1.18-3.11c0.016-1.503,3.148-1.891,1.434-4.024c0.075-0.968,0.794-1.518,1.368-2.165
	c0.31-0.321,0.673-0.569,1.073-0.766C331.864,356.344,332.483,356.439,333.007,356.941z"/>
<path fill="#C31BDF" d="M314.99,381.009c-0.333-0.004-0.666-0.007-0.998-0.011c-1.947-1.367-3.456-3.222-3.702-5.522
	c-0.305-2.853-2.103-1.227-3.286-1.468c0,0-0.016-0.014-0.016-0.014c0.338-2.665,0.676-5.33,1.015-7.995
	c2.131-1.018,0.772,3.153,2.988,2.01c2.029,1.82,2.393,4.63,3.966,6.7c1.259,1.657,2.457,3.573,5.029,3.297
	c0.01,0.328,0.02,0.656,0.029,0.983c-0.434,0.807-1.182,1.18-2.001,1.458c-0.796,0.205-1.625,0.242-2.422,0.456
	C315.391,380.943,315.19,380.976,314.99,381.009z"/>
<path fill="#8517A6" d="M325.991,373.03c-1.335-2.28-4.913-2.646-5.065-5.935c0.236-2.209,0.895-3.179,2.659-0.906
	c-0.16-1.518-1.161-3.251,0.913-4.226c0.335-0.158,0.825,0.39,1.107,0.795c0.456,0.867,0.575,1.811,0.628,2.769
	c-0.068,2.136,0.505,3.52,3.052,2.618c1.174-0.221,2.327-0.241,3.418,0.349c1.518,2.445,0.59,4.058-1.766,5.191
	c-0.703,0.266-1.43,0.381-2.181,0.339C327.766,373.888,326.823,373.613,325.991,373.03z"/>
<path fill="#901DB0" d="M325.041,363.056c-0.272,0.492-3.462,3.622-4.114,4.038c-1.248-1.174-0.879-2.679-0.841-4.117
	c0.978-2.574,2.545-4.62,5.138-5.758c1.489-0.441,2.985-0.549,4.492-0.09c0.458,0.228,0.88,0.513,1.267,0.85
	c-0.403,0.822-1.15,0.989-1.962,1.032c-0.53,0.903-0.623,2.004-1.278,2.855c-0.247,0.359-0.543,0.67-0.874,0.953
	C326.296,363.176,325.705,363.406,325.041,363.056z"/>
<path fill="#D026EC" d="M333.007,356.941c-0.667,0.042-1.334,0.083-2.002,0.125c-3.092-0.542-6.027,0.453-9.016,0.918
	c2.863-6.38,5.952-7.568,13.015-5.006c-2.065,0.878-4.162,0.585-6.272,0.313c1.99,0.487,4.068-0.03,6.071,0.375
	c0.485,0.376,0.552,0.816,0.206,1.319C333.745,355.026,333.039,355.638,333.007,356.941z"/>
<path fill="#C01CDC" d="M339.011,362.012c5.123-1.471,6.544,0.843,6.204,5.638c-0.127,1.792,2.262,3.195,1.765,5.379
	c-0.29,0.7-0.803,1.124-1.554,1.252c-0.47-0.109-0.85-0.357-1.145-0.739c-0.766-1.248-1.787-2.558-1.752-3.962
	c0.073-2.928-1.674-4.344-3.826-5.611C338.502,363.269,338.435,362.59,339.011,362.012z"/>
<path fill="#9F14C1" d="M321.99,357.983c2.821-2.113,5.753-3.136,9.016-0.918c0.005,0.306-0.003,0.611-0.023,0.915
	c-0.352-0.011-0.704-0.022-1.056-0.032c-1.653-0.732-3.297-0.767-4.932,0.057c-1.637,1.658-3.274,3.315-4.91,4.973
	C319.528,360.858,321.175,359.579,321.99,357.983z"/>
<path fill="#B41FD1" d="M339.011,362.012c0.014,0.675,0.027,1.35,0.041,2.025c2.245,2.413,3.264,4.876,0.306,7.503
	c-0.884,0.28-1.723,0.205-2.5-0.328c-0.808-1.101-0.563-2.167,0.114-3.217c0.409-1.947,1.319-3.814,0.941-5.887
	c-0.268-0.281-0.341-0.543-0.217-0.784c0.118-0.231,0.229-0.347,0.333-0.347C338.355,361.322,338.683,361.667,339.011,362.012z"/>
<path fill="#C21CE1" d="M335.01,354.985c-0.009-0.324-0.016-0.648-0.021-0.971c0.06-0.609,0.708-0.631,1.004-1.004
	c0.816,0.092,1.809-0.079,2.414,0.328c1.453,0.976,4.973,0.986,3.775,3.349c-1.359,2.681-2.647-1.155-4.268-1.224
	C336.941,355.421,335.977,355.152,335.01,354.985z"/>
<path fill="#BD1ADB" d="M325.991,373.03c1.046,0.052,2.092,0.104,3.138,0.156c0.87,0.418,1.553,1.061,2.177,1.78
	c0.305,0.224,0.613,0.438,0.946,0.616c1.277,0.558,2.847,0.227,3.949,1.302c0.213,0.421,0.131,0.787-0.202,1.106
	c-1.671,0.333-3.342,0.667-5.013,1c-0.587-0.761-1.685-0.27-2.312-0.94c-0.862-0.865,0.043-2.131-0.688-3.027
	C327.321,374.36,326.656,373.695,325.991,373.03z"/>
<path fill="#B512D2" d="M309.95,358.023c1.889,2.045,3.778,4.09,5.785,6.264c-2.482,1.063-3.334-3.171-5.7-1.266
	c-2.905-0.11,0.384-2.402-1.065-3.025c0.036-0.642,0.071-1.284,0.107-1.926C309.348,357.684,309.639,357.669,309.95,358.023z"/>
<path fill="#B71BD5" d="M308.97,359.996c1.746,0.519-0.213,2.341,1.065,3.025c0.199,1.686-0.663,3.575,0.955,4.989
	c-2.755,1.945-1.454-2.14-2.988-2.01C306.491,363.703,308.556,361.982,308.97,359.996z"/>
<path fill="#A424C2" d="M338.028,360.977c-0.038,0.376-0.076,0.753-0.115,1.13c-1.588-1.452-5.143-1.31-4.021-4.957
	C336.494,357.103,338.077,358.158,338.028,360.977z"/>
<path fill="#DF19F4" d="M309.95,358.023c-0.292,0.002-0.584,0.017-0.874,0.046c-0.977-1.151,0.456-1.294,0.815-1.853
	c0.739-1.153,1.742-1.64,2.817-0.445c0.401,0.446,0.817,1.309,0.646,1.764C312.582,359.591,311.068,357.602,309.95,358.023z"/>
<path fill="#B816D8" d="M335.993,353.01c-0.335,0.335-0.669,0.669-1.004,1.004c-2.275,0-4.55,0-6.825,0
	c-0.007-0.345-0.014-0.691-0.02-1.036c2.287,0,4.575,0,6.862,0C335.334,352.993,335.663,353.003,335.993,353.01z"/>
<path fill="#A716C2" d="M345.065,374.064c0.638-0.345,1.277-0.69,1.915-1.035c0.635,0.338,1.271,0.676,1.905,1.015
	c-0.7,1.827-2.21,2.033-3.87,1.939C344.387,375.326,344.495,374.689,345.065,374.064z"/>
<path fill="#D51FEF" d="M327.986,375.024c1.198,0.687,0.982,1.841,0.966,2.928c-0.625,0.66-1.272,0.6-1.934,0.061
	c0,0-0.042-0.029-0.042-0.03C324.333,375.98,327.767,376.051,327.986,375.024z"/>
<path fill="#E119FA" d="M312.06,352.029c0.983,0,1.967,0,2.95,0c-1.068,1.124-2.209,3.242-2.984,0.023
	C312.027,352.052,312.06,352.029,312.06,352.029z"/>
<path fill="#BD1AD9" d="M317.995,379.99c0.44-0.802,1.195-0.969,2.018-0.999c4.729,0.924,9.212,2.55,13.507,4.72
	c0.958,0.484,2.525,0.364,2.215,2.097c-0.223,1.249-1.508,1.091-2.338,1.54c-1.388,0.752-2.894,0.652-4.387,0.665
	c-0.891,0.358-1.248-0.188-1.512-0.888c-0.018-0.454,0.077-0.888,0.275-1.288c0.357-0.313,0.805-0.406,1.272-0.448
	c-0.298-0.487-0.819-0.374-1.217-0.335c-0.901,0.087-0.421,1.422-1.32,1.589c-1.126,0.457-2.227,0.423-3.304-0.14
	c-0.59-0.433-0.807-1.04-0.804-1.74c0.159-0.78,0.197-1.52-0.761-1.862c-0.38-0.138-0.734-0.31-1.087-0.492
	C319.53,381.781,318.323,381.347,317.995,379.99z"/>
<path fill="#C319E1" d="M327.988,386.988c0.341,0.342,0.682,0.683,1.023,1.025c-2.983,3.894-6.604,1.391-10.014,0.998
	c-1-0.338-2-0.677-3-1.015c0.001-0.334,0.002-0.667,0.003-1.001c1.3-1.216,2.801-0.883,4.22-0.41
	C322.789,387.441,325.373,387.359,327.988,386.988z"/>
<path fill="#C01CDC" d="M345.065,374.064c-0.017,0.64-0.034,1.28-0.05,1.919c-3.005,0.669-6.011,1.339-9.016,2.008
	c0.001-0.33,0.001-0.659,0.001-0.988c-0.348-0.488-0.309-0.943,0.114-1.367c2.869-1.034,5.686-2.361,8.88-1.64
	C344.994,373.996,345.065,374.064,345.065,374.064z"/>
<path fill="#E317FA" d="M346.971,386.982c-1.957-0.235-2.223-1.392-1.593-3.297c1.848,0.543,1.52,2.025,1.603,3.281
	C346.98,386.966,346.971,386.982,346.971,386.982z"/>
<path fill="#AE0ECC" d="M327.018,378.013c0.645-0.02,1.29-0.04,1.935-0.061c0.819,0.069,1.605,0.203,2.033,1.038
	C329.576,379.021,327.822,380.445,327.018,378.013z"/>
<path fill="#6535E5" d="M252.99,390.006c-0.342,0.667-0.872,1.714-1.544,1.199c-0.903-0.692-0.27-1.621,0.57-2.21
	C252.341,389.332,252.666,389.669,252.99,390.006z"/>
<path fill="#7543F4" d="M354.033,470.031c-0.334,1.001-0.667,2.002-1.001,3.004c-3.014,3.321-6.028,6.641-9.043,9.962
	c-0.661,0.005-1.321,0.01-1.982,0.015c0.413-2.294,4.596-2.733,2.969-6.032c0,0,0.006,0.014,0.006,0.014
	c2.752-1.506,4.278-4.454,7.023-5.969C352.681,470.693,353.357,470.362,354.033,470.031z"/>
<path fill="#734DEB" d="M335.004,486.002c0.311-2.357,2.172-2.654,3.993-3.003C338.12,484.605,337.025,485.919,335.004,486.002z"/>
<path fill="#6C3BE7" d="M352.006,471.024c-2,2.391-3.593,5.26-7.023,5.969c1.343-1.66,2.685-3.319,4.028-4.978
	c0.991-0.68,1.981-1.36,2.972-2.04C351.991,470.324,351.998,470.674,352.006,471.024z"/>
<path fill="#D320F0" d="M307.004,374.009c0.966-1.223,1.933-2.446,3.541-4.481c0.195,4.779,1.57,8.217,3.447,11.471
	C310.326,380.005,308.623,377.048,307.004,374.009z"/>
<path fill="#C31BDF" d="M323.004,384.005c0,0.661,0.001,1.323,0.001,1.984c-2.322,2.342-4.671-0.343-7.004,0.037
	c-1.958-0.049-2.275-1.758-3.042-3.011c1.29-0.047,2.009-0.674,2.031-2.006c0,0,0.012-0.011,0.012-0.011
	c2.249-1.213,3.99,0.651,5.984,0.986l0.019,0.028C321.587,382.76,322.66,383.017,323.004,384.005z"/>
<path fill="#D420EB" d="M316.001,386.026c0.147-0.792,0.323-1.877,1.395-1.038c1.751,1.37,3.701,0.91,5.609,1.001
	c1.336-0.008,2.672-0.015,4.008-0.023c0.338-0.283,0.66-0.267,0.968,0.049c0.005,0.324,0.007,0.648,0.007,0.972
	c-3.994,3.973-7.992-0.321-11.988,0.007C316,386.672,316.001,386.349,316.001,386.026z"/>
<path fill="#881AA7" d="M336.971,367.995c0,0.991,0,1.982,0,2.973c-1.544,2.042-2.806,4.97-5.974,1.896
	c1.578-0.827,1.406-2.551,1.993-3.885c-0.545-1.113,0.28-1.543,1.008-2.021C335.459,365.958,335.081,370.222,336.971,367.995z"/>
<path fill="#931FB2" d="M333.999,366.956c-0.336,0.674-0.672,1.348-1.008,2.022c-1.355,0.001-2.709,0.002-4.064,0.003
	c-0.858-0.309-1.255-0.93-1.239-1.831c0.206-0.645,0.846-0.792,1.311-1.14C330.747,365.895,332.444,366.05,333.999,366.956z"/>
<path fill="#851CA6" d="M327.02,361.983c-0.017-1.451,0.655-2.438,2.001-2.972c4.459,2.507,0.521,2.965-0.98,4.018
	C327.464,362.912,327.12,362.567,327.02,361.983z"/>
<path fill="#901DB0" d="M327.02,361.983c0.34,0.348,0.68,0.697,1.02,1.046c-0.008,1.099-0.231,2.267,0.958,2.98
	c-0.337,0.333-0.675,0.665-1.012,0.998c-1.11,0.442-1.768-0.11-2.26-1.026c0.03-1.423,0.456-2.723,1.224-3.916L327.02,361.983z"/>
<path fill="#B218CE" d="M320.986,381.984c-2.111,0.379-3.989-0.657-5.984-0.986c0.229-2.618,1.698-1.556,2.993-1.008
	C318.992,380.655,319.989,381.32,320.986,381.984z"/>
<path fill="#D82BF6" d="M330.997,372.863c2.713,1.644,3.897-1.533,5.974-1.896c0.677,0.013,1.354,0.025,2.032,0.038
	c1.109,2.622-0.712,3.566-2.587,4.388c-1.722,0.755-3.584,0.605-5.412,0.602c-0.625-0.937-1.251-1.874-1.875-2.81
	C329.752,373.079,330.375,372.971,330.997,372.863z"/>
<path fill="#C82EE6" d="M326.122,365.917c0.622,0.363,1.243,0.727,1.864,1.09c0.314,0.658,0.628,1.316,0.941,1.974
	c-3.689,2.124-4.033-0.036-3.785-2.954C325.419,365.541,325.743,365.483,326.122,365.917z"/>
<path fill="#B52FD8" d="M326.122,365.917c-0.326,0.05-0.653,0.087-0.98,0.11c-0.033-0.991-0.067-1.981-0.101-2.971
	c0.637-0.33,1.274-0.661,1.91-0.991C327.21,363.464,326.706,364.699,326.122,365.917z"/>
<path fill="#B62ECE" d="M324.996,358.005c1.628-1.486,3.273-1.482,4.933-0.057C328.283,357.967,326.64,357.986,324.996,358.005z"/>
<path fill="#D721F0" d="M331.004,375.996c2.551-1.848,7.224-0.295,7.999-4.99c2.314-2.308,0.146-4.646,0.048-6.969
	c2.878-0.22,5.143,0.379,4.368,3.989c-0.504,2.347,2.379,3.643,1.575,5.97c-2.848,1.325-5.769,2.324-8.984,2.009
	c-1.671,0.753-3.341,0.735-5.011-0.001L331.004,375.996z"/>
<path fill="#D51FEF" d="M330.999,376.004c1.67,0,3.341,0,5.011,0.001c-0.005,0.333-0.008,0.665-0.01,0.998
	C334.317,376.751,332.402,377.66,330.999,376.004z"/>
<path fill="#AE13CC" d="M327.981,386.016c-0.323-0.01-0.646-0.026-0.968-0.049c0.574-1.903,0.574-1.903,4.335-0.784
	C330.501,386.703,329.064,385.681,327.981,386.016z"/>
<path fill="#D01FE5" d="M323.004,384.005c-1.29-0.039-1.972-0.688-1.999-1.993c1.208,0.048,2.662-0.279,3.242,1.127
	C324.526,383.813,323.586,383.923,323.004,384.005z"/>
</svg>
