<?xml version="1.0" encoding="utf-8"?>
<!-- Generator: Adobe Illustrator 19.2.1, SVG Export Plug-In . SVG Version: 6.00 Build 0)  -->
<svg version="1.1" id="Layer_1" xmlns="http://www.w3.org/2000/svg" xmlns:xlink="http://www.w3.org/1999/xlink" x="0px" y="0px"
	 viewBox="0 0 446.5 504.8" enable-background="new 0 0 446.5 504.8" xml:space="preserve">
<g>
	<path fill="#12575A" d="M25.9,209.6c0.7,3.3,2.3,7.3,3,4.1c2.4,5.1,4.3,4.5,8.3,11.5c2.5,5.6,4.4,8.2,6.3,10.3
		c2.4,4.3,3.4,1.5,6.3,7.2c3.7,9.4,6.8,15.2,9.2,17.9c2.7,3.7,4.6,3.6,6.7,4.2c1.5-2.6,4.7,2.6,8.4,10.1c1.3,0.8,2.9,3.2,5.1,8.6
		c1.9,3.8,4,8.2,4.8,6.6c2,4,2.9,2.8,4.6,5.6c1.6,2.2,4,8.1,5.5,9.4c2.7,7.2,5.4,14.2,5.8,10.8c0.7-1.9,2.8,2.1,3.8,1.4
		c2.4,5.5,3.7,6.1,4.7,5.7c1.7,2.3,3.1,3.5,5.3,8.2c0.1-4.7,2.3-0.1,5.2,7.7c3.8,12,5.1,12.7,4.9,6.2c0.3-5.1,2.1-2.8,5.7,7.6
		c3.2,8.4,3.1,1.9,5.6,7.2c0.6-3.2,4.6,9,5.6,7.6c2.1,3.8,2.4-0.9,5.8,9c1.4,0.4,3.9,6.4,5.5,8.1c0.4-3.9,3.7,5.8,5.4,8
		c1.9,3.2,3.4,4.7,5,6.7c1.6,2,3.1,3.8,4.5,5.2c7.3,13.7,11.4,14.6,16.4,22.8c4,3.3,7.3,6.7,11,15.2c2.7,4,3,0.9,4,5.6
		c4.6,7.5,9.4,13.4,14,16.5c5.1,5.1,10.5,9.7,16.2,13.9c11.5,8.4,24.2,14.9,37.8,19.4c6.8,2.2,12.9-0.5,21.1,5.1
		c7.6,3.1,14.3,1.1,21.6,1.8c6.9-1.1,14.3-0.4,21.3-1.6c7.1-0.9,12.9-7.3,20.7-4.9c7.1-0.6,13.8-2.9,19.8-8.1
		c6.5-2.7,12.6-7,18.5-11.3c5.9-4.3,11.4-9,16.5-14s9.7-10.4,13.9-16.2c5.2-1,7.8-12.2,11.2-18.1c3.9-3.1,4.7-19.1,8.2-19.7
		c1.9-8.2,3.5-16,5.1-21.1c-0.9-10.3,1.1-7,1.3-10.8c-0.5-7.2-1-13.8,0.5-10.8c-0.8-7.3,0.5-4.1-0.4-10.7c2,7.1,0.3-2.5-1.2-10.6
		c0.5,1.2-1.1-6.4-2.3-11.7c-2-8.8-1.9-7.6-2.6-8.9c0.6,4.5-0.5,1.6-2.2-3.3c-1.9-5.8-3.6-9.9-5.9-16.4c-2.9-4.8-8.5-19.5-11.3-18.5
		c-0.4-1.6-2.7-6.3-5.4-7.5c-3-8.2-4.5-8.2-6.1-7.7c-2.1-1.9-4.2-2.6-8.5-12.4c-3.8-7.9-7-11.7-10-14c-3.4-4.2-7-8.5-11.2-15.3
		c-2.8-3.2-5.8-7.1-9.2-12.7c-2.4-0.8-5.7-5.9-9.7-13.3c-3.1-3.9-5.8-5.5-9.6-11.9c-2.3,0.5-6.7-8.8-10.6-16
		c-4.2-8.5-7.7-13.3-10.9-17.1c-3.2-3.8-6.2-6.6-9.6-11.2c-3-2.7-6-6-9.9-13.1c-3.2-4.3-6.5-8.8-9.9-14.2c-3.6-4.8-7-9.2-10.5-14.6
		c-1.8,2.5-6.9-10.5-9.8-13.5c-3.6-6.8-6-8.4-8.6-11.5c-2.6-3.1-5.1-6.2-7.8-11.2c-5.2-9.1-8.8-13.5-11-15.2
		c-2.6-3.6-4.7-3.3-4.7-3.3C215.5,8.5,163.7-6,106.8,2.2c0,0,0,0,0,0c-16.1,6.1-35.2,8.4-50.5,19.6C33.3,38.3,17.4,59.5,8.3,84
		c-3,8.2-5.9,12.5-6.5,24.7c-1.7,7.2-2,16.8-1.6,25.8c-0.7,4.1,2.2,21.2,3.4,25.9c2.3,10.3,4.2,14,8.6,25.3c1.2,1,2.4,1,6.3,12.2
		C22.3,209.6,23.7,208,25.9,209.6z"/>
	<g>
		<path fill="#3597D4" d="M232.6,72.7c-1.1-4.9,0.6-1.4,3.7,5.2c2.8,9,3.4,6.9,4.6,6.8c1.7,2.2,3.5,4.2,5.7,7.4
			c3.8,10.5,6,13.2,7.1,9.9c1.8,4.1,3.2,6.5,3.9,5.3c2,4.6,2.9,4.6,4.3,6c1.1,0.2,3.3,5.6,4.3,5.3c0.7-1.6,3.3,5.3,4.8,7.3
			c2.3,5.6,2.8,2.7,4.8,6.6c1.8,3.2,2.7,1.9,5,7c1.1-0.2,5.7,15.6,5.3,8.1c0-5.7,3,2.8,5,6.3c1.9,3,3.5,4.6,5.6,8.7
			c1.2-0.2,2.5-0.1,5.1,6.2c0.2-3.8,1.3-3.4,4.9,8.2c0.5-3,3.2,4.3,4.7,5.7c1.3,0.1,4.5,9,5.4,7.2c1.6,1.3,4.7,9.2,5.8,7.5
			c2.2,3.7,4.1,6.1,5.7,7.1c1.8,2,3.8,5.3,5.8,8.6c2.7,6.4,4.2,7.9,5.8,9.5c2.7,6.6,4.1,7.6,4.8,5.6c3.2,3.6,6.9,10.1,9.8,13.6
			c1.9,3.5,3.6,6.3,5.1,8.4c1.5,2.1,2.9,3.5,4,4.2c1.6-1.8,5.6,7.7,9.2,16c2.3,2.5,5.2,7.9,6.1,5.3c0.6-4.1,4,5,5.5,6.3
			c1.9,3.2,3.9,7.8,4.8,7.9c2.6,4.1,4.7,9.6,3.7,5.2c2.7,4.1,6.8,15.9,7.4,12.7c1.7,1.9,3.8,7,5.2,9.6c1.1,1.7,4.5,14.7,4.5,13.6
			c1,3.3,2.9,11.7,2.4,10.2c-2.2-9.5,1.5,9.6,1.1,10.8c1.9,11.9,0.1,7.5,0.4,13.6c1,12.7-2.5,7-2.7,19.3c-3.5-3.1-5.3,4.1-6,18.5
			c-2,8.3-4.9,15.2-9.2,17.3c-3.6,5.5-7.8,10.8-12.4,15.7c-2.3,2.4-4.8,4.8-7.4,7.1c-2.6,2.3-5.9,1.8-8.1,6.5c-0.5-2.2,0-0.2,0,0
			c-6.6,7.5-14.8,8.2-22.3,12.5c-7,6.5-15.5,6.6-23.8,6.9c-6.9,6.7-16.4,1.2-24.4,1.4c-8.2-0.9-16.1-1.4-24-3.9
			c-6.9,2.2-16.7-11.1-22.7-9c-7.2-3.9-14.1-8.5-20.4-14c-3.2-2.7-6.2-5.7-9.1-8.9c-2.3-0.2-6.1-8.7-8.2-10c0.3,1.3-2.6-7.5-3.7-5.2
			c-2.1-2.1-5.5-6.3-10.3-14.2c-2-2.3-4.5-6-7.1-9.9c-1.3-2-2.7-4-4.1-5.9c-1.1-0.4-2.7-3.5-4.1-5.4c-2.7-3-7.2-13.9-8.4-9.4
			c-2-4-2.7-2.3-5.1-8c-1.3-0.8-4.3-9.3-5.4-8.9c-2.3-5.2-4.7-10.8-5.4-8.1c-1.7-2.2-1.9,2.4-5.2-7.1c-2.9-7.7-3.9-6.5-4.9-5.2
			c-2.1-4-1,7.2-5.7-8.8c-1.7-5.1,0.3,7.2-1,4.4c-1.5-3.9-1.8-2.5-4.5-12c-1,1.3-6.4-17.8-5.5-7.6c-1.4-5.2-2.2-7.2-3.1-9.8
			c-0.5-0.9-1-1.5-1,0c1.1,8.1-2.2-4.2-1.4,2.2c-0.2,2-2.1-3.8-3.7-8.2c-1-1.7-3.3-9.3-1.8,0.6c-2.4-5.4-3-2.3-4.7-4.1
			c-1,1-3.6-4.9-6.2-11.2c-1.7-2.1-5.6-14.4-5.6-8.9c-1.2-0.1-2.8-2-4.7-5.1c-3.2-9.3-3.6-5.7-5.3-8.2c-0.7,2.2-2.6-1.4-4.9-6.8
			c-1.4-1.4-3-3.7-4.6-6.2c-1.3-1.1-3-4.2-4.2-5.1c-3.2-5.6-6.2-10.3-7.9-10.1c-1.5,1.5-3.1,1.7-7.4-11.1c-1.9-1.6-4-5.2-5.7-7.4
			c-1.5-1.3-2.8-2.7-4.6-6.8c-1.1,2.9-2.5,0.5-3.7-5.2c-2-4.9-4.1-11.1-4.5-9.2c-0.9-0.6-1.5,0-2.7-2.5c-0.9,1.8-5.5-14.8-5.4-10.6
			c-1.6-4-2.5-5.3-4.1-11.8c-2.5-10.1-0.9-2.7-2.8-12c-1.3-7-1.4-9-1.6-13.3c0.2-2.2-0.8-10.8,0.2-11.1c0.4-3.1,1-6.5,1.4-11.4
			c0.5-4.7,1.2-9.6,2.4-12.5c2.2-7.8,5.2-15.4,9-22.7C52.5,71,63.6,58,77.7,47.7l0,0c7.1-5.1,14.6-9.3,22.3-12.5s15.7-5.5,23.8-6.9
			c8.4,0.2,16.9,1.3,24.4-1.4c4.7,3.3,9,4.7,12.9,5c3.9,0.3,7.6-0.4,11.1-1.1c4,1.4,7.5,1.1,11.2,2.1c4,2.7,6.9,0.7,11.5,7
			c3.4,0.8,6.4,0.7,10.4,5.5c3.7,3.6,7,6,10.1,8.6c3.3,3.2,6.2,5.7,9.1,8.9C226.1,60.2,231.6,76.4,232.6,72.7z"/>
	</g>
	<g>
		<path fill="#12575A" d="M53.9,164c0.6-1.4,1.7-0.3,2.9,1c1,0.4,2,0.3,2.9,0.3c1,0.2,2.1,0.6,2.8-0.6c0.9-0.2,1.7-1.1,2.7-0.9
			c1.4-0.7,2.7-0.7,3.4-2.8c0.9-1.1,1.5-3.1,2.4-3c-0.1-0.7,0.5-1.8,0.7-1c1.5-3.2,3.6-4.5,6-5.6c2.4-1.2,5-2.1,7.6-3.9
			c2.8-1,5.7-2.1,8.7-2.6c1.6,0.2,3.4,1,4.6-0.9c1.6-0.3,3.1-0.5,4.7-0.7c-0.1-0.4,0.5,1.7,0.7,2.2c0.9,3.2,1.2,4,1.6,4.9
			c0.7,2.4,1.1,3.2,1.6,4.6c0.5,1.5,0.7,2,0.8,2.5c-0.1-0.6,0.8-3.3,2.7-1.1c1.3-0.8,2.6-1.6,2.7-1.1c1.4-1.5,2.7-2.4,4-2.6
			c1.5,0.5,2.4-0.6,3.7,0.5c1.4-2.8,3.7,1.4,4.3,1c0.8,0.2,1.3,2.6,1.4,4.4c-0.2,0,0.3,3.6-0.2,2.8c0,1.6,0.1,3.5-0.4,3.2
			c0.1,0.5-0.3,0.4-0.4,2.3c-0.4,0.5-0.1,5.5-0.8,5.5c-0.4,1.6-0.7,3.7-0.9,5.3c-0.2,1.6-0.3,2.7-0.4,2.5c-1.3,0-2.8-0.8-3.9,0.3
			c-1.3,0.3-2.7-0.1-4,0.6c-1.8-1.9-2.7,0.2-4,0.8c-1.3,0.4-3.1-1.5-4,1.1c-1.3,0.6-2.8-0.1-4,0.9c-1.3,0.4-2.5,1.3-3.6,2.5
			c-1.3,0.9-2.2,3.2-3.6,2.7c-1,1.4-2.6,0.4-3.3,2.8c-1,1.1-1.6,3.5-2.8,3.1c-0.5,2.5-1.4,3.2-2.2,3.7c-0.6,1.4-1.5,1.1-1.7,3.3
			c-0.4,1.4-0.7,3-0.9,4.3c-0.2,1.2-0.2,3-0.4,3.7c0.1,1.5,0.3,3.4,0.5,4c0.3,1.2,0.4,1.9,0.3,1.5c-0.1-0.2,2,2.2,1.7,1
			c0.8-0.1,2.5,3.2,3.7,3.7c1.4,1.5,2.7,1.8,3.8,1.1c1.9,2.8,2.7,0.2,4.3,1c1.6,0.7,2.9-0.4,4.6,0.4c2.8-1.3,6.6,1.4,9.2-1.4
			c2.9-1.4,6-1.6,8.5-3.5c1.6-0.9,3.1-1.8,4.6-2.7s3-2,4.4-3c1.7-1.1,3.3-2.2,4.9-3.3c1.7-0.7,3.5-0.9,4.9-2.8c1.7-0.7,3.9,1.2,5-2
			c1.4-0.1,2.6-0.6,3.9-0.7c1.2-0.5,2.4-0.6,3.8,0.1c0.7-2.4,2-1,3.4,0.9c1.3,1.5,2,0.8,2.9,1.7c0.7,0,1.4,1,2,2.3
			c0.5,0.8,0.7,0.6,1.2,2.9c0-0.1,1,5.1,0.4,3.8c-0.1,1-0.7,0.1-1,1.6c0.3,3.8-0.7,2.7-1.7,2c-0.7,0.4-1,3.5-2.2,2
			c-0.8-0.1-1.4,0.6-2.1,0.9c-0.6,0.9-1.1,2.2-1.7,2.8c-1,2.6-2.6,1.7-3.2,4.9c-0.4,2.6-1,3.3-1.3,4.5c-0.5,0-0.5,1.8-0.4,4.2
			c-0.3,0-0.3,1.4-0.3,3.4c-0.1,2.6-0.6,5.2-2,4.9c-0.6,0-1.6-0.9-1.6,2.4c-0.6,0.7-1.3,1.4-2,2.1c-0.6,1.1-1.5,1.6-2.3,2.1
			c-0.8,0.6-1.7,1.2-2.4,2.4c-0.9,0.9-1.8,2-3,2c-0.8,1.7-1.9,1.6-2.6,3.5c-0.8,1.2-2,0.7-2.6,3.1c-0.7,1.5-1.6,2.4-2.4,3.2
			c-1.3,2.4-2.2,5.4-2.9,7.1c-0.6,2.2-0.4,5.5,0.1,7.4c1,4,2,4.8,4,6.2c1.8,0.7,4.3,2.4,6.7,2.8c2.6,1.3,4.8-0.2,7.1-1
			c2.3-0.8,4.5-2.1,6.4-3.6c1.2-0.9,2.5-1.3,3.4-3c1-1.1,2-2.2,3.1-2.7c0.9-1.5,2.1-1.3,3.1-1.8c0.8-1.1,2.2-0.4,3.4-0.4
			c1.6,1.7,2.5-0.4,4.2,0.4c1.8,0.5,3.5,0.4,5.3,0.4c0.9,0,1.9,0.3,3,0.4c1,0.1,2-0.1,2.9-0.9c1-0.7,2.3-0.3,3.3-1.1
			c1-0.9,1.9-1.9,3.1-1.7c1.4,1.3,2.1-0.8,2.9-2.3c0.9-1.2,1.8-2.1,2.7-2.9c0.9-1,1.4-3.8,2.5-3.6c0.8-1.3,1.6-2.7,2.4-4.2
			c0.1,0.4,1.2-4,1.5-2.9c0.7-4.1,2-5.1,3.3-6.3c1-3,2.2-5.1,4.1-4.9c0.3-2.9,1.9-0.5,2.8-1.4c1.5,1.7,1.8-1.7,3.1-0.3
			c-0.3,3.6-1.5,3.3-2.9,2.8c-1.1,0.3-1.5,3.3-2.8,2.6c-1.1-0.1-1.7,2-2.5,2.8c-0.7,0.6-1.3,1-1.7,2.4c0,3.3-0.8,2.5-1.3,2.6
			c-0.6-0.1-0.7,1.9-1.1,2.7c-0.2,1.6-0.6,1.8-0.8,2.7c-0.5,1.9-0.5,5.3-1.1,5.4c-0.4,0.2-1.3-1.5-0.5,3.7c-0.5-0.3,0,3.3-0.3,3.8
			c0.1,0.7-0.1,2.2-0.4,4.7c-0.2,1.3-0.4,2.4-0.5,4.7c-0.5,0.2-0.4,3.8-0.4,6.5c0,3.1-0.8,2.6-0.5,7.1c-0.2,2.4-0.5,3.8-0.7,6.3
			c-0.2,2.2-0.4,4.1-0.6,5.9c-0.2,1.8-0.3,3.5-0.4,5.3c-0.2,2.9-0.4,4.7-0.4,4.7c-0.2,1.8-0.3,3.7-0.4,5.6c0,2.5-0.3,3.8-0.3,5.9
			c-0.2,1.2,0,4.1,0.1,6.1c0.2,1.9-0.1,1.5,0.4,4.5c0.3,2.1,0,1.1,0.8,4.8c0.1,0.5,0.8,3.5,1.2,4.5c0.5,1.7,1.4,4.3,1.8,4.5
			c-0.1-0.3,0.7,1.7,1.3,2.8c0.8,2.1,1.3,2.4,1.3,2.8c0,0,0.4-0.9,1.5-0.4c0.8-0.8,2.4-0.2,3.6-2.7c1.6-0.6,3.2-2.7,5.1-3.6
			c2-0.9,3.9-2.6,6.1-3.2c1.9-1.7,4.2-2,6.1-3s3.7-2.2,5.1-3.8c2.8-3,5.3-2.2,5.1-3.1c0.9-0.4,1.6-2,2.9-1.8c1-0.7,2.1-1.5,3.1-2.5
			c2-2.1,3.6-5.4,4.7-7.5c0.4-1,0.4-2.9,0.5-4.2c0.3,0.4-0.1-2.5,0.2-2c0.3-0.2,1.2-0.3,2.1-1.8c1-1.2,2.7-0.1,4.2-1
			c0.9-1,2.3,0.2,3.3-0.2c1.4,1.2,2.6,1.5,3.5-0.2c0.2,0.8,0.2,3.4-0.4,4.3c-0.1,1.3-0.6,1.3-0.4,4.5c-0.5,0-0.1,4.4-0.5,5
			c-0.4,0.5-0.4,3-0.6,4.8c-0.3,0.8-0.3,3.3-0.3,4.8c-0.4,1.7-0.8,2.6-0.4,4.3c0.1,1.7-0.4,1.1-0.3,2.9c0,1.5,0,2.6-0.1,3.2
			c0.4,2.6,0.1,2,0.4,3.8c0.6,3.1,0.3,1.5,0.8,3c0.5,1.2,0.7,0.4,1.9,3.6c0.5,0,1.2,0.3,2.7,3.3c1.4,2.9,2.5,3.9,3.3,2.9
			c1.3,1.4,2.2,0.4,3.6,1.3c1.2,0,2.5,0.5,4,1s2.9,1,4.2,0.9c1.4,0,3.1,1.2,4.3,0.1c1.4-0.2,3,0.6,4.2-0.4c1.3-0.2,2.6-1,4-0.7
			c1.1-1.3,2.8,0,4-0.9c2.9-0.3,5.5-1.2,8.1-1.5c2.4-1.5,5.2-0.2,7.5,0.1c0.9,0.8,1-1.6,1.8,0.4c-0.4-0.6-0.3,1.9-1.1,1.2
			c-1.5,0.7-2.4,4.1-4.2,3.6c-1.1,0.1-2.1,0.5-2.8,2.6c-1.3-1.1-2,0.9-2.8,2.3c-1,0.3-1.6,2.5-2.6,2.5c-0.8,1.2-1.2,3.8-2.3,3.4
			c-0.6,1.9-1.5,1.6-1.8,3.7c-0.5,1.4-0.6,3.5-1.1,3.9c0,2.3-0.3,2.9-0.3,4c0,1.1,0.2,2.6,0.5,3.9c-0.1-0.6,0.2,0.4,1,2.9
			c0.4,1,1.1,2.7,1.4,2.5c0.6,1,1.6,3.5,1.8,2c1,1.9,1.3,0.4,2.3,1.9c0.4-1.5,1.7,1,2.5,1.3c0.3-0.8,1.7,3.1,1.2,0.4
			c-0.6-2.8-0.1,2.8-1.2,2.2c-0.9-0.9-1.6,0-2.2,1.4c-0.7,1-1.9,0-2.7,1.3c-0.8,3.5-3.1,0.1-4.2,2c-1.2,0.6-1.9,3.2-3.2,2.7
			c-1.1,0.4-1.9,2.4-3.1,2.1c-1.3-0.7-1.9,1.5-2.5,3.2c-0.3,3.5-1.5,2-2.2,3.1c-0.8,0.2-1.1,2.8-1.6,3.6c-0.5,1.1-0.9,2.1-1.1,3.8
			c0,2.6-0.7,1.4-0.6,3.9c-0.6-1.1-0.3,1.5,0,4c-0.1-0.6,0,1.4,0.3,4.1c-0.1,1.1,0.1,3.2,0.3,4.1c-0.2-0.9,0.7-1.6,2.4-1.2
			c1.5-1,3.9-0.9,6.2-3c1.3-0.6,2.6-1.3,4-2c1.3-1.3,2.7-2.4,4.4-2.1c1.5-0.8,3.2-0.4,4.5-2.2c1.4-1.2,2.8-2.1,4.5-2.1
			c0.6-2,1.9-1.1,2.8-1.4c0.7-1.5,1.8-1,2.7-1c1.6-1.4,3.1-2,4.4-2.4c2.9,0.2,4.5-0.7,4.2-2c0.9-1,2.3-0.3,3.3-1.6
			c1-1.4,2.5,0.1,3.4-1.8c1.3-0.2,2.8,0.8,3.5-1.8c0.9-1.9,2.6-0.2,3.3-2.7c0.9-1.7,2-2.4,3.2-2.4c0.7-2.5,2.5,0.5,2.8-3.6
			c1,1.2,0.7-3.8,1.6-2.4c0.5-1,1.1-1.1,1.4-2.4c1.1,2.3,0.9-1.4,1.5-1.2c0.3-1.4,0.5-3,0.9-3.8c0-2.6,1.4,1.1,1.2-2.7
			c0.5-0.3,1.2-0.1,1.3-2.4c0.5-0.5,0.5-3.2,1.1-3.5c0.1-2.7,1.2-0.5,1.9-0.7c0.8-2,2.3-1.6,3.7-2.8c1.3-1.2,3.2-0.6,4.5-2.7
			c1.4,0.5,1.9-2.8,3.2-3.1c0.8-2.2,2.1-2.3,3.7-1.1c1.8-3.6,4.8-0.9,5.7-5.8c1.4-2.7,2.5-4.7,2.4-8.3c0-1.8-0.3-3.5-0.7-4.9
			c-0.2-1.1-0.5-2.5-0.4-3c0.2-0.6,1.6-1.5,4.1-2.7c2.1-1,4.5-2,6.8-3.3s4.6-2.7,6.6-4.5c2.2-1,4.3-2.2,5.3-6.4
			c1-1.5,1.2-5.2,1.9-5.4c0.6-0.6,0.7-2.6,0.2-5.8c-0.1-1.1-0.7-3.4-1.6-5.6c-1.3-3.2-3-6.5-4.2-5.3c-2.1-3.3-3.6-1.8-5.9-2.6
			c0.2,0.9-2.6-2.7-2.1-0.3c-0.3-1.3-1.3,2.4-3.8,2.4c-2,2.1-5.1,1.8-7,4.5c-2.5-0.1-3.5,3.6-3.8,2.4c-0.6-0.5-1.7,1.1-1.9,1.2
			c-0.2,0.6-1.5-1.7-2-1.3c-0.2-0.7-1.5-2.2-1.1-0.7c-2.5-1.3-5.5-3-8.6-4.2c-3-0.8-6-1.1-8.9-1.1c-5.8,0.1-11.2,1.5-14.9,2.7
			c-2,0.6-3.8,1.6-5.7,2.5c-1.9,1-3.7,2-5.6,2.8c-1.1,1.4-2.5,1.1-3.7,1.8c-1.3,0.4-2,3-3.6,2c-1.2,0.4-2.2,1.8-3.5,1.9
			c-1,1.4-2.5,0.4-3.6,1.2c-0.2,0-0.2-0.3-0.2,0c-2-0.1-3.2-2.6-3-1.4c-0.4-1.2-0.9-3.3-0.9-5c-0.1-0.5-0.5-4.5-0.4-6.7
			c-0.3-4.1-0.3-7.6-0.7-12.4c0.2-2-0.4-6.6-0.4-6.7c1.4-0.6,2.9-0.5,4.4-0.5c1.7,0.7,2.7-1.7,4.5-0.3c1.2-1.3,3.1,0.3,4.5-0.1
			c1.6,0.4,3.3,1.2,4.5,0c1.4-0.2,2.9-0.3,4.4-0.1c1.5,0,2.9,0.1,4.5,0.7c2.6-1.2,5.7-0.1,8.8,1.4c-0.3-1.3,1.1-2.1,3.2,0.7
			c1.9,1.5,3.4,1.5,3.2,0.7c-0.1-0.7,0.2-1.1,0.2-4.4c0.1-2.6,0.2-6.3,0.3-9.6c0.5-1.9,0.2-7.3,0.3-9.6c0.2-2.1,0.1-4.6,0.2-4.4
			c1-1.6,2.2-2.3,3.1-3.8c1.3,0,2-2.3,3-3.2c1.5-4.1,3.2-5.8,4.7-8c1.2-3.1,2.3-6.1,3.1-8.7c0.7-3.2,1.6-4.4,1.5-9.2
			c0.1,0.3,0.2-1.7,0.3-4.4c0.1-2.2,0.3-4.4,0.3-4.4s-2.1,0.8-4.1,1.7c-2.1,0.5-4.5,0-4.1,1.7c-2.4,1.5-4.9,2.3-7.5,2.8
			c-2.6,0.3-4.7,3.3-7.7,2.2c-2.5,0.9-4.9,2.4-7.8,1.7c-2.4,1.3-5.4,0.2-7.9,1.1c-2.6,0.3-5.3,0.5-8,0.6l-2.7,0.1
			c-4.8,0.1-9.9,0.3-14.9,1.7c-2.6,0.8-5.1,1.9-7.5,3.2c-2.8-0.5-4.5,3.9-7,4.1c-3,0-5.2,1.7-7,4c-2,1.3-4.1,1.4-5.8,2.1
			c-1.8,0.2-3.9-1.7-5.2-0.3c-2.7-2.5-4-2.3-5.4-4.8c-1.2-2-1.8-3.9-2.4-8c-0.6-4.1-0.7-7.5,0-9.1c0.5-2.4,1.2-4.4,1.7-7.9
			c0.8-2.1,1.5-5,2.8-5.6c0.7-0.9,1.5-1.8,2.3-2.5c0.8-0.8,1.8-1.4,2.7-2.1c1.9-1.2,4.1-2.2,6.5-2.9c2.4-0.6,5.2-0.2,7.6-1.8
			c2.3-1.9,5.3-1.6,8.2-1.2c1.3-0.8,2.7-1.7,4.5-0.5c1.3-1,2.8-1.4,4.4-0.8c1.4-0.5,2.8-1.4,4.3-1.1c1.6,0.5,3.1,0.3,4.3-0.9
			c1.6,0.5,3.1,0.5,4.2-1.3c1.1-1.8,2.5-2.2,3.9-2.1c1.2-0.9,2.4-2.3,3.8-2.4c1-2,2.3-2,3.5-2.9c0.1,0.5,3.8-3.5,3.8-3.6
			c0,0.1-3.2-2.8-3.4-4c-2.7-4.5-4.8-4.9-7.5-6.7c-2.5-1.1-5.5-3.1-8.5-4.4c-2.7-0.1-6.2-2.8-9.1-2.5c-3.2-1.3-6.2-0.9-9.3-1
			c-9.3-0.3-18.2,1-24.8,2.4c-1.9,0.4-4.2-0.6-5.8,1.4c-2,0.1-4.3-0.9-5.8,1.5c-1.8-0.6-3,1.5-4.7,1.2c-1.5,0.5-3.3,0-4.6,1.1
			c-1.6,0-2.9,1.4-4.6,1c-1.6-0.1-3.1,0.1-4.5,0.9c-1.8-1-3,0.6-4.6,0.2c-1.4,0.6-2.6,2.1-4.3,0.9c-1.6-0.7-3.2-0.9-4.4,0.2
			c-1.2,1.4-3-0.6-4.4-0.2c0.2-0.9,0.8-0.6,1.3-0.9c1.5,1.9,1.9-1.5,3-1.6c1.9,1.1,2.8-2.9,4.6-2.6c1.4,2.5,1.1-2.9,2.3-1.6
			c0.5-1.5,1.5-1.1,2.1-2.2c1.2,0.3,1.5-2.3,2.2-3.2c0.9,0.4,1.4-0.6,1.4-3.3c0.5-0.3,0.6-2.5,0.7-4c0.1-1.4,0.2-2.4,0.4-3
			c0.1-2.4-0.2-5.5-0.2-6.9c-0.5-3.2-0.1-2-0.2-3.4c-0.5-3.3-0.4-4,0-3.2c0.1-0.9,0.1-2.5,0.4-2.9c0.2-1,0.5-1.7,0.9-2.5
			c-0.3-4.6,1.6-0.2,2.1-2.6c0.6-2.1,2.1-0.6,3-2.2c1.5,1.1,2.6,0,3.6-1.8c1.2-1,2.6-1.5,3.9-2c2.7-0.3,5.4-1.9,7.8-3.8
			c2.7-1.1,5.1-2.9,6.9-5.6c1.9-2.3,3.2-5,3.7-8.5c0.4-2.8-0.2-5.1-1.6-7c-1.3-1.7-2.9-2.6-4.5-3c-1.5-0.5-3-0.5-3.8-0.5
			c-1.1,1.7-2.9,0.8-4.6-0.2c-1.5,0.1-3.2-0.8-4.6-0.4c-1.8-1.3-2.5,2-4.5-0.6c-1.5-0.3-3.6-3.1-4.5-0.8c-1.5-0.3-2.6,1.3-4.2,0.3
			c-1.2,1-3.5-3.1-4.7-2.4c-1.5-0.7-2.9-0.8-4.3-0.9c-1.2,0.5-2.8-0.6-4.4-1.9c-1.2,0.8-2.8-0.5-4.3-1.9c-1.6-1.5-3-1.8-4.2-1.6
			c-2.5-0.1-5.1-0.3-8.3-4.2c-1.3-0.6-2.8-1.8-4.4-2.2c-0.7,0.4-1.5,0.3-2.4,0c-0.9-0.3-2-0.8-3-1.1c-1.5-1-2.2,1.5-3.6,0.5
			c-1.3-0.7-2.3,0.1-3.2,1.2c-1,0.5-1.9,1.1-2.7,1.7c-0.7,1.2-1.4,1.7-2.3,1.4c0.1,0.6-1.6,0.7-3.6,2.6c-1,0.9-2.4,0.9-3.4,2.4
			c-1,1.5-2.4,1.5-3.4,2.5c-2.1,1.2-3.6,2.8-3.6,2.6c-1.3-1-1.9,1.3-2.8,2c-1.2-0.5-1.7,1.9-2.8,1.8c-0.6,2-1.5,2.3-2.7,1.7
			c-1.1-0.4-1.9,0.3-2.7,1c-1.1-0.8-1.8,0.4-2.8-0.2c-0.9-0.1-1.7,0.6-2.4,1.1c-1.6-2.1-2.1,0.6-3.4-1.2c-1.1-0.7-2.5-4.1-2.6-2.7
			c-0.9-2.6-0.4-0.6-0.3-2.8c0-1.6,0.7-1.3,1-3.5c0.6-0.8,1.7,0.3,2.6,0.2c1.2-0.6,2.6-0.6,3.4-2.7c0.7-0.7,1.8,0.7,2-2
			c0.6-0.9,1.7,1.1,1.7-2.3c0.8,0.6,0.4-4.2,1.3-2.5c0.9,1.7,0.6-2.3,1-2.7c0.1-1.7,0.9,0,0.6-3.4c0.6,0.9,1.5,3.5,0.4-2.5
			c-0.7-4.3,0.1-1.7-0.1-3.1c-0.1-0.9-0.5-3.3-0.4-2.5c0.3,1.5-0.9-3.7-0.9-3.3c-1.3-5.6-0.9-2.7-0.9-2c0,1-0.4,0.4-1.3-2
			c0.2,2.8-1.6-4-1.8-2.6c1.3,1.9,1.8,0.2,2.6-0.1c0.5-1.7,1.4-1.9,2.4-1.2c1.1,0.8,2.3,2.2,2.6-0.9c1.7,3.4,1.8-0.4,2.8,0
			c-0.1-5.3,2.4,0.9,3.1-0.8c0.5-2.9,2.2,0.1,3.2-0.4c0.3-3.9,1.5-3.2,3-1.6c0.7-2.1,2.4,0.6,3.4-0.2c1.4-0.1,2.6-1.7,4-1.8
			c1.4-0.4,2.5-1.9,3.7-2.4c1.3-0.6,2.3-1.9,3.3-3.2s1.9-2.6,2.8-3.1c2-0.6,2.9-4.7,3.4-7.7c0.5-3,0.5-5.5-0.5-8.4
			c-1-3.5-1.8-4.7-2.9-5.4c-1.3-1.5-3.2-4.5-4.8-4.3c-1.8-0.9-4.2-3.1-6.5-3.1c-1.1,0.3-2.5-0.6-3.8-1c-1.7-1.9-3-1.8-4.2-0.7
			c-1.5-1.1-2.5-0.1-3.9-0.7c-1.3-0.1-2.8-1.2-3.8,0.3c-1.1,1-2.5,0.3-3.7,1c-1.3-0.1-2.7-0.5-4-0.6c-1,1.4-2.8-0.9-3.8,0.5
			c-1.3,0.1-2.3,1.3-3.8,0.7c-1.6-1.2-2.6,0.3-4-0.1c-1.1,1.2-2.4,1.2-3.5,2.1c-1.2,0.7-2.7-0.5-3.7,1c-1.1,0.7-2.1,2.2-3.5,1.9
			c-0.1,2.6-1.1,1.1-1.3,2.8c-1-1.5-1.2,0.3-2.1-0.9c-1.7-2.2-1.6,4.5-3.4,1.7c-0.5,3.3-2,2.3-3.1,2.6c-1,1.2-2.2,1.1-3.3,1.7
			c0.5,2.4-0.1-0.4,0,0c-0.5,1.5-2.4-3.3-2.2,1.8c-0.7,0.6-0.7,4.4-2.1,1.9c-0.6,0.9-1.5,0.7-2.1,1.9c-0.8,0.3-1.7-0.2-2,2
			c-0.6,1.6-1.4,2.4-2.3,2.3c-0.6,1.3-1.8,0-2.3,2.1c-0.4,2.2-1,4-2.1,2.8c-0.5,1.9-2.1-1.4-2.6,0.9c-0.6,0.9-1.4,1.6-2.5,1.3
			c-0.5,2.3-1.3,3.6-3,1.1c-1.4,1-3.3,0.1-4.7,1.9c-1-0.4-1.7,0.2-2.4,0.9c-0.7,0.7-1.4,1.6-2.2,1.9c-1.2-0.3-1.8,2-2.8,2.3
			c-0.6,2.1-1.3,2.9-2.1,3.1c-1-0.4-0.7,4.4-1.8,2.7c-0.7,0.3-0.5,4.3-1.3,3.6c-0.7-0.3-0.4,3.7-1.1,3.3c-0.2,1.8-0.7,1.9-0.9,3.4
			c-0.8-1.2-0.4,2.6-0.8,3.2c-0.2,1.4-0.3,3-0.6,3.6c-0.3,0.6-0.4,2.1-0.6,2.9c-0.3,0.8-0.2,2.8-0.6,3.2c-0.1,1.6,0,4.3-0.6,3.6
			c0.1,2.5-0.8,0.6-1,2c-0.7,1.4-1.3,3.9-2.4,4.7c-1,0.1-1.3,4.1-2.7,3.3c-1,1-2.2,1.6-3.2,3.2c-1.1-0.7-1.7,1.1-2.4,2.3
			c-0.9,0.4-1.3,2.8-2.3,2.4c-1.2-0.1-1.7,2.6-2.6,2.6c-0.5,2.2-1.4,2-1.9,3.7c-0.4,2-0.9,2.9-1.3,3.7c-0.5,0.8-0.8,1.4-1,2.7
			c-0.1,3.3-0.4,4.3-0.1,6.3c0.4,2.3,1.3,3.9,2.9,6.5C49.4,160,52,164.4,53.9,164z"/>
		<path fill="#1EBADF" d="M115.5,63.1c0.9,0.7,1.6,0,2.1-0.9c0.6-1,1.1-2.3,1.7-3c1,0.7,1.3-1.1,1.9-2.2c0.8,0.1,1.4-1,2.6,0.8
			c1.6-0.3,3-1.4,4.5-2.2c1.2-2.4,2.7-2.9,4.6-1.8c1.5,1,2.2-1.5,3.6-0.9c1.1-0.7,2.2-1.7,3.6-1.2c1.2-0.5,2.6,0.1,3.7-0.6
			c1.6,1.3,2.3-1.1,3.7-0.7c1.2-0.2,2.8,1.4,3.8,0.3c1.1-0.9,2.4-0.4,3.6-0.7c1.9,3.1,2.5-0.1,3.9,0.8c1.4,0.8,2.1-1.7,3.6-0.4
			c1.3,0.8,2.2-0.8,3.6,0.6c1-0.9,2.3,0,3.6,1c2.7,2.3,4.2,0.3,6.3,3.4c1.7,0.9,3.1,3,3.9,5.7c1.1,3.6,0.8,6.6-0.4,8.1
			c-0.5,1.3-1.3,2.4-2.2,3.5c-0.9,1.1-1.9,2.2-3,3.4c-0.9,1.9-2.5,1.5-3.7,2.7c-0.7,3.5-2.6,1.8-4.1,1.8c-1.4,0.5-2.9,0.3-4.2,1.2
			c-1.9-2-2.9,0.5-4.3,0.9c-1.3-1.5-2-0.2-2.8,0.7c-0.8,1-2.2-1-2.9,0.3c-1-0.1-1.6,1.7-2.9,0.6c-1.1-0.5-2,0-2.8,0.6
			c-1.1-0.4-2.2-0.8-2.8,0.8c-1.4-2.1-1.5,2-2.7,1c-0.9,2.1-2,3.4-2.9,2.5c-0.2,1.4-0.1,1.5,0.6,2.9c1,2.6,1.6,2.4,2.2,2.5
			c0.6-0.9,2.2,4,2.5,3.8c0.1-1,1.1,2.7,1.4,3.8c-0.2-1,0.2,2.1,0.3,3.9c0.3,3.3-0.4,2.5-0.6,4.6c0,3.3-1.3,1.1-1.7,3.9
			c-0.8,1.1-2.1,0.1-2.7,3.3c-0.6,1.2-1.5,0.7-2.2,1.7c-0.7,1-1.6,0.9-2.3,1.7c-1.4-2.7-1.6,0.6-2.2,1.4c-0.4,1.7-0.6,4-1.5,2.6
			c-0.3,2.1-0.8,2.3-0.9,3.3c-0.5-1.1-0.2,0.7,0.6,3.3c0.7,2.4,1.1,2.5,1.6,2.5c1.2,2.9,1.9,3.1,2.8,3.1c0.6-0.9,2.3,2.1,3.1,1.2
			c1.3,1.3,2.9,3.1,3.7,1.3c1.4,1,2.5,0.6,3.6,0c1.2-0.2,2.3-0.6,3.4-1.1c1.3,0.5,2.7,1.2,3.6-0.4c1.3,0.4,2-1.8,3-2.8
			c1.2,0,2-1.7,3.2-1.6c1.1-0.4,2.6,1.1,2.9-2.6c1.1,1,1.3-2.2,2.3-1.7c1,0.5,2,0.8,2.3-1.7c0.6-1.5,1.5-1.6,2.4-1.6
			c0.9-0.2,1.9,0.2,2.3-1.8c0.9,0.1,1.4-2,2.3-2c0.6-1.2,1.2-2.7,2.4-1.4c1.3-0.8,2.5-1.9,4-2.6c1.7,0.5,2.9-1.1,4.4-1.2
			c1.3,0,2.6,0.5,3.8,0.9c1.1-0.1,2.3,0.5,3.6,1.9c1.6,1.9,2.5,0.2,4.2,2.3c1.3,0.2,2.9,1.4,4.3,2.1c1.2-0.6,3,1.5,4.4,2
			c1.9,2.5,3,1.4,4.5,1.7c1.2-1,3,1,4.5,1.2c1.4,0.1,2.4-2,4.7,1.8c2,2.6,3.4,2.2,4.6,1c0.8-3,3.4,2,4.7,1.2
			c1.2-1.6,2.8-0.8,4.7,0.8c1.1-1.8,2.9-0.6,4.8,0.6c1.5-0.1,3-0.5,4.8,0.4c1.5-0.5,3.4,1,4.8,0.2c1.2-1.1,3.1,0.2,4,1.3
			c0.4-0.3,0.7,2,0.5,2.9c-0.1,3.9-1.7,3.9-3.2,6.5c-2,0.4-4,2.8-6.4,4.4c-1.2,0.6-2.6,1-3.8,1.8c-1.2,1.2-2.5,2-4,1.8
			c-1.3,0.5-2,3.9-4,1.6c-1.2,0.9-2.8-0.2-3.5,2.4c-1.2,0.7-2.9-1.5-3.1,2.6c-0.9,1.1-1.5,3-2.4,3.2c-0.3,3-1.1,2.7-1.4,3.8
			c-0.4,0.9-0.7,1.9-0.6,4c-0.1,2.9,0.6,8.3,0.2,8.5c0.2,2.2,0.3,3.8,0.3,5c-0.1,0.9-0.5,0.8-0.5,3.2c0,2.4-0.2,3.9-1,3.8
			c-1-1.4-1.4,1.1-2.1,3.3c-0.7,0.7-1.6,0.9-2.3,2.1c-1.1-0.7-2.1-0.8-2.7,1.7c-0.8,1-1.7,1.9-2.8,1.5c-1,0.4-1.8,1.5-2.8,1.5
			c-0.9,0.8-1.9,0.5-2.7,1.4c-1,0.1-1.3,2.8-2,2.9c-0.3,2.4-1,1.9-1.1,3.5c-0.3,0.9-0.1,2.9-0.2,2.3c1.9,2,3.1,0.4,4.7,0.9
			c1.3-0.9,3.1,0.1,4.7,0.4c1.8,1.2,3.2,0.2,4.8,0.7c1.4-0.8,3-0.6,4.6-0.9c1.4-0.9,3.2,0,4.7-0.5c1.7,0.5,2.9-1.6,4.7-0.8
			c1.5-0.7,3.3,0.1,4.7-1c1.5-0.7,3.1-0.8,4.7-1.1c2.4,0.7,4.4,0,6.3-1.6c2-1,4.5,0.4,6.3-1.6c1.7-2.4,4.2-1,6.3-1.5
			c3.1-0.7,6.4-1.3,9.6-1.7c3.3-0.4,6.7-0.3,9.9-0.7c1.7,0.3,3.3,0.1,4.9,0c1.8,0.9,3.6,1.9,4.9,0.6c1.6,0.4,3-0.2,4.8,1.1
			c1.3-0.7,3.1,1,4.5,1c1.6,1,2.8,0.5,4.4,2.1c1.4,0.9,2.7,1.4,3.9,1.9c1.3,1,2.5,1.4,3.7,2.8c1,0.4,2.1,1.2,3.3,3.3
			c-1,1.7-2.7,0.7-3.7,2.7c-1.4,0.4-2.8,0.8-4,2.5c-1.3,1.3-2.6,2.4-4.3,2c-1.7-0.5-3,1.2-4.7,1.1c-1.8-0.5-3.4-0.2-4.9,0.4
			c-1.7,0.1-3.2,0.8-4.8,1.3c-1.7,0.3-3.7-1.3-5,0.3c-1.6,0.4-3.2,1-4.9,1.1c-3.6-1-6.6,0.4-9.4,2c-3,0.9-5.8,2-8.4,3.6
			c-2.5,1.6-4.8,3.6-6.7,6.1c-1.1,1.5-2,3.2-2.8,5c-0.7,1.8-1.2,4.1-1.8,5.5c-0.4,2.1-0.5,4.9-1,5.7c-0.2,3.2-0.2,6.9-0.2,8.4
			c0.2,2.9,0.5,4.8,1.6,8.2c0.8,2.2,2.2,5.3,3.8,6.9c1.5,1,3.9,3.9,6.3,4.3c2.4,0.7,4.9,1,7.3,0.7c2.6,0.5,4.8-0.9,7.1-2.3
			c2.6-0.1,4.4-3.7,7-3.9c2.4-1.4,4.7-2.9,7.1-4.2c2.4-1.3,4.9-2.4,7.4-3.2c5.2-1.6,10.8-1.4,16.2-1.6c2.8-0.1,5.6-0.3,8.4-0.6
			c2.6-1.3,5.4-1.5,8.3-1.2c3,0.5,5.5-1.1,8.2-1.8c2.6-1,5.2-2.5,8-2.3c2.8-0.3,5.2-2.4,7.9-2.9c0.3,5.2-0.3,7.7-1.4,8.7
			c-0.6,3.8-1.6,6.7-3.1,8.2c-0.8,0.8-1.5,2-2.3,3.3c-0.8,1.3-1.5,2.8-2.4,4.2c-1,0.7-2.2,0.7-2.8,3.4c-1.3-0.2-2.1,1.8-3.2,2.9
			c-0.2,0.5-0.1,2.6-0.1,4c-0.1,0.9-0.2,2.2-0.1,4c-0.3,1.6-0.3,5-0.3,7.9c-0.1,2.7-0.5,4.1-0.3,7.9c-3-1.3-5.9-2.5-8.4-1.4
			c-3-1-5.7-0.5-8.5-0.7c-1.5-0.6-3-1-4.4-0.6c-1.1,1.3-2.9-0.1-4.2,0.5c-1.3,0.8-2.7,0.6-4.3,0.2c-1.3,0.6-2.8,0.2-4.3,0.4
			c-1.3,0.5-3.2-1.4-4.2,0.5c-1.6-0.5-3.2-1.4-4.2,0.7c0.4,3.8,0.1,4.1,0.4,7.7c0.5,4.4,0.4,5.6,0.4,7.7c0.2,2.6,0.6,6.4,0.4,7.7
			c0.1,2.5,0.3,5.1,0.4,7.7c-0.2-0.1,0.2,2.7,0.5,4c0.3,1,0.9,2.4,1.9,3.3c1.4,2.4,2.4,1.8,3.6,1.3c1.3-0.3,3.4,0.5,4.9,1.1
			c1-0.9,2-1,3.2-1c1.2-0.1,1.8-1.7,2.8-2.5c2.2-0.8,4.4-1.7,6.6-2.6c4.4-1.8,8.8-3.8,13.3-5.3c6.8-2.2,14.5-3.1,21.2-1
			c2.2,0.7,4.6,3,6.2,3.2c0.9,0.4,2,2.2,2.9,2.2c1.2,1.6,2.3,2.5,3.3,1.2c1.2,1.2,1.9-0.1,2.8-0.6c0.8-0.6,2,0.2,2.5-1.4
			c2.2-1.1,4.4-1.9,6.4-4.1c2.2-0.9,4.3-2.5,6.4-4.1c2.4,1,4,1.7,5.2,3.4c1.3,2.1,2.3,5.7,2,6.4c0.3,3.2-0.5,4.1-1.5,6.7
			c-0.9,2.8-2.1,6-4.3,5.1c-1.8,1.3-3.6,3.1-5.7,3.8c-1.8,2.1-3.9,3.4-6.2,3c-1.5,0.7-3,1.4-4.3,2.4c-1.3,1-2.3,2.2-2.8,3.7
			c-0.5,1.5-0.3,3.1,0,4.7c0.3,1.4,0.2,0.7,0.7,4.8c-0.2,1.4-1,3.8-2.3,6.4c-0.7,1-1.4,2.4-2.3,3.5c-0.9,1-2,1.5-3.3,1.2
			c-1.3-0.3-2.6,0.1-3.7,1.1c-1.3,0.3-2.2,2.1-3.3,3c-1.1,1.2-2.2,2-3.2,3.1c-1.2,0.5-1.7,3.5-3.2,1.5c-1.6-2.2-2.6-2.5-2.7,1.7
			c-0.4,2.5-1.3,2.5-1.7,4.4c-0.8,0.3-0.7,4.2-1.8,2.9c-0.6,0.7-1.2,1.9-1.5,4c-0.1,3.3-0.9,3.3-1.7,3.4c-0.7,0.8-1.7,0.5-2.1,3.2
			c-0.8,0.4-1.9,0-2.4,2.6c-0.4,2.8-2.1,0-2.7,2.4c-1.1,0.2-2.1,0.5-2.9,2.1c-0.9,1.3-2.2,0.6-3.1,1.8c-0.7,2.4-2.9-2.2-3.2,1.7
			c-1,0.7-1.7,3.1-3.2,1.6c-1.5,0.1-2.6,1.8-4.1,1.9c-1.4,0.6-2.8,0.8-4.1,2.1c-2.1-2.6-2.4,2.6-4.1,2c-1.3,1-3.5-2.1-4.1,2
			c-1,0.1-1.5,2.2-2.8,1.1c-1,0.2-1.7,1.6-2.7,1.6c-0.8,1.2-1.7,1.3-2.7,1.5c-0.6,1.8-1.7,1.3-2.8,1.1c-1,0.2-2.3-1.5-2.7,1.3
			c-0.9,0.7-1.8,1.1-2.7,1.3c0.1-0.7-0.4-4.2,0.1-4.2c0.5-0.1,0.8-1.5,0.9-4.1c0.9,0.7,1.1-2.3,1.8-3.4c0.6-1.5,0.9-5.2,2.2-3.9
			c0.6-2.3,2.3-0.1,3-2.7c1.4,0.7,2.3-1.4,3.4-2.7c0.8-0.7,1.1-3.5,2.6-1.2c0.4-2.5,1.8-0.4,2.6-1.2c0.8-0.8,1.8-0.4,2.6-1
			c0.4-2.2,1.5-1.7,2.3-1.9c0.5-1.7,1.4-1.2,1.8-2.6c0.3-1.8,1.2-0.3,1.2-2.3c0.3-2.4,0.3-3.2-1.2-5.1c-0.4,0.5-1.3,0-2.4-1.6
			c-1-1.1-2.1-2.3-2.6-1.3c-0.7,0.3-2.1-3.3-2.3-2.1c-0.8-1.7-1-1.2-1.4-2.7c-0.7-1.9-0.7-3.5-0.5-6.3c0.1-1.5,0.3-2.6,0.7-3.5
			c0.4-0.9,0.9-1.7,1.5-2.6c0.6-0.5,0.7-3.8,1.8-2.7c0.7-0.5,1.5-0.9,2.2-2.1c0.9-0.2,1.6-1,2.4-1.9c0.9-0.5,1.6-1.5,2.4-2.3
			c0.8-0.8,1.5-2.1,2.5-2.1c1.1,0.8,1.6-1.6,2.4-2.1c0.6-1.8,1.6-1.5,2.2-2.5c0.4-1.9,1.4,0.1,0.9-3.1c-0.1-1.7-1.1-3.4-2.2-3.7
			c-1.3-1.1-2.5,0-4.3-1.8c-3-1.4-5.6-0.5-8.5-0.3c-3-0.6-5.7,1-8.5,1.5c-1.5,0-3-0.1-4.5,0.1c-1.5,0.1-2.8,0.6-4.1,1.6
			c-1.4,0.2-3,0-4.4,0.3c-1.7-0.9-3.1-0.4-4.5-0.3c-0.7,1.2-1.7,0.9-2.8-0.2c-1.1-1.1-2.1-1.6-2.8-1.4c-0.5,1.4-1.7-0.8-2.4-0.7
			c-0.5,0.6-1.4-0.8-2.3-2.2c-1.2-0.7-2.5-3.3-3-4.6c-0.4-0.8-0.5-1.7-0.9-5.1c0.1-1.3,0-4,0.3-5.3c-0.2-2.9,0.1-3.9,0.6-3.8
			c-0.3-3.5,0.7-1.1,0.3-5.1c0.4-0.1-0.1-4.6,0.4-4.4c0.2-1.4,0.1-3.6,0.4-4.4c0-1.3,0.5-0.7,0.4-2.3c-0.3-2.8,0-2.8,0.1-3.7
			c-0.1-3.3,0.5-3.2,0.6-5.9c0.1-2.4,0.1-5.1,0.6-5.9c-2.1,1-4.3,1.5-6.6,1.7c-2.1,1.2-4.7,0.1-7,0.4c-1.9,2.1-4.6,1.4-6.8,1.9
			c-1.6,3-3.7,2.5-4.3,4.9c-0.3,1.2-0.3,2.6-0.4,3.2c-0.1,0.9,0,2.7-0.4,3.2c-0.3,0.8-0.7,1.7-1.2,2.6s-1.2,1.6-1.9,2.3
			c-0.3,2.7-1.6,1.3-2.4,1.9c-0.6,1.9-2-0.3-2.6,1.6c-2.1,2.2-4.3,3.8-6.8,4.1c-1.2,0.4-2.3,1-3.5,1.8c-1.1,0.6-2.1,2.1-3.3,2.3
			c-1.1,0.7-2.1,2.1-3.4,2.1c-1.1,0.6-2.1,2.2-3.4,2c-1.4-0.6-2.4,0.7-3.4,2.1c-1,1.3-2.1,2-3.4,2c-0.2,0.5-0.8-1.3-1.5-3.5
			c-0.3-0.7-1.2-4.5-1.2-4.4c-0.6-2.9-0.6-3-0.7-4.2c0-0.6-0.5-3.8-0.3-4c0-1.1-0.2-3.4-0.1-4.1c0.2-0.5,0-3.2,0.1-4.4
			c0.1-1.2,0.2-2.8,0.3-4.2c0.1-1.4,0.2-2.8,0.3-4.2c0.3-3,0.5-6,0.8-9c0.3-0.6,0.5-2.1,0.5-3.8c-0.2-3,0.3-2.9,0.2-5.3
			c-0.8-6-0.1-4.7,0.2-5.2c0.4-0.1,0.8-0.3,0.5-3.9c0.9,1.9,0.5-1.9,0.4-4.6c0.2-1.1-0.1-4.6,0.4-4.5c0.8,1.5,0.5-1.8,0.5-4.1
			c-0.1-2.4,0.4-2.5,0.3-4.9c0.6,1.1,0.2-2.3,0.3-3.6c0.4,0.3,0.4-2,0.4-3.6c0.1-1.4,0.3-3,0.5-4.2c0.2-1.3,0.6-2.3,1.1-2.7
			c0.3-1.4,0.8-2.5,1.4-3.2c0.4-1.8,1.1-2.4,1.9-3c0.8-3.4,2.1-5.2,4.1-4.2c1.3-2,3.1-1.8,4.2-4.1c1.5-0.5,2.8-0.7,3-4.8
			c-0.8-0.2-2.5-1.6-4.7-3.6c-2.4-2.7-4.6-2.5-6.3-0.2c-2.3-0.2-4.5,0-5.9,2.7c-1.1,3.9-3.5,0.7-4.3,4.6c-0.9,3.3-2.1,4.4-3.2,5.5
			c-0.8,2.6-1.9,3.9-2.9,5.8c-1,1.9-2.1,3.8-3.3,5.6c-2.5,3.5-5.8,6.4-9.9,7.4c-2.1,0.5-4.4-0.2-6.4,0.3c-2,0.5-4.7-2.3-6.5-0.7
			c-2,0.4-4.1,0.5-6.3,0.6c-2.5-0.5-3.8,3.8-6,3.7c-0.9,0.7-1.8,1.4-2.7,2.2s-1.8,1.7-2.7,2.7c-0.7,1.6-1.8,2.2-3.1,2
			c-0.9,1.7-2.1,1.8-3.5,1.2c-1.1,0.7-2.4-0.1-3.5,0.1c-1.2-0.4-2.4-1.6-3.1-1.4c-1.2-1.8-1.4-0.8-2-2.9c0,0.8-0.4-1.8-0.5-3.5
			c-0.2-2.3,0.3-2.5,0.7-3.7c0.6-0.2,0.9-2.5,1.6-3.4c1.2,0.5,2.1-0.8,2.8-3c1.3,0.4,2.1-1.7,3-3.9c0.8-2.3,2.6-0.4,3.3-3.2
			c0.9-2,2.2-2.3,3.3-3.1c2-2.9,4.1-4.7,5.9-6.6c0.8-1.1,1.9-0.8,2.2-3.3c0.8-0.4,1.3-1.1,1.2-4.5c0-3.4,0.2-4.4,0.5-5.5
			c0.3-1.2,0.3-4,1.1-5.4c1.2-1.7,3.1-3.8,5-6c2.1-1.2,4-4.2,5.5-5.8c0.7-0.5,1.1-1.5,1.4-2.6c0.2-1.3,0.3-2.8,0.3-3.6
			c0.2,0-0.2-2.6-0.4-3.5c0,0.3-0.7-2.5-1.1-2.9c-0.6-1.6-0.5,0.7-1.8-2.8c-1.2-3.1-1.5-1.7-2.3-2.4c-2-2.7-3.9-3.4-5.8-3
			c-2.1-0.8-4.2-0.6-6.6-0.9c-2.6-1.7-4.8-0.9-6.6,0.9c-1.9,2.7-4.6,1.3-6.6,2.6c-1.4,4.2-4.2,2.3-6.2,3.7c-2,1.3-4,2.7-6,4.1
			c-2,1.5-4.3,1.7-6.2,3.8c-2.3,0.5-4,4.1-6.8,2.9c-1.1,0.8-2.4,0.5-3.7,0.3c-1.3-0.2-2.6-0.2-3.5,0.9c-1.5-1.3-1.9,2.5-3.3,0.8
			c-1.2-0.4-2.2-0.1-3.6-1.7c-1.1-0.2-1.6,1.4-3-0.8c-1-0.6-2.1-2.3-2.9-2.9c0.2,0.9-0.3-2.5-0.1-3.1c0.4-0.1,0.3-3,0.5-5.3
			c0.4-1.3,1-2.5,1.8-3.4c0.9-0.5,1.5-2.5,2.3-4.1c1.1-0.5,1.8-2.7,3.2-2.5c0.6-3.4,2.5-0.8,3.4-3.2c1.4,0,2.9,0.2,4-1.1
			c1.2-1.3,2.3-2.8,3.9-2.3c1.2-1.3,2.7-1.1,4.2-0.9c1.3-1,2.8-0.9,4.3-0.8c1.3-0.7,2.7-1,4.3-0.4c1.1-1.7,2.8-0.6,4.3-0.2
			c0.5-1.7,0.7-4.4,1-6.7c0.4-1.8,0.5-5.3,1-6.7c0.1-1.6,0.4-1.9,0.4-3.8c0-1.8,0.5-1.4,0.6-2.9c0.1-1.7,0.4-2.8,0.4-4.7
			c0.1-1.2,0.4-1.6,0.1-3.5c0.1-0.3-0.5-2.9-0.9-3.8c-0.7-2.1-1.3-2.6-2.2-3.2c-0.6-0.2-1.4-0.5-2.4-1.1c-0.9-0.4-1.9-0.7-3-1.3
			c-0.8,0.7-2.1-0.6-3.2-0.7c-1.1-0.1-2.2,0.1-3,1.2c-1.9,1.7-4.1,2-6.2,2c-0.8-2.7-1.5-4.4-2.2-6.6c-0.5-1.3-1.6-4.9-2.2-6.6
			c-1.5,0.2-3,0.4-4.5,0.6c-1.5,0.2-3,0.5-4.5,0.7c-2.9,1.2-5.8,2.2-8.9,1.9c-2.9,0.7-5.8,1.6-8.4,2.9c-1.5,0-2.7,1.1-3.8,2.2
			c-1.2,1.1-2.3,2.2-3.7,2.1c-1.4-0.4-2.4,1.3-3.2,3c-1.2,0.3-2,2-2.9,3.1c-0.6,1.5-1.2,2.9-2.2,2.9c-0.7,1.3-1.3,3.4-2.6,2.3
			c-1,1.4-2.3,1.3-3.6,1.1c-1.7-2.2-2.5-0.8-3.7-1.6c-1-0.3-1.7,0.2-2.9-2.8c-1.2-2.9-1.4-2.8-1.6-3.7c-0.2-1.6,0.1-5.1,1.1-7.7
			c0.4-1.7,1.5-1.2,1.9-3.8c0.6-1.7,2.1-0.1,2.6-2.9c0.5-2.9,1.7-2.6,2.8-2.9c1.1-0.4,1.7-2.9,2.9-2.7c1.4,1.3,1.4-4,2.7-3.2
			c0.7-1.8,1.9-1.4,2.6-2.7c0.9-0.9,1.5-2.4,2.1-3.9c0.4-2.1,1.3-2,1.6-3.9c0.2-2.7,0.9-2.4,1-5.1c0.2-2,0.6-3,1.1-3.7
			c0-2.9,0.6-2.9,0.8-4.6c0.3-1.3,0.7-2.7,1-4.4c0.1-1.5-0.1-4.5,0.7-3.2c0.6,0.7,0.5-2.3,1-2.4c0.8,1.1,0.6-2.1,1.2-2.2
			c0.1-2.1,0.4-4,1.3-2.9c0.5-0.6,0.6-3.7,1.6-2.8c1,1.2,1.2-1.9,2.2-1.4c0.7-2.3,2.1-1.5,3.4-1.6c0.6-3.3,2.1-2.5,3.6-2
			c1.1-1.5,2.8,0.2,3.8-1.4c1.1-1,2.8,0.4,3.5-1.8c1.2-0.2,2.1-1.8,2.9-3.7c1-1.2,2.6,0.8,3.3-1.2c1-0.9,2-1.8,2.9-2.8
			c1-0.9,2.8,1.9,2.9-2.8c0.3-4,2.4,0.1,2.9-2.7C112.9,62.6,114.4,63.8,115.5,63.1z"/>
	</g>
</g>
</svg>
