<svg id="Layer_1" data-name="Layer 1" xmlns="http://www.w3.org/2000/svg" viewBox="0 0 260.815 78.654"><title>Untitled-1</title><g id="NAD"><path d="M10.635,78.654H0V0L49.909,59.7V1.369H60.544V78.654H50.225L10.635,29.9V78.654Z" fill="#222248"/><path d="M77.179,78.338l31.482-77.18,31.483,77.18H128.667l-2.316-6.107H91.077l-2.422,6.107H77.179Zm17.689-16h27.587L108.661,26.955Z" fill="#222248"/><path d="M183.735,1.264a35.156,35.156,0,0,1,14.583,3.054,37.68,37.68,0,0,1,11.846,8.318,39.9,39.9,0,0,1,8,12.267,38.288,38.288,0,0,1,2.948,15,39.493,39.493,0,0,1-2.843,15,38.194,38.194,0,0,1-7.845,12.214,37.28,37.28,0,0,1-11.845,8.265,36.007,36.007,0,0,1-14.847,3.054H156.78V1.264h26.955Zm-1.264,67.283a25.731,25.731,0,0,0,10.846-2.267,26.325,26.325,0,0,0,8.528-6.171,28.392,28.392,0,0,0,5.581-9.125,31.963,31.963,0,0,0,0-22.258,27.906,27.906,0,0,0-5.634-9.125,26.906,26.906,0,0,0-8.581-6.171,25.476,25.476,0,0,0-10.74-2.269H168.047V68.546h14.425Z" fill="#222248"/><path d="M248.915,1.424V13.8h11.9v3.159h-11.9v12.48h-3.37V16.957h-11.9V13.8h11.9V1.424h3.37Z" fill="#222248"/></g></svg>