<svg id="Layer_1" data-name="Layer 1" xmlns="http://www.w3.org/2000/svg" viewBox="0 0 290.292 78.654"><title>Untitled-1</title><g id="NADH"><path d="M10.635,78.654H0V0L49.909,59.7V1.369H60.544V78.654H50.225L10.635,29.9V78.654Z" fill="#222248"/><path d="M77.179,78.338l31.482-77.18,31.483,77.18H128.667l-2.316-6.106H91.077l-2.422,6.106H77.179Zm17.689-16h27.587L108.661,26.955Z" fill="#222248"/><path d="M183.735,1.264a35.156,35.156,0,0,1,14.583,3.054,37.678,37.678,0,0,1,11.846,8.317,39.9,39.9,0,0,1,8,12.267,38.29,38.29,0,0,1,2.948,15,39.49,39.49,0,0,1-2.843,15,38.2,38.2,0,0,1-7.845,12.215,37.279,37.279,0,0,1-11.845,8.265,36.007,36.007,0,0,1-14.847,3.054H156.78V1.264h26.955Zm-1.264,67.282a25.73,25.73,0,0,0,10.846-2.267,26.333,26.333,0,0,0,8.528-6.172,28.39,28.39,0,0,0,5.581-9.124,31.963,31.963,0,0,0,0-22.258,27.913,27.913,0,0,0-5.634-9.125,26.906,26.906,0,0,0-8.581-6.171,25.483,25.483,0,0,0-10.74-2.269H168.047V68.546h14.425Z" fill="#222248"/><path d="M279.026,1.264h11.266V78.338H279.026v-23.9H249.018v23.9H237.751V1.264h11.267V44.539h30.009V1.264Z" fill="#222248"/></g></svg>