<?xml version="1.0" encoding="utf-8"?>
<!-- Generator: Adobe Illustrator 22.1.0, SVG Export Plug-In . SVG Version: 6.00 Build 0)  -->
<svg version="1.1" id="Layer_1" xmlns="http://www.w3.org/2000/svg" xmlns:xlink="http://www.w3.org/1999/xlink" x="0px" y="0px"
	 viewBox="0 0 545.8 488.9" style="enable-background:new 0 0 545.8 488.9;" xml:space="preserve">
<style type="text/css">
	.st0{fill:#C333F2;}
	.st1{fill:#D91EF4;}
	.st2{clip-path:url(#SVGID_2_);}
	.st3{clip-path:url(#SVGID_4_);}
	.st4{clip-path:url(#SVGID_6_);}
	.st5{fill:#D731F4;}
	.st6{fill:#CF37EF;}
</style>
<g id="nucleo">
	<path class="st0" d="M528.2,152.8c-1.3-2.9-2.7-5.8-4.1-8.6c-2.9-5.9-5.9-12-7.9-18.3c-1.1-3.2-2-6.7-2.9-10
		c-1.3-5.1-2.7-10.3-4.8-15.4c-6.7-16-19.8-28.1-32.6-39c-27.5-23.5-58.1-46.6-94.5-56c-28.5-7.4-57.8-5.7-86.3-4.1l-105.8,6
		c-11.4,0.6-27,1.5-38.2,10.8c-2.4,2-11.8,4.1-18.7,5.7c-10.3,2.3-19.3,4.4-23.7,8.2C103,37,97.8,41.2,93,45.2
		c-22.1,18.2-35.4,29.2-54.1,68.6c-2.6,5.4-6.8,13.2-11.2,21.4C17.5,154,4.8,177.5,1.6,191.4c-2.6,11.3-1.5,21.9-0.1,31.8
		c0.5,3.9,1.2,14,1.9,25.6c2.5,39.5,5.1,72.9,10,81.8c19.8,35.9,39.9,55.3,67.7,82l7.5,7.2c20.3,19.6,72.8,65.5,120.9,67.2
		c34.6,1.2,69.8,1.8,104.7,1.8c25.3,0,50.9-0.3,76-1c13.7-0.3,29.1-0.7,44-5.2c23.2-7,44.8-24.3,60.7-48.7
		c14.2-21.8,22.8-47,30-70.9C541.8,306.9,560.5,223.9,528.2,152.8z"/>
	<g>
		<g>
			<path id="XMLID_1_" class="st1" d="M209.7,481.9c60.1,2.1,120.2,2.4,180.3,0.9c14.4-0.4,28.9-0.9,42.7-5
				c24.2-7.3,44.1-25.4,57.8-46.6c13.8-21.2,22.1-45.4,29.4-69.6c20.2-67.5,32.7-142.5,3.5-206.6c-4.1-9.1-9.1-17.9-12.3-27.4
				c-2.8-8.3-4.2-17-7.5-25c-6.3-15.1-18.8-26.5-31.2-37.1c-27.5-23.5-57.4-45.9-92.5-55c-27.5-7.1-56.4-5.6-84.7-4
				c-35.3,2-70.5,4-105.8,6c-12.4,0.7-25.6,1.7-35.2,9.6c-6.8,5.7-35.6,7.9-42.3,13.8C79.7,64,65.8,69.3,43.6,116
				c-8.5,17.9-32.5,57.3-37,76.6c-2.3,10.1-1.4,19.7,0,29.9c1.9,13.9,4.6,93.4,11.3,105.7c21.1,38.3,42.1,56.9,74.3,88
				C121.8,444.8,168.5,480.5,209.7,481.9z"/>
		</g>
		<g>
			<g>
				<defs>
					<path id="SVGID_1_" d="M209.7,481.9c60.1,2.1,120.2,2.4,180.3,0.9c14.4-0.4,28.9-0.9,42.7-5c24.2-7.3,44.1-25.4,57.8-46.6
						c13.8-21.2,22.1-45.4,29.4-69.6c20.2-67.5,32.7-142.5,3.5-206.6c-4.1-9.1-9.1-17.9-12.3-27.4c-2.8-8.3-4.2-17-7.5-25
						c-6.3-15.1-18.8-26.5-31.2-37.1c-27.5-23.5-57.4-45.9-92.5-55c-27.5-7.1-56.4-5.6-84.7-4c-35.3,2-70.5,4-105.8,6
						c-12.4,0.7-25.6,1.7-35.2,9.6c-6.8,5.7-35.6,7.9-42.3,13.8C79.7,64,65.8,69.3,43.6,116c-8.5,17.9-32.5,57.3-37,76.6
						c-2.3,10.1-1.4,19.7,0,29.9c1.9,13.9,4.6,93.4,11.3,105.7c21.1,38.3,42.1,56.9,74.3,88C121.8,444.8,168.5,480.5,209.7,481.9z"
						/>
				</defs>
				<clipPath id="SVGID_2_">
					<use xlink:href="#SVGID_1_"  style="overflow:visible;"/>
				</clipPath>
				<g class="st2">
					<path class="st0" d="M470.4,241.6l-2.4-0.9c2.7-7.3-2.3-15.8-8.8-19.7c-7.1-4.3-15.9-5.1-23.7-5.8
						c-292-25.7-588.5-31.8-881.3-18.2l-0.1-2.6c292.9-13.7,589.5-7.6,881.6,18.2c8.1,0.7,17.2,1.5,24.8,6.2
						C467.8,223.1,473.7,232.6,470.4,241.6z"/>
				</g>
			</g>
		</g>
		<g>
			<g>
				<defs>
					<path id="SVGID_3_" d="M209.7,481.9c60.1,2.1,120.2,2.4,180.3,0.9c14.4-0.4,28.9-0.9,42.7-5c24.2-7.3,44.1-25.4,57.8-46.6
						c13.8-21.2,22.1-45.4,29.4-69.6c20.2-67.5,32.7-142.5,3.5-206.6c-4.1-9.1-9.1-17.9-12.3-27.4c-2.8-8.3-4.2-17-7.5-25
						c-6.3-15.1-18.8-26.5-31.2-37.1c-27.5-23.5-57.4-45.9-92.5-55c-27.5-7.1-56.4-5.6-84.7-4c-35.3,2-70.5,4-105.8,6
						c-12.4,0.7-25.6,1.7-35.2,9.6c-6.8,5.7-35.6,7.9-42.3,13.8C79.7,64,65.8,69.3,43.6,116c-8.5,17.9-32.5,57.3-37,76.6
						c-2.3,10.1-1.4,19.7,0,29.9c1.9,13.9,4.6,93.4,11.3,105.7c21.1,38.3,42.1,56.9,74.3,88C121.8,444.8,168.5,480.5,209.7,481.9z"
						/>
				</defs>
				<clipPath id="SVGID_4_">
					<use xlink:href="#SVGID_3_"  style="overflow:visible;"/>
				</clipPath>
				<g class="st3">
					<path class="st0" d="M268.5,488.4c-18.9,0-36.7-3.6-52.5-10.9c-8.4-3.9-16.4-8.9-23.9-14.9c-49.9,8.7-90.4,8.4-126.9-0.7
						c-35.9-9-66.5-27.1-87.9-51.3L-26,410l2.2-0.6c-7.1-8.3-13.2-17.2-18-26.8c-22-43.3-14.9-97,16.9-127.5
						c13.4-12.9,29.8-21,46.8-26.2c-4.7-7.8-8.9-15.2-12.6-22c-10-18.4-19.7-38.4-23.2-59.8C-20.2,107.9-4.2,63.9,28,32.2
						c27.2-26.8,64.7-45.6,111.5-56c42.8-9.5,90.4-11.5,141.4-5.8C351.3-21.8,408.1-1,450,32.4c12.7,4.3,25.1,9.6,37,15.6
						c32.2,16.4,56.6,36.7,72.5,60.4c19.1,28.4,25.3,62.6,16.7,91.3c-4.3,14.4-12.3,28.3-24.4,42.1c9.5,10.1,14.2,20.8,14.1,32
						c-0.1,8.4-3,17.2-8.8,26.2c0.8,1.5,1.3,3,1.4,4.5c0.2,4.2-2.3,7.8-4.7,10.9c-23.6,30.1-53.1,51.1-81.8,65.7
						c24.2,2.2,47.9,5.2,71.2,9.1c22.4,3.7,44.7,9.5,56.1,27.4l1,1.5l-1.7,0.4c-73.2,18.5-149.1,25.3-224.4,20.9
						c-9.7,20.5-32.5,32.1-50.6,38.3C304.9,485.2,286.3,488.4,268.5,488.4z M195.5,461.9c6.9,5.3,14.1,9.7,21.6,13.2
						c30,13.8,67.5,14.3,105.8,1.2c17.4-5.9,39.1-16.9,48.7-36c-24-1.5-47.9-4.2-71.6-8c-35.5,14.1-69.8,23-99.1,28.6
						C199,461.3,197.2,461.6,195.5,461.9z M-18.4,411.2c21.1,22.5,50.7,39.7,84.2,48.1c35.6,8.9,75.1,9.3,123.7,1
						c-15.6-13.2-29.2-30.8-39.7-51.8c-7.7-1.8-15.4-4-23-6.5C79,410.3,29.7,418.9-18.4,411.2z M153,409.3
						c10.6,20.6,24.2,37.8,39.8,50.5c2.5-0.4,5-0.9,7.5-1.4c28-5.3,60.7-13.7,94.6-26.9c-20.1-3.4-40.1-7.6-59.9-12.6
						C208.9,417.9,180.6,415.5,153,409.3z M375.4,438c74.1,4.3,148.9-2.5,220.9-20.4c-11.1-15.8-32.2-21.3-53.4-24.7
						c-24.6-4-49.7-7.2-75.3-9.4c-19.2,9.4-38,15.9-54.2,20.4c-11.6,3.2-23.2,5.8-34.8,7.9c0.9,8.4,0.1,16.2-2.2,23.3
						C376.2,436,375.8,437,375.4,438z M304.6,430.5c22.6,3.5,45.3,5.9,68.1,7.3c0.5-1.2,0.9-2.3,1.4-3.6c2.2-6.7,2.9-14.1,2.1-22.1
						c-14.5,2.5-28.9,4.3-43,5.5C323.6,422.3,314,426.6,304.6,430.5z M247.7,419.4c17.2,4,34.5,7.5,51.9,10.3
						c8.7-3.5,17.5-7.3,26.4-11.4C297.7,420.3,271,420.1,247.7,419.4z M235.3,416.4c3.8,0.2,7.6,0.3,11.4,0.4
						c25.2,0.8,54.7,1,85.8-1.7c13.2-6.4,26.3-13.7,39.3-21.8c-1.3-3.8-2.9-7.7-4.8-11.6c-0.4-0.9-0.8-1.7-1.2-2.6
						c-64.1,0.2-130.6,5.6-199.1,16.2C189.2,403.5,212.1,410.5,235.3,416.4z M151.4,406.3c23.9,5.6,48.2,8.2,71.3,9.5
						c-20.7-5.6-41.2-12.2-61.4-19.6c-4.5,0.7-9.1,1.5-13.6,2.2c0.4,1,0.9,1.9,1.3,2.9C149.8,402.9,150.6,404.6,151.4,406.3z
						 M372.6,395.9c-10.9,6.8-22,13-33.1,18.6c11.9-1.2,24.1-2.8,36.3-4.9C375.2,405.2,374.2,400.6,372.6,395.9z M-14.3,409.2
						c45,6.4,91.2-1.1,136-9c-2.7-1-5.4-2-8.1-3.1c-10.9-4.4-20-9.3-27.4-14.7C52.4,390.6,18.8,399.5-14.3,409.2z M374.9,394.5
						c1.7,5.1,2.8,9.9,3.5,14.7c11.5-2.1,23-4.7,34.4-7.9c15-4.2,32.1-10.1,49.8-18.3c-21.5-1.8-43.4-2.9-65.5-3.5
						C389.8,384.8,382.4,389.8,374.9,394.5z M23.3,231.1c-16.9,5.1-33.2,13.1-46.4,25.8c-31,29.8-37.9,82.2-16.4,124.5
						c4.9,9.6,11.2,18.7,18.6,27.1l0.3-0.1c34.3-10.2,69.2-19.5,104.1-28c-8.2-6.7-14-14.2-17.5-22.7c-6.1-14.9-4.8-33.3,3.8-50.5
						c2.2-4.5,4.9-8.8,7.8-12.9c-9.6-7.9-18.2-16.1-25.8-24.6C40.7,257.4,31.2,243.9,23.3,231.1z M132.2,401.1
						c5.3,1.6,10.6,3.1,16,4.4c-0.5-1-1-2.1-1.5-3.2c-0.5-1.2-1.1-2.3-1.6-3.5C140.8,399.6,136.5,400.3,132.2,401.1z M89.5,381.7
						c6.9,4.8,15.2,9.2,25,13.1c4.1,1.6,8.2,3.2,12.4,4.6c5.7-1,11.5-2,17.2-3c-3.5-8.2-6.5-16.6-9.2-25.1
						C119.7,374.6,104.6,378,89.5,381.7z M137.5,370.7c2.7,8.5,5.7,17,9.2,25.2c3.3-0.5,6.5-1.1,9.8-1.6c-3.5-1.3-6.9-2.6-10.4-4
						l-1.7-0.7l1.2-1.4c11.2-13,23.7-25.2,37.5-36.4c-19.9-6.9-38.9-15.2-56.7-24.9c2.9,13.8,6.2,27.7,10.4,41.3
						c9.3-2,18.7-4,28-5.8l0.5,2.5C155.9,366.8,146.7,368.8,137.5,370.7z M148.7,388.6c4.3,1.7,8.6,3.3,12.9,4.9
						c69.7-11,137.5-16.6,202.8-16.9c-0.3-0.5-0.5-1-0.8-1.5c-63.9,3.4-124.2-4.2-177.7-22.1C172.3,363.8,159.9,375.8,148.7,388.6z
						 M368.6,379.2c0.2,0.5,0.5,1,0.7,1.5c1.8,3.9,3.4,7.6,4.7,11.3c6.3-4,12.5-8.2,18.7-12.6C384.8,379.2,376.9,379.2,368.6,379.2z
						 M400.5,377c22.6,0.6,44.8,1.8,66.7,3.8c29.6-14.5,60.3-35.7,84.7-66.8c2.1-2.7,4.3-5.8,4.1-9.1c0-0.7-0.2-1.4-0.5-2.2
						c-1.1,1.6-2.2,3.2-3.5,4.7c-33.9,43.1-92.5,56.1-133.6,62.2c-3.4,0.5-6.7,1-10,1.4C405.8,373,403.2,375,400.5,377z M79.6,296
						c-2.8,3.9-5.3,8-7.5,12.4c-8.2,16.5-9.5,34.1-3.7,48.4c3.5,8.6,9.6,16.2,18.3,22.9c15.8-3.8,31.6-7.4,47.4-10.8
						c-4.4-14.3-7.8-28.9-10.8-43.5c-6.2-3.5-12.3-7.2-18.3-11C96,308.5,87.4,302.3,79.6,296z M369.6,376.6c9,0,17.8,0.1,26.7,0.3
						c2.4-1.7,4.8-3.5,7.1-5.3c-12.4,1.5-24.7,2.6-36.9,3.3c0.3,0.6,0.6,1.1,0.9,1.7C368.1,376.6,368.8,376.6,369.6,376.6z
						 M188.4,351c52.4,17.3,111.5,24.7,173.9,21.5c-4.5-8.1-9.6-15.8-15.2-23.1c-33.9,8.7-73.9,15.4-114.1,10.1
						c-14.7-1.9-28.8-5.5-42-10.5C190.1,349.6,189.2,350.3,188.4,351z M349.8,348.7c5.7,7.5,10.9,15.4,15.4,23.7
						c13.9-0.8,28-2.1,42.3-3.9c14.5-11.4,28.5-24,41.8-38.1c9-9.5,16.8-19,23.4-28.3c-28.5,15.4-61.3,28.6-100,40.2
						C365.3,344.4,357.7,346.6,349.8,348.7z M477.6,299.2c-7.3,10.9-16.1,21.8-26.6,32.9c-12.3,13.1-25.3,25-38.6,35.7
						c1.9-0.3,3.8-0.5,5.7-0.8c64.6-9.5,106.5-28.9,131.9-61.2c1.5-1.9,2.9-3.8,4.1-5.7c-0.7-1-1.7-2-2.9-3.1
						c-9.7-8.6-23.2-11.5-36.1-13.7c-3.2-0.5-6.4-1-9.6-1.5C496.7,287.9,487.5,293.7,477.6,299.2z M193.4,347.1
						c12.5,4.6,25.9,8,39.8,9.8c39.4,5.2,78.6-1.2,112.1-9.8c-11.2-14.1-24.5-26.7-39-38.3c-23.3,8-47.4,13.5-72,16.2
						c-3.1,0.3-6.1,0.6-9.1,0.8C214.1,332.4,203.5,339.5,193.4,347.1z M125.6,323.6c18.7,10.4,38.7,19.2,59.8,26.3
						c0.9-0.7,1.8-1.4,2.7-2.1c-21.5-8.6-40.2-21.1-54.7-36.5c-0.3-0.1-0.6-0.3-0.8-0.4c-3.7-1.9-7.3-4.1-10.8-6.4
						C123,310.9,124.3,317.3,125.6,323.6z M309.2,307.8c14.5,11.6,27.7,24.4,38.9,38.6c8.3-2.2,16.3-4.5,23.8-6.7
						c40.6-12.2,74.7-26.1,104.1-42.5c4-6,7.5-12,10.6-18c-40.3-4.7-78.9-5-115.6-0.7C351.3,290.4,330.6,300.2,309.2,307.8z
						 M140.2,314.5c13.8,13.2,31,23.9,50.3,31.5c9.2-7,18.9-13.6,29-19.7C188.9,328,162.3,324,140.2,314.5z M135,309.2
						c24,12,54.1,16.8,89.5,14.1c19.5-11.4,40.6-21,62.7-28.6c-21.7-14.9-45.4-28-69.2-40.1c-19.5-10-38.8-19.4-59-25.7
						c-17.8,10.7-34.7,23-50.3,36.6c2.7,7.5,5.8,14.4,9.5,20.8C122.7,294.5,128.4,302.2,135,309.2z M289.8,296.6
						c-20.8,7.1-40.6,15.9-59.2,26.3c1.1-0.1,2.3-0.2,3.4-0.3c23.8-2.6,47.2-7.9,69.8-15.6C299.3,303.4,294.6,299.9,289.8,296.6z
						 M81.1,293.9c7.8,6.3,16.3,12.4,25.4,18.3c5.3,3.4,10.7,6.7,16.2,9.8c-1.3-6.5-2.6-12.9-3.9-19.3h0.2
						c-9.6-6.9-17.7-15.2-24.2-24.3C90.1,283,85.4,288.2,81.1,293.9z M292.8,295.5c4.8,3.4,9.4,6.8,13.9,10.4
						c20-7,39.3-15.9,57.6-26.5c-16.4,2.2-32.4,5.3-48,9.2C308.4,290.7,300.6,293,292.8,295.5z M96.6,276.5
						c8,11.4,18.9,21.5,31.7,29.1c-4.7-5.7-8.9-11.7-12.5-18c-3.5-6.3-6.6-13-9.3-20.2c-0.8,0.7-1.6,1.4-2.4,2.2
						C101.7,271.7,99.2,274,96.6,276.5z M508.6,279.7c2.3,0.4,4.6,0.7,7,1.1c13.3,2.2,27.2,5.2,37.4,14.3c1,0.9,1.9,1.8,2.6,2.7
						c5.1-8.3,7.7-16.3,7.8-23.9c0.1-10.5-4.4-20.5-13.3-30c-5.9,6.6-12.8,13.2-20.6,19.7C522.9,269.1,515.9,274.5,508.6,279.7z
						 M489.2,279.6c-2.5,4.9-5.3,9.9-8.5,14.8c7.3-4.2,14.3-8.6,21-13.2C497.6,280.7,493.4,280.1,489.2,279.6z M161.9,227.1
						c19.6,6.3,38.3,15.5,57.2,25.1c24.5,12.5,48.8,26,71,41.4c8.4-2.8,16.9-5.3,25.6-7.6c17.5-4.5,35.6-7.9,54.2-10
						c34.7-21,65.7-48.2,90.7-80.3c-49.5-16.6-102.7-22.5-154.6-16.8C255.3,184.5,205.9,201.2,161.9,227.1z M25.9,230.3
						c7.8,12.5,17,25.7,27.8,37.7c7.5,8.4,16,16.4,25.4,24.2c4.4-5.9,9.3-11.3,14.2-16.1c-10-14.9-15.4-31.8-14.8-48.6
						c0.1-1.9,0.2-3.7,0.4-5.6c-0.4,0-0.7,0.1-1.1,0.1C61.6,223.2,43.5,225.3,25.9,230.3z M490.4,277.1c4.8,0.6,9.6,1.3,14.5,2
						c8-5.6,15.7-11.4,23-17.6c7.8-6.5,14.6-13.1,20.5-19.6c-6.4-6.4-14.9-12.6-25.4-18.5c-6.2-3.5-12.5-6.8-18.9-9.9
						c0.4,10-0.3,20-2.2,29.7C499.7,254.6,495.9,265.8,490.4,277.1z M424.4,272.9c20.6,0,41.7,1.3,63.3,3.9
						c5.6-11.4,9.5-22.7,11.7-34.1c1.9-9.9,2.6-20.2,2.1-30.5c-12.4-5.9-25.2-11.1-38.2-15.6c-24.2,31.2-53.9,57.8-87.3,78.8
						C391.8,273.8,407.9,272.9,424.4,272.9z M81.4,221.8c-0.2,1.9-0.4,3.9-0.4,5.9c-0.6,16,4.6,32.3,14.1,46.6
						c2.5-2.4,4.9-4.6,7.2-6.7c1.1-1,2.1-1.9,3.2-2.9c-1.8-5.3-3.5-10.9-4.9-16.8c-2.2-8.9-3.7-17.9-4.6-26.8
						C90.9,221.2,86,221.5,81.4,221.8z M98.6,221.1c0.9,8.7,2.4,17.5,4.5,26.3c1.3,5.5,2.8,10.6,4.5,15.6c15-13,31-24.6,47.9-35
						c-6.1-1.8-12.2-3.2-18.5-4.3C124.1,221.4,110.8,220.8,98.6,221.1z M504,210.6c6.9,3.3,13.6,6.9,20.3,10.6
						c10.6,6,19.2,12.3,25.8,18.8c11.7-13.5,19.5-27,23.7-41c8.3-28,2.2-61.3-16.4-89.1c-15.6-23.3-39.7-43.3-71.5-59.5
						c-9.7-4.9-19.7-9.3-30-13.1c3.2,2.7,6.2,5.5,9.2,8.3c20.7,19.8,32.3,40.1,34.7,60.4c1.8,15.6-1.5,31.8-10.3,50
						C497.9,173.6,502.8,192.2,504,210.6z M225.4-30.2c-30.1,0-58.7,3-85.4,8.9C93.7-11,56.6,7.7,29.8,34.1
						c-31.5,31.1-47.3,74.2-41.1,112.5c3.4,21,13,40.7,22.9,59c3.7,6.9,8,14.5,12.9,22.4c18-5.2,36.6-7.4,53.1-8.5
						c0.5,0,1.1-0.1,1.6-0.1c2.3-16.1,9.3-31.1,18-45.1c3.3-21.7,10.6-42.2,21.7-60.1c24.7-40,69.8-69.1,120.7-77.6
						c2.4-0.4,4.8-0.8,7.3-1.1c0.5-0.2,1-0.4,1.5-0.6C310.2,11.8,380,10.5,442.7,30c-40.9-30.5-95.3-49.6-162-57
						C261.7-29.1,243.3-30.2,225.4-30.2z M103.5,218.4c10.9,0,22.6,0.7,34,2.7c7.1,1.2,14.1,3,21,5c44.8-26.8,95.4-44,147.3-49.7
						c52.6-5.8,106.4,0.3,156.6,17.2c3.7-4.8,7.2-9.7,10.6-14.6c5.5-8.1,10-15.7,13.7-23.1c-3.9-8-8.5-15.8-13.8-23.2
						C452.3,103.8,421,79,382.3,61.2C337,40.3,290.6,32.3,247.5,37.9c-19.6,7.5-36.1,16.2-50.2,26.5c-14.5,10.6-26.9,23.4-37.2,34.5
						c-17,18.3-33.1,37.8-47.8,57.9c-4.4,5.9-8.7,12-12.6,18.3c-2.1,14.1-2.6,28.6-1.3,43.3C100.1,218.4,101.8,218.4,103.5,218.4z
						 M96.3,180.7c-7.1,12.1-12.5,24.9-14.5,38.5c4.4-0.3,9.1-0.5,14-0.7C94.7,205.7,94.8,193,96.3,180.7z M465,194.5
						c12.4,4.3,24.5,9.2,36.3,14.8c-1.2-17-5.7-34.1-13.3-50.4c-3.5,6.9-7.8,14-12.9,21.5C471.9,185.2,468.5,189.9,465,194.5z
						 M236,39.8c-48.6,9.2-91.4,37.3-115,75.7c-9.8,16-16.6,34-20.3,53.2c3-4.5,6.2-9,9.4-13.4c14.8-20.2,31-39.7,48-58.1
						c10.3-11.2,22.9-24,37.6-34.8C207.5,53.8,220.7,46.3,236,39.8z M274.7,33.6c35.5,0,72.4,8.5,108.6,25.2
						c39.1,18,70.8,43.1,91.6,72.4c5,7,9.4,14.3,13.1,21.8c7.9-16.9,10.8-32.2,9.1-46.7c-2.3-19.7-13.7-39.5-33.9-58.8
						c-4.6-4.4-9.5-8.6-14.5-12.7c-61.1-20.7-129.6-21.2-191-0.4C263.3,33.8,269,33.6,274.7,33.6z"/>
				</g>
			</g>
		</g>
		<g>
			<g>
				<defs>
					<path id="SVGID_5_" d="M209.7,481.9c60.1,2.1,120.2,2.4,180.3,0.9c14.4-0.4,28.9-0.9,42.7-5c24.2-7.3,44.1-25.4,57.8-46.6
						c13.8-21.2,22.1-45.4,29.4-69.6c20.2-67.5,32.7-142.5,3.5-206.6c-4.1-9.1-9.1-17.9-12.3-27.4c-2.8-8.3-4.2-17-7.5-25
						c-6.3-15.1-18.8-26.5-31.2-37.1c-27.5-23.5-57.4-45.9-92.5-55c-27.5-7.1-56.4-5.6-84.7-4c-35.3,2-70.5,4-105.8,6
						c-12.4,0.7-25.6,1.7-35.2,9.6c-6.8,5.7-35.6,7.9-42.3,13.8C79.7,64,65.8,69.3,43.6,116c-8.5,17.9-32.5,57.3-37,76.6
						c-2.3,10.1-1.4,19.7,0,29.9c1.9,13.9,4.6,93.4,11.3,105.7c21.1,38.3,42.1,56.9,74.3,88C121.8,444.8,168.5,480.5,209.7,481.9z"
						/>
				</defs>
				<clipPath id="SVGID_6_">
					<use xlink:href="#SVGID_5_"  style="overflow:visible;"/>
				</clipPath>
				<g class="st4">
					<path class="st0" d="M427.5,388.3c-3.8,0-7.7-0.3-11.6-1c-20-3.5-37.7-14.5-52.4-24.9c-23.6-16.6-47-36.7-75.9-65.1
						c-36.3-35.5-70.8-73.6-102.5-113.2c-2.6-3.2-5.2-6.5-7.8-9.8l-50.6-21.2l1-2.4l46.3,19.4c-17.2-22.3-33.7-46.4-45.5-73.2
						c-4.3-9.9-17-43.6,3.2-61.5c15.9-14.2,40.4-6.9,50.2-3.2c19.7,7.6,37.3,19.8,53.6,31.6c35,25.4,69,52.6,102.1,80.5l-1.9-25.6
						c-0.8-10.7-1.6-21.7-4.9-32c-2-6.3-4.9-12.4-7.7-18.2l-48.4-101c-2.4-5-2.1-8.9,0.7-10.7l0.3-0.2h0.4
						c22.1-0.4,38.3,19.3,51.2,38.7C366,53.2,406,113,437.7,176.4c11,21.9,24.4,51.2,33.7,84c15.9,13.1,32.4,25.6,49.8,36.6
						c35.9,22.7,71.4,35.6,105.4,38.3l-0.2,2.6c-34.4-2.8-70.2-15.8-106.5-38.7c-16.5-10.4-32.1-22.2-47.2-34.5
						c4.4,16.5,7.8,33.9,9.1,51.7c1.9,24.6-1.9,41.8-11.9,53.9C460.5,381.8,444.6,388.3,427.5,388.3z M182.2,176.5
						c1.6,2.1,3.3,4.1,4.9,6.1c31.7,39.5,66.1,77.5,102.3,112.9c28.8,28.2,52.2,48.2,75.6,64.8c14.4,10.2,31.8,21.1,51.3,24.4
						c20.3,3.5,40.6-2.8,51.5-16.1c9.5-11.6,13.1-28.1,11.3-52.1c-1.4-18.8-5.1-37.3-10-54.7c-13.2-10.9-26-22.2-38.6-33.4
						c-29.4-26-59.3-52.3-89.9-78.2l7.2,95.6L182.2,176.5z M340.4,146.8c31.2,26.4,61.8,53.3,91.8,79.8
						c11.7,10.3,23.5,20.7,35.7,30.9c-9.2-31.1-22-58.9-32.5-79.9C403.8,114.3,363.9,54.5,325.2-3.3c-12.5-18.6-27.9-37.6-48.4-37.6
						c-0.1,0-0.2,0-0.2,0c-2,1.7,0,6.3,0.5,7.2l48.4,101.1c2.9,6,5.8,12.1,7.8,18.6c3.3,10.6,4.2,21.8,5,32.6L340.4,146.8z
						 M178.9,172.3L345,242l-7.1-93.9c-33.7-28.5-68.3-56.2-103.9-82c-16.2-11.7-33.6-23.8-53-31.3c-9.3-3.6-32.6-10.5-47.5,2.7
						c-18.8,16.7-6.7,49-2.5,58.5C143.3,124,160.9,149.1,178.9,172.3z"/>
				</g>
			</g>
		</g>
	</g>
	<g>
		<path class="st5" d="M413.8,142.4c18.8,38.8,13.9,89.3-15.7,120.8c-7.6,8.1-16.6,14.8-25.5,21.5c-5.8,4.4-11.9,8.9-19.1,10.1
			c-5.4,0.9-10.9-0.1-16.2-1.3c-40-8.5-78.6-23.3-114-43.8c-15.7-9.1-31.7-20.2-38.6-37.1c-4.6-11.3-4.6-24-3.4-36.2
			c1.9-18.8,6.4-37.4,13.3-55c5-12.7,13.3-26.4,26.8-28.5c4.7-0.7,9.4,0.1,14.1-0.2c11-0.7,20.6-7.3,30.7-11.8
			c16.9-7.5,25.3,3.5,40.3,2.2c12.7-1.1,15.5-10.6,30.3-7.2C369.1,83.5,399.9,113.7,413.8,142.4z"/>
		<g>
			<path class="st6" d="M338.2,269.2c-6.6,0-11.4-5.2-16-10.7c-6.5,3-14.1,5.5-24,8.4c-14.1,4.1-35.4-3.3-48.3-12.4
				c-1.3-0.9-2.9-2-4.7-3.1c-7.8-5.1-18.6-12.1-21.3-18.8c-0.2-0.5-0.4-1-0.6-1.6c-17.9-12.3-18.5-27.6-19.3-48.2
				c-0.1-3.6-0.3-7.3-0.5-11.3c-0.1-1,0.2-2.2,0.7-3.6c-3-6.5-4.2-13.9-0.9-23.4c8.4-23.8,28.7-51.2,60.1-56.9
				c24.6-4.5,49.5,5.8,69.5,14.1c1.3,0.5,2.5,1.1,3.7,1.6c8.2-3.2,16.8-4.6,24.6-3.6c9,1.1,16.2,5.3,20.9,12.1
				c6.2,9,6.9,21.7,2.2,35.1c5.2,4.2,12.3,8.4,23.3,13l-2,4.8c-10.6-4.4-17.9-8.6-23.3-12.8c-0.4,0.9-0.8,1.8-1.3,2.7
				c5.4,6.3,8.2,13.5,7.9,20.4c-0.1,3.3-1,6.3-2.2,9.2c4.1,3.2,8.1,6.7,11.8,10.3c4.7,4.6,10.3,11,11.5,18.8
				c2.9,18.7-18,31.1-38.6,34.7c-1.7,0.3-4,0.7-6.6,1c-3.9,5.1-8.4,9.8-13.5,14C346.2,267.5,341.9,269.2,338.2,269.2z M327.2,256.5
				c6.5,7.6,11,10.9,20.9,2.7c3.5-2.9,6.7-6,9.6-9.3c-4.9,0.4-10.5,0.5-16.4,0.1C336.9,252.5,332.2,254.6,327.2,256.5z M234.6,237.5
				c4.1,3.5,9.4,6.9,13.5,9.6c1.9,1.2,3.5,2.3,4.9,3.2c9.7,6.8,24.3,12.5,35.9,12.6c-12-1-22.1-5.4-28.9-13
				c-0.8-0.9-1.6-1.9-2.3-2.9c-1.1-0.5-2.2-1-3.2-1.6C247.6,243.3,241,240.7,234.6,237.5z M266.8,249.4c12.5,10.5,30.9,9.2,42.5,6.9
				c-13.3-1.5-26.9-3.5-40.2-6.7C268.4,249.6,267.6,249.5,266.8,249.4z M287.3,248c8,1.4,16.1,2.4,24,3.3l-0.5,4.7
				c2.9-0.6,5.3-1.3,6.9-1.8c0.2-0.1,0.5-0.2,0.7-0.2c-3.7-4.4-7.9-8.7-13.5-11.3c-3.3,1.2-6.6,2.3-10,3.3
				C292.3,246.8,289.8,247.5,287.3,248z M317.4,245.4c2.3,2.2,4.3,4.5,6.1,6.7c2.1-1.1,4.1-2.2,6-3.4
				C325.5,247.9,321.4,246.8,317.4,245.4z M376,213.3c-4.9,12.3-14.1,23.2-26.7,31.7c4.3,0,8.6-0.3,12.8-0.7
				C369.1,234.9,373.8,224.2,376,213.3z M270,244.5c7.9,0.5,16.3-1.3,23.4-3.4c0.9-0.3,1.7-0.5,2.6-0.8c-0.8-0.1-1.6-0.1-2.5-0.1
				c-3.7-0.1-7.8,0.1-12,0.3c-7.3,0.3-15,0.6-22.2-0.1c0.3,0.5,0.6,1.1,1,1.6C263.5,242.9,266.8,243.7,270,244.5z M315.3,238.7
				c6.2,2.9,13.2,4.7,20.5,5.6c5.8-4.6,11.8-10.4,19.5-18.5c5.1-5.4,11.6-12.9,15.5-22c-8.3,7.3-17.2,13.9-26.6,19.8
				c-1.5,2.4-3.1,4.6-4.9,6.7c-2.1,2.5-5,5.4-8.9,6.1c-2.7,0.5-5.2-0.2-7.4-1.2C320.3,236.4,317.8,237.6,315.3,238.7z M382.3,192
				c1.8,17.2-3,35.7-13.2,51.4c0.5-0.1,1-0.2,1.6-0.3c15.2-2.7,36.9-12.6,34.4-28.8c-1-6.3-5.6-11.6-10-15.9
				c-3.4-3.3-6.9-6.5-10.6-9.4C383.7,190,383,191,382.3,192z M365.8,221.6c-2.3,2.9-4.7,5.5-6.8,7.8c-2.6,2.7-5,5.2-7.2,7.4
				C357.5,232.2,362.2,227.1,365.8,221.6z M227.5,227.7c0.9,0.6,2,1.2,3,1.8c4.3,2.5,8.8,4.6,13.4,6.5c-2.9-1.6-5.6-3.6-7.8-6.3
				c-2.9-3.5-4.9-5.3-6.5-6.7c-4.2-3.7-5.1-5.4-5.8-15.6c-0.3-4.2-1.2-8-2.5-11.4C221,205.6,222.8,215.5,227.5,227.7z M292.2,235
				c0.5,0,0.9,0,1.4,0c2.7,0,5.2,0.4,7.4,0.9c-4-3.5-7.4-7.7-10.2-12.9c-0.8-1.5-1.5-3-2.1-4.5c-3.3-1.2-5.7-3.3-6.9-6.2
				c-1.6-4-0.3-8.1,1-11.6c0.6-1.7,1.3-3.4,2-5c-1.5-4.7-2-9.6-1.3-14.8c0-0.1,0-0.3,0.1-0.4l-1.8,0.3l0.2-3.2
				c0.1-0.9,0.1-1.9,0.2-2.9c-1.1-3.6-1.8-7.3-1.9-10.8c-0.1-3.6,0.3-7.2,1.1-10.7c-0.7-3.8-1.7-7.4-3.3-10.6
				c-14.1,11.6-26.2,26.9-32.1,43.8c0.3,11.6,2.7,24.5,7.1,38.7c1.1,3.5,2.2,6.7,3.4,9.6c7.7,1.3,16.5,0.9,24.7,0.6
				C285.1,235.1,288.8,235,292.2,235z M295,219.6c0.2,0.3,0.3,0.6,0.5,1c3.3,6.3,8.1,11.2,13.9,14.9c2.7-1.1,5.5-2.3,8.1-3.5
				c-5.4-3.8-11-8-16-12.7c-1,0.1-2,0.2-3,0.3C297.3,219.7,296.1,219.7,295,219.6z M248.3,232.4c0.7,0.3,1.4,0.6,2.2,0.8
				c-0.8-2.2-1.5-4.4-2.2-6.6c-2.6-8.3-4.5-16.2-5.7-23.7c-0.5,6.4,0,12.9,1.7,19.5C245.3,226.3,246.6,229.6,248.3,232.4z
				 M308.2,218.3c4,3.5,8.3,6.7,12.5,9.6c0.8,0.5,1.5,1.1,2.3,1.5c5.9-2.9,11.7-6.1,17.4-9.6c4.1-6.9,6.9-14.6,8-22.5
				C337.3,207.9,323.3,215.3,308.2,218.3z M222.4,186.7c3.4,5.7,6.1,12.3,6.6,20.6c0.6,9,1,9.4,4,12c1.6,1.5,3.9,3.4,6.9,7.1
				c-0.3-0.9-0.5-1.7-0.8-2.6c-3.4-13-2.4-26,1.6-38.1c-0.2-9.9,1-18.9,3.7-27.2c3.3-10.4,9.8-20.7,18.5-28.3
				c-2.7-0.7-5.7-1.1-9.1-1.2c-1.5,0-2.9-0.1-4.1-0.1c-5.1,6.4-9.3,13.7-12.6,20.3C230,163.7,224.6,175.2,222.4,186.7z M208.9,176
				c0.1,2.3,0.2,4.5,0.3,6.7c0.7,17.3,1.1,29.2,10.8,39c-4-12.9-4.7-23.6-3-34c-1.6-2.6-3.4-5.1-5.1-7.5
				C210.8,178.8,209.8,177.4,208.9,176z M292.8,214.2c1.4,0.2,2.7,0.3,3.9,0.3c-1.9-2.1-3.7-4.2-5.3-6.5
				C291.6,210,292.1,212.1,292.8,214.2z M354.1,191.3c-0.3,7.9-2,15.7-5,22.9c7.2-4.9,14-10.4,20.5-16.2c1.3-1.2,2.7-2.5,4-3.9
				c0.2-1.3,0.3-2.6,0.4-3.9l-2.1,0.1c-5.3,0.2-10.6-0.3-15.9-1.2C355.3,189.8,354.7,190.5,354.1,191.3z M290.8,196.6
				c2.6,6.3,7.1,12,12.5,17.3c17.3-2.5,33.8-11.6,45.6-24.7c0-0.2,0-0.4,0-0.6c-1.7,0.9-3.4,1.6-5.1,2.3c-0.3,0.8-0.7,1.7-1.1,2.5
				l-2.6-1.1c-4,1.3-8.1,2-12.4,2.3c-0.9,0.4-1.8,0.8-2.7,1.2c-6.5,2.6-13,3.4-18.8,2.3c-5.4-1-10-3.5-13.7-6.9
				c-0.6,1.2-1.1,2.4-1.6,3.6C290.9,195.3,290.8,195.9,290.8,196.6z M295,186.1c3.3,3.4,7.5,5.8,12.2,6.7c2.3,0.4,4.7,0.5,7.2,0.2
				c-2.8-0.9-5.2-2.2-7.1-3.9c-3.4-2.9-5.4-6.7-6-11.2l-1.6,0.2C298.1,180.7,296.5,183.3,295,186.1z M306.5,177.3
				c0.4,3.2,1.8,5.9,4.2,8c2.8,2.4,6.8,3.7,12.1,4c1.2,0.1,2.4,0.1,3.6,0.1c0.2-0.1,0.4-0.2,0.6-0.3c-3.2-0.2-6.3-1.1-8.8-2.6
				c-3.3-1.9-5.4-4.7-6.3-8.1c-0.2-0.6-0.2-1.2-0.3-1.8L306.5,177.3z M339.2,186.6c-0.3,0.3-0.6,0.5-0.9,0.8c0.5-0.2,1-0.3,1.5-0.5
				c0.1-0.2,0.2-0.5,0.2-0.7C339.8,186.3,339.5,186.5,339.2,186.6z M359.3,184.4c3,0.4,6,0.7,9,0.8c-0.9-2.9-1.9-5.7-3-8.5
				c0,0-0.1,0-0.1-0.1c-0.8,0.8-1.7,1.6-2.5,2.4C361.6,180.8,360.5,182.6,359.3,184.4z M316.8,175.9c0,0.4,0.1,0.9,0.2,1.3
				c0.5,2,1.8,3.6,3.8,4.8c3.3,2,8.2,2.5,12.5,1.3c0.9-0.2,1.8-0.6,2.6-0.9c-4.3-2.1-8.4-4.6-12.2-7.5L316.8,175.9z M379.6,179.2
				c1,0.7,1.9,1.3,2.9,2c0.8-2,1.2-4.1,1.3-6.3c0.2-5-1.7-10.4-5.4-15.3c-1.3,2.2-2.7,4.3-4.2,6.5c0.4,0.9,0.8,1.9,1.1,2.8
				c1.1,2.1,2.1,4.2,2.9,6.4C378.8,176.6,379.2,177.9,379.6,179.2z M209.8,167.9c1.7,3.1,3.9,6.1,6.2,9.3c0.8,1.1,1.6,2.3,2.5,3.4
				c2.8-10.4,7.7-21.1,14-33.9c2.9-5.9,6.4-12.2,10.7-18c-4.9,0.2-6.3,1.2-10.1,3.8c-2.4,1.6-5.8,3.9-11.2,6.9
				c-0.9,0.6-1.6,5.2-2,7.4c-0.4,2.9-0.9,5.7-1.9,7.5c-0.4,0.7-1.1,1.8-1.9,3.1C214.8,159.3,211.6,164.3,209.8,167.9z M352.6,175
				l0.6,3.9c0,0.3,0.1,0.5,0.1,0.8c1.8-1.3,3.5-2.6,5.1-4.1c0.4-0.6,0.7-1.3,1-2c-1.7-0.8-3.4-1.5-5.1-2.3c-0.7,1.3-1.5,2.6-2.3,3.9
				L352.6,175z M331.3,173.9c2.7,1.7,5.5,3.2,8.3,4.6c0.6-0.7,1.2-1.5,1.7-2.3c0-1.2-0.1-2.4-0.3-3.6L331.3,173.9z M307.4,168.7
				c-0.3,1.1-0.6,2.3-0.8,3.3l5.7-0.8c0.5-1.6,1.4-3.1,2.4-4.4c-0.8-0.9-1.6-1.8-2.4-2.7c-1,0.8-1.9,1.6-2.9,2.5
				C308.8,167.3,308.1,168,307.4,168.7z M268.6,132.3c-9.1,7.2-15.9,17.5-19.1,27.7c-1.2,3.8-2.1,7.9-2.7,12.1
				c7-13,17.2-24.6,28.6-33.9c-1.7-2.2-3.8-4.1-6.3-5.6C268.9,132.4,268.7,132.4,268.6,132.3z M304.2,162.5c-2.4,2.9-4.5,6-6.3,9.3
				c1.6-2.1,3.2-4,4.9-5.8C303.2,164.8,303.7,163.6,304.2,162.5z M322.3,167c1,0.9,1.9,1.7,2.9,2.5l17.1-2.4c0,0,0,0-0.1,0
				c-5.4-1.6-11.8-3.1-17.3-1.3C324,166,323.1,166.5,322.3,167z M286.7,153.3c0.8,5.2,1,10.7,0.9,16.1c2.3-3.8,5.4-7.2,9.3-10.1
				c2-1.5,4.3-2.9,6.7-4.1c0.6-0.6,1.3-1.3,1.9-1.9c-1.3-3.1-2-6.2-2.1-9.3c-0.3-6,1.4-11.5,4.2-16.3
				C297.4,132.3,289.6,142.1,286.7,153.3z M356.5,166.7c1.8,0.7,3.5,1.5,5.2,2.3c0-0.1,0.1-0.2,0.1-0.3c-1.2-2.4-2.5-4.9-3.9-7.2
				C357.6,163.3,357.1,165,356.5,166.7z M345.4,168.1l0.1,0.3c0-0.1,0.1-0.2,0.1-0.3C345.6,168.1,345.5,168.1,345.4,168.1z
				 M316.5,161.1c0.6,0.7,1.2,1.4,1.9,2.1c1.5-1.1,3.2-1.9,4.9-2.5c6.9-2.2,14.2-0.6,20.4,1.3c1.2,0.3,2.3,0.7,3.5,1.1
				c0.7-2.7,0.6-4.5-0.1-5.7c-1.1-1.9-4.1-2.6-6.6-2.9c-1.4-0.2-2.8-0.4-4.2-0.5C329.6,154.7,322.8,157.1,316.5,161.1z M275.8,91.7
				c-3.8,0-7.6,0.3-11.4,1c-24.1,4.4-46.2,25.4-56.2,53.6c-2.2,6.1-2.2,11-0.9,15.5c1.2-2.1,2.7-4.5,4.4-7.2
				c0.8-1.2,1.4-2.2,1.8-2.9c0.6-0.9,0.9-3.5,1.3-5.7c0.7-4.6,1.4-9.4,4.6-11.2c5.3-2.9,8.5-5.1,10.8-6.7c5.6-3.8,7.6-4.8,17.1-4.7
				c8.6-10.1,19.6-18.1,33.2-19.2c7.9-0.6,16.3,1.1,26.5,5.4c3.7,1.6,7.4,3.4,11,5.4c0.5-0.5,1-0.9,1.6-1.4
				c3.3-2.9,6.9-5.3,10.8-7.4C314.3,99.6,295,91.7,275.8,91.7z M369.5,156.8c0.7,1.3,1.4,2.6,2.1,3.9c1.1-1.7,2.2-3.4,3.1-5.1
				c-0.1-0.1-0.2-0.2-0.3-0.2c-1.8-1.7-3.8-3.3-5.9-4.6C369.2,152.7,369.5,154.7,369.5,156.8z M352.4,156.7c0.4,1.3,0.5,2.5,0.5,3.8
				c0.2-1.1,0.4-2.2,0.5-3.3C353,157,352.7,156.8,352.4,156.7z M313.7,156.7c0,0.1-0.1,0.1-0.1,0.2c0.1-0.1,0.3-0.2,0.4-0.2
				C313.9,156.6,313.8,156.7,313.7,156.7z M364,142.4c4.8,2.1,9.3,4.8,13.3,8.3c0.3-0.7,0.7-1.5,1-2.3c-5.1-4.7-8.1-9.3-11.1-13.8
				c-5.6-8.5-10.8-16.6-30.5-25.7c-4.8,2.1-9.3,4.9-13.3,8.2c3.7,0.1,7.2,0.8,10.5,2c8.9,3.3,15.7,10.4,21.3,17.3
				C358.5,137.8,361.5,139.8,364,142.4z M339.5,148.8c2.9,0,5.8,0.3,8.6,1c0.8,0.2,1.6,0.4,2.4,0.7c-1.8-2.4-3.7-4.7-5.7-7
				c-7.3-0.3-14.7,1.1-21.5,4.1c-0.9,0.7-1.8,1.4-2.7,2.2c5.1-0.9,10.4-1.2,15.7-0.8C337.3,148.8,338.4,148.8,339.5,148.8z
				 M314.3,126.9c-3.5,4.9-6,10.6-5.7,16.9c0.1,2,0.5,4,1.2,5.9c3.3-2.5,6.8-4.7,10.6-6.5c0.1,0,0.2-0.1,0.3-0.1
				c4.3-3.1,8.6-5.4,12.8-6.9c-3.8-2.2-7.9-4.3-12.3-6.3C319,128.9,316.7,127.8,314.3,126.9z M282.3,139.3c0.9,1.6,1.6,3.3,2.2,5
				c2.1-4.4,4.8-8.5,8.1-12C289.1,134.4,285.7,136.7,282.3,139.3z M343.4,106.6c17.3,8.9,22.8,17.2,28.1,25.3
				c2.5,3.8,4.9,7.5,8.6,11.3c2.6-8.4,3.9-19.4-2.2-28.3c-3.9-5.6-9.7-9-17.3-9.9C355.3,104.2,349.3,104.8,343.4,106.6z M273.2,129
				c2.5,1.7,4.6,3.7,6.3,5.9c3.5-2.7,7.2-5.1,10.8-7.3c3.1-1.9,6.2-3.5,9.1-4.8c-1-0.1-2.1-0.2-3.1-0.3
				C287.9,122.2,280,124.7,273.2,129z M339.2,130.4c1.4,1.3,2.8,2.6,4.1,3.9c0.3,0,0.7,0,1,0C342.7,132.8,341,131.5,339.2,130.4z
				 M323.1,125.1c0.1,0.1,0.2,0.1,0.3,0.2c1,0.5,1.9,0.9,2.9,1.4c-0.7-0.5-1.3-0.9-2-1.4C323.9,125.1,323.5,125.1,323.1,125.1z
				 M254.1,123.6c5.3,0.2,9.8,1,13.7,2.6c8.2-5.8,18-9.3,28.7-8.8c4,0.2,8,0.9,11.8,2c1.5-0.5,3-0.9,4.5-1.2
				c-2.6-1.4-5.2-2.6-7.9-3.8c-9.4-4-17-5.6-24.1-5C270.3,110.3,261.4,116,254.1,123.6z"/>
		</g>
	</g>
</g>
</svg>
