<?xml version="1.0" encoding="utf-8"?>
<!-- Generator: Adobe Illustrator 19.2.1, SVG Export Plug-In . SVG Version: 6.00 Build 0)  -->
<svg version="1.1" id="Layer_1" xmlns="http://www.w3.org/2000/svg" xmlns:xlink="http://www.w3.org/1999/xlink" x="0px" y="0px"
	 viewBox="0 0 608.993 595.528" enable-background="new 0 0 608.993 595.528" xml:space="preserve">
<path id="parede" fill="#56B150" d="M543.181,193.72c-6.118-31.648-14.202-56.592-25.435-78.499
	c-3.639-7.095-5.484-13.365-9.884-19.927c-0.282-0.419-0.392-0.874-0.446-1.347c-0.19-1.629,0.062-4.273,0.443-5.868
	c0.524-2.194,1.083-4.451,1.636-6.471c4.018-14.69,10.485-52.384,10.51-52.452c0-0.002,0.001,0,0,0
	c-0.012,0.003-14.185-14.105-16.223-13.527c-8.713,2.472-32.467,16.261-40.742,19.21c-0.743,0.387-1.82,0.8-3.045,1.383
	c-0.693,0.33-2.005,0.687-3.191,0.97c-1.526,0.366-3.119,0.386-4.652,0.051l0,0l-1.098-0.366c0,0-0.83,0.075-3.211-1.469
	c-11.904-7.72-17.173-9.109-30.368-14.23C368.601,2.215,317.34,2.576,264.743,4.722C236.659,5.868,211.34,7.5,185.869,15.883h0.001
	c-6.949,2.287-13.596,4.945-19.951,7.981c-2.118,1.012-1.954,2.658-5.968,2.399c-2.944-0.19-7.505-2.37-10.664-2.37
	C138.232,23.894,94.4,0.005,94.392,0l0,0C94.386,0.005,65.267,22.951,65.54,24.859c1.386,9.704,17.155,33.958,28.861,46.441
	c3.782,4.032,6.462,8.981,7.607,14.388c0.334,1.579,0.566,1.284,0.538,2.026c0,0,0.16,2.481,0.157,2.558
	c-0.184,5.123,0.249,9.239-2.133,13.778c-15.541,29.625-25.049,63.273-33.523,93.253c-5.32,18.824-9.511,36.744-12.571,53.835
	c-0.612,3.419-2.103,4.878-2.103,4.878s-2.121,2.991-4.128,4.097c-3.077,1.695-0.753,0.69-4.583,2.26
	c-2.028,0.832-1.092,0.215-3.735,1.037l0,0C31.674,271.128,0.118,280.013,0,280.046c0,0.002,0,0.002,0,0.005v29.309
	c0.002,0.002,0.003,0.003,0.003,0.005l20.712,5.272l0,0c22.503,7.946,17.828,7.408,28.739,11.024
	c1.002,0.702,1.698,1.433,1.772,2.138c3.253,30.993,19.442,57.148,30.289,82.698c3.678,8.663,8.775,17.691,13.371,26.366
	c4.392,8.288,4.8,16.223,9.433,24.51c0.927,1.657,1.861,3.309,2.801,4.955c0,0.002,0,0.002,0,0.003
	c-2.619,15.267-24.971,56.36-24.977,56.372l0,0c0.009,0.008,28.867,23.595,29.816,23.454c7.303-1.086,27.969-13.102,36.316-22.976
	c2.579-3.052,5.745-6.058,8.853-3.547c0.021,0.017,2.174,1.395,2.195,1.412l0,0c4.743,3.753,5.424,7.828,10.48,11.265
	c30.335,20.614,65.848,35.807,101.202,49.166c24.945,9.422,50.968,14.052,76.389,14.052c27.731-0.002,54.742-5.511,78.832-16.318
	c2.409-1.08,4.788-2.215,7.137-3.4c1.321-0.667,3.165-0.61,4.526-0.434c1.098,0.143,2.203,0.214,3.307,0.139
	c0.344-0.024,0.744-0.047,1.178-0.069c3.515-0.179,6.968-0.945,10.308-2.052c0.565-0.187,1.115-0.333,1.596-0.402
	c0.173-0.005,0.333-0.008,0.506-0.012c12.698,1.003,32.775,22.217,41.396,22.548c1.654,0.063,10.384-20.297,10.39-20.297l0,0
	c0,0,1.727-2.519,1.727-2.521l0,0c-7.708-23.937-11.884-26.327-11.417-31.743c0.267-3.092-0.402-6.2-2.219-8.716
	c-2.876-3.981-4.219-10.659-3.312-12.463c1.097-2.179-1.644,2.031,0,0c2.536-3.913,5.004-7.966,7.402-12.157
	c9.597-16.769,18.114-35.784,25.628-57.162c10.866-30.912,18.462-61.439,23.127-93.651c0.402-2.787,1.183-4.089,1.91-6.399
	c0.127-0.206-0.127,0.206,0,0c8.231-7.756,47.492,1.178,57.88-3.39c1.666-0.732,1.693-30.878,1.695-30.878l0,0
	c-0.006-0.003-51.171-18.352-55.504-24.882l0,0c-1.153-2.177-2.51-3.733-2.747-6.542
	C550.858,252.178,549.399,225.894,543.181,193.72z"/>
</svg>
