<?xml version="1.0" encoding="utf-8"?>
<!-- Generator: Adobe Illustrator 19.2.1, SVG Export Plug-In . SVG Version: 6.00 Build 0)  -->
<svg version="1.1" id="Layer_1" xmlns="http://www.w3.org/2000/svg" xmlns:xlink="http://www.w3.org/1999/xlink" x="0px" y="0px"
	 viewBox="0 0 469.4 552.6" enable-background="new 0 0 469.4 552.6" xml:space="preserve">
<g>
	<path fill="#DBDBDB" d="M469.3,247.1c1.1-75.1-26.5-150.4-72.1-196.3C364,17.3,322-0.3,275.8,0l-0.5,0c-6.3,0.2-12.9,0.8-19.5,1.8
		c-5.5,0.8-11.1,1.8-16.7,3C233.3,6.1,228,7.6,223,9.3c-11.6,2.9-21.9,9.9-31.6,21.5l-0.8,1l-0.6,1.1
		c-11.1,18.9-21.2,31.5-32.7,40.5c-8.7,5.2-18.7,9.1-29.3,13.1c-19.2,7.4-39,15-54.6,32.1l-0.8,0.9c-4.1,5.2-8.2,10.9-12.5,17.2
		c-3.9,5.8-7.7,11.9-11.3,18c-12.4,21.1-22.7,43.3-30.4,65.9c-2.5,7.3-4.8,14.8-6.8,22.2l-0.3,1.5c-1,5.8-2.9,11.8-4.9,18
		c-4.9,15.4-10.5,32.9-2,51.9c13.7,34.3,22.7,67,32.2,101.7c3,11.1,6.2,22.5,9.5,34.2c2.6,14.7,12.9,24.5,21.3,32.4
		c1.1,1,2.1,2,3.2,3l0.6,0.6l0.7,0.5c5.1,3.9,10.5,7.6,16.1,10.9c11.1,6.5,22.9,11.7,35.3,15.4c6,1.8,12.2,3.3,18.7,4.4
		c8.7,1.5,17.5,8.2,26.7,15.3c15.3,11.8,36.2,27.8,62,15.5c41.9-19.1,66.8-55.5,90.8-90.7c10-14.7,19.5-28.5,30-41.1l0.7-0.8
		c1.6-2.2,3.5-4.6,5.8-7.6c6.9-6.3,14.1-12.5,21.7-19.1C421.4,352.7,468.7,311.8,469.3,247.1z"/>
	<g>
		<defs>
			<path id="XMLID_6_" d="M325,387.1c-31.8,37.8-52.8,89-99.9,110.4c-25.4,12.3-42.6-23.2-68.8-27.7c-4.9-0.9-9.8-2-14.5-3.5
				c-9.5-2.9-18.8-6.8-27.6-12c-4.4-2.6-8.6-5.4-12.6-8.5c-7.3-7.1-16-14-17.4-23.9c-11.9-41.5-20.6-79.3-36.8-119.7
				c-7.9-17.4,3.7-34.1,6.8-53c1.7-6.1,3.5-12.2,5.6-18.3c6.3-18.4,14.7-36.7,25.2-54.5c3-5.1,6.1-10.1,9.3-14.9
				c3.3-4.8,6.6-9.5,10.2-14.1c18.6-20.3,47.6-23.2,70.3-37.1c13.3-10.3,23.4-24.4,32.1-39.2c6.1-7.3,12.8-12.5,20.8-14.3
				c4.3-1.5,8.7-2.7,13.2-3.7c4.5-1,8.9-1.8,13.4-2.4c5.2-0.7,10.3-1.2,15.5-1.4c102.9-0.6,155.1,108.2,153.8,200
				c-0.5,59.6-53.4,93.9-92.7,130C329,381.9,326.9,384.5,325,387.1z"/>
		</defs>
		<use xlink:href="#XMLID_6_"  overflow="visible" fill="#FAFAFA"/>
		<clipPath id="XMLID_2_">
			<use xlink:href="#XMLID_6_"  overflow="visible"/>
		</clipPath>
	</g>
</g>
</svg>
