<svg id="Camada_1" data-name="Camada 1" xmlns="http://www.w3.org/2000/svg" viewBox="0 0 1366 768"><title>resp_celular</title><g id="Glicose"><g id="Ligacies"><rect x="917.576" y="315.647" width="10" height="95.617" transform="translate(1759.114 895.855) rotate(-169.028)" fill="#4b4b4b"/><rect x="946.174" y="305.622" width="10" height="77.86" transform="translate(138.669 947.282) rotate(-56.481)" fill="#4b4b4b"/><rect x="987.174" y="189.622" width="10" height="77.86" transform="translate(1204.729 1224.275) rotate(-115.022)" fill="#4b4b4b"/><rect x="813.174" y="266.622" width="10" height="77.86" transform="translate(1582.874 727.457) rotate(-171.592)" fill="#4b4b4b"/><rect x="578.332" y="513.938" width="10" height="95.617" transform="translate(1166.665 1123.492) rotate(180)" fill="#4b4b4b"/><rect x="544.332" y="573.938" width="10" height="95.617" transform="translate(124.429 1334.341) rotate(-107.732)" fill="#4b4b4b"/><rect x="781.332" y="495.938" width="10" height="95.617" transform="translate(1741.628 506.471) rotate(143.102)" fill="#4b4b4b"/><rect x="737.332" y="477.938" width="10" height="95.617" transform="translate(1221.887 1298.724) rotate(-157.123)" fill="#4b4b4b"/><rect x="813.332" y="573.938" width="10" height="95.617" transform="translate(1718.989 1116.776) rotate(171.568)" fill="#4b4b4b"/><rect x="447.762" y="339.508" width="10" height="116.476" transform="translate(850.508 -55.016) rotate(90)" fill="#4b4b4b"/><rect x="360.36" y="370.794" width="10" height="94.762" transform="translate(185.89 943.673) rotate(-120)" fill="#4b4b4b"/><rect x="549.332" y="179.938" width="10" height="95.617" transform="translate(1045.951 -114.985) rotate(122.783)" fill="#4b4b4b"/><rect x="485.293" y="141.965" width="10" height="79.835" transform="translate(985.93 15.112) rotate(141.05)" fill="#4b4b4b"/><rect x="559" y="236" width="10" height="166" transform="translate(235.062 -239.262) rotate(30)" fill="#4b4b4b"/><rect x="553" y="379" width="10" height="166" transform="translate(1272.242 583.104) rotate(150)" fill="#4b4b4b"/><rect x="500.891" y="382.522" width="10" height="106.194" transform="matrix(-0.948, -0.319, 0.319, -0.948, 846.487, 1009.8)" fill="#4b4b4b"/><rect x="670" y="424" width="10" height="166" transform="matrix(-0.147, -0.989, 0.989, -0.147, 272.458, 1249.047)" fill="#4b4b4b"/><rect x="604.761" y="443.607" width="10" height="63.31" transform="translate(926.33 1180.575) rotate(-152.106)" fill="#4b4b4b"/><rect x="781" y="333" width="10" height="166" transform="translate(1348.451 1104.84) rotate(-157.123)" fill="#4b4b4b"/><rect x="767.595" y="233.336" width="10" height="144.518" transform="translate(1534.99 -24.624) rotate(135)" fill="#4b4b4b"/><rect x="869.595" y="267.336" width="10" height="144.518" transform="translate(666.916 1254.532) rotate(-98.432)" fill="#4b4b4b"/><rect x="935.816" y="241.725" width="10" height="99.353" transform="translate(1694.344 925.629) rotate(-157.123)" fill="#4b4b4b"/><rect x="655.595" y="181.336" width="10" height="144.518" transform="translate(914.19 -407) rotate(90)" fill="#4b4b4b"/><rect x="619.901" y="200.622" width="10" height="50.077" transform="translate(196.551 -282.218) rotate(30)" fill="#4b4b4b"/></g><g id="Oxigenios"><circle cx="513" cy="206" r="28" fill="#1dd1a1"/><circle cx="724" cy="254" r="28" fill="#1dd1a1"/><circle cx="403" cy="400" r="28" fill="#1dd1a1"/><circle cx="582" cy="610" r="28" fill="#1dd1a1"/><circle cx="814" cy="582" r="28" fill="#1dd1a1"/><circle cx="955" cy="248" r="28" fill="#1dd1a1"/></g><g id="Hidrogenios"><circle cx="636" cy="206" r="14" fill="#e056fd"/><circle cx="1027" cy="212" r="14" fill="#e056fd"/><circle cx="983" cy="366" r="14" fill="#e056fd"/><circle cx="913" cy="407" r="14" fill="#e056fd"/><circle cx="823" cy="268" r="14" fill="#e056fd"/><circle cx="724" cy="570" r="14" fill="#e056fd"/><circle cx="624" cy="448" r="14" fill="#e056fd"/><circle cx="492" cy="482" r="14" fill="#e056fd"/><circle cx="323" cy="442" r="14" fill="#e056fd"/><circle cx="465" cy="151" r="14" fill="#e056fd"/><circle cx="506" cy="638" r="14" fill="#e056fd"/></g><g id="Carbonos"><circle cx="602" cy="254" r="34" fill="#7158e2"/><circle cx="809" cy="345" r="34" fill="#7158e2"/><circle cx="752" cy="494" r="34" fill="#7158e2"/><circle cx="513" cy="400" r="34" fill="#7158e2"/><circle cx="927" cy="332" r="34" fill="#7158e2"/><circle cx="588" cy="516" r="34" fill="#7158e2"/><circle cx="823" cy="663" r="14" fill="#e056fd"/></g></g></svg>