<svg id="Camada_1" data-name="Camada 1" xmlns="http://www.w3.org/2000/svg" viewBox="0 0 1060 768"><title>resp_celular</title><polygon points="913.063 454.123 912.724 444.12 1008.278 441.009 1008.617 451.011 913.063 454.123" fill="#4b4b4b"/><path d="M1002.123,433.568a14.015,14.015,0,1,1-10.516,16.773A14.02,14.02,0,0,1,1002.123,433.568Z" fill="#e056fd"/><polygon points="940.237 210.458 949.535 214.163 895.905 348.326 886.606 344.621 940.237 210.458" fill="#4b4b4b"/><polygon points="957.101 217.954 966.4 221.659 912.769 355.822 903.471 352.117 957.101 217.954" fill="#4b4b4b"/><polygon points="925.12 452.241 915.406 454.652 890.846 355.142 900.56 352.731 925.12 452.241" fill="#4b4b4b"/><polygon points="796.336 252.672 789.488 259.964 895.037 358.767 901.885 351.475 796.336 252.672" fill="#4b4b4b"/><rect x="670.006" y="177.924" width="10.011" height="95.582" transform="translate(71.258 -151.206) rotate(13.487)" fill="#4b4b4b"/><polygon points="598.862 238.826 603.195 229.815 673.466 263.498 669.133 272.508 598.862 238.826" fill="#4b4b4b"/><rect x="731.032" y="201.709" width="9.995" height="144.686" transform="translate(495.063 1021.567) rotate(-92.555)" fill="#4b4b4b"/><rect x="782.467" y="255.101" width="10.011" height="144.46" transform="translate(246.479 -331.899) rotate(28.055)" fill="#4b4b4b"/><rect x="766.528" y="245.789" width="10.011" height="144.46" transform="translate(240.227 -325.497) rotate(28.055)" fill="#4b4b4b"/><polygon points="665.325 263.036 674.24 267.584 630.681 352.69 621.766 348.141 665.325 263.036" fill="#4b4b4b"/><path d="M980.435,224.581a28.031,28.031,0,1,1-21.9-32.994A28.031,28.031,0,0,1,980.435,224.581Z" fill="#1dd1a1"/><path d="M895.319,458.719a28.028,28.028,0,1,1,37.02,14.043A28.042,28.042,0,0,1,895.319,458.719Z" fill="#1dd1a1"/><ellipse cx="746.174" cy="383.499" rx="27.987" ry="28.033" transform="translate(153.093 976.881) rotate(-72.216)" fill="#1dd1a1"/><path d="M587.775,236.2a14.016,14.016,0,1,1,15.8,11.945A14,14,0,0,1,587.775,236.2Z" fill="#e056fd"/><ellipse cx="686.518" cy="182.656" rx="13.994" ry="14.016" transform="translate(473.708 860.433) rotate(-87.468)" fill="#e056fd"/><path d="M640.172,350.908a14.015,14.015,0,1,1-9.581-17.325A14.02,14.02,0,0,1,640.172,350.908Z" fill="#e056fd"/><path d="M873.568,326.78a34.016,34.016,0,1,0,48-3.683A33.947,33.947,0,0,0,873.568,326.78Z" fill="#7158e2"/><ellipse cx="667.092" cy="271.925" rx="34.04" ry="33.985" fill="#7158e2"/><ellipse cx="806.254" cy="270.925" rx="34.04" ry="33.985" fill="#7158e2"/><polygon points="439.063 638.123 438.724 628.12 534.278 625.009 534.617 635.011 439.063 638.123" fill="#4b4b4b"/><path d="M528.123,617.568a14.015,14.015,0,1,1-10.516,16.773A14.02,14.02,0,0,1,528.123,617.568Z" fill="#e056fd"/><polygon points="466.237 394.458 475.535 398.163 421.905 532.326 412.606 528.621 466.237 394.458" fill="#4b4b4b"/><polygon points="483.101 401.954 492.4 405.659 438.769 539.822 429.471 536.117 483.101 401.954" fill="#4b4b4b"/><polygon points="451.12 636.241 441.406 638.652 416.846 539.142 426.56 536.731 451.12 636.241" fill="#4b4b4b"/><polygon points="322.336 436.672 315.488 443.964 421.037 542.767 427.885 535.475 322.336 436.672" fill="#4b4b4b"/><rect x="196.006" y="361.924" width="10.011" height="95.582" transform="translate(101.1 -35.582) rotate(13.487)" fill="#4b4b4b"/><polygon points="124.862 422.826 129.195 413.815 199.466 447.498 195.133 456.508 124.862 422.826" fill="#4b4b4b"/><rect x="257.032" y="385.709" width="9.995" height="144.686" transform="translate(-183.885 740.24) rotate(-92.555)" fill="#4b4b4b"/><rect x="308.467" y="439.101" width="10.011" height="144.46" transform="translate(277.321 -87.349) rotate(28.055)" fill="#4b4b4b"/><rect x="292.528" y="429.789" width="10.011" height="144.46" transform="translate(271.069 -80.947) rotate(28.055)" fill="#4b4b4b"/><polygon points="191.325 447.036 200.24 451.584 156.681 536.69 147.766 532.141 191.325 447.036" fill="#4b4b4b"/><path d="M506.435,408.581a28.031,28.031,0,1,1-21.9-32.994A28.031,28.031,0,0,1,506.435,408.581Z" fill="#1dd1a1"/><path d="M421.319,642.719a28.028,28.028,0,1,1,37.02,14.043A28.042,28.042,0,0,1,421.319,642.719Z" fill="#1dd1a1"/><ellipse cx="272.174" cy="567.499" rx="27.987" ry="28.033" transform="translate(-351.337 653.332) rotate(-72.216)" fill="#1dd1a1"/><path d="M113.775,420.2a14.016,14.016,0,1,1,15.8,11.945A14,14,0,0,1,113.775,420.2Z" fill="#e056fd"/><ellipse cx="212.518" cy="366.656" rx="13.994" ry="14.016" transform="translate(-163.17 562.766) rotate(-87.468)" fill="#e056fd"/><path d="M166.172,534.908a14.015,14.015,0,1,1-9.581-17.325A14.02,14.02,0,0,1,166.172,534.908Z" fill="#e056fd"/><path d="M399.568,510.78a34.016,34.016,0,1,0,48-3.683A33.947,33.947,0,0,0,399.568,510.78Z" fill="#7158e2"/><ellipse cx="193.092" cy="455.925" rx="34.04" ry="33.985" fill="#7158e2"/><ellipse cx="332.254" cy="454.925" rx="34.04" ry="33.985" fill="#7158e2"/></svg>