<?xml version="1.0" encoding="utf-8"?>
<!-- Generator: Adobe Illustrator 19.2.1, SVG Export Plug-In . SVG Version: 6.00 Build 0)  -->
<svg version="1.1" id="Layer_1" xmlns="http://www.w3.org/2000/svg" xmlns:xlink="http://www.w3.org/1999/xlink" x="0px" y="0px"
	 viewBox="0 0 562.3 594.1" enable-background="new 0 0 562.3 594.1" xml:space="preserve">
<g>
	<path fill="#A6D8DA" d="M178.2,119.9c-9.4,4.6-18.9,9.2-26.7,15.7c-29.3,24.5-35.2,71-67.9,93.5c-2,1.6-3.7,1.5-5.5,1.3
		c-5.4-0.5-4.7-7.7-4.4-11.2c7.6-24.6,18.8-49,33.4-71.2c3.9-3.3,6.3-10.3,5-15.8c-3.3-3.9-8.5-6.2-14-4.9
		c-5.5,1.3-9.4,4.6-11.7,9.8c-31.9,33.4-60.9,76-59.7,123.1c-0.2,1.8-0.2,1.8-0.3,3.6l-1.8-0.2c-9-0.8-17.5-7-20.4-14.5
		c-2.8-9.3-4-16.6-1.4-25.4c1.3-14.4,4.2-26.8,8.9-39c8.8-17.3,19.2-32.7,33-45.9l50.1-55.3c16.4-22.1,37.9-40.1,62.5-52.4
		c7.7-4.7,20.2-3.6,26.9,2.4c3,7.5,2,18.3-4,25c-8.1,10.1-18,20.1-31.2,26.2c-7.5,3-15.1,7.7-22.8,12.5c-6,6.7-6.8,15.7-2.1,23.3
		l1.8,0.2c3.4,2.1,5.7-3.1,7.7-4.7c4.2-6.9,11.9-11.6,21.2-14.4c7.5-3,16.6-4,24.1-6.9c11.2-4.4,20.8-10.8,30.4-17.2
		c24.9-15.9,54.2-20.5,82.2-9c1.8,0.2,1.6,2,3.4,2.1c-0.2,1.8-0.3,3.6-0.5,5.4c-2.6,8.8-10.2,13.6-19.4,14.6
		c-3.6-0.3-7.2-0.6-10.8-0.9c-5.5,1.3-11.1,2.6-16.6,4C221.7,98.4,199,109.1,178.2,119.9z"/>
	<path fill="#A6D8DA" d="M287.9,3c-7.2-0.6-12.9,2.5-18.4,3.8c-5.7,3.1-9.9,10-8.8,17.3c1.3,5.5,6.4,9.6,11.8,10.1
		c24.3,11.2,54,2.9,80.9,5.3c21.4,3.7,40.6,10.8,59.6,21.5c3.4,2.1,8.7,4.4,10.1,8.1c3.3,3.9,2.8,9.3,0.7,12.7
		c-3.9,3.3-9.4,4.6-14.7,2.3c-10.6-2.7-22.8-7.4-33.6-8.4c-10.6-2.7-23.3-2.1-34.6,2.4c-1.8-0.2-2,1.6-2.1,3.4c0,0-0.2,1.8-0.3,3.6
		c2.5,12.9,10.7,22.6,23.2,23.7c5.4,0.5,12.7-0.7,18.1-0.2c16.1,1.4,30.3,4.5,44.1,12.9c8.8,2.6,15.7,6.8,22.5,11
		c16.7,15.9,29.3,36.9,36.4,59.3c9.2,18.9,14.6,39.3,18.3,59.5c-0.3,3.6,1.2,7.3,2.6,11.1c5.1,4.1,12.2,4.7,16.3-0.4
		c10.1-11.8,11.3-26.1,5.3-39.3c-12.4-44.5-39.7-83.1-75.3-109.7c-1.6-2-3.3-3.9-3.1-5.7s0.3-3.6,0.6-7.2l5.2-17.6l50.2,65.9
		c6.5,7.8,11.3,15.5,16,23.1c6.1,13.2,8.4,27.9,10.7,42.5c-0.3,3.6,1.3,5.5,4.9,5.9c1.8,0.2,3.6,0.3,5.5-1.3l0,0
		c15.3-9.5,18.8-29.1,11-42.4l0,0L487.9,93c-11.5-13.7-23.1-25.5-36.5-37.6C428.2,31.7,394.6,23.3,365.2,8
		C337.5-5.3,313.4,1.6,287.9,3z"/>
	<path fill="#A6D8DA" d="M225.6,515.9c-4.2-3.2-4.4-10.3-0.3-14.2c2.8-2.2,7.2-4.8,11.1-2.9c10.6,1.5,19.5,3.4,28.5,5.3
		c10.9,2.8,20.2,6.1,32.7,8.5c29.2,8,62.7,6.4,92.4-2.9c31.3-9.7,57.1-27.8,74.3-52.4c17.8-28.9,27.9-61.6,26.5-92.6
		c0.9-3.1,3.3-6.6,8.5-6.5c3.2-0.8,5.5,1.4,5.8,2.8c3.3,6.3,5.1,12.9,4.9,18.7c1.2,36.8-13.3,72-40.9,102.1c4.2,3.2,10,5.9,17.1,6.9
		c38.6-53,52.7-115.2,42.4-173.9c0.2-5.8-1.6-12.4-4.6-17.4c-0.7-2.7,0.2-5.8,3-7.9c1.6-0.4,3.2-0.8,4.8-1.3
		c10.6,1.5,20.6,7.4,27.4,14.2c8.8,20.5-3.7,43.8-1.6,64.7c2.4,35-8.5,70.7-29.1,101.9c-20.6,31.1-47,59.5-80,82.4
		c-11.3,8.7-22.9,16-34.2,24.7c-8.5,6.5-20.8,11.2-27.6,4.4c3.2-13.7,12.2-24.6,25-33.7l51.3-43.5c-4.9-5.8-14.3-9.1-23.4-5.3
		c-7.6,3.4-14.8,8.2-21.7,14.3c-26.6,21.3-63,30.8-96.7,25.4l-5.1,25.6c11.3,4.2,25.7,7.5,37.8,8.6c10.9,2.8,16.9,12.7,6.5,18.3
		L356,593c-9.2,3.8-16-2.9-26.2-3.1c-32.2-0.1-63-7.7-90.1-20.6c-12-6.8-23.9-13.7-35.9-20.5c-16.5-11.4-37.3-25.9-54.2-38.6
		c-8.4-6.3-17.6-15.4-11.1-22.8c11.1-2.9,23.2-1.8,31.7,4.5c8.4,6.3,15.3,13.1,22.2,19.9c26.4,23,60,41.3,96.2,50.3
		c1.9,0.9,5.5,1.4,8.3-0.7c1.2-1.8,1.2-1.8,2.5-3.5l6-15.8C280.3,537.2,242,533,225.6,515.9z"/>
	<path fill="#99D3D4" d="M109.8,415.2C85.4,384,66.2,348.7,53.3,311.3c-4.4-12.7-8.1-26-7.8-39.4c0.1-2.9-0.2-6.6-2.9-7.7
		c-2.8-1.1-5.7,1.7-6.8,4.6c-3.6,8.6-0.8,18.3,1.7,27.3c6.9,24.7,11.4,50.1,13.3,75.7c0.3,4.1,0.6,8.3,2.8,11.7
		c2.2,3.4,7,5.6,10.4,3.5c-4.2,2.6-9.8,1.5-13.9-1.2c-4.1-2.7-7-6.9-9.7-11c-7.5-10.9-15-22-19.4-34.6c-2.8-8.2-4.2-16.8-5.6-25.4
		c-2.5-15.8-5.1-31.7-7.6-47.5c-10.5,19.5-8.3,43-5.5,64.9C4,344.6,5.7,357,7.6,369.4c2.2,14.5,4.6,29.2,10.5,42.6
		c5.3,11.9,13.2,22.5,21.1,32.9c10.4,13.8,21,27.9,35,38.1c13.9,10.2,32,16.3,48.8,12.1c-14.3-5.7-25.6-16.8-36.6-27.6
		c-4.5-4.4-9-8.9-13.5-13.3c-12.9-12.8-26.8-27.7-26.5-45.9c9.3,3.7,16.4,11.4,23.1,18.8c9,9.9,18,19.9,27,29.8
		c8.7,9.6,19.9,20.1,32.6,17.5c-11.3-18.6-27.1-34.3-45.6-45.6c-5.3-3.2-11.1-6.4-13.5-12c-2.4-5.6,1.5-14,7.6-13
		c3.8,0.6,6.1,4.3,8.2,7.6c7.2,10.9,36.2,39.2,51.7,29.8c6.8-4.1-1.8-5.2-6.3-7.2C122,429.7,116.1,423.1,109.8,415.2z"/>
</g>
</svg>
