<?xml version="1.0" encoding="utf-8"?>
<!-- Generator: Adobe Illustrator 19.2.1, SVG Export Plug-In . SVG Version: 6.00 Build 0)  -->
<svg version="1.1" id="Layer_1" xmlns="http://www.w3.org/2000/svg" xmlns:xlink="http://www.w3.org/1999/xlink" x="0px" y="0px"
	 viewBox="0 0 465.644 599.51" enable-background="new 0 0 465.644 599.51" xml:space="preserve">
<path fill="#148A93" d="M457.81,268.14c-2.101-6.775-4.272-13.781-5.757-20.786c-3.431-16.196-3.404-33.188-3.38-49.62
	c0.05-33.988,0.097-67.977,0.143-101.965c0.026-19.675-0.992-41.774-13.479-55.001c-7.488-7.929-17.612-11-27.438-13.136
	c-23.553-5.124-47.882-6.509-71.41-7.85c-28.095-1.6-57.146-3.255-84.729-11.332l-2.449-0.718
	c-31.488-9.24-48.832-14.33-76.699,9.248c-25.291,21.4-50.792,45.952-66.005,80.398c-0.258,0.583-0.513,1.17-0.768,1.758
	c-1.534,3.531-3.12,7.183-5.333,10.043c-2.296,2.969-5.228,5.108-8.333,7.374c-1.099,0.802-2.235,1.631-3.337,2.497
	c-15.81,12.433-25.209,32.856-33.502,50.875l-43.735,95.016c-8.72,18.945-16.469,40.715-7.829,58.529
	c1.618,3.339,3.724,6.259,5.759,9.083c1.93,2.677,3.753,5.206,5.196,8.063c4.479,8.873,4.732,19.877,4.977,30.519
	c0.038,1.616,0.074,3.228,0.125,4.824c1.256,39.323,14.943,70.618,36.614,83.714c7.157,4.322,15.008,6.634,22.6,8.869
	c2.077,0.611,4.152,1.223,6.213,1.874c50.264,15.885,92.171,56.123,132.699,95.037c3.713,3.565,7.419,7.123,11.122,10.654
	c11.984,11.428,25.932,23.402,41.489,23.402c1.264,0,2.541-0.079,3.825-0.244c21.943-2.813,35.607-29.4,44.649-46.993
	c30.529-59.41,66.653-115.027,107.367-165.308l0.369-0.455c18.351-22.654,39.149-48.331,38.866-80.192
	C465.525,293.019,461.603,280.371,457.81,268.14z"/>
<path id="vacuolo" fill="#32B9CA" d="M251.197,10.371c50.894,14.903,104.704,7.997,156.277,19.216
	c9.46,2.057,19.258,4.983,26.408,12.555c12.112,12.829,12.96,34.452,12.934,53.625c-0.046,33.988-0.093,67.976-0.143,101.964
	c-0.025,16.779-0.025,33.756,3.423,50.038c4.178,19.713,13.368,38.25,13.545,58.566c0.278,31.353-20.405,56.673-38.79,79.372
	c-40.822,50.413-76.973,106.066-107.592,165.653c-10.422,20.278-23.103,43.356-43.124,45.923
	c-16.26,2.087-30.974-10.506-43.68-22.622c-44.494-42.428-89.287-88.672-144.599-106.151c-9.604-3.035-19.536-5.206-28.381-10.548
	c-24.368-14.726-34.62-49.856-35.649-82.065c-0.396-12.373,0.059-25.535-5.316-36.18c-3.103-6.147-7.93-10.906-10.94-17.116
	c-8.465-17.454-0.287-39.152,7.846-56.821c14.578-31.674,29.157-63.343,43.735-95.016c8.638-18.769,17.841-38.28,32.921-50.139
	c4.123-3.242,8.676-5.902,12.015-10.219c2.74-3.541,4.473-7.968,6.349-12.217c14.823-33.562,39.819-57.976,65.468-79.679
	C201.648-4.967,218.44,0.78,251.197,10.371z"/>
</svg>
